<svg xmlns="http://www.w3.org/2000/svg" width="220" height="232" viewBox="0 0 220 232">
  <g id="img2" transform="translate(-233 -1819)">
    <g id="Right" transform="translate(233.438 1819)">
      <rect id="BG" width="220" height="232" transform="translate(-0.438)" fill="#339ce9" opacity="0.949"/>
    </g>
    <g id="estera" transform="translate(264.34 1859.94)">
      <path id="Trazado_154064" data-name="Trazado 154064" d="M256.5,146.934v97.859a6.958,6.958,0,0,0,6.959,6.958h59.811V146.934Zm0,0" transform="translate(-181.297 -103.852)" fill="#b4e7fd"/>
      <path id="Trazado_154065" data-name="Trazado 154065" d="M263.463,409.5a6.958,6.958,0,0,1,0,13.917,6.958,6.958,0,0,0-6.959,6.958V409.5Zm0,0" transform="translate(-181.297 -289.434)" fill="#40c1fa"/>
      <path id="Trazado_154066" data-name="Trazado 154066" d="M468.742,146.934h4.541V251.751h-4.541Zm0,0" transform="translate(-331.306 -103.852)" fill="#93dcfc"/>
      <path id="Trazado_154067" data-name="Trazado 154067" d="M70.184,70.184h61.587a6.958,6.958,0,0,1,6.959,6.959v99.487a6.958,6.958,0,0,0-6.959-6.958H70.184Zm0,0" transform="translate(-49.606 -49.606)" fill="#b4e7fd"/>
      <path id="Trazado_154068" data-name="Trazado 154068" d="M269.294,70.184h-4.54a6.958,6.958,0,0,1,6.958,6.959V170.1a6.961,6.961,0,0,1,4.54,6.526V77.143A6.958,6.958,0,0,0,269.294,70.184Zm0,0" transform="translate(-187.128 -49.606)" fill="#93dcfc"/>
      <path id="Trazado_154069" data-name="Trazado 154069" d="M70.184,169.672h14.95a23.651,23.651,0,0,0,8.738-18.358V70.184H70.184Zm0,0" transform="translate(-49.606 -49.606)" fill="#93dcfc"/>
      <path id="Trazado_154070" data-name="Trazado 154070" d="M44.29,302.634a18.358,18.358,0,1,1-18.358-18.357A18.358,18.358,0,0,1,44.29,302.634Zm0,0" transform="translate(-5.353 -200.927)" fill="#72d1fb"/>
      <path id="Trazado_154071" data-name="Trazado 154071" d="M46.229,297.2A18.354,18.354,0,0,1,20.5,322.932,18.355,18.355,0,1,0,46.229,297.2Zm0,0" transform="translate(-14.487 -210.06)" fill="#40c1fa"/>
      <path id="Trazado_154072" data-name="Trazado 154072" d="M55.985,322.621a10.067,10.067,0,1,1-10.067-10.066A10.067,10.067,0,0,1,55.985,322.621Zm0,0" transform="translate(-25.34 -220.913)" fill="#b4e7fd"/>
      <path id="Trazado_154073" data-name="Trazado 154073" d="M7.574,107.061a18.358,18.358,0,0,1,36.715,0V25.931a18.358,18.358,0,0,0-36.715,0Zm0,0" transform="translate(-5.353 -5.353)" fill="#93dcfc"/>
      <path id="Trazado_154074" data-name="Trazado 154074" d="M115.629,27.141V38.484c.029.423.049.848.049,1.277v68.561a18.287,18.287,0,0,1,4.984,12.569V39.761A18.291,18.291,0,0,0,115.629,27.141Zm0,0" transform="translate(-81.726 -19.183)" fill="#72d1fb"/>
      <path id="Trazado_154075" data-name="Trazado 154075" d="M52.852,317.267a12.288,12.288,0,1,0-12.287,12.288A12.3,12.3,0,0,0,52.852,317.267Zm-20.134,0a7.846,7.846,0,1,1,7.845,7.847A7.854,7.854,0,0,1,32.719,317.267Zm0,0" transform="translate(-19.986 -215.56)"/>
      <path id="Trazado_154076" data-name="Trazado 154076" d="M147.9,54.831a2.221,2.221,0,1,0,0-4.442h-3.7V45.3h3.7a2.221,2.221,0,1,0,0-4.442H91.345V27.537a9.191,9.191,0,0,0-9.18-9.18H63.08a2.221,2.221,0,1,0,0,4.442H82.165A4.744,4.744,0,0,1,86.9,27.537v91.628a9.124,9.124,0,0,0-4.738-1.319H33.325a20.546,20.546,0,0,0,7.832-16.138V22.8H52.724a2.221,2.221,0,0,0,0-4.442H41.036A20.578,20.578,0,0,0,0,20.578V35.506a2.221,2.221,0,0,0,4.442,0V20.578a16.137,16.137,0,0,1,32.274,0V88.96a20.543,20.543,0,0,0-32.274,0V45.894a2.221,2.221,0,0,0-4.442,0v55.814a20.6,20.6,0,0,0,20.578,20.579H72.987v18.654a9.19,9.19,0,0,0,9.18,9.179h29.769a2.221,2.221,0,1,0,0-4.442H82.166a4.738,4.738,0,1,1,0-9.475,9.189,9.189,0,0,0,9.179-9.179V45.3h48.411V145.678h-17.47a2.221,2.221,0,1,0,0,4.442H147.9a2.221,2.221,0,1,0,0-4.442h-3.7V140.59h3.7a2.221,2.221,0,1,0,0-4.442h-3.7v-5.087h3.7a2.221,2.221,0,1,0,0-4.442h-3.7v-5.086h3.7a2.221,2.221,0,1,0,0-4.442h-3.7V112h3.7a2.221,2.221,0,1,0,0-4.442h-3.7v-5.088h3.7a2.221,2.221,0,1,0,0-4.442h-3.7V92.946h3.7a2.221,2.221,0,1,0,0-4.442h-3.7V83.417h3.7a2.221,2.221,0,1,0,0-4.442h-3.7V73.888h3.7a2.221,2.221,0,1,0,0-4.442h-3.7V64.36h3.7a2.221,2.221,0,1,0,0-4.442h-3.7V54.831ZM4.442,101.708a16.137,16.137,0,1,1,16.136,16.138A16.155,16.155,0,0,1,4.442,101.708Zm77.725,30.054a9.127,9.127,0,0,0-4.738,1.319V122.287h4.738a4.738,4.738,0,0,1,0,9.475Zm0,0"/>
    </g>
  </g>
</svg>
