<svg xmlns="http://www.w3.org/2000/svg" width="73.262" height="78.331" viewBox="0 0 73.262 78.331">
  <g id="img8" transform="translate(-16.566)">
    <g id="Grupo_89884" data-name="Grupo 89884" transform="translate(17.56 1.147)">
      <path id="Trazado_153572" data-name="Trazado 153572" d="M73.757,17.638v-7.6A2.535,2.535,0,0,0,71.222,7.5H25.6a2.535,2.535,0,0,0-2.535,2.535v55.76A2.535,2.535,0,0,0,25.6,68.329h7.6Z" transform="translate(-23.066 -7.5)" fill="#0ac4bf"/>
      <path id="Trazado_153573" data-name="Trazado 153573" d="M318.352,7.5h-3.519a2.535,2.535,0,0,1,2.535,2.535v12l3.519-4.4v-7.6A2.535,2.535,0,0,0,318.352,7.5Z" transform="translate(-270.196 -7.5)" fill="#a2b6f4"/>
      <path id="Trazado_153574" data-name="Trazado 153574" d="M140.024,137.129a2.535,2.535,0,0,1-2.535,2.535H91.868a2.535,2.535,0,0,1-2.535-2.535V76.3a2.535,2.535,0,0,1,2.535-2.535h36.968a2.534,2.534,0,0,1,1.792.742l8.653,8.653a2.535,2.535,0,0,1,.742,1.792v52.175Z" transform="translate(-79.195 -63.628)" fill="#e9efff"/>
      <path id="Trazado_153575" data-name="Trazado 153575" d="M219.283,145.1H206.524a1.224,1.224,0,0,1-1.224-1.224v-2.621a1.224,1.224,0,0,1,1.224-1.224h12.759a1.224,1.224,0,0,1,1.224,1.224v2.621A1.224,1.224,0,0,1,219.283,145.1Z" transform="translate(-177.42 -119.758)" fill="#77dfff"/>
      <path id="Trazado_153576" data-name="Trazado 153576" d="M338.5,83.163l-8.653-8.653a2.535,2.535,0,0,0-1.792-.742h-3.519a2.534,2.534,0,0,1,1.792.742l8.653,8.653a2.535,2.535,0,0,1,.742,1.792V137.13a2.535,2.535,0,0,1-2.535,2.535h3.519a2.535,2.535,0,0,0,2.535-2.535V84.955A2.534,2.534,0,0,0,338.5,83.163Z" transform="translate(-278.416 -63.629)" fill="#bec8f7"/>
      <path id="Trazado_153577" data-name="Trazado 153577" d="M363.795,84.44l-8.653-8.653a2.526,2.526,0,0,0-.742-.512v7.373a2.535,2.535,0,0,0,2.535,2.535h7.373A2.527,2.527,0,0,0,363.795,84.44Z" transform="translate(-303.708 -64.906)" fill="#bec8f7"/>
      <path id="Trazado_153578" data-name="Trazado 153578" d="M354.83,75.524l-.043-.032q-.09-.061-.184-.115l0,0q-.1-.055-.2-.1h0v3.288l5.877,5.877a2.53,2.53,0,0,1,.512.742h3.519q-.047-.1-.1-.2l0,0q-.053-.095-.115-.185l-.031-.042c-.033-.047-.067-.093-.1-.138-.05-.06-.1-.118-.158-.174l-8.653-8.653c-.056-.056-.114-.108-.174-.158C354.923,75.591,354.877,75.558,354.83,75.524Z" transform="translate(-303.708 -64.905)" fill="#a2b6f4"/>
      <path id="Trazado_153579" data-name="Trazado 153579" d="M277.219,140.033H273.7a1.224,1.224,0,0,1,1.224,1.224v2.621A1.224,1.224,0,0,1,273.7,145.1h3.519a1.224,1.224,0,0,0,1.224-1.224v-2.621A1.224,1.224,0,0,0,277.219,140.033Z" transform="translate(-235.356 -119.757)" fill="#69cdff"/>
      <g id="Grupo_89883" data-name="Grupo 89883" transform="translate(27.88 45.622)">
        <path id="Trazado_153580" data-name="Trazado 153580" d="M206.524,325.976h40.639a1.224,1.224,0,0,0,1.224-1.224V306.924a1.224,1.224,0,0,0-1.224-1.224H206.524a1.224,1.224,0,0,0-1.224,1.224v17.828A1.224,1.224,0,0,0,206.524,325.976Z" transform="translate(-205.3 -305.7)" fill="#ff6c6c"/>
        <path id="Trazado_153581" data-name="Trazado 153581" d="M459.452,305.7h-3.519a1.224,1.224,0,0,1,1.224,1.224v17.828a1.224,1.224,0,0,1-1.224,1.224h3.519a1.224,1.224,0,0,0,1.224-1.224V306.924A1.224,1.224,0,0,0,459.452,305.7Z" transform="translate(-417.589 -305.7)" fill="#f74242"/>
      </g>
    </g>
    <g id="Grupo_89885" data-name="Grupo 89885" transform="translate(16.566 0)">
      <path id="Trazado_153582" data-name="Trazado 153582" d="M87.456,45.621H79.69V33.857a1.147,1.147,0,0,0-2.295,0V45.621H46.817a2.374,2.374,0,0,0-2.371,2.371V65.821a2.374,2.374,0,0,0,2.371,2.371H77.395v6.456a1.389,1.389,0,0,1-1.387,1.387H30.386A1.389,1.389,0,0,1,29,74.649V13.82a1.389,1.389,0,0,1,1.387-1.387h36.87v6.456a3.686,3.686,0,0,0,3.682,3.682h6.456v6.7a1.147,1.147,0,0,0,2.295,0V22.473a3.658,3.658,0,0,0-1.078-2.6l-8.653-8.653a3.748,3.748,0,0,0-.406-.352V3.682A3.686,3.686,0,0,0,65.869,0H20.248a3.686,3.686,0,0,0-3.682,3.682V6.456a1.147,1.147,0,1,0,2.295,0V3.682a1.389,1.389,0,0,1,1.387-1.387H65.869a1.389,1.389,0,0,1,1.387,1.387v6.456H30.386A3.686,3.686,0,0,0,26.7,13.82V60.829H20.248a1.389,1.389,0,0,1-1.387-1.387v-48.4a1.147,1.147,0,0,0-2.295,0v48.4a3.686,3.686,0,0,0,3.682,3.682H26.7V74.649a3.686,3.686,0,0,0,3.682,3.682H76.008a3.686,3.686,0,0,0,3.682-3.682V68.193h7.767a2.374,2.374,0,0,0,2.371-2.371V47.993a2.374,2.374,0,0,0-2.371-2.371ZM75.772,20.276H70.939a1.389,1.389,0,0,1-1.387-1.387V14.056ZM87.533,65.821a.077.077,0,0,1-.076.076H46.817a.077.077,0,0,1-.076-.076V47.993a.077.077,0,0,1,.076-.076H87.456a.077.077,0,0,1,.076.076Z" transform="translate(-16.566 0)"/>
      <path id="Trazado_153583" data-name="Trazado 153583" d="M237.044,331.333h-3.73a2.417,2.417,0,0,0-2.415,2.415v8.871a1.147,1.147,0,0,0,2.295,0V338.7h3.922a3.7,3.7,0,0,0,2.664-1.141,3.653,3.653,0,0,0,1.014-2.718A3.714,3.714,0,0,0,237.044,331.333Zm1.075,4.639a1.375,1.375,0,0,1-1,.43h-3.922v-2.654a.12.12,0,0,1,.12-.12h3.73a1.44,1.44,0,0,1,1.457,1.318A1.378,1.378,0,0,1,238.119,335.972Z" transform="translate(-198.108 -280.642)"/>
      <path id="Trazado_153584" data-name="Trazado 153584" d="M318.679,331.333h-2.535a2.418,2.418,0,0,0-2.415,2.415v7.6a2.417,2.417,0,0,0,2.415,2.415h2.535a4.955,4.955,0,0,0,4.949-4.949v-2.535A4.955,4.955,0,0,0,318.679,331.333Zm2.654,7.484a2.657,2.657,0,0,1-2.654,2.654h-2.535a.12.12,0,0,1-.12-.12v-7.6a.12.12,0,0,1,.12-.12h2.535a2.657,2.657,0,0,1,2.654,2.654Z" transform="translate(-268.267 -280.642)"/>
      <path id="Trazado_153585" data-name="Trazado 153585" d="M405.474,331.333h-6.495a2.417,2.417,0,0,0-2.415,2.415v8.871a1.147,1.147,0,1,0,2.295,0V338.7h3.922a1.147,1.147,0,1,0,0-2.295h-3.922v-2.654a.12.12,0,0,1,.12-.12h6.495a1.147,1.147,0,0,0,0-2.295Z" transform="translate(-338.428 -280.642)"/>
      <path id="Trazado_153586" data-name="Trazado 153586" d="M213.931,139.9a2.374,2.374,0,0,0,2.371-2.371v-2.621a2.374,2.374,0,0,0-2.371-2.371H201.171a2.374,2.374,0,0,0-2.371,2.371v2.621a2.374,2.374,0,0,0,2.371,2.371Zm-12.836-2.371v-2.621a.077.077,0,0,1,.076-.076h12.759a.077.077,0,0,1,.077.076v2.621a.077.077,0,0,1-.077.076H201.171A.077.077,0,0,1,201.095,137.527Z" transform="translate(-170.92 -112.258)"/>
      <path id="Trazado_153587" data-name="Trazado 153587" d="M169.164,198.8H133.68a1.147,1.147,0,1,0,0,2.295h35.483a1.147,1.147,0,0,0,0-2.295Z" transform="translate(-114.791 -168.386)"/>
      <path id="Trazado_153588" data-name="Trazado 153588" d="M169.164,231.933H133.68a1.147,1.147,0,1,0,0,2.295h35.483a1.147,1.147,0,0,0,0-2.295Z" transform="translate(-114.791 -196.45)"/>
      <path id="Trazado_153589" data-name="Trazado 153589" d="M169.164,265.067H133.68a1.147,1.147,0,1,0,0,2.295h35.483a1.147,1.147,0,1,0,0-2.295Z" transform="translate(-114.791 -224.514)"/>
    </g>
  </g>
</svg>
