<svg xmlns="http://www.w3.org/2000/svg" width="220" height="177" viewBox="0 0 220 177">
  <g id="img2" transform="translate(-233 -964)">
    <g id="Right" transform="translate(233.438 964)">
      <rect id="BG" width="220" height="177" transform="translate(-0.438)" fill="#339ce9" opacity="0.949"/>
    </g>
    <g id="_15_Shopping_List" data-name="15_Shopping List" transform="translate(285.041 987)">
      <path id="Trazado_118760" data-name="Trazado 118760" d="M3,11H90.173v99.06H3Z" transform="translate(0.981 8.831)" fill="#d1d3d4"/>
      <path id="Trazado_118761" data-name="Trazado 118761" d="M3,11H8.944v99.06H3Z" transform="translate(0.981 8.831)" fill="#a7a9ac"/>
      <path id="Trazado_118762" data-name="Trazado 118762" d="M91.154,113.022H3.981A1.981,1.981,0,0,1,2,111.041V11.981A1.981,1.981,0,0,1,3.981,10H91.154a1.981,1.981,0,0,1,1.981,1.981V87.267H89.173v-73.3H5.962v95.1h83.21V99.154h3.962v11.887A1.981,1.981,0,0,1,91.154,113.022Z" transform="translate(0 7.85)"/>
      <path id="Trazado_118763" data-name="Trazado 118763" d="M46,51h3.962v3.962H46Z" transform="translate(43.173 48.079)"/>
      <path id="Trazado_118764" data-name="Trazado 118764" d="M16,7H51.662V24.831H16Z" transform="translate(13.737 4.906)" fill="#f79f19"/>
      <path id="Trazado_118765" data-name="Trazado 118765" d="M16,7h5.944V24.831H16Z" transform="translate(13.737 4.906)" fill="#d17700"/>
      <path id="Trazado_118766" data-name="Trazado 118766" d="M52.643,27.793H16.981A1.981,1.981,0,0,1,15,25.812V7.981A1.981,1.981,0,0,1,16.981,6H52.643a1.981,1.981,0,0,1,1.981,1.981V25.812A1.981,1.981,0,0,1,52.643,27.793Zm-33.68-3.962h31.7V9.962h-31.7Z" transform="translate(12.756 3.925)"/>
      <path id="Trazado_118767" data-name="Trazado 118767" d="M27.944,3a5.944,5.944,0,0,1,5.944,5.944v1.981H22V8.944A5.944,5.944,0,0,1,27.944,3Z" transform="translate(19.624 0.981)" fill="#f79f19"/>
      <path id="Trazado_118768" data-name="Trazado 118768" d="M34.868,13.887H22.981A1.981,1.981,0,0,1,21,11.906V9.925a7.925,7.925,0,1,1,15.85,0v1.981A1.981,1.981,0,0,1,34.868,13.887ZM24.962,9.925h7.925a3.962,3.962,0,1,0-7.925,0Z" transform="translate(18.643 0)"/>
      <path id="Trazado_118769" data-name="Trazado 118769" d="M19.868,39.85H7.981A1.981,1.981,0,0,1,6,37.868V25.981A1.981,1.981,0,0,1,7.981,24h5.944v3.962H9.962v7.925h7.925V33.906H21.85v3.962A1.981,1.981,0,0,1,19.868,39.85Z" transform="translate(3.925 21.586)"/>
      <path id="Trazado_118770" data-name="Trazado 118770" d="M19.868,51.85H7.981A1.981,1.981,0,0,1,6,49.868V37.981A1.981,1.981,0,0,1,7.981,36h5.944v3.962H9.962v7.925h7.925V45.906H21.85v3.962A1.981,1.981,0,0,1,19.868,51.85Z" transform="translate(3.925 33.361)"/>
      <path id="Trazado_118771" data-name="Trazado 118771" d="M19.868,63.85H7.981A1.981,1.981,0,0,1,6,61.868V49.981A1.981,1.981,0,0,1,7.981,48h5.944v3.962H9.962v7.925h7.925V57.906H21.85v3.962A1.981,1.981,0,0,1,19.868,63.85Z" transform="translate(3.925 45.135)"/>
      <path id="Trazado_118772" data-name="Trazado 118772" d="M0,0H21.015V3.962H0Z" transform="translate(16.441 75.878) rotate(-45)"/>
      <path id="Trazado_118773" data-name="Trazado 118773" d="M0,0H18.211V3.962H0Z" transform="translate(16.442 52.106) rotate(-45)"/>
      <path id="Trazado_118774" data-name="Trazado 118774" d="M0,0H19.612V3.962H0Z" transform="translate(16.436 99.651) rotate(-45)"/>
      <path id="Trazado_118775" data-name="Trazado 118775" d="M21,26H62.605v3.962H21Z" transform="translate(18.643 23.549)"/>
      <path id="Trazado_118776" data-name="Trazado 118776" d="M21,38H62.605v3.962H21Z" transform="translate(18.643 35.323)"/>
      <path id="Trazado_118777" data-name="Trazado 118777" d="M21,50H62.605v3.962H21Z" transform="translate(18.643 47.098)"/>
      <path id="Trazado_118778" data-name="Trazado 118778" d="M52,21H63.887V64.586H52Z" transform="translate(49.06 18.643)" fill="#b20637"/>
      <path id="Trazado_118779" data-name="Trazado 118779" d="M52,21h5.944V64.586H52Z" transform="translate(49.06 18.643)" fill="#75002d"/>
      <path id="Trazado_118780" data-name="Trazado 118780" d="M64.868,67.549H52.981A1.981,1.981,0,0,1,51,65.568V21.981A1.981,1.981,0,0,1,52.981,20H64.868a1.981,1.981,0,0,1,1.981,1.981V65.568A1.981,1.981,0,0,1,64.868,67.549Zm-9.906-3.962h7.925V23.962H54.962Z" transform="translate(48.079 17.662)"/>
      <path id="Trazado_118781" data-name="Trazado 118781" d="M57.944,14a5.944,5.944,0,0,1,5.944,5.944v7.925H52V19.944A5.944,5.944,0,0,1,57.944,14Z" transform="translate(49.06 11.774)" fill="#f79f19"/>
      <path id="Trazado_118782" data-name="Trazado 118782" d="M60.915,14.824A5.88,5.88,0,0,0,57.944,14,5.944,5.944,0,0,0,52,19.944v7.925h5.944V19.944a5.918,5.918,0,0,1,2.972-5.119Z" transform="translate(49.06 11.774)" fill="#d17700"/>
      <path id="Trazado_118783" data-name="Trazado 118783" d="M64.868,30.831H52.981A1.981,1.981,0,0,1,51,28.85V20.925a7.925,7.925,0,1,1,15.85,0V28.85A1.981,1.981,0,0,1,64.868,30.831Zm-9.906-3.962h7.925V20.925a3.962,3.962,0,0,0-7.925,0Z" transform="translate(48.079 10.793)"/>
      <path id="Trazado_118784" data-name="Trazado 118784" d="M65.925,43.774H61.962V23.962H58V20h5.944a1.981,1.981,0,0,1,1.981,1.981Z" transform="translate(54.947 17.662)"/>
      <path id="Trazado_118785" data-name="Trazado 118785" d="M59.925,66.774H55.962L52,54.887V43H63.887V54.887Z" transform="translate(49.06 40.229)" fill="#f79f19"/>
      <path id="Trazado_118786" data-name="Trazado 118786" d="M57.944,54.887V43H52V54.887l3.962,11.887h3.962l.991-2.972Z" transform="translate(49.06 40.229)" fill="#d17700"/>
      <path id="Trazado_118787" data-name="Trazado 118787" d="M60.906,69.737H56.944a1.981,1.981,0,0,1-1.88-1.355L51.1,56.494a1.981,1.981,0,0,1-.1-.626V43.981A1.981,1.981,0,0,1,52.981,42H64.868a1.981,1.981,0,0,1,1.981,1.981V55.868a1.981,1.981,0,0,1-.1.626L62.786,68.382A1.981,1.981,0,0,1,60.906,69.737Zm-2.534-3.962h1.106l3.41-10.227V45.962H54.962v9.585Z" transform="translate(48.079 39.248)"/>
      <path id="Trazado_118788" data-name="Trazado 118788" d="M54,55h3.962v7.925H54Z" transform="translate(51.022 52.004)"/>
    </g>
  </g>
</svg>
