<svg xmlns="http://www.w3.org/2000/svg" xmlns:xlink="http://www.w3.org/1999/xlink" width="485.574" height="248.25" viewBox="0 0 485.574 248.25">
  <defs>
    <clipPath id="clip-path">
      <rect id="Rectángulo_26705" data-name="Rectángulo 26705" width="485.574" height="248.25" fill="none"/>
    </clipPath>
  </defs>
  <g id="img11" transform="translate(-1342.945 5548.307)">
    <g id="Grupo_90369" data-name="Grupo 90369" transform="translate(1342.945 -5548.307)">
      <path id="Trazado_154276" data-name="Trazado 154276" d="M485.505,270.829l-122.282,58.8L1.982,230.849l126.089-31.278Z" transform="translate(-0.836 -84.228)" fill="#fff"/>
      <g id="Grupo_90362" data-name="Grupo 90362">
        <g id="Grupo_90361" data-name="Grupo 90361" clip-path="url(#clip-path)">
          <path id="Trazado_154277" data-name="Trazado 154277" d="M485.505,270.829l-122.282,58.8L1.982,230.849l126.089-31.278Z" transform="translate(-0.836 -84.228)" fill="none" stroke="#000" stroke-miterlimit="10" stroke-width="1"/>
        </g>
      </g>
      <path id="Trazado_154278" data-name="Trazado 154278" d="M.476,257.611,362.1,355.6,485.49,296.749v-2.6l-.023-.006-122.879,58.6L.476,254.347Z" transform="translate(-0.201 -107.346)"/>
      <path id="Trazado_154279" data-name="Trazado 154279" d="M485.505,201.37l-122.282,58.8L1.982,161.39l126.089-31.278Z" transform="translate(-0.836 -54.913)" fill="#efefef"/>
      <g id="Grupo_90364" data-name="Grupo 90364">
        <g id="Grupo_90363" data-name="Grupo 90363" clip-path="url(#clip-path)">
          <path id="Trazado_154280" data-name="Trazado 154280" d="M485.505,201.37l-122.282,58.8L1.982,161.39l126.089-31.278Z" transform="translate(-0.836 -54.913)" fill="none" stroke="#000" stroke-miterlimit="10" stroke-width="1"/>
        </g>
      </g>
      <path id="Trazado_154281" data-name="Trazado 154281" d="M.476,188.153,362.1,286.138,485.49,227.29v-2.6l-.023-.006-122.879,58.6L.476,184.889Z" transform="translate(-0.201 -78.031)"/>
      <path id="Trazado_154282" data-name="Trazado 154282" d="M485.505,136.147l-122.282,58.8L1.982,96.166,128.071,64.889Z" transform="translate(-0.836 -27.386)" fill="#fff"/>
      <g id="Grupo_90366" data-name="Grupo 90366">
        <g id="Grupo_90365" data-name="Grupo 90365" clip-path="url(#clip-path)">
          <path id="Trazado_154283" data-name="Trazado 154283" d="M485.505,136.147l-122.282,58.8L1.982,96.166,128.071,64.889Z" transform="translate(-0.836 -27.386)" fill="none" stroke="#000" stroke-miterlimit="10" stroke-width="1"/>
        </g>
      </g>
      <path id="Trazado_154284" data-name="Trazado 154284" d="M.476,122.929,362.1,220.914,485.49,162.066v-2.6l-.023-.006-122.879,58.6L.476,119.665Z" transform="translate(-0.201 -50.504)"/>
      <path id="Trazado_154285" data-name="Trazado 154285" d="M1.982,31.79l361.241,98.78,122.282-58.8L128.072.513Z" transform="translate(-0.836 -0.216)" fill="#efefef"/>
      <g id="Grupo_90368" data-name="Grupo 90368">
        <g id="Grupo_90367" data-name="Grupo 90367" clip-path="url(#clip-path)">
          <path id="Trazado_154286" data-name="Trazado 154286" d="M485.505,71.771l-122.282,58.8L1.982,31.79,128.071.512Z" transform="translate(-0.836 -0.216)" fill="none" stroke="#000" stroke-miterlimit="10" stroke-width="1"/>
        </g>
      </g>
      <path id="Trazado_154287" data-name="Trazado 154287" d="M.476,58.552,362.1,156.537,485.49,97.69v-2.6l-.023-.006-122.879,58.6L.476,55.288Z" transform="translate(-0.201 -23.334)"/>
    </g>
    <g id="Grupo_90370" data-name="Grupo 90370" transform="translate(900.945 -10103)">
      <path id="Trazado_154288" data-name="Trazado 154288" d="M2677-7099.456l209.221,55.852" transform="translate(-2139 11700)" fill="none" stroke="#0ac4bf" stroke-width="1"/>
      <path id="Polígono_18" data-name="Polígono 18" d="M6,0l6,10H0Z" transform="translate(758.609 4653.838) rotate(108)" fill="#0ac4bf"/>
    </g>
    <g id="Grupo_90372" data-name="Grupo 90372" transform="translate(900.945 -10023.736)">
      <path id="Trazado_154288-2" data-name="Trazado 154288" d="M2677-7099.456l209.221,55.852" transform="translate(-2139 11700)" fill="none" stroke="#0ac4bf" stroke-width="1"/>
      <path id="Polígono_18-2" data-name="Polígono 18" d="M6,0l6,10H0Z" transform="translate(758.609 4653.838) rotate(108)" fill="#0ac4bf"/>
    </g>
    <g id="Grupo_90373" data-name="Grupo 90373" transform="translate(900.945 -9985.473)">
      <path id="Trazado_154288-3" data-name="Trazado 154288" d="M2677-7099.456l209.221,55.852" transform="translate(-2139 11700)" fill="none" stroke="#0ac4bf" stroke-width="1"/>
      <path id="Polígono_18-3" data-name="Polígono 18" d="M6,0l6,10H0Z" transform="translate(758.609 4653.838) rotate(108)" fill="#0ac4bf"/>
    </g>
    <path id="Trazado_154340" data-name="Trazado 154340" d="M1.32,0V-11.375H4.531a5.169,5.169,0,0,1,2.625.656A4.438,4.438,0,0,1,8.918-8.852,6.078,6.078,0,0,1,9.547-6.07v.727a6.1,6.1,0,0,1-.621,2.82A4.369,4.369,0,0,1,7.152-.664,5.5,5.5,0,0,1,4.469,0Zm1.5-10.141v8.914H4.4A3.435,3.435,0,0,0,7.1-2.3a4.452,4.452,0,0,0,.965-3.07v-.664a4.522,4.522,0,0,0-.91-3.012,3.24,3.24,0,0,0-2.582-1.09ZM13.156,0H11.711V-8.453h1.445ZM11.594-10.7a.863.863,0,0,1,.215-.594.807.807,0,0,1,.637-.242.819.819,0,0,1,.641.242.854.854,0,0,1,.219.594.826.826,0,0,1-.219.586.834.834,0,0,1-.641.234.821.821,0,0,1-.637-.234A.834.834,0,0,1,11.594-10.7Zm7.961,3.539a4.331,4.331,0,0,0-.711-.055A1.9,1.9,0,0,0,16.914-6V0H15.469V-8.453h1.406l.023.977a2.251,2.251,0,0,1,2.016-1.133,1.477,1.477,0,0,1,.641.109ZM24.242.156a3.693,3.693,0,0,1-2.8-1.129,4.19,4.19,0,0,1-1.078-3.02v-.266a5.073,5.073,0,0,1,.48-2.246,3.748,3.748,0,0,1,1.344-1.547,3.378,3.378,0,0,1,1.871-.559,3.166,3.166,0,0,1,2.563,1.086,4.7,4.7,0,0,1,.914,3.109v.6H21.813a3,3,0,0,0,.73,2.02,2.3,2.3,0,0,0,1.777.77,2.517,2.517,0,0,0,1.3-.312,3.259,3.259,0,0,0,.93-.828l.883.688A3.55,3.55,0,0,1,24.242.156Zm-.18-7.578a1.928,1.928,0,0,0-1.469.637A3.1,3.1,0,0,0,21.859-5h4.234v-.109A2.753,2.753,0,0,0,25.5-6.816,1.815,1.815,0,0,0,24.063-7.422Zm8.539,6.4a2.082,2.082,0,0,0,1.352-.469,1.649,1.649,0,0,0,.641-1.172h1.367a2.621,2.621,0,0,1-.5,1.383A3.293,3.293,0,0,1,34.23-.234,3.55,3.55,0,0,1,32.6.156,3.482,3.482,0,0,1,29.855-1a4.59,4.59,0,0,1-1.02-3.152v-.242a5.089,5.089,0,0,1,.453-2.2,3.451,3.451,0,0,1,1.3-1.492,3.7,3.7,0,0,1,2-.531,3.39,3.39,0,0,1,2.363.852,3.043,3.043,0,0,1,1,2.211H34.594a1.992,1.992,0,0,0-.621-1.348,1.932,1.932,0,0,0-1.379-.527,2.023,2.023,0,0,0-1.707.793,3.724,3.724,0,0,0-.605,2.293v.273a3.65,3.65,0,0,0,.6,2.25A2.033,2.033,0,0,0,32.6-1.023Zm8.375,0a2.082,2.082,0,0,0,1.352-.469,1.649,1.649,0,0,0,.641-1.172h1.367a2.621,2.621,0,0,1-.5,1.383,3.293,3.293,0,0,1-1.23,1.047,3.55,3.55,0,0,1-1.629.391A3.482,3.482,0,0,1,38.23-1a4.59,4.59,0,0,1-1.02-3.152v-.242a5.089,5.089,0,0,1,.453-2.2,3.451,3.451,0,0,1,1.3-1.492,3.7,3.7,0,0,1,2-.531,3.39,3.39,0,0,1,2.363.852,3.043,3.043,0,0,1,1,2.211H42.969a1.992,1.992,0,0,0-.621-1.348,1.932,1.932,0,0,0-1.379-.527,2.023,2.023,0,0,0-1.707.793,3.724,3.724,0,0,0-.605,2.293v.273a3.65,3.65,0,0,0,.6,2.25A2.033,2.033,0,0,0,40.977-1.023ZM47.531,0H46.086V-8.453h1.445ZM45.969-10.7a.863.863,0,0,1,.215-.594.807.807,0,0,1,.637-.242.819.819,0,0,1,.641.242.854.854,0,0,1,.219.594.826.826,0,0,1-.219.586.834.834,0,0,1-.641.234.821.821,0,0,1-.637-.234A.834.834,0,0,1,45.969-10.7ZM49.461-4.3a4.993,4.993,0,0,1,.488-2.234A3.643,3.643,0,0,1,51.309-8.07,3.7,3.7,0,0,1,53.3-8.609a3.565,3.565,0,0,1,2.793,1.2,4.6,4.6,0,0,1,1.066,3.18v.1a5.036,5.036,0,0,1-.473,2.215A3.589,3.589,0,0,1,55.332-.391a3.743,3.743,0,0,1-2.02.547,3.556,3.556,0,0,1-2.785-1.2A4.575,4.575,0,0,1,49.461-4.2Zm1.453.172a3.616,3.616,0,0,0,.652,2.258,2.088,2.088,0,0,0,1.746.852,2.075,2.075,0,0,0,1.75-.863A3.955,3.955,0,0,0,55.711-4.3a3.61,3.61,0,0,0-.66-2.254A2.1,2.1,0,0,0,53.3-7.422a2.075,2.075,0,0,0-1.727.852A3.925,3.925,0,0,0,50.914-4.133ZM53.953-12H55.7L53.609-9.7H52.445Zm6.383,3.547.047,1.063a3.08,3.08,0,0,1,2.531-1.219q2.68,0,2.7,3.023V0H64.172V-5.594a1.946,1.946,0,0,0-.418-1.352,1.675,1.675,0,0,0-1.277-.437,2.086,2.086,0,0,0-1.234.375,2.546,2.546,0,0,0-.828.984V0H58.969V-8.453ZM71.406-4.3a4.952,4.952,0,0,1,.922-3.129,2.915,2.915,0,0,1,2.414-1.184,2.932,2.932,0,0,1,2.352,1.016V-12h1.445V0H77.211l-.07-.906A2.943,2.943,0,0,1,74.727.156a2.887,2.887,0,0,1-2.395-1.2,5.008,5.008,0,0,1-.926-3.141Zm1.445.164a3.749,3.749,0,0,0,.594,2.25,1.92,1.92,0,0,0,1.641.813A2.109,2.109,0,0,0,77.094-2.3V-6.187a2.125,2.125,0,0,0-1.992-1.2,1.929,1.929,0,0,0-1.656.82A4.128,4.128,0,0,0,72.852-4.133ZM84.289.156a3.693,3.693,0,0,1-2.8-1.129,4.19,4.19,0,0,1-1.078-3.02v-.266a5.073,5.073,0,0,1,.48-2.246,3.748,3.748,0,0,1,1.344-1.547,3.378,3.378,0,0,1,1.871-.559,3.166,3.166,0,0,1,2.563,1.086,4.7,4.7,0,0,1,.914,3.109v.6H81.859a3,3,0,0,0,.73,2.02,2.3,2.3,0,0,0,1.777.77,2.517,2.517,0,0,0,1.3-.312,3.259,3.259,0,0,0,.93-.828l.883.688A3.55,3.55,0,0,1,84.289.156Zm-.18-7.578a1.928,1.928,0,0,0-1.469.637A3.1,3.1,0,0,0,81.906-5h4.234v-.109a2.753,2.753,0,0,0-.594-1.707A1.815,1.815,0,0,0,84.109-7.422ZM90.828,0H89.383V-12h1.445Zm8.234-10.5v2.047h1.578v1.117H99.063v5.242a1.171,1.171,0,0,0,.211.762.888.888,0,0,0,.719.254,3.5,3.5,0,0,0,.688-.094V0A4.19,4.19,0,0,1,99.57.156,1.8,1.8,0,0,1,98.109-.43a2.517,2.517,0,0,1-.492-1.664V-7.336H96.078V-8.453h1.539V-10.5ZM105.836.156a3.693,3.693,0,0,1-2.8-1.129,4.19,4.19,0,0,1-1.078-3.02v-.266a5.073,5.073,0,0,1,.48-2.246,3.748,3.748,0,0,1,1.344-1.547,3.378,3.378,0,0,1,1.871-.559,3.166,3.166,0,0,1,2.563,1.086,4.7,4.7,0,0,1,.914,3.109v.6h-5.727a3,3,0,0,0,.73,2.02,2.3,2.3,0,0,0,1.777.77,2.517,2.517,0,0,0,1.3-.312,3.259,3.259,0,0,0,.93-.828l.883.688A3.55,3.55,0,0,1,105.836.156Zm-.18-7.578a1.928,1.928,0,0,0-1.469.637A3.1,3.1,0,0,0,103.453-5h4.234v-.109a2.753,2.753,0,0,0-.594-1.707A1.815,1.815,0,0,0,105.656-7.422ZM112.3-8.453V.977q0,2.438-2.211,2.438a2.682,2.682,0,0,1-.883-.141V2.117a2.794,2.794,0,0,0,.656.063.982.982,0,0,0,.738-.262,1.294,1.294,0,0,0,.254-.91V-8.453ZM110.7-10.7a.867.867,0,0,1,.215-.59.79.79,0,0,1,.629-.246.819.819,0,0,1,.641.242.854.854,0,0,1,.219.594.826.826,0,0,1-.219.586.834.834,0,0,1-.641.234.808.808,0,0,1-.633-.234A.843.843,0,0,1,110.7-10.7ZM116.2,0H114.75V-8.453H116.2Zm-1.562-10.7a.863.863,0,0,1,.215-.594.807.807,0,0,1,.637-.242.819.819,0,0,1,.641.242.854.854,0,0,1,.219.594.826.826,0,0,1-.219.586.834.834,0,0,1-.641.234.821.821,0,0,1-.637-.234A.834.834,0,0,1,114.633-10.7Zm3.523,6.4a4.952,4.952,0,0,1,.922-3.129,2.915,2.915,0,0,1,2.414-1.184,2.932,2.932,0,0,1,2.352,1.016V-12h1.445V0h-1.328l-.07-.906A2.943,2.943,0,0,1,121.477.156a2.887,2.887,0,0,1-2.395-1.2,5.008,5.008,0,0,1-.926-3.141Zm1.445.164a3.749,3.749,0,0,0,.594,2.25,1.92,1.92,0,0,0,1.641.813A2.109,2.109,0,0,0,123.844-2.3V-6.187a2.125,2.125,0,0,0-1.992-1.2,1.929,1.929,0,0,0-1.656.82A4.128,4.128,0,0,0,119.6-4.133Zm7.547-.172a4.993,4.993,0,0,1,.488-2.234A3.643,3.643,0,0,1,129-8.07a3.7,3.7,0,0,1,1.988-.539,3.565,3.565,0,0,1,2.793,1.2,4.6,4.6,0,0,1,1.066,3.18v.1a5.036,5.036,0,0,1-.473,2.215A3.589,3.589,0,0,1,133.02-.391,3.743,3.743,0,0,1,131,.156a3.556,3.556,0,0,1-2.785-1.2A4.575,4.575,0,0,1,127.148-4.2Zm1.453.172a3.616,3.616,0,0,0,.652,2.258A2.088,2.088,0,0,0,131-1.023a2.075,2.075,0,0,0,1.75-.863A3.954,3.954,0,0,0,133.4-4.3a3.61,3.61,0,0,0-.66-2.254,2.1,2.1,0,0,0-1.754-.863,2.075,2.075,0,0,0-1.727.852A3.925,3.925,0,0,0,128.6-4.133Z" transform="translate(1468.151 -5499.967) rotate(14)" fill="#12263f"/>
    <path id="Trazado_154341" data-name="Trazado 154341" d="M1.32,0V-11.375H4.531a5.169,5.169,0,0,1,2.625.656A4.438,4.438,0,0,1,8.918-8.852,6.078,6.078,0,0,1,9.547-6.07v.727a6.1,6.1,0,0,1-.621,2.82A4.369,4.369,0,0,1,7.152-.664,5.5,5.5,0,0,1,4.469,0Zm1.5-10.141v8.914H4.4A3.435,3.435,0,0,0,7.1-2.3a4.452,4.452,0,0,0,.965-3.07v-.664a4.522,4.522,0,0,0-.91-3.012,3.24,3.24,0,0,0-2.582-1.09ZM13.156,0H11.711V-8.453h1.445ZM11.594-10.7a.863.863,0,0,1,.215-.594.807.807,0,0,1,.637-.242.819.819,0,0,1,.641.242.854.854,0,0,1,.219.594.826.826,0,0,1-.219.586.834.834,0,0,1-.641.234.821.821,0,0,1-.637-.234A.834.834,0,0,1,11.594-10.7Zm7.961,3.539a4.331,4.331,0,0,0-.711-.055A1.9,1.9,0,0,0,16.914-6V0H15.469V-8.453h1.406l.023.977a2.251,2.251,0,0,1,2.016-1.133,1.477,1.477,0,0,1,.641.109ZM24.242.156a3.693,3.693,0,0,1-2.8-1.129,4.19,4.19,0,0,1-1.078-3.02v-.266a5.073,5.073,0,0,1,.48-2.246,3.748,3.748,0,0,1,1.344-1.547,3.378,3.378,0,0,1,1.871-.559,3.166,3.166,0,0,1,2.563,1.086,4.7,4.7,0,0,1,.914,3.109v.6H21.813a3,3,0,0,0,.73,2.02,2.3,2.3,0,0,0,1.777.77,2.517,2.517,0,0,0,1.3-.312,3.259,3.259,0,0,0,.93-.828l.883.688A3.55,3.55,0,0,1,24.242.156Zm-.18-7.578a1.928,1.928,0,0,0-1.469.637A3.1,3.1,0,0,0,21.859-5h4.234v-.109A2.753,2.753,0,0,0,25.5-6.816,1.815,1.815,0,0,0,24.063-7.422Zm8.539,6.4a2.082,2.082,0,0,0,1.352-.469,1.649,1.649,0,0,0,.641-1.172h1.367a2.621,2.621,0,0,1-.5,1.383A3.293,3.293,0,0,1,34.23-.234,3.55,3.55,0,0,1,32.6.156,3.482,3.482,0,0,1,29.855-1a4.59,4.59,0,0,1-1.02-3.152v-.242a5.089,5.089,0,0,1,.453-2.2,3.451,3.451,0,0,1,1.3-1.492,3.7,3.7,0,0,1,2-.531,3.39,3.39,0,0,1,2.363.852,3.043,3.043,0,0,1,1,2.211H34.594a1.992,1.992,0,0,0-.621-1.348,1.932,1.932,0,0,0-1.379-.527,2.023,2.023,0,0,0-1.707.793,3.724,3.724,0,0,0-.605,2.293v.273a3.65,3.65,0,0,0,.6,2.25A2.033,2.033,0,0,0,32.6-1.023Zm8.375,0a2.082,2.082,0,0,0,1.352-.469,1.649,1.649,0,0,0,.641-1.172h1.367a2.621,2.621,0,0,1-.5,1.383,3.293,3.293,0,0,1-1.23,1.047,3.55,3.55,0,0,1-1.629.391A3.482,3.482,0,0,1,38.23-1a4.59,4.59,0,0,1-1.02-3.152v-.242a5.089,5.089,0,0,1,.453-2.2,3.451,3.451,0,0,1,1.3-1.492,3.7,3.7,0,0,1,2-.531,3.39,3.39,0,0,1,2.363.852,3.043,3.043,0,0,1,1,2.211H42.969a1.992,1.992,0,0,0-.621-1.348,1.932,1.932,0,0,0-1.379-.527,2.023,2.023,0,0,0-1.707.793,3.724,3.724,0,0,0-.605,2.293v.273a3.65,3.65,0,0,0,.6,2.25A2.033,2.033,0,0,0,40.977-1.023ZM47.531,0H46.086V-8.453h1.445ZM45.969-10.7a.863.863,0,0,1,.215-.594.807.807,0,0,1,.637-.242.819.819,0,0,1,.641.242.854.854,0,0,1,.219.594.826.826,0,0,1-.219.586.834.834,0,0,1-.641.234.821.821,0,0,1-.637-.234A.834.834,0,0,1,45.969-10.7ZM49.461-4.3a4.993,4.993,0,0,1,.488-2.234A3.643,3.643,0,0,1,51.309-8.07,3.7,3.7,0,0,1,53.3-8.609a3.565,3.565,0,0,1,2.793,1.2,4.6,4.6,0,0,1,1.066,3.18v.1a5.036,5.036,0,0,1-.473,2.215A3.589,3.589,0,0,1,55.332-.391a3.743,3.743,0,0,1-2.02.547,3.556,3.556,0,0,1-2.785-1.2A4.575,4.575,0,0,1,49.461-4.2Zm1.453.172a3.616,3.616,0,0,0,.652,2.258,2.088,2.088,0,0,0,1.746.852,2.075,2.075,0,0,0,1.75-.863A3.955,3.955,0,0,0,55.711-4.3a3.61,3.61,0,0,0-.66-2.254A2.1,2.1,0,0,0,53.3-7.422a2.075,2.075,0,0,0-1.727.852A3.925,3.925,0,0,0,50.914-4.133ZM53.953-12H55.7L53.609-9.7H52.445Zm6.383,3.547.047,1.063a3.08,3.08,0,0,1,2.531-1.219q2.68,0,2.7,3.023V0H64.172V-5.594a1.946,1.946,0,0,0-.418-1.352,1.675,1.675,0,0,0-1.277-.437,2.086,2.086,0,0,0-1.234.375,2.546,2.546,0,0,0-.828.984V0H58.969V-8.453ZM71.406-4.3a4.952,4.952,0,0,1,.922-3.129,2.915,2.915,0,0,1,2.414-1.184,2.932,2.932,0,0,1,2.352,1.016V-12h1.445V0H77.211l-.07-.906A2.943,2.943,0,0,1,74.727.156a2.887,2.887,0,0,1-2.395-1.2,5.008,5.008,0,0,1-.926-3.141Zm1.445.164a3.749,3.749,0,0,0,.594,2.25,1.92,1.92,0,0,0,1.641.813A2.109,2.109,0,0,0,77.094-2.3V-6.187a2.125,2.125,0,0,0-1.992-1.2,1.929,1.929,0,0,0-1.656.82A4.128,4.128,0,0,0,72.852-4.133ZM84.289.156a3.693,3.693,0,0,1-2.8-1.129,4.19,4.19,0,0,1-1.078-3.02v-.266a5.073,5.073,0,0,1,.48-2.246,3.748,3.748,0,0,1,1.344-1.547,3.378,3.378,0,0,1,1.871-.559,3.166,3.166,0,0,1,2.563,1.086,4.7,4.7,0,0,1,.914,3.109v.6H81.859a3,3,0,0,0,.73,2.02,2.3,2.3,0,0,0,1.777.77,2.517,2.517,0,0,0,1.3-.312,3.259,3.259,0,0,0,.93-.828l.883.688A3.55,3.55,0,0,1,84.289.156Zm-.18-7.578a1.928,1.928,0,0,0-1.469.637A3.1,3.1,0,0,0,81.906-5h4.234v-.109a2.753,2.753,0,0,0-.594-1.707A1.815,1.815,0,0,0,84.109-7.422ZM90.828,0H89.383V-12h1.445Zm8.234-10.5v2.047h1.578v1.117H99.063v5.242a1.171,1.171,0,0,0,.211.762.888.888,0,0,0,.719.254,3.5,3.5,0,0,0,.688-.094V0A4.19,4.19,0,0,1,99.57.156,1.8,1.8,0,0,1,98.109-.43a2.517,2.517,0,0,1-.492-1.664V-7.336H96.078V-8.453h1.539V-10.5ZM105.836.156a3.693,3.693,0,0,1-2.8-1.129,4.19,4.19,0,0,1-1.078-3.02v-.266a5.073,5.073,0,0,1,.48-2.246,3.748,3.748,0,0,1,1.344-1.547,3.378,3.378,0,0,1,1.871-.559,3.166,3.166,0,0,1,2.563,1.086,4.7,4.7,0,0,1,.914,3.109v.6h-5.727a3,3,0,0,0,.73,2.02,2.3,2.3,0,0,0,1.777.77,2.517,2.517,0,0,0,1.3-.312,3.259,3.259,0,0,0,.93-.828l.883.688A3.55,3.55,0,0,1,105.836.156Zm-.18-7.578a1.928,1.928,0,0,0-1.469.637A3.1,3.1,0,0,0,103.453-5h4.234v-.109a2.753,2.753,0,0,0-.594-1.707A1.815,1.815,0,0,0,105.656-7.422ZM112.3-8.453V.977q0,2.438-2.211,2.438a2.682,2.682,0,0,1-.883-.141V2.117a2.794,2.794,0,0,0,.656.063.982.982,0,0,0,.738-.262,1.294,1.294,0,0,0,.254-.91V-8.453ZM110.7-10.7a.867.867,0,0,1,.215-.59.79.79,0,0,1,.629-.246.819.819,0,0,1,.641.242.854.854,0,0,1,.219.594.826.826,0,0,1-.219.586.834.834,0,0,1-.641.234.808.808,0,0,1-.633-.234A.843.843,0,0,1,110.7-10.7ZM116.2,0H114.75V-8.453H116.2Zm-1.562-10.7a.863.863,0,0,1,.215-.594.807.807,0,0,1,.637-.242.819.819,0,0,1,.641.242.854.854,0,0,1,.219.594.826.826,0,0,1-.219.586.834.834,0,0,1-.641.234.821.821,0,0,1-.637-.234A.834.834,0,0,1,114.633-10.7Zm3.523,6.4a4.952,4.952,0,0,1,.922-3.129,2.915,2.915,0,0,1,2.414-1.184,2.932,2.932,0,0,1,2.352,1.016V-12h1.445V0h-1.328l-.07-.906A2.943,2.943,0,0,1,121.477.156a2.887,2.887,0,0,1-2.395-1.2,5.008,5.008,0,0,1-.926-3.141Zm1.445.164a3.749,3.749,0,0,0,.594,2.25,1.92,1.92,0,0,0,1.641.813A2.109,2.109,0,0,0,123.844-2.3V-6.187a2.125,2.125,0,0,0-1.992-1.2,1.929,1.929,0,0,0-1.656.82A4.128,4.128,0,0,0,119.6-4.133Zm7.547-.172a4.993,4.993,0,0,1,.488-2.234A3.643,3.643,0,0,1,129-8.07a3.7,3.7,0,0,1,1.988-.539,3.565,3.565,0,0,1,2.793,1.2,4.6,4.6,0,0,1,1.066,3.18v.1a5.036,5.036,0,0,1-.473,2.215A3.589,3.589,0,0,1,133.02-.391,3.743,3.743,0,0,1,131,.156a3.556,3.556,0,0,1-2.785-1.2A4.575,4.575,0,0,1,127.148-4.2Zm1.453.172a3.616,3.616,0,0,0,.652,2.258A2.088,2.088,0,0,0,131-1.023a2.075,2.075,0,0,0,1.75-.863A3.954,3.954,0,0,0,133.4-4.3a3.61,3.61,0,0,0-.66-2.254,2.1,2.1,0,0,0-1.754-.863,2.075,2.075,0,0,0-1.727.852A3.925,3.925,0,0,0,128.6-4.133Z" transform="translate(1466.151 -5420.862) rotate(14)" fill="#12263f"/>
    <path id="Trazado_154342" data-name="Trazado 154342" d="M1.32,0V-11.375H4.531a5.169,5.169,0,0,1,2.625.656A4.438,4.438,0,0,1,8.918-8.852,6.078,6.078,0,0,1,9.547-6.07v.727a6.1,6.1,0,0,1-.621,2.82A4.369,4.369,0,0,1,7.152-.664,5.5,5.5,0,0,1,4.469,0Zm1.5-10.141v8.914H4.4A3.435,3.435,0,0,0,7.1-2.3a4.452,4.452,0,0,0,.965-3.07v-.664a4.522,4.522,0,0,0-.91-3.012,3.24,3.24,0,0,0-2.582-1.09ZM13.156,0H11.711V-8.453h1.445ZM11.594-10.7a.863.863,0,0,1,.215-.594.807.807,0,0,1,.637-.242.819.819,0,0,1,.641.242.854.854,0,0,1,.219.594.826.826,0,0,1-.219.586.834.834,0,0,1-.641.234.821.821,0,0,1-.637-.234A.834.834,0,0,1,11.594-10.7Zm7.961,3.539a4.331,4.331,0,0,0-.711-.055A1.9,1.9,0,0,0,16.914-6V0H15.469V-8.453h1.406l.023.977a2.251,2.251,0,0,1,2.016-1.133,1.477,1.477,0,0,1,.641.109ZM24.242.156a3.693,3.693,0,0,1-2.8-1.129,4.19,4.19,0,0,1-1.078-3.02v-.266a5.073,5.073,0,0,1,.48-2.246,3.748,3.748,0,0,1,1.344-1.547,3.378,3.378,0,0,1,1.871-.559,3.166,3.166,0,0,1,2.563,1.086,4.7,4.7,0,0,1,.914,3.109v.6H21.813a3,3,0,0,0,.73,2.02,2.3,2.3,0,0,0,1.777.77,2.517,2.517,0,0,0,1.3-.312,3.259,3.259,0,0,0,.93-.828l.883.688A3.55,3.55,0,0,1,24.242.156Zm-.18-7.578a1.928,1.928,0,0,0-1.469.637A3.1,3.1,0,0,0,21.859-5h4.234v-.109A2.753,2.753,0,0,0,25.5-6.816,1.815,1.815,0,0,0,24.063-7.422Zm8.539,6.4a2.082,2.082,0,0,0,1.352-.469,1.649,1.649,0,0,0,.641-1.172h1.367a2.621,2.621,0,0,1-.5,1.383A3.293,3.293,0,0,1,34.23-.234,3.55,3.55,0,0,1,32.6.156,3.482,3.482,0,0,1,29.855-1a4.59,4.59,0,0,1-1.02-3.152v-.242a5.089,5.089,0,0,1,.453-2.2,3.451,3.451,0,0,1,1.3-1.492,3.7,3.7,0,0,1,2-.531,3.39,3.39,0,0,1,2.363.852,3.043,3.043,0,0,1,1,2.211H34.594a1.992,1.992,0,0,0-.621-1.348,1.932,1.932,0,0,0-1.379-.527,2.023,2.023,0,0,0-1.707.793,3.724,3.724,0,0,0-.605,2.293v.273a3.65,3.65,0,0,0,.6,2.25A2.033,2.033,0,0,0,32.6-1.023Zm8.375,0a2.082,2.082,0,0,0,1.352-.469,1.649,1.649,0,0,0,.641-1.172h1.367a2.621,2.621,0,0,1-.5,1.383,3.293,3.293,0,0,1-1.23,1.047,3.55,3.55,0,0,1-1.629.391A3.482,3.482,0,0,1,38.23-1a4.59,4.59,0,0,1-1.02-3.152v-.242a5.089,5.089,0,0,1,.453-2.2,3.451,3.451,0,0,1,1.3-1.492,3.7,3.7,0,0,1,2-.531,3.39,3.39,0,0,1,2.363.852,3.043,3.043,0,0,1,1,2.211H42.969a1.992,1.992,0,0,0-.621-1.348,1.932,1.932,0,0,0-1.379-.527,2.023,2.023,0,0,0-1.707.793,3.724,3.724,0,0,0-.605,2.293v.273a3.65,3.65,0,0,0,.6,2.25A2.033,2.033,0,0,0,40.977-1.023ZM47.531,0H46.086V-8.453h1.445ZM45.969-10.7a.863.863,0,0,1,.215-.594.807.807,0,0,1,.637-.242.819.819,0,0,1,.641.242.854.854,0,0,1,.219.594.826.826,0,0,1-.219.586.834.834,0,0,1-.641.234.821.821,0,0,1-.637-.234A.834.834,0,0,1,45.969-10.7ZM49.461-4.3a4.993,4.993,0,0,1,.488-2.234A3.643,3.643,0,0,1,51.309-8.07,3.7,3.7,0,0,1,53.3-8.609a3.565,3.565,0,0,1,2.793,1.2,4.6,4.6,0,0,1,1.066,3.18v.1a5.036,5.036,0,0,1-.473,2.215A3.589,3.589,0,0,1,55.332-.391a3.743,3.743,0,0,1-2.02.547,3.556,3.556,0,0,1-2.785-1.2A4.575,4.575,0,0,1,49.461-4.2Zm1.453.172a3.616,3.616,0,0,0,.652,2.258,2.088,2.088,0,0,0,1.746.852,2.075,2.075,0,0,0,1.75-.863A3.955,3.955,0,0,0,55.711-4.3a3.61,3.61,0,0,0-.66-2.254A2.1,2.1,0,0,0,53.3-7.422a2.075,2.075,0,0,0-1.727.852A3.925,3.925,0,0,0,50.914-4.133ZM53.953-12H55.7L53.609-9.7H52.445Zm6.383,3.547.047,1.063a3.08,3.08,0,0,1,2.531-1.219q2.68,0,2.7,3.023V0H64.172V-5.594a1.946,1.946,0,0,0-.418-1.352,1.675,1.675,0,0,0-1.277-.437,2.086,2.086,0,0,0-1.234.375,2.546,2.546,0,0,0-.828.984V0H58.969V-8.453ZM71.406-4.3a4.952,4.952,0,0,1,.922-3.129,2.915,2.915,0,0,1,2.414-1.184,2.932,2.932,0,0,1,2.352,1.016V-12h1.445V0H77.211l-.07-.906A2.943,2.943,0,0,1,74.727.156a2.887,2.887,0,0,1-2.395-1.2,5.008,5.008,0,0,1-.926-3.141Zm1.445.164a3.749,3.749,0,0,0,.594,2.25,1.92,1.92,0,0,0,1.641.813A2.109,2.109,0,0,0,77.094-2.3V-6.187a2.125,2.125,0,0,0-1.992-1.2,1.929,1.929,0,0,0-1.656.82A4.128,4.128,0,0,0,72.852-4.133ZM84.289.156a3.693,3.693,0,0,1-2.8-1.129,4.19,4.19,0,0,1-1.078-3.02v-.266a5.073,5.073,0,0,1,.48-2.246,3.748,3.748,0,0,1,1.344-1.547,3.378,3.378,0,0,1,1.871-.559,3.166,3.166,0,0,1,2.563,1.086,4.7,4.7,0,0,1,.914,3.109v.6H81.859a3,3,0,0,0,.73,2.02,2.3,2.3,0,0,0,1.777.77,2.517,2.517,0,0,0,1.3-.312,3.259,3.259,0,0,0,.93-.828l.883.688A3.55,3.55,0,0,1,84.289.156Zm-.18-7.578a1.928,1.928,0,0,0-1.469.637A3.1,3.1,0,0,0,81.906-5h4.234v-.109a2.753,2.753,0,0,0-.594-1.707A1.815,1.815,0,0,0,84.109-7.422ZM90.828,0H89.383V-12h1.445Zm8.234-10.5v2.047h1.578v1.117H99.063v5.242a1.171,1.171,0,0,0,.211.762.888.888,0,0,0,.719.254,3.5,3.5,0,0,0,.688-.094V0A4.19,4.19,0,0,1,99.57.156,1.8,1.8,0,0,1,98.109-.43a2.517,2.517,0,0,1-.492-1.664V-7.336H96.078V-8.453h1.539V-10.5ZM105.836.156a3.693,3.693,0,0,1-2.8-1.129,4.19,4.19,0,0,1-1.078-3.02v-.266a5.073,5.073,0,0,1,.48-2.246,3.748,3.748,0,0,1,1.344-1.547,3.378,3.378,0,0,1,1.871-.559,3.166,3.166,0,0,1,2.563,1.086,4.7,4.7,0,0,1,.914,3.109v.6h-5.727a3,3,0,0,0,.73,2.02,2.3,2.3,0,0,0,1.777.77,2.517,2.517,0,0,0,1.3-.312,3.259,3.259,0,0,0,.93-.828l.883.688A3.55,3.55,0,0,1,105.836.156Zm-.18-7.578a1.928,1.928,0,0,0-1.469.637A3.1,3.1,0,0,0,103.453-5h4.234v-.109a2.753,2.753,0,0,0-.594-1.707A1.815,1.815,0,0,0,105.656-7.422ZM112.3-8.453V.977q0,2.438-2.211,2.438a2.682,2.682,0,0,1-.883-.141V2.117a2.794,2.794,0,0,0,.656.063.982.982,0,0,0,.738-.262,1.294,1.294,0,0,0,.254-.91V-8.453ZM110.7-10.7a.867.867,0,0,1,.215-.59.79.79,0,0,1,.629-.246.819.819,0,0,1,.641.242.854.854,0,0,1,.219.594.826.826,0,0,1-.219.586.834.834,0,0,1-.641.234.808.808,0,0,1-.633-.234A.843.843,0,0,1,110.7-10.7ZM116.2,0H114.75V-8.453H116.2Zm-1.562-10.7a.863.863,0,0,1,.215-.594.807.807,0,0,1,.637-.242.819.819,0,0,1,.641.242.854.854,0,0,1,.219.594.826.826,0,0,1-.219.586.834.834,0,0,1-.641.234.821.821,0,0,1-.637-.234A.834.834,0,0,1,114.633-10.7Zm3.523,6.4a4.952,4.952,0,0,1,.922-3.129,2.915,2.915,0,0,1,2.414-1.184,2.932,2.932,0,0,1,2.352,1.016V-12h1.445V0h-1.328l-.07-.906A2.943,2.943,0,0,1,121.477.156a2.887,2.887,0,0,1-2.395-1.2,5.008,5.008,0,0,1-.926-3.141Zm1.445.164a3.749,3.749,0,0,0,.594,2.25,1.92,1.92,0,0,0,1.641.813A2.109,2.109,0,0,0,123.844-2.3V-6.187a2.125,2.125,0,0,0-1.992-1.2,1.929,1.929,0,0,0-1.656.82A4.128,4.128,0,0,0,119.6-4.133Zm7.547-.172a4.993,4.993,0,0,1,.488-2.234A3.643,3.643,0,0,1,129-8.07a3.7,3.7,0,0,1,1.988-.539,3.565,3.565,0,0,1,2.793,1.2,4.6,4.6,0,0,1,1.066,3.18v.1a5.036,5.036,0,0,1-.473,2.215A3.589,3.589,0,0,1,133.02-.391,3.743,3.743,0,0,1,131,.156a3.556,3.556,0,0,1-2.785-1.2A4.575,4.575,0,0,1,127.148-4.2Zm1.453.172a3.616,3.616,0,0,0,.652,2.258A2.088,2.088,0,0,0,131-1.023a2.075,2.075,0,0,0,1.75-.863A3.954,3.954,0,0,0,133.4-4.3a3.61,3.61,0,0,0-.66-2.254,2.1,2.1,0,0,0-1.754-.863,2.075,2.075,0,0,0-1.727.852A3.925,3.925,0,0,0,128.6-4.133Z" transform="translate(1460.259 -5382.862) rotate(14)" fill="#12263f"/>
    <path id="Trazado_154343" data-name="Trazado 154343" d="M4.119-3.451h-2V0H.984V-8.531H3.809a3.343,3.343,0,0,1,2.218.656A2.361,2.361,0,0,1,6.8-5.965a2.3,2.3,0,0,1-.431,1.389,2.571,2.571,0,0,1-1.2.885l2,3.621V0H5.971Zm-2-.92H3.844A1.952,1.952,0,0,0,5.177-4.8a1.465,1.465,0,0,0,.5-1.16A1.543,1.543,0,0,0,5.2-7.178a2,2,0,0,0-1.362-.428H2.115ZM10.84.117a2.77,2.77,0,0,1-2.1-.847,3.142,3.142,0,0,1-.809-2.265v-.2a3.8,3.8,0,0,1,.36-1.685A2.811,2.811,0,0,1,9.3-6.038a2.534,2.534,0,0,1,1.4-.419,2.374,2.374,0,0,1,1.922.814,3.526,3.526,0,0,1,.686,2.332v.451H9.018a2.254,2.254,0,0,0,.548,1.515A1.722,1.722,0,0,0,10.9-.768,1.888,1.888,0,0,0,11.871-1a2.444,2.444,0,0,0,.7-.621l.662.516A2.662,2.662,0,0,1,10.84.117Zm-.135-5.684a1.446,1.446,0,0,0-1.1.478A2.321,2.321,0,0,0,9.053-3.75h3.176v-.082a2.065,2.065,0,0,0-.445-1.28A1.361,1.361,0,0,0,10.705-5.566Zm5.877,4.1,1.57-4.869H19.26L16.986,0H16.16l-2.3-6.34h1.107ZM22.857.117a2.77,2.77,0,0,1-2.1-.847,3.142,3.142,0,0,1-.809-2.265v-.2a3.8,3.8,0,0,1,.36-1.685,2.811,2.811,0,0,1,1.008-1.16,2.534,2.534,0,0,1,1.4-.419,2.374,2.374,0,0,1,1.922.814,3.526,3.526,0,0,1,.686,2.332v.451H21.035a2.254,2.254,0,0,0,.548,1.515,1.722,1.722,0,0,0,1.333.577A1.888,1.888,0,0,0,23.889-1a2.444,2.444,0,0,0,.7-.621l.662.516A2.662,2.662,0,0,1,22.857.117Zm-.135-5.684a1.446,1.446,0,0,0-1.1.478A2.321,2.321,0,0,0,21.07-3.75h3.176v-.082a2.065,2.065,0,0,0-.445-1.28A1.361,1.361,0,0,0,22.723-5.566ZM23.25-9h1.313l-1.57,1.723h-.873Zm7.025,7.318a.8.8,0,0,0-.331-.683,3.187,3.187,0,0,0-1.154-.419,5.457,5.457,0,0,1-1.307-.422,1.859,1.859,0,0,1-.715-.586,1.4,1.4,0,0,1-.231-.809A1.645,1.645,0,0,1,27.2-5.918a2.574,2.574,0,0,1,1.685-.539A2.649,2.649,0,0,1,30.63-5.9,1.768,1.768,0,0,1,31.3-4.477h-1.09a.979.979,0,0,0-.378-.768,1.416,1.416,0,0,0-.952-.322,1.482,1.482,0,0,0-.926.258.812.812,0,0,0-.334.674.658.658,0,0,0,.311.592,3.821,3.821,0,0,0,1.122.381,5.847,5.847,0,0,1,1.315.434,1.919,1.919,0,0,1,.747.606,1.491,1.491,0,0,1,.243.864A1.623,1.623,0,0,1,30.68-.4a2.851,2.851,0,0,1-1.764.513,3.193,3.193,0,0,1-1.348-.27,2.192,2.192,0,0,1-.917-.753,1.815,1.815,0,0,1-.331-1.046H27.4a1.122,1.122,0,0,0,.437.864,1.693,1.693,0,0,0,1.075.319,1.748,1.748,0,0,0,.987-.249A.765.765,0,0,0,30.275-1.682Zm5.2-1.541a3.714,3.714,0,0,1,.691-2.347,2.186,2.186,0,0,1,1.811-.888,2.2,2.2,0,0,1,1.764.762V-9h1.084V0h-1l-.053-.68a2.208,2.208,0,0,1-1.811.8,2.165,2.165,0,0,1-1.8-.9,3.756,3.756,0,0,1-.694-2.355Zm1.084.123a2.812,2.812,0,0,0,.445,1.688,1.44,1.44,0,0,0,1.23.609,1.581,1.581,0,0,0,1.506-.926V-4.641a1.593,1.593,0,0,0-1.494-.9,1.446,1.446,0,0,0-1.242.615A3.1,3.1,0,0,0,36.563-3.1ZM45.141.117a2.77,2.77,0,0,1-2.1-.847,3.142,3.142,0,0,1-.809-2.265v-.2a3.8,3.8,0,0,1,.36-1.685A2.811,2.811,0,0,1,43.6-6.038a2.534,2.534,0,0,1,1.4-.419,2.374,2.374,0,0,1,1.922.814,3.526,3.526,0,0,1,.686,2.332v.451H43.318a2.254,2.254,0,0,0,.548,1.515A1.722,1.722,0,0,0,45.2-.768,1.888,1.888,0,0,0,46.172-1a2.444,2.444,0,0,0,.7-.621l.662.516A2.662,2.662,0,0,1,45.141.117Zm-.135-5.684a1.446,1.446,0,0,0-1.1.478,2.321,2.321,0,0,0-.551,1.339h3.176v-.082a2.065,2.065,0,0,0-.445-1.28A1.361,1.361,0,0,0,45.006-5.566ZM50.045,0H48.961V-9h1.084Zm6.176-7.875V-6.34H57.4V-5.5H56.221V-1.57A.878.878,0,0,0,56.379-1a.666.666,0,0,0,.539.19,2.624,2.624,0,0,0,.516-.07V0A3.143,3.143,0,0,1,56.6.117a1.35,1.35,0,0,1-1.1-.439,1.888,1.888,0,0,1-.369-1.248V-5.5H53.982V-6.34h1.154V-7.875ZM61.3.117a2.77,2.77,0,0,1-2.1-.847,3.142,3.142,0,0,1-.809-2.265v-.2a3.8,3.8,0,0,1,.36-1.685,2.811,2.811,0,0,1,1.008-1.16,2.534,2.534,0,0,1,1.4-.419,2.374,2.374,0,0,1,1.922.814,3.526,3.526,0,0,1,.686,2.332v.451H59.479a2.254,2.254,0,0,0,.548,1.515,1.722,1.722,0,0,0,1.333.577A1.888,1.888,0,0,0,62.332-1a2.444,2.444,0,0,0,.7-.621l.662.516A2.662,2.662,0,0,1,61.3.117Zm-.135-5.684a1.446,1.446,0,0,0-1.1.478,2.321,2.321,0,0,0-.551,1.339h3.176v-.082a2.065,2.065,0,0,0-.445-1.28A1.361,1.361,0,0,0,61.166-5.566Zm4.98-.773V.732q0,1.828-1.658,1.828a2.011,2.011,0,0,1-.662-.105V1.588a2.1,2.1,0,0,0,.492.047.737.737,0,0,0,.554-.2.97.97,0,0,0,.19-.683v-7.1Zm-1.2-1.682a.65.65,0,0,1,.161-.442.592.592,0,0,1,.472-.185.614.614,0,0,1,.48.182.64.64,0,0,1,.164.445.619.619,0,0,1-.164.439.626.626,0,0,1-.48.176.606.606,0,0,1-.475-.176A.632.632,0,0,1,64.951-8.021ZM69.07,0H67.986V-6.34H69.07ZM67.9-8.021a.647.647,0,0,1,.161-.445.6.6,0,0,1,.478-.182.614.614,0,0,1,.48.182.64.64,0,0,1,.164.445.619.619,0,0,1-.164.439.626.626,0,0,1-.48.176.616.616,0,0,1-.478-.176A.626.626,0,0,1,67.9-8.021Zm2.643,4.8a3.714,3.714,0,0,1,.691-2.347,2.186,2.186,0,0,1,1.811-.888,2.2,2.2,0,0,1,1.764.762V-9h1.084V0h-1l-.053-.68a2.208,2.208,0,0,1-1.811.8,2.165,2.165,0,0,1-1.8-.9,3.756,3.756,0,0,1-.694-2.355Zm1.084.123a2.812,2.812,0,0,0,.445,1.688A1.44,1.44,0,0,0,73.3-.8a1.581,1.581,0,0,0,1.506-.926V-4.641a1.593,1.593,0,0,0-1.494-.9,1.446,1.446,0,0,0-1.242.615A3.1,3.1,0,0,0,71.625-3.1Zm5.66-.129A3.745,3.745,0,0,1,77.651-4.9a2.732,2.732,0,0,1,1.02-1.148,2.775,2.775,0,0,1,1.491-.4,2.674,2.674,0,0,1,2.095.9,3.449,3.449,0,0,1,.8,2.385V-3.1A3.777,3.777,0,0,1,82.7-1.438,2.692,2.692,0,0,1,81.688-.293a2.807,2.807,0,0,1-1.515.41,2.667,2.667,0,0,1-2.089-.9,3.432,3.432,0,0,1-.8-2.373Zm1.09.129a2.712,2.712,0,0,0,.489,1.693,1.566,1.566,0,0,0,1.31.639,1.556,1.556,0,0,0,1.313-.647,2.966,2.966,0,0,0,.486-1.813,2.708,2.708,0,0,0-.5-1.69,1.574,1.574,0,0,0-1.315-.647,1.557,1.557,0,0,0-1.295.639A2.944,2.944,0,0,0,78.375-3.1Z" transform="matrix(0.914, -0.407, 0.407, 0.914, 1712.05, -5428.888)" fill="#12263f"/>
    <path id="Trazado_154344" data-name="Trazado 154344" d="M.99,0V-8.531H3.4a3.877,3.877,0,0,1,1.969.492,3.329,3.329,0,0,1,1.321,1.4A4.558,4.558,0,0,1,7.16-4.553v.545a4.574,4.574,0,0,1-.466,2.115A3.277,3.277,0,0,1,5.364-.5,4.124,4.124,0,0,1,3.352,0ZM2.115-7.605V-.92H3.3a2.576,2.576,0,0,0,2.024-.809,3.339,3.339,0,0,0,.724-2.3v-.5a3.392,3.392,0,0,0-.683-2.259,2.43,2.43,0,0,0-1.937-.817ZM11.32.117a2.77,2.77,0,0,1-2.1-.847,3.142,3.142,0,0,1-.809-2.265v-.2a3.8,3.8,0,0,1,.36-1.685,2.811,2.811,0,0,1,1.008-1.16,2.534,2.534,0,0,1,1.4-.419,2.374,2.374,0,0,1,1.922.814,3.526,3.526,0,0,1,.686,2.332v.451H9.5a2.254,2.254,0,0,0,.548,1.515,1.722,1.722,0,0,0,1.333.577A1.888,1.888,0,0,0,12.352-1a2.444,2.444,0,0,0,.7-.621l.662.516A2.662,2.662,0,0,1,11.32.117Zm-.135-5.684a1.446,1.446,0,0,0-1.1.478A2.321,2.321,0,0,0,9.533-3.75h3.176v-.082a2.065,2.065,0,0,0-.445-1.28A1.361,1.361,0,0,0,11.186-5.566Zm6.926.2a3.248,3.248,0,0,0-.533-.041,1.428,1.428,0,0,0-1.447.908V0H15.047V-6.34H16.1l.018.732a1.688,1.688,0,0,1,1.512-.85,1.107,1.107,0,0,1,.48.082ZM21.627.117a2.77,2.77,0,0,1-2.1-.847,3.142,3.142,0,0,1-.809-2.265v-.2a3.8,3.8,0,0,1,.36-1.685,2.811,2.811,0,0,1,1.008-1.16,2.534,2.534,0,0,1,1.4-.419,2.374,2.374,0,0,1,1.922.814A3.526,3.526,0,0,1,24.1-3.311v.451H19.8a2.254,2.254,0,0,0,.548,1.515,1.722,1.722,0,0,0,1.333.577A1.888,1.888,0,0,0,22.658-1a2.444,2.444,0,0,0,.7-.621l.662.516A2.662,2.662,0,0,1,21.627.117Zm-.135-5.684a1.446,1.446,0,0,0-1.1.478A2.321,2.321,0,0,0,19.84-3.75h3.176v-.082a2.065,2.065,0,0,0-.445-1.28A1.361,1.361,0,0,0,21.492-5.566Zm6.4,4.8a1.561,1.561,0,0,0,1.014-.352A1.237,1.237,0,0,0,29.391-2h1.025a1.966,1.966,0,0,1-.375,1.037,2.47,2.47,0,0,1-.923.785A2.663,2.663,0,0,1,27.9.117a2.612,2.612,0,0,1-2.06-.864,3.442,3.442,0,0,1-.765-2.364v-.182a3.817,3.817,0,0,1,.34-1.646,2.588,2.588,0,0,1,.976-1.119,2.771,2.771,0,0,1,1.5-.4,2.543,2.543,0,0,1,1.772.639,2.283,2.283,0,0,1,.753,1.658H29.391a1.494,1.494,0,0,0-.466-1.011,1.449,1.449,0,0,0-1.034-.4,1.517,1.517,0,0,0-1.28.595,2.793,2.793,0,0,0-.454,1.72v.205a2.737,2.737,0,0,0,.451,1.688A1.524,1.524,0,0,0,27.9-.768Zm4.822-4.8a2.3,2.3,0,0,1,1.875-.885q2.01,0,2.027,2.268V0H35.537V-4.2a1.459,1.459,0,0,0-.313-1.014,1.256,1.256,0,0,0-.958-.328,1.564,1.564,0,0,0-.926.281,1.91,1.91,0,0,0-.621.738V0H31.635V-9h1.084Zm5.238,2.344A3.745,3.745,0,0,1,38.323-4.9a2.732,2.732,0,0,1,1.02-1.148,2.775,2.775,0,0,1,1.491-.4,2.674,2.674,0,0,1,2.095.9,3.449,3.449,0,0,1,.8,2.385V-3.1a3.777,3.777,0,0,1-.354,1.661A2.692,2.692,0,0,1,42.36-.293a2.807,2.807,0,0,1-1.515.41,2.667,2.667,0,0,1-2.089-.9,3.432,3.432,0,0,1-.8-2.373Zm1.09.129a2.712,2.712,0,0,0,.489,1.693,1.566,1.566,0,0,0,1.31.639,1.556,1.556,0,0,0,1.313-.647,2.966,2.966,0,0,0,.486-1.813,2.708,2.708,0,0,0-.5-1.69,1.574,1.574,0,0,0-1.315-.647,1.557,1.557,0,0,0-1.295.639A2.944,2.944,0,0,0,39.047-3.1Zm8.748-.123a3.714,3.714,0,0,1,.691-2.347A2.186,2.186,0,0,1,50.3-6.457a2.2,2.2,0,0,1,1.764.762V-9h1.084V0h-1L52.1-.68a2.208,2.208,0,0,1-1.811.8,2.165,2.165,0,0,1-1.8-.9,3.756,3.756,0,0,1-.694-2.355Zm1.084.123a2.812,2.812,0,0,0,.445,1.688,1.44,1.44,0,0,0,1.23.609,1.581,1.581,0,0,0,1.506-.926V-4.641a1.593,1.593,0,0,0-1.494-.9,1.446,1.446,0,0,0-1.242.615A3.1,3.1,0,0,0,48.879-3.1ZM57.457.117a2.77,2.77,0,0,1-2.1-.847,3.142,3.142,0,0,1-.809-2.265v-.2a3.8,3.8,0,0,1,.36-1.685,2.811,2.811,0,0,1,1.008-1.16,2.534,2.534,0,0,1,1.4-.419,2.374,2.374,0,0,1,1.922.814,3.526,3.526,0,0,1,.686,2.332v.451H55.635a2.254,2.254,0,0,0,.548,1.515,1.722,1.722,0,0,0,1.333.577A1.888,1.888,0,0,0,58.488-1a2.444,2.444,0,0,0,.7-.621l.662.516A2.662,2.662,0,0,1,57.457.117Zm-.135-5.684a1.446,1.446,0,0,0-1.1.478A2.321,2.321,0,0,0,55.67-3.75h3.176v-.082a2.065,2.065,0,0,0-.445-1.28A1.361,1.361,0,0,0,57.322-5.566ZM62.361,0H61.277V-9h1.084Zm6.176-7.875V-6.34h1.184V-5.5H68.537V-1.57A.878.878,0,0,0,68.7-1a.666.666,0,0,0,.539.19,2.624,2.624,0,0,0,.516-.07V0a3.143,3.143,0,0,1-.832.117,1.35,1.35,0,0,1-1.1-.439,1.888,1.888,0,0,1-.369-1.248V-5.5H66.3V-6.34h1.154V-7.875ZM73.617.117a2.77,2.77,0,0,1-2.1-.847,3.142,3.142,0,0,1-.809-2.265v-.2a3.8,3.8,0,0,1,.36-1.685,2.811,2.811,0,0,1,1.008-1.16,2.534,2.534,0,0,1,1.4-.419,2.374,2.374,0,0,1,1.922.814,3.526,3.526,0,0,1,.686,2.332v.451H71.795a2.254,2.254,0,0,0,.548,1.515,1.722,1.722,0,0,0,1.333.577A1.888,1.888,0,0,0,74.648-1a2.444,2.444,0,0,0,.7-.621l.662.516A2.662,2.662,0,0,1,73.617.117Zm-.135-5.684a1.446,1.446,0,0,0-1.1.478A2.321,2.321,0,0,0,71.83-3.75h3.176v-.082a2.065,2.065,0,0,0-.445-1.28A1.361,1.361,0,0,0,73.482-5.566Zm4.98-.773V.732q0,1.828-1.658,1.828a2.011,2.011,0,0,1-.662-.105V1.588a2.1,2.1,0,0,0,.492.047.737.737,0,0,0,.554-.2.97.97,0,0,0,.19-.683v-7.1Zm-1.2-1.682a.65.65,0,0,1,.161-.442.592.592,0,0,1,.472-.185.614.614,0,0,1,.48.182.64.64,0,0,1,.164.445.619.619,0,0,1-.164.439.626.626,0,0,1-.48.176.606.606,0,0,1-.475-.176A.632.632,0,0,1,77.268-8.021ZM81.387,0H80.3V-6.34h1.084ZM80.215-8.021a.647.647,0,0,1,.161-.445.6.6,0,0,1,.478-.182.614.614,0,0,1,.48.182.64.64,0,0,1,.164.445.619.619,0,0,1-.164.439.626.626,0,0,1-.48.176.616.616,0,0,1-.478-.176A.626.626,0,0,1,80.215-8.021Zm2.643,4.8a3.714,3.714,0,0,1,.691-2.347,2.186,2.186,0,0,1,1.811-.888,2.2,2.2,0,0,1,1.764.762V-9h1.084V0h-1l-.053-.68a2.208,2.208,0,0,1-1.811.8,2.165,2.165,0,0,1-1.8-.9,3.756,3.756,0,0,1-.694-2.355Zm1.084.123a2.812,2.812,0,0,0,.445,1.688,1.44,1.44,0,0,0,1.23.609,1.581,1.581,0,0,0,1.506-.926V-4.641a1.593,1.593,0,0,0-1.494-.9,1.446,1.446,0,0,0-1.242.615A3.1,3.1,0,0,0,83.941-3.1Zm5.66-.129A3.745,3.745,0,0,1,89.968-4.9a2.732,2.732,0,0,1,1.02-1.148,2.775,2.775,0,0,1,1.491-.4,2.674,2.674,0,0,1,2.095.9,3.449,3.449,0,0,1,.8,2.385V-3.1a3.777,3.777,0,0,1-.354,1.661A2.692,2.692,0,0,1,94-.293a2.807,2.807,0,0,1-1.515.41,2.667,2.667,0,0,1-2.089-.9,3.432,3.432,0,0,1-.8-2.373Zm1.09.129a2.712,2.712,0,0,0,.489,1.693,1.566,1.566,0,0,0,1.31.639A1.556,1.556,0,0,0,93.8-1.415a2.966,2.966,0,0,0,.486-1.813,2.708,2.708,0,0,0-.5-1.69,1.574,1.574,0,0,0-1.315-.647,1.557,1.557,0,0,0-1.295.639A2.944,2.944,0,0,0,90.691-3.1Z" transform="translate(1711.338 -5390.458) rotate(-25)" fill="#12263f"/>
    <path id="Trazado_154345" data-name="Trazado 154345" d="M4.119-3.451h-2V0H.984V-8.531H3.809a3.343,3.343,0,0,1,2.218.656A2.361,2.361,0,0,1,6.8-5.965a2.3,2.3,0,0,1-.431,1.389,2.571,2.571,0,0,1-1.2.885l2,3.621V0H5.971Zm-2-.92H3.844A1.952,1.952,0,0,0,5.177-4.8a1.465,1.465,0,0,0,.5-1.16A1.543,1.543,0,0,0,5.2-7.178a2,2,0,0,0-1.362-.428H2.115ZM10.84.117a2.77,2.77,0,0,1-2.1-.847,3.142,3.142,0,0,1-.809-2.265v-.2a3.8,3.8,0,0,1,.36-1.685A2.811,2.811,0,0,1,9.3-6.038a2.534,2.534,0,0,1,1.4-.419,2.374,2.374,0,0,1,1.922.814,3.526,3.526,0,0,1,.686,2.332v.451H9.018a2.254,2.254,0,0,0,.548,1.515A1.722,1.722,0,0,0,10.9-.768,1.888,1.888,0,0,0,11.871-1a2.444,2.444,0,0,0,.7-.621l.662.516A2.662,2.662,0,0,1,10.84.117Zm-.135-5.684a1.446,1.446,0,0,0-1.1.478A2.321,2.321,0,0,0,9.053-3.75h3.176v-.082a2.065,2.065,0,0,0-.445-1.28A1.361,1.361,0,0,0,10.705-5.566Zm5.877,4.1,1.57-4.869H19.26L16.986,0H16.16l-2.3-6.34h1.107ZM22.857.117a2.77,2.77,0,0,1-2.1-.847,3.142,3.142,0,0,1-.809-2.265v-.2a3.8,3.8,0,0,1,.36-1.685,2.811,2.811,0,0,1,1.008-1.16,2.534,2.534,0,0,1,1.4-.419,2.374,2.374,0,0,1,1.922.814,3.526,3.526,0,0,1,.686,2.332v.451H21.035a2.254,2.254,0,0,0,.548,1.515,1.722,1.722,0,0,0,1.333.577A1.888,1.888,0,0,0,23.889-1a2.444,2.444,0,0,0,.7-.621l.662.516A2.662,2.662,0,0,1,22.857.117Zm-.135-5.684a1.446,1.446,0,0,0-1.1.478A2.321,2.321,0,0,0,21.07-3.75h3.176v-.082a2.065,2.065,0,0,0-.445-1.28A1.361,1.361,0,0,0,22.723-5.566ZM23.25-9h1.313l-1.57,1.723h-.873Zm7.025,7.318a.8.8,0,0,0-.331-.683,3.187,3.187,0,0,0-1.154-.419,5.457,5.457,0,0,1-1.307-.422,1.859,1.859,0,0,1-.715-.586,1.4,1.4,0,0,1-.231-.809A1.645,1.645,0,0,1,27.2-5.918a2.574,2.574,0,0,1,1.685-.539A2.649,2.649,0,0,1,30.63-5.9,1.768,1.768,0,0,1,31.3-4.477h-1.09a.979.979,0,0,0-.378-.768,1.416,1.416,0,0,0-.952-.322,1.482,1.482,0,0,0-.926.258.812.812,0,0,0-.334.674.658.658,0,0,0,.311.592,3.821,3.821,0,0,0,1.122.381,5.847,5.847,0,0,1,1.315.434,1.919,1.919,0,0,1,.747.606,1.491,1.491,0,0,1,.243.864A1.623,1.623,0,0,1,30.68-.4a2.851,2.851,0,0,1-1.764.513,3.193,3.193,0,0,1-1.348-.27,2.192,2.192,0,0,1-.917-.753,1.815,1.815,0,0,1-.331-1.046H27.4a1.122,1.122,0,0,0,.437.864,1.693,1.693,0,0,0,1.075.319,1.748,1.748,0,0,0,.987-.249A.765.765,0,0,0,30.275-1.682Zm5.2-1.541a3.714,3.714,0,0,1,.691-2.347,2.186,2.186,0,0,1,1.811-.888,2.2,2.2,0,0,1,1.764.762V-9h1.084V0h-1l-.053-.68a2.208,2.208,0,0,1-1.811.8,2.165,2.165,0,0,1-1.8-.9,3.756,3.756,0,0,1-.694-2.355Zm1.084.123a2.812,2.812,0,0,0,.445,1.688,1.44,1.44,0,0,0,1.23.609,1.581,1.581,0,0,0,1.506-.926V-4.641a1.593,1.593,0,0,0-1.494-.9,1.446,1.446,0,0,0-1.242.615A3.1,3.1,0,0,0,36.563-3.1ZM45.141.117a2.77,2.77,0,0,1-2.1-.847,3.142,3.142,0,0,1-.809-2.265v-.2a3.8,3.8,0,0,1,.36-1.685A2.811,2.811,0,0,1,43.6-6.038a2.534,2.534,0,0,1,1.4-.419,2.374,2.374,0,0,1,1.922.814,3.526,3.526,0,0,1,.686,2.332v.451H43.318a2.254,2.254,0,0,0,.548,1.515A1.722,1.722,0,0,0,45.2-.768,1.888,1.888,0,0,0,46.172-1a2.444,2.444,0,0,0,.7-.621l.662.516A2.662,2.662,0,0,1,45.141.117Zm-.135-5.684a1.446,1.446,0,0,0-1.1.478,2.321,2.321,0,0,0-.551,1.339h3.176v-.082a2.065,2.065,0,0,0-.445-1.28A1.361,1.361,0,0,0,45.006-5.566ZM50.045,0H48.961V-9h1.084Zm6.176-7.875V-6.34H57.4V-5.5H56.221V-1.57A.878.878,0,0,0,56.379-1a.666.666,0,0,0,.539.19,2.624,2.624,0,0,0,.516-.07V0A3.143,3.143,0,0,1,56.6.117a1.35,1.35,0,0,1-1.1-.439,1.888,1.888,0,0,1-.369-1.248V-5.5H53.982V-6.34h1.154V-7.875ZM61.3.117a2.77,2.77,0,0,1-2.1-.847,3.142,3.142,0,0,1-.809-2.265v-.2a3.8,3.8,0,0,1,.36-1.685,2.811,2.811,0,0,1,1.008-1.16,2.534,2.534,0,0,1,1.4-.419,2.374,2.374,0,0,1,1.922.814,3.526,3.526,0,0,1,.686,2.332v.451H59.479a2.254,2.254,0,0,0,.548,1.515,1.722,1.722,0,0,0,1.333.577A1.888,1.888,0,0,0,62.332-1a2.444,2.444,0,0,0,.7-.621l.662.516A2.662,2.662,0,0,1,61.3.117Zm-.135-5.684a1.446,1.446,0,0,0-1.1.478,2.321,2.321,0,0,0-.551,1.339h3.176v-.082a2.065,2.065,0,0,0-.445-1.28A1.361,1.361,0,0,0,61.166-5.566Zm4.98-.773V.732q0,1.828-1.658,1.828a2.011,2.011,0,0,1-.662-.105V1.588a2.1,2.1,0,0,0,.492.047.737.737,0,0,0,.554-.2.97.97,0,0,0,.19-.683v-7.1Zm-1.2-1.682a.65.65,0,0,1,.161-.442.592.592,0,0,1,.472-.185.614.614,0,0,1,.48.182.64.64,0,0,1,.164.445.619.619,0,0,1-.164.439.626.626,0,0,1-.48.176.606.606,0,0,1-.475-.176A.632.632,0,0,1,64.951-8.021ZM69.07,0H67.986V-6.34H69.07ZM67.9-8.021a.647.647,0,0,1,.161-.445.6.6,0,0,1,.478-.182.614.614,0,0,1,.48.182.64.64,0,0,1,.164.445.619.619,0,0,1-.164.439.626.626,0,0,1-.48.176.616.616,0,0,1-.478-.176A.626.626,0,0,1,67.9-8.021Zm2.643,4.8a3.714,3.714,0,0,1,.691-2.347,2.186,2.186,0,0,1,1.811-.888,2.2,2.2,0,0,1,1.764.762V-9h1.084V0h-1l-.053-.68a2.208,2.208,0,0,1-1.811.8,2.165,2.165,0,0,1-1.8-.9,3.756,3.756,0,0,1-.694-2.355Zm1.084.123a2.812,2.812,0,0,0,.445,1.688A1.44,1.44,0,0,0,73.3-.8a1.581,1.581,0,0,0,1.506-.926V-4.641a1.593,1.593,0,0,0-1.494-.9,1.446,1.446,0,0,0-1.242.615A3.1,3.1,0,0,0,71.625-3.1Zm5.66-.129A3.745,3.745,0,0,1,77.651-4.9a2.732,2.732,0,0,1,1.02-1.148,2.775,2.775,0,0,1,1.491-.4,2.674,2.674,0,0,1,2.095.9,3.449,3.449,0,0,1,.8,2.385V-3.1A3.777,3.777,0,0,1,82.7-1.438,2.692,2.692,0,0,1,81.688-.293a2.807,2.807,0,0,1-1.515.41,2.667,2.667,0,0,1-2.089-.9,3.432,3.432,0,0,1-.8-2.373Zm1.09.129a2.712,2.712,0,0,0,.489,1.693,1.566,1.566,0,0,0,1.31.639,1.556,1.556,0,0,0,1.313-.647,2.966,2.966,0,0,0,.486-1.813,2.708,2.708,0,0,0-.5-1.69,1.574,1.574,0,0,0-1.315-.647,1.557,1.557,0,0,0-1.295.639A2.944,2.944,0,0,0,78.375-3.1Z" transform="matrix(0.914, -0.407, 0.407, 0.914, 1714.05, -5354.514)" fill="#12263f"/>
    <path id="Trazado_154346" data-name="Trazado 154346" d="M.99,0V-8.531H3.4a3.877,3.877,0,0,1,1.969.492,3.329,3.329,0,0,1,1.321,1.4A4.558,4.558,0,0,1,7.16-4.553v.545a4.574,4.574,0,0,1-.466,2.115A3.277,3.277,0,0,1,5.364-.5,4.124,4.124,0,0,1,3.352,0ZM2.115-7.605V-.92H3.3a2.576,2.576,0,0,0,2.024-.809,3.339,3.339,0,0,0,.724-2.3v-.5a3.392,3.392,0,0,0-.683-2.259,2.43,2.43,0,0,0-1.937-.817ZM11.32.117a2.77,2.77,0,0,1-2.1-.847,3.142,3.142,0,0,1-.809-2.265v-.2a3.8,3.8,0,0,1,.36-1.685,2.811,2.811,0,0,1,1.008-1.16,2.534,2.534,0,0,1,1.4-.419,2.374,2.374,0,0,1,1.922.814,3.526,3.526,0,0,1,.686,2.332v.451H9.5a2.254,2.254,0,0,0,.548,1.515,1.722,1.722,0,0,0,1.333.577A1.888,1.888,0,0,0,12.352-1a2.444,2.444,0,0,0,.7-.621l.662.516A2.662,2.662,0,0,1,11.32.117Zm-.135-5.684a1.446,1.446,0,0,0-1.1.478A2.321,2.321,0,0,0,9.533-3.75h3.176v-.082a2.065,2.065,0,0,0-.445-1.28A1.361,1.361,0,0,0,11.186-5.566Zm6.926.2a3.248,3.248,0,0,0-.533-.041,1.428,1.428,0,0,0-1.447.908V0H15.047V-6.34H16.1l.018.732a1.688,1.688,0,0,1,1.512-.85,1.107,1.107,0,0,1,.48.082ZM21.627.117a2.77,2.77,0,0,1-2.1-.847,3.142,3.142,0,0,1-.809-2.265v-.2a3.8,3.8,0,0,1,.36-1.685,2.811,2.811,0,0,1,1.008-1.16,2.534,2.534,0,0,1,1.4-.419,2.374,2.374,0,0,1,1.922.814A3.526,3.526,0,0,1,24.1-3.311v.451H19.8a2.254,2.254,0,0,0,.548,1.515,1.722,1.722,0,0,0,1.333.577A1.888,1.888,0,0,0,22.658-1a2.444,2.444,0,0,0,.7-.621l.662.516A2.662,2.662,0,0,1,21.627.117Zm-.135-5.684a1.446,1.446,0,0,0-1.1.478A2.321,2.321,0,0,0,19.84-3.75h3.176v-.082a2.065,2.065,0,0,0-.445-1.28A1.361,1.361,0,0,0,21.492-5.566Zm6.4,4.8a1.561,1.561,0,0,0,1.014-.352A1.237,1.237,0,0,0,29.391-2h1.025a1.966,1.966,0,0,1-.375,1.037,2.47,2.47,0,0,1-.923.785A2.663,2.663,0,0,1,27.9.117a2.612,2.612,0,0,1-2.06-.864,3.442,3.442,0,0,1-.765-2.364v-.182a3.817,3.817,0,0,1,.34-1.646,2.588,2.588,0,0,1,.976-1.119,2.771,2.771,0,0,1,1.5-.4,2.543,2.543,0,0,1,1.772.639,2.283,2.283,0,0,1,.753,1.658H29.391a1.494,1.494,0,0,0-.466-1.011,1.449,1.449,0,0,0-1.034-.4,1.517,1.517,0,0,0-1.28.595,2.793,2.793,0,0,0-.454,1.72v.205a2.737,2.737,0,0,0,.451,1.688A1.524,1.524,0,0,0,27.9-.768Zm4.822-4.8a2.3,2.3,0,0,1,1.875-.885q2.01,0,2.027,2.268V0H35.537V-4.2a1.459,1.459,0,0,0-.313-1.014,1.256,1.256,0,0,0-.958-.328,1.564,1.564,0,0,0-.926.281,1.91,1.91,0,0,0-.621.738V0H31.635V-9h1.084Zm5.238,2.344A3.745,3.745,0,0,1,38.323-4.9a2.732,2.732,0,0,1,1.02-1.148,2.775,2.775,0,0,1,1.491-.4,2.674,2.674,0,0,1,2.095.9,3.449,3.449,0,0,1,.8,2.385V-3.1a3.777,3.777,0,0,1-.354,1.661A2.692,2.692,0,0,1,42.36-.293a2.807,2.807,0,0,1-1.515.41,2.667,2.667,0,0,1-2.089-.9,3.432,3.432,0,0,1-.8-2.373Zm1.09.129a2.712,2.712,0,0,0,.489,1.693,1.566,1.566,0,0,0,1.31.639,1.556,1.556,0,0,0,1.313-.647,2.966,2.966,0,0,0,.486-1.813,2.708,2.708,0,0,0-.5-1.69,1.574,1.574,0,0,0-1.315-.647,1.557,1.557,0,0,0-1.295.639A2.944,2.944,0,0,0,39.047-3.1Zm8.748-.123a3.714,3.714,0,0,1,.691-2.347A2.186,2.186,0,0,1,50.3-6.457a2.2,2.2,0,0,1,1.764.762V-9h1.084V0h-1L52.1-.68a2.208,2.208,0,0,1-1.811.8,2.165,2.165,0,0,1-1.8-.9,3.756,3.756,0,0,1-.694-2.355Zm1.084.123a2.812,2.812,0,0,0,.445,1.688,1.44,1.44,0,0,0,1.23.609,1.581,1.581,0,0,0,1.506-.926V-4.641a1.593,1.593,0,0,0-1.494-.9,1.446,1.446,0,0,0-1.242.615A3.1,3.1,0,0,0,48.879-3.1ZM57.457.117a2.77,2.77,0,0,1-2.1-.847,3.142,3.142,0,0,1-.809-2.265v-.2a3.8,3.8,0,0,1,.36-1.685,2.811,2.811,0,0,1,1.008-1.16,2.534,2.534,0,0,1,1.4-.419,2.374,2.374,0,0,1,1.922.814,3.526,3.526,0,0,1,.686,2.332v.451H55.635a2.254,2.254,0,0,0,.548,1.515,1.722,1.722,0,0,0,1.333.577A1.888,1.888,0,0,0,58.488-1a2.444,2.444,0,0,0,.7-.621l.662.516A2.662,2.662,0,0,1,57.457.117Zm-.135-5.684a1.446,1.446,0,0,0-1.1.478A2.321,2.321,0,0,0,55.67-3.75h3.176v-.082a2.065,2.065,0,0,0-.445-1.28A1.361,1.361,0,0,0,57.322-5.566ZM62.361,0H61.277V-9h1.084Zm6.176-7.875V-6.34h1.184V-5.5H68.537V-1.57A.878.878,0,0,0,68.7-1a.666.666,0,0,0,.539.19,2.624,2.624,0,0,0,.516-.07V0a3.143,3.143,0,0,1-.832.117,1.35,1.35,0,0,1-1.1-.439,1.888,1.888,0,0,1-.369-1.248V-5.5H66.3V-6.34h1.154V-7.875ZM73.617.117a2.77,2.77,0,0,1-2.1-.847,3.142,3.142,0,0,1-.809-2.265v-.2a3.8,3.8,0,0,1,.36-1.685,2.811,2.811,0,0,1,1.008-1.16,2.534,2.534,0,0,1,1.4-.419,2.374,2.374,0,0,1,1.922.814,3.526,3.526,0,0,1,.686,2.332v.451H71.795a2.254,2.254,0,0,0,.548,1.515,1.722,1.722,0,0,0,1.333.577A1.888,1.888,0,0,0,74.648-1a2.444,2.444,0,0,0,.7-.621l.662.516A2.662,2.662,0,0,1,73.617.117Zm-.135-5.684a1.446,1.446,0,0,0-1.1.478A2.321,2.321,0,0,0,71.83-3.75h3.176v-.082a2.065,2.065,0,0,0-.445-1.28A1.361,1.361,0,0,0,73.482-5.566Zm4.98-.773V.732q0,1.828-1.658,1.828a2.011,2.011,0,0,1-.662-.105V1.588a2.1,2.1,0,0,0,.492.047.737.737,0,0,0,.554-.2.97.97,0,0,0,.19-.683v-7.1Zm-1.2-1.682a.65.65,0,0,1,.161-.442.592.592,0,0,1,.472-.185.614.614,0,0,1,.48.182.64.64,0,0,1,.164.445.619.619,0,0,1-.164.439.626.626,0,0,1-.48.176.606.606,0,0,1-.475-.176A.632.632,0,0,1,77.268-8.021ZM81.387,0H80.3V-6.34h1.084ZM80.215-8.021a.647.647,0,0,1,.161-.445.6.6,0,0,1,.478-.182.614.614,0,0,1,.48.182.64.64,0,0,1,.164.445.619.619,0,0,1-.164.439.626.626,0,0,1-.48.176.616.616,0,0,1-.478-.176A.626.626,0,0,1,80.215-8.021Zm2.643,4.8a3.714,3.714,0,0,1,.691-2.347,2.186,2.186,0,0,1,1.811-.888,2.2,2.2,0,0,1,1.764.762V-9h1.084V0h-1l-.053-.68a2.208,2.208,0,0,1-1.811.8,2.165,2.165,0,0,1-1.8-.9,3.756,3.756,0,0,1-.694-2.355Zm1.084.123a2.812,2.812,0,0,0,.445,1.688,1.44,1.44,0,0,0,1.23.609,1.581,1.581,0,0,0,1.506-.926V-4.641a1.593,1.593,0,0,0-1.494-.9,1.446,1.446,0,0,0-1.242.615A3.1,3.1,0,0,0,83.941-3.1Zm5.66-.129A3.745,3.745,0,0,1,89.968-4.9a2.732,2.732,0,0,1,1.02-1.148,2.775,2.775,0,0,1,1.491-.4,2.674,2.674,0,0,1,2.095.9,3.449,3.449,0,0,1,.8,2.385V-3.1a3.777,3.777,0,0,1-.354,1.661A2.692,2.692,0,0,1,94-.293a2.807,2.807,0,0,1-1.515.41,2.667,2.667,0,0,1-2.089-.9,3.432,3.432,0,0,1-.8-2.373Zm1.09.129a2.712,2.712,0,0,0,.489,1.693,1.566,1.566,0,0,0,1.31.639A1.556,1.556,0,0,0,93.8-1.415a2.966,2.966,0,0,0,.486-1.813,2.708,2.708,0,0,0-.5-1.69,1.574,1.574,0,0,0-1.315-.647,1.557,1.557,0,0,0-1.295.639A2.944,2.944,0,0,0,90.691-3.1Z" transform="translate(1714.195 -5313.458) rotate(-25)" fill="#12263f"/>
  </g>
</svg>
