<svg xmlns="http://www.w3.org/2000/svg" width="220" height="167.578" viewBox="0 0 220 167.578">
  <g id="img4" transform="translate(-233 -2166)">
    <g id="Right" transform="translate(233.438 2166)">
      <rect id="BG" width="220" height="142" transform="translate(-0.438)" fill="#339ce9" opacity="0.949"/>
    </g>
    <g id="tela_3_" data-name="tela (3)" transform="translate(268.811 2182)">
      <path id="Trazado_154232" data-name="Trazado 154232" d="M62.668,62.119H188.907a4.458,4.458,0,0,1,4.458,4.458V188.628a4.458,4.458,0,0,1-4.458,4.458H62.668Z" transform="translate(-43.858 -43.729)" fill="#54d5d1"/>
      <path id="Trazado_154233" data-name="Trazado 154233" d="M62.669,62.118V193.086h126.24a4.457,4.457,0,0,0,4.456-4.459v-5.835H96.3a5.172,5.172,0,0,1-5.172-5.172V62.118Z" transform="translate(-43.859 -43.728)" fill="#98f0ee"/>
      <path id="Trazado_154234" data-name="Trazado 154234" d="M7.867,23.763V138.372H40.4V23.763a16.265,16.265,0,0,0-32.53,0Z" transform="translate(-5.281 -5.278)" fill="#0ac4bf"/>
      <circle id="Elipse_6468" data-name="Elipse 6468" cx="16.265" cy="16.265" r="16.265" transform="translate(2.585 116.828)" fill="#e5554e"/>
      <path id="Trazado_154235" data-name="Trazado 154235" d="M44.907,439.192a7.526,7.526,0,1,0-7.527-7.526,7.535,7.535,0,0,0,7.527,7.526Z" transform="translate(-26.057 -298.572)" fill="#0ac4bf"/>
      <path id="Trazado_154236" data-name="Trazado 154236" d="M39.627,416.641a9.747,9.747,0,1,0,9.747,9.747A9.758,9.758,0,0,0,39.627,416.641Zm0,15.053a5.306,5.306,0,1,1,5.306-5.306A5.312,5.312,0,0,1,39.627,431.694Z" transform="translate(-20.777 -293.294)"/>
      <path id="Trazado_154237" data-name="Trazado 154237" d="M145.049,16.171H37.187A18.483,18.483,0,0,0,.366,18.485c0,1.243,0,113.916,0,114.608a18.5,18.5,0,0,0,18.513,18.484H145.049a6.686,6.686,0,0,0,6.678-6.678V22.849A6.686,6.686,0,0,0,145.049,16.171ZM4.807,18.485a14.045,14.045,0,0,1,28.089,0V121.1a18.448,18.448,0,0,0-28.089,0ZM18.878,147.138a14.044,14.044,0,1,1,14.016-14.044,14.054,14.054,0,0,1-14.016,14.044ZM147.286,144.9a2.24,2.24,0,0,1-2.238,2.238H30.849a18.61,18.61,0,0,0,4.093-4.965c.619.26-5.668.173,112.344.173Zm0-17.358H127.578a2.22,2.22,0,1,0,0,4.441h19.709V137.9H36.7a20.448,20.448,0,0,0,.641-5.921H118.7a2.22,2.22,0,1,0,0-4.441H37.337v-5.921H147.286Zm0-10.362H37.337v-7.7l1.79,1.79a1.074,1.074,0,0,0,1.518,0l3.7-3.7a1.066,1.066,0,0,0,.309-.7,1.066,1.066,0,0,0,.309.7l3.7,3.7a1.074,1.074,0,0,0,1.518,0l3.7-3.7a1.066,1.066,0,0,0,.309-.7,1.066,1.066,0,0,0,.309.7l3.7,3.7a1.074,1.074,0,0,0,1.518,0l3.7-3.7a1.066,1.066,0,0,0,.309-.7,1.066,1.066,0,0,0,.309.7l3.7,3.7a1.074,1.074,0,0,0,1.518,0l3.7-3.7a1.066,1.066,0,0,0,.309-.7,1.066,1.066,0,0,0,.309.7l3.7,3.7a1.074,1.074,0,0,0,1.518,0l3.7-3.7a1.066,1.066,0,0,0,.309-.7,1.066,1.066,0,0,0,.309.7l3.7,3.7a1.074,1.074,0,0,0,1.518,0l3.7-3.7a1.066,1.066,0,0,0,.309-.7,1.066,1.066,0,0,0,.309.7l3.7,3.7a1.074,1.074,0,0,0,1.518,0l3.7-3.7a1.066,1.066,0,0,0,.309-.7,1.066,1.066,0,0,0,.309.7l3.7,3.7a1.074,1.074,0,0,0,1.518,0l3.7-3.7a1.066,1.066,0,0,0,.309-.7,1.066,1.066,0,0,0,.309.7l3.7,3.7a1.074,1.074,0,0,0,1.518,0l3.7-3.7a1.066,1.066,0,0,0,.309-.7,1.066,1.066,0,0,0,.309.7l3.7,3.7a1.074,1.074,0,0,0,1.518,0l3.7-3.7a1.066,1.066,0,0,0,.309-.7,1.066,1.066,0,0,0,.309.7l3.7,3.7a1.074,1.074,0,0,0,1.518,0l3.7-3.7a1.066,1.066,0,0,0,.309-.7,1.066,1.066,0,0,0,.309.7l3.7,3.7a1.074,1.074,0,0,0,1.518,0l1.794-1.794v7.7Zm0-13.024-1.794-1.794a1.074,1.074,0,0,0-1.518,0l-3.7,3.7a1.066,1.066,0,0,0-.309.7,1.066,1.066,0,0,0-.309-.7l-3.7-3.7a1.074,1.074,0,0,0-1.518,0l-3.7,3.7a1.066,1.066,0,0,0-.309.7,1.066,1.066,0,0,0-.309-.7l-3.7-3.7a1.074,1.074,0,0,0-1.518,0l-3.7,3.7a1.066,1.066,0,0,0-.309.7,1.066,1.066,0,0,0-.309-.7l-3.7-3.7a1.074,1.074,0,0,0-1.518,0l-3.7,3.7a1.066,1.066,0,0,0-.309.7,1.066,1.066,0,0,0-.309-.7l-3.7-3.7a1.074,1.074,0,0,0-1.518,0l-3.7,3.7a1.066,1.066,0,0,0-.309.7,1.066,1.066,0,0,0-.309-.7l-3.7-3.7a1.074,1.074,0,0,0-1.518,0l-3.7,3.7a1.066,1.066,0,0,0-.309.7,1.066,1.066,0,0,0-.309-.7l-3.7-3.7a1.074,1.074,0,0,0-1.518,0l-3.7,3.7a1.066,1.066,0,0,0-.309.7,1.066,1.066,0,0,0-.309-.7l-3.7-3.7a1.074,1.074,0,0,0-1.518,0l-3.7,3.7a1.066,1.066,0,0,0-.309.7,1.066,1.066,0,0,0-.309-.7l-3.7-3.7a1.074,1.074,0,0,0-1.518,0l-3.7,3.7a1.066,1.066,0,0,0-.309.7,1.066,1.066,0,0,0-.309-.7l-3.7-3.7a1.074,1.074,0,0,0-1.518,0l-3.7,3.7a1.066,1.066,0,0,0-.309.7,1.066,1.066,0,0,0-.309-.7l-3.7-3.7a1.074,1.074,0,0,0-1.518,0l-3.7,3.7a1.066,1.066,0,0,0-.309.7,1.066,1.066,0,0,0-.309-.7l-3.7-3.7a1.074,1.074,0,0,0-1.518,0l-1.79,1.79v-7.7H147.285v7.7Zm0-22.5H77.841a2.22,2.22,0,1,0,0,4.441h69.446v5.921H37.337V86.095H68.959a2.22,2.22,0,1,0,0-4.441H37.337V75.733H147.286Zm0-10.362H37.337V63.6l1.79,1.79a1.074,1.074,0,0,0,1.518,0l3.7-3.7a1.066,1.066,0,0,0,.309-.7,1.066,1.066,0,0,0,.309.7l3.7,3.7a1.074,1.074,0,0,0,1.518,0l3.7-3.7a1.066,1.066,0,0,0,.309-.7,1.066,1.066,0,0,0,.309.7l3.7,3.7a1.074,1.074,0,0,0,1.518,0l3.7-3.7a1.066,1.066,0,0,0,.309-.7,1.066,1.066,0,0,0,.309.7l3.7,3.7a1.074,1.074,0,0,0,1.518,0l3.7-3.7a1.066,1.066,0,0,0,.309-.7,1.066,1.066,0,0,0,.309.7l3.7,3.7a1.074,1.074,0,0,0,1.518,0l3.7-3.7a1.066,1.066,0,0,0,.309-.7,1.066,1.066,0,0,0,.309.7l3.7,3.7a1.074,1.074,0,0,0,1.518,0l3.7-3.7a1.066,1.066,0,0,0,.309-.7,1.066,1.066,0,0,0,.309.7l3.7,3.7a1.074,1.074,0,0,0,1.518,0l3.7-3.7a1.066,1.066,0,0,0,.309-.7,1.066,1.066,0,0,0,.309.7l3.7,3.7a1.074,1.074,0,0,0,1.518,0l3.7-3.7a1.066,1.066,0,0,0,.309-.7,1.066,1.066,0,0,0,.309.7l3.7,3.7a1.074,1.074,0,0,0,1.518,0l3.7-3.7a1.066,1.066,0,0,0,.309-.7,1.066,1.066,0,0,0,.309.7l3.7,3.7a1.074,1.074,0,0,0,1.518,0l3.7-3.7a1.066,1.066,0,0,0,.309-.7,1.066,1.066,0,0,0,.309.7l3.7,3.7a1.074,1.074,0,0,0,1.518,0l3.7-3.7a1.066,1.066,0,0,0,.309-.7,1.066,1.066,0,0,0,.309.7l3.7,3.7a1.074,1.074,0,0,0,1.518,0l1.794-1.794v7.7Zm0-13.024-1.794-1.794a1.074,1.074,0,0,0-1.518,0l-3.7,3.7a1.066,1.066,0,0,0-.309.7,1.066,1.066,0,0,0-.309-.7l-3.7-3.7a1.074,1.074,0,0,0-1.518,0l-3.7,3.7a1.066,1.066,0,0,0-.309.7,1.066,1.066,0,0,0-.309-.7l-3.7-3.7a1.074,1.074,0,0,0-1.518,0l-3.7,3.7a1.066,1.066,0,0,0-.309.7,1.066,1.066,0,0,0-.309-.7l-3.7-3.7a1.074,1.074,0,0,0-1.518,0l-3.7,3.7a1.066,1.066,0,0,0-.309.7,1.066,1.066,0,0,0-.309-.7l-3.7-3.7a1.074,1.074,0,0,0-1.518,0l-3.7,3.7a1.066,1.066,0,0,0-.309.7,1.066,1.066,0,0,0-.309-.7l-3.7-3.7a1.074,1.074,0,0,0-1.518,0l-3.7,3.7a1.066,1.066,0,0,0-.309.7,1.066,1.066,0,0,0-.309-.7l-3.7-3.7a1.074,1.074,0,0,0-1.518,0l-3.7,3.7a1.066,1.066,0,0,0-.309.7,1.066,1.066,0,0,0-.309-.7l-3.7-3.7a1.074,1.074,0,0,0-1.518,0l-3.7,3.7a1.066,1.066,0,0,0-.309.7,1.066,1.066,0,0,0-.309-.7l-3.7-3.7a1.074,1.074,0,0,0-1.518,0l-3.7,3.7a1.066,1.066,0,0,0-.309.7,1.066,1.066,0,0,0-.309-.7l-3.7-3.7a1.074,1.074,0,0,0-1.518,0l-3.7,3.7a1.066,1.066,0,0,0-.309.7,1.066,1.066,0,0,0-.309-.7l-3.7-3.7a1.074,1.074,0,0,0-1.518,0l-3.7,3.7a1.066,1.066,0,0,0-.309.7,1.066,1.066,0,0,0-.309-.7l-3.7-3.7a1.074,1.074,0,0,0-1.518,0l-1.79,1.79v-7.7H147.285v7.7Zm0-12.14H37.337V40.207H147.286Zm0-20.724H103.894a2.22,2.22,0,0,0,0,4.441h43.393v5.921H37.337V29.845H95.012a2.22,2.22,0,0,0,0-4.441H37.337V20.611H145.049a2.24,2.24,0,0,1,2.238,2.238Z"/>
    </g>
    <g id="cancelar" transform="translate(384.457 2177.911)">
      <path id="Trazado_154238" data-name="Trazado 154238" d="M245.093,76.419l-18.56,18.56,18.56,18.56-2.448,2.449-31.4-21.008,31.4-21.007Z" transform="translate(-186.87 -65.433)" fill="#e0230d"/>
      <path id="Trazado_154239" data-name="Trazado 154239" d="M62.409,15.172,41.4,36.179,62.409,57.188l-7.671,7.67L36.178,46.3l-18.56,18.56L7.5,54.739l18.56-18.56L7.5,17.62,17.619,7.5l18.56,18.56L54.738,7.5Z" transform="translate(-6.634 -6.634)" fill="#ff5440"/>
      <path id="Trazado_154240" data-name="Trazado 154240" d="M40.887,29.545,58.834,11.6a.866.866,0,0,0,0-1.224L48.716.255a.866.866,0,0,0-1.224,0L29.544,18.2,11.6.255a.866.866,0,0,0-1.224,0L.254,10.373a.866.866,0,0,0,0,1.224L18.2,29.545l-7.444,7.444a.866.866,0,0,0,1.224,1.224l8.056-8.056a.866.866,0,0,0,0-1.224L2.09,10.986l8.895-8.895L28.932,20.038a.866.866,0,0,0,1.224,0L48.1,2.091,57,10.986,39.051,28.933a.866.866,0,0,0,0,1.224L57,48.1,48.1,57,30.156,39.052a.866.866,0,0,0-1.224,0L10.985,57,2.09,48.1l7.444-7.444a.866.866,0,0,0-1.224-1.224L.254,47.492a.866.866,0,0,0,0,1.224L10.373,58.835a.866.866,0,0,0,1.224,0L29.544,40.888,47.491,58.835a.866.866,0,0,0,1.224,0L58.835,48.716a.866.866,0,0,0,0-1.224Z" transform="translate(0 0)"/>
    </g>
  </g>
</svg>
