<svg xmlns="http://www.w3.org/2000/svg" xmlns:xlink="http://www.w3.org/1999/xlink" width="615.215" height="226.657" viewBox="0 0 615.215 226.657">
  <defs>
    <clipPath id="clip-path">
      <rect id="Rectángulo_26682" data-name="Rectángulo 26682" width="141.8" height="107.541" fill="none" stroke="#0ac4bf" stroke-width="2"/>
    </clipPath>
    <clipPath id="clip-path-2">
      <rect id="Rectángulo_26683" data-name="Rectángulo 26683" width="269.01" height="58.51" transform="translate(0 0)" fill="none"/>
    </clipPath>
    <clipPath id="clip-path-3">
      <rect id="Rectángulo_26684" data-name="Rectángulo 26684" width="460.074" height="24.532" transform="translate(0 0)" fill="none" stroke="#0ac4bf" stroke-width="2"/>
    </clipPath>
  </defs>
  <g id="img7" transform="translate(-336.982 -3827)">
    <rect id="Rectángulo_26687" data-name="Rectángulo 26687" width="615.215" height="136.235" rx="18" transform="translate(336.982 3917.422)" fill="#fff5fa"/>
    <g id="Grupo_90355" data-name="Grupo 90355" transform="translate(0 -33.778)">
      <g id="Grupo_90348" data-name="Grupo 90348" transform="translate(435 3860.778)">
        <path id="Trazado_154265" data-name="Trazado 154265" d="M8.029,101.018,66.005,32.124l57.224,68.141" fill="none" stroke="#0ac4bf" stroke-miterlimit="10" stroke-width="2"/>
        <line id="Línea_487" data-name="Línea 487" x2="94.117" transform="translate(15.182 99.888)" fill="none" stroke="#0ac4bf" stroke-miterlimit="10" stroke-width="2" stroke-dasharray="6"/>
        <g id="Grupo_90347" data-name="Grupo 90347">
          <g id="Grupo_90346" data-name="Grupo 90346" clip-path="url(#clip-path)">
            <circle id="Elipse_6470" data-name="Elipse 6470" cx="6.4" cy="6.4" r="6.4" transform="translate(3.512 94.241)" fill="none" stroke="#0ac4bf" stroke-miterlimit="10" stroke-width="2"/>
            <circle id="Elipse_6471" data-name="Elipse 6471" cx="6.4" cy="6.4" r="6.4" transform="translate(117.206 94.241)" fill="none" stroke="#0ac4bf" stroke-miterlimit="10" stroke-width="2"/>
            <rect id="Rectángulo_26681" data-name="Rectángulo 26681" width="140.8" height="5.271" transform="translate(0.5 69.77)" fill="none" stroke="#0ac4bf" stroke-miterlimit="10" stroke-width="2"/>
            <path id="Trazado_154266" data-name="Trazado 154266" d="M86.335,24.782A24.282,24.282,0,1,1,62.053.5,24.282,24.282,0,0,1,86.335,24.782Z" fill="none" stroke="#0ac4bf" stroke-miterlimit="10" stroke-width="2"/>
            <circle id="Elipse_6472" data-name="Elipse 6472" cx="2.488" cy="2.488" r="2.488" transform="translate(61.565 22.294)" fill="none" stroke="#0ac4bf" stroke-miterlimit="10" stroke-width="2"/>
            <path id="Trazado_154267" data-name="Trazado 154267" d="M52.923,24.594s13.553,15.529,20.047,0" fill="none" stroke="#0ac4bf" stroke-miterlimit="10" stroke-width="2"/>
          </g>
        </g>
      </g>
      <g id="Grupo_90350" data-name="Grupo 90350" transform="translate(520 3892.779)">
        <g id="Grupo_90349" data-name="Grupo 90349" clip-path="url(#clip-path-2)">
          <path id="Trazado_154268" data-name="Trazado 154268" d="M.3,2.191A60.081,60.081,0,0,0,44.549,23.854c4.23.12,9.521-1.187,13.289,1.248,3.1,2,4.3,5.962,5.624,9.193a24.766,24.766,0,0,0,6.4,9.584A29.991,29.991,0,0,0,80.623,49.8c9.6,3.064,19.895,1.788,29.772,1.494,10.6-.316,21.2,0,31.78.638,21.3,1.293,42.485,3.906,63.765,5.42,10.389.74,20.824,1.275,31.242,1.139,8.754-.114,17.794-.929,25.8-4.732a33.243,33.243,0,0,0,5.487-3.3c1.28-.946.034-3.117-1.262-2.159-7.108,5.251-15.9,7-24.557,7.5a256.569,256.569,0,0,1-29.941-.512c-20.954-1.233-41.8-3.779-62.73-5.333-10.4-.772-20.818-1.3-31.247-1.292-5.188,0-10.365.19-15.548.418A89.213,89.213,0,0,1,87.9,48.832c-8.207-1.054-16.849-4.8-20.8-12.5-1.658-3.229-2.545-6.853-4.567-9.9a11.529,11.529,0,0,0-9.636-5.2c-2.294-.1-4.59.143-6.886.138a55.742,55.742,0,0,1-6.234-.362,56.984,56.984,0,0,1-12.231-2.835A57.533,57.533,0,0,1,6.281,5.039,56.946,56.946,0,0,1,2.071.423C1.051-.822-.709.956.3,2.191" fill="#d9000d"/>
        </g>
      </g>
    </g>
    <g id="Grupo_90352" data-name="Grupo 90352" transform="translate(379 3934.541)">
      <g id="Grupo_90351" data-name="Grupo 90351" clip-path="url(#clip-path-3)">
        <path id="Trazado_154269" data-name="Trazado 154269" d="M.25,24.532V.25H460" transform="translate(0.073)" fill="none" stroke="#0ac4bf" stroke-miterlimit="10" stroke-width="2"/>
      </g>
    </g>
    <path id="Trazado_154270" data-name="Trazado 154270" d="M2559.5-7657.958v95.212" transform="translate(-2139 11592.499)" fill="none" stroke="#0ac4bf" stroke-width="2"/>
    <path id="Trazado_154271" data-name="Trazado 154271" d="M2518-7562.746h223.031" transform="translate(-2139 11592.499)" fill="none" stroke="#0ac4bf" stroke-width="2"/>
    <path id="Trazado_154272" data-name="Trazado 154272" d="M2559.5-7657.958v95.212" transform="translate(-1957.469 11592.499)" fill="none" stroke="#0ac4bf" stroke-width="2"/>
    <path id="Trazado_154273" data-name="Trazado 154273" d="M2518-7562.746h223.031" transform="translate(-1829.516 11592.499)" fill="none" stroke="#0ac4bf" stroke-width="2"/>
    <path id="Trazado_154274" data-name="Trazado 154274" d="M2559.5-7657.958v95.212" transform="translate(-2045.509 11592.499)" fill="none" stroke="#0ac4bf" stroke-width="2"/>
    <path id="Trazado_154275" data-name="Trazado 154275" d="M2559.5-7657.958v95.212" transform="translate(-1776.469 11592.499)" fill="none" stroke="#0ac4bf" stroke-width="2"/>
  </g>
</svg>
