<svg xmlns="http://www.w3.org/2000/svg" width="220" height="232" viewBox="0 0 220 232">
  <g id="img2" transform="translate(-233 -971)">
    <g id="img2-2" data-name="img2" transform="translate(233.438 971)">
      <rect id="BG" width="220" height="232" transform="translate(-0.438)" fill="#339ce9" opacity="0.949"/>
    </g>
    <g id="fibra" transform="translate(257.178 1001.18)">
      <path id="Trazado_154077" data-name="Trazado 154077" d="M174.939,371.072a24.475,24.475,0,0,1-11.258-6.421,38.082,38.082,0,0,0-53.794,0,24.656,24.656,0,0,1-34.832,0,38.082,38.082,0,0,0-53.794,0A24.475,24.475,0,0,1,10,371.072v13.686a37.835,37.835,0,0,0,20.739-10.624,24.657,24.657,0,0,1,34.831,0,38.083,38.083,0,0,0,53.795,0,24.657,24.657,0,0,1,34.831,0,37.826,37.826,0,0,0,20.739,10.624V371.072Zm0,0" transform="translate(-6.65 -235.013)" fill="#f2d6e3"/>
      <path id="Trazado_154078" data-name="Trazado 154078" d="M174.939,209.264A37.835,37.835,0,0,0,154.2,219.888a24.659,24.659,0,0,1-34.832,0,38.081,38.081,0,0,0-53.794,0,24.659,24.659,0,0,1-34.832,0A37.835,37.835,0,0,0,10,209.264V222.95a24.475,24.475,0,0,1,11.258,6.421,38.082,38.082,0,0,0,53.794,0,24.656,24.656,0,0,1,34.832,0,38.082,38.082,0,0,0,53.794,0,24.475,24.475,0,0,1,11.258-6.421Zm0,0" transform="translate(-6.65 -138.779)" fill="#f2d6e3"/>
      <path id="Trazado_154079" data-name="Trazado 154079" d="M174.939,81.544a24.475,24.475,0,0,1-11.258-6.421,38.082,38.082,0,0,0-53.794,0,24.656,24.656,0,0,1-34.832,0,38.082,38.082,0,0,0-53.794,0A24.475,24.475,0,0,1,10,81.544V95.23A37.835,37.835,0,0,0,30.743,84.606a24.657,24.657,0,0,1,34.831,0,38.083,38.083,0,0,0,53.795,0,24.657,24.657,0,0,1,34.831,0A37.843,37.843,0,0,0,174.938,95.23V81.544Zm0,0" transform="translate(-6.65 -42.546)" fill="#f2d6e3"/>
      <g id="Grupo_90188" data-name="Grupo 90188" transform="translate(34.754 3.352)">
        <path id="Trazado_154080" data-name="Trazado 154080" d="M103.668,10h13.408V94.959H103.668Zm0,0" transform="translate(-103.668 -10)" fill="#bf3976"/>
        <path id="Trazado_154081" data-name="Trazado 154081" d="M103.668,302.887h13.408v66.749H103.668Zm0,0" transform="translate(-103.668 -204.7)" fill="#bf3976"/>
        <path id="Trazado_154082" data-name="Trazado 154082" d="M368,302.887h13.408v66.749H368Zm0,0" transform="translate(-279.386 -204.7)" fill="#bf3976"/>
        <path id="Trazado_154083" data-name="Trazado 154083" d="M236.129,153.961h13.408v84.958H236.129Zm0,0" transform="translate(-191.723 -105.7)" fill="#bf3976"/>
        <path id="Trazado_154084" data-name="Trazado 154084" d="M236.129,10h13.408V46.428H236.129Zm0,0" transform="translate(-191.723 -10)" fill="#bf3976"/>
        <path id="Trazado_154085" data-name="Trazado 154085" d="M236.129,450.137h13.408v17.385H236.129Zm0,0" transform="translate(-191.723 -302.587)" fill="#bf3976"/>
        <path id="Trazado_154086" data-name="Trazado 154086" d="M368,10h13.408V94.959H368Zm0,0" transform="translate(-279.386 -10)" fill="#bf3976"/>
      </g>
      <path id="Trazado_154087" data-name="Trazado 154087" d="M97.024,172a3.353,3.353,0,1,0,2.37.982A3.369,3.369,0,0,0,97.024,172Zm0,0" transform="translate(-62.269 -114.339)"/>
      <path id="Trazado_154088" data-name="Trazado 154088" d="M21.723,39.69A34.393,34.393,0,0,1,2.816,49.375a3.353,3.353,0,1,0,1.076,6.618A41.06,41.06,0,0,0,26.463,44.432,21.293,21.293,0,0,1,31.4,40.756V47.6a3.352,3.352,0,0,0,6.7,0V3.352a3.352,3.352,0,0,0-6.7,0v16A41.091,41.091,0,0,0,12.241,30.208a21.208,21.208,0,0,1-9.719,5.544,3.352,3.352,0,1,0,1.666,6.494,27.91,27.91,0,0,0,12.8-7.3A34.418,34.418,0,0,1,31.4,26.3v7.086A28,28,0,0,0,21.723,39.69Zm0,0" transform="translate(0)"/>
      <path id="Trazado_154089" data-name="Trazado 154089" d="M401.352,492a3.353,3.353,0,1,0,2.37.982A3.379,3.379,0,0,0,401.352,492Zm0,0" transform="translate(-264.575 -327.061)"/>
      <path id="Trazado_154090" data-name="Trazado 154090" d="M168.827,146.435a34.389,34.389,0,0,1-18.907-9.685,27.98,27.98,0,0,0-9.791-6.346v-7.078a34.421,34.421,0,0,1,14.532,8.682,27.924,27.924,0,0,0,12.8,7.3,3.353,3.353,0,0,0,1.666-6.5,21.2,21.2,0,0,1-9.719-5.543,41.086,41.086,0,0,0-19.273-10.885V103.849A41.14,41.14,0,0,0,159.4,92.961a21.2,21.2,0,0,1,9.721-5.543,3.353,3.353,0,0,0-1.666-6.5,27.911,27.911,0,0,0-12.8,7.3,34.726,34.726,0,0,1-49.053,0,28.026,28.026,0,0,0-9.73-6.321V74.822a34.458,34.458,0,0,1,14.47,8.657,28.012,28.012,0,0,0,39.572,0,34.389,34.389,0,0,1,18.907-9.685,3.352,3.352,0,0,0-1.078-6.617,41.06,41.06,0,0,0-22.571,11.562,21.2,21.2,0,0,1-5.049,3.737V40.7a21.216,21.216,0,0,1,5.049,3.735,41.058,41.058,0,0,0,22.571,11.56,3.352,3.352,0,1,0,1.076-6.617,34.393,34.393,0,0,1-18.907-9.685,27.98,27.98,0,0,0-9.791-6.346V26.266a34.421,34.421,0,0,1,14.532,8.682,27.924,27.924,0,0,0,12.8,7.3,3.353,3.353,0,0,0,1.667-6.5,21.208,21.208,0,0,1-9.721-5.543,41.075,41.075,0,0,0-19.272-10.885V3.352a3.352,3.352,0,0,0-6.7,0V84.7a21.441,21.441,0,0,1-6.7-.022V22.222c.005-.1,0-.207,0-.312V3.352a3.352,3.352,0,1,0-6.7,0v16a41.091,41.091,0,0,0-19.149,10.853,21.279,21.279,0,0,1-4.988,3.712V3.352a3.352,3.352,0,0,0-6.7,0V36.165a21.48,21.48,0,0,1-6.7,0V3.352a3.352,3.352,0,0,0-6.7,0V33.919a21.274,21.274,0,0,1-4.988-3.711,41.073,41.073,0,0,0-19.26-10.882V3.352a3.352,3.352,0,0,0-6.7,0V84.7a21.44,21.44,0,0,1-6.7-.017V74.422a3.352,3.352,0,0,0-6.7,0v7.991a21.2,21.2,0,0,1-4.938-3.676A41.06,41.06,0,0,0,3.892,67.176a3.353,3.353,0,1,0-1.076,6.618,34.4,34.4,0,0,1,18.907,9.685,28.011,28.011,0,0,0,39.571,0,34.428,34.428,0,0,1,14.47-8.664V81.9a28,28,0,0,0-9.73,6.324,34.725,34.725,0,0,1-49.052,0,27.924,27.924,0,0,0-12.8-7.3,3.353,3.353,0,1,0-1.666,6.5,21.206,21.206,0,0,1,9.719,5.543A41.141,41.141,0,0,0,31.4,103.82v12.591a41.1,41.1,0,0,0-19.161,10.857,21.206,21.206,0,0,1-9.719,5.543,3.353,3.353,0,1,0,1.666,6.5,27.933,27.933,0,0,0,12.8-7.3A34.422,34.422,0,0,1,31.4,123.362v7.086a28,28,0,0,0-9.679,6.3,34.393,34.393,0,0,1-18.907,9.685A3.352,3.352,0,0,0,3.35,153.1a3.476,3.476,0,0,0,.542-.043,41.06,41.06,0,0,0,22.571-11.562,21.255,21.255,0,0,1,4.938-3.676v30.471a3.352,3.352,0,0,0,6.7,0V104.924q1.7.139,3.4.141,1.652,0,3.3-.134v63.356a3.352,3.352,0,0,0,6.7,0V137.764a21.285,21.285,0,0,1,5.038,3.728,41.066,41.066,0,0,0,19.211,10.885v15.911a3.352,3.352,0,0,0,6.7,0V153.462c1.109.088,2.227.135,3.352.135s2.243-.047,3.352-.135v14.826a3.352,3.352,0,0,0,6.7,0V152.377a41.078,41.078,0,0,0,19.211-10.885,21.269,21.269,0,0,1,4.926-3.668v30.465a3.352,3.352,0,0,0,6.7,0V119.283c.005-.1,0-.207,0-.313V104.922c1.135.093,2.275.143,3.414.143q1.648,0,3.291-.132v49.945a3.352,3.352,0,0,0,6.7,0V137.757a21.285,21.285,0,0,1,5.051,3.735,41.06,41.06,0,0,0,22.571,11.562,3.464,3.464,0,0,0,.542.043,3.353,3.353,0,0,0,.534-6.662ZM85.821,133.488a21.571,21.571,0,0,1-3.352-.263V56.4q1.674.136,3.352.137t3.352-.137v76.828A21.545,21.545,0,0,1,85.821,133.488Zm29.268-54.751A41.155,41.155,0,0,0,95.878,67.87V55.3a41.14,41.14,0,0,0,19.211-10.87,21.27,21.27,0,0,1,4.926-3.668V82.407A21.216,21.216,0,0,1,115.089,78.737ZM66.035,34.948a27.788,27.788,0,0,0,19.785,8.184h0a27.794,27.794,0,0,0,19.785-8.183,34.4,34.4,0,0,1,14.407-8.644v7.088a28,28,0,0,0-9.667,6.3,34.725,34.725,0,0,1-49.053,0,27.984,27.984,0,0,0-9.779-6.342V26.27A34.421,34.421,0,0,1,66.035,34.948Zm-9.481,43.79a21.266,21.266,0,0,1-5.038,3.731V40.7a21.326,21.326,0,0,1,5.038,3.73A41.128,41.128,0,0,0,75.765,55.3V67.868A41.082,41.082,0,0,0,56.555,78.739ZM70.776,92.961a21.276,21.276,0,0,1,4.989-3.7v41.72a21.307,21.307,0,0,1-4.989-3.711,41.069,41.069,0,0,0-19.259-10.882V103.845A41.138,41.138,0,0,0,70.776,92.961Zm39.572,43.789a34.724,34.724,0,0,1-49.053,0,27.975,27.975,0,0,0-9.778-6.341V123.33a34.424,34.424,0,0,1,14.519,8.678,28.009,28.009,0,0,0,39.572,0,34.443,34.443,0,0,1,14.407-8.644v7.088A28.015,28.015,0,0,0,110.348,136.75Zm9.667-20.335a41.081,41.081,0,0,0-19.148,10.853,21.313,21.313,0,0,1-4.989,3.712V89.261a21.316,21.316,0,0,1,4.989,3.7,41.115,41.115,0,0,0,19.148,10.855Zm0,0" transform="translate(0)"/>
    </g>
  </g>
</svg>
