<svg xmlns="http://www.w3.org/2000/svg" xmlns:xlink="http://www.w3.org/1999/xlink" width="388" height="225.284" viewBox="0 0 388 225.284">
  <defs>
    <clipPath id="clip-path">
      <rect id="Rect치ngulo_26595" data-name="Rect치ngulo 26595" width="356.373" height="225.284" fill="none"/>
    </clipPath>
  </defs>
  <g id="img3" transform="translate(-211 -1500.769)">
    <rect id="Rect치ngulo_26596" data-name="Rect치ngulo 26596" width="388" height="169" rx="18" transform="translate(211 1537)" fill="#fff5fa"/>
    <g id="Grupo_90190" data-name="Grupo 90190" transform="translate(233 1500.769)">
      <g id="Grupo_90189" data-name="Grupo 90189" transform="translate(0 0)" clip-path="url(#clip-path)">
        <path id="Trazado_154091" data-name="Trazado 154091" d="M107.854,185.383s16.9-9.886,43.826-28.022C173.181,142.877,246,99.49,274.5,82.616c11.561-6.843,8.271-17.225-11.627-28.829C242.259,41.767,171.642,1.1,171.642,1.1S70.276,60.966,54.063,70.123C37.929,79.234,12.143,89.39,5.534,99.974c-10.9,17.453,102.32,85.409,102.32,85.409" transform="translate(8.865 2.04)" fill="#fc6460"/>
        <path id="Trazado_154092" data-name="Trazado 154092" d="M166.263,2.79c-46.968,25.435-150.741,89-157.311,95.531s-19.3,14.122,6.792,31.076,64.9,39.86,85.9,52.512,26.213-5.752,17.524-16.27S16.929,100.874,16.929,100.874l42.344-23L180.508,1.593s-7.738-2.328-14.245,1.2" transform="translate(-0.001 1.551)" fill="#f44a4a"/>
        <path id="Trazado_154093" data-name="Trazado 154093" d="M13.816,39.273c14.612,9.145,53.877,33.6,67.309,40.72,16.632,8.82,27.6,16.587,27.6,23.675s-6.094,6.145-13.02,2.877S7.5,50.076,4.508,46.757s-1-7.154,7.98,0C18.574,51.606,54.348,75.4,78,89.688,89.219,96.465,98.553,102.9,99.131,100.83c.53-1.909-.251-3.561-8.245-8.692-23.034-14.786-66.406-40.2-77.027-48.7-5.706-4.567-3.524-6.342-.043-4.162" transform="translate(5.939 70.898)" fill="#e83838"/>
        <path id="Trazado_154094" data-name="Trazado 154094" d="M21.217,61.734A13.7,13.7,0,0,1,27.254,52c8.461-5.49,14.635-9.422,22.661-14.168,1.165-.689,1.926-4.359,1.926-4.359s22.678-13.6,34.225-16.119c5.877-1.282,8.322-.8,10.5,1.071l.011-.006L306.933,138.681l-67.976,51.711,0-1.476Z" transform="translate(39.229 30.757)" fill="#739cdd"/>
        <path id="Trazado_154095" data-name="Trazado 154095" d="M25.437,43c-3.313-1.812-4.741-6.14-4.131-10.538L239.049,159.648l0,1.476-3.236,2.461Z" transform="translate(39.14 60.025)" fill="#6389d3"/>
        <path id="Trazado_154096" data-name="Trazado 154096" d="M166.337,81.186c9.829-5.231,11.327-28.541-6.615-20.005C139.46,70.818,121.657,81.419,101.646,94.4c-11.233,7.285-6.724,27.763,8.45,19.1,17.532-10.008,56.241-32.319,56.241-32.319" transform="translate(176.356 109.679)" fill="#6389d3"/>
        <path id="Trazado_154097" data-name="Trazado 154097" d="M290.049,127.752s-1.65-3.82-21.233,6.946-41.883,30.6-41.883,30.6S124.578,97.1,98.342,78.183,30.349,24.537,30.349,24.537l4.6-1.991s67.338,53.364,92.708,70.13,98.412,65.609,98.412,65.609,38.042-25.726,44.994-29.02c14.262-6.752,18.983-1.513,18.983-1.513" transform="translate(56.114 41.685)" fill="#6389d3"/>
        <path id="Trazado_154098" data-name="Trazado 154098" d="M160.494,59.479s8.98,4.923,3.9,14.47-26.666,17.675-41.806,25.193-23.367,12.752-25.327,7.818a6.723,6.723,0,0,1,2.105-7.883s-2.5,6.49,2.3,6.111c4.524-.356,21.609-10.647,29.661-13.581s29.336-15.453,30.931-19.78c1.869-5.068-.3-8.969-6.4-10.165s4.641-2.182,4.641-2.182" transform="translate(178.851 109.973)" fill="#4e7cc6"/>
        <path id="Trazado_154099" data-name="Trazado 154099" d="M23.493,45.1a13.7,13.7,0,0,1,6.037-9.735c8.461-5.49,14.635-9.422,22.661-14.168,1.165-.689,1.926-4.359,1.926-4.359S76.794,3.236,88.341.718c5.877-1.282,8.322-.8,10.5,1.071l.011-.006,210.359,120.26-67.976,51.714,0-1.476Z" transform="translate(43.438 -0.001)" fill="#ffc255"/>
        <path id="Trazado_154100" data-name="Trazado 154100" d="M27.713,26.368c-3.313-1.812-4.741-6.14-4.131-10.538L241.325,143.013l0,1.476-3.236,2.461Z" transform="translate(43.348 29.268)" fill="#fcaa47"/>
        <path id="Trazado_154101" data-name="Trazado 154101" d="M168.613,64.551C178.442,59.32,179.941,36.01,162,44.545c-20.262,9.638-38.065,20.239-58.076,33.222-11.233,7.288-6.724,27.763,8.45,19.1,17.532-10.008,56.241-32.319,56.241-32.319" transform="translate(180.564 78.922)" fill="#fcaa47"/>
        <path id="Trazado_154102" data-name="Trazado 154102" d="M292.325,111.116s-1.647-3.82-21.23,6.946-41.885,30.6-41.885,30.6-102.352-68.2-128.591-87.113S32.625,7.9,32.625,7.9L37.232,5.91s67.335,53.364,92.705,70.13,98.414,65.609,98.414,65.609,38.036-25.723,44.994-29.02c14.259-6.752,18.98-1.513,18.98-1.513" transform="translate(60.322 10.926)" fill="#fcaa47"/>
        <path id="Trazado_154103" data-name="Trazado 154103" d="M162.77,42.843s8.98,4.923,3.9,14.47-26.666,17.675-41.806,25.193S101.5,95.258,99.54,90.324a6.723,6.723,0,0,1,2.105-7.883s-2.5,6.49,2.3,6.111c4.524-.356,21.609-10.647,29.661-13.581s29.336-15.453,30.931-19.78c1.869-5.068-.3-8.966-6.4-10.165s4.641-2.182,4.641-2.182" transform="translate(183.06 79.214)" fill="#ed9637"/>
      </g>
    </g>
  </g>
</svg>
