<svg xmlns="http://www.w3.org/2000/svg" width="214.516" height="133.603" viewBox="0 0 214.516 133.603">
  <g id="img2" transform="translate(-225 -1653.351)">
    <g id="caja" transform="translate(208.968 1672.86)">
      <path id="Trazado_156670" data-name="Trazado 156670" d="M73.782,9.626,24.542,33.4a1.786,1.786,0,0,0-1.01,1.609V93.5a1.787,1.787,0,0,0,1.01,1.609l49.24,23.771a3.572,3.572,0,0,0,3.106,0l49.24-23.771a1.786,1.786,0,0,0,1.01-1.609V35.005a1.787,1.787,0,0,0-1.01-1.609L76.888,9.626A3.572,3.572,0,0,0,73.782,9.626Z" transform="translate(-5.829 -7.204)" fill="#c2fcfa"/>
      <path id="Trazado_156671" data-name="Trazado 156671" d="M23.829,120.368a1.778,1.778,0,0,0-.3.978v58.492a1.786,1.786,0,0,0,1.01,1.609l49.24,23.771a3.571,3.571,0,0,0,1.553.355v-60.34Z" transform="translate(-5.829 -93.545)" fill="#9afaf8"/>
      <path id="Trazado_156672" data-name="Trazado 156672" d="M307.506,120.368a1.779,1.779,0,0,1,.3.978v58.492a1.786,1.786,0,0,1-1.01,1.609l-49.24,23.771a3.572,3.572,0,0,1-1.553.355v-60.34Z" transform="translate(-186.494 -93.545)" fill="#0ac4bf"/>
      <path id="Trazado_156673" data-name="Trazado 156673" d="M181.029,70.969,129.343,46l-13.625,6.6,51.8,25.008Z" transform="translate(-77.472 -35.749)" fill="#bf3976"/>
      <path id="Trazado_156674" data-name="Trazado 156674" d="M348.185,164.7v19.374a.893.893,0,0,0,1.282.8l11.218-5.415a1.786,1.786,0,0,0,1.01-1.609v-19.8Z" transform="translate(-258.137 -122.832)" fill="#bf3976"/>
      <path id="Trazado_156675" data-name="Trazado 156675" d="M122.035,25.174,70.233.167a1.672,1.672,0,0,0-1.453,0l-51.8,25.008a1.671,1.671,0,0,0-.945,1.505V87.414a1.671,1.671,0,0,0,.945,1.505l51.8,25.008a1.671,1.671,0,0,0,1.453,0l51.8-25.008a1.671,1.671,0,0,0,.945-1.505V26.68A1.672,1.672,0,0,0,122.035,25.174ZM69.506,3.527,117.465,26.68l-13.9,6.711a1.657,1.657,0,0,0-.283-.178L55.647,10.218Zm-17.634,8.58L99.761,35.226l-9.808,4.735L42.084,16.852ZM91.72,42.82l9.162-4.423V55.9L91.72,60.323ZM71.177,109.759V52.737l11.559-5.58a1.671,1.671,0,1,0-1.453-3.01L69.506,49.832l-4.634-2.237a1.671,1.671,0,1,0-1.453,3.01l4.416,2.132v57.022L19.375,86.365V29.342l36.9,17.815a1.671,1.671,0,0,0,1.453-3.01L21.547,26.679l16.6-8.015L88.354,42.9l.023.029V62.986a1.671,1.671,0,0,0,2.4,1.505l12.5-6.036a1.671,1.671,0,0,0,.945-1.505V36.784l15.413-7.441V86.365Z"/>
      <path id="Trazado_156676" data-name="Trazado 156676" d="M58.049,345.1l-7.6-3.67a1.671,1.671,0,0,0-1.453,3.01l7.6,3.67a1.671,1.671,0,0,0,1.453-3.01Z" transform="translate(-24.882 -265.216)"/>
      <path id="Trazado_156677" data-name="Trazado 156677" d="M65.082,312.9l-14.588-7.043a1.671,1.671,0,1,0-1.453,3.01l14.588,7.043a1.671,1.671,0,0,0,1.453-3.01Z" transform="translate(-24.919 -237.57)"/>
    </g>
    <g id="moda" transform="translate(344.726 1653.349)">
      <g id="Grupo_91198" data-name="Grupo 91198" transform="translate(0 0.002)">
        <g id="Grupo_91197" data-name="Grupo 91197">
          <path id="Trazado_156678" data-name="Trazado 156678" d="M94.342,34.085,79.054,18.8a1.529,1.529,0,0,0-.807-.422L61.429,15.317a1.529,1.529,0,0,0-1.778,1.231,1.514,1.514,0,0,0-.025.272,9.077,9.077,0,0,1-.13,1.449L48.924,15.627v-.489a7.644,7.644,0,1,0-9.173-7.491h3.058A4.587,4.587,0,1,1,47.4,12.233a1.529,1.529,0,0,0-1.529,1.529v1.864L35.295,18.269a9.076,9.076,0,0,1-.13-1.449,1.529,1.529,0,0,0-.549-1.174,1.493,1.493,0,0,0-1.254-.329L16.545,18.374a1.529,1.529,0,0,0-.807.422L.449,34.085a1.529,1.529,0,0,0,0,2.162L12.68,48.478a1.529,1.529,0,0,0,2.162,0l3.506-3.506V55.041H7.645A7.621,7.621,0,0,0,3.106,68.8a7.574,7.574,0,0,0,0,12.231,7.621,7.621,0,0,0,4.539,13.76H62.684a1.529,1.529,0,0,0,1.081-.448L76,82.113a1.514,1.514,0,0,0,.434-1.081h.014V44.972l3.506,3.506a1.529,1.529,0,0,0,2.162,0L94.342,36.247A1.529,1.529,0,0,0,94.342,34.085ZM47.4,18.394l11.118,2.779A12.474,12.474,0,0,1,47.4,27.33a12.474,12.474,0,0,1-11.118-6.157ZM3.059,62.685A4.587,4.587,0,0,1,7.645,58.1H41.28a4.587,4.587,0,0,1,0,9.173H7.645A4.587,4.587,0,0,1,3.059,62.685Zm0,12.231A4.587,4.587,0,0,1,7.645,70.33H41.28a4.587,4.587,0,0,1,0,9.173H7.645A4.587,4.587,0,0,1,3.059,74.916ZM41.28,91.734H7.645a4.587,4.587,0,1,1,0-9.173H41.28a4.587,4.587,0,1,1,0,9.173Zm22.933-2.162V82.561h7.011ZM81.031,45.235l-9.621-9.621-2.162,2.162,4.139,4.139V79.5h-10.7a1.529,1.529,0,0,0-1.529,1.529v10.7h-13.8a7.541,7.541,0,0,0-1.361-10.576q-.083-.064-.168-.126a7.574,7.574,0,0,0,0-12.231,7.621,7.621,0,0,0-4.547-13.76H21.4V41.914l4.139-4.139-2.162-2.162-9.621,9.621L3.691,35.166,17.561,21.3l14.677-2.668c1,6.629,7.415,11.76,15.154,11.76s14.154-5.131,15.154-11.76L77.224,21.3,91.1,35.166Z" transform="translate(0 -0.002)"/>
          <rect id="Rectángulo_27123" data-name="Rectángulo 27123" width="36.782" height="3.003" transform="translate(6.211 61.011)"/>
          <rect id="Rectángulo_27124" data-name="Rectángulo 27124" width="35.281" height="3.753" transform="translate(6.211 73.022)"/>
          <rect id="Rectángulo_27125" data-name="Rectángulo 27125" width="35.281" height="3.003" transform="translate(6.211 85.783)"/>
        </g>
      </g>
    </g>
  </g>
</svg>
