<svg xmlns="http://www.w3.org/2000/svg" width="907" height="412" viewBox="0 0 907 412">
  <g id="img3" transform="translate(-13175 9274)">
    <rect id="Rectángulo_27143" data-name="Rectángulo 27143" width="229" height="143" transform="translate(13175 -9143)" fill="#bf3976"/>
    <text id="Proceso_de_corte_manual" data-name="Proceso de corte manual" transform="translate(13216 -9101)" fill="#fff" font-size="22" font-family="Roboto-Bold, Roboto" font-weight="700"><tspan x="0" y="23">Proceso de </tspan><tspan x="0" y="48">corte manual</tspan></text>
    <rect id="Rectángulo_27144" data-name="Rectángulo 27144" width="208" height="85" transform="translate(13289 -9274)" fill="#65ccc9"/>
    <text id="Programación" transform="translate(13336 -9225)" fill="#fff" font-size="19" font-family="Roboto-Bold, Roboto" font-weight="700"><tspan x="0" y="0">Programación</tspan></text>
    <rect id="Rectángulo_27145" data-name="Rectángulo 27145" width="219" height="85" transform="translate(13576 -9274)" fill="#65ccc9"/>
    <text id="Bodega_inventario_en_proceso" data-name="Bodega 
inventario en proceso" transform="translate(13592 -9237)" fill="#fff" font-size="19" font-family="Roboto-Bold, Roboto" font-weight="700"><tspan x="0" y="0">Bodega </tspan><tspan x="0" y="25">inventario en proceso</tspan></text>
    <rect id="Rectángulo_27146" data-name="Rectángulo 27146" width="208" height="85" transform="translate(13869 -9274)" fill="#65ccc9"/>
    <text id="Extendido_manual" data-name="Extendido
manual" transform="translate(13885 -9237)" fill="#fff" font-size="19" font-family="Roboto-Bold, Roboto" font-weight="700"><tspan x="0" y="0">Extendido</tspan><tspan x="0" y="25">manual</tspan></text>
    <rect id="Rectángulo_27147" data-name="Rectángulo 27147" width="208" height="85" transform="translate(13874 -9121)" fill="#65ccc9"/>
    <text id="Corte_maquina_vertical" data-name="Corte maquina
vertical" transform="translate(13890 -9084)" fill="#fff" font-size="19" font-family="Roboto-Bold, Roboto" font-weight="700"><tspan x="0" y="0">Corte maquina</tspan><tspan x="0" y="25">vertical</tspan></text>
    <rect id="Rectángulo_27148" data-name="Rectángulo 27148" width="208" height="85" transform="translate(13874 -8947)" fill="#65ccc9"/>
    <text id="Loteo" transform="translate(13890 -8898)" fill="#fff" font-size="19" font-family="Roboto-Bold, Roboto" font-weight="700"><tspan x="0" y="0">Loteo</tspan></text>
    <rect id="Rectángulo_27149" data-name="Rectángulo 27149" width="163" height="85" transform="translate(13629 -8947)" fill="#65ccc9"/>
    <text id="Pagar_tiquetes" data-name="Pagar tiquetes" transform="translate(13645 -8898)" fill="#fff" font-size="19" font-family="Roboto-Bold, Roboto" font-weight="700"><tspan x="0" y="0">Pagar tiquetes</tspan></text>
    <rect id="Rectángulo_27150" data-name="Rectángulo 27150" width="104" height="85" transform="translate(13445 -8947)" fill="#65ccc9"/>
    <text id="Amarre" transform="translate(13461 -8898)" fill="#fff" font-size="19" font-family="Roboto-Bold, Roboto" font-weight="700"><tspan x="0" y="0">Amarre</tspan></text>
    <rect id="Rectángulo_27151" data-name="Rectángulo 27151" width="104" height="85" transform="translate(13266 -8947)" fill="#65ccc9"/>
    <text id="Envio_al_C.I" data-name="Envio al 
C.I" transform="translate(13282 -8910)" fill="#fff" font-size="19" font-family="Roboto-Bold, Roboto" font-weight="700"><tspan x="0" y="0">Envio al </tspan><tspan x="0" y="25">C.I</tspan></text>
    <path id="Unión_8" data-name="Unión 8" d="M-11401,11723h-38v-14h38v-9l28,16-28,16Z" transform="translate(24936 -20945)" fill="#0ac4bf"/>
    <path id="Unión_9" data-name="Unión 9" d="M-11401,11723h-38v-14h38v-9l28,16-28,16Z" transform="translate(25234 -20945)" fill="#0ac4bf"/>
    <path id="Unión_10" data-name="Unión 10" d="M-11401,11723h-38v-14h38v-9l28,16-28,16Z" transform="translate(25694 2250) rotate(90)" fill="#0ac4bf"/>
    <path id="Unión_11" data-name="Unión 11" d="M-11401,11723h-38v-14h38v-9l28,16-28,16Z" transform="translate(25694 2403) rotate(90)" fill="#0ac4bf"/>
    <path id="Unión_12" data-name="Unión 12" d="M-11401,11723h-38v-14h38v-9l28,16-28,16Z" transform="translate(2435 2811.001) rotate(180)" fill="#0ac4bf"/>
    <path id="Unión_13" data-name="Unión 13" d="M-11401,11723h-38v-14h38v-9l28,16-28,16Z" transform="translate(2190 2811.001) rotate(180)" fill="#0ac4bf"/>
    <path id="Unión_14" data-name="Unión 14" d="M-11401,11723h-38v-14h38v-9l28,16-28,16Z" transform="translate(2006 2811.001) rotate(180)" fill="#0ac4bf"/>
  </g>
</svg>
