<svg xmlns="http://www.w3.org/2000/svg" width="907" height="412" viewBox="0 0 907 412">
  <g id="img3" transform="translate(-303 -2426)">
    <g id="Grupo_91200" data-name="Grupo 91200">
      <path id="Trazado_156681" data-name="Trazado 156681" d="M0,0H229V143H0Z" transform="translate(303 2557)" fill="#bf3976"/>
      <path id="Trazado_156683" data-name="Trazado 156683" d="M4.619,14.489V20H1.4V4.359H7.5A7.059,7.059,0,0,1,10.6,5a4.75,4.75,0,0,1,2.057,1.832,5.107,5.107,0,0,1,.72,2.7A4.491,4.491,0,0,1,11.8,13.163a6.555,6.555,0,0,1-4.356,1.327Zm0-2.61H7.5a2.831,2.831,0,0,0,1.95-.6,2.188,2.188,0,0,0,.671-1.719A2.58,2.58,0,0,0,9.442,7.7a2.528,2.528,0,0,0-1.869-.73H4.619Zm17.295-.591A8.434,8.434,0,0,0,20.8,11.2a2.274,2.274,0,0,0-2.31,1.192V20h-3.1V8.377h2.933L18.4,9.763a2.877,2.877,0,0,1,2.589-1.6,3.253,3.253,0,0,1,.967.14Zm.623,2.793A6.893,6.893,0,0,1,23.2,11,4.876,4.876,0,0,1,25.121,8.9a5.594,5.594,0,0,1,2.906-.741A5.293,5.293,0,0,1,31.867,9.6a5.777,5.777,0,0,1,1.66,3.91l.021.795A6.075,6.075,0,0,1,32.055,18.6a5.19,5.19,0,0,1-4.007,1.617A5.216,5.216,0,0,1,24.036,18.6a6.182,6.182,0,0,1-1.5-4.383Zm3.1.226a4.333,4.333,0,0,0,.623,2.53,2.24,2.24,0,0,0,3.545.011,4.741,4.741,0,0,0,.634-2.766,4.29,4.29,0,0,0-.634-2.514,2.061,2.061,0,0,0-1.783-.892,2.028,2.028,0,0,0-1.762.886A4.821,4.821,0,0,0,25.642,14.307Zm14.652,3.405a2.036,2.036,0,0,0,1.4-.473,1.656,1.656,0,0,0,.559-1.257H45.16a3.982,3.982,0,0,1-.645,2.165,4.253,4.253,0,0,1-1.735,1.525,5.43,5.43,0,0,1-2.433.542,5.046,5.046,0,0,1-3.932-1.584,6.27,6.27,0,0,1-1.439-4.377v-.2a6.2,6.2,0,0,1,1.429-4.286,4.987,4.987,0,0,1,3.921-1.6,4.889,4.889,0,0,1,3.5,1.241,4.393,4.393,0,0,1,1.337,3.3H42.249a2.116,2.116,0,0,0-.559-1.466,2.081,2.081,0,0,0-3.056.226,4.57,4.57,0,0,0-.553,2.562v.322a4.628,4.628,0,0,0,.548,2.578A1.894,1.894,0,0,0,40.294,17.712Zm11.988,2.5a5.706,5.706,0,0,1-4.163-1.568,5.575,5.575,0,0,1-1.606-4.179v-.3a7.021,7.021,0,0,1,.677-3.131,4.967,4.967,0,0,1,1.917-2.127,5.382,5.382,0,0,1,2.831-.747,4.824,4.824,0,0,1,3.754,1.5,6.111,6.111,0,0,1,1.37,4.265V15.2h-7.4a2.884,2.884,0,0,0,.908,1.826,2.744,2.744,0,0,0,1.917.688,3.351,3.351,0,0,0,2.8-1.3l1.525,1.708a4.66,4.66,0,0,1-1.891,1.542A6.2,6.2,0,0,1,52.282,20.215Zm-.354-9.539a1.944,1.944,0,0,0-1.5.623,3.219,3.219,0,0,0-.736,1.783h4.318v-.247a2.3,2.3,0,0,0-.559-1.6A2.006,2.006,0,0,0,51.928,10.676Zm13.191,6.112a1,1,0,0,0-.564-.9,6.406,6.406,0,0,0-1.81-.585q-4.146-.87-4.146-3.523A3.194,3.194,0,0,1,59.882,9.2a5.178,5.178,0,0,1,3.357-1.037A5.573,5.573,0,0,1,66.779,9.2a3.284,3.284,0,0,1,1.327,2.707H65a1.5,1.5,0,0,0-.43-1.1,1.818,1.818,0,0,0-1.343-.435,1.858,1.858,0,0,0-1.214.354,1.119,1.119,0,0,0-.43.9.957.957,0,0,0,.489.833,5.028,5.028,0,0,0,1.649.548,13.468,13.468,0,0,1,1.955.521,3.212,3.212,0,0,1,2.46,3.126,3.032,3.032,0,0,1-1.364,2.573,5.885,5.885,0,0,1-3.523.983,6.147,6.147,0,0,1-2.594-.521,4.353,4.353,0,0,1-1.778-1.429,3.32,3.32,0,0,1-.645-1.96h2.943a1.621,1.621,0,0,0,.612,1.268,2.429,2.429,0,0,0,1.525.44,2.248,2.248,0,0,0,1.348-.338A1.053,1.053,0,0,0,65.119,16.788Zm4.533-2.707A6.893,6.893,0,0,1,70.318,11,4.876,4.876,0,0,1,72.236,8.9a5.594,5.594,0,0,1,2.906-.741A5.293,5.293,0,0,1,78.982,9.6a5.777,5.777,0,0,1,1.66,3.91l.021.795A6.075,6.075,0,0,1,79.17,18.6a5.787,5.787,0,0,1-8.019.005,6.182,6.182,0,0,1-1.5-4.383Zm3.1.226a4.333,4.333,0,0,0,.623,2.53,2.24,2.24,0,0,0,3.545.011,4.741,4.741,0,0,0,.634-2.766,4.29,4.29,0,0,0-.634-2.514,2.061,2.061,0,0,0-1.783-.892,2.028,2.028,0,0,0-1.762.886A4.821,4.821,0,0,0,72.757,14.307Zm14.813-.2A7,7,0,0,1,88.79,9.773a3.956,3.956,0,0,1,3.335-1.611,3.56,3.56,0,0,1,2.8,1.268V3.5h3.115V20h-2.8l-.15-1.235a3.653,3.653,0,0,1-2.986,1.45A3.945,3.945,0,0,1,88.811,18.6,7.23,7.23,0,0,1,87.57,14.1Zm3.1.226a4.576,4.576,0,0,0,.569,2.5,1.855,1.855,0,0,0,1.654.87,2.078,2.078,0,0,0,2.03-1.214V11.9a2.048,2.048,0,0,0-2.009-1.214Q90.675,10.687,90.675,14.328ZM105.8,20.215a5.706,5.706,0,0,1-4.163-1.568,5.575,5.575,0,0,1-1.606-4.179v-.3a7.021,7.021,0,0,1,.677-3.131,4.967,4.967,0,0,1,1.917-2.127,5.382,5.382,0,0,1,2.831-.747,4.824,4.824,0,0,1,3.754,1.5,6.111,6.111,0,0,1,1.37,4.265V15.2h-7.4a2.884,2.884,0,0,0,.908,1.826,2.744,2.744,0,0,0,1.917.688,3.351,3.351,0,0,0,2.8-1.3l1.525,1.708a4.66,4.66,0,0,1-1.891,1.542A6.2,6.2,0,0,1,105.8,20.215Zm-.354-9.539a1.944,1.944,0,0,0-1.5.623,3.219,3.219,0,0,0-.736,1.783h4.318v-.247a2.3,2.3,0,0,0-.559-1.6A2.006,2.006,0,0,0,105.445,10.676ZM13.675,39.79a5.535,5.535,0,0,1-1.864,3.975,6.546,6.546,0,0,1-4.431,1.45A5.886,5.886,0,0,1,2.648,43.19,8.3,8.3,0,0,1,.924,37.631v-.956A9.376,9.376,0,0,1,1.719,32.7a5.957,5.957,0,0,1,2.272-2.637,6.364,6.364,0,0,1,3.432-.918,6.376,6.376,0,0,1,4.361,1.45A5.948,5.948,0,0,1,13.7,34.666H10.474a3.266,3.266,0,0,0-.843-2.2,3.123,3.123,0,0,0-2.208-.682,2.738,2.738,0,0,0-2.412,1.155,6.472,6.472,0,0,0-.822,3.583v1.182a6.927,6.927,0,0,0,.768,3.706A2.687,2.687,0,0,0,7.38,42.583,3.182,3.182,0,0,0,9.609,41.9a3.081,3.081,0,0,0,.843-2.111Zm1.429-.709A6.893,6.893,0,0,1,15.77,36,4.876,4.876,0,0,1,17.687,33.9a5.594,5.594,0,0,1,2.906-.741,5.293,5.293,0,0,1,3.84,1.439,5.777,5.777,0,0,1,1.66,3.91l.021.795A6.075,6.075,0,0,1,24.621,43.6a5.19,5.19,0,0,1-4.007,1.617A5.216,5.216,0,0,1,16.6,43.6a6.182,6.182,0,0,1-1.5-4.383Zm3.1.226a4.333,4.333,0,0,0,.623,2.53,2.24,2.24,0,0,0,3.545.011,4.741,4.741,0,0,0,.634-2.766,4.29,4.29,0,0,0-.634-2.514,2.061,2.061,0,0,0-1.783-.892,2.028,2.028,0,0,0-1.762.886A4.821,4.821,0,0,0,18.208,39.307Zm16.35-3.019A8.434,8.434,0,0,0,33.44,36.2a2.274,2.274,0,0,0-2.31,1.192V45h-3.1V33.377h2.933l.086,1.386a2.877,2.877,0,0,1,2.589-1.6,3.253,3.253,0,0,1,.967.14ZM40.3,30.52v2.857h1.987v2.277H40.3v5.8a1.385,1.385,0,0,0,.247.924,1.241,1.241,0,0,0,.945.279,4.951,4.951,0,0,0,.913-.075v2.353a6.391,6.391,0,0,1-1.88.279q-3.266,0-3.33-3.3V35.654H35.5V33.377h1.7V30.52Zm9.066,14.7a5.706,5.706,0,0,1-4.163-1.568A5.575,5.575,0,0,1,43.6,39.468v-.3a7.021,7.021,0,0,1,.677-3.131A4.967,4.967,0,0,1,46.2,33.909a5.382,5.382,0,0,1,2.831-.747,4.824,4.824,0,0,1,3.754,1.5,6.111,6.111,0,0,1,1.37,4.265V40.2h-7.4a2.884,2.884,0,0,0,.908,1.826,2.744,2.744,0,0,0,1.917.688,3.351,3.351,0,0,0,2.8-1.3L53.9,43.12a4.66,4.66,0,0,1-1.891,1.542A6.2,6.2,0,0,1,49.371,45.215Zm-.354-9.539a1.944,1.944,0,0,0-1.5.623,3.219,3.219,0,0,0-.736,1.783H51.1v-.247a2.3,2.3,0,0,0-.559-1.6A2.006,2.006,0,0,0,49.017,35.676Zm16.79-6.316L69.824,40.7l4-11.344h4.232V45H74.819V40.725l.322-7.38L70.92,45H68.707L64.5,33.355l.322,7.369V45H61.6V29.359ZM87.4,45a3.448,3.448,0,0,1-.312-1.042,3.756,3.756,0,0,1-2.933,1.257,4.127,4.127,0,0,1-2.831-.988A3.178,3.178,0,0,1,80.2,41.734a3.285,3.285,0,0,1,1.37-2.836,6.758,6.758,0,0,1,3.958-1h1.429v-.666a1.915,1.915,0,0,0-.414-1.289,1.627,1.627,0,0,0-1.305-.483,1.85,1.85,0,0,0-1.23.376,1.277,1.277,0,0,0-.446,1.031h-3.1A3.118,3.118,0,0,1,81.082,35a4.118,4.118,0,0,1,1.762-1.348,6.42,6.42,0,0,1,2.557-.489,5.073,5.073,0,0,1,3.411,1.08,3.777,3.777,0,0,1,1.262,3.035v5.038a5.557,5.557,0,0,0,.462,2.5V45Zm-2.567-2.159a2.674,2.674,0,0,0,1.268-.306,2.011,2.011,0,0,0,.859-.822v-2H85.8q-2.331,0-2.481,1.611l-.011.183a1.243,1.243,0,0,0,.408.956A1.586,1.586,0,0,0,84.831,42.841Zm10.484-9.464.1,1.343a4.058,4.058,0,0,1,3.341-1.558,3.372,3.372,0,0,1,2.75,1.085,5.062,5.062,0,0,1,.924,3.244V45h-3.1V37.566a2.014,2.014,0,0,0-.43-1.434,1.924,1.924,0,0,0-1.429-.446A2.136,2.136,0,0,0,95.5,36.8V45h-3.1V33.377ZM111.74,43.818a3.893,3.893,0,0,1-3.18,1.4,3.672,3.672,0,0,1-2.852-1.074,4.586,4.586,0,0,1-1-3.147V33.377h3.1v7.509q0,1.815,1.654,1.815a2.242,2.242,0,0,0,2.17-1.1V33.377h3.115V45h-2.922ZM123.825,45a3.448,3.448,0,0,1-.312-1.042,3.756,3.756,0,0,1-2.933,1.257,4.127,4.127,0,0,1-2.831-.988,3.178,3.178,0,0,1-1.123-2.492A3.285,3.285,0,0,1,118,38.9a6.758,6.758,0,0,1,3.958-1h1.429v-.666a1.915,1.915,0,0,0-.414-1.289,1.627,1.627,0,0,0-1.305-.483,1.85,1.85,0,0,0-1.23.376,1.277,1.277,0,0,0-.446,1.031h-3.1A3.118,3.118,0,0,1,117.509,35a4.118,4.118,0,0,1,1.762-1.348,6.42,6.42,0,0,1,2.557-.489,5.073,5.073,0,0,1,3.411,1.08,3.777,3.777,0,0,1,1.262,3.035v5.038a5.557,5.557,0,0,0,.462,2.5V45Zm-2.567-2.159a2.674,2.674,0,0,0,1.268-.306,2.011,2.011,0,0,0,.859-.822v-2h-1.16q-2.331,0-2.481,1.611l-.011.183a1.243,1.243,0,0,0,.408.956A1.586,1.586,0,0,0,121.258,42.841ZM132.161,45h-3.115V28.5h3.115Z" transform="translate(344 2599)" fill="#fff"/>
      <path id="Trazado_156679" data-name="Trazado 156679" d="M0,0H208V85H0Z" transform="translate(417 2426)" fill="#65ccc9"/>
      <path id="Trazado_156680" data-name="Trazado 156680" d="M3.989-4.759V0H1.206V-13.508h5.27a6.1,6.1,0,0,1,2.677.557,4.1,4.1,0,0,1,1.777,1.582,4.411,4.411,0,0,1,.622,2.333,3.878,3.878,0,0,1-1.359,3.131A5.661,5.661,0,0,1,6.429-4.759Zm0-2.254H6.476a2.445,2.445,0,0,0,1.684-.52,1.89,1.89,0,0,0,.58-1.484,2.228,2.228,0,0,0-.584-1.6,2.183,2.183,0,0,0-1.614-.631H3.989Zm14.937-.51a7.284,7.284,0,0,0-.965-.074,1.964,1.964,0,0,0-1.995,1.03V0H13.285V-10.038h2.533l.074,1.2a2.484,2.484,0,0,1,2.236-1.382,2.809,2.809,0,0,1,.835.121Zm.538,2.412a5.953,5.953,0,0,1,.575-2.663A4.211,4.211,0,0,1,21.7-9.583a4.831,4.831,0,0,1,2.51-.64A4.571,4.571,0,0,1,27.521-8.98,4.989,4.989,0,0,1,28.955-5.6l.019.687a5.247,5.247,0,0,1-1.29,3.706,4.482,4.482,0,0,1-3.46,1.4,4.5,4.5,0,0,1-3.465-1.392,5.339,5.339,0,0,1-1.294-3.785Zm2.681.195a3.742,3.742,0,0,0,.538,2.185,1.776,1.776,0,0,0,1.54.756,1.78,1.78,0,0,0,1.521-.747,4.1,4.1,0,0,0,.547-2.389,3.7,3.7,0,0,0-.547-2.171,1.78,1.78,0,0,0-1.54-.77,1.751,1.751,0,0,0-1.521.765A4.164,4.164,0,0,0,22.145-4.917Zm8.09-.176a5.883,5.883,0,0,1,1.1-3.72,3.562,3.562,0,0,1,2.964-1.41,3.124,3.124,0,0,1,2.57,1.132l.111-.946H39.41v9.7a4.29,4.29,0,0,1-.6,2.292,3.843,3.843,0,0,1-1.684,1.484,5.919,5.919,0,0,1-2.542.51,5.5,5.5,0,0,1-2.152-.441,3.82,3.82,0,0,1-1.586-1.136L32.035.742a3.141,3.141,0,0,0,2.431,1.123,2.3,2.3,0,0,0,1.661-.571A2.14,2.14,0,0,0,36.72-.325V-.863A3.1,3.1,0,0,1,34.28.186a3.553,3.553,0,0,1-2.927-1.415,5.881,5.881,0,0,1-1.118-3.753Zm2.681.195a3.653,3.653,0,0,0,.547,2.138,1.742,1.742,0,0,0,1.5.775A1.862,1.862,0,0,0,36.72-2.9V-7.125a1.858,1.858,0,0,0-1.735-.918,1.753,1.753,0,0,0-1.517.789A4.118,4.118,0,0,0,32.916-4.9ZM47.11-7.524a7.284,7.284,0,0,0-.965-.074,1.964,1.964,0,0,0-1.995,1.03V0H41.47V-10.038H44l.074,1.2a2.484,2.484,0,0,1,2.236-1.382,2.809,2.809,0,0,1,.835.121ZM53.938,0a2.977,2.977,0,0,1-.269-.9A3.244,3.244,0,0,1,51.137.186a3.564,3.564,0,0,1-2.445-.854,2.745,2.745,0,0,1-.969-2.152A2.837,2.837,0,0,1,48.906-5.27a5.837,5.837,0,0,1,3.419-.863h1.234v-.575A1.654,1.654,0,0,0,53.2-7.821a1.405,1.405,0,0,0-1.127-.417,1.6,1.6,0,0,0-1.062.325,1.1,1.1,0,0,0-.385.891H47.945a2.693,2.693,0,0,1,.538-1.614A3.557,3.557,0,0,1,50-9.8a5.545,5.545,0,0,1,2.208-.422,4.381,4.381,0,0,1,2.946.932,3.262,3.262,0,0,1,1.09,2.621v4.351a4.8,4.8,0,0,0,.4,2.162V0ZM51.721-1.865a2.309,2.309,0,0,0,1.095-.264,1.737,1.737,0,0,0,.742-.71V-4.564h-1q-2.013,0-2.143,1.392l-.009.158a1.073,1.073,0,0,0,.353.826A1.369,1.369,0,0,0,51.721-1.865Zm9.1-8.173.083,1.123a3.528,3.528,0,0,1,2.885-1.308,2.677,2.677,0,0,1,2.663,1.531,3.447,3.447,0,0,1,3.015-1.531,2.994,2.994,0,0,1,2.431.951,4.371,4.371,0,0,1,.8,2.862V0h-2.69V-6.4a1.911,1.911,0,0,0-.334-1.248,1.48,1.48,0,0,0-1.178-.394,1.673,1.673,0,0,0-1.67,1.15L66.834,0H64.153V-6.392a1.888,1.888,0,0,0-.343-1.262,1.5,1.5,0,0,0-1.169-.39,1.738,1.738,0,0,0-1.651.946V0H58.308V-10.038ZM80.574,0A2.977,2.977,0,0,1,80.3-.9,3.244,3.244,0,0,1,77.772.186a3.564,3.564,0,0,1-2.445-.854,2.745,2.745,0,0,1-.969-2.152A2.837,2.837,0,0,1,75.541-5.27a5.837,5.837,0,0,1,3.419-.863h1.234v-.575a1.654,1.654,0,0,0-.357-1.113,1.405,1.405,0,0,0-1.127-.417,1.6,1.6,0,0,0-1.062.325,1.1,1.1,0,0,0-.385.891H74.581a2.693,2.693,0,0,1,.538-1.614A3.557,3.557,0,0,1,76.64-9.8a5.545,5.545,0,0,1,2.208-.422,4.381,4.381,0,0,1,2.946.932,3.262,3.262,0,0,1,1.09,2.621v4.351a4.8,4.8,0,0,0,.4,2.162V0ZM78.356-1.865a2.309,2.309,0,0,0,1.095-.264,1.737,1.737,0,0,0,.742-.71V-4.564h-1q-2.013,0-2.143,1.392l-.009.158a1.073,1.073,0,0,0,.353.826A1.369,1.369,0,0,0,78.356-1.865Zm10.762-.111a1.759,1.759,0,0,0,1.206-.408,1.43,1.43,0,0,0,.482-1.085h2.514A3.439,3.439,0,0,1,92.764-1.6a3.673,3.673,0,0,1-1.5,1.317,4.689,4.689,0,0,1-2.1.469,4.358,4.358,0,0,1-3.4-1.368,5.415,5.415,0,0,1-1.243-3.781V-5.14a5.353,5.353,0,0,1,1.234-3.7,4.307,4.307,0,0,1,3.386-1.382,4.222,4.222,0,0,1,3.02,1.072A3.794,3.794,0,0,1,93.321-6.3H90.807a1.827,1.827,0,0,0-.482-1.266A1.613,1.613,0,0,0,89.1-8.053a1.616,1.616,0,0,0-1.415.682,3.947,3.947,0,0,0-.478,2.213v.278a4,4,0,0,0,.473,2.227A1.636,1.636,0,0,0,89.118-1.976ZM97.681,0h-2.69V-10.038h2.69ZM94.833-12.636a1.32,1.32,0,0,1,.4-.993,1.516,1.516,0,0,1,1.1-.39,1.52,1.52,0,0,1,1.095.39,1.313,1.313,0,0,1,.408.993,1.316,1.316,0,0,1-.413,1,1.523,1.523,0,0,1-1.09.39,1.523,1.523,0,0,1-1.09-.39A1.316,1.316,0,0,1,94.833-12.636Zm4.639,7.524a5.953,5.953,0,0,1,.575-2.663A4.211,4.211,0,0,1,101.7-9.583a4.831,4.831,0,0,1,2.51-.64,4.571,4.571,0,0,1,3.317,1.243A4.989,4.989,0,0,1,108.962-5.6l.019.687a5.247,5.247,0,0,1-1.29,3.706,4.482,4.482,0,0,1-3.46,1.4,4.5,4.5,0,0,1-3.465-1.392,5.339,5.339,0,0,1-1.294-3.785Zm2.681.195a3.742,3.742,0,0,0,.538,2.185,1.776,1.776,0,0,0,1.54.756,1.78,1.78,0,0,0,1.521-.747,4.1,4.1,0,0,0,.547-2.389,3.7,3.7,0,0,0-.547-2.171,1.78,1.78,0,0,0-1.54-.77,1.751,1.751,0,0,0-1.521.765A4.164,4.164,0,0,0,102.153-4.917Zm2.588-9.333h2.922l-2.57,2.876h-2.18Zm8.359,4.212.083,1.16a3.5,3.5,0,0,1,2.885-1.345,2.913,2.913,0,0,1,2.375.937,4.372,4.372,0,0,1,.8,2.8V0h-2.681V-6.42a1.739,1.739,0,0,0-.371-1.239,1.661,1.661,0,0,0-1.234-.385,1.844,1.844,0,0,0-1.7.965V0h-2.681V-10.038Z" transform="translate(464 2475)" fill="#fff"/>
      <path id="Trazado_156684" data-name="Trazado 156684" d="M0,0H219V85H0Z" transform="translate(704 2426)" fill="#65ccc9"/>
      <path id="Trazado_156685" data-name="Trazado 156685" d="M1.206,0V-13.508H5.938a6.213,6.213,0,0,1,3.729.942,3.22,3.22,0,0,1,1.271,2.76,3.052,3.052,0,0,1-.51,1.749A2.947,2.947,0,0,1,9.008-6.949,2.852,2.852,0,0,1,10.646-5.9a3.1,3.1,0,0,1,.6,1.93A3.565,3.565,0,0,1,10-1.021,5.6,5.6,0,0,1,6.457,0ZM3.989-5.882v3.646H6.374A2.3,2.3,0,0,0,7.909-2.7,1.607,1.607,0,0,0,8.461-4a1.7,1.7,0,0,0-1.92-1.883Zm0-1.967h2.06q2.106-.037,2.106-1.679a1.552,1.552,0,0,0-.533-1.322,2.806,2.806,0,0,0-1.684-.4H3.989Zm8.749,2.737a5.953,5.953,0,0,1,.575-2.663,4.211,4.211,0,0,1,1.656-1.809,4.831,4.831,0,0,1,2.51-.64A4.571,4.571,0,0,1,20.8-8.98,4.989,4.989,0,0,1,22.229-5.6l.019.687a5.247,5.247,0,0,1-1.29,3.706A4.482,4.482,0,0,1,17.5.186a4.5,4.5,0,0,1-3.465-1.392,5.339,5.339,0,0,1-1.294-3.785Zm2.681.195a3.742,3.742,0,0,0,.538,2.185,1.776,1.776,0,0,0,1.54.756,1.78,1.78,0,0,0,1.521-.747,4.1,4.1,0,0,0,.547-2.389,3.7,3.7,0,0,0-.547-2.171,1.78,1.78,0,0,0-1.54-.77,1.751,1.751,0,0,0-1.521.765A4.164,4.164,0,0,0,15.419-4.917Zm8.062-.176a6.049,6.049,0,0,1,1.053-3.739,3.417,3.417,0,0,1,2.881-1.392,3.074,3.074,0,0,1,2.421,1.095V-14.25h2.69V0H30.1l-.13-1.067A3.155,3.155,0,0,1,27.4.186a3.407,3.407,0,0,1-2.844-1.4A6.244,6.244,0,0,1,23.481-5.093Zm2.681.195a3.952,3.952,0,0,0,.492,2.162,1.6,1.6,0,0,0,1.429.751,1.794,1.794,0,0,0,1.753-1.048V-7A1.769,1.769,0,0,0,28.1-8.043Q26.162-8.043,26.162-4.9ZM39.225.186A4.928,4.928,0,0,1,35.63-1.169a4.815,4.815,0,0,1-1.387-3.609v-.26a6.064,6.064,0,0,1,.584-2.7,4.289,4.289,0,0,1,1.656-1.837,4.648,4.648,0,0,1,2.445-.645,4.166,4.166,0,0,1,3.242,1.3,5.278,5.278,0,0,1,1.183,3.683v1.095H36.961a2.491,2.491,0,0,0,.784,1.577,2.37,2.37,0,0,0,1.656.594A2.894,2.894,0,0,0,41.822-3.1L43.14-1.624A4.025,4.025,0,0,1,41.507-.292,5.357,5.357,0,0,1,39.225.186Zm-.306-8.238a1.679,1.679,0,0,0-1.294.538,2.78,2.78,0,0,0-.635,1.54h3.729v-.213a1.982,1.982,0,0,0-.482-1.378A1.733,1.733,0,0,0,38.918-8.053Zm5.566,2.959a5.883,5.883,0,0,1,1.1-3.72,3.562,3.562,0,0,1,2.964-1.41,3.124,3.124,0,0,1,2.57,1.132l.111-.946H53.66v9.7a4.29,4.29,0,0,1-.6,2.292,3.843,3.843,0,0,1-1.684,1.484,5.919,5.919,0,0,1-2.542.51,5.5,5.5,0,0,1-2.152-.441A3.82,3.82,0,0,1,45.1,2.375L46.285.742a3.141,3.141,0,0,0,2.431,1.123,2.3,2.3,0,0,0,1.661-.571A2.14,2.14,0,0,0,50.97-.325V-.863A3.1,3.1,0,0,1,48.53.186,3.553,3.553,0,0,1,45.6-1.229a5.881,5.881,0,0,1-1.118-3.753Zm2.681.195a3.653,3.653,0,0,0,.547,2.138,1.742,1.742,0,0,0,1.5.775A1.862,1.862,0,0,0,50.97-2.9V-7.125a1.858,1.858,0,0,0-1.735-.918,1.753,1.753,0,0,0-1.517.789A4.118,4.118,0,0,0,47.166-4.9ZM61.537,0a2.977,2.977,0,0,1-.269-.9A3.244,3.244,0,0,1,58.735.186,3.564,3.564,0,0,1,56.29-.668a2.745,2.745,0,0,1-.969-2.152A2.837,2.837,0,0,1,56.5-5.27a5.837,5.837,0,0,1,3.419-.863h1.234v-.575A1.654,1.654,0,0,0,60.8-7.821a1.405,1.405,0,0,0-1.127-.417,1.6,1.6,0,0,0-1.062.325,1.1,1.1,0,0,0-.385.891H55.543a2.693,2.693,0,0,1,.538-1.614A3.557,3.557,0,0,1,57.6-9.8a5.545,5.545,0,0,1,2.208-.422,4.381,4.381,0,0,1,2.946.932,3.262,3.262,0,0,1,1.09,2.621v4.351a4.8,4.8,0,0,0,.4,2.162V0ZM59.319-1.865a2.309,2.309,0,0,0,1.095-.264,1.737,1.737,0,0,0,.742-.71V-4.564h-1q-2.013,0-2.143,1.392L58-3.015a1.073,1.073,0,0,0,.353.826A1.369,1.369,0,0,0,59.319-1.865ZM4.166,25H1.382V11.492H4.166ZM9.036,14.962l.083,1.16A3.5,3.5,0,0,1,12,14.776a2.913,2.913,0,0,1,2.375.937,4.372,4.372,0,0,1,.8,2.8V25H12.5V18.58a1.739,1.739,0,0,0-.371-1.239,1.661,1.661,0,0,0-1.234-.385,1.844,1.844,0,0,0-1.7.965V25H6.513V14.962Zm11.931,6.763,1.865-6.763h2.8L22.247,25H19.687L16.3,14.962h2.8Zm10.344,3.46a4.928,4.928,0,0,1-3.595-1.354,4.815,4.815,0,0,1-1.387-3.609v-.26a6.064,6.064,0,0,1,.584-2.7,4.289,4.289,0,0,1,1.656-1.837,4.648,4.648,0,0,1,2.445-.645,4.166,4.166,0,0,1,3.242,1.3,5.278,5.278,0,0,1,1.183,3.683v1.095H29.047a2.491,2.491,0,0,0,.784,1.577,2.37,2.37,0,0,0,1.656.594A2.894,2.894,0,0,0,33.909,21.9l1.317,1.475a4.025,4.025,0,0,1-1.633,1.331A5.357,5.357,0,0,1,31.311,25.186ZM31,16.947a1.679,1.679,0,0,0-1.294.538,2.78,2.78,0,0,0-.635,1.54H32.8v-.213a1.982,1.982,0,0,0-.482-1.378A1.733,1.733,0,0,0,31,16.947Zm8.424-1.985.083,1.16A3.5,3.5,0,0,1,42.4,14.776a2.913,2.913,0,0,1,2.375.937,4.372,4.372,0,0,1,.8,2.8V25H42.889V18.58a1.739,1.739,0,0,0-.371-1.239,1.661,1.661,0,0,0-1.234-.385,1.844,1.844,0,0,0-1.7.965V25H36.905V14.962Zm11.383-2.468v2.468h1.716v1.967H50.812v5.01a1.2,1.2,0,0,0,.213.8,1.072,1.072,0,0,0,.816.241,4.276,4.276,0,0,0,.789-.065v2.032a5.52,5.52,0,0,1-1.624.241,2.56,2.56,0,0,1-2.876-2.848V16.929H46.665V14.962h1.466V12.494ZM59.839,25a2.977,2.977,0,0,1-.269-.9,3.244,3.244,0,0,1-2.533,1.085,3.564,3.564,0,0,1-2.445-.854,2.745,2.745,0,0,1-.969-2.152,2.837,2.837,0,0,1,1.183-2.449,5.837,5.837,0,0,1,3.419-.863h1.234v-.575a1.654,1.654,0,0,0-.357-1.113,1.405,1.405,0,0,0-1.127-.417,1.6,1.6,0,0,0-1.062.325,1.1,1.1,0,0,0-.385.891H53.846a2.693,2.693,0,0,1,.538-1.614A3.557,3.557,0,0,1,55.905,15.2a5.545,5.545,0,0,1,2.208-.422,4.381,4.381,0,0,1,2.946.932,3.262,3.262,0,0,1,1.09,2.621v4.351a4.8,4.8,0,0,0,.4,2.162V25Zm-2.217-1.865a2.309,2.309,0,0,0,1.095-.264,1.737,1.737,0,0,0,.742-.71V20.436h-1q-2.013,0-2.143,1.392l-.009.158a1.073,1.073,0,0,0,.353.826A1.369,1.369,0,0,0,57.622,23.135Zm12.228-5.659a7.284,7.284,0,0,0-.965-.074,1.964,1.964,0,0,0-1.995,1.03V25H64.208V14.962h2.533l.074,1.2a2.484,2.484,0,0,1,2.236-1.382,2.809,2.809,0,0,1,.835.121ZM73.968,25h-2.69V14.962h2.69ZM71.12,12.364a1.32,1.32,0,0,1,.4-.993,1.739,1.739,0,0,1,2.194,0,1.417,1.417,0,0,1,0,1.995,1.72,1.72,0,0,1-2.18,0A1.316,1.316,0,0,1,71.12,12.364Zm4.639,7.524a5.953,5.953,0,0,1,.575-2.663,4.211,4.211,0,0,1,1.656-1.809,4.831,4.831,0,0,1,2.51-.64,4.571,4.571,0,0,1,3.317,1.243A4.989,4.989,0,0,1,85.25,19.4l.019.687a5.247,5.247,0,0,1-1.29,3.706,5,5,0,0,1-6.926,0,5.339,5.339,0,0,1-1.294-3.785Zm2.681.195a3.742,3.742,0,0,0,.538,2.185,1.935,1.935,0,0,0,3.062.009,4.1,4.1,0,0,0,.547-2.389,3.7,3.7,0,0,0-.547-2.171,1.78,1.78,0,0,0-1.54-.77,1.751,1.751,0,0,0-1.521.765A4.164,4.164,0,0,0,78.44,20.083Zm17.831,5.1a4.928,4.928,0,0,1-3.595-1.354,4.815,4.815,0,0,1-1.387-3.609v-.26a6.064,6.064,0,0,1,.584-2.7,4.289,4.289,0,0,1,1.656-1.837,4.648,4.648,0,0,1,2.445-.645,4.166,4.166,0,0,1,3.242,1.3,5.278,5.278,0,0,1,1.183,3.683v1.095H94.007a2.491,2.491,0,0,0,.784,1.577,2.37,2.37,0,0,0,1.656.594A2.894,2.894,0,0,0,98.869,21.9l1.317,1.475a4.025,4.025,0,0,1-1.633,1.331A5.357,5.357,0,0,1,96.271,25.186Zm-.306-8.238a1.679,1.679,0,0,0-1.294.538,2.78,2.78,0,0,0-.635,1.54h3.729v-.213a1.982,1.982,0,0,0-.482-1.378A1.733,1.733,0,0,0,95.965,16.947Zm8.424-1.985.083,1.16a3.5,3.5,0,0,1,2.885-1.345,2.913,2.913,0,0,1,2.375.937,4.372,4.372,0,0,1,.8,2.8V25h-2.681V18.58a1.739,1.739,0,0,0-.371-1.239,1.661,1.661,0,0,0-1.234-.385,1.844,1.844,0,0,0-1.7.965V25h-2.681V14.962Zm15.864,5.279V25H117.47V11.492h5.27a6.1,6.1,0,0,1,2.677.557,4.1,4.1,0,0,1,1.777,1.582,4.41,4.41,0,0,1,.622,2.333,3.878,3.878,0,0,1-1.359,3.131,5.661,5.661,0,0,1-3.762,1.146Zm0-2.254h2.486a2.445,2.445,0,0,0,1.684-.52,1.89,1.89,0,0,0,.58-1.484,2.228,2.228,0,0,0-.584-1.6,2.183,2.183,0,0,0-1.614-.631h-2.551Zm14.937-.51a7.284,7.284,0,0,0-.965-.074,1.964,1.964,0,0,0-1.995,1.03V25h-2.681V14.962h2.533l.074,1.2a2.484,2.484,0,0,1,2.236-1.382,2.809,2.809,0,0,1,.835.121Zm.538,2.412a5.953,5.953,0,0,1,.575-2.663,4.211,4.211,0,0,1,1.656-1.809,4.831,4.831,0,0,1,2.51-.64,4.571,4.571,0,0,1,3.317,1.243,4.989,4.989,0,0,1,1.433,3.377l.019.687a5.247,5.247,0,0,1-1.29,3.706,5,5,0,0,1-6.926,0,5.339,5.339,0,0,1-1.294-3.785Zm2.681.195a3.742,3.742,0,0,0,.538,2.185,1.935,1.935,0,0,0,3.062.009,4.094,4.094,0,0,0,.547-2.389,3.7,3.7,0,0,0-.547-2.171,1.78,1.78,0,0,0-1.54-.77,1.751,1.751,0,0,0-1.521.765A4.164,4.164,0,0,0,138.409,20.083Zm12.654,2.941a1.759,1.759,0,0,0,1.206-.408,1.43,1.43,0,0,0,.482-1.085h2.514a3.439,3.439,0,0,1-.557,1.869,3.673,3.673,0,0,1-1.5,1.317,4.689,4.689,0,0,1-2.1.469,4.358,4.358,0,0,1-3.4-1.368,5.415,5.415,0,0,1-1.243-3.781V19.86a5.353,5.353,0,0,1,1.234-3.7,4.307,4.307,0,0,1,3.386-1.382,4.222,4.222,0,0,1,3.02,1.072,3.794,3.794,0,0,1,1.155,2.853h-2.514a1.827,1.827,0,0,0-.482-1.266,1.8,1.8,0,0,0-2.639.195,3.947,3.947,0,0,0-.478,2.213v.278a4,4,0,0,0,.473,2.227A1.636,1.636,0,0,0,151.063,23.024Zm10.354,2.162a4.928,4.928,0,0,1-3.595-1.354,4.815,4.815,0,0,1-1.387-3.609v-.26a6.064,6.064,0,0,1,.584-2.7,4.289,4.289,0,0,1,1.656-1.837,4.648,4.648,0,0,1,2.445-.645,4.166,4.166,0,0,1,3.242,1.3,5.278,5.278,0,0,1,1.183,3.683v1.095h-6.392a2.491,2.491,0,0,0,.784,1.577,2.37,2.37,0,0,0,1.656.594,2.894,2.894,0,0,0,2.421-1.123l1.317,1.475a4.025,4.025,0,0,1-1.633,1.331A5.357,5.357,0,0,1,161.417,25.186Zm-.306-8.238a1.679,1.679,0,0,0-1.294.538,2.78,2.78,0,0,0-.635,1.54h3.729v-.213a1.982,1.982,0,0,0-.482-1.378A1.733,1.733,0,0,0,161.11,16.947ZM172.5,22.226a.864.864,0,0,0-.487-.775,5.533,5.533,0,0,0-1.563-.506q-3.581-.751-3.581-3.043a2.758,2.758,0,0,1,1.109-2.231,4.472,4.472,0,0,1,2.9-.9,4.813,4.813,0,0,1,3.057.9,2.836,2.836,0,0,1,1.146,2.338H172.4a1.3,1.3,0,0,0-.371-.951,1.57,1.57,0,0,0-1.16-.376,1.6,1.6,0,0,0-1.048.306.966.966,0,0,0-.371.779.826.826,0,0,0,.422.719,4.342,4.342,0,0,0,1.424.473,11.632,11.632,0,0,1,1.688.45,2.774,2.774,0,0,1,2.125,2.7,2.618,2.618,0,0,1-1.178,2.222,5.083,5.083,0,0,1-3.043.849,5.309,5.309,0,0,1-2.24-.45,3.759,3.759,0,0,1-1.535-1.234,2.867,2.867,0,0,1-.557-1.693H169.1a1.4,1.4,0,0,0,.529,1.095,2.1,2.1,0,0,0,1.317.38,1.941,1.941,0,0,0,1.164-.292A.909.909,0,0,0,172.5,22.226Zm3.915-2.338a5.953,5.953,0,0,1,.575-2.663,4.211,4.211,0,0,1,1.656-1.809,4.831,4.831,0,0,1,2.51-.64,4.571,4.571,0,0,1,3.317,1.243,4.989,4.989,0,0,1,1.433,3.377l.019.687a5.247,5.247,0,0,1-1.29,3.706,5,5,0,0,1-6.926,0,5.339,5.339,0,0,1-1.294-3.785Zm2.681.195a3.742,3.742,0,0,0,.538,2.185,1.935,1.935,0,0,0,3.062.009,4.094,4.094,0,0,0,.547-2.389,3.7,3.7,0,0,0-.547-2.171,1.78,1.78,0,0,0-1.54-.77,1.751,1.751,0,0,0-1.521.765A4.164,4.164,0,0,0,179.1,20.083Z" transform="translate(720 2463)" fill="#fff"/>
      <path id="Trazado_156696" data-name="Trazado 156696" d="M0,0H208V85H0Z" transform="translate(997 2426)" fill="#65ccc9"/>
      <path id="Trazado_156697" data-name="Trazado 156697" d="M9.333-5.854H3.989v3.618h6.271V0H1.206V-13.508h9.036v2.254H3.989v3.219H9.333ZM15.54-7.042l1.688-3h2.867L17.237-5.121,20.215,0H17.339L15.549-3.154,13.768,0H10.882L13.86-5.121l-2.848-4.917h2.876Zm9.055-5.464v2.468h1.716v1.967H24.594v5.01a1.2,1.2,0,0,0,.213.8,1.072,1.072,0,0,0,.816.241,4.276,4.276,0,0,0,.789-.065V-.056a5.52,5.52,0,0,1-1.624.241,2.56,2.56,0,0,1-2.876-2.848V-8.071H20.447v-1.967h1.466v-2.468ZM32.424.186a4.928,4.928,0,0,1-3.595-1.354,4.815,4.815,0,0,1-1.387-3.609v-.26a6.064,6.064,0,0,1,.584-2.7,4.289,4.289,0,0,1,1.656-1.837,4.648,4.648,0,0,1,2.445-.645,4.166,4.166,0,0,1,3.242,1.3,5.278,5.278,0,0,1,1.183,3.683v1.095H30.161a2.491,2.491,0,0,0,.784,1.577,2.37,2.37,0,0,0,1.656.594A2.894,2.894,0,0,0,35.022-3.1l1.317,1.475A4.025,4.025,0,0,1,34.707-.292,5.357,5.357,0,0,1,32.424.186Zm-.306-8.238a1.679,1.679,0,0,0-1.294.538,2.78,2.78,0,0,0-.635,1.54h3.729v-.213a1.982,1.982,0,0,0-.482-1.378A1.733,1.733,0,0,0,32.118-8.053Zm8.424-1.985.083,1.16a3.5,3.5,0,0,1,2.885-1.345,2.913,2.913,0,0,1,2.375.937,4.372,4.372,0,0,1,.8,2.8V0H44V-6.42a1.739,1.739,0,0,0-.371-1.239A1.661,1.661,0,0,0,42.4-8.043a1.844,1.844,0,0,0-1.7.965V0H38.019V-10.038ZM48.3-5.093a6.049,6.049,0,0,1,1.053-3.739,3.417,3.417,0,0,1,2.881-1.392,3.074,3.074,0,0,1,2.421,1.095V-14.25h2.69V0H54.922l-.13-1.067A3.155,3.155,0,0,1,52.213.186a3.407,3.407,0,0,1-2.844-1.4A6.244,6.244,0,0,1,48.3-5.093Zm2.681.195a3.952,3.952,0,0,0,.492,2.162,1.6,1.6,0,0,0,1.429.751,1.794,1.794,0,0,0,1.753-1.048V-7a1.769,1.769,0,0,0-1.735-1.048Q50.979-8.043,50.979-4.9ZM62.251,0h-2.69V-10.038h2.69ZM59.4-12.636a1.32,1.32,0,0,1,.4-.993,1.516,1.516,0,0,1,1.1-.39,1.52,1.52,0,0,1,1.095.39,1.313,1.313,0,0,1,.408.993,1.316,1.316,0,0,1-.413,1,1.523,1.523,0,0,1-1.09.39,1.523,1.523,0,0,1-1.09-.39A1.316,1.316,0,0,1,59.4-12.636Zm4.639,7.542a6.049,6.049,0,0,1,1.053-3.739,3.417,3.417,0,0,1,2.881-1.392A3.074,3.074,0,0,1,70.4-9.129V-14.25h2.69V0H70.666l-.13-1.067A3.155,3.155,0,0,1,67.957.186a3.407,3.407,0,0,1-2.844-1.4A6.244,6.244,0,0,1,64.042-5.093Zm2.681.195a3.952,3.952,0,0,0,.492,2.162,1.6,1.6,0,0,0,1.429.751A1.794,1.794,0,0,0,70.4-3.034V-7a1.769,1.769,0,0,0-1.735-1.048Q66.723-8.043,66.723-4.9Zm8.025-.213a5.953,5.953,0,0,1,.575-2.663,4.211,4.211,0,0,1,1.656-1.809,4.831,4.831,0,0,1,2.51-.64A4.571,4.571,0,0,1,82.8-8.98,4.989,4.989,0,0,1,84.238-5.6l.019.687a5.247,5.247,0,0,1-1.29,3.706,4.482,4.482,0,0,1-3.46,1.4,4.5,4.5,0,0,1-3.465-1.392,5.339,5.339,0,0,1-1.294-3.785Zm2.681.195a3.742,3.742,0,0,0,.538,2.185,1.776,1.776,0,0,0,1.54.756,1.78,1.78,0,0,0,1.521-.747,4.1,4.1,0,0,0,.547-2.389,3.7,3.7,0,0,0-.547-2.171,1.78,1.78,0,0,0-1.54-.77,1.751,1.751,0,0,0-1.521.765A4.164,4.164,0,0,0,77.429-4.917ZM4.843,11.492l3.47,9.8,3.451-9.8h3.655V25H12.626V21.308l.278-6.374L9.259,25H7.348L3.711,14.943l.278,6.364V25H1.206V11.492ZM23.49,25a2.977,2.977,0,0,1-.269-.9,3.244,3.244,0,0,1-2.533,1.085,3.564,3.564,0,0,1-2.445-.854,2.745,2.745,0,0,1-.969-2.152,2.837,2.837,0,0,1,1.183-2.449,5.837,5.837,0,0,1,3.419-.863H23.11v-.575a1.654,1.654,0,0,0-.357-1.113,1.405,1.405,0,0,0-1.127-.417,1.6,1.6,0,0,0-1.062.325,1.1,1.1,0,0,0-.385.891H17.5a2.693,2.693,0,0,1,.538-1.614A3.557,3.557,0,0,1,19.557,15.2a5.545,5.545,0,0,1,2.208-.422,4.381,4.381,0,0,1,2.946.932A3.262,3.262,0,0,1,25.8,18.33v4.351a4.8,4.8,0,0,0,.4,2.162V25Zm-2.217-1.865a2.309,2.309,0,0,0,1.095-.264,1.737,1.737,0,0,0,.742-.71V20.436h-1q-2.013,0-2.143,1.392l-.009.158a1.073,1.073,0,0,0,.353.826A1.369,1.369,0,0,0,21.273,23.135Zm9.055-8.173.083,1.16A3.5,3.5,0,0,1,33.3,14.776a2.913,2.913,0,0,1,2.375.937,4.372,4.372,0,0,1,.8,2.8V25H33.788V18.58a1.739,1.739,0,0,0-.371-1.239,1.661,1.661,0,0,0-1.234-.385,1.844,1.844,0,0,0-1.7.965V25H27.8V14.962Zm14.185,9.018a3.362,3.362,0,0,1-2.746,1.206,3.171,3.171,0,0,1-2.463-.928,3.96,3.96,0,0,1-.867-2.718V14.962h2.681v6.485q0,1.568,1.429,1.568a1.937,1.937,0,0,0,1.874-.946V14.962h2.69V25H44.587ZM54.95,25a2.977,2.977,0,0,1-.269-.9,3.244,3.244,0,0,1-2.533,1.085,3.564,3.564,0,0,1-2.445-.854,2.745,2.745,0,0,1-.969-2.152,2.837,2.837,0,0,1,1.183-2.449,5.837,5.837,0,0,1,3.419-.863h1.234v-.575a1.654,1.654,0,0,0-.357-1.113,1.405,1.405,0,0,0-1.127-.417,1.6,1.6,0,0,0-1.062.325,1.1,1.1,0,0,0-.385.891H48.957a2.693,2.693,0,0,1,.538-1.614A3.557,3.557,0,0,1,51.016,15.2a5.545,5.545,0,0,1,2.208-.422,4.381,4.381,0,0,1,2.946.932,3.262,3.262,0,0,1,1.09,2.621v4.351a4.8,4.8,0,0,0,.4,2.162V25Zm-2.217-1.865a2.309,2.309,0,0,0,1.095-.264,1.737,1.737,0,0,0,.742-.71V20.436h-1q-2.013,0-2.143,1.392l-.009.158a1.073,1.073,0,0,0,.353.826A1.369,1.369,0,0,0,52.732,23.135ZM62.149,25h-2.69V10.75h2.69Z" transform="translate(1013 2463)" fill="#fff"/>
      <path id="Trazado_156698" data-name="Trazado 156698" d="M0,0H208V85H0Z" transform="translate(1002 2579)" fill="#65ccc9"/>
      <path id="Trazado_156700" data-name="Trazado 156700" d="M11.81-4.5A4.78,4.78,0,0,1,10.2-1.067,5.653,5.653,0,0,1,6.374.186,5.083,5.083,0,0,1,2.287-1.563,7.171,7.171,0,0,1,.8-6.364V-7.19a8.1,8.1,0,0,1,.687-3.433A5.145,5.145,0,0,1,3.447-12.9a5.5,5.5,0,0,1,2.964-.793,5.507,5.507,0,0,1,3.767,1.252,5.137,5.137,0,0,1,1.651,3.516H9.045a2.821,2.821,0,0,0-.728-1.9,2.7,2.7,0,0,0-1.906-.589,2.365,2.365,0,0,0-2.083,1,5.589,5.589,0,0,0-.71,3.094V-6.3a5.982,5.982,0,0,0,.663,3.2A2.321,2.321,0,0,0,6.374-2.087,2.748,2.748,0,0,0,8.3-2.677,2.661,2.661,0,0,0,9.027-4.5Zm1.234-.612a5.953,5.953,0,0,1,.575-2.663,4.211,4.211,0,0,1,1.656-1.809,4.831,4.831,0,0,1,2.51-.64A4.571,4.571,0,0,1,21.1-8.98,4.989,4.989,0,0,1,22.535-5.6l.019.687a5.247,5.247,0,0,1-1.29,3.706A4.482,4.482,0,0,1,17.8.186a4.5,4.5,0,0,1-3.465-1.392,5.339,5.339,0,0,1-1.294-3.785Zm2.681.195a3.742,3.742,0,0,0,.538,2.185,1.776,1.776,0,0,0,1.54.756,1.78,1.78,0,0,0,1.521-.747,4.1,4.1,0,0,0,.547-2.389,3.7,3.7,0,0,0-.547-2.171,1.78,1.78,0,0,0-1.54-.77,1.751,1.751,0,0,0-1.521.765A4.164,4.164,0,0,0,15.725-4.917Zm14.12-2.607A7.284,7.284,0,0,0,28.88-7.6a1.964,1.964,0,0,0-1.995,1.03V0H24.2V-10.038h2.533l.074,1.2a2.484,2.484,0,0,1,2.236-1.382,2.809,2.809,0,0,1,.835.121Zm4.963-4.982v2.468h1.716v1.967H34.809v5.01a1.2,1.2,0,0,0,.213.8,1.072,1.072,0,0,0,.816.241,4.276,4.276,0,0,0,.789-.065V-.056A5.52,5.52,0,0,1,35,.186a2.56,2.56,0,0,1-2.876-2.848V-8.071H30.662v-1.967h1.466v-2.468ZM42.639.186a4.928,4.928,0,0,1-3.595-1.354,4.815,4.815,0,0,1-1.387-3.609v-.26a6.064,6.064,0,0,1,.584-2.7A4.289,4.289,0,0,1,39.9-9.579a4.648,4.648,0,0,1,2.445-.645,4.166,4.166,0,0,1,3.242,1.3,5.278,5.278,0,0,1,1.183,3.683v1.095H40.375a2.491,2.491,0,0,0,.784,1.577,2.37,2.37,0,0,0,1.656.594A2.894,2.894,0,0,0,45.236-3.1l1.317,1.475A4.025,4.025,0,0,1,44.921-.292,5.357,5.357,0,0,1,42.639.186Zm-.306-8.238a1.679,1.679,0,0,0-1.294.538,2.78,2.78,0,0,0-.635,1.54h3.729v-.213a1.982,1.982,0,0,0-.482-1.378A1.733,1.733,0,0,0,42.333-8.053Zm13.2-1.985.083,1.123A3.528,3.528,0,0,1,58.5-10.224a2.677,2.677,0,0,1,2.663,1.531,3.447,3.447,0,0,1,3.015-1.531,2.994,2.994,0,0,1,2.431.951,4.371,4.371,0,0,1,.8,2.862V0h-2.69V-6.4a1.911,1.911,0,0,0-.334-1.248,1.48,1.48,0,0,0-1.178-.394,1.673,1.673,0,0,0-1.67,1.15L61.546,0H58.865V-6.392a1.888,1.888,0,0,0-.343-1.262,1.5,1.5,0,0,0-1.169-.39A1.738,1.738,0,0,0,55.7-7.1V0H53.02V-10.038ZM75.286,0a2.977,2.977,0,0,1-.269-.9A3.244,3.244,0,0,1,72.484.186a3.564,3.564,0,0,1-2.445-.854A2.745,2.745,0,0,1,69.07-2.82,2.837,2.837,0,0,1,70.253-5.27a5.837,5.837,0,0,1,3.419-.863h1.234v-.575a1.654,1.654,0,0,0-.357-1.113,1.405,1.405,0,0,0-1.127-.417,1.6,1.6,0,0,0-1.062.325,1.1,1.1,0,0,0-.385.891H69.292a2.693,2.693,0,0,1,.538-1.614A3.557,3.557,0,0,1,71.352-9.8a5.545,5.545,0,0,1,2.208-.422,4.381,4.381,0,0,1,2.946.932A3.262,3.262,0,0,1,77.6-6.67v4.351a4.8,4.8,0,0,0,.4,2.162V0ZM73.068-1.865a2.309,2.309,0,0,0,1.095-.264,1.737,1.737,0,0,0,.742-.71V-4.564h-1q-2.013,0-2.143,1.392l-.009.158a1.073,1.073,0,0,0,.353.826A1.369,1.369,0,0,0,73.068-1.865Zm6.169-3.247a6,6,0,0,1,1.053-3.739,3.443,3.443,0,0,1,2.89-1.373A3.082,3.082,0,0,1,85.75-8.99l.176-1.048h2.356v13.9h-2.69V-.863A3.091,3.091,0,0,1,83.162.186,3.417,3.417,0,0,1,80.3-1.206,6.294,6.294,0,0,1,79.238-5.112Zm2.681.195a3.925,3.925,0,0,0,.506,2.189,1.619,1.619,0,0,0,1.424.751,1.8,1.8,0,0,0,1.744-.983V-7.106a1.789,1.789,0,0,0-1.726-.946,1.639,1.639,0,0,0-1.438.751A4.335,4.335,0,0,0,81.919-4.917ZM96.4-1.021A3.362,3.362,0,0,1,93.655.186a3.171,3.171,0,0,1-2.463-.928,3.96,3.96,0,0,1-.867-2.718v-6.578h2.681v6.485q0,1.568,1.429,1.568a1.937,1.937,0,0,0,1.874-.946v-7.106H99V0H96.475ZM103.851,0h-2.69V-10.038h2.69ZM101-12.636a1.32,1.32,0,0,1,.4-.993,1.516,1.516,0,0,1,1.1-.39,1.52,1.52,0,0,1,1.095.39,1.313,1.313,0,0,1,.408.993,1.316,1.316,0,0,1-.413,1,1.523,1.523,0,0,1-1.09.39,1.523,1.523,0,0,1-1.09-.39A1.316,1.316,0,0,1,101-12.636Zm7.524,2.6.083,1.16a3.5,3.5,0,0,1,2.885-1.345,2.913,2.913,0,0,1,2.375.937,4.372,4.372,0,0,1,.8,2.8V0h-2.681V-6.42a1.739,1.739,0,0,0-.371-1.239,1.661,1.661,0,0,0-1.234-.385,1.844,1.844,0,0,0-1.7.965V0H106V-10.038ZM122.517,0a2.977,2.977,0,0,1-.269-.9A3.244,3.244,0,0,1,119.715.186a3.564,3.564,0,0,1-2.445-.854A2.745,2.745,0,0,1,116.3-2.82a2.837,2.837,0,0,1,1.183-2.449,5.837,5.837,0,0,1,3.419-.863h1.234v-.575a1.654,1.654,0,0,0-.357-1.113,1.405,1.405,0,0,0-1.127-.417,1.6,1.6,0,0,0-1.062.325,1.1,1.1,0,0,0-.385.891h-2.681a2.693,2.693,0,0,1,.538-1.614A3.557,3.557,0,0,1,118.583-9.8a5.545,5.545,0,0,1,2.208-.422,4.381,4.381,0,0,1,2.946.932,3.262,3.262,0,0,1,1.09,2.621v4.351a4.8,4.8,0,0,0,.4,2.162V0ZM120.3-1.865a2.309,2.309,0,0,0,1.095-.264,1.737,1.737,0,0,0,.742-.71V-4.564h-1q-2.013,0-2.143,1.392l-.009.158a1.073,1.073,0,0,0,.353.826A1.369,1.369,0,0,0,120.3-1.865ZM6.2,21.651,9.259,11.492h3.1L7.654,25H4.75L.065,11.492H3.154Zm11.467,3.535a4.928,4.928,0,0,1-3.595-1.354,4.815,4.815,0,0,1-1.387-3.609v-.26a6.064,6.064,0,0,1,.584-2.7,4.289,4.289,0,0,1,1.656-1.837,4.648,4.648,0,0,1,2.445-.645,4.166,4.166,0,0,1,3.242,1.3,5.278,5.278,0,0,1,1.183,3.683v1.095H15.4a2.491,2.491,0,0,0,.784,1.577,2.37,2.37,0,0,0,1.656.594A2.894,2.894,0,0,0,20.262,21.9l1.317,1.475a4.025,4.025,0,0,1-1.633,1.331A5.357,5.357,0,0,1,17.664,25.186Zm-.306-8.238a1.679,1.679,0,0,0-1.294.538,2.78,2.78,0,0,0-.635,1.54h3.729v-.213a1.982,1.982,0,0,0-.482-1.378A1.733,1.733,0,0,0,17.358,16.947Zm11.6.529a7.284,7.284,0,0,0-.965-.074A1.964,1.964,0,0,0,26,18.432V25H23.314V14.962h2.533l.074,1.2a2.484,2.484,0,0,1,2.236-1.382,2.809,2.809,0,0,1,.835.121Zm4.963-4.982v2.468h1.716v1.967H33.918v5.01a1.2,1.2,0,0,0,.213.8,1.072,1.072,0,0,0,.816.241,4.276,4.276,0,0,0,.789-.065v2.032a5.52,5.52,0,0,1-1.624.241,2.56,2.56,0,0,1-2.876-2.848V16.929H29.771V14.962h1.466V12.494ZM39.958,25h-2.69V14.962h2.69ZM37.109,12.364a1.32,1.32,0,0,1,.4-.993,1.739,1.739,0,0,1,2.194,0,1.417,1.417,0,0,1,0,1.995,1.72,1.72,0,0,1-2.18,0A1.316,1.316,0,0,1,37.109,12.364Zm9.231,10.66a1.759,1.759,0,0,0,1.206-.408,1.43,1.43,0,0,0,.482-1.085h2.514a3.439,3.439,0,0,1-.557,1.869,3.673,3.673,0,0,1-1.5,1.317,4.689,4.689,0,0,1-2.1.469,4.358,4.358,0,0,1-3.4-1.368,5.415,5.415,0,0,1-1.243-3.781V19.86a5.353,5.353,0,0,1,1.234-3.7,4.307,4.307,0,0,1,3.386-1.382,4.222,4.222,0,0,1,3.02,1.072A3.794,3.794,0,0,1,50.543,18.7H48.029a1.827,1.827,0,0,0-.482-1.266,1.8,1.8,0,0,0-2.639.195,3.947,3.947,0,0,0-.478,2.213v.278a4,4,0,0,0,.473,2.227A1.636,1.636,0,0,0,46.34,23.024ZM57.891,25a2.977,2.977,0,0,1-.269-.9,3.244,3.244,0,0,1-2.533,1.085,3.564,3.564,0,0,1-2.445-.854,2.745,2.745,0,0,1-.969-2.152,2.837,2.837,0,0,1,1.183-2.449,5.837,5.837,0,0,1,3.419-.863H57.51v-.575a1.654,1.654,0,0,0-.357-1.113,1.405,1.405,0,0,0-1.127-.417,1.6,1.6,0,0,0-1.062.325,1.1,1.1,0,0,0-.385.891H51.9a2.693,2.693,0,0,1,.538-1.614A3.557,3.557,0,0,1,53.957,15.2a5.545,5.545,0,0,1,2.208-.422,4.381,4.381,0,0,1,2.946.932A3.262,3.262,0,0,1,60.2,18.33v4.351a4.8,4.8,0,0,0,.4,2.162V25Zm-2.217-1.865a2.309,2.309,0,0,0,1.095-.264,1.737,1.737,0,0,0,.742-.71V20.436h-1q-2.013,0-2.143,1.392l-.009.158a1.073,1.073,0,0,0,.353.826A1.369,1.369,0,0,0,55.673,23.135ZM65.09,25H62.4V10.75h2.69Z" transform="translate(1018 2616)" fill="#fff"/>
      <path id="Trazado_156699" data-name="Trazado 156699" d="M0,0H208V85H0Z" transform="translate(1002 2753)" fill="#65ccc9"/>
      <path id="Trazado_156701" data-name="Trazado 156701" d="M3.989-2.236H9.9V0H1.206V-13.508H3.989ZM10.9-5.112a5.953,5.953,0,0,1,.575-2.663,4.211,4.211,0,0,1,1.656-1.809,4.831,4.831,0,0,1,2.51-.64A4.571,4.571,0,0,1,18.958-8.98,4.989,4.989,0,0,1,20.392-5.6l.019.687a5.247,5.247,0,0,1-1.29,3.706,4.482,4.482,0,0,1-3.46,1.4A4.5,4.5,0,0,1,12.2-1.206,5.339,5.339,0,0,1,10.9-4.991Zm2.681.195a3.742,3.742,0,0,0,.538,2.185,1.776,1.776,0,0,0,1.54.756,1.78,1.78,0,0,0,1.521-.747,4.1,4.1,0,0,0,.547-2.389,3.7,3.7,0,0,0-.547-2.171,1.78,1.78,0,0,0-1.54-.77,1.751,1.751,0,0,0-1.521.765A4.164,4.164,0,0,0,13.582-4.917Zm11.689-7.589v2.468h1.716v1.967H25.271v5.01a1.2,1.2,0,0,0,.213.8,1.072,1.072,0,0,0,.816.241,4.276,4.276,0,0,0,.789-.065V-.056a5.52,5.52,0,0,1-1.624.241A2.56,2.56,0,0,1,22.59-2.663V-8.071H21.125v-1.967H22.59v-2.468ZM33.1.186a4.928,4.928,0,0,1-3.595-1.354A4.815,4.815,0,0,1,28.12-4.778v-.26a6.064,6.064,0,0,1,.584-2.7A4.289,4.289,0,0,1,30.36-9.579a4.648,4.648,0,0,1,2.445-.645,4.166,4.166,0,0,1,3.242,1.3A5.278,5.278,0,0,1,37.23-5.242v1.095H30.838a2.491,2.491,0,0,0,.784,1.577,2.37,2.37,0,0,0,1.656.594A2.894,2.894,0,0,0,35.7-3.1l1.317,1.475A4.025,4.025,0,0,1,35.384-.292,5.357,5.357,0,0,1,33.1.186ZM32.8-8.053a1.679,1.679,0,0,0-1.294.538,2.78,2.78,0,0,0-.635,1.54H34.6v-.213a1.982,1.982,0,0,0-.482-1.378A1.733,1.733,0,0,0,32.8-8.053Zm5.539,2.941a5.953,5.953,0,0,1,.575-2.663,4.211,4.211,0,0,1,1.656-1.809,4.831,4.831,0,0,1,2.51-.64A4.571,4.571,0,0,1,46.391-8.98,4.989,4.989,0,0,1,47.825-5.6l.019.687a5.247,5.247,0,0,1-1.29,3.706,4.482,4.482,0,0,1-3.46,1.4,4.5,4.5,0,0,1-3.465-1.392,5.339,5.339,0,0,1-1.294-3.785Zm2.681.195a3.742,3.742,0,0,0,.538,2.185,1.776,1.776,0,0,0,1.54.756,1.78,1.78,0,0,0,1.521-.747,4.1,4.1,0,0,0,.547-2.389,3.7,3.7,0,0,0-.547-2.171,1.78,1.78,0,0,0-1.54-.77,1.751,1.751,0,0,0-1.521.765A4.164,4.164,0,0,0,41.015-4.917Z" transform="translate(1018 2802)" fill="#fff"/>
      <path id="Trazado_156686" data-name="Trazado 156686" d="M0,0H163V85H0Z" transform="translate(757 2753)" fill="#65ccc9"/>
      <path id="Trazado_156694" data-name="Trazado 156694" d="M3.989-4.759V0H1.206V-13.508h5.27a6.1,6.1,0,0,1,2.677.557,4.1,4.1,0,0,1,1.777,1.582,4.411,4.411,0,0,1,.622,2.333,3.878,3.878,0,0,1-1.359,3.131A5.661,5.661,0,0,1,6.429-4.759Zm0-2.254H6.476a2.445,2.445,0,0,0,1.684-.52,1.89,1.89,0,0,0,.58-1.484,2.228,2.228,0,0,0-.584-1.6,2.183,2.183,0,0,0-1.614-.631H3.989ZM19,0a2.977,2.977,0,0,1-.269-.9A3.244,3.244,0,0,1,16.2.186a3.564,3.564,0,0,1-2.445-.854,2.745,2.745,0,0,1-.969-2.152A2.837,2.837,0,0,1,13.967-5.27a5.837,5.837,0,0,1,3.419-.863H18.62v-.575a1.654,1.654,0,0,0-.357-1.113,1.405,1.405,0,0,0-1.127-.417,1.6,1.6,0,0,0-1.062.325,1.1,1.1,0,0,0-.385.891H13.007a2.693,2.693,0,0,1,.538-1.614A3.557,3.557,0,0,1,15.066-9.8a5.545,5.545,0,0,1,2.208-.422,4.381,4.381,0,0,1,2.946.932A3.262,3.262,0,0,1,21.31-6.67v4.351a4.8,4.8,0,0,0,.4,2.162V0ZM16.783-1.865a2.309,2.309,0,0,0,1.095-.264,1.737,1.737,0,0,0,.742-.71V-4.564h-1q-2.013,0-2.143,1.392l-.009.158a1.073,1.073,0,0,0,.353.826A1.369,1.369,0,0,0,16.783-1.865Zm6.2-3.229a5.883,5.883,0,0,1,1.1-3.72,3.562,3.562,0,0,1,2.964-1.41,3.124,3.124,0,0,1,2.57,1.132l.111-.946h2.431v9.7a4.29,4.29,0,0,1-.6,2.292,3.843,3.843,0,0,1-1.684,1.484,5.919,5.919,0,0,1-2.542.51,5.5,5.5,0,0,1-2.152-.441,3.82,3.82,0,0,1-1.586-1.136L24.78.742A3.141,3.141,0,0,0,27.21,1.865a2.3,2.3,0,0,0,1.661-.571,2.14,2.14,0,0,0,.594-1.619V-.863A3.1,3.1,0,0,1,27.025.186,3.553,3.553,0,0,1,24.1-1.229,5.881,5.881,0,0,1,22.98-4.982Zm2.681.195a3.653,3.653,0,0,0,.547,2.138,1.742,1.742,0,0,0,1.5.775A1.862,1.862,0,0,0,29.465-2.9V-7.125a1.858,1.858,0,0,0-1.735-.918,1.753,1.753,0,0,0-1.517.789A4.118,4.118,0,0,0,25.661-4.9ZM40.032,0a2.977,2.977,0,0,1-.269-.9A3.244,3.244,0,0,1,37.23.186a3.564,3.564,0,0,1-2.445-.854,2.745,2.745,0,0,1-.969-2.152A2.837,2.837,0,0,1,35-5.27a5.837,5.837,0,0,1,3.419-.863h1.234v-.575a1.654,1.654,0,0,0-.357-1.113,1.405,1.405,0,0,0-1.127-.417,1.6,1.6,0,0,0-1.062.325,1.1,1.1,0,0,0-.385.891H34.039a2.693,2.693,0,0,1,.538-1.614A3.557,3.557,0,0,1,36.1-9.8a5.545,5.545,0,0,1,2.208-.422,4.381,4.381,0,0,1,2.946.932,3.262,3.262,0,0,1,1.09,2.621v4.351a4.8,4.8,0,0,0,.4,2.162V0ZM37.814-1.865a2.309,2.309,0,0,0,1.095-.264,1.737,1.737,0,0,0,.742-.71V-4.564h-1q-2.013,0-2.143,1.392l-.009.158a1.073,1.073,0,0,0,.353.826A1.369,1.369,0,0,0,37.814-1.865ZM50.042-7.524a7.284,7.284,0,0,0-.965-.074,1.964,1.964,0,0,0-1.995,1.03V0H44.4V-10.038h2.533l.074,1.2a2.484,2.484,0,0,1,2.236-1.382,2.809,2.809,0,0,1,.835.121Zm15.809-3.729H61.713V0H58.93V-11.253H54.848v-2.254h11ZM70.09,0H67.4V-10.038h2.69ZM67.242-12.636a1.32,1.32,0,0,1,.4-.993,1.516,1.516,0,0,1,1.1-.39,1.52,1.52,0,0,1,1.095.39,1.313,1.313,0,0,1,.408.993,1.316,1.316,0,0,1-.413,1,1.523,1.523,0,0,1-1.09.39,1.523,1.523,0,0,1-1.09-.39A1.316,1.316,0,0,1,67.242-12.636Zm4.639,7.524a6,6,0,0,1,1.053-3.739,3.443,3.443,0,0,1,2.89-1.373,3.082,3.082,0,0,1,2.57,1.234l.176-1.048h2.356v13.9h-2.69V-.863A3.091,3.091,0,0,1,75.805.186a3.417,3.417,0,0,1-2.857-1.392A6.294,6.294,0,0,1,71.881-5.112Zm2.681.195a3.925,3.925,0,0,0,.506,2.189,1.619,1.619,0,0,0,1.424.751,1.8,1.8,0,0,0,1.744-.983V-7.106a1.789,1.789,0,0,0-1.726-.946,1.639,1.639,0,0,0-1.438.751A4.335,4.335,0,0,0,74.562-4.917Zm14.482,3.9A3.362,3.362,0,0,1,86.3.186a3.171,3.171,0,0,1-2.463-.928,3.96,3.96,0,0,1-.867-2.718v-6.578h2.681v6.485q0,1.568,1.429,1.568a1.937,1.937,0,0,0,1.874-.946v-7.106h2.69V0H89.118ZM98.284.186a4.928,4.928,0,0,1-3.595-1.354A4.815,4.815,0,0,1,93.3-4.778v-.26a6.064,6.064,0,0,1,.584-2.7,4.289,4.289,0,0,1,1.656-1.837,4.648,4.648,0,0,1,2.445-.645,4.166,4.166,0,0,1,3.242,1.3,5.278,5.278,0,0,1,1.183,3.683v1.095H96.021A2.491,2.491,0,0,0,96.8-2.57a2.37,2.37,0,0,0,1.656.594A2.894,2.894,0,0,0,100.882-3.1L102.2-1.624a4.025,4.025,0,0,1-1.633,1.331A5.357,5.357,0,0,1,98.284.186Zm-.306-8.238a1.679,1.679,0,0,0-1.294.538,2.78,2.78,0,0,0-.635,1.54h3.729v-.213A1.982,1.982,0,0,0,99.3-7.566,1.733,1.733,0,0,0,97.978-8.053Zm9.166-4.453v2.468h1.716v1.967h-1.716v5.01a1.2,1.2,0,0,0,.213.8,1.072,1.072,0,0,0,.816.241,4.276,4.276,0,0,0,.789-.065V-.056a5.52,5.52,0,0,1-1.624.241,2.56,2.56,0,0,1-2.876-2.848V-8.071H103v-1.967h1.466v-2.468ZM114.974.186a4.928,4.928,0,0,1-3.595-1.354,4.815,4.815,0,0,1-1.387-3.609v-.26a6.064,6.064,0,0,1,.584-2.7,4.289,4.289,0,0,1,1.656-1.837,4.648,4.648,0,0,1,2.445-.645,4.166,4.166,0,0,1,3.242,1.3A5.278,5.278,0,0,1,119.1-5.242v1.095H112.71a2.491,2.491,0,0,0,.784,1.577,2.37,2.37,0,0,0,1.656.594A2.894,2.894,0,0,0,117.572-3.1l1.317,1.475a4.025,4.025,0,0,1-1.633,1.331A5.357,5.357,0,0,1,114.974.186Zm-.306-8.238a1.679,1.679,0,0,0-1.294.538,2.78,2.78,0,0,0-.635,1.54h3.729v-.213a1.982,1.982,0,0,0-.482-1.378A1.733,1.733,0,0,0,114.668-8.053Zm11.393,5.279a.864.864,0,0,0-.487-.775,5.533,5.533,0,0,0-1.563-.506q-3.581-.751-3.581-3.043a2.758,2.758,0,0,1,1.109-2.231,4.472,4.472,0,0,1,2.9-.9,4.813,4.813,0,0,1,3.057.9,2.836,2.836,0,0,1,1.146,2.338h-2.681a1.3,1.3,0,0,0-.371-.951,1.57,1.57,0,0,0-1.16-.376,1.6,1.6,0,0,0-1.048.306.966.966,0,0,0-.371.779.826.826,0,0,0,.422.719,4.342,4.342,0,0,0,1.424.473,11.631,11.631,0,0,1,1.688.45,2.774,2.774,0,0,1,2.125,2.7,2.618,2.618,0,0,1-1.178,2.222,5.083,5.083,0,0,1-3.043.849,5.309,5.309,0,0,1-2.24-.45A3.759,3.759,0,0,1,120.67-1.5a2.867,2.867,0,0,1-.557-1.693h2.542a1.4,1.4,0,0,0,.529,1.095,2.1,2.1,0,0,0,1.317.38,1.941,1.941,0,0,0,1.164-.292A.909.909,0,0,0,126.061-2.774Z" transform="translate(773 2802)" fill="#fff"/>
      <path id="Trazado_156687" data-name="Trazado 156687" d="M0,0H104V85H0Z" transform="translate(573 2753)" fill="#65ccc9"/>
      <path id="Trazado_156695" data-name="Trazado 156695" d="M8.832-2.783H3.952L3.024,0H.065L5.093-13.508H7.672L12.729,0H9.769ZM4.7-5.038H8.081l-1.7-5.056Zm11.179-5,.083,1.123a3.528,3.528,0,0,1,2.885-1.308,2.677,2.677,0,0,1,2.663,1.531,3.447,3.447,0,0,1,3.015-1.531,2.994,2.994,0,0,1,2.431.951,4.371,4.371,0,0,1,.8,2.862V0h-2.69V-6.4a1.911,1.911,0,0,0-.334-1.248,1.48,1.48,0,0,0-1.178-.394,1.673,1.673,0,0,0-1.67,1.15L21.895,0H19.213V-6.392a1.888,1.888,0,0,0-.343-1.262,1.5,1.5,0,0,0-1.169-.39A1.738,1.738,0,0,0,16.05-7.1V0H13.369V-10.038ZM35.634,0a2.977,2.977,0,0,1-.269-.9A3.244,3.244,0,0,1,32.833.186a3.564,3.564,0,0,1-2.445-.854,2.745,2.745,0,0,1-.969-2.152A2.837,2.837,0,0,1,30.6-5.27a5.837,5.837,0,0,1,3.419-.863h1.234v-.575A1.654,1.654,0,0,0,34.9-7.821a1.405,1.405,0,0,0-1.127-.417,1.6,1.6,0,0,0-1.062.325,1.1,1.1,0,0,0-.385.891H29.641a2.693,2.693,0,0,1,.538-1.614A3.557,3.557,0,0,1,31.7-9.8a5.545,5.545,0,0,1,2.208-.422,4.381,4.381,0,0,1,2.946.932,3.262,3.262,0,0,1,1.09,2.621v4.351a4.8,4.8,0,0,0,.4,2.162V0ZM33.417-1.865a2.309,2.309,0,0,0,1.095-.264,1.737,1.737,0,0,0,.742-.71V-4.564h-1q-2.013,0-2.143,1.392l-.009.158a1.073,1.073,0,0,0,.353.826A1.369,1.369,0,0,0,33.417-1.865ZM45.645-7.524A7.284,7.284,0,0,0,44.68-7.6a1.964,1.964,0,0,0-1.995,1.03V0H40V-10.038h2.533l.074,1.2a2.484,2.484,0,0,1,2.236-1.382,2.809,2.809,0,0,1,.835.121Zm6.93,0A7.284,7.284,0,0,0,51.61-7.6a1.964,1.964,0,0,0-1.995,1.03V0H46.934V-10.038h2.533l.074,1.2a2.484,2.484,0,0,1,2.236-1.382,2.809,2.809,0,0,1,.835.121ZM58.308.186a4.928,4.928,0,0,1-3.595-1.354,4.815,4.815,0,0,1-1.387-3.609v-.26a6.064,6.064,0,0,1,.584-2.7,4.289,4.289,0,0,1,1.656-1.837,4.648,4.648,0,0,1,2.445-.645,4.166,4.166,0,0,1,3.242,1.3,5.278,5.278,0,0,1,1.183,3.683v1.095H56.044a2.491,2.491,0,0,0,.784,1.577,2.37,2.37,0,0,0,1.656.594A2.894,2.894,0,0,0,60.906-3.1l1.317,1.475A4.025,4.025,0,0,1,60.59-.292,5.357,5.357,0,0,1,58.308.186ZM58-8.053a1.679,1.679,0,0,0-1.294.538,2.78,2.78,0,0,0-.635,1.54H59.8v-.213a1.982,1.982,0,0,0-.482-1.378A1.733,1.733,0,0,0,58-8.053Z" transform="translate(589 2802)" fill="#fff"/>
      <path id="Trazado_156688" data-name="Trazado 156688" d="M0,0H104V85H0Z" transform="translate(394 2753)" fill="#65ccc9"/>
      <path id="Trazado_156690" data-name="Trazado 156690" d="M9.333-5.854H3.989v3.618h6.271V0H1.206V-13.508h9.036v2.254H3.989v3.219H9.333Zm4.852-4.184.083,1.16a3.5,3.5,0,0,1,2.885-1.345,2.913,2.913,0,0,1,2.375.937,4.372,4.372,0,0,1,.8,2.8V0H17.646V-6.42a1.739,1.739,0,0,0-.371-1.239,1.661,1.661,0,0,0-1.234-.385,1.844,1.844,0,0,0-1.7.965V0H11.662V-10.038ZM26.116-3.275l1.865-6.763h2.8L27.4,0H24.835L21.449-10.038h2.8ZM34.79,0H32.1V-10.038h2.69ZM31.942-12.636a1.32,1.32,0,0,1,.4-.993,1.516,1.516,0,0,1,1.1-.39,1.52,1.52,0,0,1,1.095.39,1.313,1.313,0,0,1,.408.993,1.316,1.316,0,0,1-.413,1,1.523,1.523,0,0,1-1.09.39,1.523,1.523,0,0,1-1.09-.39A1.316,1.316,0,0,1,31.942-12.636Zm4.639,7.524a5.953,5.953,0,0,1,.575-2.663,4.211,4.211,0,0,1,1.656-1.809,4.831,4.831,0,0,1,2.51-.64A4.571,4.571,0,0,1,44.638-8.98,4.989,4.989,0,0,1,46.071-5.6l.019.687A5.247,5.247,0,0,1,44.8-1.211a4.482,4.482,0,0,1-3.46,1.4,4.5,4.5,0,0,1-3.465-1.392,5.339,5.339,0,0,1-1.294-3.785Zm2.681.195A3.742,3.742,0,0,0,39.8-2.732a1.776,1.776,0,0,0,1.54.756,1.78,1.78,0,0,0,1.521-.747,4.1,4.1,0,0,0,.547-2.389,3.7,3.7,0,0,0-.547-2.171,1.78,1.78,0,0,0-1.54-.77,1.751,1.751,0,0,0-1.521.765A4.164,4.164,0,0,0,39.262-4.917ZM58.29,0a2.977,2.977,0,0,1-.269-.9A3.244,3.244,0,0,1,55.488.186a3.564,3.564,0,0,1-2.445-.854,2.745,2.745,0,0,1-.969-2.152A2.837,2.837,0,0,1,53.257-5.27a5.837,5.837,0,0,1,3.419-.863h1.234v-.575a1.654,1.654,0,0,0-.357-1.113,1.405,1.405,0,0,0-1.127-.417,1.6,1.6,0,0,0-1.062.325,1.1,1.1,0,0,0-.385.891H52.3a2.693,2.693,0,0,1,.538-1.614A3.557,3.557,0,0,1,54.356-9.8a5.545,5.545,0,0,1,2.208-.422,4.381,4.381,0,0,1,2.946.932A3.262,3.262,0,0,1,60.6-6.67v4.351A4.8,4.8,0,0,0,61-.158V0ZM56.072-1.865a2.309,2.309,0,0,0,1.095-.264,1.737,1.737,0,0,0,.742-.71V-4.564h-1q-2.013,0-2.143,1.392l-.009.158a1.073,1.073,0,0,0,.353.826A1.369,1.369,0,0,0,56.072-1.865ZM65.489,0H62.8V-14.25h2.69ZM11.81,20.5a4.78,4.78,0,0,1-1.61,3.433,5.653,5.653,0,0,1-3.827,1.252,5.083,5.083,0,0,1-4.087-1.749A7.171,7.171,0,0,1,.8,18.636V17.81a8.1,8.1,0,0,1,.687-3.433A5.145,5.145,0,0,1,3.447,12.1a5.5,5.5,0,0,1,2.964-.793,5.507,5.507,0,0,1,3.767,1.252,5.137,5.137,0,0,1,1.651,3.516H9.045a2.821,2.821,0,0,0-.728-1.9,2.7,2.7,0,0,0-1.906-.589,2.365,2.365,0,0,0-2.083,1,5.589,5.589,0,0,0-.71,3.094V18.7a5.982,5.982,0,0,0,.663,3.2,2.321,2.321,0,0,0,2.092,1.011A2.748,2.748,0,0,0,8.3,22.323,2.661,2.661,0,0,0,9.027,20.5ZM13.6,23.683a1.35,1.35,0,0,1,.431-1.039,1.676,1.676,0,0,1,2.171,0,1.35,1.35,0,0,1,.431,1.039,1.331,1.331,0,0,1-.427,1.025,1.7,1.7,0,0,1-2.18,0A1.331,1.331,0,0,1,13.6,23.683ZM22.117,25H19.334V11.492h2.783Z" transform="translate(410 2790)" fill="#fff"/>
      <path id="Trazado_156682" data-name="Trazado 156682" d="M-11401,11723h-38v-14h38v-9l28,16-28,16Z" transform="translate(12064 -9245)" fill="#0ac4bf"/>
      <path id="Trazado_156689" data-name="Trazado 156689" d="M-11401,11723h-38v-14h38v-9l28,16-28,16Z" transform="translate(12362 -9245)" fill="#0ac4bf"/>
      <path id="Trazado_156702" data-name="Trazado 156702" d="M-11401,11723h-38v-14h38v-9l28,16-28,16Z" transform="translate(12822 13950) rotate(90)" fill="#0ac4bf"/>
      <path id="Trazado_156703" data-name="Trazado 156703" d="M-11401,11723h-38v-14h38v-9l28,16-28,16Z" transform="translate(12822 14103) rotate(90)" fill="#0ac4bf"/>
      <path id="Trazado_156691" data-name="Trazado 156691" d="M-11401,11723h-38v-14h38v-9l28,16-28,16Z" transform="translate(-10437 14511.001) rotate(180)" fill="#0ac4bf"/>
      <path id="Trazado_156692" data-name="Trazado 156692" d="M-11401,11723h-38v-14h38v-9l28,16-28,16Z" transform="translate(-10682 14511.001) rotate(180)" fill="#0ac4bf"/>
      <path id="Trazado_156693" data-name="Trazado 156693" d="M-11401,11723h-38v-14h38v-9l28,16-28,16Z" transform="translate(-10866 14511.001) rotate(180)" fill="#0ac4bf"/>
    </g>
    <g id="cortar" transform="translate(544.014 2568)">
      <path id="Trazado_156704" data-name="Trazado 156704" d="M29.15,31.281A11.955,11.955,0,0,0,12.3,32.308l-.713.8a11.94,11.94,0,1,0,17.88,15.829l.715-.8A11.957,11.957,0,0,0,29.15,31.281ZM27.557,45.816l-.715.806A8.441,8.441,0,1,1,14.2,35.434l.713-.806A8.442,8.442,0,0,1,27.557,45.816Z" fill="#0ac4bf"/>
      <path id="Trazado_156705" data-name="Trazado 156705" d="M29.463,79.058A11.94,11.94,0,1,0,11.582,94.887l.713.8A11.939,11.939,0,1,0,30.177,79.862ZM26.83,94.1a8.45,8.45,0,0,1-11.914-.726l-.713-.806A8.44,8.44,0,1,1,26.843,81.38l.713.806A8.45,8.45,0,0,1,26.83,94.1Z" fill="#0ac4bf"/>
      <path id="Trazado_156706" data-name="Trazado 156706" d="M46.725,59.054A4.946,4.946,0,1,0,51.671,64,4.946,4.946,0,0,0,46.725,59.054Zm0,6.392A1.446,1.446,0,1,1,48.171,64a1.446,1.446,0,0,1-1.446,1.446Z" fill="#0ac4bf"/>
      <path id="Trazado_156707" data-name="Trazado 156707" d="M58.361,64,101.87,27.774a1.749,1.749,0,0,0,.19-2.5A16.618,16.618,0,0,0,90.209,19.72a19.166,19.166,0,0,0-13.875,5.3L47.417,52.727c-.23-.014-.459-.035-.692-.035a11.262,11.262,0,0,0-1.763.152l-5.02-4.18A20.522,20.522,0,0,0,5.87,26.619l-.714.8A20.522,20.522,0,0,0,30.433,59l5,4.787c0,.072-.011.142-.011.215s.009.143.011.215l-5,4.783A20.522,20.522,0,0,0,5.157,100.576l.712.805a20.394,20.394,0,0,0,14.12,6.882c.426.025.851.039,1.275.039A20.524,20.524,0,0,0,39.942,79.336l5.02-4.18a11.263,11.263,0,0,0,1.763.152c.233,0,.462-.021.692-.035L76.34,102.99a19.161,19.161,0,0,0,13.093,5.31q.387,0,.776-.017a16.618,16.618,0,0,0,11.851-5.554,1.749,1.749,0,0,0-.19-2.5ZM46.725,71.808A7.748,7.748,0,0,1,44.97,71.6h0a7.8,7.8,0,0,1,0-15.2h.008a7.773,7.773,0,0,1,9.544,7.238v.021c.005.115.017.227.017.343s-.012.228-.017.343v.021a7.812,7.812,0,0,1-7.8,7.442ZM78.75,27.549a15.581,15.581,0,0,1,11.307-4.336,13.269,13.269,0,0,1,8.088,3.107L57.384,60.259a11.354,11.354,0,0,0-5.955-6.529Zm-46.857,28a1.749,1.749,0,0,0-2.159-.207,17.023,17.023,0,0,1-21.958-25.6l.714-.8A17.021,17.021,0,0,1,36.221,48.294a1.75,1.75,0,0,0,.42,2.176l4.474,3.73a11.367,11.367,0,0,0-4.856,5.538ZM36.641,77.53a1.75,1.75,0,0,0-.42,2.176A17.022,17.022,0,0,1,8.489,99.06l-.712-.8a17.022,17.022,0,0,1,21.957-25.6,1.746,1.746,0,0,0,2.159-.207l4.366-4.184a11.367,11.367,0,0,0,4.856,5.538Zm53.416,27.257a15.626,15.626,0,0,1-11.3-4.33L51.429,74.27a11.354,11.354,0,0,0,5.955-6.529L98.145,101.68a13.269,13.269,0,0,1-8.088,3.107Z" fill="#0ac4bf"/>
      <path id="Trazado_156708" data-name="Trazado 156708" d="M67.812,62.25a1.75,1.75,0,0,0,0,3.5H76.67a1.75,1.75,0,0,0,0-3.5Z" fill="#0ac4bf"/>
      <path id="Trazado_156709" data-name="Trazado 156709" d="M84.235,62.25a1.75,1.75,0,0,0,0,3.5h8.857a1.75,1.75,0,0,0,0-3.5Z" fill="#0ac4bf"/>
      <path id="Trazado_156710" data-name="Trazado 156710" d="M109.515,62.25h-8.857a1.75,1.75,0,0,0,0,3.5h8.857a1.75,1.75,0,0,0,0-3.5Z" fill="#0ac4bf"/>
      <path id="Trazado_156711" data-name="Trazado 156711" d="M125.937,62.25H117.08a1.75,1.75,0,0,0,0,3.5h8.857a1.75,1.75,0,1,0,0-3.5Z" fill="#0ac4bf"/>
    </g>
    <path id="Trazado_156712" data-name="Trazado 156712" d="M12118.828-9068h295.4" transform="translate(-11439 11700)" fill="none" stroke="#0ac4bf" stroke-linecap="round" stroke-width="3"/>
  </g>
</svg>
