<svg id="img19" xmlns="http://www.w3.org/2000/svg" width="219.27" height="219.27" viewBox="0 0 219.27 219.27">
  <path id="Trazado_153870" data-name="Trazado 153870" d="M287.36,102.848h29.46l-40.426,40.425,9.084,9.084L325.9,111.932v29.46h12.848V90H287.36Zm0,0" transform="translate(-158.026 -51.457)" fill="#0ac4bf"/>
  <path id="Trazado_153871" data-name="Trazado 153871" d="M452,0V12.848h12.848V25.7H477.7V0Zm0,0" transform="translate(-258.426)" fill="#0ac4bf"/>
  <path id="Trazado_153872" data-name="Trazado 153872" d="M464.848,372.848H452V385.7h25.7V360H464.848Zm0,0" transform="translate(-258.426 -205.826)" fill="#0ac4bf"/>
  <path id="Trazado_153873" data-name="Trazado 153873" d="M482,90h12.848v25.7H482Zm0,0" transform="translate(-275.578 -51.457)" fill="#0ac4bf"/>
  <path id="Trazado_153874" data-name="Trazado 153874" d="M482,180h12.848v25.7H482Zm0,0" transform="translate(-275.578 -102.913)" fill="#0ac4bf"/>
  <path id="Trazado_153875" data-name="Trazado 153875" d="M482,270h12.848v25.7H482Zm0,0" transform="translate(-275.578 -154.37)" fill="#0ac4bf"/>
  <path id="Trazado_153876" data-name="Trazado 153876" d="M104.848,12.848H117.7V0H92V25.7h12.848Zm0,0" transform="translate(-52.6)" fill="#0ac4bf"/>
  <path id="Trazado_153877" data-name="Trazado 153877" d="M92,90h12.848v25.7H92Zm0,0" transform="translate(-52.6 -51.457)" fill="#0ac4bf"/>
  <path id="Trazado_153878" data-name="Trazado 153878" d="M92,180h12.848v25.7H92Zm0,0" transform="translate(-52.6 -102.913)" fill="#0ac4bf"/>
  <path id="Trazado_153879" data-name="Trazado 153879" d="M182,0h25.7V12.848H182Zm0,0" transform="translate(-104.057)" fill="#0ac4bf"/>
  <path id="Trazado_153880" data-name="Trazado 153880" d="M272,0h25.7V12.848H272Zm0,0" transform="translate(-155.513)" fill="#0ac4bf"/>
  <path id="Trazado_153881" data-name="Trazado 153881" d="M362,0h25.7V12.848H362Zm0,0" transform="translate(-206.97)" fill="#0ac4bf"/>
  <path id="Trazado_153882" data-name="Trazado 153882" d="M272,390h25.7v12.848H272Zm0,0" transform="translate(-155.513 -222.978)" fill="#0ac4bf"/>
  <path id="Trazado_153883" data-name="Trazado 153883" d="M362,390h25.7v12.848H362Zm0,0" transform="translate(-206.97 -222.978)" fill="#0ac4bf"/>
  <path id="Trazado_153884" data-name="Trazado 153884" d="M0,272H102.783V374.783H0Zm0,0" transform="translate(0 -155.513)" fill="#bf3976"/>
</svg>
