<svg xmlns="http://www.w3.org/2000/svg" width="220" height="232" viewBox="0 0 220 232">
  <g id="img13" transform="translate(-233 -4635)">
    <g id="Right" transform="translate(233.438 4635)">
      <rect id="BG" width="220" height="232" transform="translate(-0.438)" fill="#339ce9" opacity="0.949"/>
    </g>
    <g id="escala-de-peso" transform="translate(266 4684.622)">
      <g id="Grupo_89918" data-name="Grupo 89918" transform="translate(3.004 3.004)">
        <path id="Trazado_153759" data-name="Trazado 153759" d="M99.267,140.215H60.224a10.71,10.71,0,0,0-10.547,8.033L30.322,217.872c-2.029,7.293,2.882,10.411,7.307,10.411H160.9c4.425,0,9.336-3.118,7.307-10.411l-19.355-69.624a10.71,10.71,0,0,0-10.547-8.033Zm0,0" transform="translate(-23.877 -101.045)" fill="#0ac4bf" fill-rule="evenodd"/>
        <path id="Trazado_153760" data-name="Trazado 153760" d="M185.971,179.949a32.108,32.108,0,1,0,22.705,9.4A32,32,0,0,0,185.971,179.949Zm0,0" transform="translate(-110.58 -128.828)" fill="#f9fceb" fill-rule="evenodd"/>
        <path id="Trazado_153761" data-name="Trazado 153761" d="M157.98,9.988H9.988a19.43,19.43,0,0,0,19.38,19.363H138.6A19.43,19.43,0,0,0,157.98,9.988Zm0,0" transform="translate(-9.988 -9.988)" fill="#bf3976" fill-rule="evenodd"/>
        <path id="Trazado_153762" data-name="Trazado 153762" d="M165.414,74.363h12.568V94.17H165.414Zm0,0" transform="translate(-118.665 -55)" fill="#f2d6e3" fill-rule="evenodd"/>
        <path id="Trazado_153763" data-name="Trazado 153763" d="M309.2,74.363h12.576V94.17H309.2Zm0,0" transform="translate(-219.199 -55)" fill="#f2d6e3" fill-rule="evenodd"/>
        <path id="Trazado_153764" data-name="Trazado 153764" d="M248.07,268.063a5.587,5.587,0,1,0,5.4,5.58A5.494,5.494,0,0,0,248.07,268.063Zm0,0" transform="translate(-172.68 -190.439)" fill="#ff6977" fill-rule="evenodd"/>
      </g>
      <path id="Trazado_153765" data-name="Trazado 153765" d="M154.319,230a35.08,35.08,0,0,0,49.334,0c.055-.048.112-.1.163-.148s.1-.1.142-.157a35,35,0,0,0,.066-49.231c-.065-.079-.134-.156-.208-.23a3.022,3.022,0,0,0-.234-.21,35.084,35.084,0,0,0-49.194,0c-.08.066-.159.135-.234.21s-.142.152-.207.23a35,35,0,0,0,.066,49.231c.046.053.092.107.142.157S154.264,229.956,154.319,230Zm-4.293-21.952h3.44a3,3,0,0,0,0-6.009h-3.44a28.924,28.924,0,0,1,6.37-15.319l2.424,2.422a3,3,0,1,0,4.247-4.25l-2.418-2.417a28.994,28.994,0,0,1,15.333-6.355v3.426a3,3,0,1,0,6.007,0v-3.426a28.993,28.993,0,0,1,15.334,6.356L194.9,184.9a3,3,0,1,0,4.246,4.251l2.424-2.423a28.925,28.925,0,0,1,6.372,15.319H204.5a3,3,0,1,0,0,6.009h3.441a28.943,28.943,0,0,1-6.369,15.321l-2.426-2.425A3,3,0,0,0,194.9,225.2l2.423,2.419a29,29,0,0,1-15.337,6.361v-3.434a3,3,0,1,0-6.007,0v3.434a29,29,0,0,1-15.337-6.361l2.423-2.419a3,3,0,1,0-4.247-4.251l-2.426,2.424A28.934,28.934,0,0,1,150.026,208.052Zm0,0" transform="translate(-100.592 -118.84)"/>
      <path id="Trazado_153766" data-name="Trazado 153766" d="M241.083,258.475a8.616,8.616,0,0,0,3-16.609v-4.78a3,3,0,1,0-6.009,0v4.78a8.616,8.616,0,0,0,3.005,16.609Zm0-6.009a2.586,2.586,0,1,1,2.4-2.584A2.5,2.5,0,0,1,241.083,252.466Zm0,0" transform="translate(-162.689 -163.675)"/>
      <path id="Trazado_153767" data-name="Trazado 153767" d="M130.877,49.4A13.661,13.661,0,0,0,117.436,39.17H108.58v-13.8h23.036A22.4,22.4,0,0,0,154,3a3,3,0,0,0-3-3H3A3,3,0,0,0,0,3,22.4,22.4,0,0,0,22.385,25.373H46.75v13.8h-7.4A13.662,13.662,0,0,0,25.911,49.4L18.826,74.873a3,3,0,1,0,5.788,1.61L31.7,51.013a7.706,7.706,0,0,1,7.652-5.835h78.084a7.7,7.7,0,0,1,7.652,5.834l19.356,69.625c.408,1.466.672,3.507-.385,4.9a5.147,5.147,0,0,1-4.028,1.7H16.757a5.143,5.143,0,0,1-4.026-1.7c-1.059-1.393-.794-3.434-.385-4.9l5.584-20.114a3,3,0,1,0-5.789-1.607L6.556,119.026c-1.4,5.031-.018,8.294,1.39,10.145a11.009,11.009,0,0,0,8.811,4.075H140.031a11.012,11.012,0,0,0,8.812-4.075c1.406-1.852,2.789-5.114,1.39-10.144ZM6.286,6.009H147.715a16.4,16.4,0,0,1-16.1,13.355H22.385A16.4,16.4,0,0,1,6.286,6.009ZM90,25.371v13.8H65.326v-13.8ZM52.758,39.17v-13.8h6.56v13.8ZM96,39.17v-13.8h6.568v13.8Zm0,0"/>
      <path id="Trazado_153768" data-name="Trazado 153768" d="M52.538,289.609a3,3,0,0,0,3.8-1.9l.018-.051a3,3,0,0,0-5.7-1.9l-.018.051A3.006,3.006,0,0,0,52.538,289.609Zm0,0" transform="translate(-35.298 -198.37)"/>
    </g>
  </g>
</svg>
