<svg xmlns="http://www.w3.org/2000/svg" width="739" height="454.131" viewBox="0 0 739 454.131">
  <g id="img3" transform="translate(-384 -1542)">
    <path id="Trazado_153638" data-name="Trazado 153638" d="M33,0H706a33,33,0,0,1,33,33V384a33,33,0,0,1-33,33H33A33,33,0,0,1,0,384V33A33,33,0,0,1,33,0Z" transform="translate(384 1542)" fill="#f5f5f5"/>
    <g id="Grupo_89888" data-name="Grupo 89888" transform="translate(0 -36)">
      <path id="Trazado_153607" data-name="Trazado 153607" d="M263.728,370.862a75.019,75.019,0,0,0-53.707-.233,73.777,73.777,0,0,0-21.368,12.791,74.541,74.541,0,0,0-20.342,27.661c-1.163,2.777-2.175,5.732-1.929,8.741l.041.369c-8.167-32.161-37.3-54.473-52.736-83.912-7.633-14.555-11.778-30.643-17.524-46.033-5.951-15.91-13.625-31.108-21.272-46.265q-9.254-18.324-18.5-36.648c-2.517-4.979-5.062-10.027-8.741-14.227-2.066-2.353-4.473-4.432-6.17-7.072-5.075-7.866-2.3-18.947,4.213-25.663s15.869-9.849,25.048-11.724c15.841-3.228,34.815-2.148,44.856,10.4.711-.191,1.436-.383,2.148-.588,16.484,21.751,25.964,48.345,43.2,69.548,12.64,15.554,29.165,27.825,40.328,44.459,10.41,15.486,15.622,33.953,25.8,49.6,9.07,13.94,21.792,25.2,31.094,39A69.327,69.327,0,0,1,263.728,370.862Z" transform="translate(396.316 1586.733)" fill="#c2fcfa" stroke="#0ac4bf" stroke-miterlimit="10" stroke-width="1"/>
      <path id="Trazado_153608" data-name="Trazado 153608" d="M593.731,232.97c-25.828,11.943-48.468,29.822-73.721,42.968-14.391,7.5-29.617,13.434-43.269,22.216-13.174,8.482-24.583,19.425-37.168,28.769-34.678,25.745-77.182,38.6-114.062,61.067-27.018,16.457-51.3,38.194-80.369,50.191a31.047,31.047,0,0,0,2.134-6.265c2.189-9.836-2.271-21.45-10.9-25.923-.287-.725-.616-1.45-.958-2.161a69.324,69.324,0,0,0-5.554-9.795c-9.3-13.8-22.025-25.061-31.094-39-10.178-15.65-15.39-34.117-25.8-49.6C161.8,288.8,152.912,273.64,140.272,258.086c-17.237-21.2-28.728-50.383-45.212-72.134,53.05-14.692,94.459-43.816,148.987-51.86,10.875-1.6,24.35-10.722,34.925-13.718,16.115-4.555,27.661-5.953,42.517-13.7C345,94.407,385.172,73.133,410.863,66.539c3.119-.793,6.375-1.6,9.521-.958,3.557.725,6.471,3.174,9.439,5.267,13.119,9.207,29.836,12.326,42.626,21.97,18.44,13.912,13.58,55.076,35.933,60.89,3.639.944,7.51,1.286,10.766,3.146,3.078,1.751,5.28,4.678,7.442,7.483A395.066,395.066,0,0,0,593.731,232.97Z" transform="translate(416.995 1556.651)" fill="#83e5e2" stroke="#066f6c" stroke-miterlimit="10" stroke-width="1"/>
      <path id="Trazado_153609" data-name="Trazado 153609" d="M97.071,156.1q-.985-1.313-2.011-2.585" transform="translate(416.995 1589.094)" fill="#e98e7f" stroke="#0ac4bf" stroke-miterlimit="10" stroke-width="1"/>
      <path id="Trazado_153610" data-name="Trazado 153610" d="M94.96,155.83" transform="translate(416.958 1589.947)" fill="#e98e7f" stroke="#0ac4bf" stroke-miterlimit="10" stroke-width="1"/>
      <path id="Trazado_153611" data-name="Trazado 153611" d="M239.162,346.389c-3.9,8.427-11.4,15.185-19.425,20.15-21.19,13.078-48.184,24.658-71.919,17.134-7.1-2.244-14.852-14.973-15.687-22.3L132.09,361c-.246-3.01.766-5.964,1.929-8.741A74.541,74.541,0,0,1,154.361,324.6a73.777,73.777,0,0,1,21.368-12.791,75.019,75.019,0,0,1,53.707.233c.342.711.67,1.436.958,2.161,4.87,11.423,6.43,24.131,1.135,35.075C234.114,348.4,236.659,347.428,239.162,346.389Z" transform="translate(430.608 1645.557)" fill="#0ac4bf" stroke="#147c79" stroke-miterlimit="10" stroke-width="1"/>
      <path id="Trazado_153612" data-name="Trazado 153612" d="M185.91,315.309c6.457-2.709,13.406-5.472,20.273-4.09a16.414,16.414,0,0,1,4.391,1.546" transform="translate(450.426 1646.992)" fill="#c2fcfa" stroke="#0ac4bf" stroke-miterlimit="10" stroke-width="1"/>
      <path id="Trazado_153613" data-name="Trazado 153613" d="M207.59,312.53c-1.423-.67-2.873-1.3-4.35-1.86" transform="translate(456.803 1646.926)" fill="#e98e7f" stroke="#0ac4bf" stroke-miterlimit="10" stroke-width="1"/>
      <path id="Trazado_153614" data-name="Trazado 153614" d="M95.384,156.364c-.137-.178-.274-.356-.424-.534" transform="translate(416.958 1589.947)" fill="#e98e7f" stroke="#0ac4bf" stroke-miterlimit="10" stroke-width="1"/>
      <path id="Trazado_153615" data-name="Trazado 153615" d="M132.26,347.318c-.055-.192-.1-.4-.15-.588" transform="translate(430.629 1660.195)" fill="#e98e7f" stroke="#0ac4bf" stroke-miterlimit="10" stroke-width="1"/>
      <path id="Trazado_153616" data-name="Trazado 153616" d="M49.651,153.648C65.684,188.514,90.87,219.676,99.2,257.136" transform="translate(400.285 1589.145)" fill="#3ce8e3" stroke="#0ac4bf" stroke-miterlimit="10" stroke-width="1"/>
      <path id="Trazado_153617" data-name="Trazado 153617" d="M77.691,147.374q33.858,58.881,65.18,119.171" transform="translate(410.604 1586.835)" fill="#e98e7f" stroke="#0ac4bf" stroke-miterlimit="10" stroke-width="1"/>
      <path id="Trazado_153618" data-name="Trazado 153618" d="M155.762,335.2a262.59,262.59,0,0,0-27.232-56.245" transform="translate(429.311 1635.255)" fill="#c2fcfa" stroke="#0ac4bf" stroke-miterlimit="10" stroke-width="1"/>
      <path id="Trazado_153619" data-name="Trazado 153619" d="M121.225,278.437a55.075,55.075,0,0,1-9.854-21.665" transform="translate(422.997 1627.092)" fill="#c2fcfa" stroke="#0ac4bf" stroke-miterlimit="10" stroke-width="1"/>
      <path id="Trazado_153620" data-name="Trazado 153620" d="M141.075,249.535c8.622,10.319,17.284,20.695,24.146,32.26a113.725,113.725,0,0,0,6.851,11.02c2.057,2.709,4.458,5.135,6.65,7.737a64.288,64.288,0,0,1,13.133,25.632" transform="translate(433.928 1624.429)" fill="#82ebe9" stroke="#0ac4bf" stroke-miterlimit="10" stroke-width="1"/>
      <path id="Trazado_153621" data-name="Trazado 153621" d="M134.679,221.316a336.522,336.522,0,0,0,35.889,74.042" transform="translate(431.574 1614.045)" fill="#c2fcfa" stroke="#0ac4bf" stroke-miterlimit="10" stroke-width="1"/>
      <path id="Trazado_153622" data-name="Trazado 153622" d="M91.991,223.5l16.8,41.023" transform="translate(415.865 1614.848)" fill="#e98e7f" stroke="#0ac4bf" stroke-miterlimit="10" stroke-width="1"/>
      <path id="Trazado_153623" data-name="Trazado 153623" d="M86.27,237.091l10.919,22.351" transform="translate(413.76 1619.85)" fill="#e98e7f" stroke="#0ac4bf" stroke-miterlimit="10" stroke-width="1"/>
      <path id="Trazado_153624" data-name="Trazado 153624" d="M100.514,260.176c5.594,23.8,26.771,41.346,33.39,64.877" transform="translate(419.002 1628.345)" fill="#c2fcfa" stroke="#0ac4bf" stroke-miterlimit="10" stroke-width="1"/>
      <path id="Trazado_153625" data-name="Trazado 153625" d="M112.172,294.166l27.079,53.282" transform="translate(423.292 1640.853)" fill="#e98e7f" stroke="#0ac4bf" stroke-miterlimit="10" stroke-width="1"/>
      <path id="Trazado_153626" data-name="Trazado 153626" d="M44.073,158.222c3.679,14.163,11.9,26.658,17.581,40.145,7.728,18.354,10.9,38.908,22.413,55.16" transform="translate(398.232 1590.827)" fill="#0ac4bf" stroke="#0ac4bf" stroke-miterlimit="10" stroke-width="1"/>
      <path id="Trazado_153627" data-name="Trazado 153627" d="M63.968,192.363q8.448,23.7,14.819,48.083" transform="translate(405.553 1603.391)" fill="#e98e7f" stroke="#0ac4bf" stroke-miterlimit="10" stroke-width="1"/>
      <path id="Trazado_153628" data-name="Trazado 153628" d="M182.453,327.491c-9.464-1.78-19.75,4.636-22.313,13.918-.669,2.424-.729,5.356,1.093,7.088a7.418,7.418,0,0,0,3.777,1.631,27.357,27.357,0,0,0,13.178-.679c4.365-1.334,8.5-3.9,10.9-7.784s2.761-9.174.185-12.941-8.289-5.264-12.012-2.626" transform="translate(440.785 1652.113)" fill="#fff" stroke="#23605f" stroke-miterlimit="10" stroke-width="1"/>
      <path id="Trazado_153629" data-name="Trazado 153629" d="M97.87,152.445c11.464,16.984,15.936,37.654,24.99,56.034,6.109,12.4,14.261,23.672,22.372,34.87" transform="translate(418.029 1588.701)" fill="none" stroke="#0ac4bf" stroke-miterlimit="10" stroke-width="1"/>
      <path id="Trazado_153630" data-name="Trazado 153630" d="M219.046,347.99c-20.108-48.483-62.387-85.778-79.381-135.437" transform="translate(433.409 1610.82)" fill="none" stroke="#0ac4bf" stroke-miterlimit="10" stroke-width="1"/>
      <path id="Trazado_153631" data-name="Trazado 153631" d="M104.667,156.288a707.49,707.49,0,0,1,87.851,141.987c8.754,18.807,16.968,38.44,31.313,53.427" transform="translate(420.53 1590.115)" fill="none" stroke="#0ac4bf" stroke-miterlimit="10" stroke-width="1"/>
      <g id="Grupo_89887" data-name="Grupo 89887" transform="translate(550.735 1663.893)">
        <line id="Línea_214" data-name="Línea 214" y1="118.966" x2="315.955" fill="none" stroke="rgba(33,33,33,0.32)" stroke-miterlimit="10" stroke-width="1"/>
        <line id="Línea_215" data-name="Línea 215" y1="118.966" x2="315.955" transform="translate(12.36 13.905)" fill="none" stroke="rgba(33,33,33,0.32)" stroke-miterlimit="10" stroke-width="1"/>
        <line id="Línea_216" data-name="Línea 216" y1="131.326" x2="312.093" transform="translate(26.265 22.403)" fill="none" stroke="rgba(33,33,33,0.32)" stroke-miterlimit="10" stroke-width="1"/>
        <line id="Línea_217" data-name="Línea 217" y1="137.506" x2="312.865" transform="translate(40.17 33.218)" fill="none" stroke="rgba(33,33,33,0.32)" stroke-miterlimit="10" stroke-width="1"/>
        <line id="Línea_218" data-name="Línea 218" y1="146.785" x2="312.781" transform="translate(68.065 61.801)" fill="none" stroke="rgba(33,33,33,0.32)" stroke-miterlimit="10" stroke-width="1"/>
        <line id="Línea_219" data-name="Línea 219" y1="142.923" x2="312.008" transform="translate(55.705 50.213)" fill="none" stroke="rgba(33,33,33,0.32)" stroke-miterlimit="10" stroke-width="1"/>
        <line id="Línea_220" data-name="Línea 220" y1="158.373" x2="315.871" transform="translate(79.653 70.298)" fill="none" stroke="rgba(33,33,33,0.32)" stroke-miterlimit="10" stroke-width="1"/>
        <line id="Línea_221" data-name="Línea 221" y1="167.643" x2="316.643" transform="translate(93.558 79.568)" fill="none" stroke="rgba(33,33,33,0.32)" stroke-miterlimit="10" stroke-width="1"/>
        <line id="Línea_222" data-name="Línea 222" y1="175.368" x2="314.326" transform="translate(109.008 92.701)" fill="none" stroke="rgba(33,33,33,0.32)" stroke-miterlimit="10" stroke-width="1"/>
        <line id="Línea_223" data-name="Línea 223" x2="146.004" y2="201.624" transform="translate(108.151 48.668)" fill="none" stroke="rgba(33,33,33,0.32)" stroke-miterlimit="10" stroke-width="1"/>
        <line id="Línea_224" data-name="Línea 224" x2="147.549" y2="193.899" transform="translate(127.464 47.895)" fill="none" stroke="rgba(33,33,33,0.32)" stroke-miterlimit="10" stroke-width="1"/>
        <line id="Línea_225" data-name="Línea 225" x2="146.776" y2="182.312" transform="translate(139.051 37.08)" fill="none" stroke="rgba(33,33,33,0.32)" stroke-miterlimit="10" stroke-width="1"/>
        <line id="Línea_226" data-name="Línea 226" x2="156.819" y2="159.136" transform="translate(190.809 23.948)" fill="none" stroke="rgba(33,33,33,0.32)" stroke-miterlimit="10" stroke-width="1"/>
        <line id="Línea_227" data-name="Línea 227" x2="159.136" y2="169.179" transform="translate(170.724 29.355)" fill="none" stroke="rgba(33,33,33,0.32)" stroke-miterlimit="10" stroke-width="1"/>
        <line id="Línea_228" data-name="Línea 228" x2="160.681" y2="154.501" transform="translate(206.259 17.768)" fill="none" stroke="rgba(33,33,33,0.32)" stroke-miterlimit="10" stroke-width="1"/>
        <line id="Línea_229" data-name="Línea 229" x2="166.089" y2="156.046" transform="translate(223.254 3.09)" fill="none" stroke="rgba(33,33,33,0.32)" stroke-miterlimit="10" stroke-width="1"/>
      </g>
      <path id="Trazado_153632" data-name="Trazado 153632" d="M176.9,317.031a133.857,133.857,0,0,0-25.039,7.89c-4.488,1.917-8.968,4.148-12.366,7.648s-5.581,8.51-4.611,13.292c.9,4.433,4.284,7.953,7.957,10.594,14.781,10.629,34.942,10.353,52.522,5.614,7.746-2.088,15.524-5.1,21.243-10.724s8.94-14.38,6.184-21.913" transform="translate(438.426 1650.198)" fill="none" stroke="#23817f" stroke-miterlimit="10" stroke-width="1"/>
      <path id="Trazado_153637" data-name="Trazado 153637" d="M176.9,317.031a133.857,133.857,0,0,0-25.039,7.89c-4.488,1.917-8.968,4.148-12.366,7.648s-5.581,8.51-4.611,13.292c.9,4.433,4.284,7.953,7.957,10.594,14.781,10.629,34.942,10.353,52.522,5.614,7.746-2.088,15.524-5.1,21.243-10.724s8.94-14.38,6.184-21.913" transform="translate(438.426 1650.198)" fill="none" stroke="#23817f" stroke-miterlimit="10" stroke-width="1"/>
    </g>
    <path id="Trazado_153633" data-name="Trazado 153633" d="M-3386.552-9930.614l-166.4-156.514" transform="translate(4336 11713)" fill="none" stroke="#bf3976" stroke-linecap="round" stroke-width="3"/>
    <path id="Trazado_153634" data-name="Trazado 153634" d="M-3374.255-9973.266-3643.393-9822.4" transform="translate(4336 11713)" fill="none" stroke="#bf3976" stroke-width="3"/>
    <path id="Trazado_153640" data-name="Trazado 153640" d="M8.772,2.962a2,2,0,0,1,3.455,0l7.018,12.031A2,2,0,0,1,17.518,18H3.482a2,2,0,0,1-1.728-3.008Z" transform="translate(766.685 1620.815) rotate(-38)" fill="#bf3976"/>
    <path id="Trazado_153645" data-name="Trazado 153645" d="M8.772,2.962a2,2,0,0,1,3.455,0l7.018,12.031A2,2,0,0,1,17.518,18H3.482a2,2,0,0,1-1.728-3.008Z" transform="matrix(-0.5, -0.866, 0.866, -0.5, 687.956, 1904.191)" fill="#bf3976"/>
    <path id="Trazado_153639" data-name="Trazado 153639" d="M3.359-1.883H8.336V0H1.016V-11.375H3.359ZM14.43,0A2.507,2.507,0,0,1,14.2-.758,2.732,2.732,0,0,1,12.07.156a3,3,0,0,1-2.059-.719A2.312,2.312,0,0,1,9.2-2.375a2.389,2.389,0,0,1,1-2.062,4.915,4.915,0,0,1,2.879-.727h1.039v-.484a1.393,1.393,0,0,0-.3-.937,1.183,1.183,0,0,0-.949-.352,1.345,1.345,0,0,0-.895.273.929.929,0,0,0-.324.75H9.383a2.268,2.268,0,0,1,.453-1.359,3,3,0,0,1,1.281-.98,4.669,4.669,0,0,1,1.859-.355,3.689,3.689,0,0,1,2.48.785,2.747,2.747,0,0,1,.918,2.207v3.664a4.041,4.041,0,0,0,.336,1.82V0ZM12.563-1.57a1.945,1.945,0,0,0,.922-.223,1.462,1.462,0,0,0,.625-.6V-3.844h-.844q-1.7,0-1.8,1.172l-.008.133a.9.9,0,0,0,.3.7A1.153,1.153,0,0,0,12.563-1.57Zm10.3-4.766a6.134,6.134,0,0,0-.812-.062,1.654,1.654,0,0,0-1.68.867V0H18.109V-8.453h2.133L20.3-7.445a2.092,2.092,0,0,1,1.883-1.164,2.366,2.366,0,0,1,.7.1Zm.609,2.047a4.954,4.954,0,0,1,.926-3.133,3,3,0,0,1,2.5-1.187,2.631,2.631,0,0,1,2.164.953l.094-.8H31.2V-.281a3.613,3.613,0,0,1-.5,1.93A3.236,3.236,0,0,1,29.273,2.9a4.985,4.985,0,0,1-2.141.43,4.635,4.635,0,0,1-1.812-.371A3.217,3.217,0,0,1,23.984,2l1-1.375a2.645,2.645,0,0,0,2.047.945,1.936,1.936,0,0,0,1.4-.48,1.8,1.8,0,0,0,.5-1.363V-.727a2.612,2.612,0,0,1-2.055.883A2.992,2.992,0,0,1,24.41-1.035a4.953,4.953,0,0,1-.941-3.16Zm2.258.164a3.076,3.076,0,0,0,.461,1.8,1.467,1.467,0,0,0,1.266.652,1.568,1.568,0,0,0,1.477-.773V-6a1.565,1.565,0,0,0-1.461-.773,1.476,1.476,0,0,0-1.277.664A3.467,3.467,0,0,0,25.727-4.125Zm6.852-.18a5.013,5.013,0,0,1,.484-2.242A3.546,3.546,0,0,1,34.457-8.07a4.069,4.069,0,0,1,2.113-.539,3.849,3.849,0,0,1,2.793,1.047A4.2,4.2,0,0,1,40.57-4.719l.016.578A4.418,4.418,0,0,1,39.5-1.02,3.775,3.775,0,0,1,36.586.156a3.793,3.793,0,0,1-2.918-1.172A4.5,4.5,0,0,1,32.578-4.2Zm2.258.164a3.151,3.151,0,0,0,.453,1.84,1.5,1.5,0,0,0,1.3.637,1.5,1.5,0,0,0,1.281-.629A3.448,3.448,0,0,0,38.328-4.3a3.12,3.12,0,0,0-.461-1.828,1.5,1.5,0,0,0-1.3-.648,1.475,1.475,0,0,0-1.281.645A3.506,3.506,0,0,0,34.836-4.141Zm10.773-.148A5.094,5.094,0,0,1,46.5-7.437a2.877,2.877,0,0,1,2.426-1.172,2.589,2.589,0,0,1,2.039.922V-12h2.266V0H51.188l-.109-.9A2.657,2.657,0,0,1,48.906.156,2.869,2.869,0,0,1,46.512-1.02,5.258,5.258,0,0,1,45.609-4.289Zm2.258.164a3.328,3.328,0,0,0,.414,1.82,1.349,1.349,0,0,0,1.2.633,1.511,1.511,0,0,0,1.477-.883V-5.891A1.489,1.489,0,0,0,49.5-6.773Q47.867-6.773,47.867-4.125Zm11,4.281A4.15,4.15,0,0,1,55.84-.984a4.054,4.054,0,0,1-1.168-3.039v-.219a5.106,5.106,0,0,1,.492-2.277,3.612,3.612,0,0,1,1.395-1.547,3.914,3.914,0,0,1,2.059-.543,3.508,3.508,0,0,1,2.73,1.094,4.444,4.444,0,0,1,1,3.1v.922H56.961a2.1,2.1,0,0,0,.66,1.328,2,2,0,0,0,1.395.5,2.437,2.437,0,0,0,2.039-.945l1.109,1.242A3.389,3.389,0,0,1,60.789-.246,4.511,4.511,0,0,1,58.867.156Zm-.258-6.937a1.414,1.414,0,0,0-1.09.453,2.341,2.341,0,0,0-.535,1.3h3.141v-.18a1.669,1.669,0,0,0-.406-1.16A1.459,1.459,0,0,0,58.609-6.781ZM69.992,0H67.727V-12h2.266ZM76.75,0a2.507,2.507,0,0,1-.227-.758,2.732,2.732,0,0,1-2.133.914,3,3,0,0,1-2.059-.719,2.312,2.312,0,0,1-.816-1.812,2.389,2.389,0,0,1,1-2.062,4.915,4.915,0,0,1,2.879-.727H76.43v-.484a1.393,1.393,0,0,0-.3-.937,1.183,1.183,0,0,0-.949-.352,1.345,1.345,0,0,0-.895.273.929.929,0,0,0-.324.75H71.7a2.268,2.268,0,0,1,.453-1.359,3,3,0,0,1,1.281-.98A4.669,4.669,0,0,1,75.3-8.609a3.689,3.689,0,0,1,2.48.785A2.747,2.747,0,0,1,78.7-5.617v3.664a4.041,4.041,0,0,0,.336,1.82V0ZM74.883-1.57a1.945,1.945,0,0,0,.922-.223,1.462,1.462,0,0,0,.625-.6V-3.844h-.844q-1.7,0-1.8,1.172l-.008.133a.9.9,0,0,0,.3.7A1.153,1.153,0,0,0,74.883-1.57Zm12.234-8.961v2.078h1.445V-6.8H87.117v4.219a1.007,1.007,0,0,0,.18.672.9.9,0,0,0,.688.2,3.6,3.6,0,0,0,.664-.055V-.047a4.648,4.648,0,0,1-1.367.2,2.156,2.156,0,0,1-2.422-2.4V-6.8H83.625V-8.453h1.234v-2.078ZM93.711.156A4.15,4.15,0,0,1,90.684-.984a4.054,4.054,0,0,1-1.168-3.039v-.219a5.106,5.106,0,0,1,.492-2.277A3.612,3.612,0,0,1,91.4-8.066a3.914,3.914,0,0,1,2.059-.543,3.508,3.508,0,0,1,2.73,1.094,4.444,4.444,0,0,1,1,3.1v.922H91.8a2.1,2.1,0,0,0,.66,1.328,2,2,0,0,0,1.395.5A2.437,2.437,0,0,0,95.9-2.609l1.109,1.242A3.389,3.389,0,0,1,95.633-.246,4.511,4.511,0,0,1,93.711.156Zm-.258-6.937a1.414,1.414,0,0,0-1.09.453,2.341,2.341,0,0,0-.535,1.3h3.141v-.18a1.669,1.669,0,0,0-.406-1.16A1.459,1.459,0,0,0,93.453-6.781ZM100.852,0H98.586V-12h2.266Zm6.758,0a2.507,2.507,0,0,1-.227-.758,2.732,2.732,0,0,1-2.133.914,3,3,0,0,1-2.059-.719,2.312,2.312,0,0,1-.816-1.812,2.389,2.389,0,0,1,1-2.062,4.915,4.915,0,0,1,2.879-.727h1.039v-.484a1.393,1.393,0,0,0-.3-.937,1.183,1.183,0,0,0-.949-.352,1.345,1.345,0,0,0-.895.273.929.929,0,0,0-.324.75h-2.258a2.268,2.268,0,0,1,.453-1.359,3,3,0,0,1,1.281-.98,4.669,4.669,0,0,1,1.859-.355,3.689,3.689,0,0,1,2.48.785,2.747,2.747,0,0,1,.918,2.207v3.664a4.041,4.041,0,0,0,.336,1.82V0Zm-1.867-1.57a1.945,1.945,0,0,0,.922-.223,1.462,1.462,0,0,0,.625-.6V-3.844h-.844q-1.7,0-1.8,1.172l-.008.133a.9.9,0,0,0,.3.7A1.153,1.153,0,0,0,105.742-1.57Z" transform="matrix(0.951, -0.309, 0.309, 0.951, 601.392, 1657.227)" fill="#12263f"/>
    <path id="Trazado_153646" data-name="Trazado 153646" d="M10.359-5.43a6.867,6.867,0,0,1-.594,2.945,4.472,4.472,0,0,1-1.7,1.953A4.7,4.7,0,0,1,5.531.156a4.732,4.732,0,0,1-2.523-.68A4.515,4.515,0,0,1,1.289-2.465a6.67,6.67,0,0,1-.617-2.9V-5.93a6.831,6.831,0,0,1,.605-2.957,4.508,4.508,0,0,1,1.711-1.961,4.706,4.706,0,0,1,2.527-.684,4.706,4.706,0,0,1,2.527.684A4.508,4.508,0,0,1,9.754-8.887a6.811,6.811,0,0,1,.605,2.949ZM7.984-5.945a4.787,4.787,0,0,0-.641-2.719,2.088,2.088,0,0,0-1.828-.93,2.088,2.088,0,0,0-1.82.918,4.732,4.732,0,0,0-.648,2.691v.555a4.847,4.847,0,0,0,.641,2.7,2.082,2.082,0,0,0,1.844.961,2.064,2.064,0,0,0,1.813-.926,4.819,4.819,0,0,0,.641-2.7Zm8.68-.391a6.134,6.134,0,0,0-.812-.062,1.654,1.654,0,0,0-1.68.867V0H11.914V-8.453h2.133l.063,1.008a2.092,2.092,0,0,1,1.883-1.164,2.366,2.366,0,0,1,.7.1ZM20.133,0H17.867V-8.453h2.266Zm-2.4-10.641a1.112,1.112,0,0,1,.34-.836A1.277,1.277,0,0,1,19-11.8a1.28,1.28,0,0,1,.922.328,1.105,1.105,0,0,1,.344.836,1.108,1.108,0,0,1-.348.844A1.283,1.283,0,0,1,19-9.469a1.283,1.283,0,0,1-.918-.328A1.108,1.108,0,0,1,17.734-10.641ZM24.375,0H22.109V-12h2.266Zm4.242,0H26.352V-12h2.266Zm1.508-4.3a5.013,5.013,0,0,1,.484-2.242A3.546,3.546,0,0,1,32-8.07a4.069,4.069,0,0,1,2.113-.539A3.849,3.849,0,0,1,36.91-7.562a4.2,4.2,0,0,1,1.207,2.844l.016.578A4.418,4.418,0,0,1,37.047-1.02,3.775,3.775,0,0,1,34.133.156a3.793,3.793,0,0,1-2.918-1.172A4.5,4.5,0,0,1,30.125-4.2Zm2.258.164a3.151,3.151,0,0,0,.453,1.84,1.5,1.5,0,0,0,1.3.637,1.5,1.5,0,0,0,1.281-.629A3.448,3.448,0,0,0,35.875-4.3a3.12,3.12,0,0,0-.461-1.828,1.5,1.5,0,0,0-1.3-.648,1.475,1.475,0,0,0-1.281.645A3.506,3.506,0,0,0,32.383-4.141Z" transform="translate(871 1883.599)" fill="#12263f"/>
    <path id="Trazado_153635" data-name="Trazado 153635" d="M-3469.754-9872.261l21.05,26.859" transform="translate(4336 11713)" fill="none" stroke="#050505" stroke-width="1"/>
    <path id="Trazado_153641" data-name="Trazado 153641" d="M10.359-5.43a6.867,6.867,0,0,1-.594,2.945,4.472,4.472,0,0,1-1.7,1.953A4.7,4.7,0,0,1,5.531.156a4.732,4.732,0,0,1-2.523-.68A4.515,4.515,0,0,1,1.289-2.465a6.67,6.67,0,0,1-.617-2.9V-5.93a6.831,6.831,0,0,1,.605-2.957,4.508,4.508,0,0,1,1.711-1.961,4.706,4.706,0,0,1,2.527-.684,4.706,4.706,0,0,1,2.527.684A4.508,4.508,0,0,1,9.754-8.887a6.811,6.811,0,0,1,.605,2.949ZM7.984-5.945a4.787,4.787,0,0,0-.641-2.719,2.088,2.088,0,0,0-1.828-.93,2.088,2.088,0,0,0-1.82.918,4.732,4.732,0,0,0-.648,2.691v.555a4.847,4.847,0,0,0,.641,2.7,2.082,2.082,0,0,0,1.844.961,2.064,2.064,0,0,0,1.813-.926,4.819,4.819,0,0,0,.641-2.7Zm8.68-.391a6.134,6.134,0,0,0-.812-.062,1.654,1.654,0,0,0-1.68.867V0H11.914V-8.453h2.133l.063,1.008a2.092,2.092,0,0,1,1.883-1.164,2.366,2.366,0,0,1,.7.1ZM20.133,0H17.867V-8.453h2.266Zm-2.4-10.641a1.112,1.112,0,0,1,.34-.836A1.277,1.277,0,0,1,19-11.8a1.28,1.28,0,0,1,.922.328,1.105,1.105,0,0,1,.344.836,1.108,1.108,0,0,1-.348.844A1.283,1.283,0,0,1,19-9.469a1.283,1.283,0,0,1-.918-.328A1.108,1.108,0,0,1,17.734-10.641ZM24.375,0H22.109V-12h2.266Zm4.242,0H26.352V-12h2.266Zm1.508-4.3a5.013,5.013,0,0,1,.484-2.242A3.546,3.546,0,0,1,32-8.07a4.069,4.069,0,0,1,2.113-.539A3.849,3.849,0,0,1,36.91-7.562a4.2,4.2,0,0,1,1.207,2.844l.016.578A4.418,4.418,0,0,1,37.047-1.02,3.775,3.775,0,0,1,34.133.156a3.793,3.793,0,0,1-2.918-1.172A4.5,4.5,0,0,1,30.125-4.2Zm2.258.164a3.151,3.151,0,0,0,.453,1.84,1.5,1.5,0,0,0,1.3.637,1.5,1.5,0,0,0,1.281-.629A3.448,3.448,0,0,0,35.875-4.3a3.12,3.12,0,0,0-.461-1.828,1.5,1.5,0,0,0-1.3-.648,1.475,1.475,0,0,0-1.281.645A3.506,3.506,0,0,0,32.383-4.141Z" transform="translate(794.315 1576.599)" fill="#12263f"/>
    <path id="Trazado_153636" data-name="Trazado 153636" d="M-3560.323-10105.113l-13.911-20.749,24.878-12.7" transform="translate(4336 11713)" fill="none" stroke="#020202" stroke-width="1"/>
    <path id="Trazado_153643" data-name="Trazado 153643" d="M7.438-2.344H3.328L2.547,0H.055L4.289-11.375H6.461L10.719,0H8.227Zm-3.477-1.9H6.8L5.375-8.5Zm9.375-4.211.07.977a2.951,2.951,0,0,1,2.43-1.133,2.453,2.453,0,0,1,2,.789,3.682,3.682,0,0,1,.672,2.359V0H16.25V-5.406a1.465,1.465,0,0,0-.312-1.043A1.4,1.4,0,0,0,14.9-6.773a1.553,1.553,0,0,0-1.43.813V0H11.211V-8.453Zm10.4,6.789a1.481,1.481,0,0,0,1.016-.344,1.2,1.2,0,0,0,.406-.914h2.117A2.9,2.9,0,0,1,26.8-1.348,3.093,3.093,0,0,1,25.543-.238a3.949,3.949,0,0,1-1.77.395A3.67,3.67,0,0,1,20.914-1,4.56,4.56,0,0,1,19.867-4.18v-.148a4.508,4.508,0,0,1,1.039-3.117,3.627,3.627,0,0,1,2.852-1.164,3.555,3.555,0,0,1,2.543.9,3.2,3.2,0,0,1,.973,2.4H25.156a1.539,1.539,0,0,0-.406-1.066,1.358,1.358,0,0,0-1.031-.41,1.361,1.361,0,0,0-1.191.574,3.324,3.324,0,0,0-.4,1.863v.234a3.366,3.366,0,0,0,.4,1.875A1.378,1.378,0,0,0,23.734-1.664Zm7.031-5.867a2.818,2.818,0,0,1,2.258-1.078q2.75,0,2.789,3.2V0H33.555V-5.352a1.57,1.57,0,0,0-.312-1.074A1.34,1.34,0,0,0,32.2-6.773a1.537,1.537,0,0,0-1.437.766V0H28.508V-12h2.258Zm6.4,3.227a5.013,5.013,0,0,1,.484-2.242A3.546,3.546,0,0,1,39.043-8.07a4.069,4.069,0,0,1,2.113-.539,3.849,3.849,0,0,1,2.793,1.047,4.2,4.2,0,0,1,1.207,2.844l.016.578A4.418,4.418,0,0,1,44.086-1.02,3.775,3.775,0,0,1,41.172.156a3.793,3.793,0,0,1-2.918-1.172A4.5,4.5,0,0,1,37.164-4.2Zm2.258.164a3.151,3.151,0,0,0,.453,1.84,1.5,1.5,0,0,0,1.3.637,1.5,1.5,0,0,0,1.281-.629A3.448,3.448,0,0,0,42.914-4.3a3.12,3.12,0,0,0-.461-1.828,1.5,1.5,0,0,0-1.3-.648,1.475,1.475,0,0,0-1.281.645A3.506,3.506,0,0,0,39.422-4.141Z" transform="translate(921.139 1640.919) rotate(51)" fill="#12263f"/>
    <path id="Trazado_153642" data-name="Trazado 153642" d="M9.578-9.477H6.094V0H3.75V-9.477H.313v-1.9H9.578Zm5.43,3.141A6.134,6.134,0,0,0,14.2-6.4a1.654,1.654,0,0,0-1.68.867V0H10.258V-8.453h2.133l.063,1.008a2.092,2.092,0,0,1,1.883-1.164,2.366,2.366,0,0,1,.7.1ZM20.758,0a2.507,2.507,0,0,1-.227-.758A2.732,2.732,0,0,1,18.4.156,3,3,0,0,1,16.34-.562a2.312,2.312,0,0,1-.816-1.812,2.389,2.389,0,0,1,1-2.062A4.915,4.915,0,0,1,19.4-5.164h1.039v-.484a1.393,1.393,0,0,0-.3-.937,1.183,1.183,0,0,0-.949-.352,1.345,1.345,0,0,0-.895.273.929.929,0,0,0-.324.75H15.711a2.268,2.268,0,0,1,.453-1.359,3,3,0,0,1,1.281-.98A4.669,4.669,0,0,1,19.3-8.609a3.689,3.689,0,0,1,2.48.785A2.747,2.747,0,0,1,22.7-5.617v3.664a4.041,4.041,0,0,0,.336,1.82V0ZM18.891-1.57a1.945,1.945,0,0,0,.922-.223,1.462,1.462,0,0,0,.625-.6V-3.844h-.844q-1.7,0-1.8,1.172l-.008.133a.9.9,0,0,0,.3.7A1.153,1.153,0,0,0,18.891-1.57Zm7.664-6.883.07.945a2.971,2.971,0,0,1,2.43-1.1A2.255,2.255,0,0,1,31.3-7.32a2.9,2.9,0,0,1,2.539-1.289,2.521,2.521,0,0,1,2.047.8,3.681,3.681,0,0,1,.672,2.41V0H34.289V-5.391a1.61,1.61,0,0,0-.281-1.051,1.246,1.246,0,0,0-.992-.332,1.409,1.409,0,0,0-1.406.969L31.617,0H29.359V-5.383a1.59,1.59,0,0,0-.289-1.062,1.259,1.259,0,0,0-.984-.328,1.463,1.463,0,0,0-1.391.8V0H24.438V-8.453ZM43.188,0a2.507,2.507,0,0,1-.227-.758,2.732,2.732,0,0,1-2.133.914A3,3,0,0,1,38.77-.562a2.312,2.312,0,0,1-.816-1.812,2.389,2.389,0,0,1,1-2.062,4.915,4.915,0,0,1,2.879-.727h1.039v-.484a1.393,1.393,0,0,0-.3-.937,1.183,1.183,0,0,0-.949-.352,1.345,1.345,0,0,0-.895.273.929.929,0,0,0-.324.75H38.141a2.268,2.268,0,0,1,.453-1.359,3,3,0,0,1,1.281-.98,4.669,4.669,0,0,1,1.859-.355,3.689,3.689,0,0,1,2.48.785,2.747,2.747,0,0,1,.918,2.207v3.664a4.041,4.041,0,0,0,.336,1.82V0ZM41.32-1.57a1.945,1.945,0,0,0,.922-.223,1.462,1.462,0,0,0,.625-.6V-3.844h-.844q-1.7,0-1.8,1.172l-.008.133a.9.9,0,0,0,.3.7A1.153,1.153,0,0,0,41.32-1.57Z" transform="translate(843.424 1675.959) rotate(43)" fill="#12263f"/>
    <path id="Trazado_153644" data-name="Trazado 153644" d="M9.625-11.375v7.492A3.836,3.836,0,0,1,8.457-.93,4.5,4.5,0,0,1,5.266.156,4.553,4.553,0,0,1,2.1-.9a3.77,3.77,0,0,1-1.2-2.9v-7.578H3.25v7.508a2.167,2.167,0,0,0,.535,1.629,2.054,2.054,0,0,0,1.48.512q1.977,0,2.008-2.078v-7.57Zm6.523,5.039a6.134,6.134,0,0,0-.812-.062,1.654,1.654,0,0,0-1.68.867V0H11.4V-8.453h2.133l.063,1.008a2.092,2.092,0,0,1,1.883-1.164,2.366,2.366,0,0,1,.7.1Zm.586,2.047a5.094,5.094,0,0,1,.887-3.148,2.877,2.877,0,0,1,2.426-1.172,2.589,2.589,0,0,1,2.039.922V-12h2.266V0H22.313L22.2-.9A2.657,2.657,0,0,1,20.031.156,2.869,2.869,0,0,1,17.637-1.02,5.258,5.258,0,0,1,16.734-4.289Zm2.258.164a3.328,3.328,0,0,0,.414,1.82,1.349,1.349,0,0,0,1.2.633,1.511,1.511,0,0,0,1.477-.883V-5.891a1.489,1.489,0,0,0-1.461-.883Q18.992-6.773,18.992-4.125ZM28.484,0H26.219V-8.453h2.266Zm-2.4-10.641a1.112,1.112,0,0,1,.34-.836,1.277,1.277,0,0,1,.926-.328,1.28,1.28,0,0,1,.922.328,1.105,1.105,0,0,1,.344.836,1.108,1.108,0,0,1-.348.844,1.283,1.283,0,0,1-.918.328,1.283,1.283,0,0,1-.918-.328A1.108,1.108,0,0,1,26.086-10.641Zm6.375,2.188.07.945a2.971,2.971,0,0,1,2.43-1.1A2.255,2.255,0,0,1,37.2-7.32a2.9,2.9,0,0,1,2.539-1.289,2.521,2.521,0,0,1,2.047.8,3.681,3.681,0,0,1,.672,2.41V0H40.2V-5.391a1.61,1.61,0,0,0-.281-1.051,1.246,1.246,0,0,0-.992-.332,1.409,1.409,0,0,0-1.406.969L37.523,0H35.266V-5.383a1.59,1.59,0,0,0-.289-1.062,1.259,1.259,0,0,0-.984-.328,1.463,1.463,0,0,0-1.391.8V0H30.344V-8.453Zm19.352,4.3A5.119,5.119,0,0,1,50.945-.98,2.872,2.872,0,0,1,48.523.156,2.639,2.639,0,0,1,46.328-.9l-.1.9H44.2V-12h2.258v4.3a2.571,2.571,0,0,1,2.055-.914,2.9,2.9,0,0,1,2.426,1.137,5.126,5.126,0,0,1,.879,3.2Zm-2.258-.164a3.363,3.363,0,0,0-.406-1.871,1.374,1.374,0,0,0-1.211-.59,1.489,1.489,0,0,0-1.484.883v3.336a1.509,1.509,0,0,0,1.5.891,1.394,1.394,0,0,0,1.438-1.078A5.562,5.562,0,0,0,49.555-4.312Zm8.4-2.023a6.134,6.134,0,0,0-.812-.062,1.654,1.654,0,0,0-1.68.867V0H53.2V-8.453h2.133L55.4-7.445a2.092,2.092,0,0,1,1.883-1.164,2.366,2.366,0,0,1,.7.1ZM62.781.156A4.15,4.15,0,0,1,59.754-.984a4.054,4.054,0,0,1-1.168-3.039v-.219a5.106,5.106,0,0,1,.492-2.277,3.612,3.612,0,0,1,1.395-1.547,3.914,3.914,0,0,1,2.059-.543,3.508,3.508,0,0,1,2.73,1.094,4.444,4.444,0,0,1,1,3.1v.922H60.875a2.1,2.1,0,0,0,.66,1.328,2,2,0,0,0,1.395.5,2.437,2.437,0,0,0,2.039-.945l1.109,1.242A3.389,3.389,0,0,1,64.7-.246,4.511,4.511,0,0,1,62.781.156Zm-.258-6.937a1.414,1.414,0,0,0-1.09.453,2.341,2.341,0,0,0-.535,1.3h3.141v-.18a1.669,1.669,0,0,0-.406-1.16A1.459,1.459,0,0,0,62.523-6.781ZM71.172-4.3a5.013,5.013,0,0,1,.484-2.242A3.546,3.546,0,0,1,73.051-8.07a4.069,4.069,0,0,1,2.113-.539,3.849,3.849,0,0,1,2.793,1.047,4.2,4.2,0,0,1,1.207,2.844l.016.578A4.418,4.418,0,0,1,78.094-1.02,3.775,3.775,0,0,1,75.18.156a3.793,3.793,0,0,1-2.918-1.172A4.5,4.5,0,0,1,71.172-4.2Zm2.258.164a3.151,3.151,0,0,0,.453,1.84,1.5,1.5,0,0,0,1.3.637,1.5,1.5,0,0,0,1.281-.629A3.448,3.448,0,0,0,76.922-4.3a3.12,3.12,0,0,0-.461-1.828,1.5,1.5,0,0,0-1.3-.648,1.475,1.475,0,0,0-1.281.645A3.506,3.506,0,0,0,73.43-4.141ZM86.758-7.531a2.818,2.818,0,0,1,2.258-1.078q2.75,0,2.789,3.2V0H89.547V-5.352a1.57,1.57,0,0,0-.312-1.074A1.34,1.34,0,0,0,88.2-6.773a1.537,1.537,0,0,0-1.437.766V0H84.5V-12h2.258ZM95.891,0H93.625V-8.453h2.266Zm-2.4-10.641a1.112,1.112,0,0,1,.34-.836,1.277,1.277,0,0,1,.926-.328,1.28,1.28,0,0,1,.922.328,1.105,1.105,0,0,1,.344.836,1.108,1.108,0,0,1-.348.844,1.283,1.283,0,0,1-.918.328A1.283,1.283,0,0,1,93.84-9.8,1.108,1.108,0,0,1,93.492-10.641ZM100.133,0H97.867V-12h2.266Zm1.508-4.3a5.013,5.013,0,0,1,.484-2.242A3.546,3.546,0,0,1,103.52-8.07a4.069,4.069,0,0,1,2.113-.539,3.849,3.849,0,0,1,2.793,1.047,4.2,4.2,0,0,1,1.207,2.844l.016.578a4.418,4.418,0,0,1-1.086,3.121A3.775,3.775,0,0,1,105.648.156a3.793,3.793,0,0,1-2.918-1.172,4.5,4.5,0,0,1-1.09-3.187Zm2.258.164a3.151,3.151,0,0,0,.453,1.84,1.5,1.5,0,0,0,1.3.637,1.5,1.5,0,0,0,1.281-.629,3.448,3.448,0,0,0,.461-2.012,3.12,3.12,0,0,0-.461-1.828,1.5,1.5,0,0,0-1.3-.648,1.475,1.475,0,0,0-1.281.645A3.506,3.506,0,0,0,103.9-4.141Z" transform="translate(746.607 1852.834) rotate(-29)" fill="#12263f"/>
  </g>
</svg>
