<svg xmlns="http://www.w3.org/2000/svg" width="593" height="105" viewBox="0 0 593 105">
  <g id="img34" transform="translate(2680 -5532)">
    <g id="Grupo_91066" data-name="Grupo 91066" transform="translate(-122 568)">
      <g id="img33" transform="translate(-3062 -11556)">
        <rect id="Rectángulo_26559" data-name="Rectángulo 26559" width="593" height="105" rx="12" transform="translate(504 16520)" fill="#0ac4bf"/>
        <path id="Trazado_156482" data-name="Trazado 156482" d="M8.578-5.915H3.2L2.408-1.38H8.666L8.42,0H.519L2.742-12.8h7.813l-.246,1.38H4.148L3.437-7.295H8.815ZM15.223,0l1.433-8.253H15.2l.22-1.257,1.459-.009L17-10.4a3.825,3.825,0,0,1,1.292-2.487,3.8,3.8,0,0,1,2.549-.817,5.322,5.322,0,0,1,1.208.171q.584.154,1.2.365l-.387,1.389a4.979,4.979,0,0,0-1.969-.466,2.064,2.064,0,0,0-2.312,1.969l-.114.765h1.89l-.22,1.257H18.255L16.822,0Zm6.592,0h-1.6l1.652-9.51h1.6Zm6.653-1.143a2.413,2.413,0,0,0,1.538-.5,2.362,2.362,0,0,0,.9-1.349L32.405-3a3.391,3.391,0,0,1-.716,1.635A4,4,0,0,1,30.217-.211,4,4,0,0,1,28.4.176a3.394,3.394,0,0,1-2.008-.62,3.469,3.469,0,0,1-1.208-1.679,5.593,5.593,0,0,1-.264-2.421l.044-.439a6.306,6.306,0,0,1,.8-2.452,4.624,4.624,0,0,1,1.652-1.683,4.1,4.1,0,0,1,2.25-.567,3.214,3.214,0,0,1,2.391,1,3.465,3.465,0,0,1,.9,2.452L31.465-6.24a2.283,2.283,0,0,0-.519-1.507,1.808,1.808,0,0,0-1.354-.611,2.536,2.536,0,0,0-2.061.923,4.834,4.834,0,0,0-1.024,2.654l-.026.229a7.623,7.623,0,0,0-.018,1.16,2.65,2.65,0,0,0,.58,1.626A1.863,1.863,0,0,0,28.468-1.143ZM35.4,0H33.82l1.652-9.51h1.582Zm1.31-12.981a.87.87,0,0,1,.672.242.9.9,0,0,1,.268.681.955.955,0,0,1-.268.677.962.962,0,0,1-.672.281.876.876,0,0,1-.677-.237.86.86,0,0,1-.255-.668,1,1,0,0,1,.264-.686A.93.93,0,0,1,36.712-12.981ZM42.117.176a3.429,3.429,0,0,1-2.777-1.31A4.507,4.507,0,0,1,38.5-4.395l.044-.378a6.327,6.327,0,0,1,.839-2.584,4.882,4.882,0,0,1,1.683-1.762,3.927,3.927,0,0,1,2.145-.567,3.024,3.024,0,0,1,2.3.976,4.012,4.012,0,0,1,.914,2.549,7.448,7.448,0,0,1-.035,1.143l-.1.729H40.078a3.212,3.212,0,0,0,.426,2.2,2.019,2.019,0,0,0,1.745.94,3.383,3.383,0,0,0,2.6-1.266l.914.773A4.183,4.183,0,0,1,44.222-.294,4.371,4.371,0,0,1,42.117.176Zm1.011-8.534a2.324,2.324,0,0,0-1.718.668,4.748,4.748,0,0,0-1.165,2.065l4.623.009.035-.141A2.6,2.6,0,0,0,44.547-7.6,1.674,1.674,0,0,0,43.128-8.358Zm7.365-1.16-.229,1.2a3.749,3.749,0,0,1,2.918-1.371,2.359,2.359,0,0,1,1.986.932,3.619,3.619,0,0,1,.475,2.522L54.606,0H53.016l1.046-6.251a3.332,3.332,0,0,0,.009-.8,1.314,1.314,0,0,0-1.45-1.255,2.994,2.994,0,0,0-2.514,1.528L48.929,0H47.338L48.99-9.51ZM61.075-1.143a2.413,2.413,0,0,0,1.538-.5,2.362,2.362,0,0,0,.9-1.349L65.013-3A3.391,3.391,0,0,1,64.3-1.362,4,4,0,0,1,62.824-.211,4,4,0,0,1,61,.176,3.394,3.394,0,0,1,59-.444a3.469,3.469,0,0,1-1.208-1.679,5.593,5.593,0,0,1-.264-2.421l.044-.439a6.306,6.306,0,0,1,.8-2.452,4.624,4.624,0,0,1,1.652-1.683,4.1,4.1,0,0,1,2.25-.567,3.214,3.214,0,0,1,2.391,1,3.465,3.465,0,0,1,.9,2.452L64.072-6.24a2.283,2.283,0,0,0-.519-1.507A1.808,1.808,0,0,0,62.2-8.358a2.536,2.536,0,0,0-2.061.923,4.834,4.834,0,0,0-1.024,2.654l-.026.229a7.623,7.623,0,0,0-.018,1.16,2.65,2.65,0,0,0,.58,1.626A1.863,1.863,0,0,0,61.075-1.143ZM68.01,0H66.428L68.08-9.51h1.582Zm1.31-12.981a.87.87,0,0,1,.672.242.9.9,0,0,1,.268.681.955.955,0,0,1-.268.677.962.962,0,0,1-.672.281.876.876,0,0,1-.677-.237.86.86,0,0,1-.255-.668,1,1,0,0,1,.264-.686A.93.93,0,0,1,69.319-12.981ZM76.43,0a2.13,2.13,0,0,1-.062-.5l.026-.5A3.9,3.9,0,0,1,73.617.176a2.841,2.841,0,0,1-2.043-.8,2.407,2.407,0,0,1-.716-1.947,2.927,2.927,0,0,1,1.323-2.36,5.631,5.631,0,0,1,3.248-.848l1.661.009.105-.756a1.738,1.738,0,0,0-.33-1.349,1.591,1.591,0,0,0-1.252-.514,2.453,2.453,0,0,0-1.446.4,1.7,1.7,0,0,0-.769,1.1l-1.6.009a2.55,2.55,0,0,1,.65-1.481,3.784,3.784,0,0,1,1.468-1,4.742,4.742,0,0,1,1.854-.338,3.153,3.153,0,0,1,2.312.9,2.794,2.794,0,0,1,.694,2.3L78-1.784l-.044.677a3.318,3.318,0,0,0,.105.958L78.047,0Zm-2.5-1.23A2.774,2.774,0,0,0,75.379-1.6a3.661,3.661,0,0,0,1.173-1.059l.343-1.96-1.2-.009a4.561,4.561,0,0,0-2.3.475A1.748,1.748,0,0,0,72.483-2.8,1.361,1.361,0,0,0,72.8-1.692,1.486,1.486,0,0,0,73.934-1.23Zm14.73-5.924H81.545l.246-1.415h7.128Zm-.633,3.647H80.912l.246-1.406h7.128Z" transform="translate(558 16570)" fill="#fff"/>
        <path id="Trazado_156483" data-name="Trazado 156483" d="M7.422,0H.18L.352-1.1l4.2-4.078.766-.758A4.483,4.483,0,0,0,6.773-8.375a1.807,1.807,0,0,0-.336-1.4A1.58,1.58,0,0,0,5.2-10.352a2.328,2.328,0,0,0-1.711.6,2.745,2.745,0,0,0-.836,1.723l-1.4.008A3.956,3.956,0,0,1,1.9-9.879a3.59,3.59,0,0,1,1.43-1.242,4.108,4.108,0,0,1,1.926-.41,3.156,3.156,0,0,1,2.246.855,2.535,2.535,0,0,1,.715,2.137A5.445,5.445,0,0,1,6.492-5.383l-.719.727L2.117-1.18H7.609Zm9.688-8.477A2.818,2.818,0,0,1,16.5-6.941a4.041,4.041,0,0,1-1.457,1.129,2.674,2.674,0,0,1,1.09,1.129,2.891,2.891,0,0,1,.293,1.543A3.315,3.315,0,0,1,15.2-.723a4,4,0,0,1-2.7.879,3.21,3.21,0,0,1-2.336-.914,2.733,2.733,0,0,1-.742-2.25,3.041,3.041,0,0,1,.688-1.707A4.306,4.306,0,0,1,11.75-5.9a2.586,2.586,0,0,1-.9-1.062,2.7,2.7,0,0,1-.23-1.375,3.3,3.3,0,0,1,1.133-2.336,3.577,3.577,0,0,1,2.516-.859,2.908,2.908,0,0,1,2.156.883A2.7,2.7,0,0,1,17.109-8.477Zm-2.078,5.3a1.943,1.943,0,0,0-.375-1.473A1.716,1.716,0,0,0,13.3-5.266a2.309,2.309,0,0,0-1.656.613,2.486,2.486,0,0,0-.8,1.621,1.838,1.838,0,0,0,.379,1.453,1.719,1.719,0,0,0,1.34.563,2.323,2.323,0,0,0,1.672-.574A2.381,2.381,0,0,0,15.031-3.172Zm.656-5.281a1.791,1.791,0,0,0-.324-1.328,1.462,1.462,0,0,0-1.168-.57,2,2,0,0,0-1.477.559,2.334,2.334,0,0,0-.7,1.48,1.76,1.76,0,0,0,.332,1.336,1.46,1.46,0,0,0,1.176.539,2,2,0,0,0,1.457-.551A2.285,2.285,0,0,0,15.688-8.453Zm10.859-2.031L20.367,0H18.82l6.148-10.187H19.031l.188-1.187h7.469ZM30.078.156a2.567,2.567,0,0,1-2.156-1.02,4.526,4.526,0,0,1-.656-2.848q.016-.578.086-1.141l.281-1.9a7.043,7.043,0,0,1,1.43-3.625,3.418,3.418,0,0,1,2.781-1.156,2.6,2.6,0,0,1,2.168,1,4.426,4.426,0,0,1,.66,2.8q-.023.586-.094,1.148L34.3-4.75A7.463,7.463,0,0,1,32.844-.992,3.4,3.4,0,0,1,30.078.156Zm3.133-7a12.092,12.092,0,0,0,.1-1.469q-.039-1.984-1.539-2.039A2.053,2.053,0,0,0,30-9.543a5.606,5.606,0,0,0-.941,2.66l-.336,2.266a11.525,11.525,0,0,0-.1,1.477q.039,2.07,1.531,2.125a2.007,2.007,0,0,0,1.715-.766,5.429,5.429,0,0,0,.965-2.578Zm5.664,7a2.567,2.567,0,0,1-2.156-1.02,4.526,4.526,0,0,1-.656-2.848q.016-.578.086-1.141l.281-1.9a7.043,7.043,0,0,1,1.43-3.625,3.418,3.418,0,0,1,2.781-1.156,2.6,2.6,0,0,1,2.168,1,4.426,4.426,0,0,1,.66,2.8q-.023.586-.094,1.148L43.1-4.75A7.463,7.463,0,0,1,41.641-.992,3.4,3.4,0,0,1,38.875.156Zm3.133-7a12.092,12.092,0,0,0,.1-1.469Q42.07-10.3,40.57-10.352a2.053,2.053,0,0,0-1.77.809,5.606,5.606,0,0,0-.941,2.66l-.336,2.266a11.525,11.525,0,0,0-.1,1.477q.039,2.07,1.531,2.125a2.007,2.007,0,0,0,1.715-.766,5.429,5.429,0,0,0,.965-2.578Zm9.711,5.828a2.145,2.145,0,0,0,1.367-.441,2.1,2.1,0,0,0,.8-1.2l1.336-.008a3.014,3.014,0,0,1-.637,1.453A3.553,3.553,0,0,1,53.273-.187a3.551,3.551,0,0,1-1.617.344,3.017,3.017,0,0,1-1.785-.551A3.084,3.084,0,0,1,48.8-1.887a4.972,4.972,0,0,1-.234-2.152L48.6-4.43a5.605,5.605,0,0,1,.711-2.18,4.11,4.11,0,0,1,1.469-1.5,3.648,3.648,0,0,1,2-.5,2.857,2.857,0,0,1,2.125.891,3.08,3.08,0,0,1,.8,2.18l-1.32-.008a2.029,2.029,0,0,0-.461-1.34,1.607,1.607,0,0,0-1.2-.543,2.254,2.254,0,0,0-1.832.82,4.3,4.3,0,0,0-.91,2.359l-.023.2a6.776,6.776,0,0,0-.016,1.031,2.355,2.355,0,0,0,.516,1.445A1.656,1.656,0,0,0,51.719-1.016Zm7.422-7.445-.18.945a3.305,3.305,0,0,1,2.57-1.094,2.608,2.608,0,0,1,1.363.367,1.8,1.8,0,0,1,.77.992,3.49,3.49,0,0,1,2.8-1.359,2.235,2.235,0,0,1,1.867.852,3.042,3.042,0,0,1,.445,2.2L67.852,0H66.445l.922-5.57a2.943,2.943,0,0,0,0-.742Q67.219-7.375,65.977-7.4a2.136,2.136,0,0,0-1.4.48,2.222,2.222,0,0,0-.809,1.3L62.8,0H61.383l.938-5.562A1.786,1.786,0,0,0,62.059-6.9a1.377,1.377,0,0,0-1.129-.484,2.315,2.315,0,0,0-2.1,1.2L57.758,0H56.344l1.469-8.453Z" transform="translate(810 16555)" fill="#fff"/>
        <path id="Trazado_153960" data-name="Trazado 153960" d="M-3740.117,4902h388.393" transform="translate(4404 11664)" fill="#fff"/>
        <path id="Trazado_153960_-_Contorno" data-name="Trazado 153960 - Contorno" d="M-3411.971,4902.5h-328.146v-1h328.146Z" transform="translate(4404 11664)" fill="#fff"/>
        <path id="Trazado_156484" data-name="Trazado 156484" d="M4.719,0H3.3L4.969-9.594,1.945-8.531l.242-1.375L6.406-11.43h.25Zm7.766.156a2.567,2.567,0,0,1-2.156-1.02,4.526,4.526,0,0,1-.656-2.848q.016-.578.086-1.141l.281-1.9a7.043,7.043,0,0,1,1.43-3.625,3.418,3.418,0,0,1,2.781-1.156,2.6,2.6,0,0,1,2.168,1,4.426,4.426,0,0,1,.66,2.8q-.023.586-.094,1.148L16.711-4.75A7.463,7.463,0,0,1,15.25-.992,3.4,3.4,0,0,1,12.484.156Zm3.133-7a12.092,12.092,0,0,0,.1-1.469Q15.68-10.3,14.18-10.352a2.053,2.053,0,0,0-1.77.809,5.606,5.606,0,0,0-.941,2.66l-.336,2.266a11.525,11.525,0,0,0-.1,1.477q.039,2.07,1.531,2.125a2.007,2.007,0,0,0,1.715-.766,5.429,5.429,0,0,0,.965-2.578Zm5.664,7a2.567,2.567,0,0,1-2.156-1.02,4.526,4.526,0,0,1-.656-2.848q.016-.578.086-1.141l.281-1.9a7.043,7.043,0,0,1,1.43-3.625,3.418,3.418,0,0,1,2.781-1.156,2.6,2.6,0,0,1,2.168,1,4.426,4.426,0,0,1,.66,2.8q-.023.586-.094,1.148L25.508-4.75A7.463,7.463,0,0,1,24.047-.992,3.4,3.4,0,0,1,21.281.156Zm3.133-7a12.092,12.092,0,0,0,.1-1.469q-.039-1.984-1.539-2.039a2.053,2.053,0,0,0-1.77.809,5.606,5.606,0,0,0-.941,2.66L19.93-4.617a11.525,11.525,0,0,0-.1,1.477q.039,2.07,1.531,2.125a2.007,2.007,0,0,0,1.715-.766,5.429,5.429,0,0,0,.965-2.578Zm8.9-.871-2.164-.7.531-1.124,2.172.882.4-2.716h1.172L34.875-8.69l2.367-.843.148,1.241-2.461.71,1.148,2.148-1,.688L34.055-7.012,32.32-4.824,31.43-5.59ZM48.422,0H41.18l.172-1.1,4.2-4.078.766-.758a4.483,4.483,0,0,0,1.461-2.437,1.807,1.807,0,0,0-.336-1.4,1.58,1.58,0,0,0-1.234-.574,2.328,2.328,0,0,0-1.711.6,2.745,2.745,0,0,0-.836,1.723l-1.4.008A3.956,3.956,0,0,1,42.9-9.879a3.59,3.59,0,0,1,1.43-1.242,4.108,4.108,0,0,1,1.926-.41,3.156,3.156,0,0,1,2.246.855,2.535,2.535,0,0,1,.715,2.137,5.445,5.445,0,0,1-1.727,3.156l-.719.727L43.117-1.18h5.492Zm6.094,0H53.094l1.672-9.594L51.742-8.531l.242-1.375L56.2-11.43h.25Zm7.766.156a2.567,2.567,0,0,1-2.156-1.02,4.526,4.526,0,0,1-.656-2.848q.016-.578.086-1.141l.281-1.9a7.043,7.043,0,0,1,1.43-3.625,3.418,3.418,0,0,1,2.781-1.156,2.6,2.6,0,0,1,2.168,1,4.426,4.426,0,0,1,.66,2.8q-.023.586-.094,1.148L66.508-4.75A7.463,7.463,0,0,1,65.047-.992,3.4,3.4,0,0,1,62.281.156Zm3.133-7a12.092,12.092,0,0,0,.1-1.469q-.039-1.984-1.539-2.039a2.053,2.053,0,0,0-1.77.809,5.606,5.606,0,0,0-.941,2.66L60.93-4.617a11.525,11.525,0,0,0-.1,1.477q.039,2.07,1.531,2.125a2.007,2.007,0,0,0,1.715-.766,5.429,5.429,0,0,0,.965-2.578Zm9.711,5.828a2.145,2.145,0,0,0,1.367-.441,2.1,2.1,0,0,0,.8-1.2l1.336-.008a3.014,3.014,0,0,1-.637,1.453A3.553,3.553,0,0,1,76.68-.187a3.551,3.551,0,0,1-1.617.344,3.017,3.017,0,0,1-1.785-.551A3.084,3.084,0,0,1,72.2-1.887a4.972,4.972,0,0,1-.234-2.152l.039-.391a5.605,5.605,0,0,1,.711-2.18,4.11,4.11,0,0,1,1.469-1.5,3.648,3.648,0,0,1,2-.5,2.857,2.857,0,0,1,2.125.891,3.08,3.08,0,0,1,.8,2.18l-1.32-.008a2.029,2.029,0,0,0-.461-1.34,1.607,1.607,0,0,0-1.2-.543,2.254,2.254,0,0,0-1.832.82,4.3,4.3,0,0,0-.91,2.359l-.023.2a6.776,6.776,0,0,0-.016,1.031,2.355,2.355,0,0,0,.516,1.445A1.656,1.656,0,0,0,75.125-1.016Zm7.422-7.445-.18.945a3.305,3.305,0,0,1,2.57-1.094,2.608,2.608,0,0,1,1.363.367,1.8,1.8,0,0,1,.77.992,3.49,3.49,0,0,1,2.8-1.359,2.235,2.235,0,0,1,1.867.852,3.042,3.042,0,0,1,.445,2.2L91.258,0H89.852l.922-5.57a2.943,2.943,0,0,0,0-.742Q90.625-7.375,89.383-7.4a2.136,2.136,0,0,0-1.4.48,2.222,2.222,0,0,0-.809,1.3L86.211,0H84.789l.938-5.562A1.786,1.786,0,0,0,85.465-6.9a1.377,1.377,0,0,0-1.129-.484,2.315,2.315,0,0,0-2.1,1.2L81.164,0H79.75l1.469-8.453Zm17.57.746-2.164-.7.531-1.124,2.172.882.4-2.716h1.172L101.68-8.69l2.367-.843.148,1.241-2.461.71,1.148,2.148-1,.688-1.023-2.266L99.125-4.824l-.891-.766ZM112.523,0H111.1l1.672-9.594L109.75-8.531l.242-1.375,4.219-1.523h.25Zm5.789-5.727,1.445-5.648h5.672l-.211,1.336h-4.453l-.875,3.109a3.481,3.481,0,0,1,1.859-.492,2.553,2.553,0,0,1,2.172,1.066,3.864,3.864,0,0,1,.617,2.676A4.274,4.274,0,0,1,123.3-.867,3.651,3.651,0,0,1,120.57.164a2.975,2.975,0,0,1-2.2-.875A3.307,3.307,0,0,1,117.492-3h1.32a2.266,2.266,0,0,0,.531,1.453,1.718,1.718,0,0,0,1.289.531,2.1,2.1,0,0,0,1.684-.711,3.282,3.282,0,0,0,.809-1.945,2.5,2.5,0,0,0-.367-1.738,1.671,1.671,0,0,0-1.4-.715,2.4,2.4,0,0,0-1.012.172,3.758,3.758,0,0,0-.879.539ZM129.086.156a2.567,2.567,0,0,1-2.156-1.02,4.526,4.526,0,0,1-.656-2.848q.016-.578.086-1.141l.281-1.9a7.043,7.043,0,0,1,1.43-3.625,3.418,3.418,0,0,1,2.781-1.156,2.6,2.6,0,0,1,2.168,1,4.426,4.426,0,0,1,.66,2.8q-.023.586-.094,1.148l-.273,1.836a7.463,7.463,0,0,1-1.461,3.758A3.4,3.4,0,0,1,129.086.156Zm3.133-7a12.092,12.092,0,0,0,.1-1.469q-.039-1.984-1.539-2.039a2.053,2.053,0,0,0-1.77.809,5.606,5.606,0,0,0-.941,2.66l-.336,2.266a11.525,11.525,0,0,0-.1,1.477q.039,2.07,1.531,2.125a2.007,2.007,0,0,0,1.715-.766,5.429,5.429,0,0,0,.965-2.578Zm9.711,5.828a2.145,2.145,0,0,0,1.367-.441,2.1,2.1,0,0,0,.8-1.2l1.336-.008a3.014,3.014,0,0,1-.637,1.453,3.553,3.553,0,0,1-1.309,1.023,3.551,3.551,0,0,1-1.617.344,3.017,3.017,0,0,1-1.785-.551,3.084,3.084,0,0,1-1.074-1.492,4.972,4.972,0,0,1-.234-2.152l.039-.391a5.605,5.605,0,0,1,.711-2.18,4.11,4.11,0,0,1,1.469-1.5,3.648,3.648,0,0,1,2-.5,2.857,2.857,0,0,1,2.125.891,3.08,3.08,0,0,1,.8,2.18l-1.32-.008a2.029,2.029,0,0,0-.461-1.34,1.607,1.607,0,0,0-1.2-.543,2.254,2.254,0,0,0-1.832.82,4.3,4.3,0,0,0-.91,2.359l-.023.2a6.777,6.777,0,0,0-.016,1.031,2.355,2.355,0,0,0,.516,1.445A1.656,1.656,0,0,0,141.93-1.016Zm7.422-7.445-.18.945a3.305,3.305,0,0,1,2.57-1.094,2.608,2.608,0,0,1,1.363.367,1.8,1.8,0,0,1,.77.992,3.49,3.49,0,0,1,2.8-1.359,2.235,2.235,0,0,1,1.867.852,3.042,3.042,0,0,1,.445,2.2L158.063,0h-1.406l.922-5.57a2.943,2.943,0,0,0,0-.742q-.148-1.062-1.391-1.086a2.136,2.136,0,0,0-1.4.48,2.222,2.222,0,0,0-.809,1.3L153.016,0h-1.422l.938-5.562A1.786,1.786,0,0,0,152.27-6.9a1.377,1.377,0,0,0-1.129-.484,2.315,2.315,0,0,0-2.1,1.2L147.969,0h-1.414l1.469-8.453Z" transform="translate(765 16590)" fill="#fff"/>
      </g>
      <path id="Trazado_156486" data-name="Trazado 156486" d="M5.566,13H.135l.129-.826L3.41,9.115l.574-.568a3.363,3.363,0,0,0,1.1-1.828,1.355,1.355,0,0,0-.252-1.052A1.185,1.185,0,0,0,3.9,5.236a1.746,1.746,0,0,0-1.283.448,2.059,2.059,0,0,0-.627,1.292L.943,6.982a2.967,2.967,0,0,1,.483-1.392A2.693,2.693,0,0,1,2.5,4.659a3.081,3.081,0,0,1,1.444-.308,2.367,2.367,0,0,1,1.685.642,1.9,1.9,0,0,1,.536,1.6A4.084,4.084,0,0,1,4.869,8.963l-.539.545L1.588,12.115H5.707Z" transform="translate(-2183 4980)" fill="#fff"/>
    </g>
    <path id="Trazado_156485" data-name="Trazado 156485" d="M7.766-6.359H1.438l.219-1.258H7.992ZM7.2-3.117H.875l.219-1.25H7.43ZM26.789-5a4.055,4.055,0,0,1-1.227.91,2.873,2.873,0,0,1-1.289.285,2.51,2.51,0,0,1-1.535-.508,2.8,2.8,0,0,1-.93-1.352,4.479,4.479,0,0,1-.2-1.875A5.054,5.054,0,0,1,22.242-9.6a3.87,3.87,0,0,1,1.387-1.449,3.4,3.4,0,0,1,1.887-.48,2.682,2.682,0,0,1,2.133.984,4.206,4.206,0,0,1,.836,2.555,10.639,10.639,0,0,1-.2,2.078,7.885,7.885,0,0,1-2.035,4.4,5.523,5.523,0,0,1-3.9,1.527H22l.125-1.227h.289a4.246,4.246,0,0,0,2.754-.939A5.616,5.616,0,0,0,26.789-5ZM24.57-5a2.257,2.257,0,0,0,1.367-.4A3.4,3.4,0,0,0,27.016-6.57l.063-.57.023-.633a3.661,3.661,0,0,0-.449-1.867,1.412,1.412,0,0,0-1.2-.687,2,2,0,0,0-1.652.746,3.381,3.381,0,0,0-.793,1.965,3.778,3.778,0,0,0,.016.969,2.464,2.464,0,0,0,.281.867A1.412,1.412,0,0,0,24.57-5Zm9.3,5H32.453l1.672-9.594L31.1-8.531l.242-1.375,4.219-1.523h.25Zm12.1-11.547a1.959,1.959,0,0,1,1.5.691,2.263,2.263,0,0,1,.5,1.668l-.047.6a2.671,2.671,0,0,1-.824,1.711,2.262,2.262,0,0,1-1.684.633,1.934,1.934,0,0,1-1.516-.687A2.239,2.239,0,0,1,43.4-8.586l.047-.5a2.716,2.716,0,0,1,.816-1.8A2.351,2.351,0,0,1,45.977-11.547ZM44.453-8.573a1.516,1.516,0,0,0,.23,1.006.932.932,0,0,0,.77.388,1.212,1.212,0,0,0,.926-.38,1.741,1.741,0,0,0,.48-1.03l.07-.611a1.529,1.529,0,0,0-.2-.994.9.9,0,0,0-.781-.415,1.228,1.228,0,0,0-.937.384,1.748,1.748,0,0,0-.484,1.034Zm5.781,3.433a1.962,1.962,0,0,1,1.523.7,2.262,2.262,0,0,1,.492,1.652l-.047.523A2.74,2.74,0,0,1,51.395-.48a2.258,2.258,0,0,1-1.707.652,1.947,1.947,0,0,1-1.512-.68,2.24,2.24,0,0,1-.512-1.672l.047-.531a2.735,2.735,0,0,1,.8-1.766A2.319,2.319,0,0,1,50.234-5.141ZM48.719-2.167a1.563,1.563,0,0,0,.223,1.006.919.919,0,0,0,.777.4,1.2,1.2,0,0,0,.934-.384,1.784,1.784,0,0,0,.473-1.034L51.2-2.8a1.513,1.513,0,0,0-.2-.987.9.9,0,0,0-.781-.415,1.222,1.222,0,0,0-.945.384,1.764,1.764,0,0,0-.477,1.026ZM44.688-.875l-.773-.562L50.8-10.25l.773.555Z" transform="translate(-2180 5581)" fill="#fff"/>
  </g>
</svg>
