<svg id="img35" xmlns="http://www.w3.org/2000/svg" xmlns:xlink="http://www.w3.org/1999/xlink" width="665" height="436.227" viewBox="0 0 665 436.227">
  <defs>
    <clipPath id="clip-path">
      <rect id="Rectángulo_26592" data-name="Rectángulo 26592" width="665" height="436.226" fill="none"/>
    </clipPath>
    <clipPath id="clip-path-3">
      <rect id="Rectángulo_26575" data-name="Rectángulo 26575" width="193.537" height="16.914" fill="none"/>
    </clipPath>
    <clipPath id="clip-path-4">
      <rect id="Rectángulo_26576" data-name="Rectángulo 26576" width="357.931" height="16.914" fill="none"/>
    </clipPath>
    <clipPath id="clip-path-5">
      <path id="Trazado_154006" data-name="Trazado 154006" d="M167.219,374.5a37.811,37.811,0,0,0,37.81,37.81H417.235a37.811,37.811,0,0,0,37.811-37.81Z" transform="translate(-167.219 -374.496)" fill="none"/>
    </clipPath>
    <clipPath id="clip-path-7">
      <path id="Trazado_154011" data-name="Trazado 154011" d="M208.032,183.681a15.44,15.44,0,0,0-15.44,15.44H436.146a15.44,15.44,0,0,0-15.44-15.44Z" transform="translate(-192.592 -183.681)" fill="none"/>
    </clipPath>
    <clipPath id="clip-path-9">
      <path id="Trazado_154017" data-name="Trazado 154017" d="M423.534,260.115H201.9c-2.745,5.872-13.13,34.9-7.28,80.244H436.569c5.85-45.347-4.536-74.371-7.28-80.244Z" transform="translate(-192.864 -260.115)" fill="none"/>
    </clipPath>
    <clipPath id="clip-path-10">
      <rect id="Rectángulo_26581" data-name="Rectángulo 26581" width="338.397" height="125.497" fill="none"/>
    </clipPath>
    <clipPath id="clip-path-12">
      <rect id="Rectángulo_26582" data-name="Rectángulo 26582" width="144.13" height="16.914" fill="none"/>
    </clipPath>
    <clipPath id="clip-path-13">
      <path id="Trazado_154024" data-name="Trazado 154024" d="M516.1,247.476l16.175,13.512s21.942,69.491,26.451,95.91c15.839,0,70.354-12.617,91.343-21.884-8.7-30.654-23.507-91.323-38.439-112.277-25.481,2.8-95.53,24.739-95.53,24.739" transform="translate(-516.096 -222.737)" fill="none"/>
    </clipPath>
    <clipPath id="clip-path-14">
      <rect id="Rectángulo_26584" data-name="Rectángulo 26584" width="263.24" height="140.892" fill="none"/>
    </clipPath>
    <clipPath id="clip-path-16">
      <rect id="Rectángulo_26585" data-name="Rectángulo 26585" width="11.398" height="11.398" fill="none"/>
    </clipPath>
    <clipPath id="clip-path-17">
      <rect id="Rectángulo_26586" data-name="Rectángulo 26586" width="0.783" height="0.811" fill="none"/>
    </clipPath>
    <clipPath id="clip-path-18">
      <rect id="Rectángulo_26587" data-name="Rectángulo 26587" width="0.784" height="0.811" fill="none"/>
    </clipPath>
  </defs>
  <g id="Grupo_90180" data-name="Grupo 90180" clip-path="url(#clip-path)">
    <path id="Trazado_154061" data-name="Trazado 154061" d="M0,0H654V436H0Z" fill="#f2d6e3"/>
    <rect id="Rectángulo_26567" data-name="Rectángulo 26567" width="654.339" height="82.839" transform="translate(0 353.388)" fill="#0ac4bf"/>
    <g id="Grupo_90136" data-name="Grupo 90136">
      <g id="Grupo_90135" data-name="Grupo 90135" clip-path="url(#clip-path)">
        <path id="Trazado_153970" data-name="Trazado 153970" d="M322.047,152.581c20.545,53.607,24.616,108.023,37.385,163.994" transform="translate(-41.076 -19.461)" fill="none" stroke="#f9f1ff" stroke-miterlimit="10" stroke-width="1"/>
        <line id="Línea_356" data-name="Línea 356" y1="36.556" x2="12.001" transform="translate(288.168 117.405)" fill="none" stroke="#f9f1ff" stroke-miterlimit="10" stroke-width="1"/>
        <line id="Línea_357" data-name="Línea 357" y1="26.092" x2="10.155" transform="translate(295.69 155.506)" fill="none" stroke="#f9f1ff" stroke-miterlimit="10" stroke-width="1"/>
        <line id="Línea_358" data-name="Línea 358" x1="18.346" y1="4.152" transform="translate(285.604 217.421)" fill="none" stroke="#f9f1ff" stroke-miterlimit="10" stroke-width="1"/>
        <line id="Línea_359" data-name="Línea 359" x1="15.34" y1="5.084" transform="translate(292.748 244.932)" fill="none" stroke="#f9f1ff" stroke-miterlimit="10" stroke-width="1"/>
        <path id="Trazado_153973" data-name="Trazado 153973" d="M265.956,221.9l22.726-39.042" transform="translate(-33.922 -23.322)" fill="none" stroke="#f9f1ff" stroke-miterlimit="10" stroke-width="1"/>
        <line id="Línea_360" data-name="Línea 360" y1="33.159" x2="19.669" transform="translate(249.921 208.145)" fill="none" stroke="#f9f1ff" stroke-miterlimit="10" stroke-width="1"/>
        <line id="Línea_361" data-name="Línea 361" y1="21.749" x2="16.016" transform="translate(273.265 267.199)" fill="none" stroke="#f9f1ff" stroke-miterlimit="10" stroke-width="1"/>
        <line id="Línea_362" data-name="Línea 362" y1="34.231" x2="20.305" transform="translate(212.484 116.408)" fill="none" stroke="#f9f1ff" stroke-miterlimit="10" stroke-width="1"/>
        <line id="Línea_363" data-name="Línea 363" x1="59.301" y1="13.506" transform="translate(180.573 205.655)" fill="none" stroke="#f9f1ff" stroke-miterlimit="10" stroke-width="1"/>
        <line id="Línea_364" data-name="Línea 364" x1="50.442" y1="9.565" transform="translate(172.195 166.897)" fill="none" stroke="#f9f1ff" stroke-miterlimit="10" stroke-width="1"/>
        <line id="Línea_366" data-name="Línea 366" x1="61.174" y1="12.713" transform="translate(198.582 251.491)" fill="none" stroke="#f9f1ff" stroke-miterlimit="10" stroke-width="1"/>
        <line id="Línea_367" data-name="Línea 367" x1="55.678" y1="12.336" transform="translate(235.173 304.857)" fill="none" stroke="#f9f1ff" stroke-miterlimit="10" stroke-width="1"/>
        <line id="Línea_368" data-name="Línea 368" x1="38.029" y1="3.649" transform="translate(269.591 333.567)" fill="none" stroke="#f9f1ff" stroke-miterlimit="10" stroke-width="1"/>
        <line id="Línea_369" data-name="Línea 369" y1="13.934" x2="7.804" transform="translate(296.988 311.187)" fill="none" stroke="#f9f1ff" stroke-miterlimit="10" stroke-width="1"/>
        <path id="Trazado_153975" data-name="Trazado 153975" d="M543.768,208.146c4.029,57.267-7.934,110.507-12.033,167.77" transform="translate(-67.821 -26.548)" fill="none" stroke="#f9f1ff" stroke-miterlimit="10" stroke-width="1"/>
        <path id="Trazado_153976" data-name="Trazado 153976" d="M538.867,379.817c69.819,8.394,126.12-69.041,135.44-130.884,3.225-22.129-14.183-39.892-34.04-23.138-43.87,43.557-54.574,112.021-101.4,154.023" transform="translate(-68.731 -27.955)" fill="#f3b3ff"/>
        <path id="Trazado_153977" data-name="Trazado 153977" d="M663.337,221.6c-5.838,13.923-13.847,26.81-21.82,39.63-10.564,16.984-21.129,33.972-32.228,50.61-18.607,27.893-39.859,55.786-69.905,70.669" transform="translate(-68.797 -28.264)" fill="none" stroke="#f9f1ff" stroke-miterlimit="10" stroke-width="1"/>
        <path id="Trazado_153978" data-name="Trazado 153978" d="M634.8,294.091c-4.146-11.548-6.306-17.562-10.452-29.109" transform="translate(-79.634 -33.798)" fill="none" stroke="#f9f1ff" stroke-miterlimit="10" stroke-width="1"/>
        <line id="Línea_370" data-name="Línea 370" x1="9.125" y1="24.769" transform="translate(528.69 262.074)" fill="none" stroke="#f9f1ff" stroke-miterlimit="10" stroke-width="1"/>
        <line id="Línea_371" data-name="Línea 371" x1="8.082" y1="16.633" transform="translate(508.098 299.389)" fill="none" stroke="#f9f1ff" stroke-miterlimit="10" stroke-width="1"/>
        <line id="Línea_372" data-name="Línea 372" x1="9.42" y1="25.569" transform="translate(564.862 204.879)" fill="none" stroke="#f9f1ff" stroke-miterlimit="10" stroke-width="1"/>
        <line id="Línea_373" data-name="Línea 373" y1="1.727" x2="41.605" transform="translate(547.33 271.454)" fill="none" stroke="#f9f1ff" stroke-miterlimit="10" stroke-width="1"/>
        <line id="Línea_374" data-name="Línea 374" y1="0.175" x2="35.15" transform="translate(564.239 246.398)" fill="none" stroke="#f9f1ff" stroke-miterlimit="10" stroke-width="1"/>
        <line id="Línea_375" data-name="Línea 375" y1="4.805" x2="24.915" transform="translate(581.027 214.599)" fill="none" stroke="#f9f1ff" stroke-miterlimit="10" stroke-width="1"/>
        <line id="Línea_376" data-name="Línea 376" y1="0.962" x2="42.768" transform="translate(528.349 300.077)" fill="none" stroke="#f9f1ff" stroke-miterlimit="10" stroke-width="1"/>
        <line id="Línea_377" data-name="Línea 377" y1="1.39" x2="39.02" transform="translate(500.831 331.465)" fill="none" stroke="#f9f1ff" stroke-miterlimit="10" stroke-width="1"/>
        <line id="Línea_378" data-name="Línea 378" x2="26.058" y2="2.266" transform="translate(487.054 344.254)" fill="none" stroke="#f9f1ff" stroke-miterlimit="10" stroke-width="1"/>
        <line id="Línea_379" data-name="Línea 379" x1="3.524" y1="10.352" transform="translate(492.191 327.079)" fill="none" stroke="#f9f1ff" stroke-miterlimit="10" stroke-width="1"/>
        <path id="Trazado_153981" data-name="Trazado 153981" d="M498.831,209.082,476.474,187.71" transform="translate(-60.773 -23.942)" fill="none" stroke="#f9f1ff" stroke-miterlimit="10" stroke-width="1"/>
        <line id="Línea_380" data-name="Línea 380" x1="19.231" y1="18.082" transform="translate(415.167 198.562)" fill="none" stroke="#f9f1ff" stroke-miterlimit="10" stroke-width="1"/>
        <line id="Línea_381" data-name="Línea 381" x1="14.662" y1="11.269" transform="translate(413.418 241.146)" fill="none" stroke="#f9f1ff" stroke-miterlimit="10" stroke-width="1"/>
        <line id="Línea_383" data-name="Línea 383" y1="20.134" x2="36.448" transform="translate(436.807 180.036)" fill="none" stroke="#f9f1ff" stroke-miterlimit="10" stroke-width="1"/>
        <line id="Línea_386" data-name="Línea 386" y1="19.969" x2="37.831" transform="translate(432.273 213.606)" fill="none" stroke="#f9f1ff" stroke-miterlimit="10" stroke-width="1"/>
        <line id="Línea_387" data-name="Línea 387" y1="18.677" x2="34.287" transform="translate(421.869 255.655)" fill="none" stroke="#f9f1ff" stroke-miterlimit="10" stroke-width="1"/>
        <line id="Línea_388" data-name="Línea 388" y1="9.616" x2="24.326" transform="translate(414.637 281.07)" fill="none" stroke="#f9f1ff" stroke-miterlimit="10" stroke-width="1"/>
        <line id="Línea_389" data-name="Línea 389" x1="7.777" y1="7.686" transform="translate(411.559 273.026)" fill="none" stroke="#f9f1ff" stroke-miterlimit="10" stroke-width="1"/>
        <g id="Grupo_90131" data-name="Grupo 90131" transform="translate(21.571 354.32)" opacity="0.55" style="mix-blend-mode: multiply;isolation: isolate">
          <g id="Grupo_90130" data-name="Grupo 90130">
            <g id="Grupo_90129" data-name="Grupo 90129" clip-path="url(#clip-path-3)">
              <path id="Trazado_153982" data-name="Trazado 153982" d="M218.261,414.577c0,4.67-43.324,8.457-96.768,8.457s-96.768-3.786-96.768-8.457,43.324-8.457,96.768-8.457,96.768,3.786,96.768,8.457" transform="translate(-24.724 -406.12)" fill="#9d91c1"/>
            </g>
          </g>
        </g>
        <path id="Trazado_153983" data-name="Trazado 153983" d="M42.817,368.859V87.1a2.23,2.23,0,0,1,1.045-1.891c3.96-2.493,19.457-10.732,51.359-10.732,28.981,0,41.975,8.181,45.294,10.706a2.237,2.237,0,0,1,.889,1.783V368.859a2.233,2.233,0,0,1-2.233,2.233H45.05a2.233,2.233,0,0,1-2.233-2.233" transform="translate(-5.461 -9.5)" fill="#fefffe"/>
        <path id="Trazado_153984" data-name="Trazado 153984" d="M81.031,372.268H45.172a2.356,2.356,0,0,1-2.356-2.357V83.7H81.031Z" transform="translate(-5.461 -10.676)" fill="#eff0ef"/>
        <path id="Trazado_153985" data-name="Trazado 153985" d="M42.817,84.923c0-5.769,22.07-10.445,49.294-10.445S141.4,79.154,141.4,84.923s-22.07,10.445-49.294,10.445S42.817,90.692,42.817,84.923" transform="translate(-5.461 -9.499)" fill="#e8efef"/>
        <path id="Trazado_153986" data-name="Trazado 153986" d="M71.317,83.85c0-2.958,11.32-5.358,25.284-5.358s25.284,2.4,25.284,5.358-11.32,5.358-25.284,5.358-25.284-2.4-25.284-5.358" transform="translate(-9.096 -10.011)" fill="#3b3d52"/>
        <path id="Trazado_153987" data-name="Trazado 153987" d="M71.317,81.643c0-2.958,11.32-5.358,25.284-5.358s25.284,2.4,25.284,5.358S110.564,87,96.6,87s-25.284-2.4-25.284-5.358" transform="translate(-9.096 -9.73)" fill="#2b2f49"/>
        <path id="Trazado_153988" data-name="Trazado 153988" d="M142.817,374.318V133.527a3.164,3.164,0,0,1,1.449-2.671c3.112-1.993,11.432-6.132,26.839-6.132,13.986,0,21.075,4.1,23.7,6.106a3.155,3.155,0,0,1,1.23,2.514V374.318a3.182,3.182,0,0,1-3.182,3.182H146a3.182,3.182,0,0,1-3.182-3.182" transform="translate(-18.216 -15.908)" fill="#fefffe"/>
        <path id="Trazado_153989" data-name="Trazado 153989" d="M162.451,378.55H144.264a1.449,1.449,0,0,1-1.448-1.448V132.954h19.635Z" transform="translate(-18.216 -16.958)" fill="#eff0ef"/>
        <path id="Trazado_153990" data-name="Trazado 153990" d="M142.817,130.961c0-3.789,11.913-6.861,26.61-6.861s26.61,3.072,26.61,6.861-11.913,6.861-26.61,6.861-26.61-3.072-26.61-6.861" transform="translate(-18.216 -15.829)" fill="#e8efef"/>
        <path id="Trazado_153991" data-name="Trazado 153991" d="M153.068,131.5c0-1.757,7.909-3.183,17.665-3.183S188.4,129.742,188.4,131.5s-7.909,3.182-17.665,3.182-17.665-1.425-17.665-3.182" transform="translate(-19.523 -16.366)" fill="#3b3d52"/>
        <path id="Trazado_153992" data-name="Trazado 153992" d="M153.068,130.861c0-1.757,7.909-3.183,17.665-3.183S188.4,129.1,188.4,130.861s-7.909,3.183-17.665,3.183-17.665-1.426-17.665-3.183" transform="translate(-19.523 -16.285)" fill="#2b2f49"/>
        <path id="Trazado_153993" data-name="Trazado 153993" d="M201.716,387.555V228.06a2.32,2.32,0,0,1,1.4-2.138c3.075-1.317,11.4-4.1,26.885-4.1,13.932,0,21.02,2.707,23.671,4.045a2.314,2.314,0,0,1,1.261,2.07V387.555a2.33,2.33,0,0,1-2.329,2.329H204.045a2.33,2.33,0,0,1-2.329-2.329" transform="translate(-25.728 -28.293)" fill="#fefffe"/>
        <path id="Trazado_153994" data-name="Trazado 153994" d="M223.016,390.478H204.364a2.648,2.648,0,0,1-2.648-2.648V226.468h21.3Z" transform="translate(-25.728 -28.885)" fill="#eff0ef"/>
        <path id="Trazado_153995" data-name="Trazado 153995" d="M201.716,225.82c0-2.963,11.913-5.366,26.61-5.366s26.61,2.4,26.61,5.366-11.913,5.366-26.61,5.366-26.61-2.4-26.61-5.366" transform="translate(-25.728 -28.118)" fill="#e8efef"/>
        <path id="Trazado_153996" data-name="Trazado 153996" d="M211.968,226.24c0-1.374,7.909-2.487,17.665-2.487s17.665,1.113,17.665,2.487-7.909,2.489-17.665,2.489-17.665-1.114-17.665-2.489" transform="translate(-27.036 -28.539)" fill="#3b3d52"/>
        <path id="Trazado_153997" data-name="Trazado 153997" d="M211.968,225.445c0-1.375,7.909-2.489,17.665-2.489s17.665,1.114,17.665,2.489-7.909,2.487-17.665,2.487-17.665-1.113-17.665-2.487" transform="translate(-27.036 -28.437)" fill="#2b2f49"/>
        <g id="Grupo_90134" data-name="Grupo 90134" transform="translate(114.709 376.373)" opacity="0.55" style="mix-blend-mode: multiply;isolation: isolate">
          <g id="Grupo_90133" data-name="Grupo 90133">
            <g id="Grupo_90132" data-name="Grupo 90132" clip-path="url(#clip-path-4)">
              <path id="Trazado_153998" data-name="Trazado 153998" d="M489.41,439.853c0,4.67-80.125,8.457-178.965,8.457s-178.965-3.786-178.965-8.457,80.126-8.457,178.965-8.457,178.965,3.786,178.965,8.457" transform="translate(-131.479 -431.396)" fill="#9d91c1"/>
            </g>
          </g>
        </g>
        <rect id="Rectángulo_26577" data-name="Rectángulo 26577" width="281.36" height="12.618" transform="translate(146.68 336.481)" fill="#43475e"/>
        <path id="Trazado_153999" data-name="Trazado 153999" d="M499.311,234.692H107.795a33.316,33.316,0,0,1,33.315-33.315H466a33.315,33.315,0,0,1,33.315,33.315" transform="translate(-13.749 -25.685)" fill="#3b3d52"/>
        <path id="Trazado_154000" data-name="Trazado 154000" d="M499.311,239.563H107.795a33.316,33.316,0,0,0,33.315,33.315H466a33.315,33.315,0,0,0,33.315-33.315" transform="translate(-13.749 -30.556)" fill="#3b3d52"/>
        <path id="Trazado_154001" data-name="Trazado 154001" d="M465.483,278.452H150.57a7.7,7.7,0,0,1-7.7-7.7V249.567a7.7,7.7,0,0,1,7.7-7.7H465.483a7.7,7.7,0,0,1,7.7,7.7v21.184a7.7,7.7,0,0,1-7.7,7.7" transform="translate(-18.222 -30.849)" fill="#202233"/>
        <path id="Trazado_154002" data-name="Trazado 154002" d="M172.072,422.7h-2.138a6.894,6.894,0,0,1-6.894-6.894V285.258a6.894,6.894,0,0,1,6.894-6.893h2.138a6.894,6.894,0,0,1,6.894,6.893v130.55a6.894,6.894,0,0,1-6.894,6.894" transform="translate(-20.795 -35.505)" fill="#202233"/>
        <path id="Trazado_154003" data-name="Trazado 154003" d="M195.17,434.97H144.939a20.038,20.038,0,0,1,20.038-20.038h10.154A20.038,20.038,0,0,1,195.17,434.97Z" transform="translate(-18.487 -52.923)" fill="#202233"/>
        <path id="Trazado_154004" data-name="Trazado 154004" d="M488.962,422.7h-2.138a6.894,6.894,0,0,1-6.894-6.894V285.258a6.894,6.894,0,0,1,6.894-6.893h2.138a6.894,6.894,0,0,1,6.894,6.893v130.55a6.894,6.894,0,0,1-6.894,6.894" transform="translate(-61.214 -35.505)" fill="#202233"/>
        <path id="Trazado_154005" data-name="Trazado 154005" d="M512.061,434.97H461.83a20.038,20.038,0,0,1,20.039-20.038h10.154A20.038,20.038,0,0,1,512.061,434.97Z" transform="translate(-58.905 -52.923)" fill="#202233"/>
      </g>
    </g>
    <g id="Grupo_90138" data-name="Grupo 90138" transform="translate(145.891 326.73)">
      <g id="Grupo_90137" data-name="Grupo 90137" clip-path="url(#clip-path-5)">
        <line id="Línea_390" data-name="Línea 390" x2="58.877" y2="50.971" transform="translate(-12.826 -5.035)" fill="none" stroke="#aaacba" stroke-miterlimit="10" stroke-width="1"/>
        <line id="Línea_391" data-name="Línea 391" x2="58.877" y2="50.971" transform="translate(12.634 -5.035)" fill="none" stroke="#aaacba" stroke-miterlimit="10" stroke-width="1"/>
        <line id="Línea_392" data-name="Línea 392" x2="58.877" y2="50.971" transform="translate(38.094 -5.035)" fill="none" stroke="#aaacba" stroke-miterlimit="10" stroke-width="1"/>
        <line id="Línea_393" data-name="Línea 393" x2="58.877" y2="50.971" transform="translate(63.555 -5.035)" fill="none" stroke="#aaacba" stroke-miterlimit="10" stroke-width="1"/>
        <line id="Línea_394" data-name="Línea 394" x2="58.877" y2="50.971" transform="translate(89.015 -5.035)" fill="none" stroke="#aaacba" stroke-miterlimit="10" stroke-width="1"/>
        <line id="Línea_395" data-name="Línea 395" x2="58.877" y2="50.971" transform="translate(114.475 -5.035)" fill="none" stroke="#aaacba" stroke-miterlimit="10" stroke-width="1"/>
        <line id="Línea_396" data-name="Línea 396" x2="58.877" y2="50.971" transform="translate(139.935 -5.035)" fill="none" stroke="#aaacba" stroke-miterlimit="10" stroke-width="1"/>
        <line id="Línea_397" data-name="Línea 397" x2="58.877" y2="50.971" transform="translate(165.395 -5.035)" fill="none" stroke="#aaacba" stroke-miterlimit="10" stroke-width="1"/>
        <line id="Línea_398" data-name="Línea 398" x2="58.877" y2="50.971" transform="translate(190.855 -5.035)" fill="none" stroke="#aaacba" stroke-miterlimit="10" stroke-width="1"/>
        <line id="Línea_399" data-name="Línea 399" x2="58.877" y2="50.971" transform="translate(216.316 -5.035)" fill="none" stroke="#aaacba" stroke-miterlimit="10" stroke-width="1"/>
        <line id="Línea_400" data-name="Línea 400" x2="58.877" y2="50.971" transform="translate(241.776 -5.035)" fill="none" stroke="#aaacba" stroke-miterlimit="10" stroke-width="1"/>
        <line id="Línea_401" data-name="Línea 401" x1="58.877" y2="50.971" transform="translate(241.776 -5.035)" fill="none" stroke="#aaacba" stroke-miterlimit="10" stroke-width="1"/>
        <line id="Línea_402" data-name="Línea 402" x1="58.877" y2="50.971" transform="translate(216.316 -5.035)" fill="none" stroke="#aaacba" stroke-miterlimit="10" stroke-width="1"/>
        <line id="Línea_403" data-name="Línea 403" x1="58.877" y2="50.971" transform="translate(190.855 -5.035)" fill="none" stroke="#aaacba" stroke-miterlimit="10" stroke-width="1"/>
        <line id="Línea_404" data-name="Línea 404" x1="58.877" y2="50.971" transform="translate(165.395 -5.035)" fill="none" stroke="#aaacba" stroke-miterlimit="10" stroke-width="1"/>
        <line id="Línea_405" data-name="Línea 405" x1="58.877" y2="50.971" transform="translate(139.935 -5.035)" fill="none" stroke="#aaacba" stroke-miterlimit="10" stroke-width="1"/>
        <line id="Línea_406" data-name="Línea 406" x1="58.877" y2="50.971" transform="translate(114.475 -5.035)" fill="none" stroke="#aaacba" stroke-miterlimit="10" stroke-width="1"/>
        <line id="Línea_407" data-name="Línea 407" x1="58.877" y2="50.971" transform="translate(89.015 -5.035)" fill="none" stroke="#aaacba" stroke-miterlimit="10" stroke-width="1"/>
        <line id="Línea_408" data-name="Línea 408" x1="58.877" y2="50.971" transform="translate(63.555 -5.035)" fill="none" stroke="#aaacba" stroke-miterlimit="10" stroke-width="1"/>
        <line id="Línea_409" data-name="Línea 409" x1="58.877" y2="50.971" transform="translate(38.095 -5.035)" fill="none" stroke="#aaacba" stroke-miterlimit="10" stroke-width="1"/>
        <line id="Línea_410" data-name="Línea 410" x1="58.877" y2="50.971" transform="translate(12.634 -5.035)" fill="none" stroke="#aaacba" stroke-miterlimit="10" stroke-width="1"/>
        <line id="Línea_411" data-name="Línea 411" x1="58.877" y2="50.971" transform="translate(-12.826 -5.035)" fill="none" stroke="#aaacba" stroke-miterlimit="10" stroke-width="1"/>
      </g>
    </g>
    <g id="Grupo_90140" data-name="Grupo 90140">
      <g id="Grupo_90139" data-name="Grupo 90139" clip-path="url(#clip-path)">
        <line id="Línea_412" data-name="Línea 412" x2="287.827" transform="translate(145.89 326.73)" fill="none" stroke="#aaacba" stroke-miterlimit="10" stroke-width="2"/>
        <path id="Trazado_154007" data-name="Trazado 154007" d="M417.235,412.306H205.029a37.811,37.811,0,0,1-37.811-37.811H455.046A37.811,37.811,0,0,1,417.235,412.306Z" transform="translate(-21.328 -47.766)" fill="none" stroke="#aaacba" stroke-miterlimit="10" stroke-width="1"/>
        <path id="Trazado_154008" data-name="Trazado 154008" d="M435.367,420.3H193.2a2.776,2.776,0,0,1,2.775-2.776H432.591a2.776,2.776,0,0,1,2.776,2.776" transform="translate(-24.642 -53.254)" fill="#aaacba"/>
        <path id="Trazado_154009" data-name="Trazado 154009" d="M436.146,199.121H192.592a15.44,15.44,0,0,1,15.44-15.44H420.706a15.44,15.44,0,0,1,15.44,15.44" transform="translate(-24.565 -23.428)" fill="#3b3d52"/>
      </g>
    </g>
    <g id="Grupo_90142" data-name="Grupo 90142" transform="translate(168.027 160.253)">
      <g id="Grupo_90141" data-name="Grupo 90141" clip-path="url(#clip-path-7)">
        <path id="Trazado_154010" data-name="Trazado 154010" d="M212.679,200.866v-2.923c0-8.827,7.333-14.262,17.528-14.262H406.282c10.2,0,18.16,5.435,18.16,14.262v2.923Z" transform="translate(-195.154 -183.681)" fill="#2f2e40"/>
      </g>
    </g>
    <g id="Grupo_90144" data-name="Grupo 90144">
      <g id="Grupo_90143" data-name="Grupo 90143" clip-path="url(#clip-path)">
        <path id="Trazado_154012" data-name="Trazado 154012" d="M422.722,199.293H214.989a14.262,14.262,0,0,1,14.262-14.262H408.46a14.262,14.262,0,0,1,14.262,14.262" transform="translate(-27.421 -23.6)" fill="#fefffe"/>
        <path id="Trazado_154013" data-name="Trazado 154013" d="M421.248,201.378l10.078,17.7H203.438l10.078-17.7" transform="translate(-25.948 -25.685)" fill="none" stroke="#2f2e40" stroke-miterlimit="10" stroke-width="1"/>
        <path id="Trazado_154014" data-name="Trazado 154014" d="M436.792,260.115H187.9s-19.54,7.983-6.942,91.587H443.734c12.6-83.6-6.942-91.587-6.942-91.587" transform="translate(-22.541 -33.177)" fill="#fefffe"/>
      </g>
    </g>
    <g id="Grupo_90149" data-name="Grupo 90149" transform="translate(168.264 226.938)">
      <g id="Grupo_90148" data-name="Grupo 90148" clip-path="url(#clip-path-9)">
        <path id="Trazado_154015" data-name="Trazado 154015" d="M429.289,260.115H201.9c-2.745,5.872-13.13,34.9-7.28,80.245H436.569c5.85-45.348-4.535-74.372-7.28-80.245" transform="translate(-192.864 -260.115)" fill="#f64591"/>
        <g id="Grupo_90147" data-name="Grupo 90147" transform="translate(-72.232 12.972)" style="mix-blend-mode: multiply;isolation: isolate">
          <g id="Grupo_90146" data-name="Grupo 90146">
            <g id="Grupo_90145" data-name="Grupo 90145" clip-path="url(#clip-path-10)">
              <path id="Trazado_154016" data-name="Trazado 154016" d="M143.034,330.114s2.718,16.733,67.345-8.628,96.115-61.1,195.885-40.222-8.647,107.964-8.647,107.964-180.9,12-189.352,11.214-164.587-33.726-65.231-70.328" transform="translate(-110.072 -274.983)" fill="#4facd8"/>
            </g>
          </g>
        </g>
      </g>
    </g>
    <g id="Grupo_90154" data-name="Grupo 90154">
      <g id="Grupo_90153" data-name="Grupo 90153" clip-path="url(#clip-path)">
        <line id="Línea_413" data-name="Línea 413" x2="215.669" transform="translate(155.587 226.938)" fill="none" stroke="#202233" stroke-miterlimit="10" stroke-width="3" stroke-dasharray="6 6"/>
        <line id="Línea_414" data-name="Línea 414" x2="251.683" transform="translate(163.96 214.021)" fill="none" stroke="#54576d" stroke-miterlimit="10" stroke-width="1"/>
        <line id="Línea_415" data-name="Línea 415" x2="251.683" transform="translate(163.96 217.674)" fill="none" stroke="#54576d" stroke-miterlimit="10" stroke-width="1"/>
        <line id="Línea_416" data-name="Línea 416" x2="251.683" transform="translate(163.96 221.327)" fill="none" stroke="#54576d" stroke-miterlimit="10" stroke-width="1"/>
        <line id="Línea_417" data-name="Línea 417" x2="338.241" transform="translate(94.046 211.016)" fill="none" stroke="#2f2e40" stroke-miterlimit="10" stroke-width="1"/>
        <circle id="Elipse_6465" data-name="Elipse 6465" cx="2.309" cy="2.309" r="2.309" transform="translate(428.488 230.771)" fill="none" stroke="#f6ad2e" stroke-miterlimit="10" stroke-width="1"/>
        <circle id="Elipse_6466" data-name="Elipse 6466" cx="2.309" cy="2.309" r="2.309" transform="translate(435.245 230.771)" fill="none" stroke="#f64593" stroke-miterlimit="10" stroke-width="1"/>
        <path id="Trazado_154018" data-name="Trazado 154018" d="M541.661,248.58H476.407v-6.273h69.106v2.42a3.852,3.852,0,0,1-3.852,3.853" transform="translate(-60.764 -30.906)" fill="#2f2e40"/>
        <path id="Trazado_154019" data-name="Trazado 154019" d="M112.572,248.58h65.254v-6.273H108.719v2.42a3.853,3.853,0,0,0,3.853,3.853" transform="translate(-13.867 -30.906)" fill="#2f2e40"/>
        <circle id="Elipse_6467" data-name="Elipse 6467" cx="2.309" cy="2.309" r="2.309" transform="translate(441.809 230.753)" fill="none" stroke="#50abdc" stroke-miterlimit="10" stroke-width="1"/>
        <g id="Grupo_90152" data-name="Grupo 90152" transform="translate(484.567 388.07)" opacity="0.55" style="mix-blend-mode: multiply;isolation: isolate">
          <g id="Grupo_90151" data-name="Grupo 90151">
            <g id="Grupo_90150" data-name="Grupo 90150" clip-path="url(#clip-path-12)">
              <path id="Trazado_154020" data-name="Trazado 154020" d="M699.538,453.26c0,4.67-32.264,8.457-72.065,8.457s-72.065-3.786-72.065-8.457,32.266-8.457,72.065-8.457,72.065,3.786,72.065,8.457" transform="translate(-555.408 -444.803)" fill="#9d91c1"/>
            </g>
          </g>
        </g>
        <path id="Trazado_154021" data-name="Trazado 154021" d="M648.632,158.977c7.313,3.74,12.754,10.26,17.808,16.735,8.777,11.244,17.094,22.983,22.984,35.975a25.355,25.355,0,0,1,2.726,9.5,19.2,19.2,0,0,1-1.775,8.165c-2.484,5.729-7.041,10.729-12.914,12.852-5.671,2.05-11.921,1.3-17.9.526A19,19,0,0,1,653,241.063a16.963,16.963,0,0,1-5.313-5.114,78.452,78.452,0,0,1-14.983-37.426c-.858-7.145-.7-14.532,1.613-21.345s6.966-13.02,14.313-18.2" transform="translate(-80.639 -20.277)" fill="#ffb638"/>
        <path id="Trazado_154022" data-name="Trazado 154022" d="M532.271,260.987,516.1,247.476s70.049-21.942,95.53-24.739c14.932,20.954,29.736,81.623,38.44,112.276-20.99,9.268-75.506,21.885-91.343,21.885-4.509-26.419-26.452-95.91-26.452-95.91" transform="translate(-65.827 -28.41)" fill="#f64591"/>
      </g>
    </g>
    <g id="Grupo_90159" data-name="Grupo 90159" transform="translate(450.269 194.327)">
      <g id="Grupo_90158" data-name="Grupo 90158" clip-path="url(#clip-path-13)">
        <g id="Grupo_90157" data-name="Grupo 90157" transform="translate(-48.509 22.255)" style="mix-blend-mode: multiply;isolation: isolate">
          <g id="Grupo_90156" data-name="Grupo 90156">
            <g id="Grupo_90155" data-name="Grupo 90155" clip-path="url(#clip-path-14)">
              <path id="Trazado_154023" data-name="Trazado 154023" d="M482.38,334.619s5.189,14.965,52.068-18.478,65.491-71.243,148.713-67.659S695.8,349.143,695.8,349.143,553.916,388.5,547.041,389.1s-137.162-5.259-64.661-54.479" transform="translate(-460.495 -248.245)" fill="#4facd8"/>
            </g>
          </g>
        </g>
      </g>
    </g>
    <g id="Grupo_90179" data-name="Grupo 90179">
      <g id="Grupo_90178" data-name="Grupo 90178" clip-path="url(#clip-path)">
        <path id="Trazado_154025" data-name="Trazado 154025" d="M539.722,262.1l16.924-14.813a5.316,5.316,0,1,1,7,8l-16.923,14.813a5.316,5.316,0,1,1-7-8" transform="translate(-68.609 -31.373)" fill="#fd8f74"/>
        <path id="Trazado_154026" data-name="Trazado 154026" d="M537.3,265.771c-2.328-.462-4.051-2.8-6.422-2.9-1.947-.084-3.59,1.377-4.9,2.822a45.719,45.719,0,0,0-3.164,3.9,3.121,3.121,0,0,0-.691,1.444c-.173,1.656,2.079,2.594,2.42,4.224.127.609-.012,1.314.374,1.8.671.846,2.1.186,3.075.655,1.193.576,1.186,2.564,2.429,3.02a2.452,2.452,0,0,0,1.451-.058,17.777,17.777,0,0,0,8.272-4.857,3.144,3.144,0,0,0,.927-1.481,3.377,3.377,0,0,0-.333-1.852,30.939,30.939,0,0,0-3.439-6.72" transform="translate(-66.594 -33.528)" fill="#fd8f74"/>
        <path id="Trazado_154027" data-name="Trazado 154027" d="M535.648,265.676c-1.818-2.22-3.785-4.545-6.509-5.447a1.751,1.751,0,0,0-.858-.117,1.992,1.992,0,0,0-.744.374q-1,.7-2,1.392c-1.552,1.079-3.252,2.4-3.414,4.284a1.024,1.024,0,0,0,.085.588,1.2,1.2,0,0,0,.517.423,10.541,10.541,0,0,0,3.8,1.294c3.133.07,6.263-1.427,9.121-2.791" transform="translate(-66.594 -33.174)" fill="#fd8f74"/>
        <path id="Trazado_154028" data-name="Trazado 154028" d="M597.932,145.77l6.507,15.455,16.152-7.089-9.3-17.778Z" transform="translate(-76.265 -17.392)" fill="#ef7c65"/>
        <path id="Trazado_154029" data-name="Trazado 154029" d="M589.2,95.923c-11.892,0-20.97,10.452-22.61,23.6-2.729,1.293-3.756,2.276-4.025,5.413a6.209,6.209,0,0,0,.626,3.058c.637.714,2.384,2.576,3.335,2.468a9.538,9.538,0,0,0,1.306-.085c3.143,9.95,11.522,17.07,21.368,17.07,12.534,0,22.7-11.535,22.7-25.763s-10.161-25.763-22.7-25.763" transform="translate(-71.752 -12.235)" fill="#fd8f74"/>
        <path id="Trazado_154030" data-name="Trazado 154030" d="M582.19,84.8s-22.49.968-23.922,22.5a181.742,181.742,0,0,0,26.317-4.543Z" transform="translate(-71.206 -10.816)" fill="#383d8e"/>
        <g id="Grupo_90162" data-name="Grupo 90162" transform="translate(502.875 98.633)" opacity="0.53">
          <g id="Grupo_90161" data-name="Grupo 90161">
            <g id="Grupo_90160" data-name="Grupo 90160" clip-path="url(#clip-path-16)">
              <path id="Trazado_154031" data-name="Trazado 154031" d="M587.79,118.751a5.7,5.7,0,1,1-5.7-5.7,5.7,5.7,0,0,1,5.7,5.7" transform="translate(-576.392 -113.052)" fill="#d95839"/>
            </g>
          </g>
        </g>
        <path id="Trazado_154032" data-name="Trazado 154032" d="M592.232,140.666a12.164,12.164,0,0,0-.479-5.944c-1.125-2.561-3.834-4.014-5.562-6.214a9.617,9.617,0,0,1-1.727-8.2c.632-2.459,3.823-5.051,2.443-7.182-.087-.136-4.772-11.075-3.047-28.057,15.547-8.99,29.853-3.64,38.125,1.383a17.469,17.469,0,0,1,8.562,15.779,11.909,11.909,0,0,1-.723,3.645,12.986,12.986,0,0,0-.882,2.478c-.494,2.926,2.11,5.355,3.269,8.088,2.605,6.146-2.32,13.356-.383,19.744Z" transform="translate(-74.421 -10.232)" fill="#383d8e"/>
        <path id="Trazado_154033" data-name="Trazado 154033" d="M576,115.528l-1.681.564a2.828,2.828,0,0,0-1.731-.589,2.76,2.76,0,1,0,2.8,2.76,2.7,2.7,0,0,0-.237-1.1Z" transform="translate(-72.675 -14.732)" fill="#2b2f49"/>
        <path id="Trazado_154034" data-name="Trazado 154034" d="M570.414,137.412a25.357,25.357,0,0,0,8.961-10.7" transform="translate(-72.755 -16.162)" fill="none" stroke="#d95839" stroke-miterlimit="10" stroke-width="1"/>
        <path id="Trazado_154035" data-name="Trazado 154035" d="M576.536,111.43a6.2,6.2,0,0,0-5.229.147" transform="translate(-72.869 -14.148)" fill="none" stroke="#211f1f" stroke-miterlimit="10" stroke-width="1"/>
        <path id="Trazado_154036" data-name="Trazado 154036" d="M598.063,80.9c4.406,7.658,4.477,17.077,3.083,25.8a9.059,9.059,0,0,0-.164,2.913c.316,1.895,1.817,3.325,3.076,4.777a24.518,24.518,0,0,1,3.972,25.048" transform="translate(-76.281 -10.319)" fill="none" stroke="#211f1f" stroke-miterlimit="10" stroke-width="1"/>
        <path id="Trazado_154037" data-name="Trazado 154037" d="M622.245,84.8a32.548,32.548,0,0,1,1.795,23.3,7.267,7.267,0,0,0-.464,2.322,7.283,7.283,0,0,0,1.262,3.218,33.528,33.528,0,0,1,3.478,23.889" transform="translate(-79.366 -10.816)" fill="none" stroke="#211f1f" stroke-miterlimit="10" stroke-width="1"/>
        <path id="Trazado_154038" data-name="Trazado 154038" d="M593.165,166.109c-4.007-.578-8.1.988-11.315,3.444a39.733,39.733,0,0,0-8.021,9.055A313.139,313.139,0,0,0,556.2,207.542a101.011,101.011,0,0,0-7.244,15.2,53.984,53.984,0,0,0-3,19.521c.147,4.607,1.11,9.61,4.618,12.6a13.054,13.054,0,0,0,5.312,2.578c9.049,2.285,18.4-2.222,26.033-7.594,3.3-2.324,6.536-4.906,8.693-8.319,2.069-3.274,3.025-7.118,3.752-10.921,3.76-19.64,2.259-39.858-1.2-64.5" transform="translate(-69.632 -21.172)" fill="#ffb638"/>
        <path id="Trazado_154039" data-name="Trazado 154039" d="M642.543,157.411a41.094,41.094,0,0,0-43.04,4.96c-21.684,16.517-7.281,55.4-7.281,55.4l.8,21.869s-9,13.79,1.573,17.139c8.079,2.56,44.168-4.559,60.746-8.059a12.569,12.569,0,0,0,9.852-10.544c1.423-10.09,2.94-27.061-.216-40.71-4.821-20.844-22.437-40.054-22.437-40.054" transform="translate(-74.938 -19.576)" fill="#ffb638"/>
        <path id="Trazado_154040" data-name="Trazado 154040" d="M610.1,262.766c-5.359,9.54-3.678,72.332-3.678,72.332s11.071,15.948,17.9-3.433,26.971-71.35,15.692-77.235c-7.17-3.741-17.312.643-23.751,4.334a62.007,62.007,0,0,0-6.162,4" transform="translate(-77.315 -32.27)" fill="#56b0ae"/>
        <path id="Trazado_154041" data-name="Trazado 154041" d="M627.934,336.945l-10.756,75.518-13.027.089s-1.079-44.649,2.233-77.9a8.676,8.676,0,0,1,9.018-7.8l4.313.188a8.683,8.683,0,0,1,8.219,9.9" transform="translate(-77.036 -41.689)" fill="#56b0ae"/>
        <path id="Trazado_154042" data-name="Trazado 154042" d="M633.136,270.357C631,281.088,652.05,340.268,652.05,340.268S667.516,352,668,331.458s3.537-76.2-9.011-78.3-25.858,17.194-25.858,17.194" transform="translate(-80.735 -32.27)" fill="#56b0ae"/>
        <path id="Trazado_154043" data-name="Trazado 154043" d="M672.108,332.917l22.646,66.733-11.237,6.59s-18.109-34.324-31-64.563a5.537,5.537,0,0,1,2.543-7.08l9.243-4.813a5.54,5.54,0,0,1,7.8,3.134" transform="translate(-83.17 -41.983)" fill="#56b0ae"/>
        <path id="Trazado_154044" data-name="Trazado 154044" d="M613.617,418.613l2.858.346-1.617,16.707-10.024.323,1.617-17.461Z" transform="translate(-77.145 -53.382)" fill="#fd8f74"/>
        <path id="Trazado_154045" data-name="Trazado 154045" d="M693.243,406.982l2.617-1.2,7.362,15.086-8.375,5.519-7.756-15.729Z" transform="translate(-87.637 -51.756)" fill="#fd8f74"/>
        <path id="Trazado_154046" data-name="Trazado 154046" d="M612.122,449.653a147.064,147.064,0,0,1-20.807,1.416l-15.931.325c-1.876.039-3.879.044-5.453-.978-.318-1.234.975-2.238,2.1-2.829a68.989,68.989,0,0,1,24.2-7.427c1.046-3.331,2.576-6.792,5.6-8.569,3.416-2.01,7.713-1.294,12.293-.6-.616,6.585-.921,13.2-2,18.665" transform="translate(-72.687 -54.881)" fill="#202233"/>
        <path id="Trazado_154047" data-name="Trazado 154047" d="M707.222,433.956a146.864,146.864,0,0,1-17.836,10.808l-14,7.6c-1.648.9-3.427,1.818-5.294,1.633-.848-.95-.161-2.436.57-3.478a68.952,68.952,0,0,1,18.088-17.706c-.6-3.439-.829-7.216,1.038-10.183,2.111-3.354,6.26-4.689,10.645-6.177,2.476,6.133,5.242,12.15,6.793,17.5" transform="translate(-85.418 -53.118)" fill="#202233"/>
        <g id="Grupo_90165" data-name="Grupo 90165" transform="translate(495.722 107.74)" opacity="0.53">
          <g id="Grupo_90164" data-name="Grupo 90164">
            <g id="Grupo_90163" data-name="Grupo 90163" clip-path="url(#clip-path-17)">
              <path id="Trazado_154048" data-name="Trazado 154048" d="M568.586,123.491a.406.406,0,0,0,0,.811.406.406,0,0,0,0-.811" transform="translate(-568.194 -123.491)" fill="#d95839"/>
            </g>
          </g>
        </g>
        <g id="Grupo_90168" data-name="Grupo 90168" transform="translate(494.175 109.873)" opacity="0.53">
          <g id="Grupo_90167" data-name="Grupo 90167">
            <g id="Grupo_90166" data-name="Grupo 90166" clip-path="url(#clip-path-18)">
              <path id="Trazado_154049" data-name="Trazado 154049" d="M566.812,125.936a.406.406,0,0,0,0,.811.406.406,0,0,0,0-.811" transform="translate(-566.42 -125.936)" fill="#d95839"/>
            </g>
          </g>
        </g>
        <g id="Grupo_90171" data-name="Grupo 90171" transform="translate(497.311 109.037)" opacity="0.53">
          <g id="Grupo_90170" data-name="Grupo 90170">
            <g id="Grupo_90169" data-name="Grupo 90169" clip-path="url(#clip-path-18)">
              <path id="Trazado_154050" data-name="Trazado 154050" d="M570.407,124.977a.406.406,0,0,0,0,.811.406.406,0,0,0,0-.811" transform="translate(-570.015 -124.977)" fill="#d95839"/>
            </g>
          </g>
        </g>
        <g id="Grupo_90174" data-name="Grupo 90174" transform="translate(499.444 107.28)" opacity="0.53">
          <g id="Grupo_90173" data-name="Grupo 90173">
            <g id="Grupo_90172" data-name="Grupo 90172" clip-path="url(#clip-path-17)">
              <path id="Trazado_154051" data-name="Trazado 154051" d="M572.852,122.964a.406.406,0,0,0,0,.811.406.406,0,0,0,0-.811" transform="translate(-572.46 -122.964)" fill="#d95839"/>
            </g>
          </g>
        </g>
        <g id="Grupo_90177" data-name="Grupo 90177" transform="translate(501.953 109.037)" opacity="0.53">
          <g id="Grupo_90176" data-name="Grupo 90176">
            <g id="Grupo_90175" data-name="Grupo 90175" clip-path="url(#clip-path-17)">
              <path id="Trazado_154052" data-name="Trazado 154052" d="M575.728,124.977a.406.406,0,0,0,0,.811.406.406,0,0,0,0-.811" transform="translate(-575.336 -124.977)" fill="#d95839"/>
            </g>
          </g>
        </g>
        <path id="Trazado_154053" data-name="Trazado 154053" d="M660.388,254.08s-8.725-10.005-31.309-.434,32.32,35.764,31.309.434" transform="translate(-79.542 -31.823)" fill="#56b0ae"/>
        <path id="Trazado_154054" data-name="Trazado 154054" d="M651.693,265.729s1.933,21.349-11.951,35.528" transform="translate(-81.597 -33.893)" fill="none" stroke="#499b97" stroke-miterlimit="10" stroke-width="1"/>
        <path id="Trazado_154055" data-name="Trazado 154055" d="M620.605,257.082s.77,14.415-5.091,18.547-8.225,4.462-8.225,4.462" transform="translate(-77.458 -32.79)" fill="none" stroke="#499b97" stroke-miterlimit="10" stroke-width="1"/>
        <path id="Trazado_154056" data-name="Trazado 154056" d="M629.8,264.126s7.182-4.238,13.279-3.437,5.125,1.668,5.125,1.668.941,10.173-.873,11.58-11.625,3.758-13.514,0a105.062,105.062,0,0,1-4.016-9.812" transform="translate(-80.33 -33.237)" fill="#499b97"/>
        <path id="Trazado_154057" data-name="Trazado 154057" d="M656.853,262.685a12.832,12.832,0,0,1,9.974.756c2.7,1.357,2.614,3.554,2.614,3.554s-.789,6.958-2.467,7.47-9.507.038-10.023-2.652-.1-9.128-.1-9.128" transform="translate(-83.759 -33.42)" fill="#499b97"/>
        <path id="Trazado_154058" data-name="Trazado 154058" d="M590.434,248.981s10.94-6.33,12.547-28.945c1.183-16.641-4.057-44.257-4.057-44.257" transform="translate(-75.308 -22.42)" fill="none" stroke="#d88f25" stroke-miterlimit="10" stroke-width="1"/>
        <path id="Trazado_154059" data-name="Trazado 154059" d="M666.573,180.31s4.116,4.728,8.487,20.578,4.913,26.571-1.106,45.354" transform="translate(-85.02 -22.998)" fill="none" stroke="#d88f25" stroke-miterlimit="10" stroke-width="1"/>
        <path id="Trazado_154060" data-name="Trazado 154060" d="M598.548,163.995s7.658-15.686,26.32-13.418,13.947,8.722,13.947,8.722Z" transform="translate(-76.343 -19.177)" fill="#ffb638"/>
      </g>
    </g>
  </g>
</svg>
