<svg xmlns="http://www.w3.org/2000/svg" width="77" height="77" viewBox="0 0 77 77">
  <g id="icon7" transform="translate(-282 -11843)">
    <g id="Rectángulo_27052" data-name="Rectángulo 27052" transform="translate(282 11843)" fill="#e0fffe" stroke="#0ac4bf" stroke-width="1">
      <rect width="77" height="77" rx="12" stroke="none"/>
      <rect x="0.5" y="0.5" width="76" height="76" rx="11.5" fill="none"/>
    </g>
    <g id="ventilador" transform="translate(298.557 11858.785)">
      <g id="Grupo_91108" data-name="Grupo 91108" transform="translate(0.665 0.665)">
        <g id="Grupo_91107" data-name="Grupo 91107">
          <path id="Trazado_156542" data-name="Trazado 156542" d="M13.91,51.6a6.417,6.417,0,0,1-6.41-6.41V13.91A6.417,6.417,0,0,1,13.91,7.5H45.189a6.417,6.417,0,0,1,6.41,6.41V45.189a6.417,6.417,0,0,1-6.41,6.41H13.91Z" transform="translate(-7.5 -7.5)" fill="#c2fcfa"/>
          <path id="Trazado_156543" data-name="Trazado 156543" d="M77.639,80.889H46.361a3.251,3.251,0,0,1-3.251-3.251V46.361a3.251,3.251,0,0,1,3.251-3.251H77.639a3.251,3.251,0,0,1,3.251,3.251V77.639A3.251,3.251,0,0,1,77.639,80.889Z" transform="translate(-39.95 -39.95)" fill="#c2fcfa"/>
          <path id="Trazado_156544" data-name="Trazado 156544" d="M386.632,7.5H382.19a5.055,5.055,0,0,1,5.055,5.055V46.543A5.055,5.055,0,0,1,382.19,51.6h4.442a6.417,6.417,0,0,0,6.41-6.41V13.91a6.417,6.417,0,0,0-6.41-6.41Z" transform="translate(-348.944 -7.5)" fill="#0ac4bf"/>
          <path id="Trazado_156545" data-name="Trazado 156545" d="M435.054,43.227a5.039,5.039,0,0,1,.365,1.885V79.1a5.039,5.039,0,0,1-.365,1.885,3.25,3.25,0,0,0,3-3.24V46.467a3.25,3.25,0,0,0-3-3.24Z" transform="translate(-397.117 -40.057)" fill="#80ebe9"/>
          <g id="Grupo_91106" data-name="Grupo 91106" transform="translate(6.345 6.522)">
            <g id="Grupo_91105" data-name="Grupo 91105">
              <g id="Grupo_91104" data-name="Grupo 91104">
                <g id="Grupo_91103" data-name="Grupo 91103">
                  <g id="Grupo_91102" data-name="Grupo 91102">
                    <circle id="Elipse_6475" data-name="Elipse 6475" cx="15.71" cy="15.71" r="15.71" fill="#0ac4bf"/>
                    <g id="Grupo_91101" data-name="Grupo 91101" transform="translate(3.51 2.632)">
                      <g id="Grupo_91100" data-name="Grupo 91100">
                        <path id="Trazado_156546" data-name="Trazado 156546" d="M263.968,249.327a4.286,4.286,0,0,1-2.521-.785c-.72-.508-.609-1.227-.479-2.058.452-2.9-.217-4.294-1.751-5.829-.694-.7-.959-1-.519-1.626,1.85-2.621,7.377-2.367,9.884-.6,2.437,1.72,2.393,5.378.564,7.971a6.676,6.676,0,0,1-5.178,2.926Z" transform="translate(-246.068 -225.864)" fill="#afe2f7"/>
                        <path id="Trazado_156547" data-name="Trazado 156547" d="M119.23,241.23c-1.287-2.8-.758-6.462,2.009-7.734.808-.371,1.368.09,2.021.618,2.349,1.9,3.9,1.945,5.921,1.408a4.022,4.022,0,0,1,.934-.179.759.759,0,0,1,.733.545c1.384,3.011-1.781,7.629-4.439,8.851S120.582,244.17,119.23,241.23Z" transform="translate(-118.564 -222.475)" fill="#afe2f7"/>
                        <g id="Grupo_91099" data-name="Grupo 91099" transform="translate(6.037)">
                          <path id="Trazado_156548" data-name="Trazado 156548" d="M192.787,123.454c-.882,0-2.621-.363-4.355-2.795a9.378,9.378,0,0,1-1.832-4.936c0-2.788,2.776-5.056,6.187-5.056,2.976,0,6.188,1.933,6.188,5.056,0,.881-.651,1.2-1.405,1.578-2.635,1.306-3.384,2.656-3.753,4.791C193.649,123.061,193.55,123.454,192.787,123.454Z" transform="translate(-186.6 -110.667)" fill="#afe2f7"/>
                        </g>
                      </g>
                      <circle id="Elipse_6476" data-name="Elipse 6476" cx="3.155" cy="3.155" r="3.155" transform="translate(9.046 9.709)" fill="#e2f4ff"/>
                    </g>
                  </g>
                </g>
              </g>
            </g>
          </g>
        </g>
        <circle id="Elipse_6477" data-name="Elipse 6477" cx="1.952" cy="1.952" r="1.952" transform="translate(34.398 34.96)" fill="#c2fcfa"/>
      </g>
      <g id="Grupo_91109" data-name="Grupo 91109" transform="translate(0)">
        <path id="Trazado_156549" data-name="Trazado 156549" d="M38.354,0H7.076A7.084,7.084,0,0,0,0,7.076V38.354A7.084,7.084,0,0,0,7.076,45.43H38.354a7.084,7.084,0,0,0,7.076-7.076V7.076A7.084,7.084,0,0,0,38.354,0ZM44.1,38.354A5.751,5.751,0,0,1,38.354,44.1H7.076a5.751,5.751,0,0,1-5.745-5.745V7.076A5.751,5.751,0,0,1,7.076,1.331H38.354A5.751,5.751,0,0,1,44.1,7.076Z" transform="translate(0)"/>
        <path id="Trazado_156550" data-name="Trazado 156550" d="M70.8,35.61H39.525a3.92,3.92,0,0,0-3.916,3.916v2.016a.665.665,0,1,0,1.331,0V39.526a2.588,2.588,0,0,1,2.585-2.585H70.8a2.588,2.588,0,0,1,2.585,2.585V70.8A2.588,2.588,0,0,1,70.8,73.389H39.525A2.588,2.588,0,0,1,36.94,70.8V44.654a.665.665,0,1,0-1.331,0V70.8a3.92,3.92,0,0,0,3.916,3.916H70.8A3.92,3.92,0,0,0,74.719,70.8V39.526A3.92,3.92,0,0,0,70.8,35.61Z" transform="translate(-32.449 -32.45)"/>
        <path id="Trazado_156551" data-name="Trazado 156551" d="M134.7,115.856a10.154,10.154,0,0,0-7.5-1.241,3.85,3.85,0,0,0-.971-1.017,5.668,5.668,0,0,1,2.871-2.534c.791-.392,1.775-.88,1.775-2.174,0-3.534-3.557-5.722-6.853-5.722-3.779,0-6.853,2.567-6.853,5.722a10.076,10.076,0,0,0,1.956,5.322,9.757,9.757,0,0,0,1.209,1.407,3.8,3.8,0,0,0-.15.877,5.863,5.863,0,0,1-3.271-1.542l-.017-.013a2.412,2.412,0,0,0-2.7-.691c-3.211,1.476-3.712,5.622-2.335,8.617,1.456,3.166,4.98,5.253,8.061,3.836a10.322,10.322,0,0,0,4.96-6.289,3.784,3.784,0,0,0,.559-.179c.629.938.921,2.056.6,4.116-.136.872-.3,1.958.753,2.7,2.807,1.981,6.655.493,8.626-2.3a7.783,7.783,0,0,0,1.439-4.726A5.242,5.242,0,0,0,134.7,115.856Zm-14.487-2.417a8.813,8.813,0,0,1-1.708-4.55c0-2.421,2.477-4.391,5.522-4.391,3.411,0,5.522,2.279,5.522,4.391,0,.413-.208.572-1.035.982a6.928,6.928,0,0,0-3.48,3.147,3.811,3.811,0,0,0-4.059,1.353A8.9,8.9,0,0,1,120.211,113.439Zm-.844,12.054c-2.391,1.1-5.154-.7-6.3-3.183-1.425-3.1-.236-5.969,1.682-6.852.376-.173.6-.052,1.308.517l.017.013a6.935,6.935,0,0,0,4.276,1.848,3.831,3.831,0,0,0,3.126,2.643A9.162,9.162,0,0,1,119.367,125.493ZM124,119.186a2.489,2.489,0,1,1,2.489-2.489A2.492,2.492,0,0,1,124,119.186Zm10.333,4.8c-1.568,2.222-4.61,3.506-6.771,1.98-.338-.238-.347-.5-.205-1.412a6.668,6.668,0,0,0-.791-5.03,3.81,3.81,0,0,0,1.163-3.66,8.963,8.963,0,0,1,6.2,1.078,3.941,3.941,0,0,1,1.6,3.144A6.428,6.428,0,0,1,134.334,123.987Z" transform="translate(-101.28 -94.014)"/>
        <path id="Trazado_156552" data-name="Trazado 156552" d="M387.667,396.618A2.618,2.618,0,1,0,390.285,394,2.62,2.62,0,0,0,387.667,396.618Zm3.9,0a1.287,1.287,0,1,1-1.287-1.287A1.288,1.288,0,0,1,391.571,396.618Z" transform="translate(-353.269 -359.04)"/>
        <path id="Trazado_156553" data-name="Trazado 156553" d="M159.954,139.756a.665.665,0,0,0-.1.936,14.879,14.879,0,0,1,3.319,9.427,15.062,15.062,0,0,1-15.045,15.045,14.879,14.879,0,0,1-9.427-3.319.665.665,0,0,0-.835,1.037,16.377,16.377,0,0,0,23.024-23.024.665.665,0,0,0-.936-.1Z" transform="translate(-125.406 -127.222)"/>
        <path id="Trazado_156554" data-name="Trazado 156554" d="M98.375,77.3A16.376,16.376,0,0,0,75.31,100.367a.666.666,0,0,0,1.022-.853A15.045,15.045,0,0,1,97.522,78.322a.666.666,0,0,0,.853-1.022Z" transform="translate(-65.164 -66.978)"/>
      </g>
    </g>
  </g>
</svg>
