<svg xmlns="http://www.w3.org/2000/svg" width="77" height="77" viewBox="0 0 77 77">
  <g id="icon3" transform="translate(-282 -11462)">
    <g id="Rectángulo_27048" data-name="Rectángulo 27048" transform="translate(282 11462)" fill="#e0fffe" stroke="#0ac4bf" stroke-width="1">
      <rect width="77" height="77" rx="12" stroke="none"/>
      <rect x="0.5" y="0.5" width="76" height="76" rx="11.5" fill="none"/>
    </g>
    <g id="postura" transform="translate(291.159 11472.894)">
      <path id="Trazado_156555" data-name="Trazado 156555" d="M42.537,24.4A12.768,12.768,0,1,1,17,24.4V21a12.768,12.768,0,0,0,25.537,0Z" transform="translate(-1.041 -3.124)" fill="#c2fcfa"/>
      <path id="Trazado_156556" data-name="Trazado 156556" d="M38.586,5.256V1H36.03V5.256a5.954,5.954,0,0,1,5.959,5.959V21.429A12.742,12.742,0,0,1,30.5,34.129c.421.042.846.069,1.279.069A12.761,12.761,0,0,0,44.545,21.429V11.215A5.954,5.954,0,0,0,38.586,5.256Z" transform="translate(-3.05 -0.149)" fill="#c2fcfa"/>
      <path id="Trazado_156557" data-name="Trazado 156557" d="M39.941,44H17.81A6.808,6.808,0,0,0,11,50.81v9.363H46.751V50.81A6.808,6.808,0,0,0,39.941,44Z" transform="translate(-0.149 -6.546)" fill="#c2fcfa"/>
      <path id="Trazado_156558" data-name="Trazado 156558" d="M44.553,44H42a6.808,6.808,0,0,1,6.81,6.81v9.363h2.556V50.81A6.808,6.808,0,0,0,44.553,44Z" transform="translate(-4.761 -6.546)" fill="#0ac4bf"/>
      <path id="Trazado_156559" data-name="Trazado 156559" d="M31.4,50.99a1.406,1.406,0,0,1,1,.417l2,1.992a1.427,1.427,0,0,1,0,2l-2,1.992a1.4,1.4,0,0,1-1.992,0l-2-1.992a1.428,1.428,0,0,1,0-2l2-1.992A1.4,1.4,0,0,1,31.4,50.99Z" transform="translate(-2.678 -7.586)" fill="#0ac4bf"/>
      <path id="Trazado_156560" data-name="Trazado 156560" d="M36.917,38.27v4.877H25V38.27a12.791,12.791,0,0,0,11.917,0Z" transform="translate(-2.232 -5.694)" fill="#0ac4bf"/>
      <path id="Trazado_156561" data-name="Trazado 156561" d="M42.537,11.215v6.81a12.768,12.768,0,0,1-25.537,0V12.066A11.055,11.055,0,0,1,28.066,1h8.512V5.256A5.954,5.954,0,0,1,42.537,11.215Z" transform="translate(-1.041 -0.149)" fill="#0ac4bf"/>
      <path id="Trazado_156562" data-name="Trazado 156562" d="M41.989,13.667v6.242A12.767,12.767,0,0,1,30.5,32.613a12.763,12.763,0,0,0,14.047-12.7V13.667Z" transform="translate(-3.05 -2.033)" fill="#0b8e8b"/>
      <path id="Trazado_156563" data-name="Trazado 156563" d="M39.554,7.81a3.408,3.408,0,0,1,3.4,3.4V25.663a12.7,12.7,0,0,0,2.554-7.639v-6.81a5.954,5.954,0,0,0-5.959-5.959V1H37V5.256A2.553,2.553,0,0,0,39.554,7.81Z" transform="translate(-4.017 -0.149)" fill="#c2fcfa"/>
      <path id="Trazado_156564" data-name="Trazado 156564" d="M10.851,51.514A.85.85,0,0,1,10,50.663,7.669,7.669,0,0,1,17.661,43a.851.851,0,0,1,0,1.7A5.966,5.966,0,0,0,11.7,50.663.85.85,0,0,1,10.851,51.514Z" transform="translate(0 -6.398)"/>
      <path id="Trazado_156565" data-name="Trazado 156565" d="M51.661,51.514a.85.85,0,0,1-.851-.851A5.966,5.966,0,0,0,44.851,44.7a.851.851,0,0,1,0-1.7,7.669,7.669,0,0,1,7.661,7.661A.85.85,0,0,1,51.661,51.514Z" transform="translate(-5.059 -6.398)"/>
      <path id="Trazado_156566" data-name="Trazado 156566" d="M40.983,44.7H18.851a.851.851,0,0,1,0-1.7H40.983a.851.851,0,0,1,0,1.7Z" transform="translate(-1.19 -6.398)"/>
      <path id="Trazado_156567" data-name="Trazado 156567" d="M10.852,62.064A.851.851,0,0,1,10,61.213v-9.36a.851.851,0,1,1,1.7,0v9.36A.851.851,0,0,1,10.852,62.064Z" transform="translate(0 -7.588)"/>
      <path id="Trazado_156568" data-name="Trazado 156568" d="M52.851,62.064A.85.85,0,0,1,52,61.213v-9.36a.851.851,0,1,1,1.7,0v9.36A.85.85,0,0,1,52.851,62.064Z" transform="translate(-6.249 -7.588)"/>
      <path id="Trazado_156569" data-name="Trazado 156569" d="M24.851,43.852A.85.85,0,0,1,24,43V38.123a.851.851,0,1,1,1.7,0V43A.85.85,0,0,1,24.851,43.852Z" transform="translate(-2.083 -5.545)"/>
      <path id="Trazado_156570" data-name="Trazado 156570" d="M38.851,43.85A.85.85,0,0,1,38,43V38.122a.851.851,0,1,1,1.7,0V43A.85.85,0,0,1,38.851,43.85Z" transform="translate(-4.166 -5.545)"/>
      <path id="Trazado_156571" data-name="Trazado 156571" d="M29.619,38.473A13.635,13.635,0,0,1,16,24.853a.851.851,0,1,1,1.7,0,11.917,11.917,0,0,0,23.834,0,.851.851,0,1,1,1.7,0A13.635,13.635,0,0,1,29.619,38.473Z" transform="translate(-0.893 -3.571)"/>
      <path id="Trazado_156572" data-name="Trazado 156572" d="M29.619,34.471A13.635,13.635,0,0,1,16,20.851a.851.851,0,1,1,1.7,0,11.917,11.917,0,0,0,23.834,0,.851.851,0,1,1,1.7,0A13.635,13.635,0,0,1,29.619,34.471Z" transform="translate(-0.893 -2.976)"/>
      <path id="Trazado_156573" data-name="Trazado 156573" d="M16.851,24.068A.85.85,0,0,1,16,23.216V13.851a.851.851,0,0,1,1.7,0v9.365A.85.85,0,0,1,16.851,24.068Z" transform="translate(-0.893 -1.934)"/>
      <path id="Trazado_156574" data-name="Trazado 156574" d="M46.851,23.919A.85.85,0,0,1,46,23.068V12.853a.851.851,0,0,1,1.7,0V23.068A.85.85,0,0,1,46.851,23.919Z" transform="translate(-5.356 -1.786)"/>
      <path id="Trazado_156575" data-name="Trazado 156575" d="M45.81,12.663a.85.85,0,0,1-.851-.851A5.112,5.112,0,0,0,39.851,6.7a.851.851,0,0,1,0-1.7,6.818,6.818,0,0,1,6.81,6.81A.85.85,0,0,1,45.81,12.663Z" transform="translate(-4.315 -0.744)"/>
      <path id="Trazado_156576" data-name="Trazado 156576" d="M39.851,5.96A.85.85,0,0,1,39,5.109V.851a.851.851,0,0,1,1.7,0V5.109A.85.85,0,0,1,39.851,5.96Z" transform="translate(-4.315)"/>
      <path id="Trazado_156577" data-name="Trazado 156577" d="M38.363,1.7H29.851a.851.851,0,0,1,0-1.7h8.512a.851.851,0,1,1,0,1.7Z" transform="translate(-2.827)"/>
      <path id="Trazado_156578" data-name="Trazado 156578" d="M16.851,12.768A.85.85,0,0,1,16,11.917,11.93,11.93,0,0,1,27.917,0a.851.851,0,0,1,0,1.7A10.226,10.226,0,0,0,17.7,11.917.85.85,0,0,1,16.851,12.768Z" transform="translate(-0.893)"/>
      <path id="Trazado_156579" data-name="Trazado 156579" d="M18.852,62.661A.85.85,0,0,1,18,61.81V55.851a.851.851,0,1,1,1.7,0V61.81A.85.85,0,0,1,18.852,62.661Z" transform="translate(-1.19 -8.183)"/>
      <path id="Trazado_156580" data-name="Trazado 156580" d="M45.85,62.661A.85.85,0,0,1,45,61.81V55.851a.851.851,0,1,1,1.7,0V61.81A.85.85,0,0,1,45.85,62.661Z" transform="translate(-5.207 -8.183)"/>
      <path id="Trazado_156581" data-name="Trazado 156581" d="M31.256,58.513a2.245,2.245,0,0,1-1.6-.661l-2-2a2.27,2.27,0,0,1,0-3.2l2-2a2.319,2.319,0,0,1,3.2,0l2,2a2.266,2.266,0,0,1,0,3.2l-2,2A2.245,2.245,0,0,1,31.256,58.513Zm0-6.811a.555.555,0,0,0-.4.162l-2,2a.556.556,0,0,0-.161.4.55.55,0,0,0,.161.394l2,2a.577.577,0,0,0,.792,0l2-2a.567.567,0,0,0,0-.792l-2-2A.558.558,0,0,0,31.256,51.7Z" transform="translate(-2.529 -7.442)"/>
      <path id="Trazado_156582" data-name="Trazado 156582" d="M31.851,50.658A.85.85,0,0,1,31,49.807V43.853a.851.851,0,0,1,1.7,0v5.953A.85.85,0,0,1,31.851,50.658Z" transform="translate(-3.124 -6.398)"/>
      <path id="Trazado_156583" data-name="Trazado 156583" d="M31.852,63.107A.85.85,0,0,1,31,62.256V58.849a.851.851,0,0,1,1.7,0v3.407A.85.85,0,0,1,31.852,63.107Z" transform="translate(-3.125 -8.629)"/>
    </g>
  </g>
</svg>
