<svg xmlns="http://www.w3.org/2000/svg" width="77" height="77" viewBox="0 0 77 77">
  <g id="icon6" transform="translate(-282 -11748)">
    <g id="Rect치ngulo_27051" data-name="Rect치ngulo 27051" transform="translate(282 11748)" fill="#e0fffe" stroke="#0ac4bf" stroke-width="1">
      <rect width="77" height="77" rx="12" stroke="none"/>
      <rect x="0.5" y="0.5" width="76" height="76" rx="11.5" fill="none"/>
    </g>
    <g id="Electric_Plug" data-name="Electric Plug" transform="translate(296.557 11762.557)">
      <path id="Trazado_156532" data-name="Trazado 156532" d="M54.018,16.463v5.852A7.314,7.314,0,0,1,46.7,29.629H42.314A7.314,7.314,0,0,1,35,22.314V16.463A1.467,1.467,0,0,1,36.463,15H52.555A1.467,1.467,0,0,1,54.018,16.463Z" transform="translate(-8.862 -3.491)" fill="#c2fcfa"/>
      <path id="Trazado_156533" data-name="Trazado 156533" d="M54.345,16.463v5.852a7.314,7.314,0,0,1-7.314,7.314H42.642a7.3,7.3,0,0,1-6.422-3.818,7.241,7.241,0,0,0,3.5.892H44.1a7.314,7.314,0,0,0,7.314-7.314V15h1.463A1.467,1.467,0,0,1,54.345,16.463Z" transform="translate(-9.19 -3.491)" fill="#0ac4bf"/>
      <g id="Grupo_91098" data-name="Grupo 91098" transform="translate(29.063 2.731)">
        <path id="Trazado_156534" data-name="Trazado 156534" d="M55.389,11.777v2.194H51V5.194a2.194,2.194,0,1,1,4.389,0Z" transform="translate(-42.223 -3)" fill="#c2fcfa"/>
        <path id="Trazado_156535" data-name="Trazado 156535" d="M49.389,33.926V36.12a2.194,2.194,0,0,1-4.389,0V33.194a2.194,2.194,0,0,1,4.389,0Z" transform="translate(-40.611 -10.52)" fill="#c2fcfa"/>
        <path id="Trazado_156536" data-name="Trazado 156536" d="M43.389,11.777v2.194H39V5.194a2.194,2.194,0,1,1,4.389,0Z" transform="translate(-39 -3)" fill="#c2fcfa"/>
      </g>
      <rect id="Rect치ngulo_27045" data-name="Rect치ngulo 27045" width="17" height="22" rx="2" transform="translate(3 2.887)" fill="#0ac4bf"/>
      <path id="Trazado_156537" data-name="Trazado 156537" d="M20.555,4.463V23.48a1.467,1.467,0,0,1-1.463,1.463H4.463A1.467,1.467,0,0,1,3,23.48V22.018H16.166a1.467,1.467,0,0,0,1.463-1.463V3h1.463a1.467,1.467,0,0,1,1.463,1.463Z" transform="translate(-0.269 -0.269)" fill="#c2fcfa"/>
      <path id="Trazado_156538" data-name="Trazado 156538" d="M17.777,13.852l-4.389,8.777V16.777H9L13.389,8v5.852Z" transform="translate(-1.88 -1.611)" fill="#c2fcfa"/>
      <path id="Trazado_156539" data-name="Trazado 156539" d="M29.063,39.3h5.12a2.2,2.2,0,0,0,2.194-2.194V31.155a2.926,2.926,0,0,0,2.194-2.823v-1.5a8.054,8.054,0,0,0,7.314-8.009V12.972a2.2,2.2,0,0,0-2.194-2.194h-.731V4.926a2.926,2.926,0,1,0-5.852,0v5.852H34.184V4.926a2.926,2.926,0,0,0-5.852,0v5.852H27.6a2.2,2.2,0,0,0-2.194,2.194v5.852a8.054,8.054,0,0,0,7.314,8.009v1.5a2.926,2.926,0,0,0,2.194,2.823v5.954a.731.731,0,0,1-.731.731h-5.12a2.191,2.191,0,0,0-2.121,2.736,2.233,2.233,0,0,0,2.2,1.653H43.692a.731.731,0,0,1,.731.731v.731a.731.731,0,0,1-.731.731H17.36a5.126,5.126,0,0,1-5.12-5.12v-13.9h6.583a2.2,2.2,0,0,0,2.194-2.194V4.194A2.2,2.2,0,0,0,18.823,2H4.194A2.2,2.2,0,0,0,2,4.194V23.212a2.2,2.2,0,0,0,2.194,2.194h6.583V39.3a6.593,6.593,0,0,0,6.583,6.583H43.692a2.2,2.2,0,0,0,2.194-2.194v-.731a2.2,2.2,0,0,0-2.194-2.194H29.144a.8.8,0,0,1-.79-.549.7.7,0,0,1,.2-.7.679.679,0,0,1,.5-.212ZM38.572,4.926a1.463,1.463,0,1,1,2.926,0v8.046H38.572Zm-8.777,0a1.463,1.463,0,0,1,2.926,0v8.046H29.795Zm2.933,20.437a6.583,6.583,0,0,1-5.859-6.539V12.972a.731.731,0,0,1,.731-.731h.731V13.7a.731.731,0,0,0,.731.731h4.389a.731.731,0,0,0,.731-.731V12.24h2.926V13.7a.731.731,0,0,0,.731.731h4.389a.731.731,0,0,0,.731-.731V12.24h.731a.731.731,0,0,1,.731.731v5.852a6.583,6.583,0,0,1-5.859,6.539,2.918,2.918,0,1,0-5.837,0Zm1.456,2.97V25.406a1.463,1.463,0,1,1,2.926,0v2.926a1.463,1.463,0,0,1-2.926,0ZM4.194,23.943a.731.731,0,0,1-.731-.731V4.194a.731.731,0,0,1,.731-.731H18.823a.731.731,0,0,1,.731.731V23.212a.731.731,0,0,1-.731.731Z"/>
      <path id="Trazado_156540" data-name="Trazado 156540" d="M47,35h1.463v1.463H47Z" transform="translate(-12.085 -8.862)"/>
      <path id="Trazado_156541" data-name="Trazado 156541" d="M18.131,13.2a.731.731,0,0,0-.622-.344H13.852V7.732a.731.731,0,0,0-.563-.71.72.72,0,0,0-.819.38L8.081,16.18a.731.731,0,0,0,.651,1.061h3.657v5.12a.731.731,0,0,0,.563.71.664.664,0,0,0,.168.022.731.731,0,0,0,.651-.4l4.389-8.777a.737.737,0,0,0-.029-.717Zm-4.279,6.064v-2.75a.731.731,0,0,0-.731-.731h-3.2l2.472-4.945v2.75a.731.731,0,0,0,.731.731h3.2Z" transform="translate(-1.612 -1.343)"/>
    </g>
  </g>
</svg>
