<svg xmlns="http://www.w3.org/2000/svg" width="77" height="77" viewBox="0 0 77 77">
  <g id="icon1" transform="translate(-282 -11266)">
    <g id="Rectángulo_27046" data-name="Rectángulo 27046" transform="translate(282 11266)" fill="#e0fffe" stroke="#0ac4bf" stroke-width="1">
      <rect width="77" height="77" rx="12" stroke="none"/>
      <rect x="0.5" y="0.5" width="76" height="76" rx="11.5" fill="none"/>
    </g>
    <g id="_06-Gloves" data-name="06-Gloves" transform="translate(298.181 11282.294)">
      <g id="Grupo_91066" data-name="Grupo 91066" transform="translate(12.209 33.236)">
        <path id="Trazado_156445" data-name="Trazado 156445" d="M37.391,50.357V53.07a1.361,1.361,0,0,1-1.357,1.357H34V49h2.035A1.361,1.361,0,0,1,37.391,50.357Z" transform="translate(-23.147 -49)" fill="#c2fcfa"/>
        <path id="Trazado_156446" data-name="Trazado 156446" d="M26,49h2.713v5.426H26Z" transform="translate(-20.574 -49)" fill="#c2fcfa"/>
        <path id="Trazado_156447" data-name="Trazado 156447" d="M18,49h2.713v5.426H18Z" transform="translate(-18 -49)" fill="#c2fcfa"/>
      </g>
      <path id="Trazado_156448" data-name="Trazado 156448" d="M30,49h2.713v5.426H30Z" transform="translate(-9.652 -15.764)" fill="#0ac4bf"/>
      <path id="Trazado_156449" data-name="Trazado 156449" d="M22,49h2.713v5.426H22Z" transform="translate(-7.078 -15.764)" fill="#0ac4bf"/>
      <path id="Trazado_156450" data-name="Trazado 156450" d="M16.391,49v5.426H14.357A1.361,1.361,0,0,1,13,53.07V50.357A1.361,1.361,0,0,1,14.357,49Z" transform="translate(-4.182 -15.764)" fill="#0ac4bf"/>
      <path id="Trazado_156451" data-name="Trazado 156451" d="M9.139,21.13V17.956L7.8,6.615A2.035,2.035,0,0,1,9.662,4.4c.075-.007.149-.014.224-.014a2.068,2.068,0,0,1,2.082,1.8l.841,7.692h1.078V3.033A2.035,2.035,0,0,1,16.031,1a2.122,2.122,0,0,1,1.926,2.15V13.886h1.078l.841-7.692A2.079,2.079,0,0,1,22.183,4.4,2.04,2.04,0,0,1,24.062,6.4c0,.075-.007.142-.014.217l-.794,7.271h1.024l1.085-4.545a2.09,2.09,0,0,1,2.5-1.506,2.006,2.006,0,0,1,1.567,2.408l-2.659,11.1v7.461c0,1.357-.678,2.713-1.357,2.713v2.035H10.5a3.964,3.964,0,0,0-.678-2.713c-3.391-3.391-4.07-4.07-4.07-6.783L1.5,18.641A2.035,2.035,0,0,1,1,17.312a2.064,2.064,0,0,1,.753-1.587,2.147,2.147,0,0,1,2.978.258Z" transform="translate(-0.322 -0.32)" fill="#0ac4bf"/>
      <path id="Trazado_156452" data-name="Trazado 156452" d="M38.484,11.056A2.136,2.136,0,0,0,37,11.267a1.978,1.978,0,0,1,1.017,2.2l-2.657,11.1v7.461c0,1.357-.678,2.713-1.357,2.713v2.035h2.035V34.742c.678,0,1.357-1.357,1.357-2.713V24.567l2.659-11.1a2.006,2.006,0,0,0-1.567-2.408Z" transform="translate(-10.938 -3.54)" fill="#988fc4"/>
      <path id="Trazado_156453" data-name="Trazado 156453" d="M9.255,28.023l-.115-.136L4.731,22.739a2.147,2.147,0,0,0-2.978-.258A2.064,2.064,0,0,0,1,24.068,2.035,2.035,0,0,0,1.5,25.4l4.253,5.42c0,2.713.678,3.391,4.07,6.783a3.964,3.964,0,0,1,.678,2.713h7.461V30.139C15.922,24.035,9.255,28.023,9.255,28.023Z" transform="translate(-0.322 -7.077)" fill="#c2fcfa"/>
      <path id="Trazado_156454" data-name="Trazado 156454" d="M9.305,28.023l-.115-.136L4.781,22.739A2.147,2.147,0,0,0,1.8,22.481a2.072,2.072,0,0,0-.646.975,2.146,2.146,0,0,1,2.268.639l4.409,5.148.115.136s6.668-3.988,8.7,2.116v8.818h1.357V30.139C15.973,24.035,9.305,28.023,9.305,28.023Z" transform="translate(-0.372 -7.077)" fill="#338885"/>
      <path id="Trazado_156455" data-name="Trazado 156455" d="M57.391,56.357V59.07a1.361,1.361,0,0,1-1.357,1.357H54V55h2.035a1.361,1.361,0,0,1,1.357,1.357Z" transform="translate(-17.373 -17.694)" fill="#c2fcfa"/>
      <path id="Trazado_156456" data-name="Trazado 156456" d="M46,55h2.713v5.426H46Z" transform="translate(-14.799 -17.694)" fill="#c2fcfa"/>
      <path id="Trazado_156457" data-name="Trazado 156457" d="M38,55h2.713v5.426H38Z" transform="translate(-12.225 -17.694)" fill="#c2fcfa"/>
      <path id="Trazado_156458" data-name="Trazado 156458" d="M50,55h2.713v5.426H50Z" transform="translate(-16.086 -17.694)" fill="#c2fcfa"/>
      <path id="Trazado_156459" data-name="Trazado 156459" d="M42,55h2.713v5.426H42Z" transform="translate(-13.512 -17.694)" fill="#c2fcfa"/>
      <path id="Trazado_156460" data-name="Trazado 156460" d="M36.391,55v5.426H34.357A1.361,1.361,0,0,1,33,59.07V56.357A1.361,1.361,0,0,1,34.357,55Z" transform="translate(-10.617 -17.694)" fill="#c2fcfa"/>
      <path id="Trazado_156461" data-name="Trazado 156461" d="M29.139,27.13V23.956L27.8,12.615A2.035,2.035,0,0,1,29.662,10.4c.075-.007.149-.014.224-.014a2.068,2.068,0,0,1,2.082,1.8l.841,7.692h1.078V9.033A2.035,2.035,0,0,1,36.031,7a2.122,2.122,0,0,1,1.926,2.15V19.886h1.078l.841-7.692A2.079,2.079,0,0,1,42.183,10.4,2.04,2.04,0,0,1,44.062,12.4c0,.075-.007.142-.014.217l-.794,7.271h1.024l1.085-4.545a2.09,2.09,0,0,1,2.5-1.506,2.006,2.006,0,0,1,1.567,2.408l-2.659,11.1v7.461c0,1.357-.678,2.713-1.357,2.713v2.035H30.5a3.964,3.964,0,0,0-.678-2.713c-3.391-3.391-4.07-4.07-4.07-6.783L21.5,24.641a2.035,2.035,0,0,1-.5-1.329,2.064,2.064,0,0,1,.753-1.587,2.147,2.147,0,0,1,2.978.258Z" transform="translate(-6.756 -2.251)" fill="#0ac4bf"/>
      <path id="Trazado_156462" data-name="Trazado 156462" d="M58.484,17.056A2.136,2.136,0,0,0,57,17.267a1.978,1.978,0,0,1,1.017,2.2l-2.657,11.1v7.461c0,1.357-.678,2.713-1.357,2.713v2.035h2.035V40.742c.678,0,1.357-1.357,1.357-2.713V30.567l2.659-11.1a2.006,2.006,0,0,0-1.567-2.408Z" transform="translate(-17.373 -5.471)" fill="#c2fcfa"/>
      <path id="Trazado_156463" data-name="Trazado 156463" d="M29.255,34.023l-.115-.136-4.409-5.148a2.147,2.147,0,0,0-2.978-.258A2.064,2.064,0,0,0,21,30.068a2.035,2.035,0,0,0,.5,1.329l4.253,5.42c0,2.713.678,3.391,4.07,6.783a3.964,3.964,0,0,1,.678,2.713h7.461V36.139C35.922,30.035,29.255,34.023,29.255,34.023Z" transform="translate(-6.756 -9.007)" fill="#c2fcfa"/>
      <path id="Trazado_156464" data-name="Trazado 156464" d="M29.305,34.023l-.115-.136-4.409-5.148a2.147,2.147,0,0,0-2.978-.258,2.072,2.072,0,0,0-.646.975,2.146,2.146,0,0,1,2.268.639l4.409,5.148.115.136s6.668-3.988,8.7,2.116v8.818h1.357V36.139C35.973,30.035,29.305,34.023,29.305,34.023Z" transform="translate(-6.807 -9.007)" fill="#2daca8"/>
      <path id="Trazado_156465" data-name="Trazado 156465" d="M49.442,14.076A2.738,2.738,0,0,0,47.7,12.851a2.777,2.777,0,0,0-3.311,2.01l-.47,1.962.488-4.457a2.62,2.62,0,0,0-.577-1.945A2.8,2.8,0,0,0,38.882,11.8l-.568,5.187V8.829A2.774,2.774,0,0,0,35.746,6a2.713,2.713,0,0,0-2.858,2.709v8.271L32.319,11.8a2.8,2.8,0,0,0-4.944-1.376,2.623,2.623,0,0,0-.576,1.951l1.34,11.3v1.3L24.923,21.22A2.828,2.828,0,0,0,21,20.88a2.713,2.713,0,0,0-.992,1.873,2.68,2.68,0,0,0,.628,1.984l4.109,5.239c.043,2.8.91,3.669,4.25,7.009a3.16,3.16,0,0,1,.475,1.7,2.035,2.035,0,0,0-1.334,1.9v2.713a2.035,2.035,0,0,0,2.035,2.035H45.1a2.035,2.035,0,0,0,2.035-2.035V40.593a2.035,2.035,0,0,0-1.357-1.91V37.676a3.951,3.951,0,0,0,1.357-3.188V27.107l2.641-11.024a2.612,2.612,0,0,0-.33-2.006ZM29.5,43.306V40.593a.678.678,0,0,1,.678-.678h1.357v4.07H30.174A.678.678,0,0,1,29.5,43.306Zm12.888-3.391v4.07H41.027v-4.07Zm-2.713,4.07H38.314v-4.07H39.67Zm-2.713,0H35.6v-4.07h1.357Zm-2.713,0H32.887v-4.07h1.357Zm11.531-.678a.678.678,0,0,1-.678.678H43.74v-4.07H45.1a.678.678,0,0,1,.678.678Zm2.677-27.539-2.659,11.1a.685.685,0,0,0-.018.157v7.461a2.938,2.938,0,0,1-.678,2.035.678.678,0,0,0-.678.678v1.357H30.825a4,4,0,0,0-.849-2.514c-3.355-3.356-3.871-3.871-3.871-6.3a.678.678,0,0,0-.145-.419L21.686,23.88a1.362,1.362,0,0,1,.176-1.949,1.464,1.464,0,0,1,2.029.172l4.526,5.283a.678.678,0,0,0,.864.141c.03-.018,3.081-1.816,5.421-.95a3.98,3.98,0,0,1,2.289,2.7l1.289-.429a5.256,5.256,0,0,0-3.1-3.542c-2.076-.769-4.42.026-5.679.594V23.636a.626.626,0,0,0,0-.08L28.147,12.219a1.268,1.268,0,0,1,.282-.944,1.428,1.428,0,0,1,.978-.519,1.405,1.405,0,0,1,1.56,1.19l.843,7.694a.678.678,0,0,0,.674.6h1.081a.678.678,0,0,0,.678-.678V8.713a1.357,1.357,0,0,1,1.43-1.357,1.437,1.437,0,0,1,1.283,1.472V19.566a.678.678,0,0,0,.678.678h1.078a.678.678,0,0,0,.674-.6l.843-7.694a1.407,1.407,0,0,1,1.56-1.19,1.428,1.428,0,0,1,.978.519,1.268,1.268,0,0,1,.282.944l-.794,7.273a.678.678,0,0,0,.675.752h1.022a.678.678,0,0,0,.66-.52l1.09-4.545a1.411,1.411,0,0,1,1.7-1,1.4,1.4,0,0,1,.891.619,1.266,1.266,0,0,1,.161.972Z" transform="translate(-6.434 -1.93)"/>
      <path id="Trazado_156466" data-name="Trazado 156466" d="M18.314,33.915h.678V32.558H10.825a4,4,0,0,0-.849-2.514C6.621,26.688,6.1,26.173,6.1,23.74a.678.678,0,0,0-.145-.419L1.686,17.88a1.362,1.362,0,0,1,.176-1.949,1.464,1.464,0,0,1,2.029.172l4.526,5.283a.678.678,0,0,0,.863.142,9.483,9.483,0,0,1,3.65-1.171L12.841,19a10.05,10.05,0,0,0-3.345.9V17.636a.626.626,0,0,0,0-.08L8.147,6.219a1.268,1.268,0,0,1,.282-.944,1.428,1.428,0,0,1,.978-.519,1.4,1.4,0,0,1,1.56,1.19l.843,7.694a.678.678,0,0,0,.674.6h1.081a.678.678,0,0,0,.678-.678V2.713a1.36,1.36,0,0,1,1.43-1.357,1.437,1.437,0,0,1,1.283,1.472V13.566a.678.678,0,0,0,.678.678h1.078a.678.678,0,0,0,.674-.6l.843-7.694a1.4,1.4,0,0,1,1.56-1.19,1.428,1.428,0,0,1,.978.519,1.268,1.268,0,0,1,.282.944l1.349.148a2.62,2.62,0,0,0-.577-1.945A2.8,2.8,0,0,0,18.879,5.8l-.566,5.186V2.829A2.774,2.774,0,0,0,15.746,0a2.713,2.713,0,0,0-2.858,2.709v8.271L12.319,5.8A2.8,2.8,0,0,0,7.375,4.422,2.623,2.623,0,0,0,6.8,6.376l1.34,11.3v1.3L4.923,15.22A2.828,2.828,0,0,0,1,14.88a2.713,2.713,0,0,0-.992,1.873,2.68,2.68,0,0,0,.628,1.984l4.109,5.239c.043,2.8.91,3.669,4.25,7.009a3.16,3.16,0,0,1,.475,1.7,2.035,2.035,0,0,0-1.334,1.9v2.713a2.035,2.035,0,0,0,2.035,2.035H20.348V37.984H18.314Zm-1.357,4.07H15.6v-4.07h1.357Zm-2.713,0H12.887v-4.07h1.357ZM9.5,37.306V34.593a.678.678,0,0,1,.678-.678h1.357v4.07H10.174A.678.678,0,0,1,9.5,37.306Z" transform="translate(0 0)"/>
    </g>
  </g>
</svg>
