<svg xmlns="http://www.w3.org/2000/svg" width="77" height="77" viewBox="0 0 77 77">
  <g id="Grupo_91212" data-name="Grupo 91212" transform="translate(-379 -12318)">
    <g id="Rectángulo_27052" data-name="Rectángulo 27052" transform="translate(379 12318)" fill="#e0fffe" stroke="#0ac4bf" stroke-width="1">
      <rect width="77" height="77" rx="12" stroke="none"/>
      <rect x="0.5" y="0.5" width="76" height="76" rx="11.5" fill="none"/>
    </g>
    <g id="gorra" transform="translate(374.04 12331.277)">
      <g id="Grupo_91206" data-name="Grupo 91206" transform="translate(20.471 0.754)">
        <path id="Trazado_156713" data-name="Trazado 156713" d="M33.779,9.732c-8.86,4.6-6.469,12.94-5.674,20.506C37.023,46.37,38.617,48.569,48.887,57.076c4.691.977,9.48-.231,16.563-.82,8.169-.68,9.406-11.9,5.834-16.223s-5.294-3.786-6.42-16.038C63.539,6.772,42.753,5.069,33.779,9.732Z" transform="translate(-27.207 -7.501)" fill="#c2fcfa" fill-rule="evenodd"/>
      </g>
      <g id="Grupo_91207" data-name="Grupo 91207" transform="translate(21.577 25.069)">
        <path id="Trazado_156714" data-name="Trazado 156714" d="M38.215,251.619c.154,9.14,7.686,20.821,17.349,22.081,3.468-9.558-5.477-22.972-13.666-24.2A4.8,4.8,0,0,0,38.215,251.619Z" transform="translate(-38.215 -249.488)" fill="#eff6ff" fill-rule="evenodd"/>
      </g>
      <g id="Grupo_91208" data-name="Grupo 91208" transform="translate(26.292 0.754)">
        <path id="Trazado_156715" data-name="Trazado 156715" d="M85.133,10.146c9.863-3.16,27.246-.36,28.454,15.343,1.126,12.252,2.849,11.718,6.42,16.038,2.84,3.437,2.64,11.235-1.666,14.626,7.46-1.309,8.5-11.94,5.049-16.12-3.571-4.32-5.294-3.786-6.42-16.038C115.644,6.772,94.859,5.069,85.884,9.732c-.26.134-.511.274-.751.414Z" transform="translate(-85.133 -7.501)" fill="#0ac4bf" fill-rule="evenodd"/>
      </g>
      <g id="Grupo_91209" data-name="Grupo 91209" transform="translate(21.369 22.768)">
        <path id="Trazado_156716" data-name="Trazado 156716" d="M39.008,229.76c8.189,1.229,15.577,14.415,14.689,23.346a15.713,15.713,0,0,0,3.226,1.049c2.214-13.869-11.206-31.341-20.783-26.838a32.914,32.914,0,0,1,.209,3.426v.283a2.411,2.411,0,0,1,2.66-1.266Z" transform="translate(-36.139 -226.595)" fill="#0ac4bf" fill-rule="evenodd"/>
      </g>
      <g id="Grupo_91210" data-name="Grupo 91210" transform="translate(21.577 25.901)">
        <path id="Trazado_156717" data-name="Trazado 156717" d="M38.386,261.264c7.183-.063,12.734,10.929,13.88,19.038a14.127,14.127,0,0,0,3.3.849c.889-8.932-6.5-22.118-14.689-23.346a2.412,2.412,0,0,0-2.66,1.266A19.367,19.367,0,0,0,38.386,261.264Z" transform="translate(-38.215 -257.771)" fill="#d9eeff" fill-rule="evenodd"/>
      </g>
      <g id="Grupo_91211" data-name="Grupo 91211" transform="translate(19.719 0)">
        <path id="Trazado_156718" data-name="Trazado 156718" d="M196.395,66.884a12.929,12.929,0,0,0-6.888-2.853.754.754,0,1,0-.112,1.5,11.36,11.36,0,0,1,6.053,2.522c2.989,2.414,4.833,6.216,5.481,11.3a.754.754,0,1,0,1.5-.191C201.725,73.683,199.7,69.551,196.395,66.884Z" transform="translate(-171.718 -57.596)"/>
        <path id="Trazado_156719" data-name="Trazado 156719" d="M65.13,32.8c-.647-.782-1.239-1.413-1.76-1.97-2.079-2.217-3.224-3.439-4.1-10.08a.754.754,0,0,0-1.494.2c.938,7.122,2.353,8.631,4.494,10.914.507.54,1.081,1.153,1.7,1.9,1.922,2.327,2.289,6.854.834,10.307a7.138,7.138,0,0,1-6.15,4.685c-2.08.173-4,.4-5.7.607-3.862.463-6.969.835-9.959.351a22.746,22.746,0,0,0-.114-6.1c4.4-1.021,7.029-.582,9.772.459a.754.754,0,0,0,.535-1.409,16.642,16.642,0,0,0-10.572-.535A29.429,29.429,0,0,0,41.2,37.407c3.849-3.1,5.645-3.541,8.5-3.745a.754.754,0,1,0-.107-1.5c-3.134.224-5.245.845-9,3.8a32.218,32.218,0,0,0-3.2-5.566,23.465,23.465,0,0,1,4.886-8.071l.221-.268a.754.754,0,1,0-1.163-.959l-.22.267a26.394,26.394,0,0,0-4.826,7.591A24.215,24.215,0,0,0,32.149,24.9q-.719-.541-1.441-.982a23.232,23.232,0,0,1,1.7-5.588.754.754,0,1,0-1.384-.6,25.113,25.113,0,0,0-1.712,5.425,9.739,9.739,0,0,0-7.3-.735c-.073-.611-.151-1.222-.229-1.826C20.9,13.84,20.079,7.454,27.39,3.653,32.636.928,42.231.427,49.21,4.307a15.565,15.565,0,0,1,8.167,13,.754.754,0,1,0,1.5-.116,17.011,17.011,0,0,0-8.937-14.2A25.854,25.854,0,0,0,37.681,0H37.51A24.3,24.3,0,0,0,26.7,2.316a11.8,11.8,0,0,0-6.64,8.358c-.665,3.2-.211,6.721.229,10.122a48.677,48.677,0,0,1,.54,6.121c0,9.569,7.808,21.7,17.9,23.1a17.63,17.63,0,0,0,7.33,1.433,60.739,60.739,0,0,0,7.087-.585c1.764-.212,3.588-.43,5.641-.6a8.619,8.619,0,0,0,7.414-5.6c1.681-3.99,1.224-9.086-1.061-11.852ZM27.2,40.621a24.762,24.762,0,0,1-4.861-13.255,1.765,1.765,0,0,1,1.788-.686c3.14.472,6.517,3.009,9.265,6.962a.754.754,0,1,0,1.238-.86c-3.028-4.355-6.678-7.051-10.28-7.593a3.679,3.679,0,0,0-2.059.28c-.027-.5-.067-1-.114-1.5,2.675-1.011,5.872-.263,9.069,2.141C37.213,30.6,42.554,40.417,41.518,49.4a14.943,14.943,0,0,1-1.8-.6,25.49,25.49,0,0,0-3.227-12.945.754.754,0,0,0-1.333.7A24.24,24.24,0,0,1,38.231,48.4C34.19,47.619,30.3,44.882,27.2,40.621Z" transform="translate(-19.719 0)"/>
      </g>
    </g>
  </g>
</svg>
