<svg xmlns="http://www.w3.org/2000/svg" width="77" height="77" viewBox="0 0 77 77">
  <g id="icon4" transform="translate(-282 -11557)">
    <g id="Rectángulo_27049" data-name="Rectángulo 27049" transform="translate(282 11557)" fill="#e0fffe" stroke="#0ac4bf" stroke-width="1">
      <rect width="77" height="77" rx="12" stroke="none"/>
      <rect x="0.5" y="0.5" width="76" height="76" rx="11.5" fill="none"/>
    </g>
    <g id="reloj" transform="translate(290.656 11571.488)">
      <g id="Grupo_91095" data-name="Grupo 91095" transform="translate(0.713 0.713)">
        <g id="Grupo_91094" data-name="Grupo 91094" transform="translate(23.861)">
          <path id="Trazado_156494" data-name="Trazado 156494" d="M316.795,21.523l6.8-7.855-2.6-5.071h-8.4L310,13.668Z" transform="translate(-305.096 -8.597)" fill="#0ac4bf"/>
          <path id="Trazado_156495" data-name="Trazado 156495" d="M270.138,144.542a11.7,11.7,0,1,0,11.7,11.7A11.7,11.7,0,0,0,270.138,144.542Zm0,19.875a8.176,8.176,0,1,1,8.176-8.175A8.176,8.176,0,0,1,270.138,164.417Z" transform="translate(-258.44 -131.616)" fill="#f2d6e3"/>
          <g id="Grupo_91093" data-name="Grupo 91093" transform="translate(0 12.926)">
            <path id="Trazado_156496" data-name="Trazado 156496" d="M260.317,156.242a11.7,11.7,0,0,1,10.76-11.662q-.464-.037-.939-.037a11.7,11.7,0,0,0,0,23.4q.474,0,.939-.037A11.7,11.7,0,0,1,260.317,156.242Z" transform="translate(-258.44 -144.542)" fill="#bf3976"/>
            <path id="Trazado_156497" data-name="Trazado 156497" d="M391.34,197.892a8.268,8.268,0,0,0,.939.055,8.176,8.176,0,1,0-.939-16.3,8.174,8.174,0,0,1,0,16.241Z" transform="translate(-378.703 -178.073)" fill="#bf3976"/>
          </g>
          <path id="Trazado_156498" data-name="Trazado 156498" d="M339.822,110.842H333.9a1.724,1.724,0,0,0,0,3.448h5.927a1.724,1.724,0,0,0,0-3.448Z" transform="translate(-325.16 -101.12)" fill="#c2fcfa"/>
          <path id="Trazado_156499" data-name="Trazado 156499" d="M335.887,113.778a1.722,1.722,0,0,0,1.22.5H333.9a1.724,1.724,0,1,1,0-3.449h3.209a1.725,1.725,0,0,0-1.22,2.944Z" transform="translate(-325.161 -101.113)" fill="#c2fcfa"/>
        </g>
        <path id="Trazado_156500" data-name="Trazado 156500" d="M66.809,69.573a51.225,51.225,0,0,1-3.38,10.847,2.932,2.932,0,0,1-2.672,1.719H49.522A2.932,2.932,0,0,1,46.85,80.42a51.224,51.224,0,0,1-3.38-10.847V50.439a51.225,51.225,0,0,1,3.38-10.847,2.932,2.932,0,0,1,2.672-1.719H60.756a2.932,2.932,0,0,1,2.672,1.719,51.225,51.225,0,0,1,3.38,10.847" transform="translate(-40.05 -35.089)" fill="#0ac4bf"/>
        <path id="Trazado_156501" data-name="Trazado 156501" d="M51.609,82.133H49.521a2.934,2.934,0,0,1-2.672-1.719A51.239,51.239,0,0,1,43.47,69.567V50.433a51.242,51.242,0,0,1,3.379-10.848,2.935,2.935,0,0,1,2.672-1.719h2.088c-.723,0-1.381.671-1.679,1.719a75.487,75.487,0,0,0-2.124,10.848V69.567A75.477,75.477,0,0,0,49.93,80.414C50.228,81.463,50.886,82.133,51.609,82.133Z" transform="translate(-40.05 -35.084)" fill="#c2fcfa"/>
        <ellipse id="Elipse_6474" data-name="Elipse 6474" cx="15.09" cy="15.09" rx="15.09" ry="15.09" transform="translate(0 9.827)" fill="#f2d6e3"/>
        <path id="Trazado_156502" data-name="Trazado 156502" d="M23.508,142.1c-.3.018-.61.028-.919.028a15.09,15.09,0,0,1,0-30.179c.308,0,.615.01.919.028a15.09,15.09,0,0,0,0,30.124Z" transform="translate(-7.5 -102.122)" fill="#bf3976"/>
        <path id="Trazado_156503" data-name="Trazado 156503" d="M66.813,159.583a11.632,11.632,0,1,1-.131-1.757A11.82,11.82,0,0,1,66.813,159.583Z" transform="translate(-40.053 -134.667)" fill="#d3effb"/>
        <path id="Trazado_156504" data-name="Trazado 156504" d="M91.284,182.428l-13.3,13.294a11.647,11.647,0,0,1-7.328-4.213L87.069,175.1A11.656,11.656,0,0,1,91.284,182.428Z" transform="translate(-64.655 -159.268)" fill="#ecf9f9"/>
      </g>
      <g id="Grupo_91096" data-name="Grupo 91096" transform="translate(0 0)">
        <path id="Trazado_156505" data-name="Trazado 156505" d="M45.858,18.552a12.478,12.478,0,0,0-4.875-3.6,2.434,2.434,0,0,0-.619-3.856l3.243-3.749a.713.713,0,0,0,.1-.791l-2.6-5.071a.713.713,0,0,0-.635-.388h-8.4a.713.713,0,0,0-.635.388l-2.6,5.071a.713.713,0,0,0,.1.791L32.181,11.1a2.434,2.434,0,0,0-.62,3.855,12.382,12.382,0,0,0-3.327,2.028l-.09-.111a51.6,51.6,0,0,0-3.4-10.85A3.652,3.652,0,0,0,21.42,3.882H10.186A3.651,3.651,0,0,0,6.864,6.019a51.587,51.587,0,0,0-3.4,10.85,15.768,15.768,0,0,0,0,19.717A52.563,52.563,0,0,0,5.018,42.6a.713.713,0,1,0,1.358-.436c-.433-1.35-.768-2.587-1.012-3.582a15.77,15.77,0,0,0,20.877,0,49.216,49.216,0,0,1-2.8,8.266,2.222,2.222,0,0,1-2.022,1.3H10.186a2.222,2.222,0,0,1-2.022-1.3c-.3-.659-.586-1.345-.854-2.039a.713.713,0,1,0-1.33.514c.278.719.575,1.429.885,2.113a3.65,3.65,0,0,0,3.322,2.137H21.42a3.651,3.651,0,0,0,3.322-2.137,51.575,51.575,0,0,0,3.4-10.85q.185-.231.361-.468A12.412,12.412,0,0,0,45.858,18.552ZM33.309,14.268a1.011,1.011,0,0,1,0-2.022h5.927a1.011,1.011,0,0,1,0,2.022ZM33.551,7.6l.894,3.224h-.619L31.037,7.6Zm7.956,0L38.719,10.82H38.1L38.993,7.6ZM36.619,10.82h-.694L35.031,7.6h2.482ZM41.9,6.169H39.057l-.6-3.645h1.578ZM37.013,2.524l.6,3.645H34.933l.6-3.645Zm-4.505,0h1.578l-.6,3.645H30.643ZM8.163,6.608a2.222,2.222,0,0,1,2.023-1.3H21.42a2.222,2.222,0,0,1,2.023,1.3,49.221,49.221,0,0,1,2.8,8.266,15.77,15.77,0,0,0-20.876,0,49.2,49.2,0,0,1,2.8-8.266ZM15.8,41.1A14.376,14.376,0,1,1,30.179,26.728,14.393,14.393,0,0,1,15.8,41.1Zm20.47-3.681a10.952,10.952,0,0,1-6.967-2.493,15.78,15.78,0,0,0,.993-1.912A8.889,8.889,0,0,0,43.13,20.781a.713.713,0,0,0-1.1.909,7.462,7.462,0,0,1-11.182,9.872A15.8,15.8,0,0,0,30.7,21.469a7.464,7.464,0,0,1,9.416-1.426.713.713,0,1,0,.737-1.221,8.891,8.891,0,0,0-10.745,1.207,15.794,15.794,0,0,0-1.047-1.882,10.933,10.933,0,0,1,4.9-2.452h4.6a10.986,10.986,0,0,1-2.3,21.728Z" transform="translate(0 -1.098)"/>
        <path id="Trazado_156506" data-name="Trazado 156506" d="M48.353,140.415A12.383,12.383,0,1,0,60.735,152.8,12.4,12.4,0,0,0,48.353,140.415Zm.713,23.315v-3.48a.713.713,0,1,0-1.426,0v3.48A10.972,10.972,0,0,1,37.42,153.511H40.9a.713.713,0,1,0,0-1.426H37.42a10.972,10.972,0,0,1,10.219-10.219v3.48a.713.713,0,1,0,1.426,0v-3.48a10.972,10.972,0,0,1,10.219,10.219h-3.48a.713.713,0,1,0,0,1.426h3.48A10.972,10.972,0,0,1,49.066,163.73Z" transform="translate(-32.55 -127.168)"/>
        <path id="Trazado_156507" data-name="Trazado 156507" d="M111.47,211.08l-1.913,1.913-4.734-4.734a.713.713,0,0,0-1.008,1.008l5.238,5.238a.713.713,0,0,0,1.008,0l2.418-2.418a.713.713,0,1,0-1.008-1.008Z" transform="translate(-93.754 -188.372)"/>
      </g>
    </g>
    <g id="prohibido" transform="translate(329.058 11574.807)">
      <path id="Trazado_156508" data-name="Trazado 156508" d="M258.82,7.52V31.046a11.764,11.764,0,0,0,0-23.526Z" transform="translate(-246.567 -7.164)" fill="#e0230d"/>
      <path id="Trazado_156509" data-name="Trazado 156509" d="M19.4,7.5c5.651.081,10.21,5.317,10.21,11.763S25.048,30.946,19.4,31.027h-.133a11.764,11.764,0,0,1,0-23.528Z" transform="translate(-7.145 -7.145)" fill="#ff5440"/>
      <path id="Trazado_156510" data-name="Trazado 156510" d="M272.037,145.62l-.744.744-6.052,13.39a8.918,8.918,0,0,0,6.8-14.134Z" transform="translate(-252.684 -138.726)" fill="#c6e8ff"/>
      <path id="Trazado_156511" data-name="Trazado 156511" d="M157.335,161.34a10.193,10.193,0,0,1,1.014,4.481c0,4.754-3.125,8.64-7.066,8.908h-.008a8.916,8.916,0,0,1-5.654-1.675Z" transform="translate(-138.726 -153.702)" fill="#fff"/>
      <path id="Trazado_156512" data-name="Trazado 156512" d="M270.2,69.5l-.4.4L265.42,67.83A8.9,8.9,0,0,1,270.2,69.5Z" transform="translate(-252.855 -64.619)" fill="#c6e8ff"/>
      <path id="Trazado_156513" data-name="Trazado 156513" d="M81.336,69.679,69.277,81.739a8.919,8.919,0,0,1,7.68-14.133A6.872,6.872,0,0,1,81.336,69.679Z" transform="translate(-64.392 -64.394)" fill="#fff"/>
      <path id="Trazado_156514" data-name="Trazado 156514" d="M20.688,3.55A12.119,12.119,0,0,0,3.55,20.688,12.119,12.119,0,0,0,20.688,3.55ZM12.119,23.528A11.409,11.409,0,1,1,23.528,12.119,11.422,11.422,0,0,1,12.119,23.528Z" transform="translate(0)"/>
      <path id="Trazado_156515" data-name="Trazado 156515" d="M151.22,138.266a.355.355,0,0,0-.539-.043l-12.459,12.459a.355.355,0,0,0,.043.539,9.28,9.28,0,0,0,12.955-12.955Zm-1.463,11.492a8.586,8.586,0,0,1-10.731,1.124l11.856-11.856A8.527,8.527,0,0,1,149.757,149.758Z" transform="translate(-131.58 -131.58)"/>
      <path id="Trazado_156516" data-name="Trazado 156516" d="M74.955,62.114a.355.355,0,0,0-.146-.259,9.3,9.3,0,0,0-11.452.46.355.355,0,1,0,.461.54,8.537,8.537,0,0,1,10.23-.661L62.193,74.049a8.537,8.537,0,0,1,.661-10.23.355.355,0,0,0-.54-.461,9.3,9.3,0,0,0-.46,11.452.355.355,0,0,0,.259.146h.028a.355.355,0,0,0,.251-.1L74.852,62.393A.355.355,0,0,0,74.955,62.114Z" transform="translate(-57.257 -57.257)"/>
    </g>
  </g>
</svg>
