<svg xmlns="http://www.w3.org/2000/svg" width="77" height="77" viewBox="0 0 77 77">
  <g id="icon5" transform="translate(-282 -11648)">
    <g id="Rectángulo_27050" data-name="Rectángulo 27050" transform="translate(282 11648)" fill="#e0fffe" stroke="#0ac4bf" stroke-width="1">
      <rect width="77" height="77" rx="12" stroke="none"/>
      <rect x="0.5" y="0.5" width="76" height="76" rx="11.5" fill="none"/>
    </g>
    <g id="obstaculo" transform="translate(294.656 11665.915)">
      <path id="Trazado_156519" data-name="Trazado 156519" d="M30.628,373.172H22.835a1.272,1.272,0,0,0-1.272,1.272v1.706a1.272,1.272,0,0,0,1.272,1.272h7.793A1.272,1.272,0,0,0,31.9,376.15v-1.706A1.272,1.272,0,0,0,30.628,373.172Zm0,0" transform="translate(-19.321 -334.375)" fill="#c2fcfa"/>
      <g id="Grupo_91097" data-name="Grupo 91097" transform="translate(0.78 0.78)">
        <path id="Trazado_156521" data-name="Trazado 156521" d="M392.272,373.172h7.793a1.272,1.272,0,0,1,1.272,1.272v1.706a1.272,1.272,0,0,1-1.272,1.272h-7.793A1.272,1.272,0,0,1,391,376.15v-1.706A1.272,1.272,0,0,1,392.272,373.172Zm0,0" transform="translate(-351.13 -335.155)" fill="#c2fcfa"/>
        <path id="Trazado_156522" data-name="Trazado 156522" d="M18.539,7.5,10.9,11.231,7.5,18.538v4.036a2.276,2.276,0,0,0,2.277,2.277h2l11.052-7.589,6.3-9.761Zm0,0" transform="translate(-7.5 -7.5)" fill="#465059"/>
        <path id="Trazado_156523" data-name="Trazado 156523" d="M128.992,7.5l-12.854,9.761-4.5,7.589h10.586l11.953-8.675,5.4-8.675Zm0,0" transform="translate(-100.814 -7.5)" fill="#465059"/>
        <path id="Trazado_156524" data-name="Trazado 156524" d="M297.927,7.5h-4.076L281.9,16.175l-5.4,8.675h10.587l9.382-4.055,3.735-9.063V9.777A2.277,2.277,0,0,0,297.927,7.5Zm0,0" transform="translate(-248.534 -7.5)" fill="#465059"/>
      </g>
      <path id="Trazado_156525" data-name="Trazado 156525" d="M18.539,7.5,7.5,18.538V9.777A2.277,2.277,0,0,1,9.777,7.5Zm0,0" transform="translate(-6.72 -6.72)" fill="#0ac4bf"/>
      <path id="Trazado_156526" data-name="Trazado 156526" d="M72.507,7.5,55.155,24.851H48.6L65.953,7.5Zm0,0" transform="translate(-43.549 -6.72)" fill="#0ac4bf"/>
      <path id="Trazado_156527" data-name="Trazado 156527" d="M237.366,7.5,220.015,24.851h-6.554L230.812,7.5Zm0,0" transform="translate(-191.269 -6.72)" fill="#0ac4bf"/>
      <path id="Trazado_156528" data-name="Trazado 156528" d="M391.445,48.219v10.84a2.276,2.276,0,0,1-2.277,2.277H378.328Zm0,0" transform="translate(-338.995 -43.206)" fill="#0ac4bf"/>
      <path id="Trazado_156531" data-name="Trazado 156531" d="M3.056,0A3.06,3.06,0,0,0,0,3.056v12.8A3.06,3.06,0,0,0,3.056,18.91H4.273V38.017H3.514a2.054,2.054,0,0,0-2.052,2.052v1.706a2.055,2.055,0,0,0,2.052,2.052h7.793a2.055,2.055,0,0,0,2.052-2.052V40.069a2.054,2.054,0,0,0-2.052-2.052h-.759V32.533H42.681v5.484h-.759a2.054,2.054,0,0,0-2.052,2.052v1.706a2.054,2.054,0,0,0,2.052,2.052h7.794a2.054,2.054,0,0,0,2.052-2.052V40.069a2.054,2.054,0,0,0-2.052-2.052h-.759V18.91h1.217a3.06,3.06,0,0,0,3.056-3.057V3.056A3.06,3.06,0,0,0,50.173,0Zm-1.5,15.853V12.141L12.142,1.559h8.38L17.015,5.066a.78.78,0,0,0,1.1,1.1l4.609-4.609h4.349L11.284,17.351l-4.329-.019,9.058-9.057a.78.78,0,0,0-1.1-1.1L4.73,17.351H3.056A1.5,1.5,0,0,1,1.559,15.853ZM29.281,1.559h8.38L21.869,17.351h-8.38Zm14.934,0L28.423,17.351H24.075L39.867,1.559ZM11.8,40.069v1.706a.493.493,0,0,1-.493.493H3.514a.493.493,0,0,1-.493-.493V40.069a.493.493,0,0,1,.493-.492h7.793A.493.493,0,0,1,11.8,40.069ZM5.833,38.017V18.91H8.989V38.017ZM42.681,18.91v7.347h-5.5a.78.78,0,1,0,0,1.559h5.5v3.157H10.549V27.817H34.063a.78.78,0,0,0,0-1.559H10.549V18.91Zm7.527,21.158v1.706a.493.493,0,0,1-.493.493H41.922a.493.493,0,0,1-.493-.493V40.069a.493.493,0,0,1,.493-.492h7.793A.493.493,0,0,1,50.208,40.069ZM47.4,38.017H44.241V18.91H47.4Zm2.776-20.666H41.215L51.67,6.9v8.958A1.5,1.5,0,0,1,50.173,17.351Zm1.5-14.294V4.69L39.01,17.351H30.629L46.421,1.559h3.752A1.5,1.5,0,0,1,51.67,3.056ZM3.056,1.559h6.88L1.559,9.935V3.056A1.5,1.5,0,0,1,3.056,1.559Zm0,0"/>
    </g>
  </g>
</svg>
