<svg xmlns="http://www.w3.org/2000/svg" width="77" height="77" viewBox="0 0 77 77">
  <g id="icon2" transform="translate(-282 -11369)">
    <g id="Rectángulo_27047" data-name="Rectángulo 27047" transform="translate(282 11369)" fill="#e0fffe" stroke="#0ac4bf" stroke-width="1">
      <rect width="77" height="77" rx="12" stroke="none"/>
      <rect x="0.5" y="0.5" width="76" height="76" rx="11.5" fill="none"/>
    </g>
    <g id="mascarilla" transform="translate(296.738 11291.755)">
      <g id="Grupo_91067" data-name="Grupo 91067" transform="translate(8.449 102.128)">
        <path id="Trazado_156467" data-name="Trazado 156467" d="M121.168,116.564v8.449c0,8.265-7.255,15.021-15.584,15.021S90,133.283,90,125.014v-8.449h1.876a16.709,16.709,0,0,0,7.735-2.1,12.871,12.871,0,0,1,11.947,0,16.708,16.708,0,0,0,7.735,2.1Z" transform="translate(-90 -112.997)" fill="#0ac4bf"/>
      </g>
      <g id="Grupo_91068" data-name="Grupo 91068" transform="translate(0 101.002)">
        <path id="Trazado_156468" data-name="Trazado 156468" d="M165.715,241H146.939a.939.939,0,1,0,0,1.878h18.776a.939.939,0,1,0,0-1.878Z" transform="translate(-132.294 -227.854)"/>
        <path id="Trazado_156469" data-name="Trazado 156469" d="M166.063,172.943A29.774,29.774,0,0,0,156.326,171a29.778,29.778,0,0,0-9.737,1.945.939.939,0,0,0,.7,1.743,28.352,28.352,0,0,1,9.04-1.811,28.353,28.353,0,0,1,9.039,1.81.939.939,0,1,0,.7-1.743Z" transform="translate(-132.293 -164.427)"/>
        <path id="Trazado_156470" data-name="Trazado 156470" d="M165.364,291.062a28.35,28.35,0,0,1-9.04,1.811,28.351,28.351,0,0,1-9.04-1.811.939.939,0,0,0-.7,1.744,29.774,29.774,0,0,0,9.737,1.945,29.776,29.776,0,0,0,9.737-1.945.939.939,0,0,0-.7-1.744Z" transform="translate(-132.291 -273.159)"/>
        <path id="Trazado_156471" data-name="Trazado 156471" d="M44.154,101.066a4.7,4.7,0,0,0-5.38,3.691H37.742a15.777,15.777,0,0,1-7.3-1.99,13.81,13.81,0,0,0-12.819,0,15.778,15.778,0,0,1-7.3,1.99H9.292a4.7,4.7,0,0,0-5.38-3.691A4.843,4.843,0,0,0,0,105.9v6.918a13.55,13.55,0,0,0,13.514,13.534,16.61,16.61,0,0,0,21.039,0,13.473,13.473,0,0,0,7.467-2.258.939.939,0,0,0-1.04-1.563,11.578,11.578,0,0,1-4.275,1.741,15.519,15.519,0,0,0,3.851-10.124V105.7a2.818,2.818,0,0,1,3.3-2.777,2.953,2.953,0,0,1,2.336,2.978v6.918a11.653,11.653,0,0,1-.558,3.576.939.939,0,0,0,1.787.575,13.531,13.531,0,0,0,.649-4.151V105.9A4.843,4.843,0,0,0,44.154,101.066ZM1.878,112.815V105.9a2.953,2.953,0,0,1,2.336-2.978,2.818,2.818,0,0,1,3.3,2.777v8.449a15.519,15.519,0,0,0,3.85,10.123A11.676,11.676,0,0,1,1.878,112.815Zm36.8,1.33c0,7.7-6.79,14.082-14.645,14.082S9.388,121.845,9.388,114.145v-7.51h.937a17.623,17.623,0,0,0,8.171-2.2,11.932,11.932,0,0,1,11.075,0,17.624,17.624,0,0,0,8.171,2.2h.937Z" transform="translate(0 -101.002)"/>
        <circle id="Elipse_6473" data-name="Elipse 6473" cx="0.936" cy="0.936" r="0.936" transform="translate(43.697 18.493)"/>
      </g>
    </g>
  </g>
</svg>
