<svg xmlns="http://www.w3.org/2000/svg" width="220" height="182.868" viewBox="0 0 220 182.868">
  <g id="img14" transform="translate(-233 -6745.282)">
    <g id="img14-2" data-name="img14" transform="translate(233.438 6745.282)">
      <rect id="BG" width="220" height="182.868" transform="translate(-0.438)" fill="#339ce9" opacity="0.949"/>
    </g>
    <g id="regla-y-lapiz" transform="translate(267.714 6754.692)">
      <g id="Grupo_89925" data-name="Grupo 89925" transform="translate(2.158 11.748)">
        <path id="Trazado_153773" data-name="Trazado 153773" d="M25.56,148.806,8.719,131.964a4.717,4.717,0,0,1,0-6.67L115.6,18.416a4.717,4.717,0,0,1,6.67,0l16.842,16.842a4.717,4.717,0,0,1,0,6.67L32.231,148.806a4.717,4.717,0,0,1-6.67,0Z" transform="translate(-7.337 -17.034)" fill="#ffd15b"/>
        <path id="Trazado_153774" data-name="Trazado 153774" d="M175.279,73.379,68.4,180.256a4.714,4.714,0,0,1-6.669,0l-3.148-3.148a7.423,7.423,0,0,0,4.706-1.963L170.167,68.267a4.717,4.717,0,0,0,0-6.672l5.112,5.114a4.714,4.714,0,0,1,0,6.67Z" transform="translate(-43.508 -48.486)" fill="#ffc344"/>
        <g id="Grupo_89924" data-name="Grupo 89924" transform="translate(54.115 48.449)">
          <path id="Trazado_153775" data-name="Trazado 153775" d="M281.951,197.1l-70.365,70.365a6.88,6.88,0,0,1-2.258,1.5c-.137.056-13.754,4.671-13.754,4.671a3.243,3.243,0,0,1-4.113-4.113s4.617-13.615,4.673-13.751a6.873,6.873,0,0,1,1.5-2.258L268,183.152a4.88,4.88,0,0,1,6.9,0l7.044,7.044A4.88,4.88,0,0,1,281.951,197.1Z" transform="translate(-191.285 -181.722)" fill="#bf3976"/>
          <path id="Trazado_153776" data-name="Trazado 153776" d="M281.951,193.627l-7.044-7.044h0l1.932,1.932a4.88,4.88,0,0,1,0,6.9l-70.365,70.365a6.878,6.878,0,0,1-2.258,1.5c-.137.056-12.242,4.159-12.242,4.159l-.512,1.511a3.243,3.243,0,0,0,4.113,4.113s13.617-4.614,13.754-4.671a6.874,6.874,0,0,0,2.258-1.5L281.95,200.53a4.88,4.88,0,0,0,0-6.9Z" transform="translate(-191.284 -185.153)" fill="#f2d6e3"/>
          <path id="Trazado_153777" data-name="Trazado 153777" d="M209.329,446.634c-.137.056-13.754,4.671-13.754,4.671a3.243,3.243,0,0,1-4.113-4.113s4.617-13.615,4.673-13.751Z" transform="translate(-191.285 -359.387)" fill="#ffcebf"/>
          <path id="Trazado_153778" data-name="Trazado 153778" d="M440.535,197.1l-10.62,10.62-13.947-13.947,10.62-10.62a4.88,4.88,0,0,1,6.9,0l7.044,7.044a4.88,4.88,0,0,1,0,6.9Z" transform="translate(-349.868 -181.722)" fill="#bfbfbf"/>
          <path id="Trazado_153779" data-name="Trazado 153779" d="M191.974,465.068l-.512,1.511a3.243,3.243,0,0,0,4.113,4.113s13.617-4.614,13.754-4.671l-5.112-5.112c-.137.056-12.242,4.159-12.242,4.159Z" transform="translate(-191.285 -378.775)" fill="#ffb09e"/>
          <path id="Trazado_153780" data-name="Trazado 153780" d="M461.729,193.627l-7.044-7.044h0l1.932,1.932a4.88,4.88,0,0,1,0,6.9L446,206.038l5.112,5.112,10.62-10.62A4.879,4.879,0,0,0,461.729,193.627Z" transform="translate(-371.062 -185.153)" fill="#acacac"/>
        </g>
      </g>
      <g id="Grupo_89926" data-name="Grupo 89926" transform="translate(0 9.545)">
        <path id="Trazado_153781" data-name="Trazado 153781" d="M278.287,183.461l-7.044-7.043a7.211,7.211,0,0,0-10.023,0L204.5,233.138a2.207,2.207,0,1,0,3.12,3.12l44.54-44.54,10.827,10.826s-58.4,58.394-58.521,58.49l-10.795-10.8c.1-.116,6.412-6.443,6.412-6.443a2.207,2.207,0,0,0-3.12-3.12l-6.107,6.106a9.047,9.047,0,0,0-1.98,2.97l0,0,0,.006v0h0c-.042.105-.244.675-4.721,13.879a5.484,5.484,0,0,0,6.911,6.91c13.684-4.637,13.8-4.685,13.885-4.72l0,0a9.043,9.043,0,0,0,2.974-1.983l70.365-70.365h0a7.1,7.1,0,0,0,0-10.023Zm-88.645,82.914c-.543.059-1.314.161-1.315-1.315,1.1-3.236,2.54-7.488,3.528-10.4l8.183,8.183C197.131,263.836,192.879,265.278,189.642,266.375ZM255.28,188.6l9.06-9.06a2.76,2.76,0,0,1,3.782,0l7.044,7.044a2.678,2.678,0,0,1,0,3.782l-9.06,9.06Z" transform="translate(-129.786 -125.895)"/>
        <path id="Trazado_153782" data-name="Trazado 153782" d="M118.945,54.748a2.207,2.207,0,0,0,0-3.12l-9.184-9.184a2.207,2.207,0,0,0-3.12,3.12l7.624,7.624-8.429,8.429-2.744-2.745a2.206,2.206,0,1,0-3.12,3.12l2.745,2.745-8.429,8.429L91.542,70.42a2.206,2.206,0,1,0-3.12,3.12l2.745,2.745-8.429,8.429L75.114,77.09a2.207,2.207,0,0,0-3.12,3.12l7.624,7.624-8.429,8.429-2.744-2.745a2.206,2.206,0,1,0-3.12,3.12l2.745,2.745-8.429,8.429L56.9,105.066a2.207,2.207,0,0,0-3.12,3.12l2.745,2.745-8.429,8.429-7.624-7.624a2.206,2.206,0,1,0-3.12,3.12l7.624,7.624-8.956,8.956-2.745-2.745a2.207,2.207,0,1,0-3.12,3.12l2.745,2.745-7.4,7.4a2.512,2.512,0,0,1-3.55,0L5.1,125.117a2.591,2.591,0,0,1,0-3.55L111.978,14.69a2.513,2.513,0,0,1,3.55,0L132.37,31.532a2.513,2.513,0,0,1,0,3.55l-9.261,9.259a2.206,2.206,0,0,0,3.12,3.12L135.49,38.2a6.931,6.931,0,0,0,0-9.791L118.648,11.569a6.932,6.932,0,0,0-9.791,0L1.979,118.447a7.045,7.045,0,0,0,0,9.791L18.821,145.08a6.932,6.932,0,0,0,9.791,0Z" transform="translate(0 -9.545)"/>
        <path id="Trazado_153783" data-name="Trazado 153783" d="M391.679,72.8a2.157,2.157,0,1,0,2.157-2.157A2.157,2.157,0,0,0,391.679,72.8Z" transform="translate(-276.451 -52.666)"/>
        <path id="Trazado_153784" data-name="Trazado 153784" d="M304.128,338.287l14.925-14.924a2.207,2.207,0,1,0-3.12-3.12l-14.925,14.924a2.206,2.206,0,0,0,3.12,3.12Z" transform="translate(-211.998 -228.382)"/>
      </g>
    </g>
  </g>
</svg>
