<svg xmlns="http://www.w3.org/2000/svg" xmlns:xlink="http://www.w3.org/1999/xlink" width="278.93" height="372.067" viewBox="0 0 278.93 372.067">
  <defs>
    <clipPath id="clip-path">
      <rect id="Rectángulo_27090" data-name="Rectángulo 27090" width="278.93" height="372.067" fill="none"/>
    </clipPath>
  </defs>
  <g id="img1" transform="translate(-926.675 -640)">
    <g id="Grupo_91160" data-name="Grupo 91160" transform="translate(926.675 640)">
      <path id="Trazado_156621" data-name="Trazado 156621" d="M106.424,83.532l-9.959,5.656,16.517,9.533,9.959-5.7Z" transform="translate(124.802 108.07)" fill="#9cc981"/>
      <path id="Trazado_156622" data-name="Trazado 156622" d="M103.668,213.192l14.662,8.466V10.944L103.668,2.478Z" transform="translate(134.121 3.206)" fill="#0ac4bf"/>
      <path id="Trazado_156623" data-name="Trazado 156623" d="M113.658,0l-9.989,5.686,14.664,8.464,9.957-5.675Z" transform="translate(134.121 0)" fill="#c2fcfa"/>
      <path id="Trazado_156624" data-name="Trazado 156624" d="M120.02,3.694l-9.96,5.677v213.2l9.96-4.966Z" transform="translate(142.391 4.78)" fill="#62e2de"/>
      <path id="Trazado_156625" data-name="Trazado 156625" d="M144.168,132.744l-47.7-27.52V86l47.7,27.52Z" transform="translate(124.802 111.26)" fill="#0ac4bf"/>
      <path id="Trazado_156626" data-name="Trazado 156626" d="M110.061,97.03l16.517,9.533,9.957-5.7L120.02,91.374Z" transform="translate(142.392 118.215)" fill="#c2fcfa"/>
      <path id="Trazado_156627" data-name="Trazado 156627" d="M117.262,101.209v19.226l9.959-5.789V95.512Z" transform="translate(151.708 123.569)" fill="#83e3e1"/>
      <g id="Grupo_91159" data-name="Grupo 91159">
        <g id="Grupo_91158" data-name="Grupo 91158" clip-path="url(#clip-path)">
          <path id="Trazado_156628" data-name="Trazado 156628" d="M103.043,89.352a1.514,1.514,0,0,1,1.443.151,5.6,5.6,0,0,1,2.335,4.464,2.061,2.061,0,0,1-.8,1.869l-10.281,5.8-2.828-6.588Z" transform="translate(120.205 115.444)" fill="#2d2d2d"/>
          <path id="Trazado_156629" data-name="Trazado 156629" d="M200.948,89.538a3.914,3.914,0,0,1,3.718.4c3.273,1.89,5.927,6.959,5.927,11.324,0,2.349-.771,4.014-1.993,4.757L16.138,216.7,8.509,200.225Z" transform="translate(11.009 115.443)" fill="#aaa"/>
          <path id="Trazado_156630" data-name="Trazado 156630" d="M7.585,142.655c0,4.365,2.654,9.434,5.927,11.324s5.925-.117,5.925-4.482-2.652-9.432-5.925-11.322-5.927.115-5.927,4.48" transform="translate(9.813 177.844)" fill="#7f7f7f"/>
          <path id="Trazado_156631" data-name="Trazado 156631" d="M15.019,140.2a1.514,1.514,0,0,1,1.443.151,5.6,5.6,0,0,1,2.335,4.464,2.061,2.061,0,0,1-.8,1.869l-10.281,5.8L4.887,145.9Z" transform="translate(6.323 181.226)" fill="#2d2d2d"/>
          <path id="Trazado_156632" data-name="Trazado 156632" d="M22.368,62.8,26.4,246.737l-2.457,5.347,35.911-20.653L50.271,50.442Z" transform="translate(28.939 65.26)" fill="#ccd8f2"/>
          <path id="Trazado_156633" data-name="Trazado 156633" d="M111.752,7.077a1.514,1.514,0,0,1,1.443.151,5.6,5.6,0,0,1,2.335,4.464,2.061,2.061,0,0,1-.8,1.869l-10.281,5.8-2.828-6.588Z" transform="translate(131.471 9)" fill="#2d2d2d"/>
          <path id="Trazado_156634" data-name="Trazado 156634" d="M209.656,7.263a3.914,3.914,0,0,1,3.718.4c3.273,1.89,5.927,6.959,5.927,11.324,0,2.349-.771,4.014-1.993,4.757L24.848,134.427,17.217,117.95Z" transform="translate(22.275 9)" fill="#aaa"/>
          <path id="Trazado_156635" data-name="Trazado 156635" d="M16.293,60.38c0,4.365,2.654,9.434,5.927,11.324s5.925-.115,5.925-4.48S25.493,57.793,22.22,55.9s-5.927.115-5.927,4.48" transform="translate(21.079 71.401)" fill="#7f7f7f"/>
          <path id="Trazado_156636" data-name="Trazado 156636" d="M23.727,57.924a1.514,1.514,0,0,1,1.443.151,5.6,5.6,0,0,1,2.337,4.464,2.062,2.062,0,0,1-.8,1.869l-10.281,5.8-2.828-6.588Z" transform="translate(17.589 74.784)" fill="#2d2d2d"/>
          <path id="Trazado_156637" data-name="Trazado 156637" d="M118.891,98.47a1.514,1.514,0,0,1,1.443.151,5.6,5.6,0,0,1,2.335,4.464,2.061,2.061,0,0,1-.8,1.869l-10.281,5.8-2.826-6.588Z" transform="translate(140.711 127.24)" fill="#2d2d2d"/>
          <path id="Trazado_156638" data-name="Trazado 156638" d="M216.8,98.657a3.914,3.914,0,0,1,3.718.4c3.273,1.89,5.927,6.959,5.927,11.324,0,2.349-.771,4.014-1.993,4.757L31.988,225.821l-7.631-16.476Z" transform="translate(31.512 127.241)" fill="#aaa"/>
          <path id="Trazado_156639" data-name="Trazado 156639" d="M23.434,151.774c0,4.365,2.654,9.434,5.927,11.324s5.927-.117,5.927-4.48-2.654-9.434-5.927-11.324-5.927.115-5.927,4.48" transform="translate(30.318 189.642)" fill="#7f7f7f"/>
          <path id="Trazado_156640" data-name="Trazado 156640" d="M30.866,149.317a1.514,1.514,0,0,1,1.443.151,5.6,5.6,0,0,1,2.337,4.464,2.062,2.062,0,0,1-.8,1.869l-10.281,5.8-2.826-6.588Z" transform="translate(26.829 193.024)" fill="#2d2d2d"/>
          <path id="Trazado_156641" data-name="Trazado 156641" d="M9.959,139.363,0,145.02l16.517,9.533,9.959-5.7Z" transform="translate(0 180.302)" fill="#c2fcfa"/>
          <path id="Trazado_156642" data-name="Trazado 156642" d="M7.2,269.023l14.662,8.466V66.776L7.2,58.309Z" transform="translate(9.319 75.438)" fill="#0ac4bf"/>
          <path id="Trazado_156643" data-name="Trazado 156643" d="M17.195,55.831,7.2,61.515l14.664,8.466L31.826,64.3Z" transform="translate(9.319 72.232)" fill="#c2fcfa"/>
          <path id="Trazado_156644" data-name="Trazado 156644" d="M23.555,59.526,13.6,65.2V278.4l9.959-4.966Z" transform="translate(17.59 77.011)" fill="#62e2de"/>
          <path id="Trazado_156645" data-name="Trazado 156645" d="M47.7,188.576,0,161.055V141.829l47.7,27.52Z" transform="translate(0 183.492)" fill="#0ac4bf"/>
          <path id="Trazado_156646" data-name="Trazado 156646" d="M23.555,147.2,13.6,152.861l16.517,9.533,9.959-5.7Z" transform="translate(17.59 190.447)" fill="#c2fcfa"/>
          <path id="Trazado_156647" data-name="Trazado 156647" d="M30.756,151.343l-9.959,5.7v19.226l9.959-5.789Z" transform="translate(26.906 195.8)" fill="#83e3e1"/>
          <path id="Trazado_156648" data-name="Trazado 156648" d="M190.988,9.877l9.572,10.8,10.212,196.873L42.323,314.363l-9.641-196.7-9.625-11.194Z" transform="translate(29.83 12.778)" fill="#e1e9f9"/>
          <path id="Trazado_156649" data-name="Trazado 156649" d="M22.093,57.062c0,4.365,2.654,9.434,5.927,11.324s5.927-.117,5.927-4.482-2.654-9.432-5.927-11.322-5.927.115-5.927,4.48" transform="translate(28.583 67.108)" fill="#aaa"/>
          <path id="Trazado_156650" data-name="Trazado 156650" d="M95.292,14.938c0,4.365,2.654,9.434,5.927,11.324s5.927-.117,5.927-4.482-2.654-9.432-5.927-11.322-5.927.115-5.927,4.48" transform="translate(123.284 12.61)" fill="#e1e9f9"/>
          <path id="Trazado_156651" data-name="Trazado 156651" d="M18.963,136.116c0,4.365,2.654,9.434,5.927,11.324s5.927-.117,5.927-4.48-2.654-9.434-5.927-11.324-5.927.115-5.927,4.48" transform="translate(24.533 169.384)" fill="#aaa"/>
        </g>
      </g>
    </g>
    <path id="Trazado_156652" data-name="Trazado 156652" d="M9665.688-10951l7.242,179.934" transform="translate(-8644 11700)" fill="none" stroke="#bf3976" stroke-width="2"/>
  </g>
</svg>
