<svg xmlns="http://www.w3.org/2000/svg" xmlns:xlink="http://www.w3.org/1999/xlink" width="393.745" height="286.421" viewBox="0 0 393.745 286.421">
  <defs>
    <clipPath id="clip-path">
      <rect id="Rectángulo_27044" data-name="Rectángulo 27044" width="393.745" height="286.421" fill="none"/>
    </clipPath>
    <clipPath id="clip-path-2">
      <rect id="Rectángulo_27043" data-name="Rectángulo 27043" width="621.435" height="286.421" fill="none"/>
    </clipPath>
    <clipPath id="clip-path-3">
      <rect id="Rectángulo_27024" data-name="Rectángulo 27024" width="108.769" height="105.025" fill="none"/>
    </clipPath>
    <clipPath id="clip-path-4">
      <path id="Trazado_156395" data-name="Trazado 156395" d="M72.343,24.592,20.018,127.2H95.882L128.787,22.174l-29.176,7.4Z" transform="translate(-20.018 -22.174)" fill="none"/>
    </clipPath>
    <linearGradient id="linear-gradient" x1="-0.288" y1="1.76" x2="-0.268" y2="1.76" gradientUnits="objectBoundingBox">
      <stop offset="0" stop-color="#fff"/>
      <stop offset="0.209" stop-color="#fff"/>
      <stop offset="0.325" stop-color="#fbfbfb"/>
      <stop offset="0.426" stop-color="#f1f1f1"/>
      <stop offset="0.52" stop-color="#dfdfdf"/>
      <stop offset="0.611" stop-color="#c6c6c6"/>
      <stop offset="0.7" stop-color="#a5a5a5"/>
      <stop offset="0.786" stop-color="#7e7e7e"/>
      <stop offset="0.871" stop-color="#4f4f4f"/>
      <stop offset="0.952" stop-color="#1a1a1a"/>
      <stop offset="0.989"/>
      <stop offset="1"/>
    </linearGradient>
    <clipPath id="clip-path-5">
      <rect id="Rectángulo_27028" data-name="Rectángulo 27028" width="42.518" height="71.351" fill="none"/>
    </clipPath>
    <clipPath id="clip-path-6">
      <path id="Trazado_156407" data-name="Trazado 156407" d="M52.823,102.019l20.053,4.429,20.289-4.2-6.08-50.817-7.163-9.227L50.841,35.1c-.966,2.067,1.982,48.032,1.982,66.922" transform="translate(-50.647 -35.097)" fill="none"/>
    </clipPath>
    <linearGradient id="linear-gradient-2" x1="-1.374" y1="2.531" x2="-1.342" y2="2.531" gradientUnits="objectBoundingBox">
      <stop offset="0" stop-color="#fff"/>
      <stop offset="0.643" stop-color="#c6c0b9"/>
      <stop offset="1" stop-color="#c6c0b9"/>
    </linearGradient>
    <clipPath id="clip-path-7">
      <rect id="Rectángulo_27030" data-name="Rectángulo 27030" width="16.614" height="19.824" fill="none"/>
    </clipPath>
    <clipPath id="clip-path-8">
      <path id="Trazado_156417" data-name="Trazado 156417" d="M37.071,13.765v-.008l.021.008.048-.008v.008l6.682.364c0,.532.189,2.346.471,4.551-1.676,2.482-10.2,11.528-13.422,11.778a2.961,2.961,0,0,1-3.173-3.4c.152-1.74,1.657-5,2-7.886.154-1.3.29-6.482.29-8.53Z" transform="translate(-27.679 -10.642)" fill="none"/>
    </clipPath>
    <linearGradient id="linear-gradient-3" x1="-2.873" y1="11.617" x2="-2.764" y2="11.617" xlink:href="#linear-gradient-2"/>
    <clipPath id="clip-path-9">
      <rect id="Rectángulo_27032" data-name="Rectángulo 27032" width="41.654" height="53.755" fill="none"/>
    </clipPath>
    <clipPath id="clip-path-10">
      <path id="Trazado_156428" data-name="Trazado 156428" d="M24.847,78.5a34.554,34.554,0,0,0,5.219,1.484L65.617,55.7,23.964,26.226c2.287,7.237,5.03,14.584,6,16.84C33.973,52.431,24.847,78.5,24.847,78.5" transform="translate(-23.964 -26.226)" fill="none"/>
    </clipPath>
    <linearGradient id="linear-gradient-4" x1="-0.775" y1="3.631" x2="-0.735" y2="3.631" xlink:href="#linear-gradient-2"/>
    <clipPath id="clip-path-11">
      <rect id="Rectángulo_27042" data-name="Rectángulo 27042" width="35.444" height="49.901" fill="none"/>
    </clipPath>
    <clipPath id="clip-path-12">
      <path id="Trazado_156435" data-name="Trazado 156435" d="M57.5,63.764l-30.314,45.7,35.443,4.2-2.8-29.381Z" transform="translate(-27.181 -63.764)" fill="none"/>
    </clipPath>
    <linearGradient id="linear-gradient-5" x1="-1" y1="2.248" x2="-0.955" y2="2.248" gradientUnits="objectBoundingBox">
      <stop offset="0" stop-color="#fff"/>
      <stop offset="0.473" stop-color="#fff"/>
      <stop offset="0.55" stop-color="#fbfbfb"/>
      <stop offset="0.616" stop-color="#f1f1f1"/>
      <stop offset="0.679" stop-color="#dfdfdf"/>
      <stop offset="0.739" stop-color="#c6c6c6"/>
      <stop offset="0.798" stop-color="#a5a5a5"/>
      <stop offset="0.855" stop-color="#7e7e7e"/>
      <stop offset="0.911" stop-color="#4f4f4f"/>
      <stop offset="0.965" stop-color="#1a1a1a"/>
      <stop offset="0.989"/>
      <stop offset="1"/>
    </linearGradient>
  </defs>
  <g id="img19" transform="translate(-211 -10062.354)">
    <rect id="Rectángulo_26596" data-name="Rectángulo 26596" width="388" height="169" rx="18" transform="translate(211 10117.59)" fill="#fff5fa"/>
    <g id="Grupo_91062" data-name="Grupo 91062" transform="translate(211 10062.354)">
      <g id="Grupo_91061" data-name="Grupo 91061" clip-path="url(#clip-path)">
        <g id="Grupo_91060" data-name="Grupo 91060">
          <g id="Grupo_91059" data-name="Grupo 91059" clip-path="url(#clip-path-2)">
            <g id="Grupo_91038" data-name="Grupo 91038" transform="translate(53.245 58.98)" opacity="0.4" style="mix-blend-mode: multiply;isolation: isolate">
              <g id="Grupo_91037" data-name="Grupo 91037">
                <g id="Grupo_91036" data-name="Grupo 91036" clip-path="url(#clip-path-3)">
                  <g id="Grupo_91035" data-name="Grupo 91035" transform="translate(0)">
                    <g id="Grupo_91034" data-name="Grupo 91034" clip-path="url(#clip-path-4)">
                      <rect id="Rectángulo_27023" data-name="Rectángulo 27023" width="136.629" height="138.813" transform="translate(-34.651 91.969) rotate(-69.355)" fill="url(#linear-gradient)"/>
                    </g>
                  </g>
                </g>
              </g>
            </g>
            <path id="Trazado_156396" data-name="Trazado 156396" d="M44.862,95.28c0,11.78,2.389,13.376,7.182,19.686,1.931,2.559-6.048,6.761-6.048,6.761s-3.309-2.676-7.022-5.208c-4.985-3.4-5.2-5.418-2.721-17.9,1.029-5.155,8.61-3.338,8.61-3.338" transform="translate(57.601 157.635)" fill="#f7d8d0"/>
            <path id="Trazado_156397" data-name="Trazado 156397" d="M47.993,100.766c4.317,5.131,5.155,6.251,3.112,7.535-2.335,1.468-10.677-2.963-15.853-8.381-3.777,9.583,7.549,11.7,9.666,13.281,3.578,2.684,10.889,5.07,13.188,2.575,1.452-1.567.048-4.378-2.447-6.852-2.484-2.447-7.666-8.158-7.666-8.158" transform="translate(57.244 165.853)" fill="#5e1c17"/>
            <path id="Trazado_156398" data-name="Trazado 156398" d="M48.917,42.459c2.423,13.791,4.977,13.27,3.7,41.326s-4.676,107.3-4.676,107.3l-12.076-.814-.854-111.24.854-34.61Z" transform="translate(58.113 70.476)" fill="#232121"/>
            <path id="Trazado_156399" data-name="Trazado 156399" d="M33.8,62.66l.17-2.019,6.312-9.677s6.437,38.422.38,125.511l-5.838-.285Z" transform="translate(56.096 84.594)"/>
            <path id="Trazado_156400" data-name="Trazado 156400" d="M28.032,98.245A35.679,35.679,0,0,1,26,116.061c-1.25,2.958,12.9,2.585,12.9,2.585s-2.147-12.246-.846-19.473c.928-5.181-10.02-.928-10.02-.928" transform="translate(43.021 160.346)" fill="#edc0b7"/>
            <path id="Trazado_156401" data-name="Trazado 156401" d="M28.866,101.339c-.665,6.368.386,9.552,2.979,9.448,3.24-.13,6.381-.851,6.623-10.328a65.52,65.52,0,0,1,1,10.342c-.181,4.474-5.325,9.379-8.671,8.831-2.109-.346-5.652-5.171-5.195-8.666.46-3.455,3.261-9.626,3.261-9.626" transform="translate(42.434 166.747)" fill="#5e1c17"/>
            <path id="Trazado_156402" data-name="Trazado 156402" d="M31.388,40.006c-3.548,13.541-5.477,15-6.527,43.066-1.027,28.069,4.57,114.206,4.57,114.206l11.155.008L53.9,67.083l-.325-23.816Z" transform="translate(41.056 66.404)" fill="#232121"/>
            <path id="Trazado_156403" data-name="Trazado 156403" d="M30.288,197.23H35.5c-.58-60.48,3.205-142.6,12.249-154.995l-11.919-1.75-5.248-.45C27.072,53.382,25.1,51.6,24.053,79.521c-1.021,28.064,6.235,117.709,6.235,117.709" transform="translate(39.762 66.452)"/>
            <rect id="Rectángulo_27025" data-name="Rectángulo 27025" width="175.655" height="41.975" transform="translate(135.062 174.901)" fill="#bf3976"/>
            <rect id="Rectángulo_27026" data-name="Rectángulo 27026" width="10.759" height="114.363" transform="translate(135.174 171.148)" fill="#fff"/>
            <path id="Trazado_156404" data-name="Trazado 156404" d="M385.762,69.36a.873.873,0,0,1-.87.872H.945A.873.873,0,0,1,.07,69.36l9.877-8.129c.9-.716,1.239-.888,1.724-.888l360.535.037a5.1,5.1,0,0,1,2.366.926Z" transform="translate(0.116 100.161)" fill="#fff"/>
            <path id="Trazado_156405" data-name="Trazado 156405" d="M387.432,72.188a1.157,1.157,0,0,1-1.026,1.136H.852c-.469,0-.852-.508-.852-1.136V64.809c0-.63.383-1.133.852-1.133H386.406a1.152,1.152,0,0,1,1.026,1.133Z" transform="translate(0 105.693)" fill="#d8d8d8"/>
            <path id="Trazado_156406" data-name="Trazado 156406" d="M70.874,34.118c-1.524,3.258,2.556,66.943,1.9,68.906s-31.591,8.639-34.2,9.948l6.841,60.94,27.359-1.867s1.771-59.668,3.732-60.317,32.929-6.945,32.929-6.945l-1.152-61.528Z" transform="translate(64.034 56.631)" fill="#ff8825"/>
            <g id="Grupo_91043" data-name="Grupo 91043" transform="translate(134.713 93.353)" style="mix-blend-mode: multiply;isolation: isolate">
              <g id="Grupo_91042" data-name="Grupo 91042">
                <g id="Grupo_91041" data-name="Grupo 91041" clip-path="url(#clip-path-5)">
                  <g id="Grupo_91040" data-name="Grupo 91040" transform="translate(0.001 0)">
                    <g id="Grupo_91039" data-name="Grupo 91039" clip-path="url(#clip-path-6)">
                      <rect id="Rectángulo_27027" data-name="Rectángulo 27027" width="83.042" height="77.486" transform="translate(-35.048 45.567) rotate(-53.049)" fill="url(#linear-gradient-2)"/>
                    </g>
                  </g>
                </g>
              </g>
            </g>
            <path id="Trazado_156408" data-name="Trazado 156408" d="M127.2,65.807c0,1.758-1.7,3.184-3.8,3.184H66.466c-2.1,0-3.8-1.426-3.8-3.184v-4.79c0-1.756,1.7-3.187,3.8-3.187H123.4c2.1,0,3.8,1.431,3.8,3.187Z" transform="translate(104.01 95.989)" fill="#3357bc"/>
            <path id="Trazado_156409" data-name="Trazado 156409" d="M127.2,61.44c0,1.756-1.7,3.184-3.8,3.184H66.466c-2.1,0-3.8-1.428-3.8-3.184V56.652c0-1.753,1.7-3.184,3.8-3.184H123.4c2.1,0,3.8,1.431,3.8,3.184Z" transform="translate(104.01 88.749)" fill="#232121"/>
            <path id="Trazado_156410" data-name="Trazado 156410" d="M127.2,57.245c0,1.758-1.7,3.189-3.8,3.189H66.466c-2.1,0-3.8-1.431-3.8-3.189V52.468c0-1.766,1.7-3.2,3.8-3.2H123.4c2.1,0,3.8,1.431,3.8,3.2Z" transform="translate(104.01 81.783)" fill="#4d87db"/>
            <path id="Trazado_156411" data-name="Trazado 156411" d="M127.4,53.051c0,1.761-1.708,3.186-3.809,3.186H66.663c-2.1,0-3.8-1.426-3.8-3.186V48.264c0-1.761,1.7-3.187,3.8-3.187h56.932c2.1,0,3.809,1.426,3.809,3.187Z" transform="translate(104.342 74.821)" fill="#f9a819"/>
            <path id="Trazado_156412" data-name="Trazado 156412" d="M127.1,49.022c0,1.761-1.7,3.189-3.8,3.189H66.37c-2.1,0-3.809-1.428-3.809-3.189V44.237c0-1.761,1.7-3.187,3.809-3.187H123.3c2.1,0,3.8,1.426,3.8,3.187Z" transform="translate(103.842 68.137)" fill="#efe8e6"/>
            <path id="Trazado_156413" data-name="Trazado 156413" d="M127.278,44.726c0,1.761-1.7,3.189-3.8,3.189H66.543c-2.1,0-3.806-1.428-3.806-3.189V39.941c0-1.756,1.7-3.184,3.806-3.184h56.931c2.1,0,3.8,1.428,3.8,3.184Z" transform="translate(104.134 61.011)" fill="#ff8825"/>
            <path id="Trazado_156414" data-name="Trazado 156414" d="M45.72,55.909C57.032,53.3,85.958,20.99,85.958,20.99L139.35,74.171l-49.207.75Z" transform="translate(75.889 34.84)" fill="#f9a819"/>
            <path id="Trazado_156415" data-name="Trazado 156415" d="M35.437,10.694c-6.1,4.543-17.012,19.526-7.69,34.179A138.025,138.025,0,0,0,41.794,43.16s-7.99-12.2-5.461-27.354c.237-1.436-.9-5.112-.9-5.112" transform="translate(40.045 17.75)" fill="#300500"/>
            <path id="Trazado_156416" data-name="Trazado 156416" d="M44.526,48.556,27.295,29.841s4.437.673,3.548-20.119l6.958,5.87v-.008l.035.008.053-.008v.008l6.663.362c-3.28,14.775,4.554,14.714,4.554,14.714Z" transform="translate(45.306 16.137)" fill="#f7d8d0"/>
            <g id="Grupo_91048" data-name="Grupo 91048" transform="translate(73.621 28.306)" style="mix-blend-mode: multiply;isolation: isolate">
              <g id="Grupo_91047" data-name="Grupo 91047">
                <g id="Grupo_91046" data-name="Grupo 91046" clip-path="url(#clip-path-7)">
                  <g id="Grupo_91045" data-name="Grupo 91045" transform="translate(0.001 0.001)">
                    <g id="Grupo_91044" data-name="Grupo 91044" clip-path="url(#clip-path-8)">
                      <rect id="Rectángulo_27029" data-name="Rectángulo 27029" width="24.253" height="22.327" transform="translate(-6.264 17.874) rotate(-71.342)" fill="url(#linear-gradient-3)"/>
                    </g>
                  </g>
                </g>
              </g>
            </g>
            <path id="Trazado_156418" data-name="Trazado 156418" d="M28.029,19.735c-.606,9.887,4.878,19.228,11.392,19.228,5.288,0,9.78-3.213,14.158-15.164,3.588-9.81,2.96-20.38-9.722-22.814C31.936-1.291,28.678,9.38,28.029,19.735" transform="translate(46.447 1.121)" fill="#f7d8d0"/>
            <path id="Trazado_156419" data-name="Trazado 156419" d="M28.057,16.257c.3-4.854,1.2-9.775,3.288-13.4l8.1,2.317L37.968,6.205c-2.663,5.179-4.7,10.352-4.7,16.568,0,5.65,2.553,11.757,6.45,12.711-.082,0-.181.008-.271.008-6.509,0-11.993-9.339-11.39-19.236" transform="translate(46.496 4.737)" fill="#edc0b7"/>
            <path id="Trazado_156420" data-name="Trazado 156420" d="M33.433,11.089c6.213-2.668,17.9,2.072,17.9,6.517,1.779-7.115.742-12.725-6.65-15.4C35.957-.923,31.512-.6,30.77,2.37c-.96,3.843,2.663,8.719,2.663,8.719" transform="translate(50.805 0)" fill="#5e1c17"/>
            <path id="Trazado_156421" data-name="Trazado 156421" d="M37.576,1.018C35.8-.748,26.6,2.127,26.6,14.554c0,1.141.444,6.511.428,7.354-.106,4.586,4.846,10.863,4.846,10.863l.537-15.185,7.833-7.7Z" transform="translate(44.145 0.902)" fill="#300500"/>
            <path id="Trazado_156422" data-name="Trazado 156422" d="M31.641,7a1.853,1.853,0,0,0-3.179.6c-.585,1.505-1.285,6.57.431,7.394C30.593,15.822,31.641,7,31.641,7" transform="translate(46.165 10.54)" fill="#edc0b7"/>
            <path id="Trazado_156423" data-name="Trazado 156423" d="M54.015,25.986c3.607-.021,4.743-.29,8.075-2.311a61.237,61.237,0,0,1,5.564-3.28,21.558,21.558,0,0,1,6.373.625,12.275,12.275,0,0,1,3.726,3.28c.442.673.1.968-.372.936s-7.291-1.4-8.121-.966-1.756,2.617-2.256,2.907-8.77,1.873-9.921,2.282-3.069-3.474-3.069-3.474" transform="translate(89.657 33.725)" fill="#f7d8d0"/>
            <path id="Trazado_156424" data-name="Trazado 156424" d="M63,21.807c1.9.266,2.569.971,4.612,1.245s2.78.146,2.737.894c-.027.447-1.317,1.1-2.78,1.016a29.782,29.782,0,0,0-4.171-.045c-.739.1-3.165,1.279-5.128.936-.88-.146-2.647-1.9-.016-3.375A6.817,6.817,0,0,1,63,21.807" transform="translate(94.4 35.927)" fill="#f7d8d0"/>
            <path id="Trazado_156425" data-name="Trazado 156425" d="M35.511,17.6A40.355,40.355,0,0,1,51.83,24.777c3.838,2.875,5.817,4.764,11.964,5.434,1.309.149,28.46-3.54,29.418-3.218.325,2.873-1.032,8.44-1.032,8.44s-29.088,6.854-31.65,6.854S43.486,35.1,39.648,34.778s-5.08-5.95-3.482-9.788a8.663,8.663,0,0,0-.654-7.392" transform="translate(58.9 29.21)" fill="#fff"/>
            <path id="Trazado_156426" data-name="Trazado 156426" d="M58.543,20.01c10.081,15.837,9.57,17.792,9.57,21.313s-2.875,15.27-2.875,18.154,6.179,28.394,8.1,33.511c-3.841,2.237-35.639,6.724-46.2,2.245,0,0,9-26.394,4.987-35.756-1.918-4.487-10.873-29.117-9.278-32.956S35.52,17.105,37.116,16.145c0,0,8.16,10.6,15.337,8.65,3.817-1.043,3.155-4.463,2.612-5.658-.165-.359,3.479.872,3.479.872" transform="translate(37.61 26.798)" fill="#d8cdcb"/>
            <path id="Trazado_156427" data-name="Trazado 156427" d="M29.929,12C26.6,14.89,18.789,25.473,39.294,46.295l-1.42-4.264C34.509,31.942,29.4,28.742,33.35,15.536,33.772,14.145,29.929,12,29.929,12" transform="translate(42.6 19.925)" fill="#300500"/>
            <g id="Grupo_91053" data-name="Grupo 91053" transform="translate(63.742 69.757)" style="mix-blend-mode: multiply;isolation: isolate">
              <g id="Grupo_91052" data-name="Grupo 91052">
                <g id="Grupo_91051" data-name="Grupo 91051" clip-path="url(#clip-path-9)">
                  <g id="Grupo_91050" data-name="Grupo 91050" transform="translate(-0.001 0.001)">
                    <g id="Grupo_91049" data-name="Grupo 91049" clip-path="url(#clip-path-10)">
                      <rect id="Rectángulo_27031" data-name="Rectángulo 27031" width="66.347" height="60.518" transform="translate(-20.645 44.089) rotate(-64.909)" fill="url(#linear-gradient-4)"/>
                    </g>
                  </g>
                </g>
              </g>
            </g>
            <path id="Trazado_156429" data-name="Trazado 156429" d="M46.679,35.768c3.117-1.2,10.076-4.08,11.275-3.6a54.6,54.6,0,0,1,5.439,3.2,9.052,9.052,0,0,1,2.242,2.641c.263.665-.356,1.8-1.088,1.075a29.785,29.785,0,0,0-3.474-2.359s1.575,2.264,1.362,2.8c-.242.6-.644.6-.644.6l-1.2-.524s.92.878.559,1.6c-.168.34-.96.128-1.439-.114.442.479,1.122.835.322,1.394-.59.418-1.838-.2-1.838-.2s.718.723.476,1.2-1.918.561-2.636.439-3.12-.2-5.4-.439c-1.359-.144-10.2-.521-10.2-.521l-.479-5.035Z" transform="translate(66.328 53.303)" fill="#f7d8d0"/>
            <path id="Trazado_156430" data-name="Trazado 156430" d="M34.51,20.917c2.556,2.881,8.956,30.394,11.836,30.719s31.033,3.2,31.993,4.147c.319,2.886-.96,11.839-.96,11.839s-39.994-.952-44.151-3.838S21.466,28.3,22.355,24.761c2.559-10.243,12.156-3.843,12.156-3.843" transform="translate(36.987 31.442)" fill="#fff"/>
            <path id="Rectángulo_27033" data-name="Rectángulo 27033" d="M.1,0H4.45a.1.1,0,0,1,.1.1V2.412a.094.094,0,0,1-.094.094H.1a.1.1,0,0,1-.1-.1V.1A.1.1,0,0,1,.1,0Z" transform="translate(285.44 143.829)"/>
            <path id="Rectángulo_27034" data-name="Rectángulo 27034" d="M.136,0H6.382a.135.135,0,0,1,.135.135V3.458a.135.135,0,0,1-.135.135H.137A.137.137,0,0,1,0,3.456V.136A.136.136,0,0,1,.136,0Z" transform="translate(284.456 161.859)"/>
            <path id="Trazado_156431" data-name="Trazado 156431" d="M117.331,72.315a1.258,1.258,0,0,1-1.255,1.258H107.3a1.26,1.26,0,0,1-1.255-1.258L107.3,55.606a1.254,1.254,0,0,1,1.253-1.258h6.269a1.257,1.257,0,0,1,1.25,1.258Z" transform="translate(176.024 90.21)" fill="#4d87db"/>
            <path id="Rectángulo_27035" data-name="Rectángulo 27035" d="M.093,0H4.449a.094.094,0,0,1,.094.094V2.412a.094.094,0,0,1-.094.094H.094A.094.094,0,0,1,0,2.412V.093A.093.093,0,0,1,.093,0Z" transform="translate(298.394 143.829)"/>
            <path id="Rectángulo_27036" data-name="Rectángulo 27036" d="M.136,0H6.378a.136.136,0,0,1,.136.136V3.457a.136.136,0,0,1-.136.136H.135A.135.135,0,0,1,0,3.458V.136A.136.136,0,0,1,.136,0Z" transform="translate(297.407 161.859)"/>
            <path id="Trazado_156432" data-name="Trazado 156432" d="M122.194,72.315a1.254,1.254,0,0,1-1.253,1.258h-8.775a1.255,1.255,0,0,1-1.247-1.258l1.247-16.709a1.258,1.258,0,0,1,1.255-1.258h6.269a1.256,1.256,0,0,1,1.25,1.258Z" transform="translate(184.109 90.21)" fill="#f9a819"/>
            <path id="Rectángulo_27037" data-name="Rectángulo 27037" d="M.1,0H4.451a.1.1,0,0,1,.1.1V2.411a.1.1,0,0,1-.1.1H.094A.094.094,0,0,1,0,2.412V.1A.1.1,0,0,1,.1,0Z" transform="translate(272.696 143.829)"/>
            <path id="Rectángulo_27038" data-name="Rectángulo 27038" d="M.136,0H6.378a.136.136,0,0,1,.136.136V3.457a.136.136,0,0,1-.136.136H.135A.135.135,0,0,1,0,3.458V.136A.136.136,0,0,1,.136,0Z" transform="translate(271.713 161.859)"/>
            <path id="Trazado_156433" data-name="Trazado 156433" d="M112.54,72.315a1.257,1.257,0,0,1-1.255,1.258H102.51a1.258,1.258,0,0,1-1.253-1.258l1.253-16.709a1.258,1.258,0,0,1,1.253-1.258h6.272a1.254,1.254,0,0,1,1.25,1.258Z" transform="translate(168.072 90.21)" fill="#76347f"/>
            <path id="Rectángulo_27039" data-name="Rectángulo 27039" d="M.093,0h4.36a.093.093,0,0,1,.093.093V2.412a.094.094,0,0,1-.094.094H.1a.1.1,0,0,1-.1-.1V.093A.093.093,0,0,1,.093,0Z" transform="translate(259.535 143.829)"/>
            <path id="Rectángulo_27040" data-name="Rectángulo 27040" d="M.136,0H6.379a.135.135,0,0,1,.135.135V3.458a.135.135,0,0,1-.135.135H.137A.137.137,0,0,1,0,3.456V.136A.136.136,0,0,1,.136,0Z" transform="translate(258.551 161.859)"/>
            <path id="Trazado_156434" data-name="Trazado 156434" d="M107.592,72.315a1.261,1.261,0,0,1-1.258,1.258H97.562a1.256,1.256,0,0,1-1.253-1.258l1.253-16.709a1.254,1.254,0,0,1,1.25-1.258h6.272a1.257,1.257,0,0,1,1.25,1.258Z" transform="translate(159.859 90.21)" fill="#ff8825"/>
            <g id="Grupo_91058" data-name="Grupo 91058" transform="translate(72.297 169.602)" opacity="0.4" style="mix-blend-mode: multiply;isolation: isolate">
              <g id="Grupo_91057" data-name="Grupo 91057">
                <g id="Grupo_91056" data-name="Grupo 91056" clip-path="url(#clip-path-11)">
                  <g id="Grupo_91055" data-name="Grupo 91055" transform="translate(0.001 0.001)">
                    <g id="Grupo_91054" data-name="Grupo 91054" clip-path="url(#clip-path-12)">
                      <rect id="Rectángulo_27041" data-name="Rectángulo 27041" width="60.025" height="52.731" transform="translate(-18.601 41.58) rotate(-65.898)" fill="url(#linear-gradient-5)"/>
                    </g>
                  </g>
                </g>
              </g>
            </g>
          </g>
        </g>
      </g>
    </g>
  </g>
</svg>
