<svg xmlns="http://www.w3.org/2000/svg" width="162.641" height="162.641" viewBox="0 0 162.641 162.641">
  <g id="img2" transform="translate(-1 -1)">
    <path id="Trazado_153592" data-name="Trazado 153592" d="M90.885,51.17,51.17,90.885s-.019,0-.038-.038L2,41.715,41.715,2Z" transform="translate(0.891 0.891)" fill="#bf3976"/>
    <path id="Trazado_153593" data-name="Trazado 153593" d="M69.6,29.889,29.889,69.6s-.019,0-.038-.038L25.88,65.595,65.595,25.88Z" transform="translate(22.172 22.172)" fill="#f2d6e3"/>
    <path id="Trazado_153594" data-name="Trazado 153594" d="M127.885,88.17,88.17,127.885s-.019,0-.038-.038L39,78.715,78.715,39Z" transform="translate(33.864 33.864)" fill="#bf3976"/>
    <g id="Grupo_89886" data-name="Grupo 89886" transform="translate(35.036 2.898)">
      <path id="Trazado_153595" data-name="Trazado 153595" d="M0,0H56.166V5.67H0Z" transform="translate(37.811 109.678) rotate(-45)" fill="#f2d6e3"/>
      <path id="Trazado_153596" data-name="Trazado 153596" d="M0,0H10.7V69.538H0Z" transform="translate(0 7.564) rotate(-45)" fill="#f2d6e3"/>
      <path id="Trazado_153597" data-name="Trazado 153597" d="M0,0H10.7V69.538H0Z" transform="translate(69.958 77.537) rotate(-45)" fill="#f2d6e3"/>
    </g>
    <path id="Trazado_153598" data-name="Trazado 153598" d="M0,0H10.7V5.67H0Z" transform="translate(80.189 55.62) rotate(-45)" fill="#f2d6e3"/>
    <path id="Trazado_153599" data-name="Trazado 153599" d="M0,0H10.7V5.67H0Z" transform="translate(104.995 80.432) rotate(-45)" fill="#f2d6e3"/>
    <path id="Trazado_153600" data-name="Trazado 153600" d="M13.456,125.035,130.182,8.309a14.71,14.71,0,1,1,20.8,20.8L34.259,145.838,4,155.293Z" transform="translate(2.674 2.674)" fill="#c4eaff"/>
    <path id="Trazado_153601" data-name="Trazado 153601" d="M3.991,98.255,13.464,68l20.8,20.8L4.01,98.251l0,.008Z" transform="translate(2.666 59.708)" fill="#0ac4bf"/>
    <path id="Trazado_153602" data-name="Trazado 153602" d="M67,15.35l7.032-7.044A14.718,14.718,0,0,1,94.844,29.124L87.8,36.153Z" transform="translate(58.817 2.671)" fill="#0ac4bf"/>
    <path id="Trazado_153603" data-name="Trazado 153603" d="M64.673,73.738l-8.907,8.907L53.08,79.959l8.907-8.907a1.9,1.9,0,1,1,2.685,2.685Z" transform="translate(46.412 61.933)" fill="#ff8e00"/>
    <path id="Trazado_153604" data-name="Trazado 153604" d="M63.995,16.116,70.624,9.5,91.436,30.317l-6.629,6.613Z" transform="translate(56.139 7.578)" fill="#0ac4bf"/>
    <path id="Trazado_153605" data-name="Trazado 153605" d="M0,0H9.363V29.428H0Z" transform="translate(16.124 127.688) rotate(-45.081)" fill="#0ac4bf"/>
    <path id="Trazado_153606" data-name="Trazado 153606" d="M163.086,120.7,115.253,72.864,155,33.122A16.6,16.6,0,1,0,131.518,9.645L91.776,49.387,43.943,1.554a1.89,1.89,0,0,0-2.674,0L1.554,41.269a1.89,1.89,0,0,0,0,2.674L49.387,91.776l-34.595,34.6a1.855,1.855,0,0,0-.433.714c-.008.022-.028.036-.035.058L4.868,157.4a1.891,1.891,0,0,0,2.369,2.369L37.5,150.317c.022-.007.037-.028.058-.035a1.855,1.855,0,0,0,.714-.433l34.6-34.595L120.7,163.086a1.89,1.89,0,0,0,2.674,0l39.715-39.715a1.89,1.89,0,0,0,0-2.674ZM43.551,139.218l-7.727-7.727L130.545,36.77l7.727,7.727Zm-6.619,6.619L18.8,127.708l3.945-3.945,18.129,18.129ZM120.144,26.368l7.727,7.727L33.15,128.816l-7.727-7.727Zm6.619-6.619,18.129,18.129-3.945,3.945L122.818,23.694Zm7.43-7.43a12.819,12.819,0,1,1,18.129,18.129L147.566,35.2,129.437,17.075ZM42.606,5.566l46.5,46.5-4.89,4.89-46.5-46.5Zm1.729,75.809,6.227-6.228a1.891,1.891,0,1,0-2.674-2.674L41.66,78.7l-6.782-6.782,6.227-6.228a1.891,1.891,0,1,0-2.674-2.674L32.2,69.245l-6.782-6.782,6.227-6.228a1.891,1.891,0,1,0-2.674-2.674l-6.227,6.228-6.782-6.782,6.227-6.228a1.891,1.891,0,1,0-2.674-2.674l-6.227,6.228L5.566,42.606,35.041,13.13l46.5,46.5L52.062,89.1ZM17,131.255l16.383,16.383-23.83,7.446Zm105.033,27.82-7.727-7.727,6.227-6.228a1.891,1.891,0,1,0-2.674-2.674l-6.227,6.228-6.782-6.782,6.227-6.228a1.891,1.891,0,1,0-2.674-2.674l-6.227,6.228L95.4,132.436l6.227-6.228a1.891,1.891,0,1,0-2.674-2.674l-6.227,6.228L85.94,122.98l6.227-6.228a1.891,1.891,0,1,0-2.674-2.674l-6.227,6.228-7.727-7.727L105.014,83.1l46.5,46.5Zm32.15-32.15-46.5-46.5,4.89-4.89,46.5,46.5Z" fill="#32233f"/>
  </g>
</svg>
