<svg xmlns="http://www.w3.org/2000/svg" width="198.777" height="207.999" viewBox="0 0 198.777 207.999">
  <g id="img2" transform="translate(-1087 -1261)">
    <rect id="Rectángulo_7171" data-name="Rectángulo 7171" width="173" height="173" transform="translate(1087 1261)" fill="#0ac4bf"/>
    <g id="tela" transform="translate(1130.135 1313.5)">
      <path id="Trazado_118744" data-name="Trazado 118744" d="M39.879,416.641a10,10,0,1,0,10,10A10.01,10.01,0,0,0,39.879,416.641Zm0,15.442a5.443,5.443,0,1,1,5.443-5.443A5.449,5.449,0,0,1,39.879,432.083Z" transform="translate(-20.551 -290.103)"/>
      <path id="Trazado_118745" data-name="Trazado 118745" d="M148.791,16.589H38.139A18.961,18.961,0,0,0,.366,18.964c0,1.275,0,116.863,0,117.573A18.983,18.983,0,0,0,19.357,155.5H148.791a6.859,6.859,0,0,0,6.851-6.851V23.44a6.859,6.859,0,0,0-6.851-6.851ZM4.922,18.964a14.408,14.408,0,0,1,28.816,0V124.23a18.925,18.925,0,0,0-28.816,0Zm14.435,131.98a14.407,14.407,0,1,1,14.378-14.407,14.417,14.417,0,0,1-14.378,14.407Zm131.729-2.3a2.3,2.3,0,0,1-2.3,2.3H31.638a19.091,19.091,0,0,0,4.2-5.094c.635.267-5.815.177,115.25.177Zm0-17.807H130.868a2.278,2.278,0,0,0,0,4.556h20.219v6.074H37.636a20.977,20.977,0,0,0,.658-6.074h83.463a2.278,2.278,0,1,0,0-4.556H38.293v-6.074H151.087Zm0-10.63H38.293v-7.894l1.837,1.837a1.1,1.1,0,0,0,1.557,0l3.793-3.793a1.093,1.093,0,0,0,.317-.72,1.093,1.093,0,0,0,.317.72l3.793,3.793a1.1,1.1,0,0,0,1.557,0l3.793-3.793a1.093,1.093,0,0,0,.317-.72,1.093,1.093,0,0,0,.317.72l3.793,3.793a1.1,1.1,0,0,0,1.557,0l3.793-3.793a1.093,1.093,0,0,0,.317-.72,1.093,1.093,0,0,0,.317.72l3.793,3.793a1.1,1.1,0,0,0,1.557,0l3.793-3.793a1.093,1.093,0,0,0,.317-.72,1.093,1.093,0,0,0,.317.72l3.793,3.793a1.1,1.1,0,0,0,1.557,0l3.793-3.793a1.093,1.093,0,0,0,.317-.72,1.093,1.093,0,0,0,.317.72l3.793,3.793a1.1,1.1,0,0,0,1.557,0l3.793-3.793a1.093,1.093,0,0,0,.317-.72,1.093,1.093,0,0,0,.317.72l3.793,3.793a1.1,1.1,0,0,0,1.557,0l3.793-3.793a1.093,1.093,0,0,0,.317-.72,1.093,1.093,0,0,0,.317.72l3.793,3.793a1.1,1.1,0,0,0,1.557,0l3.793-3.793a1.093,1.093,0,0,0,.317-.72,1.093,1.093,0,0,0,.317.72l3.793,3.793a1.1,1.1,0,0,0,1.557,0l3.793-3.793a1.093,1.093,0,0,0,.317-.72,1.093,1.093,0,0,0,.317.72l3.793,3.793a1.1,1.1,0,0,0,1.557,0l3.793-3.793a1.093,1.093,0,0,0,.317-.72,1.093,1.093,0,0,0,.317.72l3.793,3.793a1.1,1.1,0,0,0,1.557,0l3.793-3.793a1.093,1.093,0,0,0,.317-.72,1.093,1.093,0,0,0,.317.72l3.793,3.793a1.1,1.1,0,0,0,1.557,0l1.841-1.841v7.9Zm0-13.361-1.841-1.841a1.1,1.1,0,0,0-1.557,0L143.9,108.8a1.093,1.093,0,0,0-.317.72,1.093,1.093,0,0,0-.317-.72l-3.793-3.793a1.1,1.1,0,0,0-1.557,0l-3.793,3.793a1.093,1.093,0,0,0-.317.72,1.093,1.093,0,0,0-.317-.72l-3.793-3.793a1.1,1.1,0,0,0-1.557,0l-3.793,3.793a1.093,1.093,0,0,0-.317.72,1.093,1.093,0,0,0-.317-.72l-3.793-3.793a1.1,1.1,0,0,0-1.557,0L114.56,108.8a1.093,1.093,0,0,0-.317.72,1.093,1.093,0,0,0-.317-.72l-3.793-3.793a1.1,1.1,0,0,0-1.557,0l-3.793,3.793a1.093,1.093,0,0,0-.317.72,1.093,1.093,0,0,0-.317-.72l-3.793-3.793a1.1,1.1,0,0,0-1.557,0L95,108.8a1.093,1.093,0,0,0-.317.72,1.093,1.093,0,0,0-.317-.72l-3.793-3.793a1.1,1.1,0,0,0-1.557,0L85.226,108.8a1.093,1.093,0,0,0-.317.72,1.093,1.093,0,0,0-.317-.72L80.8,105.009a1.1,1.1,0,0,0-1.557,0L75.448,108.8a1.093,1.093,0,0,0-.317.72,1.093,1.093,0,0,0-.317-.72l-3.793-3.793a1.1,1.1,0,0,0-1.557,0L65.669,108.8a1.093,1.093,0,0,0-.317.72,1.093,1.093,0,0,0-.317-.72l-3.793-3.793a1.1,1.1,0,0,0-1.557,0L55.891,108.8a1.093,1.093,0,0,0-.317.72,1.093,1.093,0,0,0-.317-.72l-3.793-3.793a1.1,1.1,0,0,0-1.557,0L46.113,108.8a1.093,1.093,0,0,0-.317.72,1.093,1.093,0,0,0-.317-.72l-3.793-3.793a1.1,1.1,0,0,0-1.557,0l-1.837,1.837V98.952H151.085v7.9Zm0-23.084H79.845a2.278,2.278,0,1,0,0,4.556h71.242V94.4H38.293V88.322h32.44a2.278,2.278,0,1,0,0-4.556H38.293V77.692H151.087Zm0-10.63H38.293V65.242l1.837,1.837a1.1,1.1,0,0,0,1.557,0l3.793-3.793a1.093,1.093,0,0,0,.317-.72,1.093,1.093,0,0,0,.317.72l3.793,3.793a1.1,1.1,0,0,0,1.557,0l3.793-3.793a1.093,1.093,0,0,0,.317-.72,1.093,1.093,0,0,0,.317.72l3.793,3.793a1.1,1.1,0,0,0,1.557,0l3.793-3.793a1.093,1.093,0,0,0,.317-.72,1.093,1.093,0,0,0,.317.72l3.793,3.793a1.1,1.1,0,0,0,1.557,0l3.793-3.793a1.093,1.093,0,0,0,.317-.72,1.093,1.093,0,0,0,.317.72l3.793,3.793a1.1,1.1,0,0,0,1.557,0l3.793-3.793a1.093,1.093,0,0,0,.317-.72,1.093,1.093,0,0,0,.317.72l3.793,3.793a1.1,1.1,0,0,0,1.557,0l3.793-3.793a1.093,1.093,0,0,0,.317-.72,1.093,1.093,0,0,0,.317.72L98.8,67.078a1.1,1.1,0,0,0,1.557,0l3.793-3.793a1.093,1.093,0,0,0,.317-.72,1.093,1.093,0,0,0,.317.72l3.793,3.793a1.1,1.1,0,0,0,1.557,0l3.793-3.793a1.093,1.093,0,0,0,.317-.72,1.093,1.093,0,0,0,.317.72l3.793,3.793a1.1,1.1,0,0,0,1.557,0l3.793-3.793a1.093,1.093,0,0,0,.317-.72,1.093,1.093,0,0,0,.317.72l3.793,3.793a1.1,1.1,0,0,0,1.557,0l3.793-3.793a1.093,1.093,0,0,0,.317-.72,1.093,1.093,0,0,0,.317.72l3.793,3.793a1.1,1.1,0,0,0,1.557,0l3.793-3.793a1.093,1.093,0,0,0,.317-.72,1.093,1.093,0,0,0,.317.72l3.793,3.793a1.1,1.1,0,0,0,1.557,0l1.841-1.841v7.9Zm0-13.361-1.841-1.841a1.1,1.1,0,0,0-1.557,0L143.9,61.728a1.093,1.093,0,0,0-.317.72,1.093,1.093,0,0,0-.317-.72l-3.793-3.793a1.1,1.1,0,0,0-1.557,0l-3.793,3.793a1.093,1.093,0,0,0-.317.72,1.093,1.093,0,0,0-.317-.72l-3.793-3.793a1.1,1.1,0,0,0-1.557,0l-3.793,3.793a1.093,1.093,0,0,0-.317.72,1.093,1.093,0,0,0-.317-.72l-3.793-3.793a1.1,1.1,0,0,0-1.557,0l-3.793,3.793a1.093,1.093,0,0,0-.317.72,1.093,1.093,0,0,0-.317-.72l-3.793-3.793a1.1,1.1,0,0,0-1.557,0l-3.793,3.793a1.093,1.093,0,0,0-.317.72,1.093,1.093,0,0,0-.317-.72l-3.793-3.793a1.1,1.1,0,0,0-1.557,0L95,61.728a1.093,1.093,0,0,0-.317.72,1.093,1.093,0,0,0-.317-.72l-3.793-3.793a1.1,1.1,0,0,0-1.557,0l-3.793,3.793a1.093,1.093,0,0,0-.317.72,1.093,1.093,0,0,0-.317-.72L80.8,57.934a1.1,1.1,0,0,0-1.557,0l-3.793,3.793a1.093,1.093,0,0,0-.317.72,1.093,1.093,0,0,0-.317-.72L71.02,57.934a1.1,1.1,0,0,0-1.557,0l-3.793,3.793a1.093,1.093,0,0,0-.317.72,1.093,1.093,0,0,0-.317-.72l-3.793-3.793a1.1,1.1,0,0,0-1.557,0l-3.793,3.793a1.093,1.093,0,0,0-.317.72,1.093,1.093,0,0,0-.317-.72l-3.793-3.793a1.1,1.1,0,0,0-1.557,0l-3.793,3.793a1.093,1.093,0,0,0-.317.72,1.093,1.093,0,0,0-.317-.72l-3.793-3.793a1.1,1.1,0,0,0-1.557,0l-1.837,1.837V51.876H151.085v7.9Zm0-12.454H38.293V41.247H151.087Zm0-21.26H106.571a2.278,2.278,0,0,0,0,4.556h44.515v6.074H38.293V30.617H97.46a2.278,2.278,0,0,0,0-4.556H38.293V21.145h110.5a2.3,2.3,0,0,1,2.3,2.3Z"/>
    </g>
  </g>
</svg>
