<svg xmlns="http://www.w3.org/2000/svg" xmlns:xlink="http://www.w3.org/1999/xlink" width="489.914" height="348.508" viewBox="0 0 489.914 348.508">
  <defs>
    <clipPath id="clip-path">
      <rect id="Rectángulo_27068" data-name="Rectángulo 27068" width="463.637" height="325.147" fill="#c2fcfa"/>
    </clipPath>
  </defs>
  <g id="img2" transform="translate(-8771 10914.4)">
    <g id="Grupo_91127" data-name="Grupo 91127" transform="translate(0 25)">
      <g id="Enmascarar_grupo_91126" data-name="Enmascarar grupo 91126" transform="translate(8771 -10916.04)" clip-path="url(#clip-path)">
        <path id="Trazado_156587" data-name="Trazado 156587" d="M97.451,497.253a3.91,3.91,0,0,1-.966,2.446c-4.471,5.586-23.954,9.791-47.294,9.791S6.367,505.285,1.9,499.7a3.665,3.665,0,0,1-.266-.365v-4.162C5.519,489.4,25.336,485.01,49.191,485.01,75.838,485.01,97.451,490.491,97.451,497.253Z" transform="translate(-0.621 -184.653)" fill="#c2fcfa"/>
        <path id="Trazado_156587_-_Contorno" data-name="Trazado 156587 - Contorno" d="M49.191,509.99a156.444,156.444,0,0,1-30.828-2.811A60.113,60.113,0,0,1,7.7,504.047c-2.95-1.234-5.032-2.591-6.187-4.03a4.135,4.135,0,0,1-.3-.41l-.081-.124V495.02l.085-.127c1.01-1.5,3.006-2.913,5.931-4.2a56.737,56.737,0,0,1,10.672-3.254,154.813,154.813,0,0,1,31.373-2.928c12.929,0,25.091,1.279,34.246,3.6a40.138,40.138,0,0,1,10.478,3.947c2.678,1.606,4.036,3.354,4.036,5.195a4.389,4.389,0,0,1-1.076,2.759c-1.153,1.441-3.236,2.8-6.191,4.035a60.13,60.13,0,0,1-10.668,3.132A156.442,156.442,0,0,1,49.191,509.99ZM2.13,499.182c.052.075.1.138.149.2l.008.01c2.109,2.635,7.891,5.055,16.281,6.813a155.422,155.422,0,0,0,30.623,2.79,155.42,155.42,0,0,0,30.621-2.79c8.391-1.759,14.174-4.178,16.283-6.813a3.423,3.423,0,0,0,.856-2.134c0-2.976-5.015-5.955-13.76-8.173-9.077-2.3-21.151-3.57-34-3.57a153.8,153.8,0,0,0-31.162,2.906,55.763,55.763,0,0,0-10.48,3.192c-2.665,1.174-4.487,2.426-5.419,3.722Z" transform="translate(-0.621 -184.653)" fill="#0ac4bf"/>
        <path id="Trazado_156590" data-name="Trazado 156590" d="M97.021,12.737c0,6.224-18.294,11.358-41.969,12.138q-3.093.1-6.292.105C24.906,24.98,5.089,20.589,1.2,14.818a3.633,3.633,0,0,1-.7-2.081C.5,5.981,22.107.5,48.761.5c3.276,0,6.471.081,9.568.242C79.081,1.8,95.027,6.235,96.841,11.69A3.234,3.234,0,0,1,97.021,12.737Z" transform="translate(-0.19 -0.19)" fill="#c2fcfa"/>
        <path id="Trazado_156590_-_Contorno" data-name="Trazado 156590 - Contorno" d="M48.761,0c3.275,0,6.5.081,9.594.242C63.48.5,68.38.973,72.918,1.637a94.815,94.815,0,0,1,11.9,2.449c5.043,1.425,11.3,3.873,12.493,7.447a3.752,3.752,0,0,1,.205,1.2c0,1.7-1.162,3.326-3.454,4.83a33.816,33.816,0,0,1-9.015,3.76c-7.776,2.229-18.424,3.666-29.984,4.047-2.12.07-4.243.106-6.308.106a154.815,154.815,0,0,1-31.373-2.928A56.739,56.739,0,0,1,6.716,19.3C3.791,18.01,1.8,16.6.785,15.1A4.133,4.133,0,0,1,0,12.737C0,10.9,1.358,9.151,4.035,7.546A40.146,40.146,0,0,1,14.512,3.6C23.667,1.279,35.83,0,48.761,0Zm0,24.48c2.055,0,4.166-.035,6.275-.105,11.48-.378,22.042-1.8,29.741-4.009a32.865,32.865,0,0,0,8.741-3.635c1.992-1.308,3-2.652,3-3.994a2.722,2.722,0,0,0-.153-.886c-.82-2.467-5.017-4.882-11.817-6.8A124.865,124.865,0,0,0,58.3,1.241C55.229,1.081,52.019,1,48.761,1c-12.85,0-24.926,1.268-34,3.57C6.015,6.787,1,9.764,1,12.737a3.118,3.118,0,0,0,.612,1.8c.906,1.344,2.758,2.638,5.507,3.849A55.765,55.765,0,0,0,17.6,21.575,153.8,153.8,0,0,0,48.761,24.48Z" transform="translate(-0.19 -0.19)" fill="#0ac4bf"/>
        <path id="Trazado_156591" data-name="Trazado 156591" d="M155.372,18.07h1.377v1.547h-1a2.722,2.722,0,0,0-.153-.886Z" transform="translate(-59.419 -7.07)" fill="#c1272d"/>
        <path id="Trazado_156592" data-name="Trazado 156592" d="M97.451,20.26V320.314c0-6.224-18.294-11.358-41.969-12.138q-3.093-.1-6.292-.105c-23.855,0-43.672,4.391-47.561,10.162V22.341C5.519,28.112,25.336,32.5,49.191,32.5q3.2,0,6.292-.105C79.158,31.618,97.451,26.484,97.451,20.26Z" transform="translate(-0.621 -7.713)" fill="#effffe"/>
        <path id="Trazado_156592_-_Contorno" data-name="Trazado 156592 - Contorno" d="M96.951,20.26h1V320.314h-1c0-1.343-1.01-2.687-3-3.995a32.866,32.866,0,0,0-8.741-3.635c-7.7-2.207-18.261-3.63-29.741-4.009-2.109-.07-4.221-.105-6.275-.105a153.8,153.8,0,0,0-31.162,2.906,55.765,55.765,0,0,0-10.48,3.192c-2.749,1.211-4.6,2.5-5.5,3.845L1.13,319.87V20.7l.915,1.357c.9,1.34,2.755,2.634,5.5,3.845A55.765,55.765,0,0,0,18.029,29.1,153.8,153.8,0,0,0,49.191,32c2.055,0,4.166-.035,6.275-.105,11.48-.378,22.042-1.8,29.741-4.009a32.864,32.864,0,0,0,8.741-3.635C95.941,22.947,96.951,21.6,96.951,20.26Zm0,297.387V22.927A9.974,9.974,0,0,1,94.5,25.09a33.813,33.813,0,0,1-9.015,3.76C77.707,31.079,67.059,32.517,55.5,32.9c-2.12.07-4.243.106-6.308.106a154.813,154.813,0,0,1-31.373-2.928A56.737,56.737,0,0,1,7.146,26.821,17.009,17.009,0,0,1,2.13,23.7v293.17a17.009,17.009,0,0,1,5.016-3.119A56.739,56.739,0,0,1,17.818,310.5a154.816,154.816,0,0,1,31.373-2.928c2.066,0,4.188.035,6.308.106,11.56.381,22.208,1.818,29.984,4.047a33.814,33.814,0,0,1,9.015,3.76A9.974,9.974,0,0,1,96.951,317.647Z" transform="translate(-0.621 -7.713)" fill="#0ac4bf"/>
        <path id="Trazado_156593" data-name="Trazado 156593" d="M155.266,504.78h1v2.946h-2.509l.653-.813A3.422,3.422,0,0,0,155.266,504.78Z" transform="translate(-58.935 -192.18)" fill="#c1272d"/>
        <path id="Trazado_156594" data-name="Trazado 156594" d="M499.069.89v314.5h-366.5V11.839h-.18C130.579,6.383,114.632,1.949,93.88.89Z" transform="translate(-35.742 -0.339)" fill="#e2fffe"/>
        <path id="Trazado_156594_-_Contorno" data-name="Trazado 156594 - Contorno" d="M93.88.39H499.569v315.5h-367.5V12.339h-.04L131.919,12C131.1,9.533,126.9,7.118,120.1,5.2A124.863,124.863,0,0,0,93.855,1.389Zm404.689,1H105.539q1.489.185,2.931.4a94.808,94.808,0,0,1,11.9,2.449c4.881,1.379,10.9,3.716,12.363,7.1h.336V314.885h365.5Z" transform="translate(-35.742 -0.339)" fill="#0ac4bf"/>
        <path id="Trazado_156595" data-name="Trazado 156595" d="M548.907,28.572l79.734-5.77s3.147,14.688,20.458,18.36,14.163,30.425-3.147,31.474-15.213,15.212-15.213,15.212L546.284,73.161Z" transform="translate(-207.981 -8.681)" fill="#fff"/>
        <path id="Trazado_156595_-_Contorno" data-name="Trazado 156595 - Contorno" d="M629.039,22.272l.091.425a23.143,23.143,0,0,0,3.682,7.654,24.959,24.959,0,0,0,6.1,6A28.261,28.261,0,0,0,649.2,40.673a14.427,14.427,0,0,1,9.4,6.283A16.864,16.864,0,0,1,661.063,57.3a18.227,18.227,0,0,1-4.3,10.585,15.192,15.192,0,0,1-10.781,5.246c-5.536.336-9.607,2.064-12.1,5.137a13.442,13.442,0,0,0-2.648,9.5l.1.684L545.759,73.577l2.675-45.471Zm1.143,64.972a15.189,15.189,0,0,1,.1-2.755,13.591,13.591,0,0,1,2.823-6.847c2.677-3.3,6.989-5.152,12.817-5.5a14.213,14.213,0,0,0,10.087-4.9,17.222,17.222,0,0,0,4.057-10,15.86,15.86,0,0,0-2.3-9.733A13.448,13.448,0,0,0,649,41.651a29.244,29.244,0,0,1-10.681-4.5,25.957,25.957,0,0,1-6.343-6.259,24.687,24.687,0,0,1-3.713-7.565L549.38,29.04l-2.571,43.705Z" transform="translate(-207.981 -8.681)" fill="#0ac4bf"/>
        <path id="Trazado_156596" data-name="Trazado 156596" d="M502.237,143.932l102.815,12.589S608.2,180.127,638.1,170.16l6.294,22.556s-6.294,14.164.525,20.459L638.1,236.78s-26.753-12.065-35.671,13.639l-99.668,8.918Z" transform="translate(-191.211 -54.798)" fill="#fff"/>
        <path id="Trazado_156596_-_Contorno" data-name="Trazado 156596 - Contorno" d="M501.734,143.367,605.5,156.072l.051.383a20.514,20.514,0,0,0,3.211,7.865,17.175,17.175,0,0,0,5.788,5.357,20.628,20.628,0,0,0,10.231,2.438,42.278,42.278,0,0,0,13.164-2.429l.5-.166,6.484,23.235-.073.164a36.225,36.225,0,0,0-2.262,7.767,20.169,20.169,0,0,0-.134,6.563,9.452,9.452,0,0,0,2.8,5.557l.227.209-7.065,24.456-.526-.237a37.134,37.134,0,0,0-13.55-2.784,22.071,22.071,0,0,0-11.956,3.185c-4.241,2.67-7.433,7.025-9.487,12.946l-.106.305-.322.029-100.21,8.966,0-.544ZM604.62,156.972,502.74,144.5l.519,114.293,98.805-8.84c2.134-5.986,5.428-10.412,9.792-13.159a23.053,23.053,0,0,1,12.488-3.339,36.5,36.5,0,0,1,9.819,1.433,36.114,36.114,0,0,1,3.611,1.217l6.58-22.774a10.528,10.528,0,0,1-2.888-5.922,21.184,21.184,0,0,1,.139-6.9,36.938,36.938,0,0,1,2.259-7.822L637.759,170.8a42.7,42.7,0,0,1-12.981,2.316,21.6,21.6,0,0,1-10.744-2.579,18.174,18.174,0,0,1-6.125-5.687A21.591,21.591,0,0,1,604.62,156.972Z" transform="translate(-191.211 -54.798)" fill="#0ac4bf"/>
        <path id="Trazado_156597" data-name="Trazado 156597" d="M508.853,408.771l-5.77-22.556s30.425-9.967.525-22.032l5.77-20.458S544,350.02,542.95,330.61l101.241-10.491L643.667,432.9,541.9,422.934S546.1,404.575,508.853,408.771Z" transform="translate(-191.534 -121.876)" fill="#fff"/>
        <path id="Trazado_156597_-_Contorno" data-name="Trazado 156597 - Contorno" d="M644.164,433.452,541.288,423.377l.126-.554a8.713,8.713,0,0,0,.078-2.506,9.929,9.929,0,0,0-2.169-5.286,14.743,14.743,0,0,0-6.582-4.405,40.33,40.33,0,0,0-13.686-1.979,91.53,91.53,0,0,0-10.145.62l-.432.049-5.994-23.431.445-.146a42.173,42.173,0,0,0,6.68-2.985c2.978-1.683,6.549-4.345,6.653-7.469.054-1.613-.827-3.257-2.617-4.886-2.133-1.941-5.573-3.877-10.222-5.753l-.416-.168,6.016-21.327.447.081a73.9,73.9,0,0,0,11.708.966,43.923,43.923,0,0,0,10.3-1.075,16.509,16.509,0,0,0,8.235-4.256,10.64,10.64,0,0,0,2.743-8.231l-.026-.475.473-.049,101.8-10.549,0,.557ZM542.478,422.488,643.17,432.35l.519-111.676-100.22,10.385a11.461,11.461,0,0,1-3.035,8.5,17.47,17.47,0,0,1-8.723,4.539,44.912,44.912,0,0,1-10.536,1.1,76.26,76.26,0,0,1-11.437-.907l-5.527,19.6c4.552,1.869,7.95,3.81,10.106,5.772,2.017,1.836,3.007,3.74,2.943,5.659a7.31,7.31,0,0,1-2.37,4.78,21.384,21.384,0,0,1-4.8,3.533,42.928,42.928,0,0,1-6.4,2.9l5.549,21.689a91.621,91.621,0,0,1,9.824-.579,41.263,41.263,0,0,1,14.049,2.047,15.69,15.69,0,0,1,7.015,4.73,11.061,11.061,0,0,1,2.374,5.842A10.54,10.54,0,0,1,542.478,422.488Z" transform="translate(-191.534 -121.876)" fill="#0ac4bf"/>
        <rect id="Rectángulo_27067" data-name="Rectángulo 27067" width="13.114" height="69.768" transform="translate(312.075 8.351)" fill="#fff"/>
        <path id="Rectángulo_27067_-_Contorno" data-name="Rectángulo 27067 - Contorno" d="M-.5-.5H13.614V70.268H-.5ZM12.614.5H.5V69.268H12.614Z" transform="translate(312.075 8.351)" fill="#0ac4bf"/>
        <path id="Trazado_156598" data-name="Trazado 156598" d="M330.656,447.728s-2.622-15.213-24.13-20.982c-14.3-3.838-8.393-27.277,4.2-28.327,5.774-.481,17.835-7.869,18.36-17.311l85.5,16.786-2.623,44.063Z" transform="translate(-113.528 -145.095)" fill="#fff"/>
        <path id="Trazado_156598_-_Contorno" data-name="Trazado 156598 - Contorno" d="M330.24,448.258l-.077-.446a21.653,21.653,0,0,0-3.944-8.163,29.743,29.743,0,0,0-7.166-6.8,41.4,41.4,0,0,0-12.657-5.619,11.9,11.9,0,0,1-4.261-2.071,10.744,10.744,0,0,1-2.79-3.266,14.64,14.64,0,0,1-1.578-8.475,20.044,20.044,0,0,1,3.978-10.24,14.75,14.75,0,0,1,3.943-3.593,11.331,11.331,0,0,1,4.994-1.662c2.49-.208,6.818-1.891,10.874-5.185,2.5-2.026,6.726-6.234,7.028-11.655l.032-.574,86.5,16.981-2.675,44.937Zm-.7-66.552A14.444,14.444,0,0,1,327.226,388a23.457,23.457,0,0,1-5.04,5.514c-3.656,2.968-8.246,5.14-11.422,5.405a10.341,10.341,0,0,0-4.556,1.519,13.755,13.755,0,0,0-3.674,3.352,19.018,19.018,0,0,0-3.772,9.716,13.65,13.65,0,0,0,1.456,7.9,10.023,10.023,0,0,0,6.437,4.859,42.36,42.36,0,0,1,13,5.783,30.706,30.706,0,0,1,7.406,7.058,23.372,23.372,0,0,1,3.995,8.1l80.438-5.709,2.571-43.189Z" transform="translate(-113.528 -145.095)" fill="#0ac4bf"/>
      </g>
      <path id="Trazado_156599" data-name="Trazado 156599" d="M8927.094-10607.479h-1v-6h1Zm0-12h-1v-6h1Zm0-12h-1v-6h1Zm0-12h-1v-6h1Zm0-12h-1v-6h1Zm0-12h-1v-6h1Zm0-12h-1v-6h1Zm0-12h-1v-6h1Zm0-12h-1v-6h1Zm0-12h-1v-6h1Zm0-12h-1v-6h1Zm0-12h-1v-6h1Zm0-12h-1v-6h1Zm0-12h-1v-6h1Zm0-12h-1v-6h1Zm0-12h-1v-6h1Zm0-12h-1v-6h1Zm0-12h-1v-6h1Zm0-12h-1v-6h1Zm0-12h-1v-6h1Zm0-12h-1v-6h1Zm0-12h-1v-6h1Zm0-12h-1v-6h1Zm0-12h-1v-6h1Zm0-12h-1v-6h1Zm0-12h-1v-6h1Z" transform="translate(16)" fill="#0ac4bf"/>
      <path id="Trazado_156600" data-name="Trazado 156600" d="M9220.105-10769.969h-5.721v-1h5.721Zm-11.721,0h-6v-1h6Zm-12,0h-6v-1h6Zm-12,0h-6v-1h6Zm-12,0h-6v-1h6Zm-12,0h-6v-1h6Zm-12,0h-6v-1h6Zm-12,0h-6v-1h6Zm-12,0h-6v-1h6Zm-12,0h-6v-1h6Zm-12,0h-6v-1h6Zm-12,0h-6v-1h6Z" transform="translate(0 4)" fill="#0ac4bf"/>
      <path id="Trazado_156601" data-name="Trazado 156601" d="M9203.389-10769.969h-1v-1h1Zm-7,0h-6v-1h6Zm-12,0h-6v-1h6Zm-12,0h-6v-1h6Zm-12,0h-6v-1h6Zm-12,0h-6v-1h6Zm-12,0h-6v-1h6Zm-12,0h-6v-1h6Zm-12,0h-6v-1h6Zm-12,0h-6v-1h6Zm-12,0h-6v-1h6Z" transform="translate(16.717 107)" fill="#0ac4bf"/>
    </g>
    <g id="Grupo_91128" data-name="Grupo 91128" transform="translate(8044.577 -13178.9)">
      <path id="Trazado_153647" data-name="Trazado 153647" d="M-3310.211-9471.323h-82.744v-1h82.744Z" transform="translate(4313.193 11744.323)"/>
      <path id="Polígono_11" data-name="Polígono 11" d="M5,0l5,9H0Z" transform="translate(913.5 2277.5) rotate(-90)" fill="#363636"/>
    </g>
    <path id="Trazado_156599-2" data-name="Trazado 156599" d="M2.828-1.227H8.219V0H1.32V-11.375H2.828ZM14.922,0a3.036,3.036,0,0,1-.2-.891A3.225,3.225,0,0,1,12.313.156a2.984,2.984,0,0,1-2.051-.707,2.287,2.287,0,0,1-.8-1.793,2.39,2.39,0,0,1,1-2.051,4.733,4.733,0,0,1,2.824-.73H14.7v-.664A1.623,1.623,0,0,0,14.242-7a1.821,1.821,0,0,0-1.336-.449,2.107,2.107,0,0,0-1.3.391,1.151,1.151,0,0,0-.523.945H9.633a2,2,0,0,1,.449-1.223A3.066,3.066,0,0,1,11.3-8.266a4.1,4.1,0,0,1,1.691-.344,3.342,3.342,0,0,1,2.289.73,2.635,2.635,0,0,1,.859,2.012v3.891a4.757,4.757,0,0,0,.3,1.852V0Zm-2.4-1.1a2.54,2.54,0,0,0,1.289-.352,2.127,2.127,0,0,0,.883-.914V-4.1H13.563q-2.656,0-2.656,1.555a1.316,1.316,0,0,0,.453,1.063A1.742,1.742,0,0,0,12.523-1.1Zm9.969-6.055a4.331,4.331,0,0,0-.711-.055A1.9,1.9,0,0,0,19.852-6V0H18.406V-8.453h1.406l.023.977a2.251,2.251,0,0,1,2.016-1.133,1.477,1.477,0,0,1,.641.109ZM23.328-4.3a4.968,4.968,0,0,1,.914-3.145,2.923,2.923,0,0,1,2.422-1.168,2.908,2.908,0,0,1,2.414,1.094l.07-.937h1.32V-.2A3.439,3.439,0,0,1,29.5,2.383a3.589,3.589,0,0,1-2.613.945,4.348,4.348,0,0,1-1.789-.391,3.08,3.08,0,0,1-1.336-1.07L24.508,1a2.826,2.826,0,0,0,2.273,1.148,2.214,2.214,0,0,0,1.645-.594,2.269,2.269,0,0,0,.59-1.672V-.844a2.971,2.971,0,0,1-2.367,1,2.887,2.887,0,0,1-2.4-1.2A5.224,5.224,0,0,1,23.328-4.3Zm1.453.164a3.79,3.79,0,0,0,.586,2.246,1.9,1.9,0,0,0,1.641.816,2.117,2.117,0,0,0,2.008-1.242V-6.172a2.142,2.142,0,0,0-1.992-1.211,1.921,1.921,0,0,0-1.648.82A4.128,4.128,0,0,0,24.781-4.133ZM32.266-4.3a4.993,4.993,0,0,1,.488-2.234A3.643,3.643,0,0,1,34.113-8.07,3.7,3.7,0,0,1,36.1-8.609a3.565,3.565,0,0,1,2.793,1.2,4.6,4.6,0,0,1,1.066,3.18v.1a5.036,5.036,0,0,1-.473,2.215A3.589,3.589,0,0,1,38.137-.391a3.743,3.743,0,0,1-2.02.547,3.556,3.556,0,0,1-2.785-1.2A4.575,4.575,0,0,1,32.266-4.2Zm1.453.172a3.616,3.616,0,0,0,.652,2.258,2.088,2.088,0,0,0,1.746.852,2.075,2.075,0,0,0,1.75-.863A3.955,3.955,0,0,0,38.516-4.3a3.61,3.61,0,0,0-.66-2.254A2.1,2.1,0,0,0,36.1-7.422a2.075,2.075,0,0,0-1.727.852A3.925,3.925,0,0,0,33.719-4.133ZM45.383-4.3A4.952,4.952,0,0,1,46.3-7.426a2.915,2.915,0,0,1,2.414-1.184A2.932,2.932,0,0,1,51.07-7.594V-12h1.445V0H51.188l-.07-.906A2.943,2.943,0,0,1,48.7.156a2.887,2.887,0,0,1-2.395-1.2,5.008,5.008,0,0,1-.926-3.141Zm1.445.164a3.749,3.749,0,0,0,.594,2.25,1.92,1.92,0,0,0,1.641.813A2.108,2.108,0,0,0,51.07-2.3V-6.187a2.125,2.125,0,0,0-1.992-1.2,1.929,1.929,0,0,0-1.656.82A4.128,4.128,0,0,0,46.828-4.133ZM58.266.156a3.693,3.693,0,0,1-2.8-1.129,4.19,4.19,0,0,1-1.078-3.02v-.266a5.073,5.073,0,0,1,.48-2.246,3.748,3.748,0,0,1,1.344-1.547,3.378,3.378,0,0,1,1.871-.559,3.166,3.166,0,0,1,2.563,1.086,4.7,4.7,0,0,1,.914,3.109v.6H55.836a3,3,0,0,0,.73,2.02,2.3,2.3,0,0,0,1.777.77,2.517,2.517,0,0,0,1.3-.312,3.259,3.259,0,0,0,.93-.828l.883.688A3.55,3.55,0,0,1,58.266.156Zm-.18-7.578a1.928,1.928,0,0,0-1.469.637A3.1,3.1,0,0,0,55.883-5h4.234v-.109a2.753,2.753,0,0,0-.594-1.707A1.815,1.815,0,0,0,58.086-7.422ZM64.8,0H63.359V-12H64.8Zm8.234-10.5v2.047h1.578v1.117H73.039v5.242a1.171,1.171,0,0,0,.211.762.888.888,0,0,0,.719.254,3.5,3.5,0,0,0,.688-.094V0a4.19,4.19,0,0,1-1.109.156A1.8,1.8,0,0,1,72.086-.43a2.517,2.517,0,0,1-.492-1.664V-7.336H70.055V-8.453h1.539V-10.5ZM79.813.156a3.693,3.693,0,0,1-2.8-1.129,4.19,4.19,0,0,1-1.078-3.02v-.266a5.073,5.073,0,0,1,.48-2.246,3.748,3.748,0,0,1,1.344-1.547,3.378,3.378,0,0,1,1.871-.559A3.166,3.166,0,0,1,82.2-7.523a4.7,4.7,0,0,1,.914,3.109v.6H77.383a3,3,0,0,0,.73,2.02,2.3,2.3,0,0,0,1.777.77,2.517,2.517,0,0,0,1.3-.312,3.259,3.259,0,0,0,.93-.828L83-1.477A3.55,3.55,0,0,1,79.813.156Zm-.18-7.578a1.928,1.928,0,0,0-1.469.637A3.1,3.1,0,0,0,77.43-5h4.234v-.109a2.753,2.753,0,0,0-.594-1.707A1.815,1.815,0,0,0,79.633-7.422Zm6.641-1.031V.977q0,2.438-2.211,2.438a2.682,2.682,0,0,1-.883-.141V2.117a2.794,2.794,0,0,0,.656.063.982.982,0,0,0,.738-.262,1.294,1.294,0,0,0,.254-.91V-8.453ZM84.68-10.7a.867.867,0,0,1,.215-.59.79.79,0,0,1,.629-.246.819.819,0,0,1,.641.242.854.854,0,0,1,.219.594.826.826,0,0,1-.219.586.834.834,0,0,1-.641.234.808.808,0,0,1-.633-.234A.843.843,0,0,1,84.68-10.7ZM90.172,0H88.727V-8.453h1.445ZM88.609-10.7a.863.863,0,0,1,.215-.594.807.807,0,0,1,.637-.242.819.819,0,0,1,.641.242.854.854,0,0,1,.219.594.826.826,0,0,1-.219.586.834.834,0,0,1-.641.234.821.821,0,0,1-.637-.234A.834.834,0,0,1,88.609-10.7Zm3.523,6.4a4.952,4.952,0,0,1,.922-3.129,2.915,2.915,0,0,1,2.414-1.184A2.932,2.932,0,0,1,97.82-7.594V-12h1.445V0H97.938l-.07-.906A2.943,2.943,0,0,1,95.453.156a2.887,2.887,0,0,1-2.395-1.2,5.008,5.008,0,0,1-.926-3.141Zm1.445.164a3.749,3.749,0,0,0,.594,2.25,1.92,1.92,0,0,0,1.641.813A2.109,2.109,0,0,0,97.82-2.3V-6.187a2.125,2.125,0,0,0-1.992-1.2,1.929,1.929,0,0,0-1.656.82A4.128,4.128,0,0,0,93.578-4.133Zm7.547-.172a4.993,4.993,0,0,1,.488-2.234,3.643,3.643,0,0,1,1.359-1.531,3.7,3.7,0,0,1,1.988-.539,3.565,3.565,0,0,1,2.793,1.2,4.6,4.6,0,0,1,1.066,3.18v.1a5.036,5.036,0,0,1-.473,2.215A3.589,3.589,0,0,1,107-.391a3.743,3.743,0,0,1-2.02.547,3.556,3.556,0,0,1-2.785-1.2A4.575,4.575,0,0,1,101.125-4.2Zm1.453.172a3.616,3.616,0,0,0,.652,2.258,2.088,2.088,0,0,0,1.746.852,2.075,2.075,0,0,0,1.75-.863,3.955,3.955,0,0,0,.648-2.418,3.61,3.61,0,0,0-.66-2.254,2.1,2.1,0,0,0-1.754-.863,2.075,2.075,0,0,0-1.727.852A3.925,3.925,0,0,0,102.578-4.133Z" transform="translate(9066 -10902.4)" fill="#12263f"/>
    <path id="Trazado_156600-2" data-name="Trazado 156600" d="M7.6-2.969H2.836L1.766,0H.219L4.563-11.375H5.875L10.227,0H8.688ZM3.289-4.2H7.156L5.219-9.523ZM12.9-8.453l.047,1.063a3.08,3.08,0,0,1,2.531-1.219q2.68,0,2.7,3.023V0H16.734V-5.594a1.946,1.946,0,0,0-.418-1.352,1.675,1.675,0,0,0-1.277-.437,2.086,2.086,0,0,0-1.234.375,2.546,2.546,0,0,0-.828.984V0H11.531V-8.453ZM23.75-1.023A2.082,2.082,0,0,0,25.1-1.492a1.649,1.649,0,0,0,.641-1.172h1.367a2.621,2.621,0,0,1-.5,1.383,3.293,3.293,0,0,1-1.23,1.047A3.55,3.55,0,0,1,23.75.156,3.482,3.482,0,0,1,21-1a4.59,4.59,0,0,1-1.02-3.152v-.242a5.089,5.089,0,0,1,.453-2.2,3.451,3.451,0,0,1,1.3-1.492,3.7,3.7,0,0,1,2-.531,3.39,3.39,0,0,1,2.363.852,3.043,3.043,0,0,1,1,2.211H25.742a1.992,1.992,0,0,0-.621-1.348,1.932,1.932,0,0,0-1.379-.527,2.023,2.023,0,0,0-1.707.793,3.724,3.724,0,0,0-.605,2.293v.273a3.65,3.65,0,0,0,.6,2.25A2.033,2.033,0,0,0,23.75-1.023ZM30.18-7.43a3.073,3.073,0,0,1,2.5-1.18q2.68,0,2.7,3.023V0H33.938V-5.594a1.946,1.946,0,0,0-.418-1.352,1.675,1.675,0,0,0-1.277-.437,2.086,2.086,0,0,0-1.234.375,2.546,2.546,0,0,0-.828.984V0H28.734V-12H30.18ZM37.164-4.3a4.993,4.993,0,0,1,.488-2.234A3.643,3.643,0,0,1,39.012-8.07,3.7,3.7,0,0,1,41-8.609a3.565,3.565,0,0,1,2.793,1.2,4.6,4.6,0,0,1,1.066,3.18v.1a5.036,5.036,0,0,1-.473,2.215A3.589,3.589,0,0,1,43.035-.391a3.743,3.743,0,0,1-2.02.547,3.556,3.556,0,0,1-2.785-1.2A4.575,4.575,0,0,1,37.164-4.2Zm1.453.172a3.616,3.616,0,0,0,.652,2.258,2.088,2.088,0,0,0,1.746.852,2.075,2.075,0,0,0,1.75-.863A3.955,3.955,0,0,0,43.414-4.3a3.61,3.61,0,0,0-.66-2.254A2.1,2.1,0,0,0,41-7.422a2.075,2.075,0,0,0-1.727.852A3.925,3.925,0,0,0,38.617-4.133ZM50.281-4.3A4.952,4.952,0,0,1,51.2-7.426a2.915,2.915,0,0,1,2.414-1.184,2.932,2.932,0,0,1,2.352,1.016V-12h1.445V0H56.086l-.07-.906A2.943,2.943,0,0,1,53.6.156a2.887,2.887,0,0,1-2.395-1.2,5.008,5.008,0,0,1-.926-3.141Zm1.445.164a3.749,3.749,0,0,0,.594,2.25,1.92,1.92,0,0,0,1.641.813A2.108,2.108,0,0,0,55.969-2.3V-6.187a2.125,2.125,0,0,0-1.992-1.2,1.929,1.929,0,0,0-1.656.82A4.128,4.128,0,0,0,51.727-4.133ZM63.164.156a3.693,3.693,0,0,1-2.8-1.129,4.19,4.19,0,0,1-1.078-3.02v-.266A5.073,5.073,0,0,1,59.77-6.5a3.748,3.748,0,0,1,1.344-1.547,3.378,3.378,0,0,1,1.871-.559,3.166,3.166,0,0,1,2.563,1.086,4.7,4.7,0,0,1,.914,3.109v.6H60.734a3,3,0,0,0,.73,2.02,2.3,2.3,0,0,0,1.777.77,2.517,2.517,0,0,0,1.3-.312,3.259,3.259,0,0,0,.93-.828l.883.688A3.55,3.55,0,0,1,63.164.156Zm-.18-7.578a1.928,1.928,0,0,0-1.469.637A3.1,3.1,0,0,0,60.781-5h4.234v-.109a2.753,2.753,0,0,0-.594-1.707A1.815,1.815,0,0,0,62.984-7.422ZM69.7,0H68.258V-12H69.7Zm8.234-10.5v2.047h1.578v1.117H77.938v5.242a1.171,1.171,0,0,0,.211.762.888.888,0,0,0,.719.254,3.5,3.5,0,0,0,.688-.094V0a4.19,4.19,0,0,1-1.109.156A1.8,1.8,0,0,1,76.984-.43a2.517,2.517,0,0,1-.492-1.664V-7.336H74.953V-8.453h1.539V-10.5ZM84.711.156a3.693,3.693,0,0,1-2.8-1.129,4.19,4.19,0,0,1-1.078-3.02v-.266a5.073,5.073,0,0,1,.48-2.246A3.748,3.748,0,0,1,82.66-8.051a3.378,3.378,0,0,1,1.871-.559,3.166,3.166,0,0,1,2.563,1.086,4.7,4.7,0,0,1,.914,3.109v.6H82.281a3,3,0,0,0,.73,2.02,2.3,2.3,0,0,0,1.777.77,2.517,2.517,0,0,0,1.3-.312,3.259,3.259,0,0,0,.93-.828l.883.688A3.55,3.55,0,0,1,84.711.156Zm-.18-7.578a1.928,1.928,0,0,0-1.469.637A3.1,3.1,0,0,0,82.328-5h4.234v-.109a2.753,2.753,0,0,0-.594-1.707A1.815,1.815,0,0,0,84.531-7.422Zm6.641-1.031V.977q0,2.438-2.211,2.438a2.682,2.682,0,0,1-.883-.141V2.117a2.794,2.794,0,0,0,.656.063.982.982,0,0,0,.738-.262,1.294,1.294,0,0,0,.254-.91V-8.453ZM89.578-10.7a.867.867,0,0,1,.215-.59.79.79,0,0,1,.629-.246.819.819,0,0,1,.641.242.854.854,0,0,1,.219.594.826.826,0,0,1-.219.586.834.834,0,0,1-.641.234.808.808,0,0,1-.633-.234A.843.843,0,0,1,89.578-10.7ZM95.07,0H93.625V-8.453H95.07ZM93.508-10.7a.863.863,0,0,1,.215-.594.807.807,0,0,1,.637-.242.819.819,0,0,1,.641.242.854.854,0,0,1,.219.594.826.826,0,0,1-.219.586.834.834,0,0,1-.641.234.821.821,0,0,1-.637-.234A.834.834,0,0,1,93.508-10.7Zm3.523,6.4a4.952,4.952,0,0,1,.922-3.129,2.915,2.915,0,0,1,2.414-1.184,2.932,2.932,0,0,1,2.352,1.016V-12h1.445V0h-1.328l-.07-.906A2.943,2.943,0,0,1,100.352.156a2.887,2.887,0,0,1-2.395-1.2,5.008,5.008,0,0,1-.926-3.141Zm1.445.164a3.749,3.749,0,0,0,.594,2.25,1.92,1.92,0,0,0,1.641.813A2.109,2.109,0,0,0,102.719-2.3V-6.187a2.125,2.125,0,0,0-1.992-1.2,1.929,1.929,0,0,0-1.656.82A4.128,4.128,0,0,0,98.477-4.133Zm7.547-.172a4.993,4.993,0,0,1,.488-2.234,3.643,3.643,0,0,1,1.359-1.531,3.7,3.7,0,0,1,1.988-.539,3.565,3.565,0,0,1,2.793,1.2,4.6,4.6,0,0,1,1.066,3.18v.1a5.036,5.036,0,0,1-.473,2.215,3.589,3.589,0,0,1-1.352,1.527,3.743,3.743,0,0,1-2.02.547,3.556,3.556,0,0,1-2.785-1.2A4.575,4.575,0,0,1,106.023-4.2Zm1.453.172a3.616,3.616,0,0,0,.652,2.258,2.088,2.088,0,0,0,1.746.852,2.075,2.075,0,0,0,1.75-.863,3.955,3.955,0,0,0,.648-2.418,3.61,3.61,0,0,0-.66-2.254,2.1,2.1,0,0,0-1.754-.863,2.075,2.075,0,0,0-1.727.852A3.925,3.925,0,0,0,107.477-4.133Z" transform="translate(9257.5 -10671.467) rotate(-90)" fill="#12263f"/>
  </g>
</svg>
