<svg xmlns="http://www.w3.org/2000/svg" width="240" height="223" viewBox="0 0 240 223">
  <g id="img3" transform="translate(-1058 -1685)">
    <rect id="Rectángulo_26438" data-name="Rectángulo 26438" width="173" height="173" transform="translate(1125 1685)" fill="#0ac4bf"/>
    <g id="tela_3_" data-name="tela (3)" transform="translate(1050.467 1716.727)">
      <g id="Grupo_89860" data-name="Grupo 89860" transform="translate(20.352 37.455)">
        <path id="Trazado_153559" data-name="Trazado 153559" d="M403.271,314.733h-3.2a35.411,35.411,0,0,1,0,70.5h3.2a35.25,35.25,0,0,0,0-70.5" transform="translate(-265.475 -234.619)" fill="#bf3976"/>
        <path id="Trazado_153560" data-name="Trazado 153560" d="M134.6,216.764V101.4H41.667V252.015H169.849a35.563,35.563,0,0,1-35.25-35.25" transform="translate(-41.667 -101.4)" fill="#bf3976"/>
      </g>
      <path id="Trazado_153561" data-name="Trazado 153561" d="M16.067,252.015h9.614V101.4H16.067Z" transform="translate(-5.329 -63.945)" fill="#fff"/>
      <path id="Trazado_153562" data-name="Trazado 153562" d="M314.77,193.4h0c-10.9,0-25.637-16.023-25.637-35.25V42.783c0-19.548,14.741-35.25,25.637-35.25a35.354,35.354,0,0,1,35.25,35.25V158.148a35.563,35.563,0,0,1-35.25,35.25" transform="translate(-175.849 -5.329)" fill="#bf3976"/>
      <path id="Trazado_153563" data-name="Trazado 153563" d="M375.007,7.533a24.264,24.264,0,0,0-4.807.32c16.984,2.564,30.443,17.3,30.443,34.93V158.147c0,17.625-13.459,32.366-30.443,34.93a24.263,24.263,0,0,0,4.807.32,35.563,35.563,0,0,0,35.25-35.25V42.783a35.354,35.354,0,0,0-35.25-35.25" transform="translate(-226.473 -5.329)" fill="#d873a1"/>
      <path id="Trazado_153564" data-name="Trazado 153564" d="M353.224,349.983a35.149,35.149,0,0,1-35.25,35.25c-19.548,0-28.841-15.7-28.841-35.25s9.293-35.25,28.841-35.25a35.149,35.149,0,0,1,35.25,35.25" transform="translate(-175.849 -197.164)" fill="#bf3976"/>
      <path id="Trazado_153565" data-name="Trazado 153565" d="M377.671,314.733h-3.2a35.411,35.411,0,0,1,0,70.5h3.2a35.25,35.25,0,1,0,0-70.5" transform="translate(-229.137 -197.164)" fill="#771743"/>
      <g id="Grupo_89861" data-name="Grupo 89861" transform="translate(129.307 2.204)">
        <path id="Trazado_153566" data-name="Trazado 153566" d="M400.607,7.533a24.264,24.264,0,0,0-4.807.32c16.984,2.564,30.443,17.3,30.443,34.93V158.147c0,17.625-13.459,32.366-30.443,34.93a24.263,24.263,0,0,0,4.807.32,35.563,35.563,0,0,0,35.25-35.25V42.783a35.354,35.354,0,0,0-35.25-35.25" transform="translate(-371.766 -7.533)" fill="#cb6191"/>
        <path id="Trazado_153567" data-name="Trazado 153567" d="M370.255,376.627A19.227,19.227,0,1,1,351.027,357.4a19.284,19.284,0,0,1,19.227,19.227" transform="translate(-331.8 -226.013)" fill="#cb6191"/>
      </g>
      <path id="Trazado_153568" data-name="Trazado 153568" d="M319.055,191.274A38.568,38.568,0,0,1,280.6,152.819V37.455a38.455,38.455,0,1,1,76.91,0V152.819A38.568,38.568,0,0,1,319.055,191.274Zm0-185.865a32.14,32.14,0,0,0-32.046,32.046V152.819a32.046,32.046,0,1,0,64.091,0V37.455A32.14,32.14,0,0,0,319.055,5.409Z" transform="translate(-170.521)"/>
      <path id="Trazado_153569" data-name="Trazado 153569" d="M148.534,249.891h-141V92.867H116.488V211.436a32.14,32.14,0,0,0,32.046,32.046v6.409ZM13.942,243.481H127.384c-10.255-7.05-17.3-18.586-17.3-32.046V99.276H13.942V243.481Z" transform="translate(0 -58.617)"/>
      <path id="Trazado_153570" data-name="Trazado 153570" d="M319.055,383.11a38.455,38.455,0,1,1,38.455-38.455A38.568,38.568,0,0,1,319.055,383.11Zm0-70.5A32.046,32.046,0,1,0,351.1,344.655,32.14,32.14,0,0,0,319.055,312.609Z" transform="translate(-170.521 -191.836)"/>
      <path id="Trazado_153571" data-name="Trazado 153571" d="M345.7,393.731A22.432,22.432,0,1,1,368.131,371.3,22.294,22.294,0,0,1,345.7,393.731Zm0-38.455A16.023,16.023,0,1,0,361.722,371.3,15.867,15.867,0,0,0,345.7,355.276Z" transform="translate(-197.165 -218.48)"/>
      <rect id="Rectángulo_26439" data-name="Rectángulo 26439" width="89.09" height="6.409" transform="matrix(-0.864, 0.504, -0.504, -0.864, 89.286, 40.21)"/>
      <rect id="Rectángulo_26440" data-name="Rectángulo 26440" width="119.206" height="6.409" transform="matrix(-0.86, 0.511, -0.511, -0.86, 114.883, 110.701)"/>
      <rect id="Rectángulo_26441" data-name="Rectángulo 26441" width="6.409" height="105.745" transform="translate(114.094 104.848) rotate(104.035)"/>
      <rect id="Rectángulo_26442" data-name="Rectángulo 26442" width="86.203" height="6.409" transform="translate(114.774 46.696) rotate(148.661)"/>
      <rect id="Rectángulo_26443" data-name="Rectángulo 26443" width="56.078" height="6.409" transform="translate(115.077 68.949) rotate(149.028)"/>
      <rect id="Rectángulo_26444" data-name="Rectángulo 26444" width="25.955" height="6.409" transform="translate(115.063 91.403) rotate(150.256)"/>
      <rect id="Rectángulo_26445" data-name="Rectángulo 26445" width="6.409" height="80.114" transform="translate(88.544 120.901) rotate(106.26)"/>
      <rect id="Rectángulo_26446" data-name="Rectángulo 26446" width="6.409" height="53.838" transform="translate(63.018 133.746) rotate(107.355)"/>
      <rect id="Rectángulo_26447" data-name="Rectángulo 26447" width="6.409" height="27.238" transform="matrix(-0.351, 0.936, -0.936, -0.351, 37.275, 149.738)"/>
      <rect id="Rectángulo_26448" data-name="Rectángulo 26448" width="114.725" height="6.409" transform="matrix(-0.865, 0.502, -0.502, -0.865, 114.837, 133.218)"/>
      <rect id="Rectángulo_26449" data-name="Rectángulo 26449" width="70.501" height="6.409" transform="matrix(-0.865, 0.501, -0.501, -0.865, 114.955, 155.549)"/>
      <rect id="Rectángulo_26450" data-name="Rectángulo 26450" width="49.029" height="6.409" transform="translate(54.263 40.072) rotate(148.399)"/>
    </g>
  </g>
</svg>
