<svg xmlns="http://www.w3.org/2000/svg" width="299.476" height="208.501" viewBox="0 0 299.476 208.501">
  <g id="img3" transform="translate(-879.158 -2616)">
    <g id="tela" transform="translate(970.43 2616)">
      <path id="Trazado_153507" data-name="Trazado 153507" d="M62.668,62.119H236.314a6.132,6.132,0,0,1,6.132,6.132V236.136a6.132,6.132,0,0,1-6.132,6.132H62.668Z" transform="translate(-37.296 -36.822)" fill="#bf3976"/>
      <path id="Trazado_153508" data-name="Trazado 153508" d="M62.669,62.118V242.269H236.316a6.131,6.131,0,0,0,6.129-6.133V228.11H108.927A7.115,7.115,0,0,1,101.812,221V62.118Z" transform="translate(-37.297 -36.822)" fill="#de6b9f"/>
      <path id="Trazado_153509" data-name="Trazado 153509" d="M7.867,29.871V187.52H52.613V29.871a22.373,22.373,0,0,0-44.746,0Z" transform="translate(-4.812 -4.445)" fill="#bf3976"/>
      <circle id="Elipse_6347" data-name="Elipse 6347" cx="22.373" cy="22.373" r="22.373" transform="translate(3.054 160.702)" fill="#bf3976"/>
      <path id="Trazado_153510" data-name="Trazado 153510" d="M47.733,444.845A10.353,10.353,0,1,0,37.38,434.492,10.364,10.364,0,0,0,47.733,444.845Z" transform="translate(-22.306 -251.417)" fill="#bf3976"/>
      <path id="Trazado_153511" data-name="Trazado 153511" d="M43.287,416.641a13.407,13.407,0,1,0,13.407,13.407,13.422,13.422,0,0,0-13.407-13.407Zm0,20.706a7.3,7.3,0,1,1,7.3-7.3,7.307,7.307,0,0,1-7.3,7.3Z" transform="translate(-17.861 -246.973)"/>
      <path id="Trazado_153512" data-name="Trazado 153512" d="M199.383,22.243H51.015A25.424,25.424,0,0,0,.367,25.427c0,1.709,0,156.7,0,157.648A25.454,25.454,0,0,0,25.831,208.5H199.383a9.2,9.2,0,0,0,9.186-9.186V31.43a9.2,9.2,0,0,0-9.186-9.187ZM6.475,25.427a19.319,19.319,0,1,1,38.638,0V166.574a25.376,25.376,0,0,0-38.638-.006ZM25.831,202.393A19.318,19.318,0,1,1,45.11,183.076a19.332,19.332,0,0,1-19.279,19.317Zm176.63-3.078a3.081,3.081,0,0,1-3.078,3.078H42.3a25.6,25.6,0,0,0,5.63-6.83c.852.358-7.8.237,154.533.237Zm0-23.876h-27.11a3.054,3.054,0,0,0,0,6.108h27.11v8.145H50.34a28.127,28.127,0,0,0,.882-8.145H163.134a3.054,3.054,0,0,0,0-6.108H51.221v-8.145H202.461Zm0-14.253H51.221V150.6l2.463,2.463a1.477,1.477,0,0,0,2.088,0l5.086-5.086a1.466,1.466,0,0,0,.425-.966,1.466,1.466,0,0,0,.425.966l5.086,5.086a1.477,1.477,0,0,0,2.088,0l5.086-5.086a1.466,1.466,0,0,0,.425-.966,1.466,1.466,0,0,0,.425.966l5.086,5.086a1.477,1.477,0,0,0,2.088,0l5.086-5.086a1.466,1.466,0,0,0,.425-.966,1.466,1.466,0,0,0,.425.966l5.086,5.086a1.477,1.477,0,0,0,2.088,0l5.086-5.086a1.466,1.466,0,0,0,.425-.966,1.466,1.466,0,0,0,.425.966l5.086,5.086a1.477,1.477,0,0,0,2.088,0l5.086-5.086a1.466,1.466,0,0,0,.425-.966,1.466,1.466,0,0,0,.425.966l5.086,5.086a1.477,1.477,0,0,0,2.088,0l5.086-5.086a1.466,1.466,0,0,0,.425-.966,1.466,1.466,0,0,0,.425.966l5.086,5.086a1.477,1.477,0,0,0,2.088,0l5.086-5.086a1.466,1.466,0,0,0,.425-.966,1.466,1.466,0,0,0,.425.966l5.086,5.086a1.477,1.477,0,0,0,2.088,0l5.086-5.086a1.466,1.466,0,0,0,.425-.966,1.466,1.466,0,0,0,.425.966l5.086,5.086a1.477,1.477,0,0,0,2.088,0l5.086-5.086a1.466,1.466,0,0,0,.425-.966,1.466,1.466,0,0,0,.425.966l5.086,5.086a1.477,1.477,0,0,0,2.088,0l5.086-5.086a1.466,1.466,0,0,0,.425-.966,1.466,1.466,0,0,0,.425.966l5.086,5.086a1.477,1.477,0,0,0,2.088,0l5.086-5.086a1.466,1.466,0,0,0,.425-.966,1.466,1.466,0,0,0,.425.966l5.086,5.086a1.477,1.477,0,0,0,2.088,0l2.468-2.468v10.591Zm0-17.915-2.468-2.468a1.477,1.477,0,0,0-2.088,0l-5.086,5.086a1.466,1.466,0,0,0-.425.966,1.466,1.466,0,0,0-.425-.966l-5.086-5.086a1.477,1.477,0,0,0-2.088,0l-5.086,5.086a1.466,1.466,0,0,0-.425.966,1.466,1.466,0,0,0-.425-.966L173.77,140.8a1.477,1.477,0,0,0-2.088,0l-5.086,5.086a1.466,1.466,0,0,0-.425.966,1.466,1.466,0,0,0-.425-.966l-5.086-5.086a1.477,1.477,0,0,0-2.088,0l-5.086,5.086a1.466,1.466,0,0,0-.425.966,1.466,1.466,0,0,0-.425-.966l-5.086-5.086a1.477,1.477,0,0,0-2.088,0l-5.086,5.086a1.466,1.466,0,0,0-.425.966,1.466,1.466,0,0,0-.425-.966l-5.086-5.086a1.477,1.477,0,0,0-2.088,0l-5.086,5.086a1.466,1.466,0,0,0-.425.966,1.466,1.466,0,0,0-.425-.966l-5.086-5.086a1.477,1.477,0,0,0-2.088,0l-5.086,5.086a1.466,1.466,0,0,0-.425.966,1.466,1.466,0,0,0-.425-.966l-5.086-5.086a1.477,1.477,0,0,0-2.088,0l-5.086,5.086a1.466,1.466,0,0,0-.425.966,1.466,1.466,0,0,0-.425-.966L95.1,140.8a1.477,1.477,0,0,0-2.088,0l-5.086,5.086a1.466,1.466,0,0,0-.425.966,1.466,1.466,0,0,0-.425-.966L81.992,140.8a1.477,1.477,0,0,0-2.088,0l-5.086,5.086a1.466,1.466,0,0,0-.425.966,1.466,1.466,0,0,0-.425-.966L68.881,140.8a1.477,1.477,0,0,0-2.088,0l-5.086,5.086a1.466,1.466,0,0,0-.425.966,1.466,1.466,0,0,0-.425-.966L55.77,140.8a1.477,1.477,0,0,0-2.088,0l-2.463,2.463V132.68H202.458v10.591Zm0-30.953H106.936a3.054,3.054,0,0,0,0,6.108h95.525v8.145H51.221v-8.145h43.5a3.054,3.054,0,0,0,0-6.108h-43.5v-8.145H202.461Zm0-14.253H51.221V87.48l2.463,2.463a1.477,1.477,0,0,0,2.088,0l5.086-5.086a1.466,1.466,0,0,0,.425-.966,1.466,1.466,0,0,0,.425.966L66.8,89.942a1.477,1.477,0,0,0,2.088,0l5.086-5.086a1.466,1.466,0,0,0,.425-.966,1.466,1.466,0,0,0,.425.966l5.086,5.086a1.477,1.477,0,0,0,2.088,0l5.086-5.086a1.466,1.466,0,0,0,.425-.966,1.466,1.466,0,0,0,.425.966l5.086,5.086a1.477,1.477,0,0,0,2.088,0l5.086-5.086a1.466,1.466,0,0,0,.425-.966,1.466,1.466,0,0,0,.425.966l5.086,5.086a1.477,1.477,0,0,0,2.088,0l5.086-5.086a1.466,1.466,0,0,0,.425-.966,1.466,1.466,0,0,0,.425.966l5.086,5.086a1.477,1.477,0,0,0,2.088,0l5.086-5.086a1.466,1.466,0,0,0,.425-.966,1.466,1.466,0,0,0,.425.966l5.086,5.086a1.477,1.477,0,0,0,2.088,0l5.086-5.086a1.466,1.466,0,0,0,.425-.966,1.466,1.466,0,0,0,.425.966l5.086,5.086a1.477,1.477,0,0,0,2.088,0l5.086-5.086a1.466,1.466,0,0,0,.425-.966,1.466,1.466,0,0,0,.425.966l5.086,5.086a1.477,1.477,0,0,0,2.088,0l5.086-5.086a1.466,1.466,0,0,0,.425-.966,1.466,1.466,0,0,0,.425.966l5.086,5.086a1.477,1.477,0,0,0,2.088,0l5.086-5.086a1.466,1.466,0,0,0,.425-.966,1.466,1.466,0,0,0,.425.966l5.086,5.086a1.477,1.477,0,0,0,2.088,0l5.086-5.086a1.466,1.466,0,0,0,.425-.966,1.466,1.466,0,0,0,.425.966l5.086,5.086a1.477,1.477,0,0,0,2.088,0l2.468-2.468V98.065Zm0-17.915-2.468-2.468a1.477,1.477,0,0,0-2.088,0l-5.086,5.086a1.466,1.466,0,0,0-.425.966,1.466,1.466,0,0,0-.425-.966l-5.086-5.086a1.477,1.477,0,0,0-2.088,0l-5.086,5.086a1.466,1.466,0,0,0-.425.966,1.466,1.466,0,0,0-.425-.966l-5.086-5.086a1.477,1.477,0,0,0-2.088,0L166.6,82.768a1.466,1.466,0,0,0-.425.966,1.466,1.466,0,0,0-.425-.966l-5.086-5.086a1.477,1.477,0,0,0-2.088,0l-5.086,5.086a1.466,1.466,0,0,0-.425.966,1.466,1.466,0,0,0-.425-.966l-5.086-5.086a1.477,1.477,0,0,0-2.088,0l-5.086,5.086a1.466,1.466,0,0,0-.425.966,1.466,1.466,0,0,0-.425-.966l-5.086-5.086a1.477,1.477,0,0,0-2.088,0l-5.086,5.086a1.466,1.466,0,0,0-.425.966,1.466,1.466,0,0,0-.425-.966l-5.086-5.086a1.477,1.477,0,0,0-2.088,0l-5.086,5.086a1.466,1.466,0,0,0-.425.966,1.466,1.466,0,0,0-.425-.966l-5.086-5.086a1.477,1.477,0,0,0-2.088,0l-5.086,5.086a1.466,1.466,0,0,0-.425.966,1.466,1.466,0,0,0-.425-.966L95.1,77.681a1.477,1.477,0,0,0-2.088,0l-5.086,5.086a1.466,1.466,0,0,0-.425.966,1.466,1.466,0,0,0-.425-.966l-5.086-5.086a1.477,1.477,0,0,0-2.088,0l-5.086,5.086a1.466,1.466,0,0,0-.425.966,1.466,1.466,0,0,0-.425-.966l-5.086-5.086a1.477,1.477,0,0,0-2.088,0l-5.086,5.086a1.466,1.466,0,0,0-.425.966,1.466,1.466,0,0,0-.425-.966L55.77,77.681a1.477,1.477,0,0,0-2.088,0l-2.463,2.463V69.559H202.458V80.15Zm0-16.7H51.221V55.306H202.461Zm0-28.506H142.772a3.054,3.054,0,1,0,0,6.108h59.688V49.2H51.221V41.052h79.334a3.054,3.054,0,0,0,0-6.108H51.221V28.352H199.383a3.082,3.082,0,0,1,3.078,3.078Z" transform="translate(-0.365)"/>
    </g>
    <g id="pago-en-efectivo" transform="translate(879.158 2646.313)">
      <g id="Grupo_89692" data-name="Grupo 89692" transform="translate(0 7.888)">
        <g id="Grupo_89688" data-name="Grupo 89688" transform="translate(2.091 34.816)">
          <g id="XMLID_79_" transform="translate(0.026 38.805)">
            <path id="Trazado_153487" data-name="Trazado 153487" d="M0,0H13.333V30.906H0Z" transform="translate(0 9.426) rotate(-45)" fill="#bf3976"/>
          </g>
          <g id="Grupo_89685" data-name="Grupo 89685" transform="translate(0 38.84)">
            <path id="Trazado_153488" data-name="Trazado 153488" d="M0,0H13.331V7.455H0Z" transform="translate(0 9.425) rotate(-45)" fill="#e45974"/>
          </g>
          <g id="Grupo_89686" data-name="Grupo 89686" transform="translate(11.578)">
            <path id="Trazado_153489" data-name="Trazado 153489" d="M89.157,193.01a6.727,6.727,0,0,0-9.3-.428l-8.388,7.333,3.439-3.007-8.829-8.823,26.069-26.051-17.665,2.208a10.548,10.548,0,0,0-8.353,6.23l-14.267,32.54,17.007,17L88.706,202.7a6.716,6.716,0,0,0,.451-9.691Z" transform="translate(-51.863 -162.034)" fill="#fae6b8"/>
          </g>
          <g id="Grupo_89687" data-name="Grupo 89687" transform="translate(11.578)">
            <path id="Trazado_153490" data-name="Trazado 153490" d="M70.611,175.743a10.549,10.549,0,0,1,8.353-6.23l6.514-.814,6.669-6.665-17.665,2.208a10.548,10.548,0,0,0-8.353,6.23l-14.267,32.54,4.723,4.72Z" transform="translate(-51.863 -162.034)" fill="#eecaa3"/>
          </g>
        </g>
        <g id="Grupo_89691" data-name="Grupo 89691" transform="translate(0)">
          <path id="Trazado_153491" data-name="Trazado 153491" d="M164.6,37.929,105.8,96.688l8.829,8.823,4.949-4.326a6.721,6.721,0,1,1,8.85,10.119l-4.272,3.727,16.206,16.2,58.8-58.759Z" transform="translate(-77.916 -35.821)" fill="#0ac4bf"/>
          <path id="Trazado_153492" data-name="Trazado 153492" d="M122.734,65.084,88.172,30.547a2.109,2.109,0,0,0-2.981,0l-32.219,32.2L36.025,64.862A12.715,12.715,0,0,0,26,72.337L12.973,102.055a2.107,2.107,0,0,0-2.933.044L.609,111.523a2.129,2.129,0,0,0,0,2.982L22.47,136.351a2.129,2.129,0,0,0,2.981,0l9.431-9.424a2.129,2.129,0,0,0,0-2.982l-1.122-1.121,12.379-10.8,14.813,14.8a2.129,2.129,0,0,0,2.981,0l58.8-58.76a2.134,2.134,0,0,0,0-2.982Zm-13.719,10.73L72.98,111.825a20.518,20.518,0,0,0-21.6-.527l-2.055-2.054L51.9,107a8.9,8.9,0,0,0,.593-12.732,8.812,8.812,0,0,0-8.111-2.586,21.786,21.786,0,0,0-3.046-11.346L76.062,45.631c6.535,4.13,14.79,3.9,21.477.237l9.99,9.983a19.957,19.957,0,0,0,1.486,19.963ZM36.807,96.735,30.865,90.8l7.375-7.37a18.1,18.1,0,0,1,1.788,10.492ZM86.682,35.019l7.715,7.71a16.813,16.813,0,0,1-15.256-.174Zm-62.721,96.86L5.083,113.014l6.448-6.443,18.878,18.865Zm6.81-12.043L16.176,105.251,29.864,74.03a8.479,8.479,0,0,1,6.683-4.985L48.111,67.6h0L26.391,89.306a2.129,2.129,0,0,0,0,2.982l7.234,7.229-1.741,1.522a2.09,2.09,0,1,0,2.776,3.124l8.388-7.333a4.609,4.609,0,0,1,6.385.319,4.671,4.671,0,0,1-.31,6.668Zm31.673,2.518-7.97-7.964a16.282,16.282,0,0,1,15.442.5Zm49.614-49.58a15.425,15.425,0,0,1-1.3-13.7l7.5,7.5Z" transform="translate(0 -29.929)" fill="#333"/>
          <g id="XMLID_836_" transform="translate(62.963 37.632)">
            <path id="Trazado_153493" data-name="Trazado 153493" d="M262.969,183.679c3.79,3.788,4,9.716.478,13.24s-9.458,3.31-13.249-.478-4-9.716-.478-13.24S259.178,179.891,262.969,183.679Z" transform="translate(-245.019 -178.59)" fill="#fff"/>
            <path id="Trazado_153494" data-name="Trazado 153494" d="M242.589,192.059c-4.69-3.976-4.97-11.734-.478-16.222,4.343-4.34,11.624-4.126,16.23.478,4.349,4.346,4.978,11.743.478,16.222C254.482,196.853,248.244,196.853,242.589,192.059Zm2.5-13.24c-2.956,2.759-2.238,7.543.478,10.257,2.962,2.96,7.568,3.175,10.267.478,2.86-2.858,2.188-7.494-.478-10.257C252.812,176.657,248.068,176.042,245.092,178.819Z" transform="translate(-238.901 -172.717)" fill="#333"/>
          </g>
          <g id="Grupo_89689" data-name="Grupo 89689" transform="translate(54.77 57.551)">
            <ellipse id="Elipse_6345" data-name="Elipse 6345" cx="3.427" cy="3.426" rx="3.427" ry="3.426" transform="translate(2.109 2.108)" fill="#fff"/>
            <path id="Trazado_153495" data-name="Trazado 153495" d="M213.351,259.366a5.535,5.535,0,1,1,5.536-5.535A5.541,5.541,0,0,1,213.351,259.366Zm0-6.852a1.318,1.318,0,1,0,1.318,1.318A1.319,1.319,0,0,0,213.351,252.514Z" transform="translate(-207.816 -248.297)" fill="#333"/>
          </g>
          <g id="Grupo_89690" data-name="Grupo 89690" transform="translate(83.186 29.076)">
            <ellipse id="Elipse_6346" data-name="Elipse 6346" cx="3.427" cy="3.426" rx="3.427" ry="3.426" transform="translate(2.109 2.108)" fill="#fff"/>
            <path id="Trazado_153496" data-name="Trazado 153496" d="M321.168,151.322a5.535,5.535,0,1,1,5.535-5.535A5.541,5.541,0,0,1,321.168,151.322Zm0-6.852a1.318,1.318,0,1,0,1.318,1.318A1.32,1.32,0,0,0,321.168,144.47Z" transform="translate(-315.633 -140.253)" fill="#333"/>
          </g>
        </g>
      </g>
      <g id="Grupo_89697" data-name="Grupo 89697" transform="translate(83.816 102.258)">
        <g id="Grupo_89693" data-name="Grupo 89693" transform="translate(8.435)">
          <path id="Trazado_153497" data-name="Trazado 153497" d="M352.138,395.39a2.109,2.109,0,0,1-2.109-2.108v-3.173a2.109,2.109,0,0,1,4.217,0v3.173A2.109,2.109,0,0,1,352.138,395.39Z" transform="translate(-350.029 -388)" fill="#333"/>
        </g>
        <g id="Grupo_89694" data-name="Grupo 89694" transform="translate(8.435 13.694)">
          <path id="Trazado_153498" data-name="Trazado 153498" d="M352.138,447.351a2.109,2.109,0,0,1-2.109-2.108v-3.173a2.109,2.109,0,0,1,4.217,0v3.173A2.109,2.109,0,0,1,352.138,447.351Z" transform="translate(-350.029 -439.961)" fill="#333"/>
        </g>
        <g id="Grupo_89695" data-name="Grupo 89695" transform="translate(13.697 8.434)">
          <path id="Trazado_153499" data-name="Trazado 153499" d="M375.276,424.217H372.1a2.108,2.108,0,1,1,0-4.217h3.173a2.108,2.108,0,1,1,0,4.217Z" transform="translate(-369.994 -420)" fill="#333"/>
        </g>
        <g id="Grupo_89696" data-name="Grupo 89696" transform="translate(0 8.434)">
          <path id="Trazado_153500" data-name="Trazado 153500" d="M323.306,424.217h-3.173a2.108,2.108,0,1,1,0-4.217h3.173a2.108,2.108,0,1,1,0,4.217Z" transform="translate(-318.024 -420)" fill="#333"/>
        </g>
      </g>
      <g id="Grupo_89702" data-name="Grupo 89702" transform="translate(15.282)">
        <g id="Grupo_89698" data-name="Grupo 89698" transform="translate(8.435)">
          <path id="Trazado_153501" data-name="Trazado 153501" d="M92.1,7.39a2.109,2.109,0,0,1-2.109-2.108V2.108a2.109,2.109,0,0,1,4.217,0V5.281A2.109,2.109,0,0,1,92.1,7.39Z" transform="translate(-89.989)" fill="#333"/>
        </g>
        <g id="Grupo_89699" data-name="Grupo 89699" transform="translate(8.435 13.694)">
          <path id="Trazado_153502" data-name="Trazado 153502" d="M92.1,59.351a2.109,2.109,0,0,1-2.109-2.108V54.069a2.109,2.109,0,0,1,4.217,0v3.173A2.109,2.109,0,0,1,92.1,59.351Z" transform="translate(-89.989 -51.961)" fill="#333"/>
        </g>
        <g id="Grupo_89700" data-name="Grupo 89700" transform="translate(13.697 8.434)">
          <path id="Trazado_153503" data-name="Trazado 153503" d="M115.236,36.217h-3.173a2.108,2.108,0,1,1,0-4.217h3.173a2.108,2.108,0,1,1,0,4.217Z" transform="translate(-109.954 -32)" fill="#333"/>
        </g>
        <g id="Grupo_89701" data-name="Grupo 89701" transform="translate(0 8.434)">
          <path id="Trazado_153504" data-name="Trazado 153504" d="M63.266,36.217H60.093a2.108,2.108,0,1,1,0-4.217h3.173a2.108,2.108,0,1,1,0,4.217Z" transform="translate(-57.984 -32)" fill="#333"/>
        </g>
      </g>
      <g id="Grupo_89703" data-name="Grupo 89703" transform="translate(39.56 7.643)">
        <path id="Trazado_153505" data-name="Trazado 153505" d="M175.068,31.06A2.128,2.128,0,0,0,172.816,29l-7.65.527a2.108,2.108,0,1,0,.29,4.207l2.084-.144L150.7,50.635a2.109,2.109,0,0,0,3,2.963l16.746-16.95-.12,1.683a2.109,2.109,0,0,0,4.207.3S175.069,31.125,175.068,31.06Z" transform="translate(-150.103 -29)" fill="#333"/>
        <path id="Trazado_153506" data-name="Trazado 153506" d="M395.1,251.06a2.129,2.129,0,0,0-2.252-2.054l-7.65.527a2.108,2.108,0,1,0,.29,4.207l2.083-.144-16.836,17.04a2.109,2.109,0,0,0,3,2.963l16.746-16.95-.12,1.683a2.109,2.109,0,0,0,4.207.3s.533-7.509.531-7.574Z" transform="translate(-312.145 -191.019)" fill="#333"/>
      </g>
    </g>
  </g>
</svg>
