<svg xmlns="http://www.w3.org/2000/svg" xmlns:xlink="http://www.w3.org/1999/xlink" width="675.54" height="286.788" viewBox="0 0 675.54 286.788">
  <defs>
    <clipPath id="clip-path">
      <rect id="Rectángulo_27075" data-name="Rectángulo 27075" width="675.54" height="286.788" fill="none"/>
    </clipPath>
  </defs>
  <g id="img3" transform="translate(-8766.972 10164.351)">
    <g id="Grupo_91136" data-name="Grupo 91136" transform="translate(8766.972 -10164.351)">
      <g id="Grupo_91136-2" data-name="Grupo 91136" clip-path="url(#clip-path)">
        <path id="Trazado_156602" data-name="Trazado 156602" d="M524.128,33.985C481.441,42.9,399.752,60.351,375.443,68.234a51.1,51.1,0,0,0-5.687,2.2l-3.342-3.1-14.449,3.608L333,77.263,310.43,83.584,300.5,88.1,258.06,95.32l-27.086,9.034-44.242,8.123-50.564,9.029-21.671-.9H97.341L75.67,128.732l-31.6,4.514,11.736,12.642,8.128,10.83,10.835,12.642,3.608,18.057,10.835,12.642,8.128,14.449,22.572,26.185,15.35,22.572,8.682,19.768-5.969-2.612-19.869-15.35-8.123-17.157L95.534,228.053,82.892,210.9l-10.83-22.572L49.485,151.3,36.843,140.468,23.3,111.576,10.663,93.519.728,79.07l11.736-6.321,18.063-.9,27.987-6.321L81.991,58.3l58.691-7.227,41.535-9.929,51.464-3.614,27.086-3.614L299.595,25.8l61.4-9.935,28.893-4.514L454.9.514l15.35,5.42,9.029,9.929,19.864,8.128Z" transform="translate(-0.34 -0.24)" fill="#e2fffe"/>
        <path id="Trazado_156603" data-name="Trazado 156603" d="M524.128,33.985C481.441,42.9,399.752,60.351,375.443,68.234a51.1,51.1,0,0,0-5.687,2.2l-3.342-3.1-14.449,3.608L333,77.263,310.43,83.584,300.5,88.1,258.06,95.32l-27.086,9.034-44.242,8.123-50.564,9.029-21.671-.9H97.341L75.67,128.732l-31.6,4.514,11.736,12.642,8.128,10.83,10.835,12.642,3.608,18.057,10.835,12.642,8.128,14.449,22.572,26.185,15.35,22.572,8.682,19.768-5.969-2.612-19.869-15.35-8.123-17.157L95.534,228.053,82.892,210.9l-10.83-22.572L49.485,151.3,36.843,140.468,23.3,111.576,10.663,93.519.728,79.07l11.736-6.321,18.063-.9,27.987-6.321L81.991,58.3l58.691-7.227,41.535-9.929,51.464-3.614,27.086-3.614L299.595,25.8l61.4-9.935,28.893-4.514L454.9.514l15.35,5.42,9.029,9.929,19.864,8.128Z" transform="translate(-0.34 -0.24)" fill="none" stroke="#0ac4bf" stroke-miterlimit="10" stroke-width="1"/>
        <path id="Trazado_156604" data-name="Trazado 156604" d="M980.607,156.255l-17.156,4.514L928.237,171.6,802.443,211.2l-11.288,3.555L678.126,131.876s-20.594-20.594,4.248-32.112a51.108,51.108,0,0,1,5.687-2.2c24.309-7.883,106-25.332,148.685-34.249l2.1.842,28.9,14.444,30.7,16.256s65.007,22.572,82.164,41.535S980.607,156.255,980.607,156.255Z" transform="translate(-312.958 -29.569)" fill="#fff" stroke="#0ac4bf" stroke-miterlimit="10" stroke-width="1"/>
        <path id="Trazado_156605" data-name="Trazado 156605" d="M516.515,243.981l-9.189,2.894L190.4,345.295l-8.474-3.71-8.682-19.768-15.35-22.572L135.319,273.06l-8.128-14.449-10.835-12.642-3.608-18.057L101.912,215.27l-8.128-10.83L82.048,191.8l31.6-4.514,21.671-8.128h17.157l21.671.9,50.564-9.029,44.242-8.123,27.086-9.034,42.441-7.222,9.929-4.514,22.572-6.321,18.963-6.321,14.449-3.608,3.342,3.1c-24.842,11.518-4.248,32.112-4.248,32.112Z" transform="translate(-38.318 -58.791)" fill="#77e0dd"/>
        <path id="Trazado_156606" data-name="Trazado 156606" d="M516.515,243.981l-9.189,2.894L190.4,345.295l-8.474-3.71-8.682-19.768-15.35-22.572L135.319,273.06l-8.128-14.449-10.835-12.642-3.608-18.057L101.912,215.27l-8.128-10.83L82.048,191.8l31.6-4.514,21.671-8.128h17.157l21.671.9,50.564-9.029,44.242-8.123,27.086-9.034,42.441-7.222,9.929-4.514,22.572-6.321,18.963-6.321,14.449-3.608,3.342,3.1c-24.842,11.518-4.248,32.112-4.248,32.112Z" transform="translate(-38.318 -58.791)" fill="none" stroke="#0ac4bf" stroke-miterlimit="10" stroke-width="1"/>
        <line id="Línea_488" data-name="Línea 488" y1="17.155" x2="7.675" transform="translate(452.301 176.346)" fill="none" stroke="#c1272d" stroke-miterlimit="10" stroke-width="1"/>
        <line id="Línea_489" data-name="Línea 489" y1="23.927" x2="9.932" transform="translate(443.724 170.928)" fill="none" stroke="#c1272d" stroke-miterlimit="10" stroke-width="1"/>
        <line id="Línea_490" data-name="Línea 490" y1="32.706" x2="14.447" transform="translate(432.487 166.815)" fill="none" stroke="#c1272d" stroke-miterlimit="10" stroke-width="1"/>
        <line id="Línea_491" data-name="Línea 491" y1="41.334" x2="18.259" transform="translate(421.452 161.397)" fill="none" stroke="#c1272d" stroke-miterlimit="10" stroke-width="1"/>
        <line id="Línea_492" data-name="Línea 492" y1="51.366" x2="22.072" transform="translate(410.014 155.177)" fill="none" stroke="#c1272d" stroke-miterlimit="10" stroke-width="1"/>
        <line id="Línea_493" data-name="Línea 493" y1="60.797" x2="24.68" transform="translate(399.48 148.957)" fill="none" stroke="#c1272d" stroke-miterlimit="10" stroke-width="1"/>
        <line id="Línea_494" data-name="Línea 494" y1="69.826" x2="30.699" transform="translate(385.936 143.238)" fill="none" stroke="#c1272d" stroke-miterlimit="10" stroke-width="1"/>
        <line id="Línea_495" data-name="Línea 495" y1="80.661" x2="35.816" transform="translate(373.898 137.821)" fill="none" stroke="#c1272d" stroke-miterlimit="10" stroke-width="1"/>
        <line id="Línea_496" data-name="Línea 496" x1="68.622" y2="170.352" transform="translate(218.895 90.267)" fill="none" stroke="#c1272d" stroke-miterlimit="10" stroke-width="1"/>
        <line id="Línea_497" data-name="Línea 497" x1="68.622" y2="170.352" transform="translate(209.565 92.976)" fill="none" stroke="#c1272d" stroke-miterlimit="10" stroke-width="1"/>
        <line id="Línea_498" data-name="Línea 498" x1="68.622" y2="170.352" transform="translate(199.031 96.587)" fill="none" stroke="#c1272d" stroke-miterlimit="10" stroke-width="1"/>
        <line id="Línea_499" data-name="Línea 499" x1="68.622" y2="170.352" transform="translate(189.099 97.49)" fill="none" stroke="#c1272d" stroke-miterlimit="10" stroke-width="1"/>
        <line id="Línea_500" data-name="Línea 500" x1="57.486" y2="142.963" transform="translate(297.45 95.684)" fill="none" stroke="#c1272d" stroke-miterlimit="10" stroke-width="1"/>
        <line id="Línea_501" data-name="Línea 501" x1="53.874" y2="134.235" transform="translate(308.887 102.607)" fill="none" stroke="#c1272d" stroke-miterlimit="10" stroke-width="1"/>
        <line id="Línea_502" data-name="Línea 502" x1="50.865" y2="125.507" transform="translate(319.722 108.024)" fill="none" stroke="#c1272d" stroke-miterlimit="10" stroke-width="1"/>
        <line id="Línea_503" data-name="Línea 503" x1="46.35" y2="115.273" transform="translate(332.062 112.238)" fill="none" stroke="#c1272d" stroke-miterlimit="10" stroke-width="1"/>
        <line id="Línea_504" data-name="Línea 504" x1="43.341" y2="108.652" transform="translate(342.295 117.957)" fill="none" stroke="#c1272d" stroke-miterlimit="10" stroke-width="1"/>
        <line id="Línea_505" data-name="Línea 505" x1="39.428" y2="99.924" transform="translate(353.732 123.976)" fill="none" stroke="#c1272d" stroke-miterlimit="10" stroke-width="1"/>
        <line id="Línea_506" data-name="Línea 506" x1="68.622" y2="170.352" transform="translate(260.731 81.539)" fill="none" stroke="#c1272d" stroke-miterlimit="10" stroke-width="1"/>
        <line id="Línea_507" data-name="Línea 507" x1="68.622" y2="170.352" transform="translate(276.984 75.519)" fill="none" stroke="#c1272d" stroke-miterlimit="10" stroke-width="1"/>
        <line id="Línea_508" data-name="Línea 508" x1="68.622" y2="170.352" transform="translate(285.11 75.218)" fill="none" stroke="#c1272d" stroke-miterlimit="10" stroke-width="1"/>
        <line id="Línea_509" data-name="Línea 509" x1="68.622" y2="170.352" transform="translate(251.401 84.247)" fill="none" stroke="#c1272d" stroke-miterlimit="10" stroke-width="1"/>
        <line id="Línea_510" data-name="Línea 510" x1="68.622" y2="170.352" transform="translate(240.867 87.859)" fill="none" stroke="#c1272d" stroke-miterlimit="10" stroke-width="1"/>
        <line id="Línea_511" data-name="Línea 511" x1="68.622" y2="170.352" transform="translate(230.934 88.762)" fill="none" stroke="#c1272d" stroke-miterlimit="10" stroke-width="1"/>
        <line id="Línea_512" data-name="Línea 512" x1="68.622" y2="170.352" transform="translate(178.264 99.898)" fill="none" stroke="#c1272d" stroke-miterlimit="10" stroke-width="1"/>
        <line id="Línea_513" data-name="Línea 513" x1="68.622" y2="170.352" transform="translate(167.429 103.209)" fill="none" stroke="#c1272d" stroke-miterlimit="10" stroke-width="1"/>
        <line id="Línea_514" data-name="Línea 514" x1="68.622" y2="170.352" transform="translate(156.293 106.219)" fill="none" stroke="#c1272d" stroke-miterlimit="10" stroke-width="1"/>
        <line id="Línea_515" data-name="Línea 515" x1="68.622" y2="170.352" transform="translate(146.661 107.121)" fill="none" stroke="#c1272d" stroke-miterlimit="10" stroke-width="1"/>
        <line id="Línea_516" data-name="Línea 516" x1="61.399" y2="153.798" transform="translate(143.05 110.432)" fill="none" stroke="#c1272d" stroke-miterlimit="10" stroke-width="1"/>
        <line id="Línea_517" data-name="Línea 517" x1="59.292" y2="145.973" transform="translate(136.127 111.937)" fill="none" stroke="#c1272d" stroke-miterlimit="10" stroke-width="1"/>
        <line id="Línea_518" data-name="Línea 518" x1="56.583" y2="136.341" transform="translate(128.603 113.141)" fill="none" stroke="#c1272d" stroke-miterlimit="10" stroke-width="1"/>
        <line id="Línea_519" data-name="Línea 519" x1="50.564" y2="124.303" transform="translate(124.089 114.947)" fill="none" stroke="#c1272d" stroke-miterlimit="10" stroke-width="1"/>
        <line id="Línea_520" data-name="Línea 520" x1="48.156" y2="114.37" transform="translate(117.467 117.054)" fill="none" stroke="#c1272d" stroke-miterlimit="10" stroke-width="1"/>
        <line id="Línea_521" data-name="Línea 521" x1="46.049" y2="108.05" transform="translate(110.846 119.161)" fill="none" stroke="#c1272d" stroke-miterlimit="10" stroke-width="1"/>
        <line id="Línea_522" data-name="Línea 522" x1="42.437" y2="101.729" transform="translate(105.729 119.762)" fill="none" stroke="#c1272d" stroke-miterlimit="10" stroke-width="1"/>
        <line id="Línea_523" data-name="Línea 523" x1="37.02" y2="92.098" transform="translate(102.719 120.966)" fill="none" stroke="#c1272d" stroke-miterlimit="10" stroke-width="1"/>
        <line id="Línea_524" data-name="Línea 524" x1="33.408" y2="85.778" transform="translate(98.205 121.267)" fill="none" stroke="#c1272d" stroke-miterlimit="10" stroke-width="1"/>
        <line id="Línea_525" data-name="Línea 525" x1="28.593" y2="73.438" transform="translate(90.078 120.966)" fill="none" stroke="#c1272d" stroke-miterlimit="10" stroke-width="1"/>
        <line id="Línea_526" data-name="Línea 526" x1="28.593" y2="73.438" transform="translate(95.496 123.976)" fill="none" stroke="#c1272d" stroke-miterlimit="10" stroke-width="1"/>
        <line id="Línea_527" data-name="Línea 527" x1="26.486" y2="67.418" transform="translate(84.059 123.374)" fill="none" stroke="#c1272d" stroke-miterlimit="10" stroke-width="1"/>
        <line id="Línea_528" data-name="Línea 528" x1="22.874" y2="57.486" transform="translate(78.942 123.374)" fill="none" stroke="#c1272d" stroke-miterlimit="10" stroke-width="1"/>
        <line id="Línea_529" data-name="Línea 529" x1="16.854" y2="41.836" transform="translate(75.632 126.384)" fill="none" stroke="#c1272d" stroke-miterlimit="10" stroke-width="1"/>
        <line id="Línea_530" data-name="Línea 530" x1="14.146" y2="34.01" transform="translate(69.612 128.19)" fill="none" stroke="#c1272d" stroke-miterlimit="10" stroke-width="1"/>
        <line id="Línea_531" data-name="Línea 531" x1="12.039" y2="29.194" transform="translate(64.797 128.491)" fill="none" stroke="#c1272d" stroke-miterlimit="10" stroke-width="1"/>
        <line id="Línea_532" data-name="Línea 532" x1="8.728" y2="21.67" transform="translate(60.884 130.899)" fill="none" stroke="#c1272d" stroke-miterlimit="10" stroke-width="1"/>
        <line id="Línea_533" data-name="Línea 533" x1="5.718" y2="14.447" transform="translate(56.67 130.899)" fill="none" stroke="#c1272d" stroke-miterlimit="10" stroke-width="1"/>
        <line id="Línea_534" data-name="Línea 534" x1="4.214" y2="9.932" transform="translate(51.554 131.5)" fill="none" stroke="#c1272d" stroke-miterlimit="10" stroke-width="1"/>
        <line id="Línea_535" data-name="Línea 535" x1="37.321" y2="90.744" transform="translate(364.266 129.544)" fill="none" stroke="#c1272d" stroke-miterlimit="10" stroke-width="1"/>
      </g>
    </g>
    <g id="Grupo_91137" data-name="Grupo 91137" transform="matrix(0.951, -0.309, 0.309, 0.951, 7606.279, -11949.563)">
      <path id="Trazado_153647" data-name="Trazado 153647" d="M-3310.211-9471.323h-82.744v-1h82.744Z" transform="translate(4313.193 11744.323)"/>
      <path id="Polígono_11" data-name="Polígono 11" d="M5,0l5,9H0Z" transform="translate(913.5 2277.5) rotate(-90)" fill="#363636"/>
      <path id="Polígono_19" data-name="Polígono 19" d="M5,0l5,9H0Z" transform="matrix(0.259, 0.966, -0.966, 0.259, 1004.449, 2265.49)" fill="#363636"/>
    </g>
    <path id="Trazado_156607" data-name="Trazado 156607" d="M9253.194-10000.345l-18.379-13.971,145.114-45.193,15.077,8.5" fill="none" stroke="#101010" stroke-width="1"/>
    <path id="Trazado_156613" data-name="Trazado 156613" d="M5,0l5,9H0Z" transform="translate(9260.193 -9997.683) rotate(149)" fill="#363636"/>
    <path id="Trazado_156615" data-name="Trazado 156615" d="M5,0l5,9H0Z" transform="matrix(-0.875, 0.485, -0.485, -0.875, 9403.145, -10045.453)" fill="#363636"/>
    <path id="Trazado_156612" data-name="Trazado 156612" d="M2.828-1.227H8.219V0H1.32V-11.375H2.828ZM14.922,0a3.036,3.036,0,0,1-.2-.891A3.225,3.225,0,0,1,12.313.156a2.984,2.984,0,0,1-2.051-.707,2.287,2.287,0,0,1-.8-1.793,2.39,2.39,0,0,1,1-2.051,4.733,4.733,0,0,1,2.824-.73H14.7v-.664A1.623,1.623,0,0,0,14.242-7a1.821,1.821,0,0,0-1.336-.449,2.107,2.107,0,0,0-1.3.391,1.151,1.151,0,0,0-.523.945H9.633a2,2,0,0,1,.449-1.223A3.066,3.066,0,0,1,11.3-8.266a4.1,4.1,0,0,1,1.691-.344,3.342,3.342,0,0,1,2.289.73,2.635,2.635,0,0,1,.859,2.012v3.891a4.757,4.757,0,0,0,.3,1.852V0Zm-2.4-1.1a2.54,2.54,0,0,0,1.289-.352,2.127,2.127,0,0,0,.883-.914V-4.1H13.563q-2.656,0-2.656,1.555a1.316,1.316,0,0,0,.453,1.063A1.742,1.742,0,0,0,12.523-1.1Zm9.969-6.055a4.331,4.331,0,0,0-.711-.055A1.9,1.9,0,0,0,19.852-6V0H18.406V-8.453h1.406l.023.977a2.251,2.251,0,0,1,2.016-1.133,1.477,1.477,0,0,1,.641.109ZM23.328-4.3a4.968,4.968,0,0,1,.914-3.145,2.923,2.923,0,0,1,2.422-1.168,2.908,2.908,0,0,1,2.414,1.094l.07-.937h1.32V-.2A3.439,3.439,0,0,1,29.5,2.383a3.589,3.589,0,0,1-2.613.945,4.348,4.348,0,0,1-1.789-.391,3.08,3.08,0,0,1-1.336-1.07L24.508,1a2.826,2.826,0,0,0,2.273,1.148,2.214,2.214,0,0,0,1.645-.594,2.269,2.269,0,0,0,.59-1.672V-.844a2.971,2.971,0,0,1-2.367,1,2.887,2.887,0,0,1-2.4-1.2A5.224,5.224,0,0,1,23.328-4.3Zm1.453.164a3.79,3.79,0,0,0,.586,2.246,1.9,1.9,0,0,0,1.641.816,2.117,2.117,0,0,0,2.008-1.242V-6.172a2.142,2.142,0,0,0-1.992-1.211,1.921,1.921,0,0,0-1.648.82A4.128,4.128,0,0,0,24.781-4.133ZM32.266-4.3a4.993,4.993,0,0,1,.488-2.234A3.643,3.643,0,0,1,34.113-8.07,3.7,3.7,0,0,1,36.1-8.609a3.565,3.565,0,0,1,2.793,1.2,4.6,4.6,0,0,1,1.066,3.18v.1a5.036,5.036,0,0,1-.473,2.215A3.589,3.589,0,0,1,38.137-.391a3.743,3.743,0,0,1-2.02.547,3.556,3.556,0,0,1-2.785-1.2A4.575,4.575,0,0,1,32.266-4.2Zm1.453.172a3.616,3.616,0,0,0,.652,2.258,2.088,2.088,0,0,0,1.746.852,2.075,2.075,0,0,0,1.75-.863A3.955,3.955,0,0,0,38.516-4.3a3.61,3.61,0,0,0-.66-2.254A2.1,2.1,0,0,0,36.1-7.422a2.075,2.075,0,0,0-1.727.852A3.925,3.925,0,0,0,33.719-4.133Z" transform="translate(9196.311 -10085.563) rotate(-16)" fill="#12263f"/>
    <path id="Trazado_156614" data-name="Trazado 156614" d="M1.32,0V-11.375H4.531a5.169,5.169,0,0,1,2.625.656A4.438,4.438,0,0,1,8.918-8.852,6.078,6.078,0,0,1,9.547-6.07v.727a6.1,6.1,0,0,1-.621,2.82A4.369,4.369,0,0,1,7.152-.664,5.5,5.5,0,0,1,4.469,0Zm1.5-10.141v8.914H4.4A3.435,3.435,0,0,0,7.1-2.3a4.452,4.452,0,0,0,.965-3.07v-.664a4.522,4.522,0,0,0-.91-3.012,3.24,3.24,0,0,0-2.582-1.09ZM11.2-4.3a4.993,4.993,0,0,1,.488-2.234A3.643,3.643,0,0,1,13.051-8.07a3.7,3.7,0,0,1,1.988-.539,3.565,3.565,0,0,1,2.793,1.2A4.6,4.6,0,0,1,18.9-4.234v.1a5.036,5.036,0,0,1-.473,2.215A3.589,3.589,0,0,1,17.074-.391a3.743,3.743,0,0,1-2.02.547,3.556,3.556,0,0,1-2.785-1.2A4.575,4.575,0,0,1,11.2-4.2Zm1.453.172a3.616,3.616,0,0,0,.652,2.258,2.088,2.088,0,0,0,1.746.852,2.075,2.075,0,0,0,1.75-.863A3.955,3.955,0,0,0,17.453-4.3a3.61,3.61,0,0,0-.66-2.254,2.1,2.1,0,0,0-1.754-.863,2.075,2.075,0,0,0-1.727.852A3.925,3.925,0,0,0,12.656-4.133Zm15.211,0a5.026,5.026,0,0,1-.891,3.113A2.846,2.846,0,0,1,24.586.156,2.947,2.947,0,0,1,22.109-.977L22.039,0H20.711V-12h1.445v4.477A2.93,2.93,0,0,1,24.57-8.609a2.863,2.863,0,0,1,2.418,1.164,5.177,5.177,0,0,1,.879,3.188ZM26.422-4.3a3.906,3.906,0,0,0-.57-2.281,1.888,1.888,0,0,0-1.641-.8,2.122,2.122,0,0,0-2.055,1.328V-2.4a2.181,2.181,0,0,0,2.07,1.328,1.878,1.878,0,0,0,1.617-.8A4.153,4.153,0,0,0,26.422-4.3ZM31.258,0H29.813V-12h1.445Zm5.82.156a3.693,3.693,0,0,1-2.8-1.129A4.19,4.19,0,0,1,33.2-3.992v-.266a5.073,5.073,0,0,1,.48-2.246,3.748,3.748,0,0,1,1.344-1.547A3.378,3.378,0,0,1,36.9-8.609a3.166,3.166,0,0,1,2.563,1.086,4.7,4.7,0,0,1,.914,3.109v.6H34.648a3,3,0,0,0,.73,2.02,2.3,2.3,0,0,0,1.777.77,2.517,2.517,0,0,0,1.3-.312,3.259,3.259,0,0,0,.93-.828l.883.688A3.55,3.55,0,0,1,37.078.156ZM36.9-7.422a1.928,1.928,0,0,0-1.469.637A3.1,3.1,0,0,0,34.7-5H38.93v-.109a2.753,2.753,0,0,0-.594-1.707A1.815,1.815,0,0,0,36.9-7.422ZM43.406-1.18h4.945V0H41.641V-1.062l4.664-6.2H41.711v-1.2h6.406V-7.43Z" transform="translate(9293.311 -10015.989) rotate(-16)" fill="#12263f"/>
    <g id="Grupo_91138" data-name="Grupo 91138">
      <g id="Elipse_6478" data-name="Elipse 6478" transform="translate(9135 -10085)" fill="#fff" stroke="#363636" stroke-width="1">
        <circle cx="3.5" cy="3.5" r="3.5" stroke="none"/>
        <circle cx="3.5" cy="3.5" r="3" fill="none"/>
      </g>
      <path id="Trazado_156608" data-name="Trazado 156608" d="M9141.186-10080.3l5.311,2.493" fill="none" stroke="#363636" stroke-width="1"/>
      <path id="Trazado_156609" data-name="Trazado 156609" d="M9141.186-10080.3l5.311,2.493" transform="translate(-932.561 -19221.84) rotate(90)" fill="none" stroke="#363636" stroke-width="1"/>
      <path id="Trazado_156610" data-name="Trazado 156610" d="M9141.186-10080.3l5.311,2.493" transform="translate(18295.484 -20154.998) rotate(180)" fill="none" stroke="#363636" stroke-width="1"/>
      <path id="Trazado_156611" data-name="Trazado 156611" d="M9141.186-10080.3l5.311,2.493" transform="translate(19228.047 -933.158) rotate(-90)" fill="none" stroke="#363636" stroke-width="1"/>
    </g>
    <g id="Grupo_91139" data-name="Grupo 91139" transform="matrix(0.035, 0.999, -0.999, 0.035, -1103.5, -18903.277)">
      <g id="Elipse_6478-2" data-name="Elipse 6478" transform="translate(9135 -10085)" fill="#fff" stroke="#363636" stroke-width="1">
        <circle cx="3.5" cy="3.5" r="3.5" stroke="none"/>
        <circle cx="3.5" cy="3.5" r="3" fill="none"/>
      </g>
      <path id="Trazado_156608-2" data-name="Trazado 156608" d="M9141.186-10080.3l5.311,2.493" fill="none" stroke="#363636" stroke-width="1"/>
      <path id="Trazado_156609-2" data-name="Trazado 156609" d="M9141.186-10080.3l5.311,2.493" transform="translate(-932.561 -19221.84) rotate(90)" fill="none" stroke="#363636" stroke-width="1"/>
      <path id="Trazado_156610-2" data-name="Trazado 156610" d="M9141.186-10080.3l5.311,2.493" transform="translate(18295.484 -20154.998) rotate(180)" fill="none" stroke="#363636" stroke-width="1"/>
      <path id="Trazado_156611-2" data-name="Trazado 156611" d="M9141.186-10080.3l5.311,2.493" transform="translate(19228.047 -933.158) rotate(-90)" fill="none" stroke="#363636" stroke-width="1"/>
    </g>
    <g id="Grupo_91140" data-name="Grupo 91140" transform="matrix(-0.259, -0.966, 0.966, -0.259, 21332.178, -3795.856)">
      <g id="Elipse_6478-3" data-name="Elipse 6478" transform="translate(9135 -10085)" fill="#fff" stroke="#363636" stroke-width="1">
        <circle cx="3.5" cy="3.5" r="3.5" stroke="none"/>
        <circle cx="3.5" cy="3.5" r="3" fill="none"/>
      </g>
      <path id="Trazado_156608-3" data-name="Trazado 156608" d="M9141.186-10080.3l5.311,2.493" fill="none" stroke="#363636" stroke-width="1"/>
      <path id="Trazado_156609-3" data-name="Trazado 156609" d="M9141.186-10080.3l5.311,2.493" transform="translate(-932.561 -19221.84) rotate(90)" fill="none" stroke="#363636" stroke-width="1"/>
      <path id="Trazado_156610-3" data-name="Trazado 156610" d="M9141.186-10080.3l5.311,2.493" transform="translate(18295.484 -20154.998) rotate(180)" fill="none" stroke="#363636" stroke-width="1"/>
      <path id="Trazado_156611-3" data-name="Trazado 156611" d="M9141.186-10080.3l5.311,2.493" transform="translate(19228.047 -933.158) rotate(-90)" fill="none" stroke="#363636" stroke-width="1"/>
    </g>
    <g id="Grupo_91141" data-name="Grupo 91141" transform="matrix(-0.921, 0.391, -0.391, -0.921, 13853.405, -22913.484)">
      <g id="Elipse_6478-4" data-name="Elipse 6478" transform="translate(9135 -10085)" fill="#fff" stroke="#363636" stroke-width="1">
        <circle cx="3.5" cy="3.5" r="3.5" stroke="none"/>
        <circle cx="3.5" cy="3.5" r="3" fill="none"/>
      </g>
      <path id="Trazado_156608-4" data-name="Trazado 156608" d="M9141.186-10080.3l5.311,2.493" fill="none" stroke="#363636" stroke-width="1"/>
      <path id="Trazado_156609-4" data-name="Trazado 156609" d="M9141.186-10080.3l5.311,2.493" transform="translate(-932.561 -19221.84) rotate(90)" fill="none" stroke="#363636" stroke-width="1"/>
      <path id="Trazado_156610-4" data-name="Trazado 156610" d="M9141.186-10080.3l5.311,2.493" transform="translate(18295.484 -20154.998) rotate(180)" fill="none" stroke="#363636" stroke-width="1"/>
      <path id="Trazado_156611-4" data-name="Trazado 156611" d="M9141.186-10080.3l5.311,2.493" transform="translate(19228.047 -933.158) rotate(-90)" fill="none" stroke="#363636" stroke-width="1"/>
    </g>
  </g>
</svg>
