<svg xmlns="http://www.w3.org/2000/svg" width="907" height="412" viewBox="0 0 907 412">
  <g id="img3" transform="translate(-13175 9274)">
    <rect id="Rectángulo_27143" data-name="Rectángulo 27143" width="229" height="143" transform="translate(13175 -9143)" fill="#bf3976"/>
    <path id="Trazado_156721" data-name="Trazado 156721" d="M4.619,17.489V23H1.4V7.359H7.5A7.059,7.059,0,0,1,10.6,8a4.75,4.75,0,0,1,2.057,1.832,5.107,5.107,0,0,1,.72,2.7A4.491,4.491,0,0,1,11.8,16.163a6.555,6.555,0,0,1-4.356,1.327Zm0-2.61H7.5a2.831,2.831,0,0,0,1.95-.6,2.188,2.188,0,0,0,.671-1.719A2.58,2.58,0,0,0,9.442,10.7a2.528,2.528,0,0,0-1.869-.73H4.619Zm17.295-.591A8.434,8.434,0,0,0,20.8,14.2a2.274,2.274,0,0,0-2.31,1.192V23h-3.1V11.377h2.933l.086,1.386a2.877,2.877,0,0,1,2.589-1.6,3.253,3.253,0,0,1,.967.14Zm.623,2.793A6.893,6.893,0,0,1,23.2,14,4.876,4.876,0,0,1,25.121,11.9a5.594,5.594,0,0,1,2.906-.741,5.293,5.293,0,0,1,3.84,1.439,5.777,5.777,0,0,1,1.66,3.91l.021.795A6.075,6.075,0,0,1,32.055,21.6a5.19,5.19,0,0,1-4.007,1.617A5.216,5.216,0,0,1,24.036,21.6a6.182,6.182,0,0,1-1.5-4.383Zm3.1.22a4.345,4.345,0,0,0,.623,2.534,2.238,2.238,0,0,0,3.545.011,4.754,4.754,0,0,0,.634-2.77,4.3,4.3,0,0,0-.634-2.518,2.06,2.06,0,0,0-1.783-.893,2.027,2.027,0,0,0-1.762.888A4.834,4.834,0,0,0,25.642,17.3Zm14.652,3.41a2.036,2.036,0,0,0,1.4-.473,1.656,1.656,0,0,0,.559-1.257H45.16a3.982,3.982,0,0,1-.645,2.165,4.253,4.253,0,0,1-1.735,1.525,5.43,5.43,0,0,1-2.433.542,5.046,5.046,0,0,1-3.932-1.584,6.27,6.27,0,0,1-1.439-4.377v-.2a6.2,6.2,0,0,1,1.429-4.286,4.987,4.987,0,0,1,3.921-1.6,4.889,4.889,0,0,1,3.5,1.241,4.393,4.393,0,0,1,1.337,3.3H42.249a2.133,2.133,0,0,0-.559-1.474,2.076,2.076,0,0,0-3.056.224,4.583,4.583,0,0,0-.553,2.566v.323a4.641,4.641,0,0,0,.548,2.582A1.893,1.893,0,0,0,40.294,20.712Zm11.988,2.5a5.706,5.706,0,0,1-4.163-1.568,5.575,5.575,0,0,1-1.606-4.179v-.3a7.021,7.021,0,0,1,.677-3.131,4.967,4.967,0,0,1,1.917-2.127,5.382,5.382,0,0,1,2.831-.747,4.824,4.824,0,0,1,3.754,1.5,6.111,6.111,0,0,1,1.37,4.265V18.2h-7.4a2.884,2.884,0,0,0,.908,1.826,2.744,2.744,0,0,0,1.917.688,3.351,3.351,0,0,0,2.8-1.3l1.525,1.708a4.66,4.66,0,0,1-1.891,1.542A6.2,6.2,0,0,1,52.282,23.215Zm-.354-9.55a1.94,1.94,0,0,0-1.5.626,3.241,3.241,0,0,0-.736,1.791h4.318v-.248a2.311,2.311,0,0,0-.559-1.6A2,2,0,0,0,51.928,13.665Zm13.191,6.123a1,1,0,0,0-.564-.9,6.406,6.406,0,0,0-1.81-.585q-4.146-.87-4.146-3.523A3.194,3.194,0,0,1,59.882,12.2a5.178,5.178,0,0,1,3.357-1.037,5.573,5.573,0,0,1,3.54,1.042,3.284,3.284,0,0,1,1.327,2.707H65a1.5,1.5,0,0,0-.43-1.1,1.818,1.818,0,0,0-1.343-.435,1.858,1.858,0,0,0-1.214.354,1.119,1.119,0,0,0-.43.9.957.957,0,0,0,.489.833,5.028,5.028,0,0,0,1.649.548,13.468,13.468,0,0,1,1.955.521,3.212,3.212,0,0,1,2.46,3.126,3.032,3.032,0,0,1-1.364,2.573,5.885,5.885,0,0,1-3.523.983,6.147,6.147,0,0,1-2.594-.521,4.353,4.353,0,0,1-1.778-1.429,3.32,3.32,0,0,1-.645-1.96h2.943a1.621,1.621,0,0,0,.612,1.268,2.429,2.429,0,0,0,1.525.44,2.248,2.248,0,0,0,1.348-.338A1.053,1.053,0,0,0,65.119,19.788Zm4.533-2.707A6.893,6.893,0,0,1,70.318,14,4.876,4.876,0,0,1,72.236,11.9a5.594,5.594,0,0,1,2.906-.741,5.293,5.293,0,0,1,3.84,1.439,5.777,5.777,0,0,1,1.66,3.91l.021.795A6.075,6.075,0,0,1,79.17,21.6a5.787,5.787,0,0,1-8.019.005,6.182,6.182,0,0,1-1.5-4.383Zm3.1.22a4.345,4.345,0,0,0,.623,2.534,2.238,2.238,0,0,0,3.545.011,4.754,4.754,0,0,0,.634-2.77,4.3,4.3,0,0,0-.634-2.518,2.06,2.06,0,0,0-1.783-.893,2.027,2.027,0,0,0-1.762.888A4.834,4.834,0,0,0,72.757,17.3Zm14.813-.2a7,7,0,0,1,1.219-4.329,3.956,3.956,0,0,1,3.335-1.611,3.56,3.56,0,0,1,2.8,1.268V6.5h3.115V23h-2.8l-.15-1.235a3.653,3.653,0,0,1-2.986,1.45A3.945,3.945,0,0,1,88.811,21.6,7.23,7.23,0,0,1,87.57,17.1Zm3.1.231a4.588,4.588,0,0,0,.569,2.507,1.855,1.855,0,0,0,1.654.871,2.077,2.077,0,0,0,2.03-1.216V14.9a2.048,2.048,0,0,0-2.009-1.216Q90.675,13.687,90.675,17.334ZM105.8,23.215a5.706,5.706,0,0,1-4.163-1.568,5.575,5.575,0,0,1-1.606-4.179v-.3a7.021,7.021,0,0,1,.677-3.131,4.967,4.967,0,0,1,1.917-2.127,5.382,5.382,0,0,1,2.831-.747,4.824,4.824,0,0,1,3.754,1.5,6.111,6.111,0,0,1,1.37,4.265V18.2h-7.4a2.884,2.884,0,0,0,.908,1.826,2.744,2.744,0,0,0,1.917.688,3.351,3.351,0,0,0,2.8-1.3l1.525,1.708a4.66,4.66,0,0,1-1.891,1.542A6.2,6.2,0,0,1,105.8,23.215Zm-.354-9.55a1.94,1.94,0,0,0-1.5.626,3.241,3.241,0,0,0-.736,1.791h4.318v-.248a2.311,2.311,0,0,0-.559-1.6A2,2,0,0,0,105.445,13.665ZM6.026,45.712a2.036,2.036,0,0,0,1.4-.473,1.656,1.656,0,0,0,.559-1.257h2.911a3.982,3.982,0,0,1-.645,2.165,4.253,4.253,0,0,1-1.735,1.525,5.43,5.43,0,0,1-2.433.542A5.046,5.046,0,0,1,2.148,46.63,6.27,6.27,0,0,1,.709,42.253v-.2a6.2,6.2,0,0,1,1.429-4.286,4.987,4.987,0,0,1,3.921-1.6,4.889,4.889,0,0,1,3.5,1.241,4.393,4.393,0,0,1,1.337,3.3H7.981a2.133,2.133,0,0,0-.559-1.474A1.862,1.862,0,0,0,6,38.665a1.87,1.87,0,0,0-1.638.791,4.583,4.583,0,0,0-.553,2.566v.323a4.641,4.641,0,0,0,.548,2.582A1.893,1.893,0,0,0,6.026,45.712Zm6.155-3.631A6.893,6.893,0,0,1,12.848,39,4.876,4.876,0,0,1,14.765,36.9a5.594,5.594,0,0,1,2.906-.741,5.293,5.293,0,0,1,3.84,1.439,5.777,5.777,0,0,1,1.66,3.91l.021.795A6.075,6.075,0,0,1,21.7,46.6a5.19,5.19,0,0,1-4.007,1.617A5.216,5.216,0,0,1,13.68,46.6a6.182,6.182,0,0,1-1.5-4.383Zm3.1.22a4.345,4.345,0,0,0,.623,2.534,2.055,2.055,0,0,0,1.783.877,2.06,2.06,0,0,0,1.762-.866,4.754,4.754,0,0,0,.634-2.77,4.3,4.3,0,0,0-.634-2.518,2.06,2.06,0,0,0-1.783-.893,2.027,2.027,0,0,0-1.762.888A4.834,4.834,0,0,0,15.286,42.3Zm16.35-3.013a8.434,8.434,0,0,0-1.117-.086,2.274,2.274,0,0,0-2.31,1.192V48H25.1V36.377h2.933l.086,1.386a2.877,2.877,0,0,1,2.589-1.6,3.253,3.253,0,0,1,.967.14Zm5.747-5.769v2.857H39.37v2.277H37.383v5.8a1.385,1.385,0,0,0,.247.924,1.241,1.241,0,0,0,.945.279,4.951,4.951,0,0,0,.913-.075v2.353a6.391,6.391,0,0,1-1.88.279q-3.266,0-3.33-3.3V38.654h-1.7V36.377h1.7V33.52Zm9.066,14.7a5.706,5.706,0,0,1-4.163-1.568,5.575,5.575,0,0,1-1.606-4.179v-.3a7.021,7.021,0,0,1,.677-3.131,4.967,4.967,0,0,1,1.917-2.127,5.382,5.382,0,0,1,2.831-.747,4.824,4.824,0,0,1,3.754,1.5,6.111,6.111,0,0,1,1.37,4.265V43.2h-7.4a2.884,2.884,0,0,0,.908,1.826,2.744,2.744,0,0,0,1.917.688,3.351,3.351,0,0,0,2.8-1.3l1.525,1.708a4.66,4.66,0,0,1-1.891,1.542A6.2,6.2,0,0,1,46.449,48.215Zm-.354-9.55a1.94,1.94,0,0,0-1.5.626,3.241,3.241,0,0,0-.736,1.791h4.318v-.248a2.311,2.311,0,0,0-.559-1.6A2,2,0,0,0,46.095,38.665Zm15.286-2.288.1,1.3a4.085,4.085,0,0,1,3.341-1.515A3.1,3.1,0,0,1,67.9,37.935a3.991,3.991,0,0,1,3.491-1.772,3.467,3.467,0,0,1,2.814,1.1,5.061,5.061,0,0,1,.924,3.314V48H72.016V40.588a2.213,2.213,0,0,0-.387-1.445,1.714,1.714,0,0,0-1.364-.457,1.938,1.938,0,0,0-1.934,1.332L68.342,48h-3.1V40.6a2.186,2.186,0,0,0-.4-1.461,1.731,1.731,0,0,0-1.354-.451,2.012,2.012,0,0,0-1.912,1.1V48h-3.1V36.377ZM84.251,48a3.448,3.448,0,0,1-.312-1.042,3.756,3.756,0,0,1-2.933,1.257,4.127,4.127,0,0,1-2.831-.988,3.178,3.178,0,0,1-1.123-2.492,3.285,3.285,0,0,1,1.37-2.836,6.758,6.758,0,0,1,3.958-1h1.429v-.666a1.915,1.915,0,0,0-.414-1.289,1.627,1.627,0,0,0-1.305-.483,1.85,1.85,0,0,0-1.23.376,1.277,1.277,0,0,0-.446,1.031h-3.1A3.118,3.118,0,0,1,77.935,38,4.118,4.118,0,0,1,79.7,36.651a6.42,6.42,0,0,1,2.557-.489,5.073,5.073,0,0,1,3.411,1.08,3.777,3.777,0,0,1,1.262,3.035v5.038a5.557,5.557,0,0,0,.462,2.5V48Zm-2.567-2.159a2.674,2.674,0,0,0,1.268-.306,2.011,2.011,0,0,0,.859-.822v-2H82.65q-2.331,0-2.481,1.611l-.011.183a1.243,1.243,0,0,0,.408.956A1.586,1.586,0,0,0,81.684,45.841Zm10.484-9.464.1,1.343a4.058,4.058,0,0,1,3.341-1.558,3.372,3.372,0,0,1,2.75,1.085,5.062,5.062,0,0,1,.924,3.244V48h-3.1V40.566a2.014,2.014,0,0,0-.43-1.434,1.924,1.924,0,0,0-1.429-.446A2.136,2.136,0,0,0,92.351,39.8V48h-3.1V36.377Zm16.425,10.441a3.893,3.893,0,0,1-3.18,1.4,3.672,3.672,0,0,1-2.852-1.074,4.586,4.586,0,0,1-1-3.147V36.377h3.1v7.518q0,1.817,1.654,1.817a2.242,2.242,0,0,0,2.17-1.1V36.377H111.6V48h-2.922ZM120.678,48a3.448,3.448,0,0,1-.312-1.042,3.756,3.756,0,0,1-2.933,1.257,4.127,4.127,0,0,1-2.831-.988,3.178,3.178,0,0,1-1.123-2.492,3.285,3.285,0,0,1,1.37-2.836,6.758,6.758,0,0,1,3.958-1h1.429v-.666a1.915,1.915,0,0,0-.414-1.289,1.627,1.627,0,0,0-1.305-.483,1.85,1.85,0,0,0-1.23.376,1.277,1.277,0,0,0-.446,1.031h-3.1A3.118,3.118,0,0,1,114.361,38a4.118,4.118,0,0,1,1.762-1.348,6.42,6.42,0,0,1,2.557-.489,5.073,5.073,0,0,1,3.411,1.08,3.777,3.777,0,0,1,1.262,3.035v5.038a5.557,5.557,0,0,0,.462,2.5V48Zm-2.567-2.159a2.674,2.674,0,0,0,1.268-.306,2.011,2.011,0,0,0,.859-.822v-2h-1.16q-2.331,0-2.481,1.611l-.011.183a1.243,1.243,0,0,0,.408.956A1.586,1.586,0,0,0,118.11,45.841ZM129.014,48H125.9V31.5h3.115Z" transform="translate(13216 -9101)" fill="#fff"/>
    <rect id="Rectángulo_27144" data-name="Rectángulo 27144" width="208" height="85" transform="translate(13289 -9274)" fill="#65ccc9"/>
    <path id="Trazado_156713" data-name="Trazado 156713" d="M3.989-4.759V0H1.206V-13.508h5.27a6.1,6.1,0,0,1,2.677.557,4.1,4.1,0,0,1,1.777,1.582,4.411,4.411,0,0,1,.622,2.333,3.878,3.878,0,0,1-1.359,3.131A5.661,5.661,0,0,1,6.429-4.759Zm0-2.254H6.476a2.445,2.445,0,0,0,1.684-.52,1.89,1.89,0,0,0,.58-1.484,2.228,2.228,0,0,0-.584-1.6,2.183,2.183,0,0,0-1.614-.631H3.989Zm14.937-.51a7.284,7.284,0,0,0-.965-.074,1.964,1.964,0,0,0-1.995,1.03V0H13.285V-10.038h2.533l.074,1.2a2.484,2.484,0,0,1,2.236-1.382,2.809,2.809,0,0,1,.835.121Zm.538,2.412a5.953,5.953,0,0,1,.575-2.663A4.211,4.211,0,0,1,21.7-9.583a4.831,4.831,0,0,1,2.51-.64A4.571,4.571,0,0,1,27.521-8.98,4.989,4.989,0,0,1,28.955-5.6l.019.687a5.247,5.247,0,0,1-1.29,3.706,4.482,4.482,0,0,1-3.46,1.4,4.5,4.5,0,0,1-3.465-1.392,5.339,5.339,0,0,1-1.294-3.785Zm2.681.19a3.752,3.752,0,0,0,.538,2.188,1.775,1.775,0,0,0,1.54.757,1.779,1.779,0,0,0,1.521-.748,4.106,4.106,0,0,0,.547-2.393,3.715,3.715,0,0,0-.547-2.174,1.779,1.779,0,0,0-1.54-.771,1.75,1.75,0,0,0-1.521.767A4.175,4.175,0,0,0,22.145-4.921Zm8.09-.172a5.883,5.883,0,0,1,1.1-3.72,3.562,3.562,0,0,1,2.964-1.41,3.124,3.124,0,0,1,2.57,1.132l.111-.946H39.41v9.7a4.29,4.29,0,0,1-.6,2.292,3.843,3.843,0,0,1-1.684,1.484,5.919,5.919,0,0,1-2.542.51,5.5,5.5,0,0,1-2.152-.441,3.82,3.82,0,0,1-1.586-1.136L32.035.742a3.141,3.141,0,0,0,2.431,1.123,2.3,2.3,0,0,0,1.661-.571A2.14,2.14,0,0,0,36.72-.325V-.863A3.1,3.1,0,0,1,34.28.186a3.553,3.553,0,0,1-2.927-1.415,5.881,5.881,0,0,1-1.118-3.753Zm2.681.2a3.663,3.663,0,0,0,.547,2.142,1.741,1.741,0,0,0,1.5.776A1.862,1.862,0,0,0,36.72-2.9V-7.124a1.857,1.857,0,0,0-1.735-.92,1.752,1.752,0,0,0-1.517.79A4.129,4.129,0,0,0,32.916-4.894ZM47.11-7.524a7.284,7.284,0,0,0-.965-.074,1.964,1.964,0,0,0-1.995,1.03V0H41.47V-10.038H44l.074,1.2a2.484,2.484,0,0,1,2.236-1.382,2.809,2.809,0,0,1,.835.121ZM53.938,0a2.977,2.977,0,0,1-.269-.9A3.244,3.244,0,0,1,51.137.186a3.564,3.564,0,0,1-2.445-.854,2.745,2.745,0,0,1-.969-2.152A2.837,2.837,0,0,1,48.906-5.27a5.837,5.837,0,0,1,3.419-.863h1.234v-.575A1.654,1.654,0,0,0,53.2-7.821a1.405,1.405,0,0,0-1.127-.417,1.6,1.6,0,0,0-1.062.325,1.1,1.1,0,0,0-.385.891H47.945a2.693,2.693,0,0,1,.538-1.614A3.557,3.557,0,0,1,50-9.8a5.545,5.545,0,0,1,2.208-.422,4.381,4.381,0,0,1,2.946.932,3.262,3.262,0,0,1,1.09,2.621v4.351a4.8,4.8,0,0,0,.4,2.162V0ZM51.721-1.865a2.309,2.309,0,0,0,1.095-.264,1.737,1.737,0,0,0,.742-.71V-4.564h-1q-2.013,0-2.143,1.392l-.009.158a1.073,1.073,0,0,0,.353.826A1.369,1.369,0,0,0,51.721-1.865Zm9.1-8.173.083,1.123a3.528,3.528,0,0,1,2.885-1.308,2.677,2.677,0,0,1,2.663,1.531,3.447,3.447,0,0,1,3.015-1.531,2.994,2.994,0,0,1,2.431.951,4.371,4.371,0,0,1,.8,2.862V0h-2.69V-6.4a1.911,1.911,0,0,0-.334-1.248,1.48,1.48,0,0,0-1.178-.394,1.673,1.673,0,0,0-1.67,1.15L66.834,0H64.153V-6.392a1.888,1.888,0,0,0-.343-1.262,1.5,1.5,0,0,0-1.169-.39,1.738,1.738,0,0,0-1.651.946V0H58.308V-10.038ZM80.574,0A2.977,2.977,0,0,1,80.3-.9,3.244,3.244,0,0,1,77.772.186a3.564,3.564,0,0,1-2.445-.854,2.745,2.745,0,0,1-.969-2.152A2.837,2.837,0,0,1,75.541-5.27a5.837,5.837,0,0,1,3.419-.863h1.234v-.575a1.654,1.654,0,0,0-.357-1.113,1.405,1.405,0,0,0-1.127-.417,1.6,1.6,0,0,0-1.062.325,1.1,1.1,0,0,0-.385.891H74.581a2.693,2.693,0,0,1,.538-1.614A3.557,3.557,0,0,1,76.64-9.8a5.545,5.545,0,0,1,2.208-.422,4.381,4.381,0,0,1,2.946.932,3.262,3.262,0,0,1,1.09,2.621v4.351a4.8,4.8,0,0,0,.4,2.162V0ZM78.356-1.865a2.309,2.309,0,0,0,1.095-.264,1.737,1.737,0,0,0,.742-.71V-4.564h-1q-2.013,0-2.143,1.392l-.009.158a1.073,1.073,0,0,0,.353.826A1.369,1.369,0,0,0,78.356-1.865Zm10.762-.111a1.759,1.759,0,0,0,1.206-.408,1.43,1.43,0,0,0,.482-1.085h2.514A3.439,3.439,0,0,1,92.764-1.6a3.673,3.673,0,0,1-1.5,1.317,4.689,4.689,0,0,1-2.1.469,4.358,4.358,0,0,1-3.4-1.368,5.415,5.415,0,0,1-1.243-3.781V-5.14a5.353,5.353,0,0,1,1.234-3.7,4.307,4.307,0,0,1,3.386-1.382,4.222,4.222,0,0,1,3.02,1.072A3.794,3.794,0,0,1,93.321-6.3H90.807a1.842,1.842,0,0,0-.482-1.273,1.608,1.608,0,0,0-1.225-.49,1.615,1.615,0,0,0-1.415.683,3.958,3.958,0,0,0-.478,2.216v.279a4.008,4.008,0,0,0,.473,2.23A1.635,1.635,0,0,0,89.118-1.976ZM97.681,0h-2.69V-10.038h2.69ZM94.833-12.636a1.32,1.32,0,0,1,.4-.993,1.516,1.516,0,0,1,1.1-.39,1.52,1.52,0,0,1,1.095.39,1.313,1.313,0,0,1,.408.993,1.316,1.316,0,0,1-.413,1,1.523,1.523,0,0,1-1.09.39,1.523,1.523,0,0,1-1.09-.39A1.316,1.316,0,0,1,94.833-12.636Zm4.639,7.524a5.953,5.953,0,0,1,.575-2.663A4.211,4.211,0,0,1,101.7-9.583a4.831,4.831,0,0,1,2.51-.64,4.571,4.571,0,0,1,3.317,1.243A4.989,4.989,0,0,1,108.962-5.6l.019.687a5.247,5.247,0,0,1-1.29,3.706,4.482,4.482,0,0,1-3.46,1.4,4.5,4.5,0,0,1-3.465-1.392,5.339,5.339,0,0,1-1.294-3.785Zm2.681.19a3.752,3.752,0,0,0,.538,2.188,1.775,1.775,0,0,0,1.54.757,1.779,1.779,0,0,0,1.521-.748,4.106,4.106,0,0,0,.547-2.393,3.715,3.715,0,0,0-.547-2.174,1.779,1.779,0,0,0-1.54-.771,1.75,1.75,0,0,0-1.521.767A4.175,4.175,0,0,0,102.153-4.921Zm2.588-9.329h2.922l-2.57,2.876h-2.18Zm8.359,4.212.083,1.16a3.5,3.5,0,0,1,2.885-1.345,2.913,2.913,0,0,1,2.375.937,4.372,4.372,0,0,1,.8,2.8V0h-2.681V-6.42a1.739,1.739,0,0,0-.371-1.239,1.661,1.661,0,0,0-1.234-.385,1.844,1.844,0,0,0-1.7.965V0h-2.681V-10.038Z" transform="translate(13336 -9225)" fill="#fff"/>
    <rect id="Rectángulo_27145" data-name="Rectángulo 27145" width="219" height="85" transform="translate(13576 -9274)" fill="#65ccc9"/>
    <path id="Trazado_156714" data-name="Trazado 156714" d="M1.206,0V-13.508H5.938a6.213,6.213,0,0,1,3.729.942,3.22,3.22,0,0,1,1.271,2.76,3.052,3.052,0,0,1-.51,1.749A2.947,2.947,0,0,1,9.008-6.949,2.852,2.852,0,0,1,10.646-5.9a3.1,3.1,0,0,1,.6,1.93A3.565,3.565,0,0,1,10-1.021,5.6,5.6,0,0,1,6.457,0ZM3.989-5.882v3.646H6.374A2.3,2.3,0,0,0,7.909-2.7,1.607,1.607,0,0,0,8.461-4a1.7,1.7,0,0,0-1.92-1.883Zm0-1.967h2.06q2.106-.037,2.106-1.679a1.552,1.552,0,0,0-.533-1.322,2.806,2.806,0,0,0-1.684-.4H3.989Zm8.749,2.737a5.953,5.953,0,0,1,.575-2.663,4.211,4.211,0,0,1,1.656-1.809,4.831,4.831,0,0,1,2.51-.64A4.571,4.571,0,0,1,20.8-8.98,4.989,4.989,0,0,1,22.229-5.6l.019.687a5.247,5.247,0,0,1-1.29,3.706A4.482,4.482,0,0,1,17.5.186a4.5,4.5,0,0,1-3.465-1.392,5.339,5.339,0,0,1-1.294-3.785Zm2.681.19a3.752,3.752,0,0,0,.538,2.188,1.775,1.775,0,0,0,1.54.757,1.779,1.779,0,0,0,1.521-.748,4.106,4.106,0,0,0,.547-2.393,3.715,3.715,0,0,0-.547-2.174,1.779,1.779,0,0,0-1.54-.771,1.75,1.75,0,0,0-1.521.767A4.175,4.175,0,0,0,15.419-4.921Zm8.062-.172a6.049,6.049,0,0,1,1.053-3.739,3.417,3.417,0,0,1,2.881-1.392,3.074,3.074,0,0,1,2.421,1.095V-14.25h2.69V0H30.1l-.13-1.067A3.155,3.155,0,0,1,27.4.186a3.407,3.407,0,0,1-2.844-1.4A6.244,6.244,0,0,1,23.481-5.093Zm2.681.2a3.963,3.963,0,0,0,.492,2.165,1.6,1.6,0,0,0,1.429.753,1.794,1.794,0,0,0,1.753-1.05V-6.994A1.768,1.768,0,0,0,28.1-8.043Q26.162-8.043,26.162-4.894ZM39.225.186A4.928,4.928,0,0,1,35.63-1.169a4.815,4.815,0,0,1-1.387-3.609v-.26a6.064,6.064,0,0,1,.584-2.7,4.289,4.289,0,0,1,1.656-1.837,4.648,4.648,0,0,1,2.445-.645,4.166,4.166,0,0,1,3.242,1.3,5.278,5.278,0,0,1,1.183,3.683v1.095H36.961a2.491,2.491,0,0,0,.784,1.577,2.37,2.37,0,0,0,1.656.594A2.894,2.894,0,0,0,41.822-3.1L43.14-1.624A4.025,4.025,0,0,1,41.507-.292,5.357,5.357,0,0,1,39.225.186Zm-.306-8.248a1.675,1.675,0,0,0-1.294.54,2.8,2.8,0,0,0-.635,1.547h3.729v-.214a2,2,0,0,0-.482-1.384A1.729,1.729,0,0,0,38.918-8.062Zm5.566,2.969a5.883,5.883,0,0,1,1.1-3.72,3.562,3.562,0,0,1,2.964-1.41,3.124,3.124,0,0,1,2.57,1.132l.111-.946H53.66v9.7a4.29,4.29,0,0,1-.6,2.292,3.843,3.843,0,0,1-1.684,1.484,5.919,5.919,0,0,1-2.542.51,5.5,5.5,0,0,1-2.152-.441A3.82,3.82,0,0,1,45.1,2.375L46.285.742a3.141,3.141,0,0,0,2.431,1.123,2.3,2.3,0,0,0,1.661-.571A2.14,2.14,0,0,0,50.97-.325V-.863A3.1,3.1,0,0,1,48.53.186,3.553,3.553,0,0,1,45.6-1.229a5.881,5.881,0,0,1-1.118-3.753Zm2.681.2a3.663,3.663,0,0,0,.547,2.142,1.741,1.741,0,0,0,1.5.776A1.862,1.862,0,0,0,50.97-2.9V-7.124a1.857,1.857,0,0,0-1.735-.92,1.752,1.752,0,0,0-1.517.79A4.129,4.129,0,0,0,47.166-4.894ZM61.537,0a2.977,2.977,0,0,1-.269-.9A3.244,3.244,0,0,1,58.735.186,3.564,3.564,0,0,1,56.29-.668a2.745,2.745,0,0,1-.969-2.152A2.837,2.837,0,0,1,56.5-5.27a5.837,5.837,0,0,1,3.419-.863h1.234v-.575A1.654,1.654,0,0,0,60.8-7.821a1.405,1.405,0,0,0-1.127-.417,1.6,1.6,0,0,0-1.062.325,1.1,1.1,0,0,0-.385.891H55.543a2.693,2.693,0,0,1,.538-1.614A3.557,3.557,0,0,1,57.6-9.8a5.545,5.545,0,0,1,2.208-.422,4.381,4.381,0,0,1,2.946.932,3.262,3.262,0,0,1,1.09,2.621v4.351a4.8,4.8,0,0,0,.4,2.162V0ZM59.319-1.865a2.309,2.309,0,0,0,1.095-.264,1.737,1.737,0,0,0,.742-.71V-4.564h-1q-2.013,0-2.143,1.392L58-3.015a1.073,1.073,0,0,0,.353.826A1.369,1.369,0,0,0,59.319-1.865ZM3.859,25H1.169V14.962h2.69ZM1.011,12.364a1.32,1.32,0,0,1,.4-.993,1.516,1.516,0,0,1,1.1-.39,1.52,1.52,0,0,1,1.095.39,1.417,1.417,0,0,1,0,1.995,1.523,1.523,0,0,1-1.09.39,1.523,1.523,0,0,1-1.09-.39A1.316,1.316,0,0,1,1.011,12.364Zm7.524,2.6.083,1.16A3.5,3.5,0,0,1,11.5,14.776a2.913,2.913,0,0,1,2.375.937,4.372,4.372,0,0,1,.8,2.8V25H12V18.58a1.739,1.739,0,0,0-.371-1.239,1.661,1.661,0,0,0-1.234-.385,1.844,1.844,0,0,0-1.7.965V25H6.012V14.962Zm11.931,6.763,1.865-6.763h2.8L21.746,25H19.186L15.8,14.962h2.8Zm10.465,3.46a4.928,4.928,0,0,1-3.595-1.354,4.815,4.815,0,0,1-1.387-3.609v-.26a6.064,6.064,0,0,1,.584-2.7,4.289,4.289,0,0,1,1.656-1.837,4.648,4.648,0,0,1,2.445-.645,4.166,4.166,0,0,1,3.242,1.3,5.278,5.278,0,0,1,1.183,3.683v1.095H28.667a2.491,2.491,0,0,0,.784,1.577,2.37,2.37,0,0,0,1.656.594A2.894,2.894,0,0,0,33.528,21.9l1.317,1.475a4.025,4.025,0,0,1-1.633,1.331A5.357,5.357,0,0,1,30.931,25.186Zm-.306-8.248a1.675,1.675,0,0,0-1.294.54,2.8,2.8,0,0,0-.635,1.547h3.729v-.214a2,2,0,0,0-.482-1.384A1.729,1.729,0,0,0,30.625,16.938Zm8.424-1.976.083,1.16a3.5,3.5,0,0,1,2.885-1.345,2.913,2.913,0,0,1,2.375.937,4.372,4.372,0,0,1,.8,2.8V25H42.509V18.58a1.739,1.739,0,0,0-.371-1.239,1.661,1.661,0,0,0-1.234-.385,1.844,1.844,0,0,0-1.7.965V25H36.525V14.962Zm11.383-2.468v2.468h1.716v1.967H50.432v5.01a1.2,1.2,0,0,0,.213.8,1.072,1.072,0,0,0,.816.241,4.276,4.276,0,0,0,.789-.065v2.032a5.52,5.52,0,0,1-1.624.241,2.56,2.56,0,0,1-2.876-2.848V16.929H46.285V14.962H47.75V12.494ZM59.458,25a2.977,2.977,0,0,1-.269-.9,3.244,3.244,0,0,1-2.533,1.085,3.564,3.564,0,0,1-2.445-.854,2.745,2.745,0,0,1-.969-2.152,2.837,2.837,0,0,1,1.183-2.449,5.837,5.837,0,0,1,3.419-.863h1.234v-.575a1.654,1.654,0,0,0-.357-1.113,1.405,1.405,0,0,0-1.127-.417,1.6,1.6,0,0,0-1.062.325,1.1,1.1,0,0,0-.385.891H53.465A2.693,2.693,0,0,1,54,16.363,3.557,3.557,0,0,1,55.525,15.2a5.545,5.545,0,0,1,2.208-.422,4.381,4.381,0,0,1,2.946.932,3.262,3.262,0,0,1,1.09,2.621v4.351a4.8,4.8,0,0,0,.4,2.162V25Zm-2.217-1.865a2.309,2.309,0,0,0,1.095-.264,1.737,1.737,0,0,0,.742-.71V20.436h-1q-2.013,0-2.143,1.392l-.009.158a1.073,1.073,0,0,0,.353.826A1.369,1.369,0,0,0,57.241,23.135Zm12.228-5.659A7.284,7.284,0,0,0,68.5,17.4a1.964,1.964,0,0,0-1.995,1.03V25H63.828V14.962h2.533l.074,1.2a2.484,2.484,0,0,1,2.236-1.382,2.809,2.809,0,0,1,.835.121ZM73.588,25H70.9V14.962h2.69ZM70.74,12.364a1.32,1.32,0,0,1,.4-.993,1.739,1.739,0,0,1,2.194,0,1.417,1.417,0,0,1,0,1.995,1.72,1.72,0,0,1-2.18,0A1.316,1.316,0,0,1,70.74,12.364Zm4.639,7.524a5.953,5.953,0,0,1,.575-2.663,4.211,4.211,0,0,1,1.656-1.809,4.831,4.831,0,0,1,2.51-.64,4.571,4.571,0,0,1,3.317,1.243A4.989,4.989,0,0,1,84.869,19.4l.019.687a5.247,5.247,0,0,1-1.29,3.706,5,5,0,0,1-6.926,0,5.339,5.339,0,0,1-1.294-3.785Zm2.681.19a3.752,3.752,0,0,0,.538,2.188,1.933,1.933,0,0,0,3.062.009,4.106,4.106,0,0,0,.547-2.393,3.715,3.715,0,0,0-.547-2.174,1.779,1.779,0,0,0-1.54-.771A1.75,1.75,0,0,0,78.6,17.7,4.175,4.175,0,0,0,78.06,20.079Zm17.831,5.107A4.928,4.928,0,0,1,92.3,23.831a4.815,4.815,0,0,1-1.387-3.609v-.26a6.064,6.064,0,0,1,.584-2.7,4.289,4.289,0,0,1,1.656-1.837,4.648,4.648,0,0,1,2.445-.645,4.166,4.166,0,0,1,3.242,1.3,5.278,5.278,0,0,1,1.183,3.683v1.095H93.627a2.491,2.491,0,0,0,.784,1.577,2.37,2.37,0,0,0,1.656.594A2.894,2.894,0,0,0,98.488,21.9l1.317,1.475a4.025,4.025,0,0,1-1.633,1.331A5.357,5.357,0,0,1,95.891,25.186Zm-.306-8.248a1.675,1.675,0,0,0-1.294.54,2.8,2.8,0,0,0-.635,1.547h3.729v-.214a2,2,0,0,0-.482-1.384A1.729,1.729,0,0,0,95.584,16.938Zm8.424-1.976.083,1.16a3.5,3.5,0,0,1,2.885-1.345,2.913,2.913,0,0,1,2.375.937,4.372,4.372,0,0,1,.8,2.8V25h-2.681V18.58a1.739,1.739,0,0,0-.371-1.239,1.661,1.661,0,0,0-1.234-.385,1.844,1.844,0,0,0-1.7.965V25h-2.681V14.962Zm21.941,5.112a6.02,6.02,0,0,1-1.053,3.716,3.376,3.376,0,0,1-2.844,1.4,3.127,3.127,0,0,1-2.458-1.058v4.731h-2.681v-13.9H119.4l.093.983a3.151,3.151,0,0,1,2.542-1.169,3.4,3.4,0,0,1,2.885,1.373,6.183,6.183,0,0,1,1.03,3.785Zm-2.681-.195a3.951,3.951,0,0,0-.5-2.162,1.617,1.617,0,0,0-1.443-.761,1.756,1.756,0,0,0-1.735.965v4.11a1.786,1.786,0,0,0,1.753.993Q123.268,23.024,123.268,19.879Zm9.982-2.4a7.284,7.284,0,0,0-.965-.074,1.964,1.964,0,0,0-1.995,1.03V25H127.61V14.962h2.533l.074,1.2a2.484,2.484,0,0,1,2.236-1.382,2.809,2.809,0,0,1,.835.121Zm.538,2.412a5.953,5.953,0,0,1,.575-2.663,4.211,4.211,0,0,1,1.656-1.809,4.831,4.831,0,0,1,2.51-.64,4.571,4.571,0,0,1,3.317,1.243,4.989,4.989,0,0,1,1.433,3.377l.019.687a5.247,5.247,0,0,1-1.29,3.706,5,5,0,0,1-6.926,0,5.339,5.339,0,0,1-1.294-3.785Zm2.681.19a3.752,3.752,0,0,0,.538,2.188,1.933,1.933,0,0,0,3.062.009,4.106,4.106,0,0,0,.547-2.393,3.715,3.715,0,0,0-.547-2.174,1.779,1.779,0,0,0-1.54-.771,1.75,1.75,0,0,0-1.521.767A4.175,4.175,0,0,0,136.47,20.079Zm12.654,2.945a1.759,1.759,0,0,0,1.206-.408,1.43,1.43,0,0,0,.482-1.085h2.514a3.439,3.439,0,0,1-.557,1.869,3.673,3.673,0,0,1-1.5,1.317,4.689,4.689,0,0,1-2.1.469,4.358,4.358,0,0,1-3.4-1.368,5.415,5.415,0,0,1-1.243-3.781V19.86a5.353,5.353,0,0,1,1.234-3.7,4.307,4.307,0,0,1,3.386-1.382,4.222,4.222,0,0,1,3.02,1.072,3.794,3.794,0,0,1,1.155,2.853h-2.514a1.842,1.842,0,0,0-.482-1.273,1.793,1.793,0,0,0-2.639.193,3.958,3.958,0,0,0-.478,2.216v.279a4.008,4.008,0,0,0,.473,2.23A1.635,1.635,0,0,0,149.124,23.024Zm10.354,2.162a4.928,4.928,0,0,1-3.595-1.354,4.815,4.815,0,0,1-1.387-3.609v-.26a6.064,6.064,0,0,1,.584-2.7,4.289,4.289,0,0,1,1.656-1.837,4.648,4.648,0,0,1,2.445-.645,4.166,4.166,0,0,1,3.242,1.3,5.278,5.278,0,0,1,1.183,3.683v1.095h-6.392A2.491,2.491,0,0,0,158,22.43a2.37,2.37,0,0,0,1.656.594,2.894,2.894,0,0,0,2.421-1.123l1.317,1.475a4.025,4.025,0,0,1-1.633,1.331A5.357,5.357,0,0,1,159.478,25.186Zm-.306-8.248a1.675,1.675,0,0,0-1.294.54,2.8,2.8,0,0,0-.635,1.547h3.729v-.214a2,2,0,0,0-.482-1.384A1.729,1.729,0,0,0,159.171,16.938Zm11.393,5.288a.864.864,0,0,0-.487-.775,5.533,5.533,0,0,0-1.563-.506q-3.581-.751-3.581-3.043a2.758,2.758,0,0,1,1.109-2.231,4.472,4.472,0,0,1,2.9-.9,4.813,4.813,0,0,1,3.057.9,2.836,2.836,0,0,1,1.146,2.338h-2.681a1.3,1.3,0,0,0-.371-.951,1.57,1.57,0,0,0-1.16-.376,1.6,1.6,0,0,0-1.048.306.966.966,0,0,0-.371.779.826.826,0,0,0,.422.719,4.342,4.342,0,0,0,1.424.473,11.632,11.632,0,0,1,1.688.45,2.774,2.774,0,0,1,2.125,2.7,2.618,2.618,0,0,1-1.178,2.222,5.083,5.083,0,0,1-3.043.849,5.309,5.309,0,0,1-2.24-.45,3.759,3.759,0,0,1-1.535-1.234,2.867,2.867,0,0,1-.557-1.693h2.542a1.4,1.4,0,0,0,.529,1.095,2.1,2.1,0,0,0,1.317.38,1.941,1.941,0,0,0,1.164-.292A.909.909,0,0,0,170.564,22.226Zm3.915-2.338a5.953,5.953,0,0,1,.575-2.663,4.211,4.211,0,0,1,1.656-1.809,4.831,4.831,0,0,1,2.51-.64,4.571,4.571,0,0,1,3.317,1.243A4.989,4.989,0,0,1,183.97,19.4l.019.687a5.247,5.247,0,0,1-1.29,3.706,5,5,0,0,1-6.926,0,5.339,5.339,0,0,1-1.294-3.785Zm2.681.19a3.752,3.752,0,0,0,.538,2.188,1.933,1.933,0,0,0,3.062.009,4.106,4.106,0,0,0,.547-2.393,3.715,3.715,0,0,0-.547-2.174,1.779,1.779,0,0,0-1.54-.771,1.75,1.75,0,0,0-1.521.767A4.175,4.175,0,0,0,177.16,20.079Z" transform="translate(13592 -9237)" fill="#fff"/>
    <rect id="Rectángulo_27146" data-name="Rectángulo 27146" width="208" height="85" transform="translate(13869 -9274)" fill="#65ccc9"/>
    <path id="Trazado_156715" data-name="Trazado 156715" d="M9.333-5.854H3.989v3.618h6.271V0H1.206V-13.508h9.036v2.254H3.989v3.219H9.333ZM15.54-7.042l1.688-3h2.867L17.237-5.121,20.215,0H17.339L15.549-3.154,13.768,0H10.882L13.86-5.121l-2.848-4.917h2.876Zm9.055-5.464v2.468h1.716v1.967H24.594v5.01a1.2,1.2,0,0,0,.213.8,1.072,1.072,0,0,0,.816.241,4.276,4.276,0,0,0,.789-.065V-.056a5.52,5.52,0,0,1-1.624.241,2.56,2.56,0,0,1-2.876-2.848V-8.071H20.447v-1.967h1.466v-2.468ZM32.424.186a4.928,4.928,0,0,1-3.595-1.354,4.815,4.815,0,0,1-1.387-3.609v-.26a6.064,6.064,0,0,1,.584-2.7,4.289,4.289,0,0,1,1.656-1.837,4.648,4.648,0,0,1,2.445-.645,4.166,4.166,0,0,1,3.242,1.3,5.278,5.278,0,0,1,1.183,3.683v1.095H30.161a2.491,2.491,0,0,0,.784,1.577,2.37,2.37,0,0,0,1.656.594A2.894,2.894,0,0,0,35.022-3.1l1.317,1.475A4.025,4.025,0,0,1,34.707-.292,5.357,5.357,0,0,1,32.424.186Zm-.306-8.248a1.675,1.675,0,0,0-1.294.54,2.8,2.8,0,0,0-.635,1.547h3.729v-.214a2,2,0,0,0-.482-1.384A1.729,1.729,0,0,0,32.118-8.062Zm8.424-1.976.083,1.16a3.5,3.5,0,0,1,2.885-1.345,2.913,2.913,0,0,1,2.375.937,4.372,4.372,0,0,1,.8,2.8V0H44V-6.42a1.739,1.739,0,0,0-.371-1.239A1.661,1.661,0,0,0,42.4-8.043a1.844,1.844,0,0,0-1.7.965V0H38.019V-10.038ZM48.3-5.093a6.049,6.049,0,0,1,1.053-3.739,3.417,3.417,0,0,1,2.881-1.392,3.074,3.074,0,0,1,2.421,1.095V-14.25h2.69V0H54.922l-.13-1.067A3.155,3.155,0,0,1,52.213.186a3.407,3.407,0,0,1-2.844-1.4A6.244,6.244,0,0,1,48.3-5.093Zm2.681.2a3.963,3.963,0,0,0,.492,2.165,1.6,1.6,0,0,0,1.429.753,1.794,1.794,0,0,0,1.753-1.05V-6.994a1.768,1.768,0,0,0-1.735-1.05Q50.979-8.043,50.979-4.894ZM62.251,0h-2.69V-10.038h2.69ZM59.4-12.636a1.32,1.32,0,0,1,.4-.993,1.516,1.516,0,0,1,1.1-.39,1.52,1.52,0,0,1,1.095.39,1.313,1.313,0,0,1,.408.993,1.316,1.316,0,0,1-.413,1,1.523,1.523,0,0,1-1.09.39,1.523,1.523,0,0,1-1.09-.39A1.316,1.316,0,0,1,59.4-12.636Zm4.639,7.542a6.049,6.049,0,0,1,1.053-3.739,3.417,3.417,0,0,1,2.881-1.392A3.074,3.074,0,0,1,70.4-9.129V-14.25h2.69V0H70.666l-.13-1.067A3.155,3.155,0,0,1,67.957.186a3.407,3.407,0,0,1-2.844-1.4A6.244,6.244,0,0,1,64.042-5.093Zm2.681.2a3.963,3.963,0,0,0,.492,2.165,1.6,1.6,0,0,0,1.429.753A1.794,1.794,0,0,0,70.4-3.026V-6.994a1.768,1.768,0,0,0-1.735-1.05Q66.723-8.043,66.723-4.894Zm8.025-.218a5.953,5.953,0,0,1,.575-2.663,4.211,4.211,0,0,1,1.656-1.809,4.831,4.831,0,0,1,2.51-.64A4.571,4.571,0,0,1,82.8-8.98,4.989,4.989,0,0,1,84.238-5.6l.019.687a5.247,5.247,0,0,1-1.29,3.706,4.482,4.482,0,0,1-3.46,1.4,4.5,4.5,0,0,1-3.465-1.392,5.339,5.339,0,0,1-1.294-3.785Zm2.681.19a3.752,3.752,0,0,0,.538,2.188,1.775,1.775,0,0,0,1.54.757,1.779,1.779,0,0,0,1.521-.748,4.106,4.106,0,0,0,.547-2.393,3.715,3.715,0,0,0-.547-2.174,1.779,1.779,0,0,0-1.54-.771,1.75,1.75,0,0,0-1.521.767A4.175,4.175,0,0,0,77.429-4.921ZM3.544,14.962l.083,1.123a3.528,3.528,0,0,1,2.885-1.308,2.677,2.677,0,0,1,2.663,1.531,3.447,3.447,0,0,1,3.015-1.531,2.994,2.994,0,0,1,2.431.951,4.371,4.371,0,0,1,.8,2.862V25h-2.69V18.6a1.911,1.911,0,0,0-.334-1.248,1.48,1.48,0,0,0-1.178-.394,1.673,1.673,0,0,0-1.67,1.15L9.556,25H6.875V18.608a1.888,1.888,0,0,0-.343-1.262,1.5,1.5,0,0,0-1.169-.39,1.738,1.738,0,0,0-1.651.946V25H1.03V14.962ZM23.3,25a2.977,2.977,0,0,1-.269-.9,3.244,3.244,0,0,1-2.533,1.085,3.564,3.564,0,0,1-2.445-.854,2.745,2.745,0,0,1-.969-2.152,2.837,2.837,0,0,1,1.183-2.449,5.837,5.837,0,0,1,3.419-.863h1.234v-.575a1.654,1.654,0,0,0-.357-1.113,1.405,1.405,0,0,0-1.127-.417,1.6,1.6,0,0,0-1.062.325,1.1,1.1,0,0,0-.385.891H17.3a2.693,2.693,0,0,1,.538-1.614A3.557,3.557,0,0,1,19.362,15.2a5.545,5.545,0,0,1,2.208-.422,4.381,4.381,0,0,1,2.946.932,3.262,3.262,0,0,1,1.09,2.621v4.351a4.8,4.8,0,0,0,.4,2.162V25Zm-2.217-1.865a2.309,2.309,0,0,0,1.095-.264,1.737,1.737,0,0,0,.742-.71V20.436h-1q-2.013,0-2.143,1.392l-.009.158a1.073,1.073,0,0,0,.353.826A1.369,1.369,0,0,0,21.078,23.135Zm9.055-8.173.083,1.16A3.5,3.5,0,0,1,33.1,14.776a2.913,2.913,0,0,1,2.375.937,4.372,4.372,0,0,1,.8,2.8V25H33.593V18.58a1.739,1.739,0,0,0-.371-1.239,1.661,1.661,0,0,0-1.234-.385,1.844,1.844,0,0,0-1.7.965V25H27.609V14.962Zm14.185,9.018a3.362,3.362,0,0,1-2.746,1.206,3.171,3.171,0,0,1-2.463-.928,3.96,3.96,0,0,1-.867-2.718V14.962h2.681v6.492q0,1.57,1.429,1.57a1.936,1.936,0,0,0,1.874-.947V14.962h2.69V25H44.392ZM54.755,25a2.977,2.977,0,0,1-.269-.9,3.244,3.244,0,0,1-2.533,1.085,3.564,3.564,0,0,1-2.445-.854,2.745,2.745,0,0,1-.969-2.152,2.837,2.837,0,0,1,1.183-2.449,5.837,5.837,0,0,1,3.419-.863h1.234v-.575a1.654,1.654,0,0,0-.357-1.113,1.405,1.405,0,0,0-1.127-.417,1.6,1.6,0,0,0-1.062.325,1.1,1.1,0,0,0-.385.891H48.762a2.693,2.693,0,0,1,.538-1.614A3.557,3.557,0,0,1,50.821,15.2a5.545,5.545,0,0,1,2.208-.422,4.381,4.381,0,0,1,2.946.932,3.262,3.262,0,0,1,1.09,2.621v4.351a4.8,4.8,0,0,0,.4,2.162V25Zm-2.217-1.865a2.309,2.309,0,0,0,1.095-.264,1.737,1.737,0,0,0,.742-.71V20.436h-1q-2.013,0-2.143,1.392l-.009.158a1.073,1.073,0,0,0,.353.826A1.369,1.369,0,0,0,52.538,23.135ZM61.954,25h-2.69V10.75h2.69Z" transform="translate(13885 -9237)" fill="#fff"/>
    <rect id="Rectángulo_27147" data-name="Rectángulo 27147" width="208" height="85" transform="translate(13874 -9121)" fill="#65ccc9"/>
    <path id="Trazado_156716" data-name="Trazado 156716" d="M11.81-4.5A4.78,4.78,0,0,1,10.2-1.067,5.653,5.653,0,0,1,6.374.186,5.083,5.083,0,0,1,2.287-1.563,7.171,7.171,0,0,1,.8-6.364V-7.19a8.1,8.1,0,0,1,.687-3.433A5.145,5.145,0,0,1,3.447-12.9a5.5,5.5,0,0,1,2.964-.793,5.507,5.507,0,0,1,3.767,1.252,5.137,5.137,0,0,1,1.651,3.516H9.045a2.821,2.821,0,0,0-.728-1.9,2.7,2.7,0,0,0-1.906-.589,2.365,2.365,0,0,0-2.083,1,5.589,5.589,0,0,0-.71,3.094V-6.3a5.982,5.982,0,0,0,.663,3.2A2.321,2.321,0,0,0,6.374-2.087,2.748,2.748,0,0,0,8.3-2.677,2.661,2.661,0,0,0,9.027-4.5Zm1.234-.612a5.953,5.953,0,0,1,.575-2.663,4.211,4.211,0,0,1,1.656-1.809,4.831,4.831,0,0,1,2.51-.64A4.571,4.571,0,0,1,21.1-8.98,4.989,4.989,0,0,1,22.535-5.6l.019.687a5.247,5.247,0,0,1-1.29,3.706A4.482,4.482,0,0,1,17.8.186a4.5,4.5,0,0,1-3.465-1.392,5.339,5.339,0,0,1-1.294-3.785Zm2.681.19a3.752,3.752,0,0,0,.538,2.188,1.775,1.775,0,0,0,1.54.757,1.779,1.779,0,0,0,1.521-.748,4.106,4.106,0,0,0,.547-2.393,3.715,3.715,0,0,0-.547-2.174,1.779,1.779,0,0,0-1.54-.771,1.75,1.75,0,0,0-1.521.767A4.175,4.175,0,0,0,15.725-4.921Zm14.12-2.6A7.284,7.284,0,0,0,28.88-7.6a1.964,1.964,0,0,0-1.995,1.03V0H24.2V-10.038h2.533l.074,1.2a2.484,2.484,0,0,1,2.236-1.382,2.809,2.809,0,0,1,.835.121Zm4.963-4.982v2.468h1.716v1.967H34.809v5.01a1.2,1.2,0,0,0,.213.8,1.072,1.072,0,0,0,.816.241,4.276,4.276,0,0,0,.789-.065V-.056A5.52,5.52,0,0,1,35,.186a2.56,2.56,0,0,1-2.876-2.848V-8.071H30.662v-1.967h1.466v-2.468ZM42.639.186a4.928,4.928,0,0,1-3.595-1.354,4.815,4.815,0,0,1-1.387-3.609v-.26a6.064,6.064,0,0,1,.584-2.7A4.289,4.289,0,0,1,39.9-9.579a4.648,4.648,0,0,1,2.445-.645,4.166,4.166,0,0,1,3.242,1.3,5.278,5.278,0,0,1,1.183,3.683v1.095H40.375a2.491,2.491,0,0,0,.784,1.577,2.37,2.37,0,0,0,1.656.594A2.894,2.894,0,0,0,45.236-3.1l1.317,1.475A4.025,4.025,0,0,1,44.921-.292,5.357,5.357,0,0,1,42.639.186Zm-.306-8.248a1.675,1.675,0,0,0-1.294.54A2.8,2.8,0,0,0,40.4-5.975h3.729v-.214a2,2,0,0,0-.482-1.384A1.729,1.729,0,0,0,42.333-8.062Zm13.2-1.976.083,1.123A3.528,3.528,0,0,1,58.5-10.224a2.677,2.677,0,0,1,2.663,1.531,3.447,3.447,0,0,1,3.015-1.531,2.994,2.994,0,0,1,2.431.951,4.371,4.371,0,0,1,.8,2.862V0h-2.69V-6.4a1.911,1.911,0,0,0-.334-1.248,1.48,1.48,0,0,0-1.178-.394,1.673,1.673,0,0,0-1.67,1.15L61.546,0H58.865V-6.392a1.888,1.888,0,0,0-.343-1.262,1.5,1.5,0,0,0-1.169-.39A1.738,1.738,0,0,0,55.7-7.1V0H53.02V-10.038ZM75.286,0a2.977,2.977,0,0,1-.269-.9A3.244,3.244,0,0,1,72.484.186a3.564,3.564,0,0,1-2.445-.854A2.745,2.745,0,0,1,69.07-2.82,2.837,2.837,0,0,1,70.253-5.27a5.837,5.837,0,0,1,3.419-.863h1.234v-.575a1.654,1.654,0,0,0-.357-1.113,1.405,1.405,0,0,0-1.127-.417,1.6,1.6,0,0,0-1.062.325,1.1,1.1,0,0,0-.385.891H69.292a2.693,2.693,0,0,1,.538-1.614A3.557,3.557,0,0,1,71.352-9.8a5.545,5.545,0,0,1,2.208-.422,4.381,4.381,0,0,1,2.946.932A3.262,3.262,0,0,1,77.6-6.67v4.351a4.8,4.8,0,0,0,.4,2.162V0ZM73.068-1.865a2.309,2.309,0,0,0,1.095-.264,1.737,1.737,0,0,0,.742-.71V-4.564h-1q-2.013,0-2.143,1.392l-.009.158a1.073,1.073,0,0,0,.353.826A1.369,1.369,0,0,0,73.068-1.865ZM74.089-14.25h2.922l-2.57,2.876h-2.18Zm5.149,9.138a6,6,0,0,1,1.053-3.739,3.443,3.443,0,0,1,2.89-1.373A3.082,3.082,0,0,1,85.75-8.99l.176-1.048h2.356v13.9h-2.69V-.863A3.091,3.091,0,0,1,83.162.186,3.417,3.417,0,0,1,80.3-1.206,6.294,6.294,0,0,1,79.238-5.112Zm2.681.19a3.936,3.936,0,0,0,.506,2.193,1.619,1.619,0,0,0,1.424.753,1.8,1.8,0,0,0,1.744-.985V-7.114a1.788,1.788,0,0,0-1.726-.948,1.638,1.638,0,0,0-1.438.753A4.347,4.347,0,0,0,81.919-4.921ZM96.4-1.021A3.362,3.362,0,0,1,93.655.186a3.171,3.171,0,0,1-2.463-.928,3.96,3.96,0,0,1-.867-2.718v-6.578h2.681v6.492q0,1.57,1.429,1.57a1.936,1.936,0,0,0,1.874-.947v-7.115H99V0H96.475ZM103.851,0h-2.69V-10.038h2.69ZM101-12.636a1.32,1.32,0,0,1,.4-.993,1.516,1.516,0,0,1,1.1-.39,1.52,1.52,0,0,1,1.095.39,1.313,1.313,0,0,1,.408.993,1.316,1.316,0,0,1-.413,1,1.523,1.523,0,0,1-1.09.39,1.523,1.523,0,0,1-1.09-.39A1.316,1.316,0,0,1,101-12.636Zm7.524,2.6.083,1.16a3.5,3.5,0,0,1,2.885-1.345,2.913,2.913,0,0,1,2.375.937,4.372,4.372,0,0,1,.8,2.8V0h-2.681V-6.42a1.739,1.739,0,0,0-.371-1.239,1.661,1.661,0,0,0-1.234-.385,1.844,1.844,0,0,0-1.7.965V0H106V-10.038ZM122.517,0a2.977,2.977,0,0,1-.269-.9A3.244,3.244,0,0,1,119.715.186a3.564,3.564,0,0,1-2.445-.854A2.745,2.745,0,0,1,116.3-2.82a2.837,2.837,0,0,1,1.183-2.449,5.837,5.837,0,0,1,3.419-.863h1.234v-.575a1.654,1.654,0,0,0-.357-1.113,1.405,1.405,0,0,0-1.127-.417,1.6,1.6,0,0,0-1.062.325,1.1,1.1,0,0,0-.385.891h-2.681a2.693,2.693,0,0,1,.538-1.614A3.557,3.557,0,0,1,118.583-9.8a5.545,5.545,0,0,1,2.208-.422,4.381,4.381,0,0,1,2.946.932,3.262,3.262,0,0,1,1.09,2.621v4.351a4.8,4.8,0,0,0,.4,2.162V0ZM120.3-1.865a2.309,2.309,0,0,0,1.095-.264,1.737,1.737,0,0,0,.742-.71V-4.564h-1q-2.013,0-2.143,1.392l-.009.158a1.073,1.073,0,0,0,.353.826A1.369,1.369,0,0,0,120.3-1.865ZM4.787,21.725l1.865-6.763h2.8L6.067,25H3.507L.121,14.962h2.8Zm10.465,3.46a4.928,4.928,0,0,1-3.595-1.354,4.815,4.815,0,0,1-1.387-3.609v-.26a6.064,6.064,0,0,1,.584-2.7,4.289,4.289,0,0,1,1.656-1.837,4.648,4.648,0,0,1,2.445-.645,4.166,4.166,0,0,1,3.242,1.3,5.278,5.278,0,0,1,1.183,3.683v1.095H12.988a2.491,2.491,0,0,0,.784,1.577,2.37,2.37,0,0,0,1.656.594A2.894,2.894,0,0,0,17.85,21.9l1.317,1.475a4.025,4.025,0,0,1-1.633,1.331A5.357,5.357,0,0,1,15.252,25.186Zm-.306-8.248a1.675,1.675,0,0,0-1.294.54,2.8,2.8,0,0,0-.635,1.547h3.729v-.214a2,2,0,0,0-.482-1.384A1.729,1.729,0,0,0,14.946,16.938Zm11.6.538a7.284,7.284,0,0,0-.965-.074,1.964,1.964,0,0,0-1.995,1.03V25H20.9V14.962h2.533l.074,1.2a2.484,2.484,0,0,1,2.236-1.382,2.809,2.809,0,0,1,.835.121Zm4.963-4.982v2.468h1.716v1.967H31.506v5.01a1.2,1.2,0,0,0,.213.8,1.072,1.072,0,0,0,.816.241,4.276,4.276,0,0,0,.789-.065v2.032a5.52,5.52,0,0,1-1.624.241,2.56,2.56,0,0,1-2.876-2.848V16.929H27.359V14.962h1.466V12.494ZM37.545,25h-2.69V14.962h2.69ZM34.7,12.364a1.32,1.32,0,0,1,.4-.993,1.739,1.739,0,0,1,2.194,0,1.417,1.417,0,0,1,0,1.995,1.72,1.72,0,0,1-2.18,0A1.316,1.316,0,0,1,34.7,12.364Zm9.231,10.66a1.759,1.759,0,0,0,1.206-.408,1.43,1.43,0,0,0,.482-1.085h2.514a3.439,3.439,0,0,1-.557,1.869,3.673,3.673,0,0,1-1.5,1.317,4.689,4.689,0,0,1-2.1.469,4.358,4.358,0,0,1-3.4-1.368,5.415,5.415,0,0,1-1.243-3.781V19.86a5.353,5.353,0,0,1,1.234-3.7,4.307,4.307,0,0,1,3.386-1.382,4.222,4.222,0,0,1,3.02,1.072A3.794,3.794,0,0,1,48.131,18.7H45.617a1.842,1.842,0,0,0-.482-1.273,1.793,1.793,0,0,0-2.639.193,3.958,3.958,0,0,0-.478,2.216v.279a4.008,4.008,0,0,0,.473,2.23A1.635,1.635,0,0,0,43.928,23.024ZM55.479,25a2.977,2.977,0,0,1-.269-.9,3.244,3.244,0,0,1-2.533,1.085,3.564,3.564,0,0,1-2.445-.854,2.745,2.745,0,0,1-.969-2.152,2.837,2.837,0,0,1,1.183-2.449,5.837,5.837,0,0,1,3.419-.863H55.1v-.575a1.654,1.654,0,0,0-.357-1.113,1.405,1.405,0,0,0-1.127-.417,1.6,1.6,0,0,0-1.062.325,1.1,1.1,0,0,0-.385.891H49.485a2.693,2.693,0,0,1,.538-1.614A3.557,3.557,0,0,1,51.545,15.2a5.545,5.545,0,0,1,2.208-.422,4.381,4.381,0,0,1,2.946.932,3.262,3.262,0,0,1,1.09,2.621v4.351a4.8,4.8,0,0,0,.4,2.162V25Zm-2.217-1.865a2.309,2.309,0,0,0,1.095-.264,1.737,1.737,0,0,0,.742-.71V20.436h-1q-2.013,0-2.143,1.392l-.009.158a1.073,1.073,0,0,0,.353.826A1.369,1.369,0,0,0,53.261,23.135ZM62.678,25h-2.69V10.75h2.69Z" transform="translate(13890 -9084)" fill="#fff"/>
    <rect id="Rectángulo_27148" data-name="Rectángulo 27148" width="208" height="85" transform="translate(13874 -8947)" fill="#65ccc9"/>
    <path id="Trazado_156717" data-name="Trazado 156717" d="M3.989-2.236H9.9V0H1.206V-13.508H3.989ZM10.9-5.112a5.953,5.953,0,0,1,.575-2.663,4.211,4.211,0,0,1,1.656-1.809,4.831,4.831,0,0,1,2.51-.64A4.571,4.571,0,0,1,18.958-8.98,4.989,4.989,0,0,1,20.392-5.6l.019.687a5.247,5.247,0,0,1-1.29,3.706,4.482,4.482,0,0,1-3.46,1.4A4.5,4.5,0,0,1,12.2-1.206,5.339,5.339,0,0,1,10.9-4.991Zm2.681.19a3.752,3.752,0,0,0,.538,2.188,1.775,1.775,0,0,0,1.54.757,1.779,1.779,0,0,0,1.521-.748,4.106,4.106,0,0,0,.547-2.393,3.715,3.715,0,0,0-.547-2.174,1.779,1.779,0,0,0-1.54-.771A1.75,1.75,0,0,0,14.12-7.3,4.175,4.175,0,0,0,13.582-4.921Zm11.689-7.584v2.468h1.716v1.967H25.271v5.01a1.2,1.2,0,0,0,.213.8,1.072,1.072,0,0,0,.816.241,4.276,4.276,0,0,0,.789-.065V-.056a5.52,5.52,0,0,1-1.624.241A2.56,2.56,0,0,1,22.59-2.663V-8.071H21.125v-1.967H22.59v-2.468ZM33.1.186a4.928,4.928,0,0,1-3.595-1.354A4.815,4.815,0,0,1,28.12-4.778v-.26a6.064,6.064,0,0,1,.584-2.7A4.289,4.289,0,0,1,30.36-9.579a4.648,4.648,0,0,1,2.445-.645,4.166,4.166,0,0,1,3.242,1.3A5.278,5.278,0,0,1,37.23-5.242v1.095H30.838a2.491,2.491,0,0,0,.784,1.577,2.37,2.37,0,0,0,1.656.594A2.894,2.894,0,0,0,35.7-3.1l1.317,1.475A4.025,4.025,0,0,1,35.384-.292,5.357,5.357,0,0,1,33.1.186ZM32.8-8.062a1.675,1.675,0,0,0-1.294.54,2.8,2.8,0,0,0-.635,1.547H34.6v-.214a2,2,0,0,0-.482-1.384A1.729,1.729,0,0,0,32.8-8.062Zm5.539,2.95a5.953,5.953,0,0,1,.575-2.663,4.211,4.211,0,0,1,1.656-1.809,4.831,4.831,0,0,1,2.51-.64A4.571,4.571,0,0,1,46.391-8.98,4.989,4.989,0,0,1,47.825-5.6l.019.687a5.247,5.247,0,0,1-1.29,3.706,4.482,4.482,0,0,1-3.46,1.4,4.5,4.5,0,0,1-3.465-1.392,5.339,5.339,0,0,1-1.294-3.785Zm2.681.19a3.752,3.752,0,0,0,.538,2.188,1.775,1.775,0,0,0,1.54.757,1.779,1.779,0,0,0,1.521-.748,4.106,4.106,0,0,0,.547-2.393,3.715,3.715,0,0,0-.547-2.174,1.779,1.779,0,0,0-1.54-.771,1.75,1.75,0,0,0-1.521.767A4.175,4.175,0,0,0,41.015-4.921Z" transform="translate(13890 -8898)" fill="#fff"/>
    <rect id="Rectángulo_27149" data-name="Rectángulo 27149" width="163" height="85" transform="translate(13629 -8947)" fill="#65ccc9"/>
    <path id="Trazado_156718" data-name="Trazado 156718" d="M3.989-4.759V0H1.206V-13.508h5.27a6.1,6.1,0,0,1,2.677.557,4.1,4.1,0,0,1,1.777,1.582,4.411,4.411,0,0,1,.622,2.333,3.878,3.878,0,0,1-1.359,3.131A5.661,5.661,0,0,1,6.429-4.759Zm0-2.254H6.476a2.445,2.445,0,0,0,1.684-.52,1.89,1.89,0,0,0,.58-1.484,2.228,2.228,0,0,0-.584-1.6,2.183,2.183,0,0,0-1.614-.631H3.989ZM19,0a2.977,2.977,0,0,1-.269-.9A3.244,3.244,0,0,1,16.2.186a3.564,3.564,0,0,1-2.445-.854,2.745,2.745,0,0,1-.969-2.152A2.837,2.837,0,0,1,13.967-5.27a5.837,5.837,0,0,1,3.419-.863H18.62v-.575a1.654,1.654,0,0,0-.357-1.113,1.405,1.405,0,0,0-1.127-.417,1.6,1.6,0,0,0-1.062.325,1.1,1.1,0,0,0-.385.891H13.007a2.693,2.693,0,0,1,.538-1.614A3.557,3.557,0,0,1,15.066-9.8a5.545,5.545,0,0,1,2.208-.422,4.381,4.381,0,0,1,2.946.932A3.262,3.262,0,0,1,21.31-6.67v4.351a4.8,4.8,0,0,0,.4,2.162V0ZM16.783-1.865a2.309,2.309,0,0,0,1.095-.264,1.737,1.737,0,0,0,.742-.71V-4.564h-1q-2.013,0-2.143,1.392l-.009.158a1.073,1.073,0,0,0,.353.826A1.369,1.369,0,0,0,16.783-1.865Zm6.2-3.229a5.883,5.883,0,0,1,1.1-3.72,3.562,3.562,0,0,1,2.964-1.41,3.124,3.124,0,0,1,2.57,1.132l.111-.946h2.431v9.7a4.29,4.29,0,0,1-.6,2.292,3.843,3.843,0,0,1-1.684,1.484,5.919,5.919,0,0,1-2.542.51,5.5,5.5,0,0,1-2.152-.441,3.82,3.82,0,0,1-1.586-1.136L24.78.742A3.141,3.141,0,0,0,27.21,1.865a2.3,2.3,0,0,0,1.661-.571,2.14,2.14,0,0,0,.594-1.619V-.863A3.1,3.1,0,0,1,27.025.186,3.553,3.553,0,0,1,24.1-1.229,5.881,5.881,0,0,1,22.98-4.982Zm2.681.2a3.663,3.663,0,0,0,.547,2.142,1.741,1.741,0,0,0,1.5.776,1.862,1.862,0,0,0,1.753-.92V-7.124a1.857,1.857,0,0,0-1.735-.92,1.752,1.752,0,0,0-1.517.79A4.129,4.129,0,0,0,25.661-4.894ZM40.032,0a2.977,2.977,0,0,1-.269-.9A3.244,3.244,0,0,1,37.23.186a3.564,3.564,0,0,1-2.445-.854,2.745,2.745,0,0,1-.969-2.152A2.837,2.837,0,0,1,35-5.27a5.837,5.837,0,0,1,3.419-.863h1.234v-.575a1.654,1.654,0,0,0-.357-1.113,1.405,1.405,0,0,0-1.127-.417,1.6,1.6,0,0,0-1.062.325,1.1,1.1,0,0,0-.385.891H34.039a2.693,2.693,0,0,1,.538-1.614A3.557,3.557,0,0,1,36.1-9.8a5.545,5.545,0,0,1,2.208-.422,4.381,4.381,0,0,1,2.946.932,3.262,3.262,0,0,1,1.09,2.621v4.351a4.8,4.8,0,0,0,.4,2.162V0ZM37.814-1.865a2.309,2.309,0,0,0,1.095-.264,1.737,1.737,0,0,0,.742-.71V-4.564h-1q-2.013,0-2.143,1.392l-.009.158a1.073,1.073,0,0,0,.353.826A1.369,1.369,0,0,0,37.814-1.865ZM50.042-7.524a7.284,7.284,0,0,0-.965-.074,1.964,1.964,0,0,0-1.995,1.03V0H44.4V-10.038h2.533l.074,1.2a2.484,2.484,0,0,1,2.236-1.382,2.809,2.809,0,0,1,.835.121Zm9.231-4.982v2.468h1.716v1.967H59.273v5.01a1.2,1.2,0,0,0,.213.8,1.072,1.072,0,0,0,.816.241,4.276,4.276,0,0,0,.789-.065V-.056a5.52,5.52,0,0,1-1.624.241,2.56,2.56,0,0,1-2.876-2.848V-8.071H55.126v-1.967h1.466v-2.468ZM65.313,0h-2.69V-10.038h2.69ZM62.464-12.636a1.32,1.32,0,0,1,.4-.993,1.516,1.516,0,0,1,1.1-.39,1.52,1.52,0,0,1,1.095.39,1.313,1.313,0,0,1,.408.993,1.316,1.316,0,0,1-.413,1,1.523,1.523,0,0,1-1.09.39,1.523,1.523,0,0,1-1.09-.39A1.316,1.316,0,0,1,62.464-12.636ZM67.1-5.112a6,6,0,0,1,1.053-3.739,3.443,3.443,0,0,1,2.89-1.373,3.082,3.082,0,0,1,2.57,1.234l.176-1.048h2.356v13.9h-2.69V-.863A3.091,3.091,0,0,1,71.027.186,3.417,3.417,0,0,1,68.17-1.206,6.294,6.294,0,0,1,67.1-5.112Zm2.681.19a3.936,3.936,0,0,0,.506,2.193,1.619,1.619,0,0,0,1.424.753,1.8,1.8,0,0,0,1.744-.985V-7.114a1.788,1.788,0,0,0-1.726-.948,1.638,1.638,0,0,0-1.438.753A4.347,4.347,0,0,0,69.784-4.921Zm14.482,3.9A3.362,3.362,0,0,1,81.52.186a3.171,3.171,0,0,1-2.463-.928,3.96,3.96,0,0,1-.867-2.718v-6.578h2.681v6.492q0,1.57,1.429,1.57a1.936,1.936,0,0,0,1.874-.947v-7.115h2.69V0H84.34ZM93.506.186a4.928,4.928,0,0,1-3.595-1.354,4.815,4.815,0,0,1-1.387-3.609v-.26a6.064,6.064,0,0,1,.584-2.7,4.289,4.289,0,0,1,1.656-1.837,4.648,4.648,0,0,1,2.445-.645,4.166,4.166,0,0,1,3.242,1.3,5.278,5.278,0,0,1,1.183,3.683v1.095H91.243a2.491,2.491,0,0,0,.784,1.577,2.37,2.37,0,0,0,1.656.594A2.894,2.894,0,0,0,96.1-3.1l1.317,1.475A4.025,4.025,0,0,1,95.789-.292,5.357,5.357,0,0,1,93.506.186ZM93.2-8.062a1.675,1.675,0,0,0-1.294.54,2.8,2.8,0,0,0-.635,1.547H95v-.214a2,2,0,0,0-.482-1.384A1.729,1.729,0,0,0,93.2-8.062Zm9.166-4.444v2.468h1.716v1.967h-1.716v5.01a1.2,1.2,0,0,0,.213.8,1.072,1.072,0,0,0,.816.241,4.276,4.276,0,0,0,.789-.065V-.056a5.52,5.52,0,0,1-1.624.241,2.56,2.56,0,0,1-2.876-2.848V-8.071H98.219v-1.967h1.466v-2.468ZM110.2.186A4.928,4.928,0,0,1,106.6-1.169a4.815,4.815,0,0,1-1.387-3.609v-.26a6.064,6.064,0,0,1,.584-2.7,4.289,4.289,0,0,1,1.656-1.837,4.648,4.648,0,0,1,2.445-.645,4.166,4.166,0,0,1,3.242,1.3,5.278,5.278,0,0,1,1.183,3.683v1.095h-6.392a2.491,2.491,0,0,0,.784,1.577,2.37,2.37,0,0,0,1.656.594A2.894,2.894,0,0,0,112.794-3.1l1.317,1.475a4.025,4.025,0,0,1-1.633,1.331A5.357,5.357,0,0,1,110.2.186Zm-.306-8.248a1.675,1.675,0,0,0-1.294.54,2.8,2.8,0,0,0-.635,1.547h3.729v-.214a2,2,0,0,0-.482-1.384A1.729,1.729,0,0,0,109.89-8.062Zm11.393,5.288a.864.864,0,0,0-.487-.775,5.533,5.533,0,0,0-1.563-.506q-3.581-.751-3.581-3.043a2.758,2.758,0,0,1,1.109-2.231,4.472,4.472,0,0,1,2.9-.9,4.813,4.813,0,0,1,3.057.9,2.836,2.836,0,0,1,1.146,2.338h-2.681a1.3,1.3,0,0,0-.371-.951,1.57,1.57,0,0,0-1.16-.376,1.6,1.6,0,0,0-1.048.306.966.966,0,0,0-.371.779.826.826,0,0,0,.422.719,4.342,4.342,0,0,0,1.424.473,11.632,11.632,0,0,1,1.688.45,2.774,2.774,0,0,1,2.125,2.7,2.618,2.618,0,0,1-1.178,2.222,5.083,5.083,0,0,1-3.043.849,5.309,5.309,0,0,1-2.24-.45A3.759,3.759,0,0,1,115.893-1.5a2.867,2.867,0,0,1-.557-1.693h2.542a1.4,1.4,0,0,0,.529,1.095,2.1,2.1,0,0,0,1.317.38,1.941,1.941,0,0,0,1.164-.292A.909.909,0,0,0,121.283-2.774Z" transform="translate(13645 -8898)" fill="#fff"/>
    <rect id="Rectángulo_27150" data-name="Rectángulo 27150" width="104" height="85" transform="translate(13445 -8947)" fill="#65ccc9"/>
    <path id="Trazado_156719" data-name="Trazado 156719" d="M8.832-2.783H3.952L3.024,0H.065L5.093-13.508H7.672L12.729,0H9.769ZM4.7-5.038H8.081l-1.7-5.056Zm11.625-5,.083,1.123A3.528,3.528,0,0,1,19.3-10.224a2.677,2.677,0,0,1,2.663,1.531,3.447,3.447,0,0,1,3.015-1.531,2.994,2.994,0,0,1,2.431.951,4.371,4.371,0,0,1,.8,2.862V0h-2.69V-6.4a1.911,1.911,0,0,0-.334-1.248A1.48,1.48,0,0,0,24-8.043a1.673,1.673,0,0,0-1.67,1.15L22.34,0H19.659V-6.392a1.888,1.888,0,0,0-.343-1.262,1.5,1.5,0,0,0-1.169-.39A1.738,1.738,0,0,0,16.5-7.1V0H13.814V-10.038ZM36.08,0a2.977,2.977,0,0,1-.269-.9A3.244,3.244,0,0,1,33.278.186a3.564,3.564,0,0,1-2.445-.854,2.745,2.745,0,0,1-.969-2.152A2.837,2.837,0,0,1,31.047-5.27a5.837,5.837,0,0,1,3.419-.863H35.7v-.575a1.654,1.654,0,0,0-.357-1.113,1.405,1.405,0,0,0-1.127-.417,1.6,1.6,0,0,0-1.062.325,1.1,1.1,0,0,0-.385.891H30.086a2.693,2.693,0,0,1,.538-1.614A3.557,3.557,0,0,1,32.146-9.8a5.545,5.545,0,0,1,2.208-.422,4.381,4.381,0,0,1,2.946.932A3.262,3.262,0,0,1,38.39-6.67v4.351a4.8,4.8,0,0,0,.4,2.162V0ZM33.862-1.865a2.309,2.309,0,0,0,1.095-.264,1.737,1.737,0,0,0,.742-.71V-4.564h-1q-2.013,0-2.143,1.392l-.009.158a1.073,1.073,0,0,0,.353.826A1.369,1.369,0,0,0,33.862-1.865ZM46.09-7.524a7.284,7.284,0,0,0-.965-.074,1.964,1.964,0,0,0-1.995,1.03V0H40.449V-10.038h2.533l.074,1.2a2.484,2.484,0,0,1,2.236-1.382,2.809,2.809,0,0,1,.835.121Zm6.93,0a7.284,7.284,0,0,0-.965-.074,1.964,1.964,0,0,0-1.995,1.03V0H47.379V-10.038h2.533l.074,1.2a2.484,2.484,0,0,1,2.236-1.382,2.809,2.809,0,0,1,.835.121ZM58.93.186a4.928,4.928,0,0,1-3.595-1.354,4.815,4.815,0,0,1-1.387-3.609v-.26a6.064,6.064,0,0,1,.584-2.7,4.289,4.289,0,0,1,1.656-1.837,4.648,4.648,0,0,1,2.445-.645,4.166,4.166,0,0,1,3.242,1.3,5.278,5.278,0,0,1,1.183,3.683v1.095H56.666A2.491,2.491,0,0,0,57.45-2.57a2.37,2.37,0,0,0,1.656.594A2.894,2.894,0,0,0,61.527-3.1l1.317,1.475A4.025,4.025,0,0,1,61.212-.292,5.357,5.357,0,0,1,58.93.186Zm-.306-8.248a1.675,1.675,0,0,0-1.294.54,2.8,2.8,0,0,0-.635,1.547h3.729v-.214a2,2,0,0,0-.482-1.384A1.729,1.729,0,0,0,58.624-8.062Z" transform="translate(13461 -8898)" fill="#fff"/>
    <rect id="Rectángulo_27151" data-name="Rectángulo 27151" width="104" height="85" transform="translate(13266 -8947)" fill="#65ccc9"/>
    <path id="Trazado_156720" data-name="Trazado 156720" d="M9.333-5.854H3.989v3.618h6.271V0H1.206V-13.508h9.036v2.254H3.989v3.219H9.333Zm4.852-4.184.083,1.16a3.5,3.5,0,0,1,2.885-1.345,2.913,2.913,0,0,1,2.375.937,4.372,4.372,0,0,1,.8,2.8V0H17.646V-6.42a1.739,1.739,0,0,0-.371-1.239,1.661,1.661,0,0,0-1.234-.385,1.844,1.844,0,0,0-1.7.965V0H11.662V-10.038ZM26.116-3.275l1.865-6.763h2.8L27.4,0H24.835L21.449-10.038h2.8ZM34.79,0H32.1V-10.038h2.69ZM31.942-12.636a1.32,1.32,0,0,1,.4-.993,1.516,1.516,0,0,1,1.1-.39,1.52,1.52,0,0,1,1.095.39,1.313,1.313,0,0,1,.408.993,1.316,1.316,0,0,1-.413,1,1.523,1.523,0,0,1-1.09.39,1.523,1.523,0,0,1-1.09-.39A1.316,1.316,0,0,1,31.942-12.636Zm4.639,7.524a5.953,5.953,0,0,1,.575-2.663,4.211,4.211,0,0,1,1.656-1.809,4.831,4.831,0,0,1,2.51-.64A4.571,4.571,0,0,1,44.638-8.98,4.989,4.989,0,0,1,46.071-5.6l.019.687A5.247,5.247,0,0,1,44.8-1.211a4.482,4.482,0,0,1-3.46,1.4,4.5,4.5,0,0,1-3.465-1.392,5.339,5.339,0,0,1-1.294-3.785Zm2.681.19A3.752,3.752,0,0,0,39.8-2.733a1.775,1.775,0,0,0,1.54.757,1.779,1.779,0,0,0,1.521-.748,4.106,4.106,0,0,0,.547-2.393,3.715,3.715,0,0,0-.547-2.174,1.779,1.779,0,0,0-1.54-.771A1.75,1.75,0,0,0,39.8-7.3,4.175,4.175,0,0,0,39.262-4.921ZM58.29,0a2.977,2.977,0,0,1-.269-.9A3.244,3.244,0,0,1,55.488.186a3.564,3.564,0,0,1-2.445-.854,2.745,2.745,0,0,1-.969-2.152A2.837,2.837,0,0,1,53.257-5.27a5.837,5.837,0,0,1,3.419-.863h1.234v-.575a1.654,1.654,0,0,0-.357-1.113,1.405,1.405,0,0,0-1.127-.417,1.6,1.6,0,0,0-1.062.325,1.1,1.1,0,0,0-.385.891H52.3a2.693,2.693,0,0,1,.538-1.614A3.557,3.557,0,0,1,54.356-9.8a5.545,5.545,0,0,1,2.208-.422,4.381,4.381,0,0,1,2.946.932A3.262,3.262,0,0,1,60.6-6.67v4.351A4.8,4.8,0,0,0,61-.158V0ZM56.072-1.865a2.309,2.309,0,0,0,1.095-.264,1.737,1.737,0,0,0,.742-.71V-4.564h-1q-2.013,0-2.143,1.392l-.009.158a1.073,1.073,0,0,0,.353.826A1.369,1.369,0,0,0,56.072-1.865ZM65.489,0H62.8V-14.25h2.69ZM11.81,20.5a4.78,4.78,0,0,1-1.61,3.433,5.653,5.653,0,0,1-3.827,1.252,5.083,5.083,0,0,1-4.087-1.749A7.171,7.171,0,0,1,.8,18.636V17.81a8.1,8.1,0,0,1,.687-3.433A5.145,5.145,0,0,1,3.447,12.1a5.5,5.5,0,0,1,2.964-.793,5.507,5.507,0,0,1,3.767,1.252,5.137,5.137,0,0,1,1.651,3.516H9.045a2.821,2.821,0,0,0-.728-1.9,2.7,2.7,0,0,0-1.906-.589,2.365,2.365,0,0,0-2.083,1,5.589,5.589,0,0,0-.71,3.094V18.7a5.982,5.982,0,0,0,.663,3.2,2.321,2.321,0,0,0,2.092,1.011A2.748,2.748,0,0,0,8.3,22.323,2.661,2.661,0,0,0,9.027,20.5ZM13.6,23.683a1.35,1.35,0,0,1,.431-1.039,1.676,1.676,0,0,1,2.171,0,1.35,1.35,0,0,1,.431,1.039,1.331,1.331,0,0,1-.427,1.025,1.7,1.7,0,0,1-2.18,0A1.331,1.331,0,0,1,13.6,23.683ZM22.117,25H19.334V11.492h2.783Z" transform="translate(13282 -8910)" fill="#fff"/>
    <path id="Unión_8" data-name="Unión 8" d="M-11401,11723h-38v-14h38v-9l28,16-28,16Z" transform="translate(24936 -20945)" fill="#0ac4bf"/>
    <path id="Unión_9" data-name="Unión 9" d="M-11401,11723h-38v-14h38v-9l28,16-28,16Z" transform="translate(25234 -20945)" fill="#0ac4bf"/>
    <path id="Unión_10" data-name="Unión 10" d="M-11401,11723h-38v-14h38v-9l28,16-28,16Z" transform="translate(25694 2250) rotate(90)" fill="#0ac4bf"/>
    <path id="Unión_11" data-name="Unión 11" d="M-11401,11723h-38v-14h38v-9l28,16-28,16Z" transform="translate(25694 2403) rotate(90)" fill="#0ac4bf"/>
    <path id="Unión_12" data-name="Unión 12" d="M-11401,11723h-38v-14h38v-9l28,16-28,16Z" transform="translate(2435 2811.001) rotate(180)" fill="#0ac4bf"/>
    <path id="Unión_13" data-name="Unión 13" d="M-11401,11723h-38v-14h38v-9l28,16-28,16Z" transform="translate(2190 2811.001) rotate(180)" fill="#0ac4bf"/>
    <path id="Unión_14" data-name="Unión 14" d="M-11401,11723h-38v-14h38v-9l28,16-28,16Z" transform="translate(2006 2811.001) rotate(180)" fill="#0ac4bf"/>
  </g>
</svg>
