<svg xmlns="http://www.w3.org/2000/svg" width="521" height="363" viewBox="0 0 521 363">
  <g id="img31" transform="translate(-180 -14419)">
    <path id="Trazado_153933" data-name="Trazado 153933" d="M0,0H521V363H0Z" transform="translate(180 14419)" fill="#fff5fa"/>
    <path id="Trazado_153934" data-name="Trazado 153934" d="M0,0H116V111H0Z" transform="translate(215 14479)" fill="#0ac4bf"/>
    <path id="Trazado_153936" data-name="Trazado 153936" d="M0,0H116V68H0Z" transform="translate(343 14522)" fill="#bf3976"/>
    <path id="Trazado_153937" data-name="Trazado 153937" d="M0,0H116V47H0Z" transform="translate(471 14543)" fill="#339ce9"/>
    <path id="Trazado_153935" data-name="Trazado 153935" d="M10.361-13.2,4.473,0H2.578L8.447-12.734H.752v-1.484h9.609Zm2.881,6.074.723-7.09H21.25v1.67H15.5l-.43,3.877a4.588,4.588,0,0,1,2.373-.615A3.923,3.923,0,0,1,20.527-8,5.033,5.033,0,0,1,21.67-4.531a4.858,4.858,0,0,1-1.187,3.462A4.325,4.325,0,0,1,17.168.2,4.494,4.494,0,0,1,14.092-.85,4.171,4.171,0,0,1,12.734-3.74h1.709A2.869,2.869,0,0,0,15.313-1.9a2.7,2.7,0,0,0,1.855.62,2.438,2.438,0,0,0,1.978-.859,3.593,3.593,0,0,0,.718-2.373,3.3,3.3,0,0,0-.776-2.29,2.641,2.641,0,0,0-2.065-.864,2.978,2.978,0,0,0-1.855.518l-.479.391Zm19.775,5.85a2.6,2.6,0,0,0,1.689-.586,2.061,2.061,0,0,0,.8-1.465h1.709A3.276,3.276,0,0,1,36.592-1.6,4.116,4.116,0,0,1,35.054-.293,4.438,4.438,0,0,1,33.018.2a4.353,4.353,0,0,1-3.433-1.44,5.737,5.737,0,0,1-1.274-3.94v-.3a6.361,6.361,0,0,1,.566-2.744A4.314,4.314,0,0,1,30.5-10.1a4.619,4.619,0,0,1,2.5-.664A4.238,4.238,0,0,1,35.962-9.7a3.8,3.8,0,0,1,1.255,2.764H35.508a2.49,2.49,0,0,0-.776-1.685,2.415,2.415,0,0,0-1.724-.659,2.529,2.529,0,0,0-2.134.991,4.655,4.655,0,0,0-.757,2.866v.342a4.562,4.562,0,0,0,.752,2.813A2.541,2.541,0,0,0,33.018-1.279ZM45.771,0a3.8,3.8,0,0,1-.254-1.113A4.031,4.031,0,0,1,42.51.2a3.73,3.73,0,0,1-2.563-.884,2.859,2.859,0,0,1-1-2.241A2.987,2.987,0,0,1,40.2-5.493a5.916,5.916,0,0,1,3.53-.913h1.758v-.83a2.029,2.029,0,0,0-.566-1.509,2.276,2.276,0,0,0-1.67-.562,2.634,2.634,0,0,0-1.621.488,1.439,1.439,0,0,0-.654,1.182H39.16a2.493,2.493,0,0,1,.562-1.528,3.832,3.832,0,0,1,1.523-1.167,5.125,5.125,0,0,1,2.114-.43,4.177,4.177,0,0,1,2.861.913,3.294,3.294,0,0,1,1.074,2.515v4.863a5.946,5.946,0,0,0,.371,2.314V0Zm-3-1.377a3.175,3.175,0,0,0,1.611-.439,2.658,2.658,0,0,0,1.1-1.143V-5.127H44.072q-3.32,0-3.32,1.943a1.645,1.645,0,0,0,.566,1.328A2.177,2.177,0,0,0,42.773-1.377ZM59.053-5.166a6.327,6.327,0,0,1-1.1,3.887A3.537,3.537,0,0,1,54.961.2a3.875,3.875,0,0,1-3.027-1.221V4.063H50.127V-10.566h1.65l.088,1.172a3.722,3.722,0,0,1,3.066-1.367,3.6,3.6,0,0,1,3.013,1.436,6.4,6.4,0,0,1,1.108,3.994Zm-1.807-.205a4.669,4.669,0,0,0-.762-2.822,2.454,2.454,0,0,0-2.09-1.035,2.656,2.656,0,0,0-2.461,1.455v5.049a2.661,2.661,0,0,0,2.48,1.445,2.442,2.442,0,0,0,2.065-1.03A5.1,5.1,0,0,0,57.246-5.371ZM67.871,0a3.8,3.8,0,0,1-.254-1.113A4.031,4.031,0,0,1,64.609.2a3.73,3.73,0,0,1-2.563-.884,2.859,2.859,0,0,1-1-2.241A2.987,2.987,0,0,1,62.3-5.493a5.916,5.916,0,0,1,3.53-.913h1.758v-.83a2.029,2.029,0,0,0-.566-1.509,2.276,2.276,0,0,0-1.67-.562,2.634,2.634,0,0,0-1.621.488,1.439,1.439,0,0,0-.654,1.182H61.26a2.493,2.493,0,0,1,.562-1.528,3.832,3.832,0,0,1,1.523-1.167,5.125,5.125,0,0,1,2.114-.43,4.177,4.177,0,0,1,2.861.913,3.294,3.294,0,0,1,1.074,2.515v4.863a5.946,5.946,0,0,0,.371,2.314V0Zm-3-1.377a3.175,3.175,0,0,0,1.611-.439,2.658,2.658,0,0,0,1.1-1.143V-5.127H66.172q-3.32,0-3.32,1.943a1.645,1.645,0,0,0,.566,1.328A2.177,2.177,0,0,0,64.873-1.377ZM78.379-2.8a1.33,1.33,0,0,0-.552-1.138,5.311,5.311,0,0,0-1.924-.7,9.1,9.1,0,0,1-2.178-.7,3.1,3.1,0,0,1-1.191-.977,2.336,2.336,0,0,1-.386-1.348,2.741,2.741,0,0,1,1.1-2.2,4.291,4.291,0,0,1,2.808-.9,4.415,4.415,0,0,1,2.915.928,2.947,2.947,0,0,1,1.118,2.373H78.271a1.631,1.631,0,0,0-.63-1.279,2.36,2.36,0,0,0-1.587-.537,2.47,2.47,0,0,0-1.543.43,1.353,1.353,0,0,0-.557,1.123,1.1,1.1,0,0,0,.518.986,6.368,6.368,0,0,0,1.87.635,9.744,9.744,0,0,1,2.192.723A3.2,3.2,0,0,1,79.78-4.37a2.485,2.485,0,0,1,.405,1.44A2.7,2.7,0,0,1,79.053-.659,4.752,4.752,0,0,1,76.113.2a5.321,5.321,0,0,1-2.246-.449,3.653,3.653,0,0,1-1.528-1.255,3.025,3.025,0,0,1-.552-1.743h1.807a1.87,1.87,0,0,0,.728,1.44,2.822,2.822,0,0,0,1.792.532,2.913,2.913,0,0,0,1.646-.415A1.275,1.275,0,0,0,78.379-2.8Z" transform="translate(224 14464)" fill="#12263f"/>
    <path id="Trazado_153938" data-name="Trazado 153938" d="M2.012-7.129l.723-7.09H10.02v1.67H4.268l-.43,3.877a4.588,4.588,0,0,1,2.373-.615A3.923,3.923,0,0,1,9.3-8a5.033,5.033,0,0,1,1.143,3.472A4.858,4.858,0,0,1,9.253-1.069,4.325,4.325,0,0,1,5.938.2,4.494,4.494,0,0,1,2.861-.85,4.171,4.171,0,0,1,1.5-3.74H3.213A2.869,2.869,0,0,0,4.082-1.9a2.7,2.7,0,0,0,1.855.62,2.438,2.438,0,0,0,1.978-.859,3.593,3.593,0,0,0,.718-2.373A3.3,3.3,0,0,0,7.856-6.8a2.641,2.641,0,0,0-2.065-.864,2.978,2.978,0,0,0-1.855.518l-.479.391ZM21.328-6.064a8.263,8.263,0,0,1-1.084,4.717A3.855,3.855,0,0,1,16.855.2a3.883,3.883,0,0,1-3.369-1.509A7.843,7.843,0,0,1,12.354-5.82V-8.232a8.079,8.079,0,0,1,1.084-4.658,3.885,3.885,0,0,1,3.4-1.523,3.92,3.92,0,0,1,3.379,1.47,7.8,7.8,0,0,1,1.113,4.536ZM19.521-8.535a6.62,6.62,0,0,0-.645-3.345,2.218,2.218,0,0,0-2.041-1.05,2.189,2.189,0,0,0-2.021,1.045,6.464,6.464,0,0,0-.654,3.213v2.891a6.726,6.726,0,0,0,.669,3.4,2.214,2.214,0,0,0,2.026,1.1,2.184,2.184,0,0,0,1.987-1.035,6.483,6.483,0,0,0,.679-3.262Zm13.5,7.256a2.6,2.6,0,0,0,1.689-.586,2.061,2.061,0,0,0,.8-1.465h1.709A3.276,3.276,0,0,1,36.592-1.6,4.116,4.116,0,0,1,35.054-.293,4.438,4.438,0,0,1,33.018.2a4.353,4.353,0,0,1-3.433-1.44,5.737,5.737,0,0,1-1.274-3.94v-.3a6.361,6.361,0,0,1,.566-2.744A4.314,4.314,0,0,1,30.5-10.1a4.619,4.619,0,0,1,2.5-.664A4.238,4.238,0,0,1,35.962-9.7a3.8,3.8,0,0,1,1.255,2.764H35.508a2.49,2.49,0,0,0-.776-1.685,2.415,2.415,0,0,0-1.724-.659,2.529,2.529,0,0,0-2.134.991,4.655,4.655,0,0,0-.757,2.866v.342a4.562,4.562,0,0,0,.752,2.813A2.541,2.541,0,0,0,33.018-1.279ZM45.771,0a3.8,3.8,0,0,1-.254-1.113A4.031,4.031,0,0,1,42.51.2a3.73,3.73,0,0,1-2.563-.884,2.859,2.859,0,0,1-1-2.241A2.987,2.987,0,0,1,40.2-5.493a5.916,5.916,0,0,1,3.53-.913h1.758v-.83a2.029,2.029,0,0,0-.566-1.509,2.276,2.276,0,0,0-1.67-.562,2.634,2.634,0,0,0-1.621.488,1.439,1.439,0,0,0-.654,1.182H39.16a2.493,2.493,0,0,1,.562-1.528,3.832,3.832,0,0,1,1.523-1.167,5.125,5.125,0,0,1,2.114-.43,4.177,4.177,0,0,1,2.861.913,3.294,3.294,0,0,1,1.074,2.515v4.863a5.946,5.946,0,0,0,.371,2.314V0Zm-3-1.377a3.175,3.175,0,0,0,1.611-.439,2.658,2.658,0,0,0,1.1-1.143V-5.127H44.072q-3.32,0-3.32,1.943a1.645,1.645,0,0,0,.566,1.328A2.177,2.177,0,0,0,42.773-1.377ZM59.053-5.166a6.327,6.327,0,0,1-1.1,3.887A3.537,3.537,0,0,1,54.961.2a3.875,3.875,0,0,1-3.027-1.221V4.063H50.127V-10.566h1.65l.088,1.172a3.722,3.722,0,0,1,3.066-1.367,3.6,3.6,0,0,1,3.013,1.436,6.4,6.4,0,0,1,1.108,3.994Zm-1.807-.205a4.669,4.669,0,0,0-.762-2.822,2.454,2.454,0,0,0-2.09-1.035,2.656,2.656,0,0,0-2.461,1.455v5.049a2.661,2.661,0,0,0,2.48,1.445,2.442,2.442,0,0,0,2.065-1.03A5.1,5.1,0,0,0,57.246-5.371ZM67.871,0a3.8,3.8,0,0,1-.254-1.113A4.031,4.031,0,0,1,64.609.2a3.73,3.73,0,0,1-2.563-.884,2.859,2.859,0,0,1-1-2.241A2.987,2.987,0,0,1,62.3-5.493a5.916,5.916,0,0,1,3.53-.913h1.758v-.83a2.029,2.029,0,0,0-.566-1.509,2.276,2.276,0,0,0-1.67-.562,2.634,2.634,0,0,0-1.621.488,1.439,1.439,0,0,0-.654,1.182H61.26a2.493,2.493,0,0,1,.562-1.528,3.832,3.832,0,0,1,1.523-1.167,5.125,5.125,0,0,1,2.114-.43,4.177,4.177,0,0,1,2.861.913,3.294,3.294,0,0,1,1.074,2.515v4.863a5.946,5.946,0,0,0,.371,2.314V0Zm-3-1.377a3.175,3.175,0,0,0,1.611-.439,2.658,2.658,0,0,0,1.1-1.143V-5.127H66.172q-3.32,0-3.32,1.943a1.645,1.645,0,0,0,.566,1.328A2.177,2.177,0,0,0,64.873-1.377ZM78.379-2.8a1.33,1.33,0,0,0-.552-1.138,5.311,5.311,0,0,0-1.924-.7,9.1,9.1,0,0,1-2.178-.7,3.1,3.1,0,0,1-1.191-.977,2.336,2.336,0,0,1-.386-1.348,2.741,2.741,0,0,1,1.1-2.2,4.291,4.291,0,0,1,2.808-.9,4.415,4.415,0,0,1,2.915.928,2.947,2.947,0,0,1,1.118,2.373H78.271a1.631,1.631,0,0,0-.63-1.279,2.36,2.36,0,0,0-1.587-.537,2.47,2.47,0,0,0-1.543.43,1.353,1.353,0,0,0-.557,1.123,1.1,1.1,0,0,0,.518.986,6.368,6.368,0,0,0,1.87.635,9.744,9.744,0,0,1,2.192.723A3.2,3.2,0,0,1,79.78-4.37a2.485,2.485,0,0,1,.405,1.44A2.7,2.7,0,0,1,79.053-.659,4.752,4.752,0,0,1,76.113.2a5.321,5.321,0,0,1-2.246-.449,3.653,3.653,0,0,1-1.528-1.255,3.025,3.025,0,0,1-.552-1.743h1.807a1.87,1.87,0,0,0,.728,1.44,2.822,2.822,0,0,0,1.792.532,2.913,2.913,0,0,0,1.646-.415A1.275,1.275,0,0,0,78.379-2.8Z" transform="translate(359 14504)" fill="#12263f"/>
    <path id="Trazado_153939" data-name="Trazado 153939" d="M10.5,0H1.182V-1.3L6.1-6.768A11.693,11.693,0,0,0,7.612-8.784a3.366,3.366,0,0,0,.415-1.606,2.551,2.551,0,0,0-.674-1.826,2.356,2.356,0,0,0-1.8-.713,2.79,2.79,0,0,0-2.095.767,2.928,2.928,0,0,0-.747,2.134H.908A4.194,4.194,0,0,1,2.173-13.2a4.688,4.688,0,0,1,3.384-1.211,4.5,4.5,0,0,1,3.135,1.04,3.548,3.548,0,0,1,1.152,2.769q0,2.1-2.676,5L3.359-1.475H10.5Zm2.744-7.129.723-7.09H21.25v1.67H15.5l-.43,3.877a4.588,4.588,0,0,1,2.373-.615A3.923,3.923,0,0,1,20.527-8,5.033,5.033,0,0,1,21.67-4.531a4.858,4.858,0,0,1-1.187,3.462A4.325,4.325,0,0,1,17.168.2,4.494,4.494,0,0,1,14.092-.85,4.171,4.171,0,0,1,12.734-3.74h1.709A2.869,2.869,0,0,0,15.313-1.9a2.7,2.7,0,0,0,1.855.62,2.438,2.438,0,0,0,1.978-.859,3.593,3.593,0,0,0,.718-2.373,3.3,3.3,0,0,0-.776-2.29,2.641,2.641,0,0,0-2.065-.864,2.978,2.978,0,0,0-1.855.518l-.479.391Zm19.775,5.85a2.6,2.6,0,0,0,1.689-.586,2.061,2.061,0,0,0,.8-1.465h1.709A3.276,3.276,0,0,1,36.592-1.6,4.116,4.116,0,0,1,35.054-.293,4.438,4.438,0,0,1,33.018.2a4.353,4.353,0,0,1-3.433-1.44,5.737,5.737,0,0,1-1.274-3.94v-.3a6.361,6.361,0,0,1,.566-2.744A4.314,4.314,0,0,1,30.5-10.1a4.619,4.619,0,0,1,2.5-.664A4.238,4.238,0,0,1,35.962-9.7a3.8,3.8,0,0,1,1.255,2.764H35.508a2.49,2.49,0,0,0-.776-1.685,2.415,2.415,0,0,0-1.724-.659,2.529,2.529,0,0,0-2.134.991,4.655,4.655,0,0,0-.757,2.866v.342a4.562,4.562,0,0,0,.752,2.813A2.541,2.541,0,0,0,33.018-1.279ZM45.771,0a3.8,3.8,0,0,1-.254-1.113A4.031,4.031,0,0,1,42.51.2a3.73,3.73,0,0,1-2.563-.884,2.859,2.859,0,0,1-1-2.241A2.987,2.987,0,0,1,40.2-5.493a5.916,5.916,0,0,1,3.53-.913h1.758v-.83a2.029,2.029,0,0,0-.566-1.509,2.276,2.276,0,0,0-1.67-.562,2.634,2.634,0,0,0-1.621.488,1.439,1.439,0,0,0-.654,1.182H39.16a2.493,2.493,0,0,1,.562-1.528,3.832,3.832,0,0,1,1.523-1.167,5.125,5.125,0,0,1,2.114-.43,4.177,4.177,0,0,1,2.861.913,3.294,3.294,0,0,1,1.074,2.515v4.863a5.946,5.946,0,0,0,.371,2.314V0Zm-3-1.377a3.175,3.175,0,0,0,1.611-.439,2.658,2.658,0,0,0,1.1-1.143V-5.127H44.072q-3.32,0-3.32,1.943a1.645,1.645,0,0,0,.566,1.328A2.177,2.177,0,0,0,42.773-1.377ZM59.053-5.166a6.327,6.327,0,0,1-1.1,3.887A3.537,3.537,0,0,1,54.961.2a3.875,3.875,0,0,1-3.027-1.221V4.063H50.127V-10.566h1.65l.088,1.172a3.722,3.722,0,0,1,3.066-1.367,3.6,3.6,0,0,1,3.013,1.436,6.4,6.4,0,0,1,1.108,3.994Zm-1.807-.205a4.669,4.669,0,0,0-.762-2.822,2.454,2.454,0,0,0-2.09-1.035,2.656,2.656,0,0,0-2.461,1.455v5.049a2.661,2.661,0,0,0,2.48,1.445,2.442,2.442,0,0,0,2.065-1.03A5.1,5.1,0,0,0,57.246-5.371ZM67.871,0a3.8,3.8,0,0,1-.254-1.113A4.031,4.031,0,0,1,64.609.2a3.73,3.73,0,0,1-2.563-.884,2.859,2.859,0,0,1-1-2.241A2.987,2.987,0,0,1,62.3-5.493a5.916,5.916,0,0,1,3.53-.913h1.758v-.83a2.029,2.029,0,0,0-.566-1.509,2.276,2.276,0,0,0-1.67-.562,2.634,2.634,0,0,0-1.621.488,1.439,1.439,0,0,0-.654,1.182H61.26a2.493,2.493,0,0,1,.562-1.528,3.832,3.832,0,0,1,1.523-1.167,5.125,5.125,0,0,1,2.114-.43,4.177,4.177,0,0,1,2.861.913,3.294,3.294,0,0,1,1.074,2.515v4.863a5.946,5.946,0,0,0,.371,2.314V0Zm-3-1.377a3.175,3.175,0,0,0,1.611-.439,2.658,2.658,0,0,0,1.1-1.143V-5.127H66.172q-3.32,0-3.32,1.943a1.645,1.645,0,0,0,.566,1.328A2.177,2.177,0,0,0,64.873-1.377ZM78.379-2.8a1.33,1.33,0,0,0-.552-1.138,5.311,5.311,0,0,0-1.924-.7,9.1,9.1,0,0,1-2.178-.7,3.1,3.1,0,0,1-1.191-.977,2.336,2.336,0,0,1-.386-1.348,2.741,2.741,0,0,1,1.1-2.2,4.291,4.291,0,0,1,2.808-.9,4.415,4.415,0,0,1,2.915.928,2.947,2.947,0,0,1,1.118,2.373H78.271a1.631,1.631,0,0,0-.63-1.279,2.36,2.36,0,0,0-1.587-.537,2.47,2.47,0,0,0-1.543.43,1.353,1.353,0,0,0-.557,1.123,1.1,1.1,0,0,0,.518.986,6.368,6.368,0,0,0,1.87.635,9.744,9.744,0,0,1,2.192.723A3.2,3.2,0,0,1,79.78-4.37a2.485,2.485,0,0,1,.405,1.44A2.7,2.7,0,0,1,79.053-.659,4.752,4.752,0,0,1,76.113.2a5.321,5.321,0,0,1-2.246-.449,3.653,3.653,0,0,1-1.528-1.255,3.025,3.025,0,0,1-.552-1.743h1.807a1.87,1.87,0,0,0,.728,1.44,2.822,2.822,0,0,0,1.792.532,2.913,2.913,0,0,0,1.646-.415A1.275,1.275,0,0,0,78.379-2.8Z" transform="translate(489 14525)" fill="#12263f"/>
    <path id="Trazado_153940" data-name="Trazado 153940" d="M11.475-12.676H6.9V0H5.039V-12.676H.479v-1.543h11Zm2.188,13.9H12.109l5.938-15.439H19.59ZM23.984-7.988h1.357a2.984,2.984,0,0,0,2.012-.674,2.251,2.251,0,0,0,.732-1.768,2.205,2.205,0,0,0-2.49-2.5,2.59,2.59,0,0,0-1.87.669,2.341,2.341,0,0,0-.7,1.772H21.221A3.627,3.627,0,0,1,22.456-13.3a4.5,4.5,0,0,1,3.14-1.118A4.447,4.447,0,0,1,28.75-13.35a3.845,3.845,0,0,1,1.143,2.959,3.121,3.121,0,0,1-.6,1.8,3.626,3.626,0,0,1-1.636,1.3,3.494,3.494,0,0,1,1.812,1.23,3.417,3.417,0,0,1,.64,2.1,3.879,3.879,0,0,1-1.25,3.037A4.681,4.681,0,0,1,25.605.2,4.8,4.8,0,0,1,22.349-.889,3.6,3.6,0,0,1,21.094-3.75H22.91a2.324,2.324,0,0,0,.732,1.8,2.786,2.786,0,0,0,1.963.674,2.734,2.734,0,0,0,2-.684A2.634,2.634,0,0,0,28.3-3.926a2.391,2.391,0,0,0-.762-1.9,3.319,3.319,0,0,0-2.2-.684H23.984Zm15.693-6.24V-12.7h-.332a4.757,4.757,0,0,0-3.359,1.25,5.2,5.2,0,0,0-1.445,3.408,3.856,3.856,0,0,1,3.066-1.289,3.687,3.687,0,0,1,2.964,1.309A5.047,5.047,0,0,1,41.68-4.639a5.031,5.031,0,0,1-1.2,3.516A4.119,4.119,0,0,1,37.275.2a4.059,4.059,0,0,1-3.311-1.567A6.212,6.212,0,0,1,32.7-5.41V-6.1a9.36,9.36,0,0,1,1.675-6,6.151,6.151,0,0,1,4.985-2.124ZM37.3-7.822a2.882,2.882,0,0,0-1.709.557,2.9,2.9,0,0,0-1.084,1.4v.664A4.664,4.664,0,0,0,35.3-2.373,2.37,2.37,0,0,0,37.275-1.3a2.3,2.3,0,0,0,1.919-.9,3.728,3.728,0,0,0,.7-2.354,3.729,3.729,0,0,0-.708-2.368A2.269,2.269,0,0,0,37.3-7.822Z" transform="translate(247 14575)" fill="#12263f"/>
    <path id="Trazado_153941" data-name="Trazado 153941" d="M11.475-12.676H6.9V0H5.039V-12.676H.479v-1.543h11Zm2.188,13.9H12.109l5.938-15.439H19.59ZM23.984-7.988h1.357a2.984,2.984,0,0,0,2.012-.674,2.251,2.251,0,0,0,.732-1.768,2.205,2.205,0,0,0-2.49-2.5,2.59,2.59,0,0,0-1.87.669,2.341,2.341,0,0,0-.7,1.772H21.221A3.627,3.627,0,0,1,22.456-13.3a4.5,4.5,0,0,1,3.14-1.118A4.447,4.447,0,0,1,28.75-13.35a3.845,3.845,0,0,1,1.143,2.959,3.121,3.121,0,0,1-.6,1.8,3.626,3.626,0,0,1-1.636,1.3,3.494,3.494,0,0,1,1.812,1.23,3.417,3.417,0,0,1,.64,2.1,3.879,3.879,0,0,1-1.25,3.037A4.681,4.681,0,0,1,25.605.2,4.8,4.8,0,0,1,22.349-.889,3.6,3.6,0,0,1,21.094-3.75H22.91a2.324,2.324,0,0,0,.732,1.8,2.786,2.786,0,0,0,1.963.674,2.734,2.734,0,0,0,2-.684A2.634,2.634,0,0,0,28.3-3.926a2.391,2.391,0,0,0-.762-1.9,3.319,3.319,0,0,0-2.2-.684H23.984Zm16.23,3.213h1.973V-3.3H40.215V0H38.4V-3.3H31.924V-4.365l6.367-9.854h1.924Zm-6.24,0H38.4v-6.973l-.215.391Z" transform="translate(380 14575)" fill="#12263f"/>
    <path id="Trazado_153942" data-name="Trazado 153942" d="M11.475-12.676H6.9V0H5.039V-12.676H.479v-1.543h11Zm2.188,13.9H12.109l5.938-15.439H19.59ZM23.984-7.988h1.357a2.984,2.984,0,0,0,2.012-.674,2.251,2.251,0,0,0,.732-1.768,2.205,2.205,0,0,0-2.49-2.5,2.59,2.59,0,0,0-1.87.669,2.341,2.341,0,0,0-.7,1.772H21.221A3.627,3.627,0,0,1,22.456-13.3a4.5,4.5,0,0,1,3.14-1.118A4.447,4.447,0,0,1,28.75-13.35a3.845,3.845,0,0,1,1.143,2.959,3.121,3.121,0,0,1-.6,1.8,3.626,3.626,0,0,1-1.636,1.3,3.494,3.494,0,0,1,1.812,1.23,3.417,3.417,0,0,1,.64,2.1,3.879,3.879,0,0,1-1.25,3.037A4.681,4.681,0,0,1,25.605.2,4.8,4.8,0,0,1,22.349-.889,3.6,3.6,0,0,1,21.094-3.75H22.91a2.324,2.324,0,0,0,.732,1.8,2.786,2.786,0,0,0,1.963.674,2.734,2.734,0,0,0,2-.684A2.634,2.634,0,0,0,28.3-3.926a2.391,2.391,0,0,0-.762-1.9,3.319,3.319,0,0,0-2.2-.684H23.984ZM41.9,0H32.588V-1.3L37.51-6.768a11.693,11.693,0,0,0,1.509-2.017,3.366,3.366,0,0,0,.415-1.606,2.551,2.551,0,0,0-.674-1.826,2.356,2.356,0,0,0-1.8-.713,2.79,2.79,0,0,0-2.095.767,2.928,2.928,0,0,0-.747,2.134H32.314A4.194,4.194,0,0,1,33.579-13.2a4.688,4.688,0,0,1,3.384-1.211,4.5,4.5,0,0,1,3.135,1.04,3.548,3.548,0,0,1,1.152,2.769q0,2.1-2.676,5L34.766-1.475H41.9Z" transform="translate(499 14578)" fill="#12263f"/>
    <path id="Trazado_153944" data-name="Trazado 153944" d="M0,0H116V111H0Z" transform="translate(215 14647)" fill="#0ac4bf"/>
    <path id="Trazado_153947" data-name="Trazado 153947" d="M0,0H116V68H0Z" transform="translate(343 14690)" fill="#bf3976"/>
    <path id="Trazado_153948" data-name="Trazado 153948" d="M0,0H116V47H0Z" transform="translate(471 14711)" fill="#339ce9"/>
    <path id="Trazado_153943" data-name="Trazado 153943" d="M10.361-13.2,4.473,0H2.578L8.447-12.734H.752v-1.484h9.609Zm2.881,6.074.723-7.09H21.25v1.67H15.5l-.43,3.877a4.588,4.588,0,0,1,2.373-.615A3.923,3.923,0,0,1,20.527-8,5.033,5.033,0,0,1,21.67-4.531a4.858,4.858,0,0,1-1.187,3.462A4.325,4.325,0,0,1,17.168.2,4.494,4.494,0,0,1,14.092-.85,4.171,4.171,0,0,1,12.734-3.74h1.709A2.869,2.869,0,0,0,15.313-1.9a2.7,2.7,0,0,0,1.855.62,2.438,2.438,0,0,0,1.978-.859,3.593,3.593,0,0,0,.718-2.373,3.3,3.3,0,0,0-.776-2.29,2.641,2.641,0,0,0-2.065-.864,2.978,2.978,0,0,0-1.855.518l-.479.391Zm19.775,5.85a2.6,2.6,0,0,0,1.689-.586,2.061,2.061,0,0,0,.8-1.465h1.709A3.276,3.276,0,0,1,36.592-1.6,4.116,4.116,0,0,1,35.054-.293,4.438,4.438,0,0,1,33.018.2a4.353,4.353,0,0,1-3.433-1.44,5.737,5.737,0,0,1-1.274-3.94v-.3a6.361,6.361,0,0,1,.566-2.744A4.314,4.314,0,0,1,30.5-10.1a4.619,4.619,0,0,1,2.5-.664A4.238,4.238,0,0,1,35.962-9.7a3.8,3.8,0,0,1,1.255,2.764H35.508a2.49,2.49,0,0,0-.776-1.685,2.415,2.415,0,0,0-1.724-.659,2.529,2.529,0,0,0-2.134.991,4.655,4.655,0,0,0-.757,2.866v.342a4.562,4.562,0,0,0,.752,2.813A2.541,2.541,0,0,0,33.018-1.279ZM45.771,0a3.8,3.8,0,0,1-.254-1.113A4.031,4.031,0,0,1,42.51.2a3.73,3.73,0,0,1-2.563-.884,2.859,2.859,0,0,1-1-2.241A2.987,2.987,0,0,1,40.2-5.493a5.916,5.916,0,0,1,3.53-.913h1.758v-.83a2.029,2.029,0,0,0-.566-1.509,2.276,2.276,0,0,0-1.67-.562,2.634,2.634,0,0,0-1.621.488,1.439,1.439,0,0,0-.654,1.182H39.16a2.493,2.493,0,0,1,.562-1.528,3.832,3.832,0,0,1,1.523-1.167,5.125,5.125,0,0,1,2.114-.43,4.177,4.177,0,0,1,2.861.913,3.294,3.294,0,0,1,1.074,2.515v4.863a5.946,5.946,0,0,0,.371,2.314V0Zm-3-1.377a3.175,3.175,0,0,0,1.611-.439,2.658,2.658,0,0,0,1.1-1.143V-5.127H44.072q-3.32,0-3.32,1.943a1.645,1.645,0,0,0,.566,1.328A2.177,2.177,0,0,0,42.773-1.377ZM59.053-5.166a6.327,6.327,0,0,1-1.1,3.887A3.537,3.537,0,0,1,54.961.2a3.875,3.875,0,0,1-3.027-1.221V4.063H50.127V-10.566h1.65l.088,1.172a3.722,3.722,0,0,1,3.066-1.367,3.6,3.6,0,0,1,3.013,1.436,6.4,6.4,0,0,1,1.108,3.994Zm-1.807-.205a4.669,4.669,0,0,0-.762-2.822,2.454,2.454,0,0,0-2.09-1.035,2.656,2.656,0,0,0-2.461,1.455v5.049a2.661,2.661,0,0,0,2.48,1.445,2.442,2.442,0,0,0,2.065-1.03A5.1,5.1,0,0,0,57.246-5.371ZM67.871,0a3.8,3.8,0,0,1-.254-1.113A4.031,4.031,0,0,1,64.609.2a3.73,3.73,0,0,1-2.563-.884,2.859,2.859,0,0,1-1-2.241A2.987,2.987,0,0,1,62.3-5.493a5.916,5.916,0,0,1,3.53-.913h1.758v-.83a2.029,2.029,0,0,0-.566-1.509,2.276,2.276,0,0,0-1.67-.562,2.634,2.634,0,0,0-1.621.488,1.439,1.439,0,0,0-.654,1.182H61.26a2.493,2.493,0,0,1,.562-1.528,3.832,3.832,0,0,1,1.523-1.167,5.125,5.125,0,0,1,2.114-.43,4.177,4.177,0,0,1,2.861.913,3.294,3.294,0,0,1,1.074,2.515v4.863a5.946,5.946,0,0,0,.371,2.314V0Zm-3-1.377a3.175,3.175,0,0,0,1.611-.439,2.658,2.658,0,0,0,1.1-1.143V-5.127H66.172q-3.32,0-3.32,1.943a1.645,1.645,0,0,0,.566,1.328A2.177,2.177,0,0,0,64.873-1.377ZM78.379-2.8a1.33,1.33,0,0,0-.552-1.138,5.311,5.311,0,0,0-1.924-.7,9.1,9.1,0,0,1-2.178-.7,3.1,3.1,0,0,1-1.191-.977,2.336,2.336,0,0,1-.386-1.348,2.741,2.741,0,0,1,1.1-2.2,4.291,4.291,0,0,1,2.808-.9,4.415,4.415,0,0,1,2.915.928,2.947,2.947,0,0,1,1.118,2.373H78.271a1.631,1.631,0,0,0-.63-1.279,2.36,2.36,0,0,0-1.587-.537,2.47,2.47,0,0,0-1.543.43,1.353,1.353,0,0,0-.557,1.123,1.1,1.1,0,0,0,.518.986,6.368,6.368,0,0,0,1.87.635,9.744,9.744,0,0,1,2.192.723A3.2,3.2,0,0,1,79.78-4.37a2.485,2.485,0,0,1,.405,1.44A2.7,2.7,0,0,1,79.053-.659,4.752,4.752,0,0,1,76.113.2a5.321,5.321,0,0,1-2.246-.449,3.653,3.653,0,0,1-1.528-1.255,3.025,3.025,0,0,1-.552-1.743h1.807a1.87,1.87,0,0,0,.728,1.44,2.822,2.822,0,0,0,1.792.532,2.913,2.913,0,0,0,1.646-.415A1.275,1.275,0,0,0,78.379-2.8Z" transform="translate(224 14632)" fill="#12263f"/>
    <path id="Trazado_153945" data-name="Trazado 153945" d="M2.012-7.129l.723-7.09H10.02v1.67H4.268l-.43,3.877a4.588,4.588,0,0,1,2.373-.615A3.923,3.923,0,0,1,9.3-8a5.033,5.033,0,0,1,1.143,3.472A4.858,4.858,0,0,1,9.253-1.069,4.325,4.325,0,0,1,5.938.2,4.494,4.494,0,0,1,2.861-.85,4.171,4.171,0,0,1,1.5-3.74H3.213A2.869,2.869,0,0,0,4.082-1.9a2.7,2.7,0,0,0,1.855.62,2.438,2.438,0,0,0,1.978-.859,3.593,3.593,0,0,0,.718-2.373A3.3,3.3,0,0,0,7.856-6.8a2.641,2.641,0,0,0-2.065-.864,2.978,2.978,0,0,0-1.855.518l-.479.391ZM21.328-6.064a8.263,8.263,0,0,1-1.084,4.717A3.855,3.855,0,0,1,16.855.2a3.883,3.883,0,0,1-3.369-1.509A7.843,7.843,0,0,1,12.354-5.82V-8.232a8.079,8.079,0,0,1,1.084-4.658,3.885,3.885,0,0,1,3.4-1.523,3.92,3.92,0,0,1,3.379,1.47,7.8,7.8,0,0,1,1.113,4.536ZM19.521-8.535a6.62,6.62,0,0,0-.645-3.345,2.218,2.218,0,0,0-2.041-1.05,2.189,2.189,0,0,0-2.021,1.045,6.464,6.464,0,0,0-.654,3.213v2.891a6.726,6.726,0,0,0,.669,3.4,2.214,2.214,0,0,0,2.026,1.1,2.184,2.184,0,0,0,1.987-1.035,6.483,6.483,0,0,0,.679-3.262Zm13.5,7.256a2.6,2.6,0,0,0,1.689-.586,2.061,2.061,0,0,0,.8-1.465h1.709A3.276,3.276,0,0,1,36.592-1.6,4.116,4.116,0,0,1,35.054-.293,4.438,4.438,0,0,1,33.018.2a4.353,4.353,0,0,1-3.433-1.44,5.737,5.737,0,0,1-1.274-3.94v-.3a6.361,6.361,0,0,1,.566-2.744A4.314,4.314,0,0,1,30.5-10.1a4.619,4.619,0,0,1,2.5-.664A4.238,4.238,0,0,1,35.962-9.7a3.8,3.8,0,0,1,1.255,2.764H35.508a2.49,2.49,0,0,0-.776-1.685,2.415,2.415,0,0,0-1.724-.659,2.529,2.529,0,0,0-2.134.991,4.655,4.655,0,0,0-.757,2.866v.342a4.562,4.562,0,0,0,.752,2.813A2.541,2.541,0,0,0,33.018-1.279ZM45.771,0a3.8,3.8,0,0,1-.254-1.113A4.031,4.031,0,0,1,42.51.2a3.73,3.73,0,0,1-2.563-.884,2.859,2.859,0,0,1-1-2.241A2.987,2.987,0,0,1,40.2-5.493a5.916,5.916,0,0,1,3.53-.913h1.758v-.83a2.029,2.029,0,0,0-.566-1.509,2.276,2.276,0,0,0-1.67-.562,2.634,2.634,0,0,0-1.621.488,1.439,1.439,0,0,0-.654,1.182H39.16a2.493,2.493,0,0,1,.562-1.528,3.832,3.832,0,0,1,1.523-1.167,5.125,5.125,0,0,1,2.114-.43,4.177,4.177,0,0,1,2.861.913,3.294,3.294,0,0,1,1.074,2.515v4.863a5.946,5.946,0,0,0,.371,2.314V0Zm-3-1.377a3.175,3.175,0,0,0,1.611-.439,2.658,2.658,0,0,0,1.1-1.143V-5.127H44.072q-3.32,0-3.32,1.943a1.645,1.645,0,0,0,.566,1.328A2.177,2.177,0,0,0,42.773-1.377ZM59.053-5.166a6.327,6.327,0,0,1-1.1,3.887A3.537,3.537,0,0,1,54.961.2a3.875,3.875,0,0,1-3.027-1.221V4.063H50.127V-10.566h1.65l.088,1.172a3.722,3.722,0,0,1,3.066-1.367,3.6,3.6,0,0,1,3.013,1.436,6.4,6.4,0,0,1,1.108,3.994Zm-1.807-.205a4.669,4.669,0,0,0-.762-2.822,2.454,2.454,0,0,0-2.09-1.035,2.656,2.656,0,0,0-2.461,1.455v5.049a2.661,2.661,0,0,0,2.48,1.445,2.442,2.442,0,0,0,2.065-1.03A5.1,5.1,0,0,0,57.246-5.371ZM67.871,0a3.8,3.8,0,0,1-.254-1.113A4.031,4.031,0,0,1,64.609.2a3.73,3.73,0,0,1-2.563-.884,2.859,2.859,0,0,1-1-2.241A2.987,2.987,0,0,1,62.3-5.493a5.916,5.916,0,0,1,3.53-.913h1.758v-.83a2.029,2.029,0,0,0-.566-1.509,2.276,2.276,0,0,0-1.67-.562,2.634,2.634,0,0,0-1.621.488,1.439,1.439,0,0,0-.654,1.182H61.26a2.493,2.493,0,0,1,.562-1.528,3.832,3.832,0,0,1,1.523-1.167,5.125,5.125,0,0,1,2.114-.43,4.177,4.177,0,0,1,2.861.913,3.294,3.294,0,0,1,1.074,2.515v4.863a5.946,5.946,0,0,0,.371,2.314V0Zm-3-1.377a3.175,3.175,0,0,0,1.611-.439,2.658,2.658,0,0,0,1.1-1.143V-5.127H66.172q-3.32,0-3.32,1.943a1.645,1.645,0,0,0,.566,1.328A2.177,2.177,0,0,0,64.873-1.377ZM78.379-2.8a1.33,1.33,0,0,0-.552-1.138,5.311,5.311,0,0,0-1.924-.7,9.1,9.1,0,0,1-2.178-.7,3.1,3.1,0,0,1-1.191-.977,2.336,2.336,0,0,1-.386-1.348,2.741,2.741,0,0,1,1.1-2.2,4.291,4.291,0,0,1,2.808-.9,4.415,4.415,0,0,1,2.915.928,2.947,2.947,0,0,1,1.118,2.373H78.271a1.631,1.631,0,0,0-.63-1.279,2.36,2.36,0,0,0-1.587-.537,2.47,2.47,0,0,0-1.543.43,1.353,1.353,0,0,0-.557,1.123,1.1,1.1,0,0,0,.518.986,6.368,6.368,0,0,0,1.87.635,9.744,9.744,0,0,1,2.192.723A3.2,3.2,0,0,1,79.78-4.37a2.485,2.485,0,0,1,.405,1.44A2.7,2.7,0,0,1,79.053-.659,4.752,4.752,0,0,1,76.113.2a5.321,5.321,0,0,1-2.246-.449,3.653,3.653,0,0,1-1.528-1.255,3.025,3.025,0,0,1-.552-1.743h1.807a1.87,1.87,0,0,0,.728,1.44,2.822,2.822,0,0,0,1.792.532,2.913,2.913,0,0,0,1.646-.415A1.275,1.275,0,0,0,78.379-2.8Z" transform="translate(359 14672)" fill="#12263f"/>
    <path id="Trazado_153946" data-name="Trazado 153946" d="M10.5,0H1.182V-1.3L6.1-6.768A11.693,11.693,0,0,0,7.612-8.784a3.366,3.366,0,0,0,.415-1.606,2.551,2.551,0,0,0-.674-1.826,2.356,2.356,0,0,0-1.8-.713,2.79,2.79,0,0,0-2.095.767,2.928,2.928,0,0,0-.747,2.134H.908A4.194,4.194,0,0,1,2.173-13.2a4.688,4.688,0,0,1,3.384-1.211,4.5,4.5,0,0,1,3.135,1.04,3.548,3.548,0,0,1,1.152,2.769q0,2.1-2.676,5L3.359-1.475H10.5Zm2.744-7.129.723-7.09H21.25v1.67H15.5l-.43,3.877a4.588,4.588,0,0,1,2.373-.615A3.923,3.923,0,0,1,20.527-8,5.033,5.033,0,0,1,21.67-4.531a4.858,4.858,0,0,1-1.187,3.462A4.325,4.325,0,0,1,17.168.2,4.494,4.494,0,0,1,14.092-.85,4.171,4.171,0,0,1,12.734-3.74h1.709A2.869,2.869,0,0,0,15.313-1.9a2.7,2.7,0,0,0,1.855.62,2.438,2.438,0,0,0,1.978-.859,3.593,3.593,0,0,0,.718-2.373,3.3,3.3,0,0,0-.776-2.29,2.641,2.641,0,0,0-2.065-.864,2.978,2.978,0,0,0-1.855.518l-.479.391Zm19.775,5.85a2.6,2.6,0,0,0,1.689-.586,2.061,2.061,0,0,0,.8-1.465h1.709A3.276,3.276,0,0,1,36.592-1.6,4.116,4.116,0,0,1,35.054-.293,4.438,4.438,0,0,1,33.018.2a4.353,4.353,0,0,1-3.433-1.44,5.737,5.737,0,0,1-1.274-3.94v-.3a6.361,6.361,0,0,1,.566-2.744A4.314,4.314,0,0,1,30.5-10.1a4.619,4.619,0,0,1,2.5-.664A4.238,4.238,0,0,1,35.962-9.7a3.8,3.8,0,0,1,1.255,2.764H35.508a2.49,2.49,0,0,0-.776-1.685,2.415,2.415,0,0,0-1.724-.659,2.529,2.529,0,0,0-2.134.991,4.655,4.655,0,0,0-.757,2.866v.342a4.562,4.562,0,0,0,.752,2.813A2.541,2.541,0,0,0,33.018-1.279ZM45.771,0a3.8,3.8,0,0,1-.254-1.113A4.031,4.031,0,0,1,42.51.2a3.73,3.73,0,0,1-2.563-.884,2.859,2.859,0,0,1-1-2.241A2.987,2.987,0,0,1,40.2-5.493a5.916,5.916,0,0,1,3.53-.913h1.758v-.83a2.029,2.029,0,0,0-.566-1.509,2.276,2.276,0,0,0-1.67-.562,2.634,2.634,0,0,0-1.621.488,1.439,1.439,0,0,0-.654,1.182H39.16a2.493,2.493,0,0,1,.562-1.528,3.832,3.832,0,0,1,1.523-1.167,5.125,5.125,0,0,1,2.114-.43,4.177,4.177,0,0,1,2.861.913,3.294,3.294,0,0,1,1.074,2.515v4.863a5.946,5.946,0,0,0,.371,2.314V0Zm-3-1.377a3.175,3.175,0,0,0,1.611-.439,2.658,2.658,0,0,0,1.1-1.143V-5.127H44.072q-3.32,0-3.32,1.943a1.645,1.645,0,0,0,.566,1.328A2.177,2.177,0,0,0,42.773-1.377ZM59.053-5.166a6.327,6.327,0,0,1-1.1,3.887A3.537,3.537,0,0,1,54.961.2a3.875,3.875,0,0,1-3.027-1.221V4.063H50.127V-10.566h1.65l.088,1.172a3.722,3.722,0,0,1,3.066-1.367,3.6,3.6,0,0,1,3.013,1.436,6.4,6.4,0,0,1,1.108,3.994Zm-1.807-.205a4.669,4.669,0,0,0-.762-2.822,2.454,2.454,0,0,0-2.09-1.035,2.656,2.656,0,0,0-2.461,1.455v5.049a2.661,2.661,0,0,0,2.48,1.445,2.442,2.442,0,0,0,2.065-1.03A5.1,5.1,0,0,0,57.246-5.371ZM67.871,0a3.8,3.8,0,0,1-.254-1.113A4.031,4.031,0,0,1,64.609.2a3.73,3.73,0,0,1-2.563-.884,2.859,2.859,0,0,1-1-2.241A2.987,2.987,0,0,1,62.3-5.493a5.916,5.916,0,0,1,3.53-.913h1.758v-.83a2.029,2.029,0,0,0-.566-1.509,2.276,2.276,0,0,0-1.67-.562,2.634,2.634,0,0,0-1.621.488,1.439,1.439,0,0,0-.654,1.182H61.26a2.493,2.493,0,0,1,.562-1.528,3.832,3.832,0,0,1,1.523-1.167,5.125,5.125,0,0,1,2.114-.43,4.177,4.177,0,0,1,2.861.913,3.294,3.294,0,0,1,1.074,2.515v4.863a5.946,5.946,0,0,0,.371,2.314V0Zm-3-1.377a3.175,3.175,0,0,0,1.611-.439,2.658,2.658,0,0,0,1.1-1.143V-5.127H66.172q-3.32,0-3.32,1.943a1.645,1.645,0,0,0,.566,1.328A2.177,2.177,0,0,0,64.873-1.377ZM78.379-2.8a1.33,1.33,0,0,0-.552-1.138,5.311,5.311,0,0,0-1.924-.7,9.1,9.1,0,0,1-2.178-.7,3.1,3.1,0,0,1-1.191-.977,2.336,2.336,0,0,1-.386-1.348,2.741,2.741,0,0,1,1.1-2.2,4.291,4.291,0,0,1,2.808-.9,4.415,4.415,0,0,1,2.915.928,2.947,2.947,0,0,1,1.118,2.373H78.271a1.631,1.631,0,0,0-.63-1.279,2.36,2.36,0,0,0-1.587-.537,2.47,2.47,0,0,0-1.543.43,1.353,1.353,0,0,0-.557,1.123,1.1,1.1,0,0,0,.518.986,6.368,6.368,0,0,0,1.87.635,9.744,9.744,0,0,1,2.192.723A3.2,3.2,0,0,1,79.78-4.37a2.485,2.485,0,0,1,.405,1.44A2.7,2.7,0,0,1,79.053-.659,4.752,4.752,0,0,1,76.113.2a5.321,5.321,0,0,1-2.246-.449,3.653,3.653,0,0,1-1.528-1.255,3.025,3.025,0,0,1-.552-1.743h1.807a1.87,1.87,0,0,0,.728,1.44,2.822,2.822,0,0,0,1.792.532,2.913,2.913,0,0,0,1.646-.415A1.275,1.275,0,0,0,78.379-2.8Z" transform="translate(489 14693)" fill="#12263f"/>
    <path id="Trazado_153949" data-name="Trazado 153949" d="M11.475-12.676H6.9V0H5.039V-12.676H.479v-1.543h11Zm2.188,13.9H12.109l5.938-15.439H19.59ZM23.984-7.988h1.357a2.984,2.984,0,0,0,2.012-.674,2.251,2.251,0,0,0,.732-1.768,2.205,2.205,0,0,0-2.49-2.5,2.59,2.59,0,0,0-1.87.669,2.341,2.341,0,0,0-.7,1.772H21.221A3.627,3.627,0,0,1,22.456-13.3a4.5,4.5,0,0,1,3.14-1.118A4.447,4.447,0,0,1,28.75-13.35a3.845,3.845,0,0,1,1.143,2.959,3.121,3.121,0,0,1-.6,1.8,3.626,3.626,0,0,1-1.636,1.3,3.494,3.494,0,0,1,1.812,1.23,3.417,3.417,0,0,1,.64,2.1,3.879,3.879,0,0,1-1.25,3.037A4.681,4.681,0,0,1,25.605.2,4.8,4.8,0,0,1,22.349-.889,3.6,3.6,0,0,1,21.094-3.75H22.91a2.324,2.324,0,0,0,.732,1.8,2.786,2.786,0,0,0,1.963.674,2.734,2.734,0,0,0,2-.684A2.634,2.634,0,0,0,28.3-3.926a2.391,2.391,0,0,0-.762-1.9,3.319,3.319,0,0,0-2.2-.684H23.984Zm15.693-6.24V-12.7h-.332a4.757,4.757,0,0,0-3.359,1.25,5.2,5.2,0,0,0-1.445,3.408,3.856,3.856,0,0,1,3.066-1.289,3.687,3.687,0,0,1,2.964,1.309A5.047,5.047,0,0,1,41.68-4.639a5.031,5.031,0,0,1-1.2,3.516A4.119,4.119,0,0,1,37.275.2a4.059,4.059,0,0,1-3.311-1.567A6.212,6.212,0,0,1,32.7-5.41V-6.1a9.36,9.36,0,0,1,1.675-6,6.151,6.151,0,0,1,4.985-2.124ZM37.3-7.822a2.882,2.882,0,0,0-1.709.557,2.9,2.9,0,0,0-1.084,1.4v.664A4.664,4.664,0,0,0,35.3-2.373,2.37,2.37,0,0,0,37.275-1.3a2.3,2.3,0,0,0,1.919-.9,3.728,3.728,0,0,0,.7-2.354,3.729,3.729,0,0,0-.708-2.368A2.269,2.269,0,0,0,37.3-7.822Z" transform="translate(247 14743)" fill="#12263f"/>
    <path id="Trazado_153950" data-name="Trazado 153950" d="M11.475-12.676H6.9V0H5.039V-12.676H.479v-1.543h11Zm2.188,13.9H12.109l5.938-15.439H19.59ZM23.984-7.988h1.357a2.984,2.984,0,0,0,2.012-.674,2.251,2.251,0,0,0,.732-1.768,2.205,2.205,0,0,0-2.49-2.5,2.59,2.59,0,0,0-1.87.669,2.341,2.341,0,0,0-.7,1.772H21.221A3.627,3.627,0,0,1,22.456-13.3a4.5,4.5,0,0,1,3.14-1.118A4.447,4.447,0,0,1,28.75-13.35a3.845,3.845,0,0,1,1.143,2.959,3.121,3.121,0,0,1-.6,1.8,3.626,3.626,0,0,1-1.636,1.3,3.494,3.494,0,0,1,1.812,1.23,3.417,3.417,0,0,1,.64,2.1,3.879,3.879,0,0,1-1.25,3.037A4.681,4.681,0,0,1,25.605.2,4.8,4.8,0,0,1,22.349-.889,3.6,3.6,0,0,1,21.094-3.75H22.91a2.324,2.324,0,0,0,.732,1.8,2.786,2.786,0,0,0,1.963.674,2.734,2.734,0,0,0,2-.684A2.634,2.634,0,0,0,28.3-3.926a2.391,2.391,0,0,0-.762-1.9,3.319,3.319,0,0,0-2.2-.684H23.984Zm16.23,3.213h1.973V-3.3H40.215V0H38.4V-3.3H31.924V-4.365l6.367-9.854h1.924Zm-6.24,0H38.4v-6.973l-.215.391Z" transform="translate(380 14743)" fill="#12263f"/>
    <path id="Trazado_153951" data-name="Trazado 153951" d="M11.475-12.676H6.9V0H5.039V-12.676H.479v-1.543h11Zm2.188,13.9H12.109l5.938-15.439H19.59ZM23.984-7.988h1.357a2.984,2.984,0,0,0,2.012-.674,2.251,2.251,0,0,0,.732-1.768,2.205,2.205,0,0,0-2.49-2.5,2.59,2.59,0,0,0-1.87.669,2.341,2.341,0,0,0-.7,1.772H21.221A3.627,3.627,0,0,1,22.456-13.3a4.5,4.5,0,0,1,3.14-1.118A4.447,4.447,0,0,1,28.75-13.35a3.845,3.845,0,0,1,1.143,2.959,3.121,3.121,0,0,1-.6,1.8,3.626,3.626,0,0,1-1.636,1.3,3.494,3.494,0,0,1,1.812,1.23,3.417,3.417,0,0,1,.64,2.1,3.879,3.879,0,0,1-1.25,3.037A4.681,4.681,0,0,1,25.605.2,4.8,4.8,0,0,1,22.349-.889,3.6,3.6,0,0,1,21.094-3.75H22.91a2.324,2.324,0,0,0,.732,1.8,2.786,2.786,0,0,0,1.963.674,2.734,2.734,0,0,0,2-.684A2.634,2.634,0,0,0,28.3-3.926a2.391,2.391,0,0,0-.762-1.9,3.319,3.319,0,0,0-2.2-.684H23.984ZM41.9,0H32.588V-1.3L37.51-6.768a11.693,11.693,0,0,0,1.509-2.017,3.366,3.366,0,0,0,.415-1.606,2.551,2.551,0,0,0-.674-1.826,2.356,2.356,0,0,0-1.8-.713,2.79,2.79,0,0,0-2.095.767,2.928,2.928,0,0,0-.747,2.134H32.314A4.194,4.194,0,0,1,33.579-13.2a4.688,4.688,0,0,1,3.384-1.211,4.5,4.5,0,0,1,3.135,1.04,3.548,3.548,0,0,1,1.152,2.769q0,2.1-2.676,5L34.766-1.475H41.9Z" transform="translate(499 14746)" fill="#12263f"/>
  </g>
</svg>
