<svg xmlns="http://www.w3.org/2000/svg" width="135.014" height="96.371" viewBox="0 0 135.014 96.371">
  <g id="img3" transform="translate(-10360.183 9623.529)">
    <g id="Gear" transform="translate(10358.182 -9625.477)">
      <g id="Grupo_91176" data-name="Grupo 91176" transform="translate(10.6 7.685)">
        <path id="Trazado_156657" data-name="Trazado 156657" d="M14.893,19.03a5.181,5.181,0,0,0,3.169,4.733V14.3A5.181,5.181,0,0,0,14.893,19.03Z" transform="translate(13.513 15.415)" fill="#0ac4bf"/>
        <path id="Trazado_156658" data-name="Trazado 156658" d="M14.891,27.468A10.829,10.829,0,0,1,25.7,16.652V9.786c-.365,0-.723.034-1.085.055a18.156,18.156,0,0,0,0,35.254c.362.02.72.055,1.085.055V38.281A10.827,10.827,0,0,1,14.891,27.468Z" transform="translate(5.874 6.977)" fill="#0ac4bf"/>
        <path id="Trazado_156659" data-name="Trazado 156659" d="M14.148,45.111a22.306,22.306,0,0,1,0-13.439,23.46,23.46,0,0,1,22.427-16.7V3.946h-7.4l-.445,6.375A2.865,2.865,0,0,1,26.881,12.8a27.169,27.169,0,0,0-7.6,4.363,2.871,2.871,0,0,1-3.054.367l-3.861-1.843L5,28.721l3.384,2.308A2.874,2.874,0,0,1,9.6,33.867a27.54,27.54,0,0,0-.4,4.524,27.9,27.9,0,0,0,.422,4.659,2.877,2.877,0,0,1-1.177,2.833L5.135,48.2l7.681,12.882,3.5-1.731a2.884,2.884,0,0,1,3.077.342,27.278,27.278,0,0,0,7.492,4.283,2.879,2.879,0,0,1,1.849,2.483l.445,6.375h7.4V61.816A23.462,23.462,0,0,1,14.148,45.111Z" transform="translate(-4.997 -3.946)" fill="#c2fcfa"/>
        <path id="Trazado_156660" data-name="Trazado 156660" d="M21.076,19.214a5.063,5.063,0,0,0-4.5-5.015A4.945,4.945,0,0,0,16,14.48v9.467a4.944,4.944,0,0,0,.583.281A5.063,5.063,0,0,0,21.076,19.214Z" transform="translate(15.579 15.231)" fill="#0ac4bf"/>
        <path id="Trazado_156661" data-name="Trazado 156661" d="M21.076,19.214a5.063,5.063,0,0,0-4.5-5.015A4.945,4.945,0,0,0,16,14.48v9.467a4.944,4.944,0,0,0,.583.281A5.063,5.063,0,0,0,21.076,19.214Z" transform="translate(15.579 15.231)" fill="#0ac4bf" opacity="0.4"/>
        <path id="Trazado_156662" data-name="Trazado 156662" d="M33.684,27.468A17.7,17.7,0,0,0,16,9.786H16v6.869H16a10.816,10.816,0,1,1,0,21.631H16v6.869H16A17.711,17.711,0,0,0,33.684,27.468Z" transform="translate(15.578 6.977)" fill="#0ac4bf"/>
        <path id="Trazado_156663" data-name="Trazado 156663" d="M33.684,27.468A17.7,17.7,0,0,0,16,9.786H16v6.869H16a10.816,10.816,0,1,1,0,21.631H16v6.869H16A17.711,17.711,0,0,0,33.684,27.468Z" transform="translate(15.578 6.977)" fill="#0ac4bf" opacity="0.4"/>
        <path id="Trazado_156664" data-name="Trazado 156664" d="M23.765,66.457a2.86,2.86,0,0,1,1.851-2.448,27.411,27.411,0,0,0,7.618-4.337,2.881,2.881,0,0,1,3.074-.344l5.712,2.819L49.4,49.51l-5.239-3.671A2.867,2.867,0,0,1,42.974,43,26.821,26.821,0,0,0,43.4,38.39a27.254,27.254,0,0,0-.416-4.558,2.878,2.878,0,0,1,1.211-2.845l5.282-3.608L42.081,14.755l-5.747,2.753a2.872,2.872,0,0,1-3.051-.362,27.3,27.3,0,0,0-7.67-4.375,2.869,2.869,0,0,1-1.851-2.448l-.534-6.375H15.995V14.97H16a23.423,23.423,0,0,1,0,46.845h-.006V72.838h7.233Z" transform="translate(15.574 -3.942)" fill="#0ac4bf"/>
        <path id="Trazado_156665" data-name="Trazado 156665" d="M23.765,66.457a2.86,2.86,0,0,1,1.851-2.448,27.411,27.411,0,0,0,7.618-4.337,2.881,2.881,0,0,1,3.074-.344l5.712,2.819L49.4,49.51l-5.239-3.671A2.867,2.867,0,0,1,42.974,43,26.821,26.821,0,0,0,43.4,38.39a27.254,27.254,0,0,0-.416-4.558,2.878,2.878,0,0,1,1.211-2.845l5.282-3.608L42.081,14.755l-5.747,2.753a2.872,2.872,0,0,1-3.051-.362,27.3,27.3,0,0,0-7.67-4.375,2.869,2.869,0,0,1-1.851-2.448l-.534-6.375H15.995V14.97H16a23.423,23.423,0,0,1,0,46.845h-.006V72.838h7.233Z" transform="translate(15.574 -3.942)" fill="#0ac4bf" opacity="0.4"/>
      </g>
      <g id="Grupo_91177" data-name="Grupo 91177" transform="translate(2.001 1.947)">
        <path id="Trazado_156666" data-name="Trazado 156666" d="M31.262,7.786A23.423,23.423,0,1,0,54.684,31.209,23.449,23.449,0,0,0,31.262,7.786Zm0,41.1A17.682,17.682,0,1,1,48.943,31.209,17.7,17.7,0,0,1,31.262,48.89Z" transform="translate(8.918 8.974)" fill="#051356"/>
        <path id="Trazado_156667" data-name="Trazado 156667" d="M75.075,45.9a29.674,29.674,0,0,0,.009-7.437l6.016-4.11a2.874,2.874,0,0,0,.858-3.821L71.878,13.314a2.872,2.872,0,0,0-3.72-1.137l-6.539,3.134a33.013,33.013,0,0,0-6.105-3.482l-.606-7.251a2.867,2.867,0,0,0-2.859-2.632H32.1a2.872,2.872,0,0,0-2.865,2.669l-.508,7.268a32.637,32.637,0,0,0-6.019,3.447l-6.545-3.123a2.861,2.861,0,0,0-3.714,1.142L2.394,30.576A2.871,2.871,0,0,0,3.255,34.4l6.022,4.1a30.763,30.763,0,0,0-.221,3.628,31.26,31.26,0,0,0,.238,3.809L3.347,50.121a2.871,2.871,0,0,0-.827,3.8L12.6,71.135a2.877,2.877,0,0,0,3.752,1.122l6.519-3.226a32.985,32.985,0,0,0,5.864,3.35l.508,7.268a2.872,2.872,0,0,0,2.865,2.669H52.055a2.865,2.865,0,0,0,2.859-2.632l.606-7.251a33.293,33.293,0,0,0,6.028-3.427l6.519,3.218A2.874,2.874,0,0,0,71.815,71.1L81.873,53.87a2.866,2.866,0,0,0-.832-3.8ZM68.2,65.888,62.486,63.07a2.88,2.88,0,0,0-3.074.344,27.38,27.38,0,0,1-7.618,4.337A2.869,2.869,0,0,0,49.942,70.2l-.534,6.375H34.778L34.333,70.2a2.87,2.87,0,0,0-1.849-2.483,27.132,27.132,0,0,1-7.492-4.283,2.885,2.885,0,0,0-3.077-.342L16.2,65.92,8.809,53.3l5.233-3.677a2.87,2.87,0,0,0,1.177-2.833A25.708,25.708,0,0,1,15.2,37.6a2.874,2.874,0,0,0-1.214-2.839L8.7,31.162l7.374-12.636,5.749,2.747a2.866,2.866,0,0,0,3.051-.367,27.209,27.209,0,0,1,7.6-4.363A2.874,2.874,0,0,0,34.33,14.06l.445-6.375h14.63l.534,6.375a2.86,2.86,0,0,0,1.851,2.448,27.445,27.445,0,0,1,7.67,4.375,2.873,2.873,0,0,0,3.051.362l5.747-2.753,7.391,12.624-5.282,3.608a2.876,2.876,0,0,0-1.211,2.845,25.3,25.3,0,0,1-.006,9.171,2.87,2.87,0,0,0,1.183,2.836l5.239,3.671Z" transform="translate(-2.001 -1.947)" fill="#051356"/>
        <path id="Trazado_156668" data-name="Trazado 156668" d="M23.047,12.178A10.816,10.816,0,1,0,33.862,22.994,10.829,10.829,0,0,0,23.047,12.178Zm0,15.888a5.075,5.075,0,1,1,5.075-5.075A5.08,5.08,0,0,1,23.047,28.066Z" transform="translate(17.132 17.189)" fill="#051356"/>
      </g>
    </g>
    <g id="Gear-2" data-name="Gear" transform="translate(10442.182 -9580.133)">
      <g id="Grupo_91176-2" data-name="Grupo 91176" transform="translate(7.461 5.59)">
        <path id="Trazado_156657-2" data-name="Trazado 156657" d="M14.893,17.3A3.289,3.289,0,0,0,16.9,20.307V14.3A3.289,3.289,0,0,0,14.893,17.3Z" transform="translate(3.142 4.567)" fill="#0ac4bf"/>
        <path id="Trazado_156658-2" data-name="Trazado 156658" d="M13.4,21.012a6.875,6.875,0,0,1,6.863-6.867V9.786c-.231,0-.459.022-.689.035a11.527,11.527,0,0,0,0,22.383c.23.013.457.035.689.035V27.877A6.874,6.874,0,0,1,13.4,21.012Z" transform="translate(-0.217 0.857)" fill="#0ac4bf"/>
        <path id="Trazado_156659-2" data-name="Trazado 156659" d="M10.807,30.081a14.162,14.162,0,0,1,0-8.533,14.894,14.894,0,0,1,14.238-10.6v-7h-4.7l-.282,4.048A1.819,1.819,0,0,1,18.891,9.57a17.249,17.249,0,0,0-4.828,2.77,1.823,1.823,0,0,1-1.939.233L9.673,11.4,5,19.675,7.146,21.14a1.825,1.825,0,0,1,.771,1.8,17.485,17.485,0,0,0-.257,2.872,17.715,17.715,0,0,0,.268,2.958,1.827,1.827,0,0,1-.747,1.8l-2.1,1.474,4.877,8.179,2.22-1.1a1.831,1.831,0,0,1,1.954.217,17.318,17.318,0,0,0,4.756,2.719,1.828,1.828,0,0,1,1.174,1.576l.282,4.048h4.7v-7A14.9,14.9,0,0,1,10.807,30.081Z" transform="translate(-4.997 -3.946)" fill="#c2fcfa"/>
        <path id="Trazado_156660-2" data-name="Trazado 156660" d="M19.222,17.383A3.214,3.214,0,0,0,16.368,14.2a3.139,3.139,0,0,0-.37.179v6.01a3.139,3.139,0,0,0,.37.179A3.214,3.214,0,0,0,19.222,17.383Z" transform="translate(4.05 4.486)" fill="#0ac4bf"/>
        <path id="Trazado_156661-2" data-name="Trazado 156661" d="M19.222,17.383A3.214,3.214,0,0,0,16.368,14.2a3.139,3.139,0,0,0-.37.179v6.01a3.139,3.139,0,0,0,.37.179A3.214,3.214,0,0,0,19.222,17.383Z" transform="translate(4.05 4.486)" fill="#0ac4bf" opacity="0.4"/>
        <path id="Trazado_156662-2" data-name="Trazado 156662" d="M27.227,21.012A11.24,11.24,0,0,0,16,9.786h0v4.361h0a6.867,6.867,0,1,1,0,13.734h0v4.361h0A11.245,11.245,0,0,0,27.227,21.012Z" transform="translate(4.05 0.857)" fill="#0ac4bf"/>
        <path id="Trazado_156663-2" data-name="Trazado 156663" d="M27.227,21.012A11.24,11.24,0,0,0,16,9.786h0v4.361h0a6.867,6.867,0,1,1,0,13.734h0v4.361h0A11.245,11.245,0,0,0,27.227,21.012Z" transform="translate(4.05 0.857)" fill="#0ac4bf" opacity="0.4"/>
        <path id="Trazado_156664-2" data-name="Trazado 156664" d="M20.928,43.635A1.816,1.816,0,0,1,22.1,42.08a17.4,17.4,0,0,0,4.837-2.754,1.829,1.829,0,0,1,1.952-.219l3.627,1.79L37.2,32.875l-3.326-2.331a1.82,1.82,0,0,1-.751-1.8,17.029,17.029,0,0,0,.268-2.929,17.3,17.3,0,0,0-.264-2.894,1.827,1.827,0,0,1,.769-1.806l3.353-2.291-4.693-8.015-3.648,1.748a1.823,1.823,0,0,1-1.937-.23A17.335,17.335,0,0,0,22.1,9.55,1.822,1.822,0,0,1,20.926,8l-.339-4.048H15.995v7h0a14.871,14.871,0,0,1,0,29.742h0v7h4.592Z" transform="translate(4.048 -3.944)" fill="#0ac4bf"/>
        <path id="Trazado_156665-2" data-name="Trazado 156665" d="M20.928,43.635A1.816,1.816,0,0,1,22.1,42.08a17.4,17.4,0,0,0,4.837-2.754,1.829,1.829,0,0,1,1.952-.219l3.627,1.79L37.2,32.875l-3.326-2.331a1.82,1.82,0,0,1-.751-1.8,17.029,17.029,0,0,0,.268-2.929,17.3,17.3,0,0,0-.264-2.894,1.827,1.827,0,0,1,.769-1.806l3.353-2.291-4.693-8.015-3.648,1.748a1.823,1.823,0,0,1-1.937-.23A17.335,17.335,0,0,0,22.1,9.55,1.822,1.822,0,0,1,20.926,8l-.339-4.048H15.995v7h0a14.871,14.871,0,0,1,0,29.742h0v7h4.592Z" transform="translate(4.048 -3.944)" fill="#0ac4bf" opacity="0.4"/>
      </g>
      <g id="Grupo_91177-2" data-name="Grupo 91177" transform="translate(2.001 1.947)">
        <path id="Trazado_156666-2" data-name="Trazado 156666" d="M22.71,7.786A14.871,14.871,0,1,0,37.581,22.657,14.888,14.888,0,0,0,22.71,7.786Zm0,26.1A11.226,11.226,0,1,1,33.936,22.657,11.24,11.24,0,0,1,22.71,33.883Z" transform="translate(2.8 2.855)" fill="#051356"/>
        <path id="Trazado_156667-2" data-name="Trazado 156667" d="M48.4,29.85a18.84,18.84,0,0,0,.005-4.722l3.82-2.61a1.825,1.825,0,0,0,.545-2.426l-6.4-10.929A1.823,1.823,0,0,0,44,8.442l-4.151,1.99a20.96,20.96,0,0,0-3.876-2.211l-.385-4.6a1.82,1.82,0,0,0-1.815-1.671H21.112a1.823,1.823,0,0,0-1.819,1.695l-.323,4.614a20.721,20.721,0,0,0-3.822,2.189L10.994,8.462a1.817,1.817,0,0,0-2.358.725L2.25,20.124A1.823,1.823,0,0,0,2.8,22.549l3.823,2.606a19.531,19.531,0,0,0-.14,2.3,19.847,19.847,0,0,0,.151,2.418L2.855,32.533a1.823,1.823,0,0,0-.525,2.413l6.4,10.929a1.826,1.826,0,0,0,2.382.713l4.139-2.048a20.942,20.942,0,0,0,3.723,2.127L19.3,51.28a1.823,1.823,0,0,0,1.819,1.695H33.78A1.819,1.819,0,0,0,35.6,51.3l.385-4.6a21.137,21.137,0,0,0,3.827-2.176l4.139,2.043a1.825,1.825,0,0,0,2.38-.716l6.386-10.938a1.819,1.819,0,0,0-.528-2.411ZM44.029,42.543,40.4,40.753a1.828,1.828,0,0,0-1.952.219,17.383,17.383,0,0,1-4.837,2.754,1.822,1.822,0,0,0-1.175,1.555L32.1,49.328H22.811l-.282-4.048A1.822,1.822,0,0,0,21.355,43.7,17.226,17.226,0,0,1,16.6,40.985a1.832,1.832,0,0,0-1.954-.217l-3.628,1.8L6.324,34.548l3.322-2.335a1.822,1.822,0,0,0,.747-1.8,16.322,16.322,0,0,1-.011-5.83,1.825,1.825,0,0,0-.771-1.8L6.256,20.5l4.682-8.022,3.65,1.744a1.819,1.819,0,0,0,1.937-.233,17.275,17.275,0,0,1,4.828-2.77,1.825,1.825,0,0,0,1.174-1.576l.282-4.048H32.1l.339,4.048a1.816,1.816,0,0,0,1.175,1.555,17.425,17.425,0,0,1,4.869,2.777,1.824,1.824,0,0,0,1.937.23l3.648-1.748,4.693,8.015-3.353,2.291a1.826,1.826,0,0,0-.769,1.806,16.06,16.06,0,0,1,0,5.823,1.822,1.822,0,0,0,.751,1.8l3.326,2.331Z" transform="translate(-2.001 -1.947)" fill="#051356"/>
        <path id="Trazado_156668-2" data-name="Trazado 156668" d="M19.1,12.178a6.867,6.867,0,1,0,6.867,6.867A6.875,6.875,0,0,0,19.1,12.178Zm0,10.087a3.222,3.222,0,1,1,3.222-3.222A3.225,3.225,0,0,1,19.1,22.265Z" transform="translate(6.412 6.467)" fill="#051356"/>
      </g>
    </g>
  </g>
</svg>
