<svg xmlns="http://www.w3.org/2000/svg" width="146.632" height="148.16" viewBox="0 0 146.632 148.16">
  <g id="img4" transform="translate(-0.352 -0.086)">
    <g id="_064---Size-Guide" data-name="064---Size-Guide" transform="translate(0.352 0.086)">
      <path id="Shape" d="M73.348,29.081,47.68,32.518l-.47-9.941L73,19.14l2.349,6.677a2.473,2.473,0,0,1-2,3.264Z" transform="translate(68.665 27.978)" fill="#bf3976"/>
      <path id="Shape-2" data-name="Shape" d="M75.1,25.817,72.752,19.14l-7.087.945,2.018,5.732a2.473,2.473,0,0,1-2,3.264l-18.3,2.451.047.989L73.1,29.083A2.473,2.473,0,0,0,75.1,25.817Z" transform="translate(68.915 27.978)" fill="#283593"/>
      <path id="Shape-3" data-name="Shape" d="M29.633,22.577l-.47,9.941L3.5,29.081a2.473,2.473,0,0,1-2-3.264L3.841,19.14Z" transform="translate(1.125 27.978)" fill="#bf3976"/>
      <path id="Shape-4" data-name="Shape" d="M113.739,59.1l1.434,30.787H26.248L27.682,59.1l.47-9.941L2.36,45.726,9.8,24.632A24.771,24.771,0,0,1,25.308,9.4L49.864,1.214a2.226,2.226,0,0,1,1.063-.1C51,3.563,52.164,23.123,70.711,23.123S90.42,3.563,90.494,1.115a2.226,2.226,0,0,1,1.063.1L116.113,9.4a24.771,24.771,0,0,1,15.505,15.233l7.443,21.094-25.792,3.437Z" transform="translate(2.606 1.393)" fill="#f2d6e3"/>
      <path id="Shape-5" data-name="Shape" d="M60.877,49.163l25.792-3.437L79.226,24.632A24.771,24.771,0,0,0,63.721,9.4L39.165,1.214a2.226,2.226,0,0,0-1.063-.1c-.012.366-.057,1.15-.171,2.161L56.3,9.4A24.771,24.771,0,0,1,71.807,24.632L79.25,45.726,53.458,49.163l.47,9.941,1.434,30.787h7.419L61.347,59.1Z" transform="translate(54.998 1.393)" fill="#bf3976"/>
      <path id="Shape-6" data-name="Shape" d="M104.774,62.3a2.473,2.473,0,0,1-2.473,2.6H13.525a2.473,2.473,0,0,1-2.473-2.6L11.4,55h93.03Z" transform="translate(15.403 80.796)" fill="#f2d6e3"/>
      <path id="Shape-7" data-name="Shape" d="M54.5,55H47.077l.346,7.3a2.473,2.473,0,0,1-2.473,2.6h7.419a2.473,2.473,0,0,0,2.473-2.6Z" transform="translate(65.336 80.796)" fill="#bf3976"/>
      <path id="Shape-8" data-name="Shape" d="M104.22,60.892H11.19L11.635,51h92.14Z" transform="translate(15.611 74.904)" fill="#f2d6e3"/>
      <path id="Shape-9" data-name="Shape" d="M53.049,51H45.63l.445,9.892h7.419Z" transform="translate(66.338 74.904)" fill="#bf3976"/>
      <path id="Shape-10" data-name="Shape" d="M61.566,1.1c-.074,2.448-1.236,22.009-19.783,22.009S22.074,3.548,22,1.1a1.907,1.907,0,0,1,.89.3A40.226,40.226,0,0,0,41.783,5.8,40.226,40.226,0,0,0,60.676,1.4a1.907,1.907,0,0,1,.89-.3Z" transform="translate(31.533 1.407)" fill="#f2d6e3"/>
      <rect id="Rectangle-path" width="128.59" height="34.62" rx="2" transform="translate(9.021 91.284)" fill="#0ac4bf"/>
      <path id="Shape-11" data-name="Shape" d="M58.419,37H51a4.946,4.946,0,0,1,4.946,4.946V66.675A4.946,4.946,0,0,1,51,71.62h7.419a4.946,4.946,0,0,0,4.946-4.946V41.946A4.946,4.946,0,0,0,58.419,37Z" transform="translate(74.247 54.284)" fill="#c2fcfa"/>
      <path id="Shape-12" data-name="Shape" d="M142.677,59.6a4.931,4.931,0,0,0,4.023-6.541l-9.793-27.773A27.083,27.083,0,0,0,119.845,8.533L95.3.343a4.77,4.77,0,0,0-3.915.373,37.707,37.707,0,0,1-17.713,4.1A37.682,37.682,0,0,1,56.019.751,4.792,4.792,0,0,0,52.038.346L27.482,8.528A27.083,27.083,0,0,0,10.419,25.282L.634,53.065A4.928,4.928,0,0,0,4.643,59.6l23.423,3.136L26.844,88.9H14.319A7.419,7.419,0,0,0,6.9,96.316v24.729a7.419,7.419,0,0,0,7.419,7.419h10.69l-.673,14.59a4.946,4.946,0,0,0,4.946,5.193h88.777A4.946,4.946,0,0,0,123,143.053l-.678-14.59h10.69a7.419,7.419,0,0,0,7.419-7.419V96.316a7.419,7.419,0,0,0-7.419-7.419H120.493l-1.222-26.166Zm-23.638-1.825-.232-4.98,21.546-2.873,1.684,4.775ZM90.541,6.55C89.495,12.5,85.9,22.129,73.668,22.129S57.854,12.512,56.8,6.55a44.552,44.552,0,0,0,16.87,3.215A44.265,44.265,0,0,0,90.541,6.55ZM5.3,54.7l1.687-4.783,21.544,2.871-.232,4.98Zm23.977,88.6.228-4.946h88.324l.228,4.946Zm88.327-9.892H29.733l.228-4.946h87.417Zm17.886-37.093v24.729a2.473,2.473,0,0,1-2.473,2.473H125.6v-4.946a2.473,2.473,0,1,0-4.946,0v4.946h-4.946v-9.892a2.473,2.473,0,0,0-4.946,0v9.892h-4.946v-4.946a2.473,2.473,0,1,0-4.946,0v4.946H95.924v-9.892a2.473,2.473,0,0,0-4.946,0v9.892H86.033v-4.946a2.473,2.473,0,1,0-4.946,0v4.946H76.141v-9.892a2.473,2.473,0,0,0-4.946,0v9.892H66.25v-4.946a2.473,2.473,0,1,0-4.946,0v4.946H56.358v-9.892a2.473,2.473,0,0,0-4.946,0v9.892H46.467v-4.946a2.473,2.473,0,1,0-4.946,0v4.946H36.575v-9.892a2.473,2.473,0,0,0-4.946,0v9.892H26.683v-4.946a2.473,2.473,0,1,0-4.946,0v4.946H14.319a2.473,2.473,0,0,1-2.473-2.473V96.316a2.473,2.473,0,0,1,2.473-2.473h118.7A2.473,2.473,0,0,1,135.491,96.316ZM31.8,88.9l2.3-49.342a2.473,2.473,0,0,0-2.359-2.589,2.547,2.547,0,0,0-2.587,2.357l-.4,8.524L8.669,45.154,15.1,26.937A22.172,22.172,0,0,1,29.05,13.227L51.684,5.7c.91,6.692,4.852,21.378,21.984,21.378s21.084-14.719,21.986-21.4l22.632,7.55a22.174,22.174,0,0,1,13.957,13.712l6.43,18.22-20.1,2.688-.4-8.524a2.52,2.52,0,0,0-2.587-2.357,2.473,2.473,0,0,0-2.359,2.589l2.3,49.342Z" transform="translate(-0.352 -0.086)"/>
    </g>
  </g>
</svg>
