<svg xmlns="http://www.w3.org/2000/svg" width="258.835" height="251.721" viewBox="0 0 258.835 251.721">
  <g id="img5" transform="translate(-986.382 -2798.549)">
    <rect id="Rectángulo_26685" data-name="Rectángulo 26685" width="246.426" height="153.993" rx="18" transform="translate(998.791 2895.777)" fill="#fff5fa"/>
    <g id="Grupo_90342" data-name="Grupo 90342" transform="translate(986.382 2799.049)">
      <path id="Trazado_154248" data-name="Trazado 154248" d="M0,65.814H0Z" transform="translate(0 -6.592)" fill="#0ac4bf" stroke="#0ac4bf" stroke-width="2"/>
      <line id="Línea_431" data-name="Línea 431" x2="99.846" transform="translate(0 59.222)" fill="none" stroke="#0ac4bf" stroke-miterlimit="10" stroke-width="2"/>
      <path id="Trazado_154249" data-name="Trazado 154249" d="M0,93.485H0Z" transform="translate(0 -9.173)" fill="#0ac4bf" stroke="#0ac4bf" stroke-width="2"/>
      <line id="Línea_432" data-name="Línea 432" x2="99.846" transform="translate(0 84.312)" fill="none" stroke="#0ac4bf" stroke-miterlimit="10" stroke-width="2"/>
      <path id="Trazado_154250" data-name="Trazado 154250" d="M0,81.061H0Z" transform="translate(0 -8.014)" fill="#0ac4bf" stroke="#0ac4bf" stroke-width="2"/>
      <line id="Línea_433" data-name="Línea 433" x2="99.846" transform="translate(0 73.047)" fill="none" stroke="#0ac4bf" stroke-miterlimit="10" stroke-width="2"/>
      <path id="Trazado_154251" data-name="Trazado 154251" d="M0,109.3H0Z" transform="translate(0 -10.648)" fill="#0ac4bf" stroke="#0ac4bf" stroke-width="2"/>
      <line id="Línea_434" data-name="Línea 434" x2="99.846" transform="translate(0 98.649)" fill="none" stroke="#0ac4bf" stroke-miterlimit="10" stroke-width="2"/>
      <path id="Trazado_154252" data-name="Trazado 154252" d="M0,136.967H0Z" transform="translate(0 -13.229)" fill="#0ac4bf" stroke="#0ac4bf" stroke-width="2"/>
      <line id="Línea_435" data-name="Línea 435" x2="99.846" transform="translate(0 123.738)" fill="none" stroke="#0ac4bf" stroke-miterlimit="10" stroke-width="2"/>
      <path id="Trazado_154253" data-name="Trazado 154253" d="M0,124.544H0Z" transform="translate(0 -12.071)" fill="#0ac4bf" stroke="#0ac4bf" stroke-width="2"/>
      <line id="Línea_436" data-name="Línea 436" x2="99.846" transform="translate(0 112.473)" fill="none" stroke="#0ac4bf" stroke-miterlimit="10" stroke-width="2"/>
      <line id="Línea_437" data-name="Línea 437" y1="31.234" x2="106.503" transform="translate(116.156 40.277)" fill="none" stroke="#0ac4bf" stroke-miterlimit="10" stroke-width="2"/>
      <line id="Línea_438" data-name="Línea 438" y1="31.234" x2="106.503" transform="translate(116.156 53.078)" fill="none" stroke="#0ac4bf" stroke-miterlimit="10" stroke-width="2"/>
      <line id="Línea_439" data-name="Línea 439" y1="31.234" x2="106.503" transform="translate(116.156 65.879)" fill="#fff" stroke="#0ac4bf" stroke-width="2"/>
      <line id="Línea_440" data-name="Línea 440" y1="31.234" x2="106.503" transform="translate(116.156 65.879)" fill="none" stroke="#0ac4bf" stroke-miterlimit="10" stroke-width="2"/>
      <line id="Línea_441" data-name="Línea 441" y1="31.234" x2="106.503" transform="translate(116.156 77.143)" fill="#fff" stroke="#0ac4bf" stroke-width="2"/>
      <line id="Línea_442" data-name="Línea 442" y1="31.234" x2="106.503" transform="translate(116.156 77.143)" fill="none" stroke="#0ac4bf" stroke-miterlimit="10" stroke-width="2"/>
      <line id="Línea_443" data-name="Línea 443" y1="31.234" x2="106.503" transform="translate(116.156 89.432)" fill="#fff" stroke="#0ac4bf" stroke-width="2"/>
      <line id="Línea_444" data-name="Línea 444" y1="31.234" x2="106.503" transform="translate(116.156 89.432)" fill="none" stroke="#0ac4bf" stroke-miterlimit="10" stroke-width="2"/>
      <path id="Trazado_154254" data-name="Trazado 154254" d="M126.342,88.113v68.174H110.293V8.921A8.227,8.227,0,0,1,118.317.5a7.807,7.807,0,0,1,5.667,2.464,8.588,8.588,0,0,1,2.357,5.956V76.571" transform="translate(-10.288 -0.5)" fill="none" stroke="#0ac4bf" stroke-miterlimit="10" stroke-width="1"/>
      <path id="Trazado_154255" data-name="Trazado 154255" d="M131.81,85.945a5.867,5.867,0,0,1-3.817,5.5v-11a5.855,5.855,0,0,1,3.817,5.495" transform="translate(-11.939 -7.957)" fill="#0ac4bf" stroke="#0ac4bf" stroke-width="1"/>
      <path id="Trazado_154256" data-name="Trazado 154256" d="M131.81,85.945a5.867,5.867,0,0,1-3.817,5.5v-11A5.855,5.855,0,0,1,131.81,85.945Z" transform="translate(-11.939 -7.957)" fill="#0ac4bf" stroke="#0ac4bf" stroke-miterlimit="10" stroke-width="1"/>
      <path id="Trazado_154257" data-name="Trazado 154257" d="M131.81,99.874a5.867,5.867,0,0,1-3.817,5.5v-11a5.855,5.855,0,0,1,3.817,5.495" transform="translate(-11.939 -9.257)" fill="#0ac4bf" stroke="#0ac4bf" stroke-width="1"/>
      <path id="Trazado_154258" data-name="Trazado 154258" d="M131.81,99.874a5.867,5.867,0,0,1-3.817,5.5v-11A5.855,5.855,0,0,1,131.81,99.874Z" transform="translate(-11.939 -9.257)" fill="#0ac4bf" stroke="#0ac4bf" stroke-miterlimit="10" stroke-width="1"/>
      <path id="Trazado_154259" data-name="Trazado 154259" d="M131.81,113.05a5.867,5.867,0,0,1-3.817,5.5v-11a5.854,5.854,0,0,1,3.817,5.495" transform="translate(-11.939 -10.486)" fill="#0ac4bf" stroke="#0ac4bf" stroke-width="1"/>
      <path id="Trazado_154260" data-name="Trazado 154260" d="M131.81,113.05a5.867,5.867,0,0,1-3.817,5.5v-11A5.854,5.854,0,0,1,131.81,113.05Z" transform="translate(-11.939 -10.486)" fill="#0ac4bf" stroke="#0ac4bf" stroke-miterlimit="10" stroke-width="1"/>
      <path id="Trazado_154261" data-name="Trazado 154261" d="M131.81,126.415a5.867,5.867,0,0,1-3.817,5.5v-11a5.855,5.855,0,0,1,3.817,5.495" transform="translate(-11.939 -11.732)" fill="#0ac4bf" stroke="#0ac4bf" stroke-width="1"/>
      <path id="Trazado_154262" data-name="Trazado 154262" d="M131.81,126.415a5.867,5.867,0,0,1-3.817,5.5v-11A5.855,5.855,0,0,1,131.81,126.415Z" transform="translate(-11.939 -11.732)" fill="#0ac4bf" stroke="#0ac4bf" stroke-miterlimit="10" stroke-width="1"/>
      <line id="Línea_446" data-name="Línea 446" x2="243.385" transform="translate(5.451 200.713)" fill="none" stroke="#0ac4bf" stroke-miterlimit="10" stroke-width="2"/>
      <path id="Trazado_154263" data-name="Trazado 154263" d="M158.16,165.009v62.679H74.533v-9.882h67.016V174.892H74.533v-9.882Z" transform="translate(-6.952 -9.223)" fill="#0ac4bf" stroke="#0ac4bf" stroke-width="2"/>
      <line id="Línea_447" data-name="Línea 447" y1="20.738" x2="20.738" transform="translate(4 176.733)" fill="#2e2e2d" stroke="#0ac4bf" stroke-width="2"/>
      <line id="Línea_449" data-name="Línea 449" x2="20.738" y2="20.738" transform="translate(4 176.733)" fill="#2e2e2d" stroke="#0ac4bf" stroke-width="2"/>
      <line id="Línea_450" data-name="Línea 450" x2="20.738" y2="20.738" transform="translate(4 176.733)" fill="none" stroke="#0ac4bf" stroke-miterlimit="10" stroke-width="2"/>
      <line id="Línea_451" data-name="Línea 451" y1="20.738" x2="20.738" transform="translate(30.626 176.733)" fill="#2e2e2d" stroke="#0ac4bf" stroke-width="2"/>
      <line id="Línea_452" data-name="Línea 452" y1="20.738" x2="20.738" transform="translate(30.626 176.733)" fill="none" stroke="#0ac4bf" stroke-miterlimit="10" stroke-width="2"/>
      <line id="Línea_453" data-name="Línea 453" x2="20.738" y2="20.738" transform="translate(30.626 176.733)" fill="#2e2e2d" stroke="#0ac4bf" stroke-width="2"/>
      <line id="Línea_455" data-name="Línea 455" y1="20.738" x2="20.738" transform="translate(56.739 176.733)" fill="#2e2e2d" stroke="#0ac4bf" stroke-width="2"/>
      <line id="Línea_456" data-name="Línea 456" y1="20.738" x2="20.738" transform="translate(56.739 176.733)" fill="none" stroke="#0ac4bf" stroke-miterlimit="10" stroke-width="2"/>
      <line id="Línea_457" data-name="Línea 457" x2="20.738" y2="20.738" transform="translate(56.739 176.733)" fill="#2e2e2d" stroke="#0ac4bf" stroke-width="2"/>
      <line id="Línea_459" data-name="Línea 459" y1="20.738" x2="20.738" transform="translate(81.829 176.733)" fill="#2e2e2d" stroke="#0ac4bf" stroke-width="2"/>
      <line id="Línea_460" data-name="Línea 460" y1="20.738" x2="20.738" transform="translate(81.829 176.733)" fill="none" stroke="#0ac4bf" stroke-miterlimit="10" stroke-width="2"/>
      <line id="Línea_461" data-name="Línea 461" x2="20.738" y2="20.738" transform="translate(81.829 176.733)" fill="#2e2e2d" stroke="#0ac4bf" stroke-width="2"/>
      <line id="Línea_463" data-name="Línea 463" y1="20.738" x2="20.738" transform="translate(107.942 176.733)" fill="#2e2e2d" stroke="#0ac4bf" stroke-width="2"/>
      <line id="Línea_464" data-name="Línea 464" y1="20.738" x2="20.738" transform="translate(107.942 176.733)" fill="none" stroke="#0ac4bf" stroke-miterlimit="10" stroke-width="2"/>
      <line id="Línea_465" data-name="Línea 465" x2="20.738" y2="20.738" transform="translate(107.942 176.733)" fill="#2e2e2d" stroke="#0ac4bf" stroke-width="2"/>
      <line id="Línea_467" data-name="Línea 467" y1="20.738" x2="20.738" transform="translate(168.618 176.733)" fill="#2e2e2d" stroke="#0ac4bf" stroke-width="2"/>
      <line id="Línea_468" data-name="Línea 468" y1="20.738" x2="20.738" transform="translate(168.618 176.733)" fill="none" stroke="#0ac4bf" stroke-miterlimit="10" stroke-width="2"/>
      <line id="Línea_469" data-name="Línea 469" x2="20.738" y2="20.738" transform="translate(168.618 176.733)" fill="#2e2e2d" stroke="#0ac4bf" stroke-width="2"/>
      <line id="Línea_471" data-name="Línea 471" y1="20.738" x2="20.738" transform="translate(200.62 176.733)" fill="#2e2e2d" stroke="#707070" stroke-width="2"/>
      <line id="Línea_472" data-name="Línea 472" y1="20.738" x2="20.738" transform="translate(200.62 176.733)" fill="none" stroke="#0ac4bf" stroke-miterlimit="10" stroke-width="2"/>
      <line id="Línea_473" data-name="Línea 473" x2="20.738" y2="20.738" transform="translate(200.62 176.733)" fill="#2e2e2d" stroke="#0ac4bf" stroke-width="2"/>
      <rect id="Rectángulo_26677" data-name="Rectángulo 26677" width="12.63" height="27.973" transform="translate(103.42 218.481)" fill="#0ac4bf" stroke="#0ac4bf" stroke-miterlimit="10" stroke-width="1"/>
      <rect id="Rectángulo_26678" data-name="Rectángulo 26678" width="26.882" height="4.352" transform="translate(96.677 246.369)" fill="#0ac4bf" stroke="#0ac4bf" stroke-miterlimit="10" stroke-width="1"/>
      <rect id="Rectángulo_26679" data-name="Rectángulo 26679" width="48.844" height="8.046" transform="matrix(0.828, -0.561, 0.561, 0.828, 85.469, 82.772)" fill="#0ac4bf" stroke="#0ac4bf" stroke-miterlimit="10" stroke-width="1"/>
      <line id="Línea_474" data-name="Línea 474" x2="243.385" transform="translate(5.451 173.491)" fill="none" stroke="#0ac4bf" stroke-miterlimit="10" stroke-width="2"/>
    </g>
  </g>
</svg>
