<svg xmlns="http://www.w3.org/2000/svg" width="86.24" height="87.194" viewBox="0 0 86.24 87.194">
  <g id="img5" transform="translate(-2.802)">
    <path id="Trazado_153514" data-name="Trazado 153514" d="M216.792,131.7l-4.826-9.946a1.491,1.491,0,0,1,0-1.3l4.071-8.39a1.491,1.491,0,0,0-1.341-2.142H158.444v67.24h56.2a1.491,1.491,0,0,0,1.341-2.142l-4.018-8.28a1.491,1.491,0,0,1,0-1.3l4.826-9.944a1.491,1.491,0,0,0,0-1.3l-4.826-9.944a1.491,1.491,0,0,1,0-1.3L216.792,133A1.491,1.491,0,0,0,216.792,131.7Z" transform="translate(-129.136 -91.201)" fill="#0ac4bf"/>
    <path id="Trazado_153515" data-name="Trazado 153515" d="M211.967,144.247a1.491,1.491,0,0,1,0-1.3L216.792,133a1.491,1.491,0,0,0,0-1.3l-4.826-9.945a1.491,1.491,0,0,1,0-1.3l4.071-8.39a1.491,1.491,0,0,0-1.341-2.142H207a1.491,1.491,0,0,1,1.341,2.142l-4.071,8.39a1.491,1.491,0,0,0,0,1.3L209.1,131.7a1.491,1.491,0,0,1,0,1.3l-4.826,9.944a1.491,1.491,0,0,0,0,1.3l4.826,9.944a1.491,1.491,0,0,1,0,1.3l-4.826,9.944a1.491,1.491,0,0,0,0,1.3l3.719,7.664H158.444v2.758h56.2a1.491,1.491,0,0,0,1.341-2.142l-.444-.915h0l-3.574-7.365a1.491,1.491,0,0,1,0-1.3l4.826-9.944a1.491,1.491,0,0,0,0-1.3Z" transform="translate(-129.136 -91.201)" fill="#92fdfa"/>
    <path id="Trazado_153516" data-name="Trazado 153516" d="M42.448,91.974h-24.5a7.89,7.89,0,0,1-7.89-7.89V15.549a8.3,8.3,0,0,1,8.3-8.3h24.09a8.3,8.3,0,0,1,8.3,8.3V83.675A8.3,8.3,0,0,1,42.448,91.974Z" transform="translate(-6.021 -6.015)" fill="#0ac4bf"/>
    <g id="Grupo_89706" data-name="Grupo 89706" transform="translate(4.038 1.235)">
      <path id="Trazado_153517" data-name="Trazado 153517" d="M162.752,7.25h-7.7a8.3,8.3,0,0,1,8.3,8.3V83.675a8.3,8.3,0,0,1-8.3,8.3h7.7a8.3,8.3,0,0,0,8.3-8.3V15.549A8.3,8.3,0,0,0,162.752,7.25Z" transform="translate(-130.363 -7.25)" fill="#92fdfa"/>
      <path id="Trazado_153518" data-name="Trazado 153518" d="M41,427.87H17.949a7.89,7.89,0,0,1-7.89-7.89h0a7.89,7.89,0,0,1,7.89-7.89H41a7.89,7.89,0,0,1,7.89,7.89h0A7.89,7.89,0,0,1,41,427.87Z" transform="translate(-10.059 -343.146)" fill="#92fdfa"/>
    </g>
    <path id="Trazado_153519" data-name="Trazado 153519" d="M83.941,52.5a.249.249,0,0,1,0-.218l4.825-9.942a2.716,2.716,0,0,0,0-2.385l-4.825-9.944a.249.249,0,0,1,0-.218l4.07-8.388a2.732,2.732,0,0,0-2.457-3.924H73.4a1.241,1.241,0,1,0,0,2.482H85.554a.25.25,0,0,1,.225.359l-4.07,8.388a2.716,2.716,0,0,0,0,2.385l4.825,9.944a.249.249,0,0,1,0,.218L81.708,51.2a2.716,2.716,0,0,0,0,2.385l4.825,9.943a.249.249,0,0,1,0,.218l-4.825,9.942a2.716,2.716,0,0,0,0,2.385l4.018,8.279a.25.25,0,0,1-.225.359H42.839l.008-.007q.171-.156.334-.319c.037-.037.073-.077.109-.115.073-.075.145-.151.216-.228.042-.047.083-.1.124-.143.062-.071.124-.142.184-.215.043-.052.084-.106.126-.16.056-.071.111-.142.165-.214.042-.057.082-.114.122-.172s.1-.144.15-.217.078-.12.116-.181.092-.147.137-.221.073-.126.109-.189.084-.15.124-.226.067-.13.1-.2.076-.154.113-.233.061-.134.091-.2.068-.159.1-.239.055-.137.081-.206.06-.164.089-.247.048-.139.071-.209.052-.169.077-.255c.02-.07.041-.14.06-.211.023-.087.044-.175.065-.264.017-.07.034-.14.049-.211.019-.091.036-.183.052-.275.013-.069.026-.138.037-.208.015-.1.027-.2.04-.293.008-.066.018-.132.025-.2.012-.11.019-.221.027-.332,0-.056.01-.111.013-.167q.013-.251.014-.506V19.964H65.68a1.241,1.241,0,0,0,0-2.482H45.967V9.539A9.55,9.55,0,0,0,36.427,0H12.341A9.55,9.55,0,0,0,2.8,9.539V53.4a1.241,1.241,0,0,0,2.482,0V9.539a7.065,7.065,0,0,1,7.057-7.057H36.427a7.065,7.065,0,0,1,7.057,7.057V74.762a9.143,9.143,0,0,0-8.509-5.828H11.932a9.1,9.1,0,0,0-6.648,2.882v-10.6a1.241,1.241,0,0,0-2.482,0V77.655c0,.069,0,.136.005.2s-.005.136-.005.2a9.14,9.14,0,0,0,9.13,9.13H85.5a2.732,2.732,0,0,0,2.457-3.924L83.94,74.991a.249.249,0,0,1,0-.218l4.825-9.942a2.716,2.716,0,0,0,0-2.385ZM34.975,84.712H12.341a7.064,7.064,0,0,1-7.052-6.853,6.655,6.655,0,0,1,6.643-6.443H34.975a6.648,6.648,0,0,1,0,13.3Z"/>
    <path id="Trazado_153520" data-name="Trazado 153520" d="M56.538,430.767H33.495a4.708,4.708,0,0,0-4.7,4.885,4.733,4.733,0,0,0,4.786,4.524H56.538a1.241,1.241,0,1,0,0-2.482H33.58a2.287,2.287,0,0,1-2.306-2.136,2.226,2.226,0,0,1,2.221-2.309H56.538a2.224,2.224,0,0,1,1.673.762.1.1,0,0,1,.015.129.136.136,0,0,1-.136.091H47.422a1.241,1.241,0,0,0,0,2.482H58.09a2.6,2.6,0,0,0,2.4-1.547,2.574,2.574,0,0,0-.407-2.789A4.706,4.706,0,0,0,56.538,430.767Z" transform="translate(-21.563 -357.407)"/>
  </g>
</svg>
