<svg xmlns="http://www.w3.org/2000/svg" width="187.374" height="176.805" viewBox="0 0 187.374 176.805">
  <g id="img6" transform="translate(-390.147 -348.737)">
    <g id="Grupo_89707" data-name="Grupo 89707" transform="translate(464.898 386.407)">
      <path id="Trazado_153521" data-name="Trazado 153521" d="M646.664,461.785a18.551,18.551,0,0,0-.248-9.82c-1.242-3.673-5.22-3.746-5.22-3.746H586.062v13.565Z" transform="translate(-585.477 -447.635)" fill="#d67da6"/>
      <path id="Trazado_153522" data-name="Trazado 153522" d="M646.2,461.434H584.541V446.7h55.72c.055,0,4.416.127,5.774,4.143a18.932,18.932,0,0,1,.266,10.127Zm-60.492-1.17h59.539a17.482,17.482,0,0,0-.323-9.047,5.178,5.178,0,0,0-4.678-3.349H585.711Z" transform="translate(-584.541 -446.699)" fill="#fff"/>
    </g>
    <g id="Grupo_89708" data-name="Grupo 89708" transform="translate(453.741 386.407)">
      <path id="Trazado_153523" data-name="Trazado 153523" d="M623.633,448.22H564.039c-5.284,0-6.991,3.007-6.991,7.981v76.422h1.042v8.005h55.135s3.977-.073,5.219-3.747a15.235,15.235,0,0,0,.759-4.259h.024v-.578c0-.042,0-.082,0-.123V457.009S618.669,449.066,623.633,448.22Z" transform="translate(-556.463 -447.635)" fill="#fff"/>
      <path id="Trazado_153524" data-name="Trazado 153524" d="M612.293,540.277H556.569v-8.005h-1.042V455.265c0-5.844,2.408-8.566,7.576-8.566H622.7l.1,1.161c-4.391.749-3.925,8.1-3.92,8.171v76.241h-.057a15.343,15.343,0,0,1-.758,3.861c-1.357,4.018-5.718,4.143-5.762,4.144Zm-54.555-1.17h54.543a5.171,5.171,0,0,0,4.672-3.348,14.534,14.534,0,0,0,.729-4.1l.024-.633V456.072c-.018-.248-.36-5.694,2.447-8.2H563.1c-4.49,0-6.406,2.212-6.406,7.4V531.1h1.042Z" transform="translate(-555.527 -446.699)" fill="#fff"/>
    </g>
    <g id="Grupo_89731" data-name="Grupo 89731" transform="translate(460.558 402.977)">
      <g id="Grupo_89719" data-name="Grupo 89719" transform="translate(0 0)">
        <g id="Grupo_89713" data-name="Grupo 89713">
          <g id="Grupo_89710" data-name="Grupo 89710">
            <g id="Grupo_89709" data-name="Grupo 89709">
              <rect id="Rectángulo_26329" data-name="Rectángulo 26329" width="22.179" height="1.679" transform="translate(0.877 0.877)" fill="#bcbec0"/>
              <rect id="Rectángulo_26330" data-name="Rectángulo 26330" width="23.934" height="3.434" fill="#bcbec0"/>
            </g>
          </g>
          <g id="Grupo_89712" data-name="Grupo 89712" transform="translate(27.492)">
            <g id="Grupo_89711" data-name="Grupo 89711">
              <rect id="Rectángulo_26331" data-name="Rectángulo 26331" width="22.18" height="1.679" transform="translate(0.878 0.877)" fill="#bcbec0"/>
              <rect id="Rectángulo_26332" data-name="Rectángulo 26332" width="23.935" height="3.434" fill="#bcbec0"/>
            </g>
          </g>
        </g>
        <g id="Grupo_89718" data-name="Grupo 89718" transform="translate(0 6.24)">
          <g id="Grupo_89715" data-name="Grupo 89715">
            <g id="Grupo_89714" data-name="Grupo 89714">
              <rect id="Rectángulo_26333" data-name="Rectángulo 26333" width="22.179" height="1.678" transform="translate(0.877 0.877)" fill="#bcbec0"/>
              <rect id="Rectángulo_26334" data-name="Rectángulo 26334" width="23.934" height="3.433" fill="#bcbec0"/>
            </g>
          </g>
          <g id="Grupo_89717" data-name="Grupo 89717" transform="translate(27.492)">
            <g id="Grupo_89716" data-name="Grupo 89716">
              <rect id="Rectángulo_26335" data-name="Rectángulo 26335" width="22.18" height="1.678" transform="translate(0.878 0.877)" fill="#bcbec0"/>
              <rect id="Rectángulo_26336" data-name="Rectángulo 26336" width="23.935" height="3.433" fill="#bcbec0"/>
            </g>
          </g>
        </g>
      </g>
      <g id="Grupo_89730" data-name="Grupo 89730" transform="translate(0 14.434)">
        <g id="Grupo_89724" data-name="Grupo 89724">
          <g id="Grupo_89721" data-name="Grupo 89721">
            <g id="Grupo_89720" data-name="Grupo 89720">
              <rect id="Rectángulo_26337" data-name="Rectángulo 26337" width="22.179" height="1.679" transform="translate(0.877 0.877)" fill="#bcbec0"/>
              <rect id="Rectángulo_26338" data-name="Rectángulo 26338" width="23.934" height="3.434" fill="#bcbec0"/>
            </g>
          </g>
          <g id="Grupo_89723" data-name="Grupo 89723" transform="translate(27.492)">
            <g id="Grupo_89722" data-name="Grupo 89722">
              <rect id="Rectángulo_26339" data-name="Rectángulo 26339" width="22.18" height="1.679" transform="translate(0.878 0.877)" fill="#bcbec0"/>
              <rect id="Rectángulo_26340" data-name="Rectángulo 26340" width="23.935" height="3.434" fill="#bcbec0"/>
            </g>
          </g>
        </g>
        <g id="Grupo_89729" data-name="Grupo 89729" transform="translate(0 6.24)">
          <g id="Grupo_89726" data-name="Grupo 89726">
            <g id="Grupo_89725" data-name="Grupo 89725">
              <rect id="Rectángulo_26341" data-name="Rectángulo 26341" width="22.179" height="1.679" transform="translate(0.877 0.877)" fill="#bcbec0"/>
              <rect id="Rectángulo_26342" data-name="Rectángulo 26342" width="23.934" height="3.434" fill="#bcbec0"/>
            </g>
          </g>
          <g id="Grupo_89728" data-name="Grupo 89728" transform="translate(27.492)">
            <g id="Grupo_89727" data-name="Grupo 89727">
              <rect id="Rectángulo_26343" data-name="Rectángulo 26343" width="22.18" height="1.679" transform="translate(0.878 0.877)" fill="#bcbec0"/>
              <rect id="Rectángulo_26344" data-name="Rectángulo 26344" width="23.935" height="3.434" fill="#bcbec0"/>
            </g>
          </g>
        </g>
      </g>
    </g>
    <g id="Grupo_89754" data-name="Grupo 89754" transform="translate(460.558 433.791)">
      <g id="Grupo_89742" data-name="Grupo 89742">
        <g id="Grupo_89736" data-name="Grupo 89736">
          <g id="Grupo_89733" data-name="Grupo 89733">
            <g id="Grupo_89732" data-name="Grupo 89732">
              <rect id="Rectángulo_26345" data-name="Rectángulo 26345" width="22.179" height="1.68" transform="translate(0.877 0.877)" fill="#bcbec0"/>
              <rect id="Rectángulo_26346" data-name="Rectángulo 26346" width="23.934" height="3.434" fill="#bcbec0"/>
            </g>
          </g>
          <g id="Grupo_89735" data-name="Grupo 89735" transform="translate(27.492)">
            <g id="Grupo_89734" data-name="Grupo 89734">
              <rect id="Rectángulo_26347" data-name="Rectángulo 26347" width="22.18" height="1.68" transform="translate(0.878 0.877)" fill="#bcbec0"/>
              <rect id="Rectángulo_26348" data-name="Rectángulo 26348" width="23.935" height="3.434" fill="#bcbec0"/>
            </g>
          </g>
        </g>
        <g id="Grupo_89741" data-name="Grupo 89741" transform="translate(0 6.24)">
          <g id="Grupo_89738" data-name="Grupo 89738">
            <g id="Grupo_89737" data-name="Grupo 89737">
              <rect id="Rectángulo_26349" data-name="Rectángulo 26349" width="22.179" height="1.678" transform="translate(0.877 0.877)" fill="#bcbec0"/>
              <rect id="Rectángulo_26350" data-name="Rectángulo 26350" width="23.934" height="3.433" fill="#bcbec0"/>
            </g>
          </g>
          <g id="Grupo_89740" data-name="Grupo 89740" transform="translate(27.492)">
            <g id="Grupo_89739" data-name="Grupo 89739">
              <rect id="Rectángulo_26351" data-name="Rectángulo 26351" width="22.18" height="1.678" transform="translate(0.878 0.877)" fill="#bcbec0"/>
              <rect id="Rectángulo_26352" data-name="Rectángulo 26352" width="23.935" height="3.433" fill="#bcbec0"/>
            </g>
          </g>
        </g>
      </g>
      <g id="Grupo_89753" data-name="Grupo 89753" transform="translate(0 14.434)">
        <g id="Grupo_89747" data-name="Grupo 89747">
          <g id="Grupo_89744" data-name="Grupo 89744">
            <g id="Grupo_89743" data-name="Grupo 89743">
              <rect id="Rectángulo_26353" data-name="Rectángulo 26353" width="22.179" height="1.68" transform="translate(0.877 0.877)" fill="#bcbec0"/>
              <rect id="Rectángulo_26354" data-name="Rectángulo 26354" width="23.934" height="3.434" fill="#bcbec0"/>
            </g>
          </g>
          <g id="Grupo_89746" data-name="Grupo 89746" transform="translate(27.492)">
            <g id="Grupo_89745" data-name="Grupo 89745">
              <rect id="Rectángulo_26355" data-name="Rectángulo 26355" width="22.18" height="1.68" transform="translate(0.878 0.877)" fill="#bcbec0"/>
              <rect id="Rectángulo_26356" data-name="Rectángulo 26356" width="23.935" height="3.434" fill="#bcbec0"/>
            </g>
          </g>
        </g>
        <g id="Grupo_89752" data-name="Grupo 89752" transform="translate(0 6.24)">
          <g id="Grupo_89749" data-name="Grupo 89749">
            <g id="Grupo_89748" data-name="Grupo 89748">
              <rect id="Rectángulo_26357" data-name="Rectángulo 26357" width="22.179" height="1.679" transform="translate(0.877 0.877)" fill="#bcbec0"/>
              <rect id="Rectángulo_26358" data-name="Rectángulo 26358" width="23.934" height="3.434" fill="#bcbec0"/>
            </g>
          </g>
          <g id="Grupo_89751" data-name="Grupo 89751" transform="translate(27.492)">
            <g id="Grupo_89750" data-name="Grupo 89750">
              <rect id="Rectángulo_26359" data-name="Rectángulo 26359" width="22.18" height="1.679" transform="translate(0.878 0.877)" fill="#bcbec0"/>
              <rect id="Rectángulo_26360" data-name="Rectángulo 26360" width="23.935" height="3.434" fill="#bcbec0"/>
            </g>
          </g>
        </g>
      </g>
    </g>
    <g id="Grupo_89755" data-name="Grupo 89755" transform="translate(443.626 348.737)">
      <path id="Trazado_153525" data-name="Trazado 153525" d="M592.923,471.548V359.318h-.007a15.747,15.747,0,0,0-.775-5.314c-1.242-3.673-5.219-3.746-5.219-3.746H531.787v9.06h-1.044V472.355c0,4.974,1.707,7.981,6.991,7.981h59.594C592.364,479.49,592.923,471.548,592.923,471.548Z" transform="translate(-530.158 -349.673)" fill="#f2d6e3"/>
      <path id="Trazado_153526" data-name="Trazado 153526" d="M596.392,479.985H536.8c-5.168,0-7.576-2.721-7.576-8.566V357.8h1.044v-9.06h55.72c.055,0,4.415.127,5.773,4.144a15.962,15.962,0,0,1,.808,5.1l0,.4V470.612c-.007.116-.463,7.465,3.919,8.213Zm-66-121.018V471.419c0,5.185,1.916,7.4,6.406,7.4h57.051c-2.807-2.511-2.466-7.963-2.445-8.245l0-111.6h-.009l0-.594a15.047,15.047,0,0,0-.744-5.118,5.179,5.179,0,0,0-4.678-3.349H531.436v9.06Z" transform="translate(-529.222 -348.737)" fill="#fff"/>
    </g>
    <g id="Grupo_89756" data-name="Grupo 89756" transform="translate(433.513 348.737)">
      <path id="Trazado_153527" data-name="Trazado 153527" d="M566.624,434.661V359.047s-.559-7.943,4.406-8.789H511.435c-5.284,0-6.991,3.007-6.991,7.981v76.422Z" transform="translate(-503.859 -349.673)" fill="#fff"/>
      <path id="Trazado_153528" data-name="Trazado 153528" d="M566.273,434.31h-63.35V357.3c0-5.845,2.407-8.566,7.576-8.566h59.594l.1,1.162c-4.391.749-3.925,8.1-3.92,8.171Zm-62.18-1.17H565.1v-75.03c-.019-.248-.36-5.694,2.446-8.2H510.5c-4.49,0-6.406,2.212-6.406,7.4Z" transform="translate(-502.923 -348.737)" fill="#fff"/>
    </g>
    <g id="Grupo_89757" data-name="Grupo 89757" transform="translate(434.559 427.698)">
      <path id="Trazado_153529" data-name="Trazado 153529" d="M567.766,555.6a18.542,18.542,0,0,1-.248,9.82c-1.242,3.672-5.219,3.746-5.219,3.746H507.164V555.6Z" transform="translate(-506.579 -555.013)" fill="#fff"/>
      <path id="Trazado_153530" data-name="Trazado 153530" d="M561.368,568.813H505.643V554.077H567.3l.1.464a18.934,18.934,0,0,1-.266,10.128c-1.358,4.016-5.719,4.143-5.763,4.144Zm-54.555-1.17h54.542a5.175,5.175,0,0,0,4.673-3.348,17.483,17.483,0,0,0,.323-9.048H506.813Z" transform="translate(-505.643 -554.077)" fill="#fff"/>
    </g>
    <g id="Grupo_89780" data-name="Grupo 89780" transform="translate(439.462 371.072)">
      <g id="Grupo_89768" data-name="Grupo 89768">
        <g id="Grupo_89762" data-name="Grupo 89762">
          <g id="Grupo_89759" data-name="Grupo 89759">
            <g id="Grupo_89758" data-name="Grupo 89758">
              <rect id="Rectángulo_26361" data-name="Rectángulo 26361" width="22.179" height="1.68" transform="translate(0.877 0.877)" fill="#bcbec0"/>
              <rect id="Rectángulo_26362" data-name="Rectángulo 26362" width="23.934" height="3.434" fill="#bcbec0"/>
            </g>
          </g>
          <g id="Grupo_89761" data-name="Grupo 89761" transform="translate(27.492)">
            <g id="Grupo_89760" data-name="Grupo 89760">
              <rect id="Rectángulo_26363" data-name="Rectángulo 26363" width="22.18" height="1.68" transform="translate(0.877 0.877)" fill="#bcbec0"/>
              <rect id="Rectángulo_26364" data-name="Rectángulo 26364" width="23.935" height="3.434" fill="#bcbec0"/>
            </g>
          </g>
        </g>
        <g id="Grupo_89767" data-name="Grupo 89767" transform="translate(0 6.24)">
          <g id="Grupo_89764" data-name="Grupo 89764">
            <g id="Grupo_89763" data-name="Grupo 89763">
              <rect id="Rectángulo_26365" data-name="Rectángulo 26365" width="22.179" height="1.678" transform="translate(0.877 0.878)" fill="#bcbec0"/>
              <rect id="Rectángulo_26366" data-name="Rectángulo 26366" width="23.934" height="3.433" fill="#bcbec0"/>
            </g>
          </g>
          <g id="Grupo_89766" data-name="Grupo 89766" transform="translate(27.492)">
            <g id="Grupo_89765" data-name="Grupo 89765">
              <rect id="Rectángulo_26367" data-name="Rectángulo 26367" width="22.18" height="1.678" transform="translate(0.877 0.878)" fill="#bcbec0"/>
              <rect id="Rectángulo_26368" data-name="Rectángulo 26368" width="23.935" height="3.433" fill="#bcbec0"/>
            </g>
          </g>
        </g>
      </g>
      <g id="Grupo_89779" data-name="Grupo 89779" transform="translate(0 14.434)">
        <g id="Grupo_89773" data-name="Grupo 89773">
          <g id="Grupo_89770" data-name="Grupo 89770">
            <g id="Grupo_89769" data-name="Grupo 89769">
              <rect id="Rectángulo_26369" data-name="Rectángulo 26369" width="22.179" height="1.679" transform="translate(0.877 0.877)" fill="#bcbec0"/>
              <rect id="Rectángulo_26370" data-name="Rectángulo 26370" width="23.934" height="3.434" fill="#bcbec0"/>
            </g>
          </g>
          <g id="Grupo_89772" data-name="Grupo 89772" transform="translate(27.492)">
            <g id="Grupo_89771" data-name="Grupo 89771">
              <rect id="Rectángulo_26371" data-name="Rectángulo 26371" width="22.18" height="1.679" transform="translate(0.877 0.877)" fill="#bcbec0"/>
              <rect id="Rectángulo_26372" data-name="Rectángulo 26372" width="23.935" height="3.434" fill="#bcbec0"/>
            </g>
          </g>
        </g>
        <g id="Grupo_89778" data-name="Grupo 89778" transform="translate(0 6.24)">
          <g id="Grupo_89775" data-name="Grupo 89775">
            <g id="Grupo_89774" data-name="Grupo 89774">
              <rect id="Rectángulo_26373" data-name="Rectángulo 26373" width="22.179" height="1.679" transform="translate(0.877 0.877)" fill="#bcbec0"/>
              <rect id="Rectángulo_26374" data-name="Rectángulo 26374" width="23.934" height="3.434" fill="#bcbec0"/>
            </g>
          </g>
          <g id="Grupo_89777" data-name="Grupo 89777" transform="translate(27.492)">
            <g id="Grupo_89776" data-name="Grupo 89776">
              <rect id="Rectángulo_26375" data-name="Rectángulo 26375" width="22.18" height="1.679" transform="translate(0.877 0.877)" fill="#bcbec0"/>
              <rect id="Rectángulo_26376" data-name="Rectángulo 26376" width="23.935" height="3.434" fill="#bcbec0"/>
            </g>
          </g>
        </g>
      </g>
    </g>
    <g id="Grupo_89803" data-name="Grupo 89803" transform="translate(439.462 401.886)">
      <g id="Grupo_89791" data-name="Grupo 89791" transform="translate(0 0)">
        <g id="Grupo_89785" data-name="Grupo 89785">
          <g id="Grupo_89782" data-name="Grupo 89782">
            <g id="Grupo_89781" data-name="Grupo 89781">
              <rect id="Rectángulo_26377" data-name="Rectángulo 26377" width="22.179" height="1.68" transform="translate(0.877 0.877)" fill="#bcbec0"/>
              <rect id="Rectángulo_26378" data-name="Rectángulo 26378" width="23.934" height="3.434" fill="#bcbec0"/>
            </g>
          </g>
          <g id="Grupo_89784" data-name="Grupo 89784" transform="translate(27.492)">
            <g id="Grupo_89783" data-name="Grupo 89783">
              <rect id="Rectángulo_26379" data-name="Rectángulo 26379" width="22.18" height="1.68" transform="translate(0.877 0.877)" fill="#bcbec0"/>
              <rect id="Rectángulo_26380" data-name="Rectángulo 26380" width="23.935" height="3.434" fill="#bcbec0"/>
            </g>
          </g>
        </g>
        <g id="Grupo_89790" data-name="Grupo 89790" transform="translate(0 6.24)">
          <g id="Grupo_89787" data-name="Grupo 89787">
            <g id="Grupo_89786" data-name="Grupo 89786">
              <rect id="Rectángulo_26381" data-name="Rectángulo 26381" width="22.179" height="1.678" transform="translate(0.877 0.877)" fill="#bcbec0"/>
              <rect id="Rectángulo_26382" data-name="Rectángulo 26382" width="23.934" height="3.433" fill="#bcbec0"/>
            </g>
          </g>
          <g id="Grupo_89789" data-name="Grupo 89789" transform="translate(27.492)">
            <g id="Grupo_89788" data-name="Grupo 89788">
              <rect id="Rectángulo_26383" data-name="Rectángulo 26383" width="22.18" height="1.678" transform="translate(0.877 0.877)" fill="#bcbec0"/>
              <rect id="Rectángulo_26384" data-name="Rectángulo 26384" width="23.935" height="3.433" fill="#bcbec0"/>
            </g>
          </g>
        </g>
      </g>
      <g id="Grupo_89802" data-name="Grupo 89802" transform="translate(0 14.434)">
        <g id="Grupo_89796" data-name="Grupo 89796">
          <g id="Grupo_89793" data-name="Grupo 89793">
            <g id="Grupo_89792" data-name="Grupo 89792">
              <rect id="Rectángulo_26385" data-name="Rectángulo 26385" width="22.179" height="1.679" transform="translate(0.877 0.878)" fill="#bcbec0"/>
              <rect id="Rectángulo_26386" data-name="Rectángulo 26386" width="23.934" height="3.434" fill="#bcbec0"/>
            </g>
          </g>
          <g id="Grupo_89795" data-name="Grupo 89795" transform="translate(27.492)">
            <g id="Grupo_89794" data-name="Grupo 89794">
              <rect id="Rectángulo_26387" data-name="Rectángulo 26387" width="22.18" height="1.679" transform="translate(0.877 0.878)" fill="#bcbec0"/>
              <rect id="Rectángulo_26388" data-name="Rectángulo 26388" width="23.935" height="3.434" fill="#bcbec0"/>
            </g>
          </g>
        </g>
        <g id="Grupo_89801" data-name="Grupo 89801" transform="translate(0 6.24)">
          <g id="Grupo_89798" data-name="Grupo 89798">
            <g id="Grupo_89797" data-name="Grupo 89797">
              <rect id="Rectángulo_26389" data-name="Rectángulo 26389" width="22.179" height="1.679" transform="translate(0.877 0.877)" fill="#bcbec0"/>
              <rect id="Rectángulo_26390" data-name="Rectángulo 26390" width="23.934" height="3.434" fill="#bcbec0"/>
            </g>
          </g>
          <g id="Grupo_89800" data-name="Grupo 89800" transform="translate(27.492)">
            <g id="Grupo_89799" data-name="Grupo 89799">
              <rect id="Rectángulo_26391" data-name="Rectángulo 26391" width="22.18" height="1.679" transform="translate(0.877 0.877)" fill="#bcbec0"/>
              <rect id="Rectángulo_26392" data-name="Rectángulo 26392" width="23.935" height="3.434" fill="#bcbec0"/>
            </g>
          </g>
        </g>
      </g>
    </g>
    <g id="Grupo_89804" data-name="Grupo 89804" transform="translate(423.402 393.429)">
      <path id="Trazado_153531" data-name="Trazado 153531" d="M540.329,505.527V475.609c0-.262.006-.524,0-.786v-.146h-.007a15.3,15.3,0,0,0-.767-4.448c-1.242-3.673-5.219-3.747-5.219-3.747H479.2v8.195h-1.052v31.658c0,4.974,1.707,7.981,6.991,7.981h59.594C539.77,513.47,540.329,505.527,540.329,505.527Z" transform="translate(-477.564 -465.897)" fill="#d67da6"/>
      <path id="Trazado_153532" data-name="Trazado 153532" d="M543.8,513.965H484.2c-5.169,0-7.576-2.723-7.576-8.566V473.156h1.052v-8.195H533.4c.055,0,4.416.127,5.773,4.144a15.434,15.434,0,0,1,.772,4.051h.027l.006.731c.007.256,0,.526,0,.8v29.909c-.006.114-.463,7.465,3.918,8.211Zm-66-39.639V505.4c0,5.184,1.916,7.4,6.406,7.4h57.051c-2.807-2.511-2.466-7.964-2.445-8.245l0-29.878c0-.262.007-.514,0-.765l-.007-.148a14.6,14.6,0,0,0-.737-4.28,5.177,5.177,0,0,0-4.677-3.349H478.85v8.195Z" transform="translate(-476.628 -464.961)" fill="#fff"/>
    </g>
    <g id="Grupo_89805" data-name="Grupo 89805" transform="translate(413.297 393.429)">
      <path id="Trazado_153533" data-name="Trazado 153533" d="M514.052,573.676V475.271s-.559-7.942,4.405-8.789H458.863c-5.284,0-6.991,3.007-6.991,7.981v99.213Z" transform="translate(-451.287 -465.897)" fill="#fff"/>
      <path id="Trazado_153534" data-name="Trazado 153534" d="M513.7,573.325H450.35v-99.8c0-5.844,2.407-8.566,7.576-8.566H517.52l.1,1.162c-4.391.749-3.925,8.1-3.92,8.171Zm-62.18-1.17h61.01v-97.82c-.019-.248-.36-5.694,2.446-8.2h-57.05c-4.491,0-6.406,2.212-6.406,7.4Z" transform="translate(-450.35 -464.961)" fill="#fff"/>
    </g>
    <g id="Grupo_89828" data-name="Grupo 89828" transform="translate(419.337 406.319)">
      <g id="Grupo_89816" data-name="Grupo 89816" transform="translate(0)">
        <g id="Grupo_89810" data-name="Grupo 89810">
          <g id="Grupo_89807" data-name="Grupo 89807">
            <g id="Grupo_89806" data-name="Grupo 89806">
              <rect id="Rectángulo_26393" data-name="Rectángulo 26393" width="22.179" height="1.679" transform="translate(0.878 0.877)" fill="#bcbec0"/>
              <rect id="Rectángulo_26394" data-name="Rectángulo 26394" width="23.934" height="3.434" fill="#bcbec0"/>
            </g>
          </g>
          <g id="Grupo_89809" data-name="Grupo 89809" transform="translate(27.493)">
            <g id="Grupo_89808" data-name="Grupo 89808">
              <rect id="Rectángulo_26395" data-name="Rectángulo 26395" width="22.18" height="1.679" transform="translate(0.877 0.877)" fill="#bcbec0"/>
              <rect id="Rectángulo_26396" data-name="Rectángulo 26396" width="23.935" height="3.434" fill="#bcbec0"/>
            </g>
          </g>
        </g>
        <g id="Grupo_89815" data-name="Grupo 89815" transform="translate(0 6.24)">
          <g id="Grupo_89812" data-name="Grupo 89812">
            <g id="Grupo_89811" data-name="Grupo 89811">
              <rect id="Rectángulo_26397" data-name="Rectángulo 26397" width="22.179" height="1.678" transform="translate(0.878 0.877)" fill="#bcbec0"/>
              <rect id="Rectángulo_26398" data-name="Rectángulo 26398" width="23.934" height="3.433" fill="#bcbec0"/>
            </g>
          </g>
          <g id="Grupo_89814" data-name="Grupo 89814" transform="translate(27.493)">
            <g id="Grupo_89813" data-name="Grupo 89813">
              <rect id="Rectángulo_26399" data-name="Rectángulo 26399" width="22.18" height="1.678" transform="translate(0.877 0.877)" fill="#bcbec0"/>
              <rect id="Rectángulo_26400" data-name="Rectángulo 26400" width="23.935" height="3.433" fill="#bcbec0"/>
            </g>
          </g>
        </g>
      </g>
      <g id="Grupo_89827" data-name="Grupo 89827" transform="translate(0 14.434)">
        <g id="Grupo_89821" data-name="Grupo 89821">
          <g id="Grupo_89818" data-name="Grupo 89818">
            <g id="Grupo_89817" data-name="Grupo 89817">
              <rect id="Rectángulo_26401" data-name="Rectángulo 26401" width="22.179" height="1.679" transform="translate(0.878 0.877)" fill="#bcbec0"/>
              <rect id="Rectángulo_26402" data-name="Rectángulo 26402" width="23.934" height="3.433" fill="#bcbec0"/>
            </g>
          </g>
          <g id="Grupo_89820" data-name="Grupo 89820" transform="translate(27.493)">
            <g id="Grupo_89819" data-name="Grupo 89819">
              <rect id="Rectángulo_26403" data-name="Rectángulo 26403" width="22.18" height="1.679" transform="translate(0.877 0.877)" fill="#bcbec0"/>
              <rect id="Rectángulo_26404" data-name="Rectángulo 26404" width="23.935" height="3.433" fill="#bcbec0"/>
            </g>
          </g>
        </g>
        <g id="Grupo_89826" data-name="Grupo 89826" transform="translate(0 6.239)">
          <g id="Grupo_89823" data-name="Grupo 89823">
            <g id="Grupo_89822" data-name="Grupo 89822">
              <rect id="Rectángulo_26405" data-name="Rectángulo 26405" width="22.179" height="1.679" transform="translate(0.878 0.877)" fill="#bcbec0"/>
              <rect id="Rectángulo_26406" data-name="Rectángulo 26406" width="23.934" height="3.434" fill="#bcbec0"/>
            </g>
          </g>
          <g id="Grupo_89825" data-name="Grupo 89825" transform="translate(27.493)">
            <g id="Grupo_89824" data-name="Grupo 89824">
              <rect id="Rectángulo_26407" data-name="Rectángulo 26407" width="22.18" height="1.679" transform="translate(0.877 0.877)" fill="#bcbec0"/>
              <rect id="Rectángulo_26408" data-name="Rectángulo 26408" width="23.935" height="3.434" fill="#bcbec0"/>
            </g>
          </g>
        </g>
      </g>
    </g>
    <g id="Grupo_89840" data-name="Grupo 89840" transform="translate(482.433 482.608)">
      <g id="Grupo_89839" data-name="Grupo 89839">
        <rect id="Rectángulo_26411" data-name="Rectángulo 26411" width="59.358" height="39.509" fill="#2faa95"/>
        <g id="Grupo_89835" data-name="Grupo 89835" transform="translate(0 1.953)">
          <rect id="Rectángulo_26412" data-name="Rectángulo 26412" width="57.203" height="35.602" fill="#fff"/>
        </g>
        <g id="Grupo_89836" data-name="Grupo 89836" transform="translate(0 3.494)">
          <path id="Trazado_153539" data-name="Trazado 153539" d="M676.039,706.018c0-.021,0-.04,0-.058h-45.9v.113c0,.038,0,.073,0,.113s0,.066,0,.1v32.138c0,.019,0,.039,0,.058h46.072a9.625,9.625,0,0,1,9.281-9.339V715.553A9.626,9.626,0,0,1,676.039,706.018Z" transform="translate(-630.141 -705.96)" fill="#0ac4bf"/>
        </g>
        <g id="Grupo_89838" data-name="Grupo 89838" transform="translate(11.26 8.148)">
          <g id="Grupo_89837" data-name="Grupo 89837">
            <path id="Trazado_153540" data-name="Trazado 153540" d="M682.634,729.668a11.606,11.606,0,1,0-11.6,11.609A11.618,11.618,0,0,0,682.634,729.668Z" transform="translate(-659.423 -718.064)" fill="#fff"/>
            <path id="Trazado_153541" data-name="Trazado 153541" d="M662.12,731.69a10.5,10.5,0,1,1,10.5,10.5A10.5,10.5,0,0,1,662.12,731.69Z" transform="translate(-661.083 -719.99)" fill="#fff"/>
          </g>
        </g>
      </g>
      <rect id="Rectángulo_26413" data-name="Rectángulo 26413" width="5.323" height="1.491" transform="translate(37.716 19.008)" fill="#fff"/>
      <rect id="Rectángulo_26414" data-name="Rectángulo 26414" width="5.32" height="1.491" transform="translate(44.958 19.008)" fill="#fff"/>
      <rect id="Rectángulo_26415" data-name="Rectángulo 26415" width="5.324" height="1.491" transform="translate(3.432 19.008)" fill="#fff"/>
    </g>
    <g id="Grupo_89845" data-name="Grupo 89845" transform="translate(549.897 473.011)">
      <g id="Grupo_89844" data-name="Grupo 89844" transform="translate(0)">
        <g id="Grupo_89843" data-name="Grupo 89843">
          <g id="Grupo_89842" data-name="Grupo 89842">
            <g id="Grupo_89841" data-name="Grupo 89841">
              <path id="Trazado_153542" data-name="Trazado 153542" d="M819.393,671.915a13.813,13.813,0,1,0,13.813,13.813A13.827,13.827,0,0,0,819.393,671.915Z" transform="translate(-805.583 -671.915)" fill="#97dedc"/>
            </g>
            <path id="Trazado_153543" data-name="Trazado 153543" d="M835.587,691.1a10.253,10.253,0,1,1-10.255-10.252A10.254,10.254,0,0,1,835.587,691.1Z" transform="translate(-811.429 -677.416)" fill="#0ac4bf"/>
          </g>
        </g>
      </g>
      <path id="Trazado_153544" data-name="Trazado 153544" d="M838.84,693.316V692.9a1.868,1.868,0,0,0-.43-1.245,1.32,1.32,0,0,0-1.064-.534h-2.413v-1.677h-1.044v1.677h-2.412a1.323,1.323,0,0,0-1.066.533,1.881,1.881,0,0,0-.43,1.246v2.426a1.875,1.875,0,0,0,.43,1.246,1.322,1.322,0,0,0,1.066.534h5.869c.257,0,.451.25.451.582v2.441c0,.333-.194.581-.451.581h-5.869c-.257,0-.453-.249-.453-.581v-.413h-1.043v.413a1.885,1.885,0,0,0,.43,1.248,1.324,1.324,0,0,0,1.066.533h2.412v1.677h1.044v-1.677h2.413a1.323,1.323,0,0,0,1.064-.533,1.877,1.877,0,0,0,.43-1.248v-2.441a1.876,1.876,0,0,0-.43-1.247,1.32,1.32,0,0,0-1.064-.533h-5.869c-.257,0-.453-.249-.453-.582V692.9c0-.33.2-.58.453-.58h5.869c.257,0,.451.25.451.58v.414Z" transform="translate(-820.599 -682.705)" fill="#fff"/>
    </g>
    <g id="Grupo_89852" data-name="Grupo 89852" transform="translate(406.215 413.565)">
      <rect id="Rectángulo_26416" data-name="Rectángulo 26416" width="77.111" height="111.977" transform="translate(0 0)" fill="#1b384c"/>
      <g id="Grupo_89851" data-name="Grupo 89851" transform="translate(5.511 6.297)">
        <g id="Grupo_89850" data-name="Grupo 89850" transform="translate(1.003 24.985)">
          <g id="Grupo_89846" data-name="Grupo 89846" transform="translate(0 7.027)">
            <rect id="Rectángulo_26417" data-name="Rectángulo 26417" width="10.422" height="10.425" fill="#bcbec0"/>
            <rect id="Rectángulo_26418" data-name="Rectángulo 26418" width="10.422" height="10.429" transform="translate(0 18.611)" fill="#fff"/>
            <rect id="Rectángulo_26419" data-name="Rectángulo 26419" width="10.422" height="10.428" transform="translate(0 37.222)" fill="#fff"/>
            <rect id="Rectángulo_26420" data-name="Rectángulo 26420" width="10.422" height="10.429" transform="translate(0 55.833)" fill="#fff"/>
          </g>
          <g id="Grupo_89847" data-name="Grupo 89847" transform="translate(17.888 7.027)">
            <rect id="Rectángulo_26421" data-name="Rectángulo 26421" width="10.424" height="10.425" fill="#bcbec0"/>
            <rect id="Rectángulo_26422" data-name="Rectángulo 26422" width="10.424" height="10.429" transform="translate(0 18.611)" fill="#fff"/>
            <rect id="Rectángulo_26423" data-name="Rectángulo 26423" width="10.424" height="10.428" transform="translate(0 37.222)" fill="#fff"/>
            <rect id="Rectángulo_26424" data-name="Rectángulo 26424" width="10.424" height="10.429" transform="translate(0 55.833)" fill="#fff"/>
          </g>
          <g id="Grupo_89848" data-name="Grupo 89848">
            <rect id="Rectángulo_26425" data-name="Rectángulo 26425" width="10.428" height="10.425" transform="translate(35.773 7.027)" fill="#bcbec0"/>
            <rect id="Rectángulo_26426" data-name="Rectángulo 26426" width="10.422" height="1.427" fill="#fff"/>
            <rect id="Rectángulo_26427" data-name="Rectángulo 26427" width="10.424" height="1.427" transform="translate(17.888)" fill="#fff"/>
            <rect id="Rectángulo_26428" data-name="Rectángulo 26428" width="10.428" height="1.427" transform="translate(35.773)" fill="#fff"/>
            <rect id="Rectángulo_26429" data-name="Rectángulo 26429" width="10.428" height="10.429" transform="translate(35.773 25.638)" fill="#fff"/>
            <rect id="Rectángulo_26430" data-name="Rectángulo 26430" width="10.428" height="10.428" transform="translate(35.773 44.249)" fill="#fff"/>
            <rect id="Rectángulo_26431" data-name="Rectángulo 26431" width="10.428" height="10.429" transform="translate(35.773 62.86)" fill="#fff"/>
          </g>
          <g id="Grupo_89849" data-name="Grupo 89849" transform="translate(53.661 7.027)">
            <rect id="Rectángulo_26432" data-name="Rectángulo 26432" width="10.428" height="10.425" fill="#bcbec0"/>
            <rect id="Rectángulo_26433" data-name="Rectángulo 26433" width="10.428" height="10.429" transform="translate(0 18.611)" fill="#bcbec0"/>
            <rect id="Rectángulo_26434" data-name="Rectángulo 26434" width="10.428" height="29.04" transform="translate(0 37.222)" fill="#bcbec0"/>
          </g>
        </g>
        <rect id="Rectángulo_26435" data-name="Rectángulo 26435" width="66.088" height="19.394" fill="#fff"/>
      </g>
      <path id="Trazado_153545" data-name="Trazado 153545" d="M600.423,597.7a1.769,1.769,0,1,1-1.767-1.765A1.767,1.767,0,0,1,600.423,597.7Z" transform="translate(-533.456 -565.709)" fill="#fff"/>
    </g>
    <g id="Grupo_89853" data-name="Grupo 89853" transform="translate(390.146 427.38)">
      <path id="Trazado_153546" data-name="Trazado 153546" d="M398.545,787.607a.275.275,0,0,1,.283.263v4.094a.273.273,0,0,1-.283.261h-8.051a.273.273,0,0,1-.281-.261V787.87a.275.275,0,0,1,.281-.263Z" transform="translate(-390.187 -697.488)" fill="#bcbec0"/>
      <path id="Trazado_153547" data-name="Trazado 153547" d="M390.213,784.016v1.478h8.615v-1.478a.273.273,0,0,0-.283-.262h-8.051A.273.273,0,0,0,390.213,784.016Z" transform="translate(-390.187 -695.117)" fill="#fff"/>
      <path id="Trazado_153548" data-name="Trazado 153548" d="M390.21,593.6v64.5h8.615V579.385H390.21Z" transform="translate(-390.186 -569.335)" fill="#bf3976"/>
      <path id="Trazado_153549" data-name="Trazado 153549" d="M398.405,593.6v64.5h2.311V579.385h-2.311Z" transform="translate(-395.229 -569.335)" fill="#f2d6e3"/>
      <path id="Trazado_153550" data-name="Trazado 153550" d="M398.809,563.337l-4.329,2.206-4.334-2.2,4.334-10.089Z" transform="translate(-390.146 -553.249)" fill="#fff"/>
      <path id="Trazado_153551" data-name="Trazado 153551" d="M396.712,557.458h3.614l-1.8-4.208Z" transform="translate(-394.187 -553.249)" fill="#1b384c"/>
    </g>
    <g id="Grupo_89855" data-name="Grupo 89855" transform="translate(527.209 433.196)">
      <g id="Grupo_89844-2" data-name="Grupo 89844" transform="translate(0)">
        <g id="Grupo_89843-2" data-name="Grupo 89843">
          <g id="Grupo_89842-2" data-name="Grupo 89842">
            <g id="Grupo_89841-2" data-name="Grupo 89841">
              <path id="Trazado_153542-2" data-name="Trazado 153542" d="M819.393,671.915a13.813,13.813,0,1,0,13.813,13.813A13.827,13.827,0,0,0,819.393,671.915Z" transform="translate(-805.583 -671.915)" fill="#97dedc"/>
            </g>
            <path id="Trazado_153543-2" data-name="Trazado 153543" d="M835.587,691.1a10.253,10.253,0,1,1-10.255-10.252A10.254,10.254,0,0,1,835.587,691.1Z" transform="translate(-811.429 -677.416)" fill="#0ac4bf"/>
          </g>
        </g>
      </g>
      <path id="Trazado_153544-2" data-name="Trazado 153544" d="M838.84,693.316V692.9a1.868,1.868,0,0,0-.43-1.245,1.32,1.32,0,0,0-1.064-.534h-2.413v-1.677h-1.044v1.677h-2.412a1.323,1.323,0,0,0-1.066.533,1.881,1.881,0,0,0-.43,1.246v2.426a1.875,1.875,0,0,0,.43,1.246,1.322,1.322,0,0,0,1.066.534h5.869c.257,0,.451.25.451.582v2.441c0,.333-.194.581-.451.581h-5.869c-.257,0-.453-.249-.453-.581v-.413h-1.043v.413a1.885,1.885,0,0,0,.43,1.248,1.324,1.324,0,0,0,1.066.533h2.412v1.677h1.044v-1.677h2.413a1.323,1.323,0,0,0,1.064-.533,1.877,1.877,0,0,0,.43-1.248v-2.441a1.876,1.876,0,0,0-.43-1.247,1.32,1.32,0,0,0-1.064-.533h-5.869c-.257,0-.453-.249-.453-.582V692.9c0-.33.2-.58.453-.58h5.869c.257,0,.451.25.451.58v.414Z" transform="translate(-820.599 -682.705)" fill="#fff"/>
    </g>
  </g>
</svg>
