<svg xmlns="http://www.w3.org/2000/svg" width="195.57" height="182.574" viewBox="0 0 195.57 182.574">
  <g id="img6" transform="translate(-180 -1638)">
    <rect id="Rect치ngulo_27089" data-name="Rect치ngulo 27089" width="154" height="171" transform="translate(180 1643.787)" fill="#c2fcfa"/>
    <g id="pizza-cutter" transform="translate(231.774 1638)">
      <g id="Grupo_91155" data-name="Grupo 91155" transform="translate(-24.807 59.981)">
        <rect id="Rect치ngulo_27088" data-name="Rect치ngulo 27088" width="34.283" height="8.833" transform="translate(108.627 6.246) rotate(135)" fill="#64798a"/>
        <path id="Trazado_156618" data-name="Trazado 156618" d="M87.248,267.621l6.493-6.494-4.191-6.478a45.643,45.643,0,0,0,3.09-4.622l7.587,1.393,3.514-8.484L97.4,238.56a45.9,45.9,0,0,0,1.076-5.455l7.547-1.618V222.3l-7.547-1.617a45.873,45.873,0,0,0-1.076-5.455l6.345-4.377-3.514-8.484-7.587,1.394a45.672,45.672,0,0,0-3.089-4.622l4.191-6.478-6.493-6.493-6.477,4.192a45.714,45.714,0,0,0-4.622-3.089l1.393-7.587-8.484-3.514-4.377,6.346a45.887,45.887,0,0,0-5.455-1.076L57.61,173.9H48.427l-1.617,7.547a45.805,45.805,0,0,0-5.455,1.077l-4.376-6.346-8.484,3.515,1.393,7.587a45.574,45.574,0,0,0-4.622,3.09l-6.478-4.191-6.494,6.494,4.191,6.478a45.68,45.68,0,0,0-3.09,4.622l-7.587-1.393L2.3,210.861l6.345,4.376a45.908,45.908,0,0,0-1.076,5.455L.018,222.311v9.183l7.547,1.617a45.875,45.875,0,0,0,1.076,5.455l-6.346,4.378,3.514,8.484,7.587-1.394a45.572,45.572,0,0,0,3.089,4.622l-4.191,6.478,6.493,6.493,6.477-4.192a45.516,45.516,0,0,0,4.622,3.089l-1.393,7.587,8.483,3.514,4.377-6.346a45.87,45.87,0,0,0,5.455,1.076l1.617,7.547h9.183l1.617-7.547a45.9,45.9,0,0,0,5.455-1.077l4.376,6.345,8.484-3.515-1.393-7.587a45.579,45.579,0,0,0,4.622-3.09Z" transform="translate(-0.018 -171.265)" fill="#64798a"/>
      </g>
      <g id="Grupo_91156" data-name="Grupo 91156" transform="matrix(0.561, -0.828, 0.828, 0.561, -38.774, 128.491)">
        <ellipse id="Elipse_6479" data-name="Elipse 6479" cx="48.222" cy="48.224" rx="48.222" ry="48.224" transform="translate(96.448 0) rotate(90)" fill="#fff"/>
        <circle id="Elipse_6480" data-name="Elipse 6480" cx="14.723" cy="14.723" r="14.723" transform="matrix(-0.561, -0.828, 0.828, -0.561, 44.295, 68.67)" fill="#64798a"/>
      </g>
      <path id="Trazado_156619" data-name="Trazado 156619" d="M270.81,69.89l15.165,15.164a2.248,2.248,0,0,0,3.179,0l44.259-44.263L315.068,22.448,270.81,66.711A2.248,2.248,0,0,0,270.81,69.89Z" transform="translate(-197.697 -14.365)" fill="#bf3976"/>
      <path id="Trazado_156620" data-name="Trazado 156620" d="M419.6,11.74,409.588,1.725a5.889,5.889,0,0,0-8.328,0L394.9,8.083l18.344,18.343,6.357-6.357A5.89,5.89,0,0,0,419.6,11.74Z" transform="translate(-277.532)" fill="#44c4a1"/>
    </g>
  </g>
</svg>
