<svg xmlns="http://www.w3.org/2000/svg" width="176.068" height="174.809" viewBox="0 0 176.068 174.809">
  <g id="img7" transform="translate(-742.5 -4296.006)">
    <rect id="Rectángulo_26436" data-name="Rectángulo 26436" width="136.929" height="136.929" transform="translate(742.5 4333.886)" fill="#0ac4bf"/>
    <g id="cortar" transform="translate(771.138 4375.085) rotate(-45)">
      <path id="Trazado_118752" data-name="Trazado 118752" d="M22.433,3.263A13.042,13.042,0,0,0,4.051,4.383l-.778.873A13.026,13.026,0,1,0,22.779,22.525l.78-.873A13.044,13.044,0,0,0,22.433,3.263ZM20.7,19.12l-.78.879A9.209,9.209,0,1,1,6.124,7.794L6.9,6.914A9.209,9.209,0,0,1,20.7,19.12Z" transform="translate(9.383 9.374)"/>
      <path id="Trazado_118753" data-name="Trazado 118753" d="M22.78,4.392A13.026,13.026,0,1,0,3.273,21.661l.778.873A13.025,13.025,0,1,0,23.559,5.269ZM19.908,20.8a9.219,9.219,0,0,1-13-.792l-.778-.879A9.208,9.208,0,0,1,19.922,6.925L20.7,7.8A9.218,9.218,0,0,1,19.908,20.8Z" transform="translate(9.378 60.367)"/>
      <path id="Trazado_118754" data-name="Trazado 118754" d="M5.4,0a5.4,5.4,0,1,0,5.4,5.4A5.4,5.4,0,0,0,5.4,0Zm0,6.973A1.578,1.578,0,1,1,6.973,5.4,1.578,1.578,0,0,1,5.4,6.973Z" transform="translate(45.594 42.936)"/>
      <path id="Trazado_118755" data-name="Trazado 118755" d="M63.684,48.332,111.15,8.811a1.908,1.908,0,0,0,.207-2.727A18.129,18.129,0,0,0,98.428.025,20.909,20.909,0,0,0,83.292,5.807L51.745,36.034c-.251-.015-.5-.038-.755-.038a12.286,12.286,0,0,0-1.923.166L43.59,31.6A22.388,22.388,0,0,0,6.419,7.551l-.779.873A22.388,22.388,0,0,0,33.216,42.877L38.665,48.1c0,.079-.012.155-.012.235s.01.156.012.235l-5.449,5.218A22.388,22.388,0,0,0,5.641,88.234l.777.878a22.249,22.249,0,0,0,15.4,7.508c.465.027.928.043,1.391.043a22.391,22.391,0,0,0,20.377-31.6l5.477-4.56a12.286,12.286,0,0,0,1.923.166c.254,0,.5-.023.755-.038L83.3,90.868a20.9,20.9,0,0,0,14.284,5.793q.422,0,.847-.019a18.129,18.129,0,0,0,12.929-6.059,1.908,1.908,0,0,0-.207-2.727ZM50.99,56.85a8.453,8.453,0,0,1-1.915-.227h0a8.509,8.509,0,0,1,0-16.582h.009a8.48,8.48,0,0,1,10.412,7.9v.023c.005.125.019.248.019.374s-.013.249-.019.374v.023A8.522,8.522,0,0,1,50.99,56.85ZM85.927,8.566a17,17,0,0,1,12.335-4.73,14.476,14.476,0,0,1,8.824,3.39L62.618,44.251a12.387,12.387,0,0,0-6.5-7.123ZM34.809,39.112a1.908,1.908,0,0,0-2.355-.226A18.571,18.571,0,0,1,8.5,10.958l.779-.873A18.569,18.569,0,0,1,39.53,31.2a1.909,1.909,0,0,0,.458,2.374l4.881,4.069a12.4,12.4,0,0,0-5.3,6.042Zm5.18,23.98a1.909,1.909,0,0,0-.458,2.374A18.57,18.57,0,0,1,9.276,86.581L8.5,85.708A18.57,18.57,0,0,1,32.453,57.78a1.9,1.9,0,0,0,2.355-.226l4.763-4.565a12.4,12.4,0,0,0,5.3,6.042ZM98.263,92.828A17.047,17.047,0,0,1,85.935,88.1L56.122,59.536a12.387,12.387,0,0,0,6.5-7.123l44.468,37.026a14.476,14.476,0,0,1-8.824,3.39Z" transform="translate(0 0)"/>
      <path id="Trazado_118756" data-name="Trazado 118756" d="M1.909,0a1.909,1.909,0,0,0,0,3.818h9.664a1.909,1.909,0,0,0,0-3.818Z" transform="translate(72.085 46.423)"/>
      <path id="Trazado_118757" data-name="Trazado 118757" d="M1.909,0a1.909,1.909,0,0,0,0,3.818h9.663a1.909,1.909,0,0,0,0-3.818Z" transform="translate(90.002 46.423)"/>
      <path id="Trazado_118758" data-name="Trazado 118758" d="M11.572,0H1.909a1.909,1.909,0,0,0,0,3.818h9.663a1.909,1.909,0,0,0,0-3.818Z" transform="translate(107.919 46.423)"/>
      <path id="Trazado_118759" data-name="Trazado 118759" d="M11.572,0H1.909a1.909,1.909,0,0,0,0,3.818h9.663a1.909,1.909,0,1,0,0-3.818Z" transform="translate(125.834 46.423)"/>
    </g>
  </g>
</svg>
